<svg width="154" height="24" viewBox="0 0 154 24" fill="none" xmlns="http://www.w3.org/2000/svg">
    <g clip-path="url(#clip0_587_7555)">
    <path d="M44.8132 16.8339L47.548 13.8669L55.6989 22.9849H50.1324L44.8083 16.8339H44.8132Z" fill="#FF5100"/>
    <path d="M35.0282 5.68311H30.7515V23.0557H35.0282V5.68311Z" fill="#FF5100"/>
    <path d="M36.6236 23.0368H30.7419L52.1691 0.112305H58.0556L36.6236 23.0368Z" fill="#FF5100"/>
    <path d="M21.1945 17.9659H7.55947L5.08654 22.9895H0.465576L12.2144 0.149902H16.6074L28.3223 22.9942H23.6674L21.1945 17.9707V17.9659ZM19.4392 14.4093L14.3964 4.16405L9.3196 14.4093H19.4392Z" fill="#00C4B3"/>
    <path d="M64.2717 3.70651V9.48481H78.3189V13.0414H64.2717V19.4376H78.7213V22.9942H59.9465V0.149902H78.7213V3.70651H64.2717Z" fill="#00C4B3"/>
    <path d="M88.8701 3.70651V9.48481H102.917V13.0414H88.8701V19.4376H103.32V22.9942H84.5449V0.149902H103.32V3.70651H88.8701Z" fill="#00C4B3"/>
    <path d="M133.189 11.5367C133.189 18.3244 127.884 22.9895 118.904 22.9895H109.143V0.149902H118.904C127.821 0.149902 133.189 4.84802 133.189 11.5414V11.5367ZM128.859 11.5367C128.859 6.57443 125.149 3.73953 118.899 3.73953H113.464V19.4046H118.899C125.377 19.4046 128.859 16.4659 128.859 11.5414V11.5367Z" fill="#00C4B3"/>
    <path d="M149.122 15.0415L150.446 14.1499C150.785 13.9188 150.873 13.466 150.635 13.1358L148.4 10.0084C148.133 9.6358 148.409 9.13108 148.87 9.13108H152.788C153.2 9.13108 153.535 8.80561 153.535 8.40467V6.83391C153.535 6.43297 153.2 6.1075 152.788 6.1075H148.87C148.404 6.1075 148.133 5.60278 148.4 5.23014L150.635 2.10278C150.873 1.77259 150.785 1.31504 150.446 1.08863L149.122 0.197119C148.783 -0.0340127 148.312 0.0508929 148.08 0.381082L144.802 4.97542L141.524 0.381082C141.286 0.0508929 140.821 -0.0340127 140.481 0.197119L139.158 1.08863C138.818 1.31976 138.731 1.77259 138.969 2.10278L141.204 5.23014C141.471 5.60278 141.194 6.1075 140.734 6.1075H136.816C136.404 6.1075 136.069 6.43297 136.069 6.83391V8.40467C136.069 8.80561 136.404 9.13108 136.816 9.13108H140.734C141.199 9.13108 141.471 9.6358 141.204 10.0084L138.969 13.1358C138.731 13.466 138.818 13.9235 139.158 14.1499L140.481 15.0415C140.821 15.2726 141.291 15.1877 141.524 14.8575L144.802 10.2632L148.08 14.8575C148.317 15.1877 148.783 15.2726 149.122 15.0415Z" fill="#FF5100"/>
    </g>
    <defs>
    <clipPath id="clip0_587_7555">
    <rect width="153.069" height="23" fill="white" transform="translate(0.465576 0.0556641)"/>
    </clipPath>
    </defs>
    </svg>
    