<svg width="358" height="54" viewBox="0 0 358 54" fill="none" xmlns="http://www.w3.org/2000/svg">
<rect width="358" height="54" rx="6" fill="white"/>
<path d="M93.1392 35.3247C91.8774 35.3247 90.7858 35.0402 89.8643 34.4712C88.9427 33.9022 88.2314 33.0951 87.7305 32.0498C87.2357 31.0046 86.9883 29.7614 86.9883 28.3203V28.3018C86.9883 26.8545 87.2357 25.6082 87.7305 24.563C88.2314 23.5177 88.9396 22.7106 89.855 22.1416C90.7765 21.5726 91.8713 21.2881 93.1392 21.2881C94.1535 21.2881 95.0688 21.4891 95.8853 21.8911C96.7017 22.2869 97.3665 22.8374 97.8799 23.5425C98.3932 24.2414 98.7025 25.0423 98.8076 25.9453V26.0288H96.4604L96.4512 25.9731C96.3337 25.4474 96.1203 24.9897 95.811 24.6001C95.508 24.2043 95.1276 23.8981 94.6699 23.6816C94.2122 23.4652 93.702 23.3569 93.1392 23.3569C92.3784 23.3569 91.7197 23.5579 91.1631 23.96C90.6064 24.362 90.1766 24.931 89.8735 25.667C89.5767 26.403 89.4282 27.2782 89.4282 28.2925V28.311C89.4282 29.3254 89.5767 30.2036 89.8735 30.9458C90.1766 31.6818 90.6064 32.2508 91.1631 32.6528C91.7197 33.0549 92.3815 33.2559 93.1484 33.2559C93.7174 33.2559 94.2277 33.1569 94.6792 32.959C95.1369 32.7611 95.5173 32.4797 95.8203 32.1147C96.1234 31.7498 96.3337 31.32 96.4512 30.8252L96.4697 30.7695H98.8169L98.8076 30.8438C98.6901 31.7344 98.3778 32.5168 97.8706 33.1909C97.3634 33.8589 96.7048 34.3815 95.8945 34.7588C95.0905 35.1361 94.172 35.3247 93.1392 35.3247ZM105.534 35.2041C104.526 35.2041 103.657 34.9938 102.927 34.5732C102.203 34.1527 101.643 33.5496 101.248 32.7642C100.858 31.9787 100.663 31.0417 100.663 29.9531V29.9346C100.663 28.846 100.861 27.9121 101.257 27.1328C101.653 26.3473 102.212 25.7443 102.936 25.3237C103.666 24.9032 104.532 24.6929 105.534 24.6929C106.536 24.6929 107.398 24.9032 108.122 25.3237C108.852 25.7443 109.415 26.3473 109.811 27.1328C110.206 27.9121 110.404 28.846 110.404 29.9346V29.9531C110.404 31.0417 110.206 31.9787 109.811 32.7642C109.421 33.5496 108.861 34.1527 108.131 34.5732C107.408 34.9938 106.542 35.2041 105.534 35.2041ZM105.534 33.3301C106.066 33.3301 106.517 33.1971 106.888 32.9312C107.259 32.6652 107.544 32.2817 107.742 31.7808C107.94 31.2736 108.039 30.6644 108.039 29.9531V29.9346C108.039 29.2233 107.94 28.6172 107.742 28.1162C107.544 27.6152 107.259 27.2318 106.888 26.9658C106.517 26.6937 106.066 26.5576 105.534 26.5576C105.002 26.5576 104.55 26.6937 104.179 26.9658C103.808 27.2318 103.521 27.6152 103.316 28.1162C103.118 28.6172 103.02 29.2233 103.02 29.9346V29.9531C103.02 30.6644 103.118 31.2736 103.316 31.7808C103.514 32.2817 103.799 32.6652 104.17 32.9312C104.547 33.1971 105.002 33.3301 105.534 33.3301ZM112.64 35V24.8877H114.95V26.437H115.099C115.346 25.8927 115.714 25.466 116.203 25.1567C116.691 24.8475 117.3 24.6929 118.03 24.6929C119.162 24.6929 120.025 25.0207 120.619 25.6763C121.219 26.3319 121.519 27.2596 121.519 28.4595V35H119.208V28.9883C119.208 28.209 119.042 27.6214 118.708 27.2256C118.38 26.8298 117.869 26.6318 117.177 26.6318C116.719 26.6318 116.323 26.7339 115.989 26.938C115.661 27.1421 115.405 27.4297 115.219 27.8008C115.04 28.1657 114.95 28.6017 114.95 29.1089V35H112.64ZM128.124 35.0649C126.974 35.0649 126.142 34.8516 125.628 34.4248C125.115 33.9919 124.858 33.2868 124.858 32.3096V26.6782H123.309V24.8877H124.858V22.4014H127.206V24.8877H129.321V26.6782H127.206V31.79C127.206 32.2972 127.311 32.6652 127.521 32.894C127.737 33.1167 128.084 33.228 128.56 33.228C128.721 33.228 128.854 33.2249 128.959 33.2188C129.07 33.2064 129.191 33.194 129.321 33.1816V34.9629C129.16 34.9876 128.978 35.0093 128.773 35.0278C128.569 35.0526 128.353 35.0649 128.124 35.0649ZM131.594 35V24.8877H133.904V35H131.594ZM132.753 23.2178C132.382 23.2178 132.061 23.0848 131.789 22.8188C131.523 22.5529 131.39 22.2344 131.39 21.8633C131.39 21.486 131.523 21.1675 131.789 20.9077C132.061 20.6418 132.382 20.5088 132.753 20.5088C133.137 20.5088 133.462 20.6418 133.728 20.9077C133.993 21.1675 134.126 21.486 134.126 21.8633C134.126 22.2344 133.993 22.5529 133.728 22.8188C133.462 23.0848 133.137 23.2178 132.753 23.2178ZM136.668 35V24.8877H138.979V26.437H139.127C139.374 25.8927 139.742 25.466 140.231 25.1567C140.72 24.8475 141.329 24.6929 142.059 24.6929C143.19 24.6929 144.053 25.0207 144.647 25.6763C145.247 26.3319 145.547 27.2596 145.547 28.4595V35H143.237V28.9883C143.237 28.209 143.07 27.6214 142.736 27.2256C142.408 26.8298 141.898 26.6318 141.205 26.6318C140.747 26.6318 140.352 26.7339 140.018 26.938C139.69 27.1421 139.433 27.4297 139.248 27.8008C139.068 28.1657 138.979 28.6017 138.979 29.1089V35H136.668ZM151.559 35.2041C150.804 35.2041 150.17 35.0588 149.657 34.7681C149.143 34.4712 148.757 34.0413 148.497 33.4785C148.237 32.9095 148.107 32.2261 148.107 31.4282V24.8877H150.408V30.9087C150.408 31.6818 150.563 32.2663 150.872 32.6621C151.188 33.0579 151.695 33.2559 152.394 33.2559C152.758 33.2559 153.083 33.2002 153.368 33.0889C153.652 32.9714 153.89 32.8044 154.082 32.5879C154.28 32.3714 154.428 32.1117 154.527 31.8086C154.626 31.5055 154.676 31.1623 154.676 30.7788V24.8877H156.977V35H154.676V33.46H154.527C154.367 33.8187 154.147 34.131 153.869 34.397C153.59 34.6567 153.256 34.8577 152.867 35C152.483 35.1361 152.047 35.2041 151.559 35.2041ZM164.055 35.2041C163.053 35.2041 162.19 34.9907 161.467 34.564C160.749 34.1372 160.196 33.5342 159.806 32.7549C159.417 31.9694 159.222 31.0417 159.222 29.9717V29.9624C159.222 28.8986 159.413 27.974 159.797 27.1885C160.187 26.3968 160.737 25.7845 161.448 25.3516C162.16 24.9124 162.991 24.6929 163.944 24.6929C164.909 24.6929 165.737 24.9032 166.43 25.3237C167.129 25.7443 167.664 26.335 168.035 27.0957C168.412 27.8564 168.601 28.744 168.601 29.7583V30.519H160.381V28.979H167.479L166.375 30.4263V29.5078C166.375 28.8337 166.272 28.277 166.068 27.8379C165.864 27.3926 165.583 27.0586 165.224 26.8359C164.865 26.6133 164.448 26.502 163.972 26.502C163.502 26.502 163.081 26.6164 162.71 26.8452C162.345 27.0741 162.054 27.4142 161.838 27.8657C161.628 28.311 161.522 28.8584 161.522 29.5078V30.4263C161.522 31.0509 161.628 31.5859 161.838 32.0312C162.048 32.4704 162.345 32.8075 162.729 33.0425C163.118 33.2775 163.576 33.395 164.102 33.395C164.516 33.395 164.872 33.3363 165.168 33.2188C165.465 33.0951 165.707 32.9466 165.892 32.7734C166.084 32.6003 166.214 32.4364 166.282 32.2817L166.319 32.2075H168.499L168.48 32.3003C168.4 32.6281 168.252 32.9621 168.035 33.3022C167.825 33.6424 167.537 33.9578 167.172 34.2485C166.814 34.533 166.375 34.765 165.855 34.9443C165.335 35.1175 164.736 35.2041 164.055 35.2041ZM177.739 35L174.993 24.8877H177.312L178.992 32.5044H179.149L181.098 24.8877H183.296L185.254 32.5044H185.402L187.082 24.8877H189.373L186.627 35H184.215L182.239 27.6616H182.09L180.124 35H177.739ZM191.321 35V24.8877H193.631V35H191.321ZM192.481 23.2178C192.11 23.2178 191.788 23.0848 191.516 22.8188C191.25 22.5529 191.117 22.2344 191.117 21.8633C191.117 21.486 191.25 21.1675 191.516 20.9077C191.788 20.6418 192.11 20.5088 192.481 20.5088C192.864 20.5088 193.189 20.6418 193.455 20.9077C193.721 21.1675 193.854 21.486 193.854 21.8633C193.854 22.2344 193.721 22.5529 193.455 22.8188C193.189 23.0848 192.864 23.2178 192.481 23.2178ZM200.357 35.0649C199.207 35.0649 198.375 34.8516 197.862 34.4248C197.348 33.9919 197.092 33.2868 197.092 32.3096V26.6782H195.542V24.8877H197.092V22.4014H199.439V24.8877H201.554V26.6782H199.439V31.79C199.439 32.2972 199.544 32.6652 199.754 32.894C199.971 33.1167 200.317 33.228 200.793 33.228C200.954 33.228 201.087 33.2249 201.192 33.2188C201.304 33.2064 201.424 33.194 201.554 33.1816V34.9629C201.393 34.9876 201.211 35.0093 201.007 35.0278C200.803 35.0526 200.586 35.0649 200.357 35.0649ZM203.892 35V21.0005H206.202V26.4463H206.351C206.592 25.902 206.957 25.4753 207.445 25.166C207.94 24.8506 208.552 24.6929 209.282 24.6929C210.037 24.6929 210.671 24.8413 211.184 25.1382C211.704 25.4351 212.099 25.8649 212.372 26.4277C212.644 26.9906 212.78 27.674 212.78 28.478V35H210.47V29.0068C210.47 28.2214 210.303 27.6307 209.969 27.2349C209.635 26.8328 209.121 26.6318 208.429 26.6318C207.971 26.6318 207.575 26.7339 207.241 26.938C206.907 27.1421 206.651 27.4297 206.471 27.8008C206.292 28.1657 206.202 28.6017 206.202 29.1089V35H203.892Z" fill="black"/>
<path d="M229.143 21.9165C229.307 21.9165 229.588 21.9427 229.985 21.9951C230.382 22.0475 230.816 22.1973 231.288 22.4443C231.767 22.6839 232.201 23.0845 232.59 23.646C232.568 23.6685 232.459 23.7508 232.265 23.8931C232.07 24.0278 231.853 24.23 231.613 24.4995C231.374 24.7616 231.164 25.0985 230.984 25.5103C230.805 25.9146 230.715 26.3975 230.715 26.959C230.715 27.6029 230.827 28.1494 231.052 28.5986C231.284 29.0479 231.55 29.411 231.849 29.688C232.156 29.9575 232.426 30.1559 232.658 30.2832C232.897 30.4105 233.025 30.4779 233.04 30.4854C233.032 30.5153 232.935 30.7811 232.748 31.2827C232.568 31.7843 232.268 32.3421 231.849 32.9561C231.482 33.4876 231.085 33.978 230.659 34.4272C230.239 34.8765 229.734 35.1011 229.143 35.1011C228.746 35.1011 228.42 35.0449 228.166 34.9326C227.911 34.8128 227.649 34.6968 227.379 34.5845C227.11 34.4647 226.747 34.4048 226.29 34.4048C225.848 34.4048 225.478 34.4647 225.178 34.5845C224.886 34.7043 224.605 34.8241 224.336 34.9438C224.074 35.0636 223.763 35.1235 223.404 35.1235C222.857 35.1235 222.378 34.9064 221.966 34.4722C221.555 34.0379 221.132 33.5176 220.697 32.9111C220.196 32.1924 219.765 31.3164 219.406 30.2832C219.054 29.2425 218.878 28.1943 218.878 27.1387C218.878 26.0081 219.091 25.061 219.518 24.2974C219.945 23.5262 220.491 22.946 221.158 22.5566C221.832 22.1598 222.528 21.9614 223.247 21.9614C223.628 21.9614 223.988 22.0251 224.325 22.1523C224.662 22.2721 224.976 22.3957 225.268 22.5229C225.568 22.6502 225.837 22.7139 226.077 22.7139C226.309 22.7139 226.578 22.6465 226.885 22.5117C227.192 22.377 227.537 22.2459 227.918 22.1187C228.3 21.9839 228.708 21.9165 229.143 21.9165ZM228.525 20.4902C228.233 20.8421 227.866 21.1379 227.424 21.3774C226.983 21.6095 226.563 21.7256 226.167 21.7256C226.084 21.7256 226.006 21.7181 225.931 21.7031C225.923 21.6807 225.916 21.6395 225.908 21.5796C225.901 21.5197 225.897 21.4561 225.897 21.3887C225.897 20.9395 225.994 20.5052 226.189 20.0859C226.384 19.6592 226.604 19.3073 226.852 19.0303C227.166 18.6559 227.563 18.3452 228.042 18.0981C228.521 17.8511 228.978 17.7201 229.412 17.7051C229.435 17.8024 229.446 17.9185 229.446 18.0532C229.446 18.5024 229.36 18.9404 229.188 19.3672C229.015 19.7865 228.794 20.1608 228.525 20.4902ZM236.892 29.6431V27.3071H241.047C242.088 27.3071 242.896 27.0413 243.473 26.5098C244.049 25.9707 244.337 25.2145 244.337 24.2412V24.2188C244.337 23.238 244.049 22.4818 243.473 21.9502C242.896 21.4186 242.088 21.1528 241.047 21.1528H236.892V18.7944H241.754C242.855 18.7944 243.817 19.019 244.641 19.4683C245.464 19.9175 246.108 20.5501 246.572 21.3662C247.036 22.1748 247.269 23.1219 247.269 24.2075V24.23C247.269 25.3081 247.036 26.2552 246.572 27.0713C246.108 27.8799 245.464 28.5125 244.641 28.9692C243.817 29.4185 242.855 29.6431 241.754 29.6431H236.892ZM235.443 35V18.7944H238.329V35H235.443ZM252.188 35.2021C251.401 35.2021 250.705 35.0524 250.099 34.7529C249.5 34.446 249.028 34.0229 248.684 33.4839C248.347 32.9373 248.178 32.3047 248.178 31.5859V31.5635C248.178 30.8447 248.354 30.2308 248.706 29.7217C249.065 29.2051 249.586 28.8008 250.267 28.5088C250.948 28.2093 251.776 28.0296 252.749 27.9697L257.297 27.689V29.542L253.142 29.8003C252.423 29.8452 251.877 30.0099 251.502 30.2944C251.136 30.5789 250.952 30.9608 250.952 31.4399V31.4624C250.952 31.964 251.143 32.3571 251.525 32.6416C251.907 32.9261 252.405 33.0684 253.019 33.0684C253.565 33.0684 254.052 32.9598 254.479 32.7427C254.913 32.5181 255.253 32.2186 255.5 31.8442C255.748 31.4624 255.871 31.0356 255.871 30.564V26.8804C255.871 26.2739 255.68 25.8022 255.298 25.4653C254.917 25.1284 254.362 24.96 253.636 24.96C252.985 24.96 252.457 25.091 252.053 25.353C251.656 25.6076 251.405 25.9482 251.3 26.375L251.278 26.4648H248.672L248.684 26.3413C248.751 25.6375 248.998 25.0161 249.425 24.4771C249.852 23.938 250.428 23.515 251.154 23.208C251.888 22.8936 252.753 22.7363 253.749 22.7363C254.767 22.7363 255.639 22.901 256.365 23.2305C257.099 23.5524 257.664 24.0166 258.061 24.623C258.458 25.222 258.656 25.9295 258.656 26.7456V35H255.871V33.2144H255.77C255.545 33.6261 255.253 33.9818 254.894 34.2812C254.535 34.5732 254.127 34.8016 253.67 34.9663C253.213 35.1235 252.719 35.2021 252.188 35.2021ZM262.621 39.0767C262.389 39.0767 262.153 39.0654 261.913 39.043C261.681 39.0205 261.479 38.998 261.307 38.9756V36.8418C261.411 36.8568 261.542 36.8717 261.7 36.8867C261.857 36.9017 262.025 36.9092 262.205 36.9092C262.752 36.9092 263.19 36.8081 263.519 36.606C263.848 36.4038 264.096 36.0444 264.26 35.5278L264.429 35.0112L260.116 22.9722H263.16L266.203 33.3267L265.675 32.5181H266.394L265.855 33.3267L268.91 22.9722H271.852L267.528 35.3594C267.214 36.2803 266.836 37.0103 266.394 37.5493C265.96 38.0959 265.436 38.4852 264.822 38.7173C264.208 38.9569 263.474 39.0767 262.621 39.0767Z" fill="black"/>
</svg>
