<svg width="159" height="32" viewBox="0 0 159 32" fill="none" xmlns="http://www.w3.org/2000/svg">
<rect x="0.00146484" width="159.001" height="32" rx="8" fill="black"/>
<path d="M70.5725 13.1738C70.6584 13.1738 70.8049 13.1875 71.012 13.2148C71.219 13.2422 71.4456 13.3203 71.6917 13.4492C71.9417 13.5742 72.1682 13.7832 72.3713 14.0762C72.3596 14.0879 72.303 14.1309 72.2014 14.2051C72.0999 14.2754 71.9866 14.3809 71.8616 14.5215C71.7366 14.6582 71.6272 14.834 71.5334 15.0488C71.4397 15.2598 71.3928 15.5117 71.3928 15.8047C71.3928 16.1406 71.4514 16.4258 71.5686 16.6602C71.6897 16.8945 71.8284 17.084 71.9846 17.2285C72.1448 17.3691 72.2854 17.4727 72.4065 17.5391C72.5315 17.6055 72.5979 17.6406 72.6057 17.6445C72.6018 17.6602 72.551 17.7988 72.4534 18.0605C72.3596 18.3223 72.2034 18.6133 71.9846 18.9336C71.7932 19.2109 71.5862 19.4668 71.3635 19.7012C71.1448 19.9355 70.8811 20.0527 70.5725 20.0527C70.3655 20.0527 70.1956 20.0234 70.0627 19.9648C69.9299 19.9023 69.7932 19.8418 69.6526 19.7832C69.512 19.7207 69.3225 19.6895 69.0842 19.6895C68.8538 19.6895 68.6604 19.7207 68.5042 19.7832C68.3518 19.8457 68.2053 19.9082 68.0647 19.9707C67.928 20.0332 67.7659 20.0645 67.5784 20.0645C67.2932 20.0645 67.0432 19.9512 66.8284 19.7246C66.6135 19.498 66.3928 19.2266 66.1663 18.9102C65.9045 18.5352 65.6799 18.0781 65.4924 17.5391C65.3088 16.9961 65.217 16.4492 65.217 15.8984C65.217 15.3086 65.3284 14.8145 65.551 14.416C65.7737 14.0137 66.0588 13.7109 66.4065 13.5078C66.7581 13.3008 67.1213 13.1973 67.4963 13.1973C67.6956 13.1973 67.8831 13.2305 68.0588 13.2969C68.2346 13.3594 68.3987 13.4238 68.551 13.4902C68.7073 13.5566 68.8479 13.5898 68.9729 13.5898C69.094 13.5898 69.2346 13.5547 69.3948 13.4844C69.5549 13.4141 69.7346 13.3457 69.9338 13.2793C70.1331 13.209 70.3459 13.1738 70.5725 13.1738ZM70.2502 12.4297C70.0979 12.6133 69.9065 12.7676 69.676 12.8926C69.4456 13.0137 69.2268 13.0742 69.0198 13.0742C68.9768 13.0742 68.9358 13.0703 68.8967 13.0625C68.8928 13.0508 68.8889 13.0293 68.885 12.998C68.8811 12.9668 68.8792 12.9336 68.8792 12.8984C68.8792 12.6641 68.9299 12.4375 69.0315 12.2188C69.1331 11.9961 69.2483 11.8125 69.3772 11.668C69.5413 11.4727 69.7483 11.3105 69.9983 11.1816C70.2483 11.0527 70.4866 10.9844 70.7131 10.9766C70.7249 11.0273 70.7307 11.0879 70.7307 11.1582C70.7307 11.3926 70.6858 11.6211 70.5959 11.8438C70.5061 12.0625 70.3909 12.2578 70.2502 12.4297ZM74.8147 17.2051V15.9863H77.0647C77.6077 15.9863 78.0295 15.8477 78.3303 15.5703C78.6311 15.2891 78.7815 14.8945 78.7815 14.3867V14.375C78.7815 13.8633 78.6311 13.4688 78.3303 13.1914C78.0295 12.9141 77.6077 12.7754 77.0647 12.7754H74.8147V11.5449H77.4338C78.0081 11.5449 78.51 11.6621 78.9397 11.8965C79.3694 12.1309 79.7053 12.4609 79.9475 12.8867C80.1897 13.3086 80.3108 13.8027 80.3108 14.3691V14.3809C80.3108 14.9434 80.1897 15.4375 79.9475 15.8633C79.7053 16.2852 79.3694 16.6152 78.9397 16.8535C78.51 17.0879 78.0081 17.2051 77.4338 17.2051H74.8147ZM74.0588 20V11.5449H75.5706V20H74.0588ZM83.3401 20.1055C82.9377 20.1055 82.5764 20.0273 82.2561 19.8711C81.9397 19.7148 81.6897 19.4941 81.5061 19.209C81.3264 18.9199 81.2366 18.5801 81.2366 18.1895V18.1777C81.2366 17.7988 81.3303 17.4727 81.5178 17.1992C81.7053 16.9219 81.9807 16.7051 82.344 16.5488C82.7073 16.3926 83.1487 16.3008 83.6682 16.2734L86.0354 16.127V17.0879L83.8733 17.2285C83.4631 17.252 83.1604 17.3379 82.9651 17.4863C82.7698 17.6348 82.6721 17.8418 82.6721 18.1074V18.1191C82.6721 18.3926 82.7756 18.6055 82.9827 18.7578C83.1936 18.9102 83.4612 18.9863 83.7854 18.9863C84.0784 18.9863 84.3401 18.9277 84.5706 18.8105C84.801 18.6934 84.9827 18.5352 85.1155 18.3359C85.2483 18.1328 85.3147 17.9043 85.3147 17.6504V15.623C85.3147 15.3027 85.2131 15.0586 85.01 14.8906C84.8069 14.7188 84.5061 14.6328 84.1077 14.6328C83.7756 14.6328 83.5042 14.6914 83.2932 14.8086C83.0823 14.9219 82.9397 15.084 82.8655 15.2949L82.8596 15.3184H81.4827L81.4885 15.2656C81.5354 14.9062 81.676 14.5918 81.9104 14.3223C82.1448 14.0527 82.4553 13.8438 82.842 13.6953C83.2288 13.5469 83.6741 13.4727 84.178 13.4727C84.7327 13.4727 85.2014 13.5586 85.5842 13.7305C85.967 13.8984 86.2581 14.1445 86.4573 14.4688C86.6565 14.7891 86.7561 15.1738 86.7561 15.623V20H85.3147V19.1211H85.2151C85.0979 19.3242 84.9456 19.5 84.7581 19.6484C84.5745 19.7969 84.3635 19.9102 84.1252 19.9883C83.887 20.0664 83.6252 20.1055 83.3401 20.1055ZM88.9944 22.25C88.9045 22.25 88.8108 22.248 88.7131 22.2441C88.6194 22.2402 88.5276 22.2344 88.4377 22.2266V21.1074C88.4963 21.1152 88.5647 21.1191 88.6428 21.1191C88.7209 21.123 88.7971 21.125 88.8713 21.125C89.1721 21.125 89.4124 21.0586 89.592 20.9258C89.7756 20.7969 89.9065 20.5879 89.9846 20.2988L90.0608 20.0059L87.7698 13.5957H89.3635L91.051 19.2676L90.6526 18.5996H91.1565L90.7698 19.2676L92.4573 13.5957H93.9924L91.6956 20.1406C91.512 20.6719 91.301 21.0918 91.0627 21.4004C90.8245 21.709 90.5374 21.9277 90.2014 22.0566C89.8694 22.1855 89.467 22.25 88.9944 22.25Z" fill="white"/>
</svg>
