<svg width="144" height="149" viewBox="0 0 144 149" fill="none" xmlns="http://www.w3.org/2000/svg">
    <g clip-path="url(#clip0_915_15488)">
    <path d="M18.2997 97.0912C13.5678 81.5684 7.58218 44.3693 39.5596 28.4699C74.364 11.1648 101.119 59.9581 115.886 53.6936C115.886 53.6936 159.504 37.0308 168.515 75.0487C176.514 108.792 122.722 129.616 74.1208 132.969C51.5069 134.53 25.2925 120.03 18.2997 97.0912Z" fill="#E6F9F7"/>
    <path fill-rule="evenodd" clip-rule="evenodd" d="M102.303 105.502L121.649 113.001L117.369 95.0881L102.303 105.502Z" fill="#FFD0B6"/>
    <path d="M97.5527 37.3577L59.3322 46.489C44.0475 50.1408 34.6006 65.4232 38.2321 80.6233L40.7355 91.1015C44.367 106.302 59.7017 115.663 74.9864 112.012L113.207 102.88C128.492 99.2286 137.938 83.9462 134.307 68.7461L131.804 58.2678C128.172 43.0678 112.837 33.706 97.5527 37.3577Z" fill="#FFD0B6"/>
    <path d="M89.7048 61.5266L54.5927 69.9153C53.5001 70.1764 52.8247 71.2689 53.0843 72.3555L53.8007 75.3541C54.0603 76.4407 55.1566 77.11 56.2493 76.8489L91.3614 68.4602C92.454 68.1991 93.1294 67.1066 92.8698 66.02L92.1534 63.0214C91.8938 61.9348 90.7975 61.2655 89.7048 61.5266Z" fill="#FF5100"/>
    <path d="M75.5332 79.3278L57.851 83.5522C56.7584 83.8133 56.083 84.9058 56.3426 85.9925L57.059 88.991C57.3186 90.0777 58.4149 90.7469 59.5076 90.4859L77.1897 86.2614C78.2824 86.0003 78.9578 84.9078 78.6982 83.8212L77.9818 80.8226C77.7221 79.736 76.6259 79.0667 75.5332 79.3278Z" fill="#FF5100"/>
    <path d="M107.822 78.6405C107.25 77.1827 106.973 75.787 106.989 74.4542C107.004 73.1212 107.192 71.8586 107.553 70.6648C107.913 69.4718 108.376 68.3319 108.941 67.2438C109.505 66.1571 110.032 65.1011 110.522 64.075C111.012 63.0503 111.388 62.0636 111.652 61.1139C111.915 60.1652 111.932 59.2093 111.702 58.2451C111.341 56.7368 110.598 55.6302 109.472 54.9242C108.345 54.2197 106.981 54.0574 105.381 54.4398C104.074 54.752 102.964 55.3279 102.051 56.1654C101.138 57.0044 100.337 58.0367 99.651 59.264L94.7201 56.5217C95.7303 54.5976 97.0706 52.8931 98.7435 51.4076C100.415 49.923 102.452 48.8938 104.854 48.3199C106.498 47.9273 108.067 47.7849 109.563 47.8926C111.058 48.0003 112.406 48.3759 113.607 49.0191C114.807 49.6626 115.847 50.5664 116.727 51.729C117.606 52.8925 118.251 54.3334 118.661 56.0507C118.982 57.3924 119.026 58.6546 118.798 59.8385C118.568 61.0228 118.211 62.183 117.725 63.3176C117.238 64.4531 116.69 65.5584 116.078 66.6345C115.467 67.7106 114.95 68.8093 114.527 69.9287C114.104 71.0491 113.823 72.2014 113.683 73.3864C113.543 74.5725 113.717 75.8151 114.206 77.1152L107.822 78.6403L107.822 78.6405ZM114.454 92.1389C113.105 92.4613 111.879 92.266 110.774 91.5565C109.669 90.8468 108.946 89.7787 108.605 88.3534C108.265 86.9281 108.427 85.6498 109.092 84.5161C109.756 83.3837 110.762 82.6552 112.112 82.3328C113.461 82.0105 114.697 82.2033 115.823 82.9078C116.949 83.6138 117.683 84.6787 118.023 86.1034C118.363 87.528 118.191 88.8102 117.505 89.9482C116.819 91.0859 115.802 91.8169 114.454 92.1389Z" fill="#FF5100"/>
    </g>
    <defs>
    <clipPath id="clip0_915_15488">
    <rect width="153.805" height="129.369" fill="white" transform="translate(0.326172 30.6378) rotate(-13.4368)"/>
    </clipPath>
    </defs>
    </svg>
    