<svg width="159" height="149" viewBox="0 0 159 149" fill="none" xmlns="http://www.w3.org/2000/svg">
    <g clip-path="url(#clip0_915_16080)">
    <path d="M-2.70026 97.0912C-7.43219 81.5684 -13.4178 44.3693 18.5596 28.4699C53.364 11.1648 80.119 59.9581 94.886 53.6936C94.886 53.6936 138.504 37.0308 147.515 75.0487C155.514 108.792 101.722 129.616 53.1208 132.969C30.5069 134.53 4.29248 120.03 -2.70026 97.0912Z" fill="#1D7A72"/>
    <path fill-rule="evenodd" clip-rule="evenodd" d="M81.3027 105.502L100.649 113.001L96.3693 95.0881L81.3027 105.502Z" fill="#FFD0B6"/>
    <path d="M76.5527 37.3577L38.3322 46.489C23.0475 50.1408 13.6006 65.4232 17.2321 80.6233L19.7355 91.1015C23.367 106.302 38.7017 115.663 53.9864 112.012L92.2069 102.88C107.492 99.2286 116.938 83.9462 113.307 68.7461L110.804 58.2678C107.172 43.0678 91.8375 33.706 76.5527 37.3577Z" fill="#FFD0B6"/>
    <path d="M68.7048 61.5266L33.5927 69.9153C32.5001 70.1764 31.8247 71.2689 32.0843 72.3555L32.8007 75.3541C33.0603 76.4407 34.1566 77.11 35.2493 76.8489L70.3614 68.4602C71.454 68.1991 72.1294 67.1066 71.8698 66.02L71.1534 63.0214C70.8938 61.9348 69.7975 61.2655 68.7048 61.5266Z" fill="#FF5100"/>
    <path d="M54.5332 79.3278L36.851 83.5522C35.7584 83.8133 35.083 84.9058 35.3426 85.9925L36.059 88.991C36.3186 90.0777 37.4149 90.7469 38.5076 90.4859L56.1897 86.2614C57.2824 86.0003 57.9578 84.9078 57.6982 83.8212L56.9818 80.8226C56.7221 79.736 55.6259 79.0667 54.5332 79.3278Z" fill="#FF5100"/>
    <path d="M86.8218 78.6405C86.25 77.1827 85.9733 75.787 85.9885 74.4542C86.0044 73.1212 86.1922 71.8586 86.5531 70.6648C86.9135 69.4718 87.3761 68.3319 87.9407 67.2438C88.5049 66.1571 89.032 65.1011 89.5219 64.075C90.012 63.0503 90.3882 62.0636 90.6522 61.1139C90.915 60.1652 90.9321 59.2093 90.7018 58.2451C90.3414 56.7368 89.5977 55.6302 88.4719 54.9242C87.3451 54.2197 85.9813 54.0574 84.3805 54.4398C83.074 54.752 81.9639 55.3279 81.0509 56.1654C80.1376 57.0044 79.3369 58.0367 78.651 59.264L73.7201 56.5217C74.7303 54.5976 76.0706 52.8931 77.7435 51.4076C79.4153 49.923 81.4523 48.8938 83.8544 48.3199C85.4978 47.9273 87.0671 47.7849 88.5627 47.8926C90.0584 48.0003 91.4061 48.3759 92.6072 49.0191C93.807 49.6626 94.8475 50.5664 95.7269 51.729C96.6058 52.8925 97.2509 54.3334 97.6612 56.0507C97.9817 57.3924 98.0262 58.6546 97.7977 59.8385C97.5678 61.0228 97.2106 62.183 96.7248 63.3176C96.2378 64.4531 95.6897 65.5584 95.0785 66.6345C94.4673 67.7106 93.9497 68.8093 93.5273 69.9287C93.1038 71.0491 92.8225 72.2014 92.6831 73.3864C92.5426 74.5725 92.7171 75.8151 93.2062 77.1152L86.8225 78.6403L86.8218 78.6405ZM93.4543 92.1389C92.1051 92.4613 90.8791 92.266 89.7736 91.5565C88.6688 90.8468 87.946 89.7787 87.6054 88.3534C87.2649 86.9281 87.4272 85.6498 88.0916 84.5161C88.7563 83.3837 89.7623 82.6552 91.1115 82.3328C92.4607 82.0105 93.697 82.2033 94.8232 82.9078C95.9491 83.6138 96.6827 84.6787 97.0231 86.1034C97.3635 87.528 97.1905 88.8102 96.5053 89.9482C95.8185 91.0859 94.8022 91.8169 93.4543 92.1389Z" fill="#FF5100"/>
    </g>
    <defs>
    <clipPath id="clip0_915_16080">
    <rect width="153.805" height="129.369" fill="white" transform="translate(-20.6738 30.6378) rotate(-13.4368)"/>
    </clipPath>
    </defs>
    </svg>
    