<svg width="32" height="22" viewBox="0 0 32 22" fill="none" xmlns="http://www.w3.org/2000/svg">
<g id="Large_Preview" clip-path="url(#clip0_1364_11467)">
<path id="Vector" d="M24 4.00415V21.3333H8V4.00415" stroke="#1D1F1F" stroke-width="1.5" stroke-linecap="round" stroke-linejoin="round"/>
<path id="Vector_2" d="M16 12.6667V13.3334" stroke="#1D1F1F" stroke-width="1.5" stroke-linecap="round" stroke-linejoin="round"/>
<path id="Vector_3" d="M4.66669 4H27.3334" stroke="#1D1F1F" stroke-width="1.5" stroke-linecap="round" stroke-linejoin="round"/>
<path id="Vector_4" d="M11.3333 10.6667V16.0001C12.4375 16.0001 13.3333 16.8959 13.3333 18.0001H18.6666C18.6666 16.8959 19.5625 16.0001 20.6666 16.0001V10.6667" stroke="#1D1F1F" stroke-width="1.5" stroke-linecap="round" stroke-linejoin="round"/>
<path id="Vector_5" d="M19.8875 4.00675C20.38 4.55008 20.6666 5.20258 20.6666 5.90425C20.6666 7.79758 18.5775 9.33342 16 9.33342C13.4225 9.33342 11.3333 7.79842 11.3333 5.90425C11.3333 5.20092 11.6216 4.54758 12.1158 4.00342" stroke="#1D1F1F" stroke-width="1.5" stroke-linecap="round" stroke-linejoin="round"/>
<path id="Vector_6" d="M6.00002 7.33341H2.00002C1.26335 7.33341 0.666687 6.73675 0.666687 6.00008V2.00008C0.666687 1.26341 1.26335 0.666748 2.00002 0.666748H30C30.7367 0.666748 31.3334 1.26341 31.3334 2.00008V6.00008C31.3334 6.73675 30.7367 7.33341 30 7.33341H26" stroke="#1D1F1F" stroke-width="1.5" stroke-linecap="round" stroke-linejoin="round"/>
</g>
<defs>
<clipPath id="clip0_1364_11467">
<rect width="32" height="22" fill="white"/>
</clipPath>
</defs>
</svg>
