<svg width="171" height="137" viewBox="0 0 171 137" fill="none" xmlns="http://www.w3.org/2000/svg">
<g clip-path="url(#clip0_2136_7878)">
<path d="M189.152 133.402C199.916 109.232 197.812 97.0659 193.24 90.4066C188.781 83.9147 183.172 84.3948 179.31 76.8794C173.751 66.0595 182.631 58.642 180.754 42.9097C178.81 26.6026 166.135 15.5552 162.975 12.8605C143.724 -3.56038 115.566 -1.95557 97.8654 4.98178C82.8192 10.8798 83.4606 17.4444 65.0749 23.5825C47.4596 29.4615 38.4319 26.5931 33.9227 33.3567C28.4419 41.5766 42.0606 51.6383 38.5231 67.4874C35.5515 80.8061 23.8038 81.4285 17.8954 95.6538C12.4554 108.745 15.8011 122.866 19.7946 133.209C76.2472 133.272 132.7 133.339 189.152 133.402Z" fill="#F4F7F7"/>
<path d="M175.964 43.9239C173.018 42.4391 169.138 39.855 166.427 35.527C164.012 31.673 164.443 29.4995 164.6 28.8709C164.739 28.318 165.33 26.3278 166.877 25.8318C168.553 25.2948 170.339 26.8269 171.194 27.5598C175.999 31.6793 176.033 41.027 175.964 43.9239Z" fill="#A6DE99"/>
<path d="M172.427 56.0108C169.518 54.7661 165.651 52.5231 162.795 48.549C160.255 45.0108 160.535 42.9101 160.648 42.3003C160.748 41.7633 161.195 39.8299 162.648 39.2676C164.22 38.6579 166.022 40.0163 166.883 40.6671C171.729 44.319 172.32 53.2434 172.427 56.0139V56.0108Z" fill="#A6DE99"/>
<path d="M164.201 87.2318C165.975 84.4392 168.956 80.8378 173.613 78.6107C177.757 76.6299 179.939 77.3123 180.568 77.5429C181.122 77.7483 183.099 78.5728 183.467 80.1871C183.867 81.9341 182.147 83.5547 181.323 84.3318C176.697 88.6882 167.151 87.6362 164.201 87.2318Z" fill="#A6DE99"/>
<path d="M163.512 86.6853C160.604 85.4407 156.736 83.1977 153.881 79.2236C151.34 75.6854 151.62 73.5846 151.733 72.9749C151.834 72.4379 152.28 70.5045 153.733 69.9422C155.305 69.3325 157.107 70.6909 157.969 71.3417C162.814 74.9936 163.405 83.918 163.512 86.6885V86.6853Z" fill="#A6DE99"/>
<path d="M168.43 72.3053C170.194 69.5095 173.144 65.8892 177.703 63.6115C181.76 61.5834 183.873 62.231 184.48 62.4521C185.014 62.648 186.923 63.4377 187.259 65.0331C187.624 66.7611 185.926 68.3943 185.115 69.1778C180.555 73.5689 171.292 72.6654 168.43 72.3053Z" fill="#A6DE99"/>
<path d="M167.896 72.4947C165.003 70.9057 161.217 68.1857 158.66 63.763C156.384 59.8268 156.89 57.6691 157.069 57.0436C157.227 56.4939 157.89 54.529 159.453 54.0899C161.145 53.6128 162.877 55.2082 163.707 55.9727C168.364 60.2595 168.066 69.6041 167.896 72.4978V72.4947Z" fill="#A6DE99"/>
<path d="M158.333 101.217C164.927 84.4361 178.662 32.1912 178.798 31.6667L180.162 32.0269C180.024 32.5545 166.27 84.8784 159.645 101.738L158.333 101.217Z" fill="#A6DE99"/>
<g opacity="0.5">
<path d="M52.5474 84.5244L67.3798 63.4881L73.6342 58.6262L118.908 58.9042L132.156 61.8896L139.442 76.8889L141.479 84.5244H52.5474Z" fill="#F3EDFD"/>
</g>
<path d="M177.335 118.677L174.071 92.2041C173.631 88.6312 170.773 85.8481 167.204 85.5132L140.903 83.0617L139.18 82.9006H56.0971L15.0555 89.2409C11.1501 89.8632 8.08738 92.9402 7.46477 96.8606L4.00586 118.674H177.335V118.677Z" fill="#E96F3B"/>
<path d="M174.735 97.5557H7.35499L4.00928 118.677H177.335L174.735 97.5557Z" fill="#B95334"/>
<path d="M35.8628 90.8552C20.5681 90.8552 8.16943 103.311 8.16943 118.677H63.5592C63.5592 103.311 51.1606 90.8552 35.8659 90.8552H35.8628Z" fill="#B95334"/>
<path d="M144.834 90.8552C129.539 90.8552 117.141 103.311 117.141 118.677H172.53C172.53 103.311 160.132 90.8552 144.837 90.8552H144.834Z" fill="#B95334"/>
<path d="M51.6889 118.677C51.6291 109.949 44.5667 102.891 35.8659 102.891C27.1652 102.891 20.1027 109.949 20.043 118.677H51.692H51.6889Z" fill="#1B123D"/>
<path d="M51.6889 118.677C51.6291 109.949 44.5667 102.891 35.8659 102.891C27.1652 102.891 20.1027 109.949 20.043 118.677H51.692H51.6889Z" fill="black"/>
<path d="M35.8623 131.964C43.1667 131.964 49.088 126.016 49.088 118.677C49.088 111.339 43.1667 105.39 35.8623 105.39C28.558 105.39 22.6367 111.339 22.6367 118.677C22.6367 126.016 28.558 131.964 35.8623 131.964Z" fill="#3A3A3A"/>
<path d="M35.8627 126.512C40.1696 126.512 43.661 123.004 43.661 118.677C43.661 114.35 40.1696 110.843 35.8627 110.843C31.5559 110.843 28.0645 114.35 28.0645 118.677C28.0645 123.004 31.5559 126.512 35.8627 126.512Z" fill="#DDDDDD"/>
<path d="M35.8628 122.197C37.7974 122.197 39.3657 120.621 39.3657 118.677C39.3657 116.734 37.7974 115.158 35.8628 115.158C33.9282 115.158 32.3599 116.734 32.3599 118.677C32.3599 120.621 33.9282 122.197 35.8628 122.197Z" fill="#C6C6C6"/>
<path d="M160.657 118.677C160.597 109.949 153.535 102.891 144.834 102.891C136.133 102.891 129.071 109.949 129.011 118.677H160.66H160.657Z" fill="black"/>
<path d="M147.868 131.615C154.977 129.93 159.38 122.773 157.702 115.631C156.025 108.489 148.901 104.066 141.792 105.752C134.683 107.437 130.281 114.594 131.958 121.736C133.636 128.878 140.76 133.301 147.868 131.615Z" fill="#3A3A3A"/>
<path d="M146.622 126.309C150.813 125.315 153.409 121.095 152.42 116.884C151.431 112.673 147.231 110.065 143.039 111.058C138.847 112.052 136.251 116.272 137.241 120.483C138.23 124.694 142.43 127.302 146.622 126.309Z" fill="#D1ABF7"/>
<path d="M145.635 122.109C147.518 121.662 148.684 119.767 148.24 117.875C147.795 115.984 145.909 114.812 144.026 115.258C142.143 115.705 140.977 117.6 141.421 119.492C141.866 121.384 143.752 122.555 145.635 122.109Z" fill="#AB85D6"/>
<path d="M128.782 117.088H52.0284C51.1543 117.088 50.4468 117.799 50.4468 118.677C50.4468 119.556 51.1543 120.266 52.0284 120.266H128.782C129.656 120.266 130.363 119.556 130.363 118.677C130.363 117.799 129.656 117.088 128.782 117.088Z" fill="#C6C6C6"/>
<path d="M19.8134 117.088H6.19153C5.318 117.088 4.60986 117.8 4.60986 118.677V118.681C4.60986 119.558 5.318 120.27 6.19153 120.27H19.8134C20.6869 120.27 21.395 119.558 21.395 118.681V118.677C21.395 117.8 20.6869 117.088 19.8134 117.088Z" fill="#C6C6C6"/>
<path d="M160.66 117.088H177.313C178.188 117.088 178.895 117.799 178.895 118.677C178.895 119.556 178.188 120.266 177.313 120.266H160.66C159.786 120.266 159.079 119.556 159.079 118.677C159.079 117.799 159.786 117.088 160.66 117.088Z" fill="#AB85D6"/>
<path d="M85.6017 93.354H90.5762C91.2617 93.354 91.8183 92.7949 91.8183 92.1062H84.3564C84.3564 92.7949 84.913 93.354 85.5985 93.354H85.6017Z" fill="#B95334"/>
<path d="M116.688 93.354H121.663C122.348 93.354 122.905 92.7949 122.905 92.1062H115.443C115.443 92.7949 115.999 93.354 116.685 93.354H116.688Z" fill="#B95334"/>
<path d="M9.69766 95.5117H7.54684C5.58096 95.5117 3.9873 97.1128 3.9873 99.0878V99.091C3.9873 101.066 5.58096 102.667 7.54684 102.667H9.69766C11.6635 102.667 13.2572 101.066 13.2572 99.091V99.0878C13.2572 97.1128 11.6635 95.5117 9.69766 95.5117Z" fill="#E0D23A"/>
<path d="M9.0717 105.163H5.45557V107.889H9.0717V105.163Z" fill="#D6AF31"/>
<path d="M59.0591 82.9038H137.712L136.793 80.8599H60.6124L59.0591 82.9038Z" fill="#B95334"/>
<path d="M104.478 59.9658H102.33V83.4726H104.478V59.9658Z" fill="#E96F3B"/>
<path d="M4.53113 111.939H12.1439V120.266H4.53113C2.2451 120.266 0.386719 118.399 0.386719 116.103C0.386719 113.806 2.2451 111.939 4.53113 111.939Z" fill="#DDDDDD"/>
<path d="M176.077 120.27H170.03V111.942H176.077C178.363 111.942 180.222 113.809 180.222 116.106C180.222 118.403 178.363 120.27 176.077 120.27Z" fill="#DABAF8"/>
<path d="M103.859 82.79H102.953V101.416H103.859V82.79Z" fill="#B95334"/>
<path d="M92.8687 82.79L96.0131 75.0977H102.33V82.79H92.8687Z" fill="#B95334"/>
<path d="M129.278 83.365L132.423 75.6726H138.74L139.507 83.365H129.278Z" fill="#B95334"/>
<path d="M141.627 87.0959H52.3992C51.6225 87.0959 50.9119 86.66 50.5566 85.965C50.2012 85.27 50.261 84.436 50.7138 83.801L66.5241 61.6116C68.785 58.4399 72.4515 56.5444 76.3349 56.5444H122.656C129.646 56.5444 135.828 61.0177 138.045 67.677L143.592 84.3507C143.803 84.9857 143.699 85.6838 143.309 86.2272C142.919 86.7706 142.293 87.0928 141.627 87.0928V87.0959ZM56.4336 82.9291H138.746L134.111 68.9975C132.464 64.0409 127.86 60.7081 122.656 60.7081H76.3349C73.7847 60.7081 71.3792 61.9528 69.895 64.0346L56.4336 82.9291Z" fill="#E96F3B"/>
<path d="M60.204 79.0688L57.7482 79.9723C56.4841 80.4366 55.6445 81.6466 55.6445 82.9987C55.6445 83.5104 56.0596 83.9274 56.569 83.9274H61.0624C62.4397 83.9274 63.556 82.8059 63.556 81.4223C63.556 79.6816 61.8297 78.4685 60.204 79.0688Z" fill="#B95334"/>
<path d="M170.125 126.607H137.967C136.487 126.607 135.288 127.812 135.288 129.298C135.288 130.785 136.487 131.99 137.967 131.99H170.125C171.605 131.99 172.804 130.785 172.804 129.298C172.804 127.812 171.605 126.607 170.125 126.607Z" fill="#FDC854"/>
<path d="M135.288 130.96C135.288 131.528 135.747 131.99 136.313 131.99H171.779C172.345 131.99 172.804 131.528 172.804 130.96V130.407H135.288V130.96Z" fill="#F89F4F"/>
<path d="M170.125 121.22H137.967C136.487 121.22 135.288 122.425 135.288 123.912C135.288 125.398 136.487 126.604 137.967 126.604H170.125C171.605 126.604 172.804 125.398 172.804 123.912C172.804 122.425 171.605 121.22 170.125 121.22Z" fill="#FDC854"/>
<path d="M135.288 125.577C135.288 126.145 135.747 126.607 136.313 126.607H171.779C172.345 126.607 172.804 126.145 172.804 125.577V125.024H135.288V125.577Z" fill="#F89F4F"/>
<path d="M170.125 115.837H137.967C136.487 115.837 135.288 117.042 135.288 118.529C135.288 120.015 136.487 121.22 137.967 121.22H170.125C171.605 121.22 172.804 120.015 172.804 118.529C172.804 117.042 171.605 115.837 170.125 115.837Z" fill="#FDC854"/>
<path d="M135.288 120.191C135.288 120.759 135.747 121.22 136.313 121.22H171.779C172.345 121.22 172.804 120.759 172.804 120.191V119.638H135.288V120.191Z" fill="#F89F4F"/>
<path d="M168.072 110.451H135.913C134.434 110.451 133.234 111.656 133.234 113.142C133.234 114.629 134.434 115.834 135.913 115.834H168.072C169.552 115.834 170.751 114.629 170.751 113.142C170.751 111.656 169.552 110.451 168.072 110.451Z" fill="#FDC854"/>
<path d="M133.234 114.807C133.234 115.376 133.693 115.837 134.259 115.837H169.726C170.292 115.837 170.751 115.376 170.751 114.807V114.254H133.234V114.807Z" fill="#F89F4F"/>
<path d="M170.125 105.068H137.967C136.487 105.068 135.288 106.273 135.288 107.759C135.288 109.246 136.487 110.451 137.967 110.451H170.125C171.605 110.451 172.804 109.246 172.804 107.759C172.804 106.273 171.605 105.068 170.125 105.068Z" fill="#FDC854"/>
<path d="M135.288 109.424C135.288 109.993 135.747 110.454 136.313 110.454H171.779C172.345 110.454 172.804 109.993 172.804 109.424V108.871H135.288V109.424Z" fill="#F89F4F"/>
<path d="M168.719 99.6848H136.561C135.081 99.6848 133.882 100.89 133.882 102.376C133.882 103.863 135.081 105.068 136.561 105.068H168.719C170.199 105.068 171.398 103.863 171.398 102.376C171.398 100.89 170.199 99.6848 168.719 99.6848Z" fill="#FDC854"/>
<path d="M133.882 104.038C133.882 104.607 134.341 105.068 134.907 105.068H170.373C170.939 105.068 171.398 104.607 171.398 104.038V103.485H133.882V104.038Z" fill="#F89F4F"/>
<path d="M123.747 126.616H91.5888C90.1091 126.616 88.9097 127.821 88.9097 129.308C88.9097 130.794 90.1091 131.999 91.5888 131.999H123.747C125.227 131.999 126.426 130.794 126.426 129.308C126.426 127.821 125.227 126.616 123.747 126.616Z" fill="#FDC854"/>
<path d="M88.9097 130.972C88.9097 131.541 89.3688 132.002 89.9348 132.002H125.401C125.967 132.002 126.426 131.541 126.426 130.972V130.419H88.9097V130.972Z" fill="#F89F4F"/>
<path d="M123.1 121.233H90.9413C89.4617 121.233 88.2622 122.438 88.2622 123.924C88.2622 125.411 89.4617 126.616 90.9413 126.616H123.1C124.579 126.616 125.779 125.411 125.779 123.924C125.779 122.438 124.579 121.233 123.1 121.233Z" fill="#FDC854"/>
<path d="M88.2622 125.589C88.2622 126.158 88.7213 126.619 89.2873 126.619H124.754C125.32 126.619 125.779 126.158 125.779 125.589V125.036H88.2622V125.589Z" fill="#F89F4F"/>
<path d="M124.477 115.85H92.3182C90.8386 115.85 89.6392 117.055 89.6392 118.541C89.6392 120.028 90.8386 121.233 92.3182 121.233H124.477C125.956 121.233 127.156 120.028 127.156 118.541C127.156 117.055 125.956 115.85 124.477 115.85Z" fill="#FDC854"/>
<path d="M89.6392 120.203C89.6392 120.772 90.0982 121.233 90.6642 121.233H126.131C126.697 121.233 127.156 120.772 127.156 120.203V119.65H89.6392V120.203Z" fill="#F89F4F"/>
<path d="M125.03 110.464H92.872C91.3923 110.464 90.1929 111.669 90.1929 113.155C90.1929 114.642 91.3923 115.847 92.872 115.847H125.03C126.51 115.847 127.71 114.642 127.71 113.155C127.71 111.669 126.51 110.464 125.03 110.464Z" fill="#FDC854"/>
<path d="M90.1929 114.82C90.1929 115.389 90.652 115.85 91.218 115.85H126.684C127.25 115.85 127.71 115.389 127.71 114.82V114.267H90.1929V114.82Z" fill="#F89F4F"/>
<path d="M186.383 126.711C193.379 119.683 193.379 108.287 186.383 101.259C179.387 94.2307 168.045 94.2307 161.049 101.259C154.053 108.287 154.053 119.683 161.049 126.711C168.045 133.74 179.387 133.74 186.383 126.711Z" fill="#FDC854"/>
<path d="M173.716 128.404C181.642 128.404 188.067 121.949 188.067 113.986C188.067 106.023 181.642 99.5681 173.716 99.5681C165.79 99.5681 159.365 106.023 159.365 113.986C159.365 121.949 165.79 128.404 173.716 128.404Z" fill="#F89F4F"/>
<path d="M177.452 119.878L178.549 119.113C178.832 118.918 178.901 118.526 178.706 118.245L176.854 115.566C176.634 115.25 176.861 114.814 177.244 114.814H180.493C180.835 114.814 181.115 114.536 181.115 114.188V112.846C181.115 112.501 180.838 112.223 180.493 112.223H177.244C176.861 112.223 176.634 111.791 176.854 111.472L178.706 108.793C178.901 108.508 178.832 108.12 178.549 107.924L177.452 107.159C177.169 106.964 176.782 107.033 176.587 107.317L173.867 111.25L171.147 107.317C170.952 107.033 170.562 106.964 170.282 107.159L169.185 107.924C168.902 108.12 168.833 108.512 169.028 108.793L170.88 111.472C171.1 111.791 170.874 112.223 170.49 112.223H167.242C166.899 112.223 166.619 112.501 166.619 112.846V114.188C166.619 114.533 166.899 114.814 167.242 114.814H170.49C170.874 114.814 171.1 115.247 170.88 115.566L169.028 118.245C168.833 118.529 168.902 118.918 169.185 119.113L170.282 119.878C170.565 120.074 170.952 120.004 171.147 119.72L173.867 115.787L176.587 119.72C176.782 120.004 177.172 120.074 177.452 119.878Z" fill="#FDC854"/>
<path d="M0 132.893H205.23" stroke="#00C4B3" stroke-width="3" stroke-miterlimit="10"/>
<path d="M135.152 33.0126C132.476 31.869 129.373 32.6145 127.498 34.848C125.2 37.5901 122.351 41.1283 121.442 42.8847C121.442 42.8847 117.619 44.9192 114.216 46.4577L113.245 48.609C113.245 48.609 121.052 47.4496 124.511 45.9111C127.967 44.3727 135.158 33.0126 135.158 33.0126H135.152Z" fill="#FFE2D5"/>
<path d="M160.981 129.03L161.113 129.425L160.22 130.363L159.277 129.943L158.928 129.425L158.824 129.014L160.981 129.03Z" fill="#F6A19E"/>
<path d="M129.238 129.014L129.291 129.425L128.86 130.139L127.593 130.018L127.216 129.785L127.103 129.425L127.109 128.903L129.238 129.014Z" fill="#F6A19E"/>
<path d="M141.425 61.0053C141.108 60.9579 140.919 60.1713 141.042 59.5394C141.224 58.5886 142.07 58.0799 142.211 57.9978C142.337 58.2568 142.538 58.7655 142.45 59.4004C142.337 60.2028 141.781 61.059 141.425 61.0053Z" fill="#47B27C"/>
<path d="M141.388 60.5629C141.476 60.8757 140.84 61.3685 140.218 61.5201C139.281 61.7476 138.469 61.1821 138.337 61.0841C138.52 60.8599 138.897 60.4681 139.51 60.2881C140.284 60.0606 141.29 60.2154 141.388 60.5629Z" fill="#47B27C"/>
<path d="M140.954 60.1807C140.759 60.4397 139.982 60.2217 139.492 59.811C138.75 59.1919 138.715 58.2031 138.712 58.0356C138.998 58.0483 139.539 58.1178 140.048 58.5032C140.693 58.9897 141.171 59.8932 140.954 60.1807Z" fill="#47B27C"/>
<path d="M146.85 56.9614C146.85 56.9614 152.224 63.8767 161.33 129.03L158.607 129.014L137.155 69.0797V56.9614H146.85Z" fill="#00C4B3"/>
<path d="M130.65 53.2495C130.65 53.2495 124.163 58.3735 124.194 72.1345C124.207 78.2979 127.109 128.903 127.109 128.903L129.241 129.014C133.02 109.747 135.753 90.811 138.872 71.2152C139.319 71.152 141.608 70.9846 142.004 70.5139C142.875 69.4872 142.026 67.696 142.045 66.9094C142.117 63.7566 142.139 56.5507 141.935 53.894C139.426 54.1025 133.011 53.477 130.653 53.2463L130.65 53.2495Z" fill="#00C4B3"/>
<path d="M127.109 128.903C127.109 128.903 124.21 78.2979 124.194 72.1345C124.163 58.3735 130.65 53.2495 130.65 53.2495C131.197 53.3127 131.756 53.3727 132.322 53.4296L133.847 54.4057C133.847 54.4057 129.26 81.3717 129.37 97.4956C129.433 106.455 129.423 118.883 129.404 128.158C129.348 128.442 129.294 128.726 129.238 129.014L127.106 128.903H127.109Z" fill="#00C4B3"/>
<path d="M129.558 57.1953C128.668 56.9773 128.055 56.1623 128.093 55.243C128.285 50.6023 128.879 45.3298 130.187 39.6371C130.766 37.1256 131.426 34.7721 132.134 32.5797C134.923 31.9605 137.712 31.3413 140.498 30.719L146.969 33.2652C147.441 36.9803 147.768 41.1787 147.799 45.7847C147.824 49.961 147.601 53.8056 147.243 57.2521C147.205 57.6028 146.941 57.884 146.592 57.9377C144.366 58.282 141.715 58.5158 138.734 58.4336C135.184 58.3357 132.083 57.8145 129.558 57.1953Z" fill="#FFE2D5"/>
<path d="M128.81 57.0026C128.357 56.8826 128.049 56.4656 128.065 55.998C128.225 51.1773 128.807 45.6425 130.187 39.6371C130.766 37.1257 131.206 34.7311 131.91 32.5418C133.699 32.1438 135.706 31.7868 137.495 31.3888C138.08 31.4804 139.715 30.3842 140.186 31.076C140.806 31.9858 139.658 34.5447 139.551 34.9396C138.948 37.1699 137.331 45.9269 135.127 58.1809C132.731 57.9124 130.605 57.4765 128.81 57.0026Z" fill="#FFE2D5"/>
<path d="M150.799 40.288C151.617 39.3308 152.45 38.3609 153.132 37.3311C154.793 38.7021 156.205 40.2279 156.918 41.8201C157.61 43.3617 156.956 45.2572 155.642 47.2C153.981 47.219 152.136 46.7862 150.576 46.1702C151.123 45.551 151.629 45.0392 152.054 44.7012C152.054 44.7012 150.686 43.586 149.063 42.0918C149.771 41.4347 150.343 40.8155 150.796 40.288H150.799Z" fill="#FFE2D5"/>
<path d="M129.291 129.425C129.291 129.425 130.344 130.445 129.291 131.503H124.731V129.425H127.102C127.102 129.425 128.19 130.063 129.291 129.425Z" fill="#070833"/>
<path d="M126.511 131.503H122.955V131.213C122.955 130.227 123.751 129.425 124.735 129.425C125.716 129.425 126.515 130.224 126.515 131.213V131.503H126.511Z" fill="#070833"/>
<path d="M122.804 131.835H129.479V131.503H122.804V131.835Z" fill="#FFE2D5"/>
<path d="M158.928 129.425C158.928 129.425 157.874 130.445 158.928 131.503H164.311L164.119 129.425H161.116C161.116 129.425 160.028 130.063 158.928 129.425Z" fill="#070833"/>
<path d="M166.097 131.503H158.742V131.835H166.097V131.503Z" fill="#FFE2D5"/>
<path d="M164.119 129.425C165.1 129.425 165.899 130.224 165.899 131.213V131.503H164.119V129.425Z" fill="#070833"/>
<path d="M149.067 42.0917C146.957 40.1457 144.416 37.5584 143.9 35.9567C142.988 33.1199 144.995 32.5417 144.995 32.5417C144.995 32.5417 149.309 33.5369 153.132 37.3341C152.45 38.3639 151.617 39.3338 150.799 40.291C150.346 40.8185 149.774 41.4377 149.067 42.0948V42.0917Z" fill="#FFE2D5"/>
<path d="M140.369 32.5923L139.488 33.3821L139.834 34.7026L140.888 33.8054L140.369 32.5923Z" fill="#E96F3B"/>
<path d="M140.111 34.0076C140.111 34.0076 133.467 42.5876 138.608 53.1326L142.013 46.685L140.111 34.0044V34.0076Z" fill="#E96F3B"/>
<path d="M143.12 26.6944L142.526 31.6447L140.296 32.6651L138.545 31.1993L139.224 25.9236L143.12 26.6944Z" fill="#FB9C98"/>
<path d="M139.224 25.9236L143.12 26.6944L143.076 27.0514C142.667 28.7446 140.985 30.3147 139.381 29.9672C139.149 29.9167 138.935 29.8282 138.737 29.7113L139.224 25.9236Z" fill="#F26D6D"/>
<path d="M140.277 21.5831C138.938 21.9242 138.353 23.131 138.164 23.5196C137.388 25.1212 137.4 27.8222 139.029 28.6657C140.561 29.4587 142.796 28.2392 143.614 26.5302C144.205 25.2981 144.246 23.4122 143.045 22.3065C142.365 21.681 141.306 21.324 140.277 21.5831Z" fill="#F6A19E"/>
<path d="M143.007 25.9647C142.975 26.1542 142.824 26.9535 142.211 27.2568C141.598 27.56 140.828 27.1399 140.199 26.805C139.108 26.2237 138.866 25.6646 138.13 25.6425C137.696 25.6298 137.337 25.8131 137.102 25.9679C136.775 26.3754 136.058 27.3894 136.366 28.255C136.828 29.5597 139.366 29.8504 141.057 29.1269C142.592 28.4698 143.834 26.805 143.497 26.2237C143.406 26.0626 143.208 25.9931 143.007 25.9615V25.9647Z" fill="#070833"/>
<path d="M142.837 25.9172C142.916 25.7751 143.759 24.2176 143.145 23.0109C143.026 22.7771 142.623 21.9968 141.957 21.8989C141.746 21.8673 141.62 21.921 140.032 22.4865C139.73 22.5939 139.488 22.6507 139.19 22.616C138.19 22.5054 137.627 21.3681 137.605 21.3207C137.171 20.4172 137.294 19.1726 137.973 18.525C139.067 17.4825 141.224 18.3575 142.296 19.1473C142.296 19.1473 144.667 20.8911 144.281 24.325C144.262 24.4862 144.224 24.8052 144.013 25.1274C143.661 25.6708 143.076 25.854 142.837 25.9141V25.9172Z" fill="#070833"/>
<path d="M144.479 26.4131C144.683 25.9834 144.501 25.4685 144.073 25.2632C143.645 25.0578 143.133 25.2411 142.929 25.6707C142.724 26.1003 142.907 26.6153 143.334 26.8206C143.762 27.0259 144.274 26.8427 144.479 26.4131Z" fill="#F6A19E"/>
<path d="M138.557 72.8802C138.557 72.8802 138.491 70.0844 136.108 67.9741" stroke="#070833" stroke-width="4.66" stroke-miterlimit="10"/>
<path d="M137.842 66.6651C144.005 60.4732 144.005 50.4341 137.842 44.2421C131.679 38.0502 121.686 38.0502 115.523 44.2421C109.36 50.4341 109.36 60.4732 115.523 66.6651C121.686 72.857 131.679 72.857 137.842 66.6651Z" fill="#FDC854"/>
<path d="M129.536 67.8126C136.328 66.2309 140.558 59.4166 138.984 52.5925C137.409 45.7684 130.627 41.5186 123.834 43.1004C117.042 44.6821 112.811 51.4964 114.386 58.3205C115.96 65.1446 122.743 69.3944 129.536 67.8126Z" fill="#F89F4F"/>
<g style="mix-blend-mode:multiply" opacity="0.18">
<path d="M126.687 68.1763C125.143 68.1763 123.596 67.8888 122.115 67.3107C115.609 64.7802 112.364 57.4038 114.883 50.8645C117.402 44.3283 124.744 41.0682 131.253 43.5986C137.759 46.129 141.004 53.5055 138.485 60.0448C137.265 63.2133 134.891 65.7122 131.797 67.0832C130.159 67.8098 128.423 68.1763 126.687 68.1763ZM126.697 45.0297C122.533 45.0297 118.597 47.5632 117.009 51.6922C114.943 57.0531 117.603 63.1028 122.939 65.1783C125.524 66.1829 128.344 66.1165 130.879 64.9919C133.413 63.8673 135.363 61.817 136.363 59.2203C138.429 53.8593 135.768 47.8097 130.432 45.7341C129.206 45.2571 127.942 45.0297 126.697 45.0297Z" fill="#F89F4F"/>
</g>
<path d="M130.589 62.032L131.728 61.2359C132.02 61.0305 132.093 60.6262 131.891 60.3324L129.967 57.5492C129.74 57.2207 129.973 56.7689 130.373 56.7689H133.747C134.105 56.7689 134.391 56.4783 134.391 56.1213V54.725C134.391 54.368 134.102 54.0774 133.747 54.0774H130.373C129.973 54.0774 129.737 53.6257 129.967 53.2971L131.891 50.514C132.096 50.2202 132.023 49.8158 131.728 49.6105L130.589 48.8144C130.297 48.609 129.895 48.6817 129.69 48.9786L126.863 53.0665L124.036 48.9786C123.832 48.6848 123.43 48.6122 123.137 48.8144L121.999 49.6105C121.706 49.8158 121.634 50.2202 121.835 50.514L123.76 53.2971C123.986 53.6288 123.753 54.0774 123.354 54.0774H119.98C119.625 54.0774 119.335 54.368 119.335 54.725V56.1213C119.335 56.4783 119.625 56.7689 119.98 56.7689H123.354C123.753 56.7689 123.989 57.2207 123.76 57.5492L121.835 60.3324C121.631 60.6262 121.703 61.0305 121.999 61.2359L123.137 62.032C123.43 62.2373 123.832 62.1647 124.036 61.8677L126.863 57.7798L129.69 61.8677C129.895 62.1615 130.297 62.2342 130.589 62.032Z" fill="#FDC854"/>
<path d="M142.828 56.3677C141.117 56.4024 140.712 56.592 140.683 56.7689C140.646 57.0121 141.281 57.5049 141.947 57.3533C142.413 57.2459 142.768 56.851 142.828 56.3677Z" fill="#FB9C98"/>
<path d="M147.749 49.7429L143.664 55.6378" stroke="#FFC5AE" stroke-width="6.82" stroke-miterlimit="10" stroke-linecap="round"/>
<path d="M146.409 56.1085C145.884 56.5066 145.419 56.8446 145.045 57.1163C144.982 57.1605 144.922 57.2048 144.866 57.2458C144.35 57.6154 144.045 57.8176 144.045 57.8176L143.919 57.091L143.667 55.6378C143.667 55.6378 146.262 51.6511 148.765 48.3941C148.824 48.3182 148.881 48.2424 148.941 48.1698C149.173 47.8697 149.403 47.579 149.633 47.2979C150.07 46.7608 150.491 46.2648 150.887 45.8352C151.884 46.0058 152.922 46.2838 153.972 46.5681C154.588 46.7324 155.164 46.9188 155.704 47.1178C153.733 50.0779 150.205 53.1516 147.545 55.2398C147.145 55.5525 146.768 55.8432 146.416 56.1085H146.409Z" fill="#FFE2D5"/>
<path d="M145.039 56.9616L144.045 57.8145C143.941 58.0831 143.734 58.5316 143.309 58.9423C143.108 59.1382 142.262 59.9627 141.341 59.7321C140.693 59.571 140.118 58.9139 140.237 58.5727C140.278 58.459 140.391 58.3926 140.504 58.3484L143.664 55.6348L145.039 56.9584V56.9616Z" fill="#FB9C98"/>
<path d="M114.72 44.379C115.298 44.5053 115.77 45.292 115.591 45.5794C115.424 45.8448 114.72 45.6742 114.547 45.63C114.562 45.6395 114.946 45.8416 114.946 46.1544C114.946 46.4892 114.509 46.7009 114.201 46.7293C113.761 46.7704 113.452 46.4545 113.405 46.4039C113.789 46.5082 114.056 46.783 114.053 47.0294C114.047 47.339 113.61 47.7118 113.006 47.617C112.886 47.3833 112.688 46.9094 112.761 46.3313C112.896 45.2414 113.937 44.2115 114.726 44.3821L114.72 44.379Z" fill="#FB9C98"/>
</g>
<defs>
<clipPath id="clip0_2136_7878">
<rect width="211" height="137" fill="white"/>
</clipPath>
</defs>
</svg>
