<svg width="123" height="120" viewBox="0 0 123 120" fill="none" xmlns="http://www.w3.org/2000/svg">
<g clip-path="url(#clip0_1_1870)">
<path d="M7.28156 119.153C7.28156 119.153 26.2165 111.012 61.5279 119.153C83.6504 124.253 93.8645 106.543 112.543 101.924C127.75 96.7452 124.717 69.0477 117.707 56.3811C108.59 39.9038 118.896 29.6816 112.994 20.5383C107.488 12.0095 95.1629 19.849 87.0997 8.40391C78.2654 -4.13583 64.1903 -0.851203 53.4833 10.1865C39.3938 24.7118 33.2684 7.27497 15.6523 10.4046C2.05452 12.8209 -6.16311 35.2996 10.4807 46.7934C24.6679 56.5903 7.44497 87.3351 7.28088 119.153H7.28156Z" fill="#E6F9F7"/>
<path d="M5.09386 15.3027C5.06299 15.3027 5.03211 15.2924 5.00673 15.2718C4.9484 15.2237 4.93948 15.137 4.98751 15.0786C5.00947 15.0518 7.2202 12.3884 11.2629 10.6538C14.9914 9.05394 21.0884 7.93468 28.9583 11.6885C29.0269 11.7208 29.0558 11.8033 29.0235 11.8714C28.9906 11.9401 28.9089 11.969 28.8403 11.9367C21.063 8.22687 15.0476 9.32895 11.3706 10.9061C7.38899 12.6146 5.2208 15.2264 5.19953 15.2525C5.17277 15.2855 5.13297 15.3027 5.09318 15.3027H5.09386Z" fill="#00C4B3"/>
<path d="M115.74 28.0732C115.667 28.0732 115.606 28.0148 115.603 27.9405C115.455 23.8279 114.143 20.6406 111.702 18.4667C107.656 14.8648 101.836 15.2972 101.777 15.3021C101.7 15.3089 101.635 15.2519 101.628 15.1762C101.622 15.1006 101.678 15.0339 101.754 15.0277C101.814 15.0229 107.751 14.5815 111.883 18.2611C114.382 20.4866 115.726 23.7399 115.877 27.9302C115.879 28.0059 115.82 28.0698 115.744 28.0725C115.743 28.0725 115.741 28.0725 115.739 28.0725L115.74 28.0732Z" fill="#00C4B3"/>
<path d="M110.123 21.1424C110.09 21.1424 110.055 21.1301 110.029 21.1046C107.001 18.2267 103.639 17.918 100.082 17.5915C95.4592 17.1673 90.2199 16.6867 84.8934 10.2434C84.8447 10.1849 84.8529 10.0983 84.9112 10.0495C84.9695 10.0007 85.056 10.0096 85.1047 10.0674C90.3591 16.422 95.3144 16.8771 100.107 17.3171C103.714 17.6478 107.121 17.9606 110.218 20.9046C110.273 20.9568 110.276 21.0441 110.223 21.0991C110.197 21.128 110.16 21.1418 110.124 21.1418L110.123 21.1424Z" fill="#00C4B3"/>
<path d="M3.4608 38.6107C3.41277 38.6107 3.36612 38.5852 3.34073 38.5399C0.565312 33.5485 0.691561 27.3706 3.68723 21.5907C6.16212 16.8159 10.2014 13.3578 13.7398 12.9858C13.8153 12.9782 13.8825 13.0326 13.8907 13.1082C13.899 13.1838 13.8441 13.2512 13.7686 13.2594C10.3187 13.6224 6.36521 17.0215 3.9308 21.7179C0.978365 27.4139 0.850744 33.497 3.58019 38.4065C3.61724 38.4725 3.59323 38.5564 3.52736 38.5935C3.50609 38.6052 3.48344 38.6107 3.4608 38.6107Z" fill="#00C4B3"/>
<path d="M1.33043 24.1819C1.31877 24.1819 1.30642 24.1805 1.29407 24.1771C1.22065 24.1571 1.17811 24.0815 1.19801 24.008C1.20899 23.9688 2.30268 20.05 5.42529 16.4804C7.26138 14.3814 9.42888 12.8112 11.8681 11.8115C14.9152 10.563 18.3946 10.2096 22.2102 10.7596C22.285 10.7706 22.3371 10.8401 22.3262 10.915C22.3152 10.99 22.2452 11.0422 22.1711 11.0312C18.4076 10.4888 14.9783 10.8353 11.9786 12.0625C9.57983 13.0442 7.44664 14.5884 5.63867 16.6523C2.5545 20.1737 1.47315 24.0403 1.46286 24.0788C1.44639 24.14 1.39081 24.1798 1.33043 24.1798V24.1819Z" fill="#00C4B3"/>
<path d="M107.93 17.718C107.913 17.718 107.897 17.7152 107.88 17.709C105.936 16.9624 104.007 16.7912 101.964 16.6104C99.0808 16.3546 95.8134 16.0652 91.77 14.0714C91.7021 14.0377 91.6739 13.9552 91.7076 13.8872C91.7412 13.8191 91.8228 13.7909 91.8915 13.8246C95.8889 15.7957 99.1295 16.0831 101.989 16.3361C104.05 16.5189 105.998 16.6915 107.979 17.4519C108.05 17.4787 108.086 17.5585 108.058 17.6293C108.038 17.6843 107.985 17.718 107.93 17.718Z" fill="#00C4B3"/>
<path d="M14.7341 67.8243C14.7259 67.8243 14.7183 67.8243 14.7101 67.8223C14.6353 67.8092 14.5859 67.7377 14.5989 67.6628C15.3647 63.3679 15.7214 57.1659 13.0709 52.0137C11.488 48.9357 9.55172 47.6775 9.53251 47.6652C9.4687 47.6246 9.44949 47.5394 9.48997 47.4754C9.53045 47.4115 9.61553 47.3922 9.67934 47.4328C9.76031 47.4844 11.687 48.7329 13.3049 51.8693C16 57.093 15.6425 63.3672 14.8686 67.7109C14.8569 67.7776 14.7986 67.8243 14.7334 67.8243H14.7341Z" fill="#00C4B3"/>
<path d="M13.6411 65.262C13.6343 65.262 13.6274 65.262 13.6206 65.2606C13.5458 65.2496 13.4943 65.1795 13.5053 65.1039C14.1866 60.5691 13.4428 57.1239 12.6991 55.0318C11.8929 52.7651 10.9131 51.5544 10.9028 51.5427C10.8547 51.4843 10.863 51.3977 10.922 51.3495C10.9803 51.3014 11.0668 51.3097 11.1148 51.3681C11.156 51.4183 12.1296 52.6187 12.9523 54.926C13.7098 57.0497 14.4672 60.5464 13.7763 65.1444C13.766 65.2125 13.7077 65.2613 13.6411 65.2613V65.262Z" fill="#00C4B3"/>
<path d="M16.2903 25.4992H9.74731V32.0553H16.2903V25.4992Z" fill="white"/>
<path d="M9.98113 30.4114C7.23659 30.4114 5.00391 28.1743 5.00391 25.4242C5.00391 22.6742 7.23659 20.437 9.98113 20.437C12.7257 20.437 14.9584 22.6742 14.9584 25.4242C14.9584 28.1743 12.7257 30.4114 9.98113 30.4114ZM9.98113 20.712C7.38823 20.712 5.27836 22.8261 5.27836 25.4242C5.27836 28.0223 7.38823 30.1364 9.98113 30.1364C12.574 30.1364 14.6839 28.0223 14.6839 25.4242C14.6839 22.8261 12.574 20.712 9.98113 20.712Z" fill="#1D1F1F"/>
<path d="M78.948 11.9497C77.9607 11.9497 77.1572 11.1447 77.1572 10.1553C77.1572 9.16601 77.9607 8.36093 78.948 8.36093C79.9354 8.36093 80.7388 9.16601 80.7388 10.1553C80.7388 11.1447 79.9354 11.9497 78.948 11.9497ZM78.948 8.63594C78.1123 8.63594 77.4317 9.31726 77.4317 10.1553C77.4317 10.9934 78.1116 11.6747 78.948 11.6747C79.7844 11.6747 80.4644 10.9934 80.4644 10.1553C80.4644 9.31726 79.7844 8.63594 78.948 8.63594Z" fill="#1D1F1F"/>
<path d="M105.482 29.0577C105.406 29.0577 105.344 28.9958 105.344 28.9202V27.4029C105.344 27.3273 105.406 27.2654 105.482 27.2654C105.557 27.2654 105.619 27.3273 105.619 27.4029V28.9202C105.619 28.9958 105.557 29.0577 105.482 29.0577Z" fill="#1D1F1F"/>
<path d="M105.482 32.0326C105.406 32.0326 105.344 31.9707 105.344 31.8951V30.3777C105.344 30.3021 105.406 30.2402 105.482 30.2402C105.557 30.2402 105.619 30.3021 105.619 30.3777V31.8951C105.619 31.9707 105.557 32.0326 105.482 32.0326Z" fill="#1D1F1F"/>
<path d="M107.723 29.7865H106.209C106.134 29.7865 106.072 29.7246 106.072 29.649C106.072 29.5734 106.134 29.5115 106.209 29.5115H107.723C107.799 29.5115 107.861 29.5734 107.861 29.649C107.861 29.7246 107.799 29.7865 107.723 29.7865Z" fill="#1D1F1F"/>
<path d="M104.754 29.7865H103.24C103.165 29.7865 103.103 29.7246 103.103 29.649C103.103 29.5734 103.165 29.5115 103.24 29.5115H104.754C104.83 29.5115 104.892 29.5734 104.892 29.649C104.892 29.7246 104.83 29.7865 104.754 29.7865Z" fill="#1D1F1F"/>
<path d="M22.9471 62.9355C22.9176 62.9355 22.8888 62.9258 22.8648 62.908L19.5404 60.4041C19.5013 60.3745 19.4807 60.3264 19.4869 60.2776C19.4931 60.2287 19.524 60.1868 19.5693 60.1676L23.3951 58.5354C23.4404 58.5162 23.4919 58.5223 23.5317 58.5519C23.5708 58.5815 23.5914 58.6296 23.5852 58.6784L23.083 62.8152C23.0768 62.864 23.0459 62.9059 23.0006 62.9252C22.9835 62.9327 22.9649 62.9362 22.9471 62.9362V62.9355ZM19.8959 60.3271L22.8401 62.545L23.2847 58.8812L19.8959 60.3271Z" fill="#1D1F1F"/>
<path d="M94.4191 116.187C94.382 116.187 94.345 116.172 94.3182 116.143C94.2667 116.088 94.2702 116 94.3258 115.949C94.4294 115.853 104.821 106.354 118.741 103.919C118.817 103.906 118.887 103.956 118.9 104.031C118.913 104.106 118.863 104.176 118.788 104.189C104.95 106.61 94.6146 116.056 94.5117 116.151C94.4856 116.176 94.452 116.187 94.4184 116.187H94.4191Z" fill="#00C4B3"/>
<path d="M100.563 114.121C100.528 114.121 100.494 114.109 100.468 114.083C100.413 114.03 100.411 113.943 100.464 113.888C100.483 113.868 102.414 111.863 105.53 109.967C108.41 108.215 112.923 106.198 118.065 106.536C118.141 106.541 118.198 106.607 118.194 106.682C118.189 106.758 118.123 106.816 118.047 106.811C108.339 106.17 100.738 114 100.662 114.079C100.635 114.107 100.599 114.122 100.563 114.122L100.563 114.121Z" fill="#00C4B3"/>
<g clip-path="url(#clip1_1_1870)">
<path d="M121.146 66.9699C103.767 73.5224 87.965 83.3221 74.5734 95.851C69.0442 90.1297 63.5148 84.4098 57.9854 78.69C73.4679 64.2025 91.7387 52.8722 111.832 45.2954C114.936 52.5207 118.042 59.7446 121.146 66.9699Z" fill="#3C8F7C"/>
<path d="M72.3602 91.786C68.938 88.1885 65.5142 84.5924 62.092 80.9949C63.5106 79.6883 63.7149 77.5882 62.5143 76.2629C75.8426 64.5503 91.0827 55.0986 107.664 48.2654C108.416 49.8684 110.483 50.5602 112.305 49.8565C114.279 54.3522 116.254 58.8464 118.228 63.342C116.552 63.9891 115.819 65.8465 116.57 67.4494C102.01 73.4494 88.6261 81.7492 76.9225 92.035C75.7233 90.7112 73.6656 90.5836 72.3602 91.786Z" fill="#96D9C9"/>
<path d="M98.0036 64.0538C100.233 67.9555 98.8508 72.7851 95.0767 75.091C91.2958 77.3861 86.175 76.5152 83.4741 72.9C80.7772 69.2923 81.8876 64.0517 86.1399 61.4657C90.3895 58.8752 95.7808 60.1584 98.005 64.0538L98.0036 64.0538Z" fill="#50BFA5"/>
<path d="M81.6932 74.6615C78.2015 77.15 74.8184 79.7865 71.5534 82.5641C71.0436 81.9895 70.5337 81.4149 70.0238 80.8403C73.3357 78.0231 76.7655 75.35 80.3053 72.8265C80.7685 73.4377 81.23 74.0503 81.6932 74.6615Z" fill="#50BFA5"/>
<path d="M111.967 57.9196C107.961 59.5749 104.038 61.3941 100.208 63.3691C99.8331 62.7048 99.4562 62.0405 99.0808 61.3763C102.964 59.3725 106.942 57.529 111.002 55.8508C111.324 56.5409 111.645 57.2309 111.965 57.9195L111.967 57.9196Z" fill="#50BFA5"/>
<path d="M102.804 55.5097C90.3624 67.9535 80.6526 82.8154 74.1877 99.3115C66.9718 96.0637 59.7544 92.8173 52.5385 89.5696C60.0149 70.4975 71.2404 53.3137 85.6251 38.9253C91.3517 44.4539 97.0769 49.981 102.804 55.5097Z" fill="#3C8F7C"/>
<path d="M70.5586 96.3728C66.0681 94.3115 61.5777 92.2488 57.0886 90.1876C57.7834 88.4599 57.0845 86.445 55.4834 85.6631C62.2321 69.9442 71.597 55.6117 83.2256 43.2003C84.551 44.4031 86.6454 44.2822 87.9423 42.9618C91.5428 46.386 95.1434 49.8101 98.7426 53.2327C97.5488 54.4467 97.6848 56.4309 99.0087 57.6337C88.7974 68.5314 80.5748 81.1197 74.6469 94.9224C73.0472 94.142 71.1972 94.7808 70.5587 96.3713L70.5586 96.3728Z" fill="#96D9C9"/>
<path d="M81.3779 61.3314C84.9535 64.1141 85.7626 69.0815 83.4271 72.599C81.0831 76.11 76.2469 77.189 72.3796 74.8453C68.5193 72.5065 67.301 67.2601 69.9354 63.3071C72.5654 59.3523 77.8093 58.5536 81.3764 61.3313L81.3779 61.3314Z" fill="#50BFA5"/>
<path d="M71.5617 77.1272C69.5518 80.7098 67.6982 84.3892 66.0046 88.1552C65.3201 87.8114 64.6339 87.469 63.9494 87.1252C65.6656 83.3063 67.5446 79.5758 69.583 75.9436C70.242 76.3386 70.9012 76.7321 71.5602 77.1271L71.5617 77.1272Z" fill="#50BFA5"/>
<path d="M91.0106 50.5311C88.2042 53.5337 85.538 56.6555 83.0183 59.8895C82.4132 59.4144 81.8067 58.9392 81.2016 58.464C83.7568 55.1854 86.4599 52.019 89.3059 48.975C89.8742 49.4932 90.4424 50.0129 91.0106 50.5311Z" fill="#50BFA5"/>
</g>
<path d="M74.0909 59.1465H4.34521V118.964H74.0909V59.1465Z" fill="#FF6F2C"/>
<path d="M74.0911 119.222H4.34534C4.20401 119.222 4.08838 119.106 4.08838 118.964V59.1464C4.08838 59.0048 4.20401 58.889 4.34534 58.889H74.0911C74.2324 58.889 74.348 59.0048 74.348 59.1464V118.964C74.348 119.106 74.2324 119.222 74.0911 119.222ZM4.60231 118.707H73.8341V59.4039H4.60231V118.707Z" fill="#1D1F1F"/>
<path d="M12.4167 43.0721H20.0743L12.4167 59.1389H1.69604L12.4167 43.0721Z" fill="white"/>
<path d="M20.0741 43.0721H27.7317L23.1371 59.1388H12.4165L20.0741 43.0721Z" fill="#FFE3D6"/>
<path d="M27.732 43.0721H35.3896L33.8581 59.1388H23.1375L27.732 43.0721Z" fill="white"/>
<path d="M35.3897 43.0721H43.0473L44.5788 59.1388H33.8582L35.3897 43.0721Z" fill="#FFE3D6"/>
<path d="M43.0471 43.0721H50.706L55.3005 59.1388H44.5786L43.0471 43.0721Z" fill="white"/>
<path d="M50.7058 43.0721H58.3634L66.021 59.1388H55.3004L50.7058 43.0721Z" fill="#FFE3D6"/>
<path d="M58.3633 43.0721H66.0209L76.7415 59.1388H66.0209L58.3633 43.0721Z" fill="white"/>
<path d="M1.69604 59.1466H12.4167V68.6051C12.4167 70.0869 11.2154 71.2907 9.73651 71.2907H4.3762C2.89736 71.2907 1.69604 70.0869 1.69604 68.6051V59.1466Z" fill="#D7E4F2"/>
<path d="M12.4165 59.1466H23.1371V68.6051C23.1371 70.0869 21.9358 71.2907 20.457 71.2907H15.0967C13.6178 71.2907 12.4165 70.0869 12.4165 68.6051V59.1466Z" fill="#FF5100"/>
<path d="M23.1375 59.1466H33.8581V68.6051C33.8581 70.0869 32.6568 71.2907 31.1779 71.2907H25.8176C24.3388 71.2907 23.1375 70.0869 23.1375 68.6051V59.1466Z" fill="#D7E4F2"/>
<path d="M33.8582 59.1466H44.5788V68.6051C44.5788 70.0869 43.3775 71.2907 41.8986 71.2907H36.5383C35.0595 71.2907 33.8582 70.0869 33.8582 68.6051V59.1466Z" fill="#FF5100"/>
<path d="M44.5786 59.1466H55.2992V68.6051C55.2992 70.0869 54.0979 71.2907 52.6191 71.2907H47.2588C45.7799 71.2907 44.5786 70.0869 44.5786 68.6051V59.1466Z" fill="#D7E4F2"/>
<path d="M60.6606 71.2907C57.7004 71.2907 55.3003 68.8858 55.3003 65.9196V59.1466H66.0209V65.9196C66.0209 68.8858 63.6209 71.2907 60.6606 71.2907Z" fill="#FF5100"/>
<path d="M71.3816 71.2907C68.4213 71.2907 66.0212 68.8858 66.0212 65.9196V59.1466H76.7419V65.9196C76.7419 68.8858 74.3418 71.2907 71.3816 71.2907Z" fill="#D7E4F2"/>
<path d="M71.3814 71.5481C68.8696 71.5481 66.7368 69.8874 66.0211 67.6048C65.3042 69.8886 63.1727 71.5481 60.6608 71.5481C58.149 71.5481 56.0162 69.8874 55.3005 67.6048C54.5836 69.8886 52.452 71.5481 49.9402 71.5481C47.4284 71.5481 45.2955 69.8874 44.5799 67.6048C43.8629 69.8886 41.7314 71.5481 39.2196 71.5481C36.7077 71.5481 34.5749 69.8874 33.8593 67.6048C33.1423 69.8886 31.0108 71.5481 28.499 71.5481C25.9871 71.5481 23.8543 69.8874 23.1386 67.6048C22.4217 69.8886 20.2902 71.5481 17.7783 71.5481C15.2665 71.5481 13.1337 69.8874 12.418 67.6048C11.7011 69.8886 9.56955 71.5481 7.05771 71.5481C3.95998 71.5481 1.44043 69.0235 1.44043 65.9196V59.1465C1.44043 59.095 1.45585 59.0461 1.48411 59.0036L12.2047 42.9368C12.2523 42.8648 12.3332 42.8223 12.418 42.8223H66.0224C66.1085 42.8223 66.1882 42.8648 66.2357 42.9368L76.9563 59.0036C76.9846 59.0461 77 59.0963 77 59.1465V65.9196C77 69.0235 74.4805 71.5481 71.3827 71.5481H71.3814ZM66.0211 65.6621C66.1625 65.6621 66.2781 65.778 66.2781 65.9196C66.2781 68.739 68.5677 71.0331 71.3814 71.0331C74.1952 71.0331 76.4848 68.739 76.4848 65.9196V59.2251L65.8837 43.3372H12.5542L1.95308 59.2251V65.9196C1.95308 68.739 4.24264 71.0331 7.05642 71.0331C9.8702 71.0331 12.1598 68.739 12.1598 65.9196C12.1598 65.778 12.2754 65.6621 12.4167 65.6621C12.5581 65.6621 12.6737 65.778 12.6737 65.9196C12.6737 68.739 14.9633 71.0331 17.777 71.0331C20.5908 71.0331 22.8804 68.739 22.8804 65.9196C22.8804 65.778 22.996 65.6621 23.1374 65.6621C23.2787 65.6621 23.3943 65.778 23.3943 65.9196C23.3943 68.739 25.6839 71.0331 28.4977 71.0331C31.3114 71.0331 33.601 68.739 33.601 65.9196C33.601 65.778 33.7166 65.6621 33.858 65.6621C33.9993 65.6621 34.1149 65.778 34.1149 65.9196C34.1149 68.739 36.4045 71.0331 39.2183 71.0331C42.0321 71.0331 44.3216 68.739 44.3216 65.9196C44.3216 65.778 44.4373 65.6621 44.5786 65.6621C44.7199 65.6621 44.8356 65.778 44.8356 65.9196C44.8356 68.739 47.1251 71.0331 49.9389 71.0331C52.7527 71.0331 55.0423 68.739 55.0423 65.9196C55.0423 65.778 55.1579 65.6621 55.2992 65.6621C55.4406 65.6621 55.5562 65.778 55.5562 65.9196C55.5562 68.739 57.8458 71.0331 60.6595 71.0331C63.4733 71.0331 65.7629 68.739 65.7629 65.9196C65.7629 65.778 65.8785 65.6621 66.0198 65.6621H66.0211Z" fill="#1D1F1F"/>
<path d="M67.7671 75.0834H10.9814V118.965H67.7671V75.0834Z" fill="#D7E4F2"/>
<path d="M67.7673 119.222H10.9816C10.6309 119.222 10.3469 119.106 10.3469 118.965V75.0834C10.3469 74.9418 10.6309 74.8259 10.9816 74.8259H67.7673C68.118 74.8259 68.402 74.9418 68.402 75.0834V118.965C68.402 119.106 68.118 119.222 67.7673 119.222ZM10.8853 118.707H67.8636V75.3409H10.8853V118.707Z" fill="#1D1F1F"/>
<path d="M64.8761 78.2864H13.5613V99.8749H64.8761V78.2864Z" fill="#F4F7F7"/>
<path d="M64.8766 99.5312H13.5618C13.0864 99.5312 12.7009 99.4153 12.7009 99.2737V78.2865C12.7009 78.1448 13.0864 78.029 13.5618 78.029H64.8766C65.352 78.029 65.7374 78.1448 65.7374 78.2865V99.2737C65.7374 99.4153 65.352 99.5312 64.8766 99.5312ZM13.2817 99.0162H65.1567V78.5439H13.2817V99.0162Z" fill="#1D1F1F"/>
<path d="M44.1544 43.1608V45.4344C41.6117 45.4344 39.5521 43.3836 39.5521 40.8319L39.5496 36.6607C39.5496 36.393 39.7654 36.1741 40.0339 36.1741H41.3355C41.6014 36.1741 41.8199 36.393 41.8199 36.6607V40.8216C41.8199 40.8216 41.8186 40.8281 41.8186 40.8319C41.8186 42.1283 42.8657 43.1608 44.157 43.1608" fill="#1D1F1F"/>
<path d="M38.5255 40.6581C38.4369 37.9855 36.0908 35.8793 33.3348 36.2089C31.2341 36.4612 29.542 38.185 29.3107 40.2925C29.0049 43.0874 31.1814 45.4305 33.9065 45.4305C34.7802 45.4241 35.4265 45.0057 35.8197 44.6375C35.9803 44.4856 36.2436 44.604 36.2424 44.8267L36.2398 45.4331H38.5255V40.6568V40.6581ZM33.8975 43.1441C32.596 43.1441 31.5373 42.0974 31.5373 40.8062C31.5373 39.5149 32.596 38.4708 33.8975 38.4708C35.1991 38.4708 36.2591 39.5175 36.2591 40.8062C36.2591 42.0949 35.2042 43.1441 33.8975 43.1441Z" fill="#1D1F1F"/>
<path d="M26.9994 36.5022L24.6584 42.8619C24.5492 43.1774 24.2665 43.1915 24.1458 42.8813L21.6712 36.488C21.5992 36.3013 21.4206 36.1765 21.2215 36.1765H19.8287C19.4895 36.1752 19.257 36.5176 19.3765 36.8343L22.6541 45.4368H26.1629L29.3467 36.8292C29.465 36.5125 29.2311 36.1739 28.8932 36.1765L27.4516 36.179C27.2473 36.179 27.0636 36.3091 26.9968 36.5035" fill="#1D1F1F"/>
<path d="M54.3806 36.6607V40.8474C54.3819 43.3939 52.3133 45.4357 49.7693 45.4357C47.2253 45.4357 45.1709 43.3939 45.1709 40.8474V36.6607C45.1696 36.393 45.3868 36.1741 45.654 36.1741H46.9542C47.2228 36.1741 47.4399 36.393 47.4399 36.6607V40.8332C47.4399 40.8332 47.4373 40.8384 47.4373 40.8474C47.4373 42.1438 48.4819 43.166 49.7706 43.166C51.0593 43.166 52.1167 42.1438 52.1167 40.8474C52.1167 40.8396 52.1141 40.8358 52.1141 40.8332V36.6607C52.1128 36.393 52.3338 36.1741 52.5959 36.1741H53.8962C54.1647 36.1741 54.3819 36.393 54.3819 36.6607" fill="#1D1F1F"/>
<path d="M60.1286 41.801L60.6078 41.4676C60.7299 41.38 60.7607 41.2101 60.6759 41.0878L59.8677 39.9227C59.7714 39.7849 59.8703 39.5944 60.0386 39.5944H61.4558C61.6048 39.5944 61.7269 39.4734 61.7269 39.324V38.7383C61.7269 38.5889 61.6036 38.4679 61.4558 38.4679H60.0386C59.8703 38.4679 59.7714 38.2787 59.8677 38.1409L60.6759 36.9732C60.7607 36.8509 60.7312 36.681 60.6078 36.5947L60.1286 36.2613C60.0052 36.175 59.8369 36.2059 59.7521 36.3295L58.5636 38.0418L57.3752 36.3295C57.2904 36.2072 57.1208 36.1763 56.9974 36.2613L56.5195 36.5947C56.3949 36.681 56.3666 36.8496 56.4501 36.9732L57.2595 38.1409C57.3546 38.2787 57.257 38.4679 57.0887 38.4679H55.6715C55.5212 38.4679 55.4004 38.5889 55.4004 38.7383V39.324C55.4004 39.4734 55.5212 39.5944 55.6715 39.5944H57.0887C57.257 39.5944 57.3546 39.7849 57.2595 39.9227L56.4501 41.0878C56.3653 41.2101 56.3949 41.38 56.5195 41.4676L56.9974 41.801C57.1208 41.8873 57.2891 41.8564 57.3752 41.7315L58.5636 40.0192L59.7521 41.7315C59.8369 41.8564 60.0052 41.886 60.1286 41.801Z" fill="#1D1F1F"/>
<path d="M44.1544 44.1908V46.4644C41.6117 46.4644 39.5521 44.4136 39.5521 41.8619L39.5496 37.6907C39.5496 37.423 39.7654 37.2041 40.0339 37.2041H41.3355C41.6014 37.2041 41.8199 37.423 41.8199 37.6907V41.8516C41.8199 41.8516 41.8186 41.8581 41.8186 41.8619C41.8186 43.1583 42.8657 44.1908 44.157 44.1908" fill="white"/>
<path d="M38.5255 41.6881C38.4369 39.0155 36.0908 36.9093 33.3348 37.2389C31.2341 37.4912 29.542 39.215 29.3107 41.3225C29.0049 44.1175 31.1814 46.4606 33.9065 46.4606C34.7802 46.4541 35.4265 46.0357 35.8197 45.6675C35.9803 45.5156 36.2436 45.634 36.2424 45.8568L36.2398 46.4631H38.5255V41.6869V41.6881ZM33.8975 44.1741C32.596 44.1741 31.5373 43.1275 31.5373 41.8362C31.5373 40.5449 32.596 39.5008 33.8975 39.5008C35.1991 39.5008 36.2591 40.5475 36.2591 41.8362C36.2591 43.1249 35.2042 44.1741 33.8975 44.1741Z" fill="white"/>
<path d="M26.9994 37.5321L24.6584 43.8919C24.5492 44.2073 24.2665 44.2215 24.1458 43.9112L21.6712 37.518C21.5992 37.3313 21.4206 37.2064 21.2215 37.2064H19.8287C19.4895 37.2051 19.257 37.5476 19.3765 37.8643L22.6541 46.4667H26.1629L29.3467 37.8591C29.465 37.5424 29.2311 37.2039 28.8932 37.2064L27.4516 37.209C27.2473 37.209 27.0636 37.339 26.9968 37.5334" fill="white"/>
<path d="M54.3806 37.6907V41.8774C54.3819 44.4239 52.3133 46.4657 49.7693 46.4657C47.2253 46.4657 45.1709 44.4239 45.1709 41.8774V37.6907C45.1696 37.423 45.3868 37.2041 45.654 37.2041H46.9542C47.2228 37.2041 47.4399 37.423 47.4399 37.6907V41.8632C47.4399 41.8632 47.4373 41.8684 47.4373 41.8774C47.4373 43.1738 48.4819 44.196 49.7706 44.196C51.0593 44.196 52.1167 43.1738 52.1167 41.8774C52.1167 41.8696 52.1141 41.8658 52.1141 41.8632V37.6907C52.1128 37.423 52.3338 37.2041 52.5959 37.2041H53.8962C54.1647 37.2041 54.3819 37.423 54.3819 37.6907" fill="white"/>
<path d="M60.1286 42.831L60.6078 42.4976C60.7299 42.4101 60.7607 42.2401 60.6759 42.1178L59.8677 40.9527C59.7714 40.815 59.8703 40.6244 60.0386 40.6244H61.4558C61.6048 40.6244 61.7269 40.5034 61.7269 40.3541V39.7683C61.7269 39.619 61.6036 39.4979 61.4558 39.4979H60.0386C59.8703 39.4979 59.7714 39.3087 59.8677 39.1709L60.6759 38.0033C60.7607 37.881 60.7312 37.711 60.6078 37.6248L60.1286 37.2913C60.0052 37.2051 59.8369 37.236 59.7521 37.3596L58.5636 39.0718L57.3752 37.3596C57.2904 37.2373 57.1208 37.2064 56.9974 37.2913L56.5195 37.6248C56.3949 37.711 56.3666 37.8797 56.4501 38.0033L57.2595 39.1709C57.3546 39.3087 57.257 39.4979 57.0887 39.4979H55.6715C55.5212 39.4979 55.4004 39.619 55.4004 39.7683V40.3541C55.4004 40.5034 55.5212 40.6244 55.6715 40.6244H57.0887C57.257 40.6244 57.3546 40.815 57.2595 40.9527L56.4501 42.1178C56.3653 42.2401 56.3949 42.4101 56.5195 42.4976L56.9974 42.831C57.1208 42.9173 57.2891 42.8864 57.3752 42.7615L58.5636 41.0493L59.7521 42.7615C59.8369 42.8864 60.0052 42.916 60.1286 42.831Z" fill="white"/>
<path d="M44.1544 43.8007V46.0743C41.6117 46.0743 39.5521 44.0234 39.5521 41.4718L39.5496 37.3006C39.5496 37.0328 39.7654 36.814 40.0339 36.814H41.3355C41.6014 36.814 41.8199 37.0328 41.8199 37.3006V41.4615C41.8199 41.4615 41.8186 41.468 41.8186 41.4718C41.8186 42.7682 42.8657 43.8007 44.157 43.8007" fill="#00C3B4"/>
<path d="M38.5255 41.2993C38.4369 38.6267 36.0908 36.5205 33.3348 36.8501C31.2341 37.1024 29.542 38.8262 29.3107 40.9337C29.0049 43.7287 31.1814 46.0717 33.9065 46.0717C34.7802 46.0653 35.4265 45.6469 35.8197 45.2787C35.9803 45.1268 36.2436 45.2452 36.2424 45.4679L36.2398 46.0743H38.5255V41.298V41.2993ZM33.8975 43.7853C32.596 43.7853 31.5373 42.7387 31.5373 41.4474C31.5373 40.1561 32.596 39.112 33.8975 39.112C35.1991 39.112 36.2591 40.1587 36.2591 41.4474C36.2591 42.7361 35.2042 43.7853 33.8975 43.7853Z" fill="#00C3B4"/>
<path d="M26.9994 37.1432L24.6584 43.503C24.5492 43.8184 24.2665 43.8325 24.1458 43.5223L21.6712 37.129C21.5992 36.9423 21.4206 36.8175 21.2215 36.8175H19.8287C19.4895 36.8162 19.257 37.1586 19.3765 37.4753L22.6541 46.0778H26.1629L29.3467 37.4702C29.465 37.1535 29.2311 36.8149 28.8932 36.8175L27.4516 36.82C27.2473 36.82 27.0636 36.9501 26.9968 37.1445" fill="#00C3B4"/>
<path d="M54.3806 37.3006V41.4873C54.3819 44.0337 52.3133 46.0756 49.7693 46.0756C47.2253 46.0756 45.1709 44.0337 45.1709 41.4873V37.3006C45.1696 37.0328 45.3868 36.814 45.654 36.814H46.9542C47.2228 36.814 47.4399 37.0328 47.4399 37.3006V41.4731C47.4399 41.4731 47.4373 41.4783 47.4373 41.4873C47.4373 42.7837 48.4819 43.8059 49.7706 43.8059C51.0593 43.8059 52.1167 42.7837 52.1167 41.4873C52.1167 41.4795 52.1141 41.4757 52.1141 41.4731V37.3006C52.1128 37.0328 52.3338 36.814 52.5959 36.814H53.8962C54.1647 36.814 54.3819 37.0328 54.3819 37.3006" fill="#00C3B4"/>
<path d="M60.1286 42.4409L60.6078 42.1075C60.7299 42.0199 60.7607 41.85 60.6759 41.7277L59.8677 40.5626C59.7714 40.4248 59.8703 40.2343 60.0386 40.2343H61.4558C61.6048 40.2343 61.7269 40.1133 61.7269 39.9639V39.3782C61.7269 39.2288 61.6036 39.1078 61.4558 39.1078H60.0386C59.8703 39.1078 59.7714 38.9185 59.8677 38.7808L60.6759 37.6131C60.7607 37.4908 60.7312 37.3209 60.6078 37.2346L60.1286 36.9012C60.0052 36.8149 59.8369 36.8458 59.7521 36.9694L58.5636 38.6817L57.3752 36.9694C57.2904 36.8471 57.1208 36.8162 56.9974 36.9012L56.5195 37.2346C56.3949 37.3209 56.3666 37.4895 56.4501 37.6131L57.2595 38.7808C57.3546 38.9185 57.257 39.1078 57.0887 39.1078H55.6715C55.5212 39.1078 55.4004 39.2288 55.4004 39.3782V39.9639C55.4004 40.1133 55.5212 40.2343 55.6715 40.2343H57.0887C57.257 40.2343 57.3546 40.4248 57.2595 40.5626L56.4501 41.7277C56.3653 41.85 56.3949 42.0199 56.5195 42.1075L56.9974 42.4409C57.1208 42.5272 57.2891 42.4962 57.3752 42.3714L58.5636 40.6591L59.7521 42.3714C59.8369 42.4962 60.0052 42.5259 60.1286 42.4409Z" fill="#FF5200"/>
<path d="M103.023 22.6163C106.741 18.891 106.741 12.8512 103.023 9.12586C99.3055 5.40058 93.2777 5.40058 89.5599 9.12586C85.842 12.8512 85.842 18.891 89.5599 22.6163C93.2777 26.3416 99.3055 26.3416 103.023 22.6163Z" fill="#F4F7F7"/>
<path d="M96.2914 25.5479C90.9663 25.5479 86.634 21.2069 86.634 15.8712C86.634 10.5354 90.9663 6.19449 96.2914 6.19449C101.616 6.19449 105.949 10.5354 105.949 15.8712C105.949 21.2069 101.616 25.5479 96.2914 25.5479ZM96.2914 6.4688C91.1172 6.4688 86.9085 10.6867 86.9085 15.8705C86.9085 21.0543 91.1179 25.2722 96.2914 25.2722C101.465 25.2722 105.674 21.0543 105.674 15.8705C105.674 10.6867 101.465 6.4688 96.2914 6.4688Z" fill="#1D1F1F"/>
<path d="M102.974 18.5408C102.974 15.6759 99.9018 17.3493 96.2104 17.3493C92.519 17.3493 89.6084 15.6759 89.6084 18.5408C89.6084 21.4056 92.6006 23.7287 96.2914 23.7287C99.9821 23.7287 102.974 21.4063 102.974 18.5408Z" fill="#D7E4F2"/>
<path d="M99.3806 20.9821L100.327 20.3248C100.57 20.153 100.629 19.8175 100.461 19.5748L98.866 17.2737C98.6752 17.0007 98.8715 16.6247 99.2029 16.6247H102C102.295 16.6247 102.537 16.3847 102.537 16.0905V14.9341C102.537 14.6398 102.295 14.3999 102 14.3999H99.2029C98.8708 14.3999 98.6752 14.0266 98.866 13.7536L100.461 11.4498C100.629 11.2071 100.569 10.8716 100.327 10.7025L99.3806 10.0452C99.1384 9.87608 98.8035 9.93589 98.6375 10.1786L96.2916 13.5598L93.9457 10.1786C93.7769 9.93589 93.4421 9.87608 93.1999 10.0452L92.2557 10.7025C92.0108 10.8716 91.9538 11.2071 92.1199 11.4498L93.7172 13.7536C93.9052 14.0266 93.7117 14.3999 93.3796 14.3999H90.5823C90.2859 14.3999 90.0464 14.6398 90.0464 14.9341V16.0905C90.0464 16.3847 90.2859 16.6247 90.5823 16.6247H93.3796C93.7117 16.6247 93.9045 17.0007 93.7172 17.2737L92.1199 19.5748C91.9538 19.8175 92.0108 20.153 92.2557 20.3248L93.1999 20.9821C93.4421 21.1512 93.7769 21.0914 93.9457 20.846L96.2916 17.4648L98.6375 20.846C98.8035 21.0914 99.1384 21.1512 99.3806 20.9821Z" fill="#FF5200"/>
</g>
<defs>
<clipPath id="clip0_1_1870">
<rect width="123" height="120" fill="white"/>
</clipPath>
<clipPath id="clip1_1_1870">
<rect width="61" height="67" fill="white" transform="translate(122.809 41.3376) rotate(93.712)"/>
</clipPath>
</defs>
</svg>
