<svg width="123" height="120" viewBox="0 0 123 120" fill="none" xmlns="http://www.w3.org/2000/svg">
<g clip-path="url(#clip0_42_586)">
<path d="M7.28156 119.153C7.28156 119.153 26.2165 111.012 61.5279 119.153C83.6504 124.253 93.8645 106.543 112.543 101.924C127.75 96.7452 124.717 69.0477 117.707 56.3811C108.59 39.9038 118.896 29.6816 112.994 20.5383C107.488 12.0095 95.1629 19.849 87.0997 8.40391C78.2654 -4.13583 64.1903 -0.851203 53.4833 10.1865C39.3938 24.7118 33.2684 7.27497 15.6523 10.4046C2.05452 12.8209 -6.16311 35.2996 10.4807 46.7934C24.6679 56.5903 7.44497 87.3351 7.28088 119.153H7.28156Z" fill="#1D7A72"/>
<path d="M5.09386 15.3027C5.06299 15.3027 5.03211 15.2924 5.00673 15.2718C4.9484 15.2237 4.93948 15.137 4.98751 15.0786C5.00947 15.0518 7.2202 12.3884 11.2629 10.6538C14.9914 9.05394 21.0884 7.93468 28.9583 11.6885C29.0269 11.7208 29.0558 11.8033 29.0235 11.8714C28.9906 11.9401 28.9089 11.969 28.8403 11.9367C21.063 8.22687 15.0476 9.32895 11.3706 10.9061C7.38899 12.6146 5.2208 15.2264 5.19953 15.2525C5.17277 15.2855 5.13297 15.3027 5.09318 15.3027H5.09386Z" fill="#00C4B3"/>
<path d="M115.74 28.0732C115.667 28.0732 115.606 28.0148 115.603 27.9405C115.455 23.8279 114.143 20.6406 111.702 18.4667C107.656 14.8648 101.836 15.2972 101.777 15.3021C101.7 15.3089 101.635 15.2519 101.628 15.1762C101.622 15.1006 101.678 15.0339 101.754 15.0277C101.814 15.0229 107.751 14.5815 111.883 18.2611C114.382 20.4866 115.726 23.7399 115.877 27.9302C115.879 28.0059 115.82 28.0698 115.744 28.0725C115.743 28.0725 115.741 28.0725 115.739 28.0725L115.74 28.0732Z" fill="#00C4B3"/>
<path d="M110.123 21.1424C110.09 21.1424 110.055 21.1301 110.029 21.1046C107.001 18.2267 103.639 17.918 100.082 17.5915C95.4592 17.1673 90.2199 16.6867 84.8934 10.2434C84.8447 10.1849 84.8529 10.0983 84.9112 10.0495C84.9695 10.0007 85.056 10.0096 85.1047 10.0674C90.3591 16.422 95.3144 16.8771 100.107 17.3171C103.714 17.6478 107.121 17.9606 110.218 20.9046C110.273 20.9568 110.276 21.0441 110.223 21.0991C110.197 21.128 110.16 21.1418 110.124 21.1418L110.123 21.1424Z" fill="#00C4B3"/>
<path d="M3.4608 38.6107C3.41277 38.6107 3.36612 38.5852 3.34073 38.5399C0.565312 33.5485 0.691561 27.3706 3.68723 21.5907C6.16212 16.8159 10.2014 13.3578 13.7398 12.9858C13.8153 12.9782 13.8825 13.0326 13.8907 13.1082C13.899 13.1838 13.8441 13.2512 13.7686 13.2594C10.3187 13.6224 6.36521 17.0215 3.9308 21.7179C0.978365 27.4139 0.850744 33.497 3.58019 38.4065C3.61724 38.4725 3.59323 38.5564 3.52736 38.5935C3.50609 38.6052 3.48344 38.6107 3.4608 38.6107Z" fill="#00C4B3"/>
<path d="M1.33043 24.1819C1.31877 24.1819 1.30642 24.1806 1.29407 24.1771C1.22065 24.1572 1.17811 24.0816 1.19801 24.008C1.20899 23.9688 2.30268 20.05 5.42529 16.4804C7.26138 14.3815 9.42888 12.8112 11.8681 11.8116C14.9152 10.5631 18.3946 10.2097 22.2102 10.7597C22.285 10.7707 22.3371 10.8401 22.3262 10.9151C22.3152 10.99 22.2452 11.0422 22.1711 11.0312C18.4076 10.4888 14.9783 10.8353 11.9786 12.0625C9.57983 13.0443 7.44664 14.5884 5.63867 16.6523C2.5545 20.1737 1.47315 24.0403 1.46286 24.0788C1.44639 24.14 1.39081 24.1799 1.33043 24.1799V24.1819Z" fill="#00C4B3"/>
<path d="M107.93 17.718C107.913 17.718 107.897 17.7152 107.88 17.709C105.936 16.9624 104.007 16.7912 101.964 16.6104C99.0808 16.3546 95.8134 16.0652 91.77 14.0714C91.7021 14.0377 91.6739 13.9552 91.7076 13.8872C91.7412 13.8191 91.8228 13.7909 91.8915 13.8246C95.8889 15.7957 99.1295 16.0831 101.989 16.3361C104.05 16.5189 105.998 16.6915 107.979 17.4519C108.05 17.4787 108.086 17.5585 108.058 17.6293C108.038 17.6843 107.985 17.718 107.93 17.718Z" fill="#00C4B3"/>
<path d="M14.7341 67.8244C14.7259 67.8244 14.7183 67.8244 14.7101 67.8223C14.6353 67.8092 14.5859 67.7377 14.5989 67.6628C15.3647 63.3679 15.7214 57.1659 13.0709 52.0137C11.488 48.9357 9.55172 47.6776 9.53251 47.6652C9.4687 47.6246 9.44949 47.5394 9.48997 47.4755C9.53045 47.4115 9.61553 47.3923 9.67934 47.4328C9.76031 47.4844 11.687 48.7329 13.3049 51.8693C16 57.093 15.6425 63.3672 14.8686 67.7109C14.8569 67.7776 14.7986 67.8244 14.7334 67.8244H14.7341Z" fill="#00C4B3"/>
<path d="M13.6411 65.262C13.6343 65.262 13.6274 65.262 13.6206 65.2606C13.5458 65.2496 13.4943 65.1795 13.5053 65.1039C14.1866 60.5691 13.4428 57.1239 12.6991 55.0318C11.8929 52.7651 10.9131 51.5544 10.9028 51.5427C10.8547 51.4843 10.863 51.3977 10.922 51.3495C10.9803 51.3014 11.0668 51.3097 11.1148 51.3681C11.156 51.4183 12.1296 52.6187 12.9523 54.926C13.7098 57.0497 14.4672 60.5464 13.7763 65.1444C13.766 65.2125 13.7077 65.2613 13.6411 65.2613V65.262Z" fill="#00C4B3"/>
<path d="M16.2903 25.4992H9.74731V32.0553H16.2903V25.4992Z" fill="white"/>
<path d="M9.98113 30.4115C7.23659 30.4115 5.00391 28.1743 5.00391 25.4243C5.00391 22.6742 7.23659 20.4371 9.98113 20.4371C12.7257 20.4371 14.9584 22.6742 14.9584 25.4243C14.9584 28.1743 12.7257 30.4115 9.98113 30.4115ZM9.98113 20.7121C7.38823 20.7121 5.27836 22.8262 5.27836 25.4243C5.27836 28.0224 7.38823 30.1365 9.98113 30.1365C12.574 30.1365 14.6839 28.0224 14.6839 25.4243C14.6839 22.8262 12.574 20.7121 9.98113 20.7121Z" fill="black"/>
<path d="M78.948 11.9498C77.9607 11.9498 77.1572 11.1447 77.1572 10.1554C77.1572 9.16604 77.9607 8.36096 78.948 8.36096C79.9354 8.36096 80.7388 9.16604 80.7388 10.1554C80.7388 11.1447 79.9354 11.9498 78.948 11.9498ZM78.948 8.63597C78.1123 8.63597 77.4317 9.31729 77.4317 10.1554C77.4317 10.9934 78.1116 11.6748 78.948 11.6748C79.7844 11.6748 80.4644 10.9934 80.4644 10.1554C80.4644 9.31729 79.7844 8.63597 78.948 8.63597Z" fill="black"/>
<path d="M105.482 29.0577C105.406 29.0577 105.344 28.9958 105.344 28.9202V27.4029C105.344 27.3273 105.406 27.2654 105.482 27.2654C105.557 27.2654 105.619 27.3273 105.619 27.4029V28.9202C105.619 28.9958 105.557 29.0577 105.482 29.0577Z" fill="black"/>
<path d="M105.482 32.0326C105.406 32.0326 105.344 31.9707 105.344 31.8951V30.3777C105.344 30.3021 105.406 30.2402 105.482 30.2402C105.557 30.2402 105.619 30.3021 105.619 30.3777V31.8951C105.619 31.9707 105.557 32.0326 105.482 32.0326Z" fill="black"/>
<path d="M107.723 29.7865H106.209C106.134 29.7865 106.072 29.7246 106.072 29.649C106.072 29.5734 106.134 29.5115 106.209 29.5115H107.723C107.799 29.5115 107.861 29.5734 107.861 29.649C107.861 29.7246 107.799 29.7865 107.723 29.7865Z" fill="black"/>
<path d="M104.754 29.7865H103.24C103.165 29.7865 103.103 29.7246 103.103 29.649C103.103 29.5734 103.165 29.5115 103.24 29.5115H104.754C104.83 29.5115 104.892 29.5734 104.892 29.649C104.892 29.7246 104.83 29.7865 104.754 29.7865Z" fill="black"/>
<path d="M22.9471 62.9355C22.9176 62.9355 22.8888 62.9258 22.8648 62.908L19.5404 60.404C19.5013 60.3745 19.4807 60.3264 19.4869 60.2775C19.4931 60.2287 19.524 60.1868 19.5693 60.1675L23.3951 58.5354C23.4404 58.5161 23.4919 58.5223 23.5317 58.5519C23.5708 58.5815 23.5914 58.6296 23.5852 58.6784L23.083 62.8151C23.0768 62.864 23.0459 62.9059 23.0006 62.9251C22.9835 62.9327 22.9649 62.9361 22.9471 62.9361V62.9355ZM19.8959 60.327L22.8401 62.5449L23.2847 58.8812L19.8959 60.327Z" fill="#F4F7F7"/>
<path d="M94.4191 116.187C94.382 116.187 94.345 116.172 94.3182 116.143C94.2667 116.087 94.2702 116 94.3258 115.949C94.4294 115.853 104.821 106.354 118.741 103.919C118.817 103.906 118.887 103.956 118.9 104.031C118.913 104.106 118.863 104.176 118.788 104.189C104.95 106.61 94.6146 116.056 94.5117 116.151C94.4856 116.176 94.452 116.187 94.4184 116.187H94.4191Z" fill="#00C4B3"/>
<path d="M100.563 114.121C100.528 114.121 100.494 114.109 100.468 114.083C100.413 114.03 100.411 113.943 100.464 113.888C100.483 113.868 102.414 111.863 105.53 109.967C108.41 108.215 112.923 106.198 118.065 106.536C118.141 106.541 118.198 106.607 118.194 106.682C118.189 106.758 118.123 106.816 118.047 106.811C108.339 106.17 100.738 114 100.662 114.079C100.635 114.107 100.599 114.122 100.563 114.122L100.563 114.121Z" fill="#00C4B3"/>
<g clip-path="url(#clip1_42_586)">
<path d="M121.146 66.9699C103.767 73.5224 87.965 83.3222 74.5734 95.851C69.0442 90.1297 63.5148 84.4099 57.9854 78.69C73.4679 64.2026 91.7387 52.8723 111.832 45.2954C114.936 52.5207 118.042 59.7446 121.146 66.9699Z" fill="#15D1C1"/>
<path d="M72.3602 91.786C68.938 88.1885 65.5142 84.5924 62.092 80.9949C63.5106 79.6884 63.7149 77.5883 62.5143 76.2629C75.8426 64.5503 91.0827 55.0986 107.664 48.2655C108.416 49.8685 110.483 50.5603 112.305 49.8566C114.279 54.3522 116.254 58.8465 118.228 63.3421C116.552 63.9892 115.819 65.8466 116.57 67.4494C102.01 73.4494 88.6261 81.7492 76.9225 92.0351C75.7233 90.7113 73.6656 90.5836 72.3602 91.786Z" fill="#CBF2EE"/>
<path d="M98.0036 64.0538C100.233 67.9555 98.8508 72.7852 95.0767 75.091C91.2958 77.3861 86.175 76.5153 83.4741 72.9C80.7772 69.2924 81.8876 64.0517 86.1399 61.4658C90.3895 58.8753 95.7808 60.1584 98.005 64.0539L98.0036 64.0538Z" fill="#6BDDD3"/>
<path d="M81.6932 74.6615C78.2015 77.1501 74.8184 79.7865 71.5534 82.5642C71.0436 81.9896 70.5337 81.4149 70.0238 80.8403C73.3357 78.0231 76.7655 75.3501 80.3053 72.8265C80.7685 73.4378 81.23 74.0503 81.6932 74.6615Z" fill="#50BFA5"/>
<path d="M111.967 57.9196C107.961 59.575 104.038 61.3942 100.208 63.3691C99.8331 62.7049 99.4562 62.0406 99.0808 61.3763C102.964 59.3726 106.942 57.529 111.002 55.8508C111.324 56.5409 111.645 57.231 111.965 57.9195L111.967 57.9196Z" fill="#6BDDD3"/>
<path d="M102.804 55.5097C90.3624 67.9535 80.6526 82.8154 74.1877 99.3115C66.9718 96.0637 59.7544 92.8173 52.5385 89.5696C60.0149 70.4975 71.2404 53.3137 85.6251 38.9253C91.3517 44.4539 97.0769 49.981 102.804 55.5097Z" fill="#15D1C1"/>
<path d="M70.5586 96.3727C66.0681 94.3115 61.5777 92.2488 57.0886 90.1876C57.7834 88.4598 57.0845 86.445 55.4834 85.6631C62.2321 69.9442 71.597 55.6116 83.2256 43.2003C84.551 44.4031 86.6454 44.2821 87.9423 42.9618C91.5428 46.3859 95.1434 49.8101 98.7426 53.2327C97.5488 54.4467 97.6848 56.4309 99.0087 57.6336C88.7974 68.5314 80.5748 81.1197 74.6469 94.9224C73.0472 94.142 71.1972 94.7807 70.5587 96.3713L70.5586 96.3727Z" fill="#CBF2EE"/>
<path d="M81.3779 61.3314C84.9535 64.114 85.7626 69.0815 83.4271 72.599C81.0831 76.11 76.2469 77.189 72.3796 74.8453C68.5193 72.5065 67.301 67.2601 69.9354 63.307C72.5654 59.3522 77.8093 58.5536 81.3764 61.3313L81.3779 61.3314Z" fill="#6BDDD3"/>
<path d="M71.5617 77.1272C69.5518 80.7098 67.6982 84.3892 66.0046 88.1552C65.3201 87.8114 64.6339 87.469 63.9494 87.1252C65.6656 83.3063 67.5446 79.5758 69.583 75.9436C70.242 76.3386 70.9012 76.7321 71.5602 77.1271L71.5617 77.1272Z" fill="#E6F9F7"/>
<path d="M91.0106 50.5311C88.2042 53.5337 85.538 56.6555 83.0183 59.8895C82.4132 59.4144 81.8067 58.9392 81.2016 58.464C83.7568 55.1854 86.4599 52.019 89.3059 48.975C89.8742 49.4932 90.4424 50.0129 91.0106 50.5311Z" fill="#6BDDD3"/>
</g>
<path d="M103.023 22.6163C106.741 18.891 106.741 12.8512 103.023 9.12586C99.3055 5.40058 93.2777 5.40058 89.5599 9.12586C85.842 12.8512 85.842 18.891 89.5599 22.6163C93.2777 26.3416 99.3055 26.3416 103.023 22.6163Z" fill="black"/>
<path d="M96.2914 25.5479C90.9663 25.5479 86.634 21.2069 86.634 15.8712C86.634 10.5354 90.9663 6.19446 96.2914 6.19446C101.616 6.19446 105.949 10.5354 105.949 15.8712C105.949 21.2069 101.616 25.5479 96.2914 25.5479ZM96.2914 6.46877C91.1172 6.46877 86.9085 10.6866 86.9085 15.8705C86.9085 21.0543 91.1179 25.2722 96.2914 25.2722C101.465 25.2722 105.674 21.0543 105.674 15.8705C105.674 10.6866 101.465 6.46877 96.2914 6.46877Z" fill="#F4F7F7"/>
<path d="M102.974 18.5408C102.974 15.6759 99.9018 17.3493 96.2104 17.3493C92.519 17.3493 89.6084 15.6759 89.6084 18.5408C89.6084 21.4056 92.6006 23.7287 96.2914 23.7287C99.9821 23.7287 102.974 21.4063 102.974 18.5408Z" fill="#393D3D"/>
<path d="M75.0358 58.0439H3.96045V119.106H75.0358V58.0439Z" fill="#FF6F2C"/>
<path d="M75.0359 119.369H3.9606C3.81657 119.369 3.69873 119.251 3.69873 119.106V58.044C3.69873 57.8995 3.81657 57.7812 3.9606 57.7812H75.0359C75.1799 57.7812 75.2978 57.8995 75.2978 58.044V119.106C75.2978 119.251 75.1799 119.369 75.0359 119.369ZM4.22246 118.843H74.7741V58.3069H4.22246V118.843Z" fill="black"/>
<path d="M12.1857 41.6354H19.9893L12.1857 58.0364H1.26074L12.1857 41.6354Z" fill="#525454"/>
<path d="M19.9891 41.6354H27.7927L23.1105 58.0364H12.1855L19.9891 41.6354Z" fill="#9C3101"/>
<path d="M27.7927 41.6354H35.5963L34.0356 58.0364H23.1106L27.7927 41.6354Z" fill="#525454"/>
<path d="M35.5964 41.6354H43.3999L44.9606 58.0364H34.0356L35.5964 41.6354Z" fill="#9C3101"/>
<path d="M43.3997 41.6354H51.2045L55.8867 58.0364H44.9604L43.3997 41.6354Z" fill="#525454"/>
<path d="M51.2046 41.6354H59.0082L66.8117 58.0364H55.8867L51.2046 41.6354Z" fill="#9C3101"/>
<path d="M59.0081 41.6354H66.8116L77.7366 58.0364H66.8116L59.0081 41.6354Z" fill="#525454"/>
<path d="M1.26074 58.0441H12.1857V67.6994C12.1857 69.2121 10.9615 70.4408 9.45449 70.4408H3.99199C2.48496 70.4408 1.26074 69.2121 1.26074 67.6994V58.0441Z" fill="#393D3D"/>
<path d="M12.1855 58.0441H23.1105V67.6994C23.1105 69.2121 21.8863 70.4408 20.3793 70.4408H14.9168C13.4098 70.4408 12.1855 69.2121 12.1855 67.6994V58.0441Z" fill="#FF5100"/>
<path d="M23.1106 58.0441H34.0356V67.6994C34.0356 69.2121 32.8114 70.4408 31.3043 70.4408H25.8418C24.3348 70.4408 23.1106 69.2121 23.1106 67.6994V58.0441Z" fill="#393D3D"/>
<path d="M34.0356 58.0441H44.9606V67.6994C44.9606 69.2121 43.7364 70.4408 42.2294 70.4408H36.7669C35.2599 70.4408 34.0356 69.2121 34.0356 67.6994V58.0441Z" fill="#FF5100"/>
<path d="M44.9607 58.0441H55.8857V67.6994C55.8857 69.2121 54.6615 70.4408 53.1544 70.4408H47.6919C46.1849 70.4408 44.9607 69.2121 44.9607 67.6994V58.0441Z" fill="#393D3D"/>
<path d="M61.3492 70.4408C58.3325 70.4408 55.8867 67.9859 55.8867 64.958V58.0441H66.8117V64.958C66.8117 67.9859 64.3659 70.4408 61.3492 70.4408Z" fill="#FF5100"/>
<path d="M72.2743 70.4408C69.2576 70.4408 66.8118 67.9859 66.8118 64.958V58.0441H77.7368V64.958C77.7368 67.9859 75.2909 70.4408 72.2743 70.4408Z" fill="#393D3D"/>
<path d="M72.2743 70.7037C69.7146 70.7037 67.5411 69.0084 66.8118 66.6784C66.0812 69.0098 63.9091 70.7037 61.3493 70.7037C58.7896 70.7037 56.6161 69.0084 55.8868 66.6784C55.1562 69.0098 52.9841 70.7037 50.4243 70.7037C47.8646 70.7037 45.6911 69.0084 44.9618 66.6784C44.2312 69.0098 42.0591 70.7037 39.4993 70.7037C36.9396 70.7037 34.7661 69.0084 34.0368 66.6784C33.3062 69.0098 31.1341 70.7037 28.5744 70.7037C26.0146 70.7037 23.8411 69.0084 23.1119 66.6784C22.3813 69.0098 20.2091 70.7037 17.6494 70.7037C15.0896 70.7037 12.9162 69.0084 12.1869 66.6784C11.4563 69.0098 9.28409 70.7037 6.72436 70.7037C3.56758 70.7037 1 68.1266 1 64.9581V58.0442C1 57.9916 1.01571 57.9417 1.04452 57.8983L11.9695 41.4973C12.018 41.4237 12.1004 41.3804 12.1869 41.3804H66.8131C66.9009 41.3804 66.982 41.4237 67.0305 41.4973L77.9555 57.8983C77.9843 57.9417 78 57.9929 78 58.0442V64.9581C78 68.1266 75.4324 70.7037 72.2756 70.7037H72.2743ZM66.8118 64.6953C66.9559 64.6953 67.0737 64.8136 67.0737 64.9581C67.0737 67.8362 69.4069 70.1781 72.2743 70.1781C75.1417 70.1781 77.475 67.8362 77.475 64.9581V58.1244L66.6717 41.906H12.3256L1.52242 58.1244V64.9581C1.52242 67.8362 3.85563 70.1781 6.72305 70.1781C9.59047 70.1781 11.9237 67.8362 11.9237 64.9581C11.9237 64.8136 12.0415 64.6953 12.1856 64.6953C12.3296 64.6953 12.4474 64.8136 12.4474 64.9581C12.4474 67.8362 14.7806 70.1781 17.648 70.1781C20.5155 70.1781 22.8487 67.8362 22.8487 64.9581C22.8487 64.8136 22.9665 64.6953 23.1105 64.6953C23.2546 64.6953 23.3724 64.8136 23.3724 64.9581C23.3724 67.8362 25.7056 70.1781 28.573 70.1781C31.4405 70.1781 33.7737 67.8362 33.7737 64.9581C33.7737 64.8136 33.8915 64.6953 34.0355 64.6953C34.1796 64.6953 34.2974 64.8136 34.2974 64.9581C34.2974 67.8362 36.6306 70.1781 39.498 70.1781C42.3655 70.1781 44.6987 67.8362 44.6987 64.9581C44.6987 64.8136 44.8165 64.6953 44.9605 64.6953C45.1046 64.6953 45.2224 64.8136 45.2224 64.9581C45.2224 67.8362 47.5556 70.1781 50.423 70.1781C53.2905 70.1781 55.6237 67.8362 55.6237 64.9581C55.6237 64.8136 55.7415 64.6953 55.8855 64.6953C56.0296 64.6953 56.1474 64.8136 56.1474 64.9581C56.1474 67.8362 58.4806 70.1781 61.348 70.1781C64.2154 70.1781 66.5487 67.8362 66.5487 64.9581C66.5487 64.8136 66.6665 64.6953 66.8105 64.6953H66.8118Z" fill="black"/>
<path d="M68.5913 74.3126H10.7231V119.106H68.5913V74.3126Z" fill="#DFE5E5"/>
<path d="M68.5914 119.369H10.7232C10.3658 119.369 10.0764 119.251 10.0764 119.106V74.3125C10.0764 74.168 10.3658 74.0497 10.7232 74.0497H68.5914C68.9488 74.0497 69.2382 74.168 69.2382 74.3125V119.106C69.2382 119.251 68.9488 119.369 68.5914 119.369ZM10.625 118.844H68.6896V74.5754H10.625V118.844Z" fill="black"/>
<path d="M65.6451 77.5822H13.3521V99.6197H65.6451V77.5822Z" fill="white"/>
<path d="M65.6452 99.2689H13.3521C12.8677 99.2689 12.4749 99.1506 12.4749 99.006V77.5822C12.4749 77.4377 12.8677 77.3194 13.3521 77.3194H65.6452C66.1296 77.3194 66.5224 77.4377 66.5224 77.5822V99.006C66.5224 99.1506 66.1296 99.2689 65.6452 99.2689ZM13.0667 98.7432H65.9306V77.8451H13.0667V98.7432Z" fill="black"/>
<path d="M44.5283 41.7259V44.0468C41.9372 44.0468 39.8383 41.9533 39.8383 39.3486L39.8357 35.0906C39.8357 34.8173 40.0557 34.5939 40.3293 34.5939H41.6557C41.9267 34.5939 42.1493 34.8173 42.1493 35.0906V39.3381C42.1493 39.3381 42.148 39.3446 42.148 39.3486C42.148 40.672 43.2151 41.7259 44.5309 41.7259" fill="black"/>
<path d="M38.7925 39.1712C38.7022 36.4429 36.3114 34.2929 33.5029 34.6294C31.3621 34.8869 29.6377 36.6466 29.4021 38.7979C29.0905 41.651 31.3084 44.0429 34.0855 44.0429C34.9759 44.0363 35.6345 43.6092 36.0351 43.2333C36.1988 43.0782 36.4672 43.1991 36.4659 43.4265L36.4633 44.0455H38.7925V39.1699V39.1712ZM34.0764 41.7089C32.75 41.7089 31.6711 40.6404 31.6711 39.3223C31.6711 38.0042 32.75 36.9384 34.0764 36.9384C35.4027 36.9384 36.4829 38.0068 36.4829 39.3223C36.4829 40.6378 35.4079 41.7089 34.0764 41.7089Z" fill="black"/>
<path d="M27.0462 34.9288L24.6606 41.4209C24.5493 41.7428 24.2612 41.7573 24.1382 41.4406L21.6164 34.9144C21.5431 34.7238 21.3611 34.5963 21.1581 34.5963H19.7388C19.3932 34.595 19.1562 34.9446 19.2779 35.2679L22.618 44.0492H26.1938L29.4383 35.2626C29.5588 34.9393 29.3205 34.5937 28.9761 34.5963L27.507 34.5989C27.2989 34.5989 27.1116 34.7317 27.0435 34.9301" fill="black"/>
<path d="M54.9492 35.0906V39.3643C54.9505 41.9638 52.8425 44.0481 50.25 44.0481C47.6576 44.0481 45.564 41.9638 45.564 39.3643V35.0906C45.5627 34.8173 45.7839 34.5939 46.0563 34.5939H47.3813C47.655 34.5939 47.8762 34.8173 47.8762 35.0906V39.3499C47.8762 39.3499 47.8736 39.3551 47.8736 39.3643C47.8736 40.6877 48.9381 41.7312 50.2514 41.7312C51.5646 41.7312 52.6422 40.6877 52.6422 39.3643C52.6422 39.3565 52.6396 39.3525 52.6396 39.3499V35.0906C52.6382 34.8173 52.8635 34.5939 53.1306 34.5939H54.4556C54.7292 34.5939 54.9505 34.8173 54.9505 35.0906" fill="black"/>
<path d="M60.8071 40.3378L61.2955 39.9974C61.4198 39.9081 61.4513 39.7346 61.3649 39.6097L60.5413 38.4204C60.4431 38.2798 60.5439 38.0853 60.7154 38.0853H62.1596C62.3115 38.0853 62.4359 37.9618 62.4359 37.8093V37.2114C62.4359 37.0589 62.3102 36.9354 62.1596 36.9354H60.7154C60.5439 36.9354 60.4431 36.7422 60.5413 36.6016L61.3649 35.4096C61.4513 35.2848 61.4212 35.1113 61.2955 35.0233L60.8071 34.6829C60.6814 34.5948 60.5099 34.6264 60.4234 34.7525L59.2123 36.5004L58.0012 34.7525C57.9148 34.6277 57.742 34.5961 57.6163 34.6829L57.1292 35.0233C57.0022 35.1113 56.9734 35.2835 57.0585 35.4096L57.8834 36.6016C57.9803 36.7422 57.8807 36.9354 57.7092 36.9354H56.265C56.1118 36.9354 55.9888 37.0589 55.9888 37.2114V37.8093C55.9888 37.9618 56.1118 38.0853 56.265 38.0853H57.7092C57.8807 38.0853 57.9803 38.2798 57.8834 38.4204L57.0585 39.6097C56.9721 39.7346 57.0022 39.9081 57.1292 39.9974L57.6163 40.3378C57.742 40.4259 57.9135 40.3943 58.0012 40.2668L59.2123 38.519L60.4234 40.2668C60.5099 40.3943 60.6814 40.4245 60.8071 40.3378Z" fill="black"/>
<path d="M44.5283 42.7773V45.0981C41.9372 45.0981 39.8383 43.0046 39.8383 40.3999L39.8357 36.142C39.8357 35.8686 40.0557 35.6452 40.3293 35.6452H41.6557C41.9267 35.6452 42.1493 35.8686 42.1493 36.142V40.3894C42.1493 40.3894 42.148 40.396 42.148 40.3999C42.148 41.7233 43.2151 42.7773 44.5309 42.7773" fill="#F4F7F7"/>
<path d="M38.7925 40.2225C38.7022 37.4943 36.3114 35.3443 33.5029 35.6807C31.3621 35.9383 29.6377 37.698 29.4021 39.8493C29.0905 42.7024 31.3084 45.0942 34.0855 45.0942C34.9759 45.0876 35.6345 44.6605 36.0351 44.2846C36.1988 44.1296 36.4672 44.2505 36.4659 44.4778L36.4633 45.0968H38.7925V40.2212V40.2225ZM34.0764 42.7602C32.75 42.7602 31.6711 41.6918 31.6711 40.3736C31.6711 39.0555 32.75 37.9897 34.0764 37.9897C35.4027 37.9897 36.4829 39.0581 36.4829 40.3736C36.4829 41.6891 35.4079 42.7602 34.0764 42.7602Z" fill="#F4F7F7"/>
<path d="M27.0462 35.9801L24.6606 42.4721C24.5493 42.7941 24.2612 42.8086 24.1382 42.4919L21.6164 35.9656C21.5431 35.7751 21.3611 35.6476 21.1581 35.6476H19.7388C19.3932 35.6463 19.1562 35.9959 19.2779 36.3191L22.618 45.1005H26.1938L29.4383 36.3139C29.5588 35.9906 29.3205 35.645 28.9761 35.6476L27.507 35.6502C27.2989 35.6502 27.1116 35.7829 27.0435 35.9814" fill="#F4F7F7"/>
<path d="M54.9492 36.142V40.4157C54.9505 43.0151 52.8425 45.0994 50.25 45.0994C47.6576 45.0994 45.564 43.0151 45.564 40.4157V36.142C45.5627 35.8686 45.7839 35.6452 46.0563 35.6452H47.3813C47.655 35.6452 47.8762 35.8686 47.8762 36.142V40.4012C47.8762 40.4012 47.8736 40.4065 47.8736 40.4157C47.8736 41.7391 48.9381 42.7825 50.2514 42.7825C51.5646 42.7825 52.6422 41.7391 52.6422 40.4157C52.6422 40.4078 52.6396 40.4039 52.6396 40.4012V36.142C52.6382 35.8686 52.8635 35.6452 53.1306 35.6452H54.4556C54.7292 35.6452 54.9505 35.8686 54.9505 36.142" fill="#F4F7F7"/>
<path d="M60.8071 41.3891L61.2955 41.0487C61.4198 40.9593 61.4513 40.7859 61.3649 40.661L60.5413 39.4717C60.4431 39.3311 60.5439 39.1366 60.7154 39.1366H62.1596C62.3115 39.1366 62.4359 39.013 62.4359 38.8606V38.2626C62.4359 38.1102 62.3102 37.9867 62.1596 37.9867H60.7154C60.5439 37.9867 60.4431 37.7935 60.5413 37.6529L61.3649 36.4609C61.4513 36.336 61.4212 36.1626 61.2955 36.0745L60.8071 35.7341C60.6814 35.6461 60.5099 35.6776 60.4234 35.8038L59.2123 37.5517L58.0012 35.8038C57.9148 35.679 57.742 35.6474 57.6163 35.7341L57.1292 36.0745C57.0022 36.1626 56.9734 36.3347 57.0585 36.4609L57.8834 37.6529C57.9803 37.7935 57.8807 37.9867 57.7092 37.9867H56.265C56.1118 37.9867 55.9888 38.1102 55.9888 38.2626V38.8606C55.9888 39.013 56.1118 39.1366 56.265 39.1366H57.7092C57.8807 39.1366 57.9803 39.3311 57.8834 39.4717L57.0585 40.661C56.9721 40.7859 57.0022 40.9593 57.1292 41.0487L57.6163 41.3891C57.742 41.4771 57.9135 41.4456 58.0012 41.3181L59.2123 39.5703L60.4234 41.3181C60.5099 41.4456 60.6814 41.4758 60.8071 41.3891Z" fill="#F4F7F7"/>
<path d="M44.5283 42.3791V44.7C41.9372 44.7 39.8383 42.6065 39.8383 40.0018L39.8357 35.7438C39.8357 35.4705 40.0557 35.2471 40.3293 35.2471H41.6557C41.9267 35.2471 42.1493 35.4705 42.1493 35.7438V39.9913C42.1493 39.9913 42.148 39.9978 42.148 40.0018C42.148 41.3252 43.2151 42.3791 44.5309 42.3791" fill="#15D1C1"/>
<path d="M38.7925 39.8258C38.7022 37.0976 36.3114 34.9476 33.5029 35.284C31.3621 35.5416 29.6377 37.3013 29.4021 39.4526C29.0905 42.3057 31.3084 44.6975 34.0855 44.6975C34.9759 44.6909 35.6345 44.2638 36.0351 43.888C36.1988 43.7329 36.4672 43.8538 36.4659 44.0812L36.4633 44.7001H38.7925V39.8245V39.8258ZM34.0764 42.3635C32.75 42.3635 31.6711 41.2951 31.6711 39.977C31.6711 38.6589 32.75 37.5931 34.0764 37.5931C35.4027 37.5931 36.4829 38.6615 36.4829 39.977C36.4829 41.2925 35.4079 42.3635 34.0764 42.3635Z" fill="#15D1C1"/>
<path d="M27.0462 35.5833L24.6606 42.0754C24.5493 42.3973 24.2612 42.4118 24.1382 42.0951L21.6164 35.5688C21.5431 35.3783 21.3611 35.2508 21.1581 35.2508H19.7388C19.3932 35.2495 19.1562 35.5991 19.2779 35.9224L22.618 44.7037H26.1938L29.4383 35.9171C29.5588 35.5938 29.3205 35.2482 28.9761 35.2508L27.507 35.2534C27.2989 35.2534 27.1116 35.3862 27.0435 35.5846" fill="#15D1C1"/>
<path d="M54.9492 35.7438V40.0175C54.9505 42.617 52.8425 44.7013 50.25 44.7013C47.6576 44.7013 45.564 42.617 45.564 40.0175V35.7438C45.5627 35.4705 45.7839 35.2471 46.0563 35.2471H47.3813C47.655 35.2471 47.8762 35.4705 47.8762 35.7438V40.0031C47.8762 40.0031 47.8736 40.0083 47.8736 40.0175C47.8736 41.3409 48.9381 42.3844 50.2514 42.3844C51.5646 42.3844 52.6422 41.3409 52.6422 40.0175C52.6422 40.0097 52.6396 40.0057 52.6396 40.0031V35.7438C52.6382 35.4705 52.8635 35.2471 53.1306 35.2471H54.4556C54.7292 35.2471 54.9505 35.4705 54.9505 35.7438" fill="#15D1C1"/>
<path d="M60.8071 40.9911L61.2955 40.6507C61.4198 40.5613 61.4513 40.3879 61.3649 40.263L60.5413 39.0737C60.4431 38.9331 60.5439 38.7386 60.7154 38.7386H62.1596C62.3115 38.7386 62.4359 38.615 62.4359 38.4626V37.8646C62.4359 37.7122 62.3102 37.5886 62.1596 37.5886H60.7154C60.5439 37.5886 60.4431 37.3955 60.5413 37.2548L61.3649 36.0629C61.4513 35.938 61.4212 35.7646 61.2955 35.6765L60.8071 35.3361C60.6814 35.2481 60.5099 35.2796 60.4234 35.4058L59.2123 37.1536L58.0012 35.4058C57.9148 35.2809 57.742 35.2494 57.6163 35.3361L57.1292 35.6765C57.0022 35.7646 56.9734 35.9367 57.0585 36.0629L57.8834 37.2548C57.9803 37.3955 57.8807 37.5886 57.7092 37.5886H56.265C56.1118 37.5886 55.9888 37.7122 55.9888 37.8646V38.4626C55.9888 38.615 56.1118 38.7386 56.265 38.7386H57.7092C57.8807 38.7386 57.9803 38.9331 57.8834 39.0737L57.0585 40.263C56.9721 40.3879 57.0022 40.5613 57.1292 40.6507L57.6163 40.9911C57.742 41.0791 57.9135 41.0476 58.0012 40.9201L59.2123 39.1722L60.4234 40.9201C60.5099 41.0476 60.6814 41.0778 60.8071 40.9911Z" fill="#FF5100"/>
<path d="M99.3806 20.9821L100.327 20.3248C100.57 20.153 100.629 19.8175 100.461 19.5748L98.866 17.2737C98.6752 17.0007 98.8715 16.6247 99.2029 16.6247H102C102.295 16.6247 102.537 16.3847 102.537 16.0905V14.9341C102.537 14.6398 102.295 14.3999 102 14.3999H99.2029C98.8708 14.3999 98.6752 14.0266 98.866 13.7536L100.461 11.4498C100.629 11.2071 100.569 10.8716 100.327 10.7025L99.3806 10.0452C99.1384 9.87608 98.8035 9.93589 98.6375 10.1786L96.2916 13.5598L93.9457 10.1786C93.7769 9.93589 93.4421 9.87608 93.1999 10.0452L92.2557 10.7025C92.0108 10.8716 91.9538 11.2071 92.1199 11.4498L93.7172 13.7536C93.9052 14.0266 93.7117 14.3999 93.3796 14.3999H90.5823C90.2859 14.3999 90.0464 14.6398 90.0464 14.9341V16.0905C90.0464 16.3847 90.2859 16.6247 90.5823 16.6247H93.3796C93.7117 16.6247 93.9045 17.0007 93.7172 17.2737L92.1199 19.5748C91.9538 19.8175 92.0108 20.153 92.2557 20.3248L93.1999 20.9821C93.4421 21.1512 93.7769 21.0914 93.9457 20.846L96.2916 17.4648L98.6375 20.846C98.8035 21.0914 99.1384 21.1512 99.3806 20.9821Z" fill="#FF5200"/>
</g>
<defs>
<clipPath id="clip0_42_586">
<rect width="123" height="120" fill="white"/>
</clipPath>
<clipPath id="clip1_42_586">
<rect width="61" height="67" fill="white" transform="translate(122.809 41.3376) rotate(93.712)"/>
</clipPath>
</defs>
</svg>
