<svg width="78" height="18" viewBox="0 0 78 18" fill="none" xmlns="http://www.w3.org/2000/svg">
<path d="M0.601562 16.9412V0.528377H4.03654V14.109H11.2704V16.9412H0.601562ZM20.5403 17.2938C18.9177 17.2938 17.5148 16.9488 16.3319 16.2588C15.149 15.5611 14.2353 14.5715 13.5907 13.2901C12.9538 12.0086 12.6353 10.4921 12.6353 8.74046V8.71772C12.6353 6.96611 12.9577 5.45335 13.6022 4.17946C14.2467 2.89798 15.1604 1.91222 16.3432 1.2222C17.5338 0.524586 18.9328 0.175781 20.5403 0.175781C22.1631 0.175781 23.5658 0.524586 24.7487 1.2222C25.9316 1.91222 26.8416 2.89798 27.4785 4.17946C28.1231 5.45335 28.4453 6.96611 28.4453 8.71772V8.74046C28.4453 10.4921 28.1231 12.0086 27.4785 13.2901C26.8416 14.564 25.9316 15.5498 24.7487 16.2473C23.5658 16.945 22.1631 17.2938 20.5403 17.2938ZM20.5403 14.382C21.4426 14.382 22.2237 14.1508 22.8834 13.6882C23.5431 13.2257 24.0512 12.5735 24.4076 11.7319C24.7639 10.8826 24.9421 9.88545 24.9421 8.74046V8.71772C24.9421 7.56515 24.7601 6.56801 24.3961 5.72633C24.0397 4.88465 23.5317 4.23633 22.8721 3.78137C22.2123 3.31882 21.4351 3.08755 20.5403 3.08755C19.6531 3.08755 18.8759 3.31882 18.2087 3.78137C17.5489 4.23633 17.0371 4.88465 16.6732 5.72633C16.3168 6.56801 16.1386 7.56515 16.1386 8.71772V8.74046C16.1386 9.88545 16.3168 10.8826 16.6732 11.7319C17.0371 12.5735 17.5489 13.2257 18.2087 13.6882C18.8683 14.1508 19.6456 14.382 20.5403 14.382ZM29.3325 16.9412L35.0536 0.528377H38.0337V3.75861H37.01L32.9494 16.9412H29.3325ZM32.4035 12.9602L33.2451 10.3897H40.8658L41.7075 12.9602H32.4035ZM41.1956 16.9412L37.1351 3.75861V0.528377H39.0914L44.8126 16.9412H41.1956ZM47.0306 16.9412V0.528377H49.9651L58.6662 12.8237L56.0161 11.1063H57.5857V0.528377H60.9411V16.9412H58.0179L49.3054 4.58892L51.9555 6.31779H50.3859V16.9412H47.0306ZM70.2109 17.2938C68.9067 17.2938 67.7693 17.1004 66.7987 16.7137C65.8357 16.327 65.0774 15.7734 64.5239 15.0531C63.9779 14.3328 63.6709 13.4797 63.6026 12.4939L63.5912 12.3119H66.8669L66.8897 12.4257C66.9504 12.8427 67.1285 13.2067 67.4243 13.5176C67.7276 13.8284 68.1219 14.0711 68.6072 14.2455C69.1001 14.4124 69.6611 14.4957 70.2905 14.4957C70.9199 14.4957 71.4659 14.4086 71.9284 14.2342C72.391 14.0522 72.7474 13.802 72.9976 13.4835C73.2554 13.165 73.3843 12.7973 73.3843 12.3802V12.3688C73.3843 11.8228 73.1644 11.3906 72.7246 11.0721C72.2924 10.7536 71.5682 10.4883 70.5521 10.276L68.812 9.93474C67.1589 9.59352 65.9305 9.0324 65.1267 8.25138C64.3305 7.46278 63.9325 6.45048 63.9325 5.21449V5.20312C63.94 4.19462 64.2093 3.31503 64.7401 2.56434C65.2784 1.81365 66.0177 1.22978 66.958 0.812729C67.9058 0.388097 68.9826 0.175781 70.1882 0.175781C71.4621 0.175781 72.5578 0.380514 73.4754 0.789981C74.3928 1.19186 75.1093 1.75299 75.625 2.47335C76.1406 3.18612 76.4287 4.01263 76.4894 4.95289L76.5008 5.13488H73.2706L73.2478 4.99839C73.1871 4.58134 73.0241 4.22495 72.7587 3.92923C72.4933 3.62592 72.1407 3.39085 71.701 3.22403C71.2688 3.05721 70.7644 2.9738 70.1882 2.9738C69.6195 2.9738 69.1228 3.05721 68.6981 3.22403C68.2736 3.39085 67.9437 3.62592 67.7087 3.92923C67.4811 4.22495 67.3674 4.57376 67.3674 4.97564V4.98702C67.3674 5.51022 67.5835 5.93485 68.0157 6.26092C68.4556 6.58697 69.1531 6.84478 70.1086 7.03435L71.8375 7.38695C72.9976 7.62201 73.9417 7.94049 74.6696 8.34237C75.4051 8.74425 75.9473 9.24851 76.2961 9.85513C76.6448 10.4617 76.8193 11.1935 76.8193 12.0504V12.0617C76.8193 13.1309 76.5539 14.056 76.0231 14.837C75.4999 15.618 74.7416 16.2246 73.7483 16.6568C72.7625 17.0815 71.5834 17.2938 70.2109 17.2938Z" fill="#FF5100"/>
</svg>
