<svg width="48" height="49" viewBox="0 0 48 49" fill="none" xmlns="http://www.w3.org/2000/svg">
    <g clip-path="url(#clip0_2382_36664)">
    <path d="M1.15928 13.9744C0.519191 13.9744 0 13.4396 0 12.7803V6.17118C0 2.76873 2.68797 0 5.99118 0H12.4075C13.0476 0 13.5668 0.53479 13.5668 1.19411C13.5668 1.85343 13.0476 2.38822 12.4075 2.38822H5.99118C3.96614 2.38822 2.31856 4.08529 2.31856 6.17118V12.7803C2.31856 13.4396 1.79937 13.9744 1.15928 13.9744Z" fill="#1D1F1F"/>
    <path d="M46.8411 13.9744C46.201 13.9744 45.6818 13.4396 45.6818 12.7803V6.17118C45.6818 4.08529 44.0343 2.38822 42.0092 2.38822H35.5929C34.9528 2.38822 34.4336 1.85343 34.4336 1.19411C34.4336 0.53479 34.9528 0 35.5929 0H42.0092C45.3131 0 48.0004 2.76873 48.0004 6.17118V12.7803C48.0004 13.4396 47.4812 13.9744 46.8411 13.9744Z" fill="#1D1F1F"/>
    <path d="M42.0092 49.0017H35.5929C34.9528 49.0017 34.4336 48.467 34.4336 47.8076C34.4336 47.1483 34.9528 46.6135 35.5929 46.6135H42.0092C44.0343 46.6135 45.6818 44.9165 45.6818 42.8306V36.2215C45.6818 35.5621 46.201 35.0273 46.8411 35.0273C47.4812 35.0273 48.0004 35.5621 48.0004 36.2215V42.8306C48.0004 46.2337 45.3124 49.0017 42.0092 49.0017Z" fill="#1D1F1F"/>
    <path d="M12.4085 49.0017H5.99216C2.68828 49.0017 0.000976562 46.233 0.000976562 42.8306V36.2215C0.000976562 35.5621 0.520168 35.0273 1.16026 35.0273C1.80035 35.0273 2.31954 35.5621 2.31954 36.2215V42.8306C2.31954 44.9165 3.96711 46.6142 5.99216 46.6142H12.4085C13.0486 46.6142 13.5678 47.149 13.5678 47.8083C13.5678 48.4676 13.0486 49.0024 12.4085 49.0024V49.0017Z" fill="#1D1F1F"/>
    <path d="M23.9992 40.0106C20.7034 40.0106 17.605 38.6885 15.2751 36.2885C14.8224 35.8222 14.8224 35.066 15.2751 34.5997C15.7278 34.1334 16.4619 34.1334 16.9146 34.5997C20.8209 38.6234 27.1775 38.6234 31.0845 34.5997C31.5372 34.1334 32.2714 34.1334 32.7241 34.5997C33.1768 35.066 33.1768 35.8222 32.7241 36.2885C30.3934 38.6892 27.2951 40.0106 23.9999 40.0106H23.9992Z" fill="#1D1F1F"/>
    <path d="M22.2479 30.8692H21.4923C20.8522 30.8692 20.333 30.3344 20.333 29.6751C20.333 29.0158 20.8522 28.481 21.4923 28.481H22.2479C23.4105 28.481 23.6087 28.0451 23.7034 27.8362C23.9526 27.2876 23.9519 26.3993 23.9519 25.5407V16.4832C23.9519 15.8239 24.4711 15.2891 25.1112 15.2891C25.7513 15.2891 26.2705 15.8239 26.2705 16.4832V25.54C26.2705 26.6075 26.2705 27.8175 25.8037 28.847C25.3852 29.7699 24.4288 30.8692 22.2479 30.8692Z" fill="#1D1F1F"/>
    <path d="M13.5866 15.6836H13.586C12.8125 15.6836 12.1855 16.3294 12.1855 17.1261V21.6375C12.1855 22.4342 12.8125 23.08 13.586 23.08H13.5866C14.36 23.08 14.987 22.4342 14.987 21.6375V17.1261C14.987 16.3294 14.36 15.6836 13.5866 15.6836Z" fill="#1D1F1F"/>
    <path d="M34.4148 15.6836H34.4141C33.6407 15.6836 33.0137 16.3294 33.0137 17.1261V21.6375C33.0137 22.4342 33.6407 23.08 34.4141 23.08H34.4148C35.1882 23.08 35.8152 22.4342 35.8152 21.6375V17.1261C35.8152 16.3294 35.1882 15.6836 34.4148 15.6836Z" fill="#1D1F1F"/>
    </g>
    <defs>
    <clipPath id="clip0_2382_36664">
    <rect width="48" height="49" fill="white"/>
    </clipPath>
    </defs>
    </svg>
    