<svg width="48" height="49" viewBox="0 0 48 49" fill="none" xmlns="http://www.w3.org/2000/svg">
    <g clip-path="url(#clip0_2382_36813)">
    <path d="M45.9878 19.9898C46.8586 19.8595 47.6688 20.4854 47.7866 21.3612C47.924 22.3795 47.9938 23.4303 47.9938 24.4468C48.0042 24.8903 48.0042 25.3352 47.9835 25.7798C47.9846 25.8547 47.9805 25.9308 47.972 26.0046C47.8804 26.8003 47.2035 27.4188 46.3826 27.4188C45.4993 27.4188 44.7828 26.7025 44.7828 25.8193V25.793C44.7828 25.7565 44.7828 25.7203 44.785 25.6838C44.805 25.2975 44.805 24.911 44.7943 24.4863C44.7943 23.5732 44.7337 22.666 44.6163 21.7884C44.4974 20.9137 45.1119 20.1076 45.9878 19.9898Z" fill="#1D1F1F"/>
    <path d="M-0.00024053 24.4852C-0.00024053 24.1477 0.0100996 23.8102 0.0226555 23.4469C0.0592152 22.69 0.11941 22.0077 0.203977 21.3737C0.429983 19.5774 0.869438 17.804 1.50905 16.1055C1.71511 15.5587 1.93078 15.0351 2.16934 14.5134C2.91826 12.8681 3.86697 11.3059 4.97189 9.89282C5.36333 9.37516 5.80611 8.84642 6.3257 8.2767C7.25373 7.25725 8.28774 6.31165 9.39709 5.46833C10.1013 4.9311 11.1043 5.06956 11.6383 5.77258C12.1738 6.47559 12.0372 7.47953 11.334 8.01344C10.379 8.74119 9.48831 9.5535 8.68953 10.4304C8.23752 10.927 7.85641 11.3823 7.50854 11.8424C6.54211 13.0785 5.72561 14.4229 5.07972 15.84C4.87144 16.2971 4.68273 16.7542 4.50289 17.2324C3.95191 18.6975 3.57264 20.2254 3.37692 21.785C3.30195 22.3411 3.24988 22.9355 3.21849 23.5773C3.20926 23.8575 3.19966 24.1374 3.19855 24.4176C3.21111 24.5937 3.20779 24.7706 3.18932 24.9456C3.09958 25.7672 2.4031 26.4015 1.59472 26.4015C1.53859 26.4015 1.48209 26.3985 1.42596 26.3923C0.547786 26.2966 -0.0873931 25.5364 0.00862244 24.6584C0.0023445 24.6011 -0.00060982 24.5428 -0.00060982 24.4856L-0.00024053 24.4852Z" fill="#1D1F1F"/>
    <path d="M34.0953 6.32072C32.7267 5.54275 31.2499 4.92835 29.6948 4.49229C27.8617 3.96133 25.9443 3.69253 23.9967 3.69253C23.6935 3.69253 23.3811 3.70287 23.0938 3.71247C21.4597 3.78115 19.8462 4.04367 18.2904 4.49561C17.7634 4.64441 17.2446 4.81426 16.7272 5.00256C15.9011 5.30349 14.9786 4.87776 14.6765 4.04773C14.3734 3.2177 14.8014 2.30053 15.6315 1.9974C16.222 1.78176 16.8136 1.58903 17.4075 1.42066C19.2011 0.900042 21.0682 0.595796 22.9745 0.515673C25.5451 0.427057 28.1457 0.712473 30.5723 1.4166C32.3637 1.91949 34.0813 2.63284 35.6611 3.53044C37.892 4.76441 39.9127 6.36096 41.6654 8.27395C42.962 9.68921 44.0691 11.2156 44.9554 12.8111C44.9628 12.8247 44.972 12.8424 44.9816 12.8609C45.2815 13.3952 45.564 13.9501 45.821 14.5095C46.1896 15.3122 45.8376 16.2623 45.0348 16.6308C44.818 16.7297 44.5913 16.7766 44.3682 16.7766C43.7622 16.7766 43.1828 16.431 42.9132 15.8447C42.6872 15.3521 42.4383 14.8647 42.158 14.3648C41.3936 12.9883 40.4334 11.6668 39.3053 10.4347C37.7867 8.77795 36.0389 7.39592 34.0957 6.32146L34.0953 6.32072Z" fill="#1D1F1F"/>
    <path d="M38.7542 29.005C37.872 28.9559 37.1962 28.2012 37.2449 27.3191C37.3 26.3248 37.3284 25.3707 37.3284 24.4856C37.3284 23.6006 37.242 22.7259 37.0703 21.8833C36.6618 19.8152 35.7412 17.8417 34.4029 16.1735C31.8607 12.9848 28.0673 11.1564 23.997 11.1564C19.9267 11.1564 16.1337 12.9848 13.59 16.1735C13.0368 16.864 12.0309 16.9762 11.3414 16.4264C10.6508 15.8756 10.5375 14.8687 11.0885 14.1782C14.2433 10.2252 18.9477 7.95703 23.997 7.95703C29.0463 7.95703 33.7507 10.2252 36.9015 14.1749C38.5585 16.2411 39.7022 18.6924 40.2074 21.2541C40.4197 22.2965 40.5283 23.3839 40.5283 24.4853C40.5283 25.4287 40.4991 26.4418 40.4408 27.496C40.3928 28.3478 39.6878 29.0069 38.844 29.0069C38.8148 29.0069 38.7845 29.0058 38.7542 29.0047V29.005Z" fill="#1D1F1F"/>
    <path d="M4.41634 32.7666C5.81189 31.1402 6.77426 29.177 7.20227 27.0734C7.37731 26.2622 7.46594 25.3916 7.46594 24.4877C7.46594 23.3819 7.57304 22.2945 7.78575 21.2566C7.96264 20.39 8.81459 19.8332 9.67282 20.009C10.5384 20.1858 11.0975 21.0306 10.9207 21.8957C10.7508 22.7246 10.6655 23.5971 10.6655 24.4877C10.6655 25.6176 10.5528 26.7142 10.3342 27.7285C9.80097 30.3474 8.59486 32.8102 6.864 34.8262C6.41827 35.3667 5.91197 35.8885 5.35914 36.3788C5.05485 36.6483 4.67596 36.7816 4.29891 36.7816C3.85724 36.7816 3.41778 36.5992 3.1013 36.2433C2.51487 35.5831 2.57543 34.5718 3.23683 33.9858C3.66595 33.6048 4.05665 33.2027 4.41671 32.7663L4.41634 32.7666Z" fill="#1D1F1F"/>
    <path d="M34.7596 39.0779C35.4325 37.2439 35.9783 35.3583 36.3823 33.4711C36.5688 32.6067 37.4196 32.0592 38.2819 32.2423C39.1453 32.4277 39.6963 33.2773 39.5109 34.1416C39.0755 36.1743 38.4872 38.2061 37.7642 40.1782C37.1412 41.8796 36.4048 43.5688 35.5739 45.1964C35.2918 45.7503 34.7304 46.0689 34.1481 46.0689C33.9032 46.0689 33.6554 46.0128 33.4221 45.8939C32.6347 45.4929 32.3223 44.5296 32.7241 43.7424C33.4959 42.2293 34.1802 40.66 34.7593 39.0772L34.7596 39.0779Z" fill="#1D1F1F"/>
    <path d="M14.6947 27.5504C14.852 26.5623 14.931 25.5303 14.931 24.4858C14.931 19.4882 18.998 15.4219 23.9964 15.4219C25.1035 15.4219 26.1711 15.6146 27.169 15.9957C27.994 16.3114 28.4083 17.2348 28.0929 18.0608C27.7772 18.8856 26.8514 19.301 26.0275 18.9846C25.3964 18.7431 24.7121 18.6213 23.9964 18.6213C20.7625 18.6213 18.1306 21.2528 18.1306 24.4861C18.1306 25.6983 18.0379 26.8979 17.8566 28.0381C17.0327 33.5459 14.2279 38.6007 9.95781 42.2701C9.65573 42.5293 9.28496 42.6563 8.91641 42.6563C8.46661 42.6563 8.01866 42.468 7.70218 42.0992C7.12609 41.4298 7.20216 40.4195 7.87316 39.8435C11.5602 36.6748 13.9827 32.3134 14.6951 27.5504H14.6947Z" fill="#1D1F1F"/>
    <path d="M23.3956 44.7899C26.4818 40.4518 28.5583 35.3856 29.404 30.1307C29.7083 28.3041 29.8623 26.4059 29.8623 24.4855C29.8623 23.8316 29.7541 23.1847 29.551 22.6143C29.2529 21.7824 29.6865 20.8671 30.5185 20.5702C31.3498 20.2733 32.266 20.7057 32.5629 21.5376C32.8941 22.4621 33.0618 23.4546 33.0618 24.4855C33.0618 26.5805 32.893 28.6571 32.5618 30.6472C31.64 36.3759 29.3726 41.9073 26.0043 46.6423C25.7022 47.0673 25.4001 47.4805 25.0866 47.8837C24.7709 48.2876 24.3004 48.4992 23.8244 48.4992C23.4806 48.4992 23.1338 48.3888 22.8413 48.1606C22.1445 47.6182 22.0208 46.612 22.5644 45.9153C22.8487 45.552 23.1216 45.1761 23.3956 44.7895V44.7899Z" fill="#1D1F1F"/>
    <path d="M23.7429 29.946C23.6709 29.946 23.5992 29.942 23.5261 29.9316C22.6501 29.8127 22.0367 29.0071 22.1553 28.132C22.3156 26.949 22.3968 25.7235 22.3968 24.4862C22.3968 23.603 23.1132 22.8867 23.9966 22.8867C24.8799 22.8867 25.5963 23.603 25.5963 24.4862C25.5963 25.866 25.5059 27.2374 25.3256 28.5611C25.2174 29.3638 24.5309 29.946 23.7425 29.946H23.7429Z" fill="#1D1F1F"/>
    <path d="M17.6681 40.0012C18.7375 38.4183 19.646 36.7095 20.3687 34.9224C20.7 34.1038 21.6298 33.7073 22.4519 34.0392C23.2706 34.3704 23.6661 35.3024 23.3352 36.1221C22.5291 38.1152 21.5146 40.023 20.32 41.7923C19.2409 43.3896 17.9816 44.9175 16.5779 46.3317C16.2655 46.6473 15.8541 46.8043 15.4427 46.8043C15.0313 46.8043 14.6285 46.6503 14.3157 46.3398C13.6886 45.718 13.6845 44.7048 14.3072 44.0779C15.5694 42.8055 16.7005 41.4338 17.6681 40.0008V40.0012Z" fill="#1D1F1F"/>
    </g>
    <defs>
    <clipPath id="clip0_2382_36813">
    <rect width="48" height="48" fill="white" transform="translate(0 0.5)"/>
    </clipPath>
    </defs>
    </svg>
    