<svg width="32" height="32" viewBox="0 0 32 32" fill="none" xmlns="http://www.w3.org/2000/svg">
<path d="M22 0H10C4.47715 0 0 4.47715 0 10V22C0 27.5228 4.47715 32 10 32H22C27.5228 32 32 27.5228 32 22V10C32 4.47715 27.5228 0 22 0Z" fill="#393D3D"/>
<path opacity="0.4" d="M20.9998 22.43H16.9998L12.5498 25.39C12.3994 25.489 12.225 25.5456 12.0451 25.5538C11.8652 25.562 11.6865 25.5214 11.5277 25.4364C11.369 25.3514 11.2361 25.2251 11.1432 25.0708C11.0503 24.9165 11.0007 24.74 10.9998 24.56V22.43C10.3327 22.4702 9.66463 22.3685 9.03975 22.1314C8.41488 21.8944 7.84741 21.5275 7.37484 21.0549C6.90227 20.5823 6.53534 20.0149 6.29831 19.39C6.06128 18.7651 5.95953 18.0971 5.99979 17.43V11.43C5.95953 10.7629 6.06128 10.0948 6.29831 9.46993C6.53534 8.84506 6.90227 8.27759 7.37484 7.80501C7.84741 7.33244 8.41488 6.96552 9.03975 6.72849C9.66463 6.49145 10.3327 6.38971 10.9998 6.42997H20.9998C21.6669 6.38971 22.335 6.49145 22.9598 6.72849C23.5847 6.96552 24.1522 7.33244 24.6247 7.80501C25.0973 8.27759 25.4642 8.84506 25.7013 9.46993C25.9383 10.0948 26.0401 10.7629 25.9998 11.43V17.43C26.0401 18.0971 25.9383 18.7651 25.7013 19.39C25.4642 20.0149 25.0973 20.5823 24.6247 21.0549C24.1522 21.5275 23.5847 21.8944 22.9598 22.1314C22.335 22.3685 21.6669 22.4702 20.9998 22.43Z" fill="#15D1C1"/>
<path d="M15.9998 16.1099C15.8013 16.1086 15.6113 16.0291 15.471 15.8887C15.3306 15.7484 15.2512 15.5584 15.2498 15.3599V15.1499C15.2617 14.7519 15.3756 14.3636 15.5804 14.0222C15.7853 13.6808 16.0743 13.3977 16.4198 13.1999C16.7898 12.9499 16.9098 12.7799 16.9098 12.5199C16.9098 12.4004 16.8863 12.282 16.8406 12.1716C16.7948 12.0612 16.7278 11.9609 16.6433 11.8764C16.5588 11.7919 16.4585 11.7249 16.3481 11.6791C16.2377 11.6334 16.1193 11.6099 15.9998 11.6099C15.8803 11.6099 15.762 11.6334 15.6516 11.6791C15.5412 11.7249 15.4409 11.7919 15.3564 11.8764C15.2719 11.9609 15.2048 12.0612 15.1591 12.1716C15.1134 12.282 15.0898 12.4004 15.0898 12.5199C15.0885 12.7184 15.0091 12.9084 14.8687 13.0487C14.7284 13.1891 14.5384 13.2686 14.3398 13.2699C14.1413 13.2686 13.9513 13.1891 13.811 13.0487C13.6706 12.9084 13.5912 12.7184 13.5898 12.5199C13.5898 11.8807 13.8438 11.2677 14.2957 10.8157C14.7477 10.3638 15.3607 10.1099 15.9998 10.1099C16.639 10.1099 17.252 10.3638 17.704 10.8157C18.1559 11.2677 18.4098 11.8807 18.4098 12.5199C18.3981 12.9115 18.2862 13.2935 18.0849 13.6296C17.8836 13.9657 17.5995 14.2447 17.2598 14.4399C16.8698 14.6999 16.7498 14.8699 16.7498 15.1499V15.3599C16.75 15.4584 16.7307 15.556 16.693 15.647C16.6554 15.7381 16.6001 15.8208 16.5305 15.8905C16.4608 15.9602 16.3781 16.0154 16.287 16.053C16.196 16.0907 16.0984 16.11 15.9998 16.1099Z" fill="#15D1C1"/>
<path d="M16 18.6001C15.8517 18.6001 15.7067 18.5561 15.5833 18.4737C15.46 18.3913 15.3639 18.2742 15.3071 18.1371C15.2503 18.0001 15.2355 17.8493 15.2644 17.7038C15.2934 17.5583 15.3648 17.4247 15.4697 17.3198C15.5746 17.2149 15.7082 17.1434 15.8537 17.1145C15.9992 17.0856 16.15 17.1004 16.287 17.1572C16.4241 17.214 16.5412 17.3101 16.6236 17.4334C16.706 17.5568 16.75 17.7018 16.75 17.8501C16.7501 17.9486 16.7308 18.0462 16.6932 18.1373C16.6555 18.2283 16.6003 18.3111 16.5306 18.3807C16.461 18.4504 16.3782 18.5056 16.2872 18.5433C16.1961 18.5809 16.0985 18.6002 16 18.6001Z" fill="#15D1C1"/>
</svg>
