<svg width="102" height="78" viewBox="0 0 102 78" fill="none" xmlns="http://www.w3.org/2000/svg">
    <g clip-path="url(#clip0_568_15617)">
    <path d="M46.8002 62.13C44.4702 61.4 42.0902 60.86 39.6502 60.64C33.1902 60.06 26.7602 61.78 20.2902 61.98C14.6002 62.16 6.54016 60.73 3.58016 55.25C0.560158 49.63 1.27016 41.34 4.11016 35.86C5.87016 32.45 8.59016 29.35 9.07016 25.56C9.54016 21.93 7.86016 18.22 8.62016 14.63C9.53016 10.35 13.8602 7.36998 18.2702 6.69998C25.1702 5.65998 31.3102 9.19998 37.3902 11.92C43.3302 14.58 50.2402 16.39 56.6902 14.69C59.8802 13.85 62.8202 12.33 65.6202 10.66C71.4002 7.21998 79.4202 6.93998 85.9402 8.44998C96.2702 10.85 103.25 20.15 101.81 30.58C101.31 34.21 99.7802 37.7 97.4702 40.59C95.0302 43.65 92.9302 46.31 92.4602 50.37C92.1702 52.87 93.5102 54.51 93.6802 56.73C93.9802 60.67 89.7602 65.95 86.7202 68.15C82.2902 71.37 76.3202 71.95 70.8802 70.99C65.4502 70.03 60.3902 67.68 55.3502 65.47C52.5502 64.24 49.7002 63.03 46.7702 62.12H46.7902L46.8002 62.13Z" fill="#DFF2F8"/>
    <path d="M99.81 28.68C99.74 28.68 99.68 28.63 99.67 28.55C98.85 22.03 95.38 17.79 92.63 15.38C89.63 12.77 86.79 11.68 86.76 11.66C86.69 11.63 86.65 11.55 86.68 11.48C86.71 11.4 86.79 11.37 86.86 11.4C86.89 11.4 89.77 12.51 92.81 15.16C95.61 17.6 99.12 21.91 99.95 28.52C99.95 28.6 99.91 28.66 99.83 28.68H99.81Z" fill="#96DFE9"/>
    <path d="M97.4501 19.3599C97.4001 19.3599 97.3601 19.3299 97.3301 19.2899C92.4401 11.2599 83.5001 9.45995 83.4101 9.44995C83.3301 9.42995 83.2801 9.36995 83.3001 9.28995C83.3201 9.20995 83.3801 9.15995 83.4601 9.17995C83.5501 9.19995 92.6101 11.0199 97.5601 19.1499C97.6001 19.2199 97.5801 19.2999 97.5101 19.3499C97.4801 19.3699 97.4601 19.3699 97.4301 19.3699L97.4501 19.3599Z" fill="#96DFE9"/>
    <path d="M8.12004 61.14C8.12004 61.14 8.07004 61.14 8.04004 61.12C2.04004 57.67 0.670038 51.94 0.580038 47.73C0.480038 43.19 1.82004 39.41 1.83004 39.37C1.85004 39.29 1.94004 39.26 2.01004 39.29C2.08004 39.31 2.12004 39.4 2.09004 39.47C2.07004 39.5 0.760038 43.24 0.850038 47.74C0.910038 50.37 1.44004 52.74 2.41004 54.78C3.63004 57.33 5.57004 59.38 8.16004 60.87C8.23004 60.91 8.25004 60.99 8.21004 61.06C8.19004 61.1 8.14004 61.13 8.09004 61.13H8.11004L8.12004 61.14Z" fill="#96DFE9"/>
    <path d="M76.4201 0.130005H35.9001C34.6401 0.130005 33.4201 0.660005 32.5701 1.6C31.6001 2.5 31.0901 3.78 31.1401 5.1L32.0001 23.74V73.72C32.0001 75.99 33.8401 77.83 36.1101 77.83H75.7501C78.1001 77.73 79.9901 75.84 80.0901 73.49V23.5L80.9501 4.86C81.0701 2.37 79.1301 0.240005 76.6401 0.130005H76.4201Z" fill="white"/>
    <path opacity="0.2" d="M78.65 0.709961C79.27 1.54996 79.59 2.57996 79.54 3.60996L78.68 22.25V72.23C78.58 74.58 76.69 76.47 74.34 76.57H34.71C34.03 76.57 33.36 76.4 32.76 76.08C33.52 77.17 34.78 77.81 36.11 77.81H75.75C78.1 77.71 79.99 75.82 80.09 73.46V23.5L80.95 4.85996C81.03 3.14996 80.14 1.54996 78.66 0.709961H78.65Z" fill="black"/>
    <path d="M36.1102 77.93C33.7902 77.93 31.8802 76.04 31.8802 73.7V23.72L31.0302 5.09C30.9702 3.73 31.5102 2.43 32.4902 1.5C33.3602 0.55 34.6002 0 35.9002 0H76.6402C79.1902 0.12 81.1802 2.3 81.0602 4.85L80.2002 23.49V73.46C80.1002 75.89 78.1802 77.81 75.7502 77.91H36.1102V77.93ZM35.9002 0.25C34.6702 0.25 33.4902 0.77 32.6602 1.68C31.7102 2.56 31.2102 3.81 31.2702 5.09L32.1202 23.73V73.72C32.1202 75.92 33.9102 77.71 36.1102 77.71H75.7502C78.0602 77.61 79.8702 75.79 79.9802 73.48V23.52L80.8402 4.88C80.9502 2.45 79.0702 0.38 76.6402 0.26H35.9102V0.24L35.9002 0.25Z" fill="#263238"/>
    <path d="M77.8902 22.93L78.6802 5.54001C78.7502 4.01001 77.5702 2.71001 76.0302 2.64001H36.4302C34.8902 2.64001 33.6602 3.88001 33.6602 5.41001V5.54001L34.4402 22.93H77.8902Z" fill="#F9E6B4"/>
    <path d="M78 23.05H34.33L33.54 5.55002V5.41002C33.54 3.81002 34.84 2.52002 36.43 2.52002H76.04C77.64 2.60002 78.87 3.95002 78.8 5.54002L78.01 23.04L78 23.05ZM34.54 22.82H77.77L78.55 5.54002C78.62 4.07002 77.48 2.83002 76.01 2.77002H36.42C35.71 2.77002 35.05 3.05002 34.54 3.55002C34.04 4.05002 33.76 4.72002 33.76 5.43002V5.55002L34.54 22.83V22.82Z" fill="#263238"/>
    <path d="M76.15 5.88H35.98V20.74H76.15V5.88Z" fill="#999999"/>
    <path d="M74.17 8.05005H37.97V18.57H74.17V8.05005Z" fill="white"/>
    <path d="M55.17 34.52H37.22C36.52 34.52 35.95 33.95 35.95 33.25V29.62C35.95 28.92 36.52 28.35 37.22 28.35H55.17C55.87 28.35 56.44 28.92 56.44 29.62V33.25C56.44 33.95 55.87 34.52 55.17 34.52ZM37.22 28.57C36.64 28.57 36.18 29.04 36.18 29.61V33.24C36.18 33.82 36.65 34.28 37.22 34.28H55.17C55.75 34.28 56.21 33.81 56.21 33.24V29.61C56.21 29.03 55.74 28.57 55.17 28.57H37.22Z" fill="#D9D9D9"/>
    <path d="M67.62 31.72H62.56C61.96 31.72 61.48 32.2 61.48 32.8V35.31C61.48 35.91 61.96 36.39 62.56 36.39H67.62C68.22 36.39 68.7 35.91 68.7 35.31V32.8C68.7 32.2 68.22 31.72 67.62 31.72Z" fill="#D9D9D9"/>
    <path d="M42.3199 38.16H37.2599C36.6599 38.16 36.1799 38.64 36.1799 39.24V42.58C36.1799 43.18 36.6599 43.66 37.2599 43.66H42.3199C42.9199 43.66 43.3999 43.18 43.3999 42.58V39.24C43.3999 38.64 42.9199 38.16 42.3199 38.16Z" fill="#D9D9D9"/>
    <path d="M50.7701 38.16H45.7101C45.1101 38.16 44.6301 38.64 44.6301 39.24V42.58C44.6301 43.18 45.1101 43.66 45.7101 43.66H50.7701C51.3701 43.66 51.8501 43.18 51.8501 42.58V39.24C51.8501 38.64 51.3701 38.16 50.7701 38.16Z" fill="#D9D9D9"/>
    <path d="M54.1601 38.16H59.2201C59.8101 38.16 60.3001 38.64 60.3001 39.24V42.58C60.3001 43.17 59.8201 43.66 59.2201 43.66H54.1601C53.5701 43.66 53.0801 43.18 53.0801 42.58V39.24C53.0801 38.65 53.5601 38.16 54.1601 38.16Z" fill="#D9D9D9"/>
    <path d="M67.67 38.16H62.61C62.01 38.16 61.53 38.64 61.53 39.24V42.58C61.53 43.18 62.01 43.66 62.61 43.66H67.67C68.27 43.66 68.75 43.18 68.75 42.58V39.24C68.75 38.64 68.27 38.16 67.67 38.16Z" fill="#D9D9D9"/>
    <path d="M76.13 38.16H71.07C70.47 38.16 69.99 38.64 69.99 39.24V42.58C69.99 43.18 70.47 43.66 71.07 43.66H76.13C76.73 43.66 77.21 43.18 77.21 42.58V39.24C77.21 38.64 76.73 38.16 76.13 38.16Z" fill="#D9D9D9"/>
    <path d="M42.3199 45.5601H37.2599C36.6599 45.5601 36.1799 46.0401 36.1799 46.6401V49.9801C36.1799 50.5801 36.6599 51.0601 37.2599 51.0601H42.3199C42.9199 51.0601 43.3999 50.5801 43.3999 49.9801V46.6401C43.3999 46.0401 42.9199 45.5601 42.3199 45.5601Z" fill="#D9D9D9"/>
    <path d="M50.7701 45.5601H45.7101C45.1101 45.5601 44.6301 46.0401 44.6301 46.6401V49.9801C44.6301 50.5801 45.1101 51.0601 45.7101 51.0601H50.7701C51.3701 51.0601 51.8501 50.5801 51.8501 49.9801V46.6401C51.8501 46.0401 51.3701 45.5601 50.7701 45.5601Z" fill="#999999"/>
    <path d="M54.1601 45.5601H59.2201C59.8101 45.5601 60.3001 46.0401 60.3001 46.6401V49.9801C60.3001 50.5701 59.8201 51.0601 59.2201 51.0601H54.1601C53.5701 51.0601 53.0801 50.5801 53.0801 49.9801V46.6301C53.0801 46.0401 53.5601 45.5601 54.1601 45.5601Z" fill="#999999"/>
    <path d="M67.67 45.5601H62.61C62.01 45.5601 61.53 46.0401 61.53 46.6401V49.9801C61.53 50.5801 62.01 51.0601 62.61 51.0601H67.67C68.27 51.0601 68.75 50.5801 68.75 49.9801V46.6401C68.75 46.0401 68.27 45.5601 67.67 45.5601Z" fill="#999999"/>
    <path d="M76.13 45.5601H71.07C70.47 45.5601 69.99 46.0401 69.99 46.6401V49.9801C69.99 50.5801 70.47 51.0601 71.07 51.0601H76.13C76.73 51.0601 77.21 50.5801 77.21 49.9801V46.6401C77.21 46.0401 76.73 45.5601 76.13 45.5601Z" fill="#D9D9D9"/>
    <path d="M42.3199 52.95H37.2599C36.6599 52.95 36.1799 53.4299 36.1799 54.0299V57.3699C36.1799 57.9699 36.6599 58.45 37.2599 58.45H42.3199C42.9199 58.45 43.3999 57.9699 43.3999 57.3699V54.0299C43.3999 53.4299 42.9199 52.95 42.3199 52.95Z" fill="#D9D9D9"/>
    <path d="M50.7701 52.95H45.7101C45.1101 52.95 44.6301 53.4299 44.6301 54.0299V57.3699C44.6301 57.9699 45.1101 58.45 45.7101 58.45H50.7701C51.3701 58.45 51.8501 57.9699 51.8501 57.3699V54.0299C51.8501 53.4299 51.3701 52.95 50.7701 52.95Z" fill="#999999"/>
    <path d="M54.1601 52.95H59.2201C59.8101 52.95 60.3001 53.4299 60.3001 54.0299V57.3699C60.3001 57.9599 59.8201 58.45 59.2201 58.45H54.1601C53.5701 58.45 53.0801 57.9699 53.0801 57.3699V54.0299C53.0801 53.4399 53.5601 52.95 54.1601 52.95Z" fill="#999999"/>
    <path d="M67.67 52.95H62.61C62.01 52.95 61.53 53.4299 61.53 54.0299V57.3699C61.53 57.9699 62.01 58.45 62.61 58.45H67.67C68.27 58.45 68.75 57.9699 68.75 57.3699V54.0299C68.75 53.4299 68.27 52.95 67.67 52.95Z" fill="#999999"/>
    <path d="M76.13 52.95H71.07C70.47 52.95 69.99 53.4299 69.99 54.0299V57.3699C69.99 57.9699 70.47 58.45 71.07 58.45H76.13C76.73 58.45 77.21 57.9699 77.21 57.3699V54.0299C77.21 53.4299 76.73 52.95 76.13 52.95Z" fill="#D9D9D9"/>
    <path d="M42.3199 60.34H37.2599C36.6599 60.34 36.1799 60.82 36.1799 61.42V64.76C36.1799 65.36 36.6599 65.84 37.2599 65.84H42.3199C42.9199 65.84 43.3999 65.36 43.3999 64.76V61.42C43.3999 60.82 42.9199 60.34 42.3199 60.34Z" fill="#FF5100"/>
    <path d="M50.7701 60.34H45.7101C45.1101 60.34 44.6301 60.82 44.6301 61.42V64.76C44.6301 65.36 45.1101 65.84 45.7101 65.84H50.7701C51.3701 65.84 51.8501 65.36 51.8501 64.76V61.42C51.8501 60.82 51.3701 60.34 50.7701 60.34Z" fill="#999999"/>
    <path d="M54.1601 60.34H59.2201C59.8101 60.34 60.3001 60.82 60.3001 61.42V64.76C60.3001 65.35 59.8201 65.84 59.2201 65.84H54.1601C53.5701 65.84 53.0801 65.36 53.0801 64.76V61.41C53.0801 60.82 53.5601 60.34 54.1601 60.34Z" fill="#999999"/>
    <path d="M67.67 60.34H62.61C62.01 60.34 61.53 60.82 61.53 61.42V64.76C61.53 65.36 62.01 65.84 62.61 65.84H67.67C68.27 65.84 68.75 65.36 68.75 64.76V61.42C68.75 60.82 68.27 60.34 67.67 60.34Z" fill="#999999"/>
    <path d="M42.3199 67.73H37.2599C36.6599 67.73 36.1799 68.21 36.1799 68.81V72.15C36.1799 72.75 36.6599 73.23 37.2599 73.23H42.3199C42.9199 73.23 43.3999 72.75 43.3999 72.15V68.81C43.3999 68.21 42.9199 67.73 42.3199 67.73Z" fill="#FF5100"/>
    <path d="M50.7701 67.73H45.7101C45.1101 67.73 44.6301 68.21 44.6301 68.81V72.15C44.6301 72.75 45.1101 73.23 45.7101 73.23H50.7701C51.3701 73.23 51.8501 72.75 51.8501 72.15V68.81C51.8501 68.21 51.3701 67.73 50.7701 67.73Z" fill="#999999"/>
    <path d="M54.1601 67.73H59.2201C59.8101 67.73 60.3001 68.21 60.3001 68.81V72.15C60.3001 72.74 59.8201 73.23 59.2201 73.23H54.1601C53.5701 73.23 53.0801 72.75 53.0801 72.15V68.81C53.0801 68.22 53.5601 67.73 54.1601 67.73Z" fill="#999999"/>
    <path d="M67.67 67.73H62.61C62.01 67.73 61.53 68.21 61.53 68.81V72.15C61.53 72.75 62.01 73.23 62.61 73.23H67.67C68.27 73.23 68.75 72.75 68.75 72.15V68.81C68.75 68.21 68.27 67.73 67.67 67.73Z" fill="#D9D9D9"/>
    <path d="M76.1 60.34H71.08C70.48 60.34 69.99 60.83 69.99 61.43V72.12C69.99 72.72 70.48 73.21 71.08 73.21H76.1C76.7 73.21 77.19 72.73 77.19 72.12V61.42C77.19 60.82 76.7 60.33 76.1 60.33V60.34Z" fill="#D9D9D9"/>
    <path d="M76.13 31.72H71.07C70.47 31.72 69.99 32.2 69.99 32.8V35.31C69.99 35.91 70.47 36.39 71.07 36.39H76.13C76.73 36.39 77.21 35.91 77.21 35.31V32.8C77.21 32.2 76.73 31.72 76.13 31.72Z" fill="#FF5100"/>
    <path d="M63.9002 16.9001H47.3702C45.8802 16.9001 44.6602 15.4201 44.6602 13.6201V13.5901C44.6602 11.7701 45.8702 10.3101 47.3702 10.3101H63.9002C65.3902 10.3101 66.6102 11.7901 66.6102 13.5901V13.6201C66.6102 15.4401 65.4002 16.9001 63.9002 16.9001ZM47.3702 10.5001C45.9602 10.5001 44.8202 11.8801 44.8202 13.5901V13.6201C44.8202 15.3301 45.9702 16.7101 47.3702 16.7101H63.9002C65.3102 16.7101 66.4502 15.3301 66.4502 13.6201V13.5901C66.4502 11.8801 65.3002 10.5001 63.9002 10.5001H47.3702Z" fill="#06302F"/>
    <path d="M49.0901 14.9L49.2701 14.76C49.2701 14.76 49.2901 14.74 49.3001 14.73C49.3001 14.73 49.3001 14.7 49.3201 14.69V14.65C49.3201 14.65 49.3201 14.62 49.3001 14.61L49.0001 14.13C49.0001 14.13 48.9801 14.1 48.9801 14.09C48.9801 14.08 48.9801 14.06 48.9801 14.05C48.9801 14.03 49.0001 14.02 49.0101 14.02C49.0101 14.02 49.0401 14.02 49.0501 14.02H49.5801C49.5801 14.02 49.6101 14.02 49.6201 14.02C49.6201 14.02 49.6501 14 49.6501 13.99C49.6501 13.99 49.6701 13.96 49.6801 13.96V13.67C49.6801 13.67 49.6801 13.61 49.6501 13.59C49.6301 13.57 49.6101 13.56 49.5801 13.56H49.0501C49.0501 13.56 49.0201 13.56 49.0101 13.56C49.0101 13.56 48.9801 13.54 48.9801 13.53C48.9801 13.52 48.9801 13.5 48.9801 13.49C48.9801 13.47 48.9801 13.46 49.0001 13.45L49.3001 12.97C49.3001 12.97 49.3201 12.94 49.3201 12.93V12.89C49.3201 12.89 49.3201 12.86 49.3001 12.85C49.3001 12.83 49.2801 12.82 49.2701 12.82L49.0901 12.68L49.0601 12.66H49.0201C49.0201 12.66 48.9901 12.66 48.9901 12.68C48.9901 12.68 48.9701 12.7 48.9601 12.71L48.5201 13.42L48.0801 12.71C48.0801 12.71 48.0601 12.68 48.0501 12.68L48.0201 12.66H47.9801C47.9801 12.66 47.9501 12.66 47.9501 12.68L47.7701 12.82C47.7701 12.82 47.7501 12.84 47.7401 12.85C47.7401 12.85 47.7401 12.88 47.7201 12.89V12.93C47.7201 12.93 47.7201 12.96 47.7401 12.97L48.0401 13.45C48.0401 13.45 48.0601 13.48 48.0601 13.49C48.0601 13.5 48.0601 13.52 48.0601 13.53C48.0601 13.55 48.0401 13.56 48.0301 13.56C48.0301 13.56 48.0001 13.56 47.9901 13.56H47.4601C47.4601 13.56 47.4101 13.56 47.3901 13.59C47.3701 13.61 47.3601 13.64 47.3601 13.67V13.92C47.3601 13.92 47.3601 13.98 47.3901 14C47.4101 14.02 47.4301 14.03 47.4601 14.03H47.9901C47.9901 14.03 48.0201 14.03 48.0301 14.05C48.0501 14.07 48.0601 14.07 48.0601 14.08C48.0601 14.09 48.0601 14.11 48.0601 14.12C48.0601 14.13 48.0601 14.15 48.0401 14.16L47.7401 14.64C47.7401 14.64 47.7201 14.67 47.7201 14.68V14.72C47.7201 14.72 47.7201 14.75 47.7401 14.76C47.7401 14.76 47.7601 14.79 47.7701 14.79L47.9501 14.93L47.9801 14.95H48.0201C48.0201 14.95 48.0501 14.95 48.0501 14.93C48.0501 14.93 48.0701 14.91 48.0801 14.9L48.5201 14.19L48.9601 14.9C48.9601 14.9 48.9801 14.93 48.9901 14.93L49.0201 14.95H49.0601C49.0601 14.95 49.0901 14.95 49.0901 14.93" fill="#FF5100"/>
    <path d="M53.78 14.9L53.96 14.76C53.96 14.76 53.98 14.74 53.99 14.73C53.99 14.73 53.99 14.7 54.01 14.69V14.65C54.01 14.65 54.01 14.62 53.99 14.61L53.69 14.13C53.69 14.13 53.67 14.1 53.67 14.09C53.67 14.08 53.67 14.06 53.67 14.05C53.67 14.03 53.69 14.02 53.7 14.02C53.7 14.02 53.73 14.02 53.74 14.02H54.27C54.27 14.02 54.3 14.02 54.31 14.02C54.31 14.02 54.34 14 54.34 13.99C54.34 13.99 54.36 13.96 54.37 13.96V13.67C54.37 13.67 54.37 13.61 54.34 13.59C54.32 13.57 54.3 13.56 54.27 13.56H53.74C53.74 13.56 53.71 13.56 53.7 13.56C53.7 13.56 53.67 13.54 53.67 13.53C53.67 13.52 53.67 13.5 53.67 13.49C53.67 13.47 53.67 13.46 53.69 13.45L53.99 12.97C53.99 12.97 54.01 12.94 54.01 12.93V12.89C54.01 12.89 54.01 12.86 53.99 12.85C53.99 12.83 53.97 12.82 53.96 12.82L53.78 12.68L53.75 12.66H53.71C53.71 12.66 53.68 12.66 53.68 12.68C53.68 12.68 53.66 12.7 53.65 12.71L53.21 13.42L52.77 12.71C52.77 12.71 52.75 12.68 52.74 12.68L52.71 12.66H52.67C52.67 12.66 52.64 12.66 52.64 12.68L52.46 12.82C52.46 12.82 52.44 12.84 52.43 12.85C52.43 12.85 52.43 12.88 52.41 12.89V12.93C52.41 12.93 52.41 12.96 52.43 12.97L52.73 13.45C52.73 13.45 52.75 13.48 52.75 13.49C52.75 13.5 52.75 13.52 52.75 13.53C52.75 13.55 52.73 13.56 52.72 13.56C52.72 13.56 52.69 13.56 52.68 13.56H52.15C52.15 13.56 52.1 13.56 52.08 13.59C52.06 13.61 52.05 13.64 52.05 13.67V13.92C52.05 13.92 52.05 13.98 52.08 14C52.1 14.02 52.12 14.03 52.15 14.03H52.68C52.68 14.03 52.71 14.03 52.72 14.05C52.74 14.07 52.75 14.07 52.75 14.08C52.75 14.09 52.75 14.11 52.75 14.12C52.75 14.13 52.75 14.15 52.73 14.16L52.43 14.64C52.43 14.64 52.41 14.67 52.41 14.68V14.72C52.41 14.72 52.41 14.75 52.43 14.76C52.43 14.76 52.45 14.79 52.46 14.79L52.64 14.93L52.67 14.95H52.71C52.71 14.95 52.74 14.95 52.74 14.93C52.74 14.93 52.76 14.91 52.77 14.9L53.21 14.19L53.65 14.9C53.65 14.9 53.67 14.93 53.68 14.93L53.71 14.95H53.75C53.75 14.95 53.78 14.95 53.78 14.93" fill="#FF5100"/>
    <path d="M58.48 14.9L58.66 14.76C58.66 14.76 58.68 14.74 58.69 14.73C58.69 14.73 58.69 14.7 58.71 14.69V14.65C58.71 14.65 58.71 14.62 58.69 14.61L58.39 14.13C58.39 14.13 58.37 14.1 58.37 14.09C58.37 14.08 58.37 14.06 58.37 14.05C58.37 14.03 58.39 14.02 58.4 14.02C58.4 14.02 58.43 14.02 58.44 14.02H58.97C58.97 14.02 59 14.02 59.01 14.02C59.01 14.02 59.04 14 59.04 13.99C59.04 13.99 59.06 13.96 59.07 13.96V13.67C59.07 13.67 59.07 13.61 59.04 13.59C59.02 13.57 59 13.56 58.97 13.56H58.44C58.44 13.56 58.41 13.56 58.4 13.56C58.4 13.56 58.37 13.54 58.37 13.53C58.37 13.52 58.37 13.5 58.37 13.49C58.37 13.47 58.37 13.46 58.39 13.45L58.69 12.97C58.69 12.97 58.71 12.94 58.71 12.93V12.89C58.71 12.89 58.71 12.86 58.69 12.85C58.69 12.83 58.67 12.82 58.66 12.82L58.48 12.68L58.45 12.66H58.41C58.41 12.66 58.38 12.66 58.38 12.68C58.38 12.68 58.36 12.7 58.35 12.71L57.91 13.42L57.47 12.71C57.47 12.71 57.45 12.68 57.44 12.68L57.41 12.66H57.37C57.37 12.66 57.34 12.66 57.34 12.68L57.16 12.82C57.16 12.82 57.14 12.84 57.13 12.85C57.13 12.85 57.13 12.88 57.11 12.89V12.93C57.11 12.93 57.11 12.96 57.13 12.97L57.43 13.45C57.43 13.45 57.45 13.48 57.45 13.49C57.45 13.5 57.45 13.52 57.45 13.53C57.45 13.55 57.43 13.56 57.42 13.56C57.42 13.56 57.39 13.56 57.38 13.56H56.85C56.85 13.56 56.8 13.56 56.78 13.59C56.76 13.61 56.75 13.64 56.75 13.67V13.92C56.75 13.92 56.75 13.98 56.78 14C56.8 14.02 56.82 14.03 56.85 14.03H57.38C57.38 14.03 57.41 14.03 57.42 14.05C57.44 14.07 57.45 14.07 57.45 14.08C57.45 14.09 57.45 14.11 57.45 14.12C57.45 14.13 57.45 14.15 57.43 14.16L57.13 14.64C57.13 14.64 57.11 14.67 57.11 14.68V14.72C57.11 14.72 57.11 14.75 57.13 14.76C57.13 14.76 57.15 14.79 57.16 14.79L57.34 14.93L57.37 14.95H57.41C57.41 14.95 57.44 14.95 57.44 14.93C57.44 14.93 57.46 14.91 57.47 14.9L57.91 14.19L58.35 14.9C58.35 14.9 58.37 14.93 58.38 14.93L58.41 14.95H58.45C58.45 14.95 58.48 14.95 58.48 14.93" fill="#FF5100"/>
    <path d="M63.18 14.9L63.36 14.76C63.36 14.76 63.38 14.74 63.39 14.73C63.39 14.73 63.39 14.7 63.41 14.69V14.65C63.41 14.65 63.41 14.62 63.39 14.61L63.09 14.13C63.09 14.13 63.07 14.1 63.07 14.09C63.07 14.08 63.07 14.06 63.07 14.05C63.07 14.03 63.09 14.02 63.1 14.02C63.1 14.02 63.13 14.02 63.14 14.02H63.67C63.67 14.02 63.7 14.02 63.71 14.02C63.71 14.02 63.74 14 63.74 13.99C63.74 13.99 63.76 13.96 63.77 13.96V13.67C63.77 13.67 63.77 13.61 63.74 13.59C63.72 13.57 63.7 13.56 63.67 13.56H63.14C63.14 13.56 63.11 13.56 63.1 13.56C63.1 13.56 63.07 13.54 63.07 13.53C63.07 13.52 63.07 13.5 63.07 13.49C63.07 13.47 63.07 13.46 63.09 13.45L63.39 12.97C63.39 12.97 63.41 12.94 63.41 12.93V12.89C63.41 12.89 63.41 12.86 63.39 12.85C63.39 12.83 63.37 12.82 63.36 12.82L63.18 12.68L63.15 12.66H63.11C63.11 12.66 63.08 12.66 63.08 12.68C63.08 12.68 63.06 12.7 63.05 12.71L62.61 13.42L62.17 12.71C62.17 12.71 62.15 12.68 62.14 12.68L62.11 12.66H62.07C62.07 12.66 62.04 12.66 62.04 12.68L61.86 12.82C61.86 12.82 61.84 12.84 61.83 12.85C61.83 12.85 61.83 12.88 61.81 12.89V12.93C61.81 12.93 61.81 12.96 61.83 12.97L62.13 13.45C62.13 13.45 62.15 13.48 62.15 13.49C62.15 13.5 62.15 13.52 62.15 13.53C62.15 13.55 62.13 13.56 62.12 13.56C62.12 13.56 62.09 13.56 62.08 13.56H61.55C61.55 13.56 61.5 13.56 61.48 13.59C61.46 13.61 61.45 13.64 61.45 13.67V13.92C61.45 13.92 61.45 13.98 61.48 14C61.5 14.02 61.52 14.03 61.55 14.03H62.08C62.08 14.03 62.11 14.03 62.12 14.05C62.14 14.07 62.15 14.07 62.15 14.08C62.15 14.09 62.15 14.11 62.15 14.12C62.15 14.13 62.15 14.15 62.13 14.16L61.83 14.64C61.83 14.64 61.81 14.67 61.81 14.68V14.72C61.81 14.72 61.81 14.75 61.83 14.76C61.83 14.76 61.85 14.79 61.86 14.79L62.04 14.93L62.07 14.95H62.11C62.11 14.95 62.14 14.95 62.14 14.93C62.14 14.93 62.16 14.91 62.17 14.9L62.61 14.19L63.05 14.9C63.05 14.9 63.07 14.93 63.08 14.93L63.11 14.95H63.15C63.15 14.95 63.18 14.95 63.18 14.93" fill="#FF5100"/>
    <path d="M43.08 58.72L45.26 57.01C45.4 56.91 45.51 56.77 45.6 56.62C45.68 56.47 45.74 56.3 45.78 56.11C45.81 55.93 45.81 55.75 45.78 55.57C45.75 55.39 45.68 55.22 45.58 55.07L41.89 49.11C41.79 48.95 41.73 48.76 41.72 48.57C41.72 48.37 41.75 48.18 41.83 48.01C41.91 47.84 42.03 47.7 42.18 47.59C42.33 47.49 42.5 47.44 42.67 47.44H49.14C49.3 47.44 49.46 47.41 49.62 47.34C49.77 47.27 49.91 47.17 50.02 47.03C50.14 46.9 50.22 46.75 50.29 46.58C50.35 46.41 50.38 46.23 50.38 46.05V43.05C50.38 42.69 50.25 42.33 50.02 42.07C49.79 41.81 49.48 41.66 49.15 41.66H42.68C42.51 41.66 42.34 41.61 42.19 41.51C42.05 41.41 41.92 41.26 41.84 41.09C41.76 40.92 41.72 40.73 41.73 40.53C41.73 40.33 41.8 40.15 41.9 39.99L45.59 34.03C45.68 33.88 45.75 33.71 45.79 33.53C45.82 33.35 45.82 33.17 45.79 32.99C45.76 32.81 45.71 32.64 45.61 32.48C45.53 32.33 45.41 32.19 45.27 32.09L43.09 30.38C42.95 30.28 42.8 30.2 42.65 30.17C42.49 30.13 42.33 30.13 42.17 30.17C42.01 30.2 41.86 30.27 41.72 30.37C41.58 30.47 41.47 30.6 41.37 30.75L35.96 39.51L30.55 30.75C30.46 30.6 30.34 30.47 30.2 30.37C30.06 30.27 29.91 30.2 29.75 30.17C29.59 30.14 29.43 30.14 29.27 30.17C29.11 30.2 28.96 30.28 28.83 30.38L26.65 32.09C26.51 32.19 26.4 32.33 26.31 32.48C26.23 32.63 26.16 32.8 26.13 32.99C26.1 33.17 26.1 33.35 26.13 33.53C26.16 33.71 26.23 33.88 26.33 34.03L30.02 40C30.12 40.16 30.17 40.35 30.19 40.54C30.19 40.74 30.16 40.93 30.08 41.1C30 41.27 29.88 41.41 29.73 41.52C29.59 41.62 29.41 41.67 29.24 41.67H22.77C22.44 41.67 22.13 41.81 21.9 42.08C21.67 42.35 21.54 42.69 21.54 43.06V46.06C21.54 46.42 21.67 46.78 21.9 47.04C22.13 47.3 22.44 47.45 22.77 47.45H29.24C29.41 47.45 29.59 47.5 29.73 47.6C29.88 47.7 30 47.85 30.08 48.02C30.16 48.19 30.2 48.38 30.19 48.58C30.19 48.78 30.12 48.96 30.02 49.12L26.33 55.09C26.24 55.24 26.17 55.41 26.13 55.59C26.1 55.77 26.1 55.95 26.13 56.13C26.16 56.31 26.22 56.48 26.31 56.64C26.39 56.79 26.51 56.93 26.65 57.03L28.83 58.74C28.97 58.84 29.11 58.92 29.27 58.96C29.43 59 29.59 59 29.75 58.96C29.91 58.93 30.06 58.86 30.2 58.76C30.34 58.66 30.45 58.53 30.55 58.39L35.96 49.63L41.37 58.39C41.46 58.54 41.58 58.67 41.72 58.76C41.86 58.86 42.01 58.93 42.17 58.96C42.33 58.99 42.49 58.99 42.65 58.96C42.81 58.92 42.96 58.85 43.09 58.74" fill="#FF5100"/>
    <path d="M43.08 58.72L45.26 57.01C45.4 56.91 45.51 56.77 45.6 56.62C45.68 56.47 45.74 56.3 45.78 56.11C45.81 55.93 45.81 55.75 45.78 55.57C45.75 55.39 45.68 55.22 45.58 55.07L41.89 49.11C41.79 48.95 41.73 48.76 41.72 48.57C41.72 48.37 41.75 48.18 41.83 48.01C41.91 47.84 42.03 47.7 42.18 47.59C42.33 47.49 42.5 47.44 42.67 47.44H49.14C49.3 47.44 49.46 47.41 49.62 47.34C49.77 47.27 49.91 47.17 50.02 47.03C50.14 46.9 50.22 46.75 50.29 46.58C50.35 46.41 50.38 46.23 50.38 46.05V43.05C50.38 42.69 50.25 42.33 50.02 42.07C49.79 41.81 49.48 41.66 49.15 41.66H42.68C42.51 41.66 42.34 41.61 42.19 41.51C42.05 41.41 41.92 41.26 41.84 41.09C41.76 40.92 41.72 40.73 41.73 40.53C41.73 40.33 41.8 40.15 41.9 39.99L45.59 34.03C45.68 33.88 45.75 33.71 45.79 33.53C45.82 33.35 45.82 33.17 45.79 32.99C45.76 32.81 45.71 32.64 45.61 32.48C45.53 32.33 45.41 32.19 45.27 32.09L43.09 30.38C42.95 30.28 42.8 30.2 42.65 30.17C42.49 30.13 42.33 30.13 42.17 30.17C42.01 30.2 41.86 30.27 41.72 30.37C41.58 30.47 41.47 30.6 41.37 30.75L35.96 39.51L30.55 30.75C30.46 30.6 30.34 30.47 30.2 30.37C30.06 30.27 29.91 30.2 29.75 30.17C29.59 30.14 29.43 30.14 29.27 30.17C29.11 30.2 28.96 30.28 28.83 30.38L26.65 32.09C26.51 32.19 26.4 32.33 26.31 32.48C26.23 32.63 26.16 32.8 26.13 32.99C26.1 33.17 26.1 33.35 26.13 33.53C26.16 33.71 26.23 33.88 26.33 34.03L30.02 40C30.12 40.16 30.17 40.35 30.19 40.54C30.19 40.74 30.16 40.93 30.08 41.1C30 41.27 29.88 41.41 29.73 41.52C29.59 41.62 29.41 41.67 29.24 41.67H22.77C22.44 41.67 22.13 41.81 21.9 42.08C21.67 42.35 21.54 42.69 21.54 43.06V46.06C21.54 46.42 21.67 46.78 21.9 47.04C22.13 47.3 22.44 47.45 22.77 47.45H29.24C29.41 47.45 29.59 47.5 29.73 47.6C29.88 47.7 30 47.85 30.08 48.02C30.16 48.19 30.2 48.38 30.19 48.58C30.19 48.78 30.12 48.96 30.02 49.12L26.33 55.09C26.24 55.24 26.17 55.41 26.13 55.59C26.1 55.77 26.1 55.95 26.13 56.13C26.16 56.31 26.22 56.48 26.31 56.64C26.39 56.79 26.51 56.93 26.65 57.03L28.83 58.74C28.97 58.84 29.11 58.92 29.27 58.96C29.43 59 29.59 59 29.75 58.96C29.91 58.93 30.06 58.86 30.2 58.76C30.34 58.66 30.45 58.53 30.55 58.39L35.96 49.63L41.37 58.39C41.46 58.54 41.58 58.67 41.72 58.76C41.86 58.86 42.01 58.93 42.17 58.96C42.33 58.99 42.49 58.99 42.65 58.96C42.81 58.92 42.96 58.85 43.09 58.74" stroke="#06302F" stroke-width="0.5"/>
    <path d="M43.1501 31.82L44.2301 32.63C44.5901 32.89 44.6701 33.39 44.4401 33.76L42.7301 36.49M29.5701 31.4L33.3901 37.34M22.3601 44.55V45.82C22.3601 46.29 22.7401 46.67 23.2101 46.67H28.7301M30.0001 57.28L33.8201 50.92M49.0901 42.85H43.1501" stroke="white" stroke-width="0.5"/>
    </g>
    <defs>
    <clipPath id="clip0_568_15617">
    <rect width="101.42" height="77.93" fill="white" transform="translate(0.580078)"/>
    </clipPath>
    </defs>
    </svg>
    