<svg width="109" height="80" viewBox="0 0 109 80" fill="none" xmlns="http://www.w3.org/2000/svg">
    <g clip-path="url(#clip0_445_8620)">
    <path d="M38.073 36.0855V26.875C38.073 19.4934 44.0409 13.5132 51.4071 13.5132C58.7733 13.5132 64.7411 19.4934 64.7411 26.875V36.0855H70.525V26.4671C70.525 15.8882 61.964 7.3092 51.4071 7.3092C40.8501 7.3092 32.2891 15.8882 32.2891 26.4671V36.0855H38.073Z" fill="#F4F7F7"/>
    <path d="M71.6287 36.0856H31.1867C28.0486 36.0856 25.5078 38.6316 25.5078 41.7764V70.2237C25.5078 73.3685 28.0486 75.9145 31.1867 75.9145H71.6287C74.7668 75.9145 77.3076 73.3685 77.3076 70.2237V41.7764C77.3076 38.6316 74.7668 36.0856 71.6287 36.0856Z" fill="url(#paint0_linear_445_8620)"/>
    <path d="M57.5519 50.4079C57.5519 47.0066 54.801 44.25 51.4068 44.25C48.0126 44.25 45.2617 47.0066 45.2617 50.4079C45.2617 52.8026 46.6273 54.875 48.6166 55.8947V62.4276C48.6166 63.9737 49.864 65.2237 51.4068 65.2237C52.9496 65.2237 54.197 63.9737 54.197 62.4276V55.8947C56.1863 54.875 57.5519 52.8026 57.5519 50.4079Z" fill="white"/>
    <path d="M98.4104 21.8882H57.3776C55.2307 21.8882 53.4844 23.6316 53.4844 25.7895V38.0198C53.4844 40.1711 55.2242 41.9211 57.3776 41.9211H60.7718C61.6318 41.9211 62.3212 42.6185 62.3212 43.4737V46.3685C62.3212 46.9474 62.958 47.3027 63.4504 47L70.6065 42.5987C71.3287 42.1579 72.1559 41.9211 72.9963 41.9211H98.4038C100.551 41.9211 102.297 40.1777 102.297 38.0198V25.7829C102.304 23.6316 100.564 21.8882 98.4104 21.8882Z" fill="#00C4B3"/>
    <path d="M65.4281 29.1645L62.8611 31.0987L63.0975 27.9276H61.4627L61.6794 31.1052L59.1321 29.2105L58.2852 30.6447L61.3183 32.1381L58.318 33.6579L59.1321 35.1184L61.6991 33.1381L61.4365 36.3684H63.1237L62.8414 33.1381L65.4281 35.1184L66.2685 33.6579L63.2616 32.1184L66.2948 30.6447L65.4281 29.1645Z" fill="white"/>
    <path d="M75.695 29.1645L73.128 31.0987L73.3644 27.9276H71.7296L71.9528 31.1052L69.4055 29.2105L68.5586 30.6447L71.5852 32.1381L68.5849 33.6579L69.3989 35.1184L71.966 33.1381L71.7099 36.3684H73.3906L73.1083 33.1381L75.695 35.1184L76.5419 33.6579L73.5351 32.1184L76.5682 30.6447L75.695 29.1645Z" fill="white"/>
    <path d="M85.9645 29.1645L83.3975 31.0987L83.6405 27.9276H82.0057L82.2224 31.1052L79.675 29.2105L78.8281 30.6447L81.8613 32.1381L78.8544 33.6579L79.675 35.1184L82.2421 33.1381L81.9794 36.3684H83.6667L83.3844 33.1381L85.9645 35.1184L86.8115 33.6579L83.8046 32.1184L86.8377 30.6447L85.9645 29.1645Z" fill="white"/>
    <path d="M97.1073 30.6447L96.2406 29.1645L93.6736 31.0987L93.91 27.9276H92.2752L92.4919 31.1052L89.9446 29.2105L89.0977 30.6447L92.1308 32.1381L89.1305 33.6579L89.9446 35.1184L92.5116 33.1381L92.249 36.3684H93.9362L93.6539 33.1381L96.2406 35.1184L97.081 33.6579L94.0741 32.1184L97.1073 30.6447Z" fill="white"/>
    </g>
    <defs>
    <linearGradient id="paint0_linear_445_8620" x1="51.4073" y1="75.9098" x2="51.4073" y2="36.0867" gradientUnits="userSpaceOnUse">
    <stop stop-color="#FF5100"/>
    <stop offset="0.6462" stop-color="#FF793B"/>
    <stop offset="1" stop-color="#FF8B56"/>
    </linearGradient>
    <clipPath id="clip0_445_8620">
    <rect width="107.407" height="80" fill="white" transform="translate(0.796875)"/>
    </clipPath>
    </defs>
    </svg>
    