<svg width="109" height="80" viewBox="0 0 109 80" fill="none" xmlns="http://www.w3.org/2000/svg">
    <g clip-path="url(#clip0_1_7510)">
    <path d="M38.0735 36.0855V26.875C38.0735 19.4934 44.0413 13.5132 51.4075 13.5132C58.7738 13.5132 64.7416 19.4934 64.7416 26.875V36.0855H70.5255V26.4671C70.5255 15.8882 61.9645 7.3092 51.4075 7.3092C40.8506 7.3092 32.2896 15.8882 32.2896 26.4671V36.0855H38.0735Z" fill="url(#paint0_linear_1_7510)"/>
    <path d="M71.6287 36.0856H31.1867C28.0486 36.0856 25.5078 38.6316 25.5078 41.7764V70.2237C25.5078 73.3685 28.0486 75.9145 31.1867 75.9145H71.6287C74.7668 75.9145 77.3076 73.3685 77.3076 70.2237V41.7764C77.3076 38.6316 74.7668 36.0856 71.6287 36.0856Z" fill="url(#paint1_linear_1_7510)"/>
    <path d="M57.5528 50.4079C57.5528 47.0066 54.802 44.25 51.4078 44.25C48.0135 44.25 45.2627 47.0066 45.2627 50.4079C45.2627 52.8026 46.6283 54.875 48.6175 55.8947V62.4276C48.6175 63.9737 49.8649 65.2237 51.4078 65.2237C52.9506 65.2237 54.198 63.9737 54.198 62.4276V55.8947C56.1873 54.875 57.5528 52.8026 57.5528 50.4079Z" fill="white"/>
    <path d="M98.4084 21.8882H57.3756C55.2288 21.8882 53.4824 23.6316 53.4824 25.7895V38.0198C53.4824 40.1711 55.2222 41.9211 57.3756 41.9211H60.7698C61.6299 41.9211 62.3192 42.6185 62.3192 43.4737V46.3685C62.3192 46.9474 62.9561 47.3027 63.4485 47L70.6046 42.5987C71.3268 42.1579 72.154 41.9211 72.9943 41.9211H98.4018C100.549 41.9211 102.295 40.1777 102.295 38.0198V25.7829C102.302 23.6316 100.562 21.8882 98.4084 21.8882Z" fill="#00C4B3"/>
    <path d="M65.4247 29.1645L62.8577 31.0987L63.0941 27.9276H61.4593L61.676 31.1052L59.1287 29.2105L58.2817 30.6447L61.3149 32.1381L58.3146 33.6579L59.1287 35.1184L61.6957 33.1381L61.4331 36.3684H63.1203L62.838 33.1381L65.4247 35.1184L66.2651 33.6579L63.2582 32.1184L66.2913 30.6447L65.4247 29.1645Z" fill="white"/>
    <path d="M75.6926 29.1645L73.1256 31.0987L73.3619 27.9276H71.7272L71.9504 31.1052L69.4031 29.2105L68.5562 30.6447L71.5827 32.1381L68.5824 33.6579L69.3965 35.1184L71.9635 33.1381L71.7075 36.3684H73.3882L73.1059 33.1381L75.6926 35.1184L76.5395 33.6579L73.5326 32.1184L76.5658 30.6447L75.6926 29.1645Z" fill="white"/>
    <path d="M85.9606 29.1645L83.3936 31.0987L83.6365 27.9276H82.0018L82.2184 31.1052L79.6711 29.2105L78.8242 30.6447L81.8574 32.1381L78.8505 33.6579L79.6711 35.1184L82.2381 33.1381L81.9755 36.3684H83.6628L83.3805 33.1381L85.9606 35.1184L86.8076 33.6579L83.8007 32.1184L86.8338 30.6447L85.9606 29.1645Z" fill="white"/>
    <path d="M97.1019 30.6447L96.2353 29.1645L93.6683 31.0987L93.9046 27.9276H92.2699L92.4865 31.1052L89.9392 29.2105L89.0923 30.6447L92.1254 32.1381L89.1251 33.6579L89.9392 35.1184L92.5062 33.1381L92.2436 36.3684H93.9309L93.6486 33.1381L96.2353 35.1184L97.0756 33.6579L94.0687 32.1184L97.1019 30.6447Z" fill="white"/>
    </g>
    <defs>
    <linearGradient id="paint0_linear_1_7510" x1="51.5339" y1="7.61784" x2="51.3416" y2="43.3114" gradientUnits="userSpaceOnUse">
    <stop stop-color="#262626"/>
    <stop offset="1" stop-color="#080808"/>
    </linearGradient>
    <linearGradient id="paint1_linear_1_7510" x1="51.4073" y1="75.9098" x2="51.4073" y2="36.0867" gradientUnits="userSpaceOnUse">
    <stop stop-color="#FF5100"/>
    <stop offset="0.6462" stop-color="#FF793B"/>
    <stop offset="1" stop-color="#FF8B56"/>
    </linearGradient>
    <clipPath id="clip0_1_7510">
    <rect width="107.407" height="80" fill="white" transform="translate(0.796387)"/>
    </clipPath>
    </defs>
    </svg>
    