<svg width="32" height="32" viewBox="0 0 32 32" fill="none" xmlns="http://www.w3.org/2000/svg">
<path d="M24 0H8C3.58172 0 0 3.58172 0 8V24C0 28.4183 3.58172 32 8 32H24C28.4183 32 32 28.4183 32 24V8C32 3.58172 28.4183 0 24 0Z" fill="#393D3D"/>
<path d="M13.446 7.49389L16.3521 11.8321L19.3727 7.40015L13.446 7.49389Z" fill="#93D500"/>
<path d="M13.446 25.0343L16.3521 20.696L19.3727 25.128L13.446 25.0343Z" fill="#93D500"/>
<path d="M20.3257 23.3627L21.5392 22.519C21.8517 22.3002 21.9298 21.8732 21.7111 21.5607L19.6591 18.6026C19.4143 18.2536 19.6643 17.7745 20.0914 17.7745H23.6901C24.0703 17.7745 24.3776 17.4672 24.3776 17.087V15.6027C24.3776 15.2226 24.0703 14.9153 23.6901 14.9153H20.0914C19.6643 14.9153 19.4143 14.4362 19.6591 14.0872L21.7111 11.1343C21.9298 10.8218 21.8517 10.3948 21.5392 10.176L20.3257 9.33233C20.0133 9.1136 19.581 9.19172 19.3675 9.5042L16.352 13.8425L13.3366 9.5042C13.1179 9.19172 12.6908 9.1136 12.3784 9.33233L11.1649 10.176C10.8524 10.3948 10.7743 10.8218 10.993 11.1343L13.045 14.0872C13.2897 14.4362 13.0398 14.9153 12.6127 14.9153H9.01399C8.63381 14.9153 8.32654 15.2226 8.32654 15.6027V17.087C8.32654 17.4672 8.63381 17.7745 9.01399 17.7745H12.6127C13.0398 17.7745 13.2897 18.2536 13.045 18.6026L10.993 21.5607C10.7743 21.8732 10.8524 22.3002 11.1649 22.519L12.3784 23.3627C12.6908 23.5814 13.1179 23.5033 13.3366 23.1908L16.352 18.8525L19.3675 23.1908C19.5862 23.5033 20.0133 23.5814 20.3257 23.3627Z" fill="#FF5100"/>
</svg>
