<svg width="32" height="32" viewBox="0 0 32 32" fill="none" xmlns="http://www.w3.org/2000/svg">
<path d="M24 0H8C3.58172 0 0 3.58172 0 8V24C0 28.4183 3.58172 32 8 32H24C28.4183 32 32 28.4183 32 24V8C32 3.58172 28.4183 0 24 0Z" fill="#F4F7F7"/>
<path d="M13.446 7.49389L16.352 11.8321L19.3726 7.40015L13.446 7.49389Z" fill="#93D500"/>
<path d="M13.446 25.0343L16.352 20.696L19.3726 25.128L13.446 25.0343Z" fill="#93D500"/>
<path d="M20.3257 23.3627L21.5391 22.519C21.8516 22.3002 21.9297 21.8732 21.711 21.5607L19.6591 18.6026C19.4143 18.2536 19.6643 17.7745 20.0913 17.7745H23.69C24.0702 17.7745 24.3775 17.4672 24.3775 17.087V15.6027C24.3775 15.2226 24.0702 14.9153 23.69 14.9153H20.0913C19.6643 14.9153 19.4143 14.4362 19.6591 14.0872L21.711 11.1343C21.9297 10.8218 21.8516 10.3948 21.5391 10.176L20.3257 9.33233C20.0132 9.1136 19.5809 9.19172 19.3674 9.5042L16.352 13.8425L13.3366 9.5042C13.1178 9.19172 12.6908 9.1136 12.3783 9.33233L11.1648 10.176C10.8524 10.3948 10.7742 10.8218 10.993 11.1343L13.0449 14.0872C13.2897 14.4362 13.0397 14.9153 12.6127 14.9153H9.01393C8.63375 14.9153 8.32648 15.2226 8.32648 15.6027V17.087C8.32648 17.4672 8.63375 17.7745 9.01393 17.7745H12.6127C13.0397 17.7745 13.2897 18.2536 13.0449 18.6026L10.993 21.5607C10.7742 21.8732 10.8524 22.3002 11.1648 22.519L12.3783 23.3627C12.6908 23.5814 13.1178 23.5033 13.3366 23.1908L16.352 18.8525L19.3674 23.1908C19.5861 23.5033 20.0132 23.5814 20.3257 23.3627Z" fill="#FF5100"/>
</svg>
