<svg width="32" height="32" viewBox="0 0 32 32" fill="none" xmlns="http://www.w3.org/2000/svg">
  <path d="M22 0H10C4.47715 0 0 4.47715 0 10V22C0 27.5228 4.47715 32 10 32H22C27.5228 32 32 27.5228 32 22V10C32 4.47715 27.5228 0 22 0Z" fill="#F4F7F7"/>
  <path opacity="0.4" d="M26.0005 13V20.46C26.0005 22.75 24.1405 24.6 21.8505 24.6H10.1505C7.86049 24.6 6.00049 22.75 6.00049 20.46V13H26.0005Z" fill="#FF5100"/>
  <path d="M26.0005 11.5399V12.9999H6.00049V11.5399C6.00049 9.2499 7.86049 7.3999 10.1505 7.3999H21.8505C24.1405 7.3999 26.0005 9.2499 26.0005 11.5399Z" fill="#FF5100"/>
  <path d="M12.0005 21.25H10.0005C9.59049 21.25 9.25049 20.91 9.25049 20.5C9.25049 20.09 9.59049 19.75 10.0005 19.75H12.0005C12.4105 19.75 12.7505 20.09 12.7505 20.5C12.7505 20.91 12.4105 21.25 12.0005 21.25Z" fill="#FF5100"/>
  <path d="M18.5005 21.25H14.5005C14.0905 21.25 13.7505 20.91 13.7505 20.5C13.7505 20.09 14.0905 19.75 14.5005 19.75H18.5005C18.9105 19.75 19.2505 20.09 19.2505 20.5C19.2505 20.91 18.9105 21.25 18.5005 21.25Z" fill="#FF5100"/>
  </svg>
  