<svg width="82" height="81" viewBox="0 0 82 81" fill="none" xmlns="http://www.w3.org/2000/svg">
<rect x="0.5" width="81" height="81" rx="40.5" fill="#DFF1F0"/>
<path d="M58.15 25.7997H53.838C53.1914 25.8002 52.5511 25.6728 51.954 25.4247C51.3569 25.1766 50.8148 24.8128 50.359 24.3543L47.6394 21.6102C47.4105 21.3832 47.139 21.2036 46.8405 21.0817C46.542 20.9598 46.2224 20.8981 45.9 20.8999H36.1C35.7776 20.898 35.458 20.9598 35.1594 21.0817C34.8609 21.2036 34.5894 21.3832 34.3605 21.6102L31.641 24.3543C31.1852 24.8128 30.6431 25.1766 30.046 25.4247C29.4489 25.6728 28.8086 25.8002 28.162 25.7997H23.85C22.8848 25.7997 21.929 25.9898 21.0373 26.3592C20.1455 26.7286 19.3353 27.2699 18.6528 27.9525C17.9703 28.635 17.4289 29.4452 17.0595 30.337C16.6901 31.2287 16.5 32.1845 16.5 33.1497V52.7497C16.5 53.7149 16.6901 54.6707 17.0595 55.5624C17.4289 56.4542 17.9703 57.2645 18.6528 57.947C19.3353 58.6295 20.1455 59.1709 21.0373 59.5402C21.929 59.9096 22.8848 60.0997 23.85 60.0997H58.15C59.1152 60.0997 60.071 59.9096 60.9627 59.5402C61.8545 59.1709 62.6647 58.6295 63.3472 57.947C64.0298 57.2645 64.5711 56.4542 64.9405 55.5624C65.3099 54.6707 65.5 53.7149 65.5 52.7497V33.1497C65.5 32.1845 65.3099 31.2287 64.9405 30.337C64.5711 29.4452 64.0298 28.635 63.3472 27.9525C62.6647 27.2699 61.8545 26.7286 60.9627 26.3592C60.071 25.9898 59.1152 25.7997 58.15 25.7997Z" fill="#00C4B3"/>
<path d="M58.15 35.5997C57.6654 35.5997 57.1917 35.456 56.7888 35.1868C56.3859 34.9176 56.0719 34.535 55.8865 34.0873C55.701 33.6396 55.6525 33.147 55.747 32.6717C55.8416 32.1965 56.0749 31.7599 56.4176 31.4173C56.7602 31.0747 57.1967 30.8413 57.672 30.7468C58.1472 30.6523 58.6399 30.7008 59.0875 30.8862C59.5352 31.0716 59.9179 31.3857 60.1871 31.7886C60.4563 32.1915 60.6 32.6652 60.6 33.1497C60.5999 33.7995 60.3418 34.4226 59.8824 34.8821C59.4229 35.3416 58.7998 35.5997 58.15 35.5997Z" fill="#F4F7F7"/>
<path d="M41 52.7499C39.0618 52.7499 37.167 52.1751 35.5554 51.0983C33.9439 50.0214 32.6878 48.4909 31.946 46.7002C31.2043 44.9095 31.0103 42.939 31.3884 41.038C31.7665 39.137 32.6999 37.3908 34.0704 36.0203C35.441 34.6497 37.1872 33.7164 39.0882 33.3382C40.9892 32.9601 42.9596 33.1541 44.7503 33.8959C46.5411 34.6376 48.0716 35.8937 49.1484 37.5053C50.2253 39.1168 50.8001 41.0116 50.8001 42.9498C50.8001 44.2368 50.5466 45.5112 50.0541 46.7002C49.5616 47.8892 48.8397 48.9695 47.9297 49.8795C47.0197 50.7895 45.9393 51.5114 44.7503 52.0039C43.5613 52.4964 42.287 52.7499 41 52.7499Z" fill="#F4F7F7"/>
<path d="M40.9999 47.8498C40.0308 47.8498 39.0834 47.5624 38.2777 47.024C37.4719 46.4856 36.8438 45.7203 36.473 44.8249C36.1021 43.9296 36.0051 42.9444 36.1941 41.9939C36.3832 41.0434 36.8499 40.1703 37.5352 39.485C38.2204 38.7997 39.0935 38.333 40.044 38.144C40.9945 37.9549 41.9798 38.0519 42.8751 38.4228C43.7705 38.7937 44.5357 39.4217 45.0742 40.2275C45.6126 41.0333 45.9 41.9807 45.9 42.9498C45.9 43.5933 45.7732 44.2304 45.527 44.8249C45.2807 45.4194 44.9198 45.9596 44.4648 46.4146C44.0098 46.8696 43.4696 47.2306 42.8751 47.4768C42.2806 47.7231 41.6434 47.8498 40.9999 47.8498Z" fill="#24BAAD"/>
</svg>
