<svg width="82" height="81" viewBox="0 0 82 81" fill="none" xmlns="http://www.w3.org/2000/svg">
<rect x="0.5" width="81" height="81" rx="40.5" fill="#282B2B"/>
<g clip-path="url(#clip0_575_3304)">
<path d="M53.5227 39.4792C51.1537 39.4792 48.8379 40.1378 46.8682 41.3717C44.8985 42.6056 43.3633 44.3593 42.4567 46.4112C41.5501 48.4631 41.3129 50.7209 41.7751 52.8991C42.2372 55.0774 43.378 57.0782 45.0531 58.6486C46.7283 60.2191 48.8625 61.2885 51.186 61.7218C53.5094 62.1551 55.9177 61.9327 58.1064 61.0828C60.2951 60.2329 62.1657 58.7936 63.4819 56.947C64.798 55.1004 65.5005 52.9293 65.5005 50.7084C65.4967 47.7313 64.2336 44.8772 61.9881 42.7721C59.7427 40.667 56.6983 39.4828 53.5227 39.4792ZM57.373 52.8736C57.477 52.9678 57.56 53.0804 57.617 53.205C57.6741 53.3295 57.7041 53.4635 57.7054 53.599C57.7067 53.7346 57.6791 53.869 57.6244 53.9944C57.5696 54.1199 57.4887 54.2339 57.3865 54.3297C57.2843 54.4256 57.1627 54.5014 57.0289 54.5527C56.8951 54.604 56.7517 54.6299 56.6071 54.6287C56.4625 54.6275 56.3196 54.5993 56.1868 54.5458C56.0539 54.4923 55.9338 54.4146 55.8333 54.3171L53.5227 52.1519L51.2121 54.3171C51.1116 54.4146 50.9915 54.4923 50.8586 54.5458C50.7258 54.5993 50.5829 54.6275 50.4383 54.6287C50.2937 54.6299 50.1504 54.604 50.0165 54.5527C49.8827 54.5014 49.7611 54.4256 49.6589 54.3297C49.5567 54.2339 49.4758 54.1199 49.4211 53.9944C49.3663 53.869 49.3388 53.7346 49.34 53.599C49.3413 53.4635 49.3713 53.3295 49.4284 53.205C49.4854 53.0804 49.5684 52.9678 49.6724 52.8736L51.983 50.7084L49.6724 48.5432C49.474 48.3507 49.3643 48.0928 49.3668 47.8252C49.3693 47.5575 49.4838 47.3015 49.6857 47.1122C49.8875 46.9229 50.1607 46.8156 50.4462 46.8132C50.7317 46.8109 51.0067 46.9138 51.2121 47.0998L53.5227 49.265L55.8333 47.0998C56.0387 46.9138 56.3137 46.8109 56.5992 46.8132C56.8848 46.8156 57.1579 46.9229 57.3597 47.1122C57.5616 47.3015 57.6762 47.5575 57.6786 47.8252C57.6811 48.0928 57.5714 48.3507 57.373 48.5432L55.0624 50.7084L57.373 52.8736Z" fill="#FF7333"/>
<path d="M55.6999 19.0625H49.1666V32.8846C49.1659 33.3114 49.0225 33.7272 48.7566 34.0736C48.4908 34.4201 48.1158 34.6797 47.6844 34.816C47.253 34.9523 46.7869 34.9585 46.3516 34.8336C45.9163 34.7087 45.5336 34.4591 45.2575 34.1198L45.1377 33.9667C44.6259 33.3338 44.2884 32.9458 43.929 32.9458C43.4608 32.9458 43.0906 33.3644 42.5897 33.9973C42.3777 34.3724 42.0737 34.6948 41.7026 34.9379C41.3315 35.1811 40.904 35.3381 40.4555 35.3958C40.0034 35.3379 39.5696 35.1906 39.1829 34.9635C38.7962 34.7365 38.4653 34.435 38.2124 34.079C37.6679 33.5277 37.1017 32.9458 36.5355 32.9458C36.3722 32.9458 36.1979 32.9969 35.7733 33.64C35.524 34.0171 35.1504 34.3079 34.7091 34.4682C34.2679 34.6285 33.7829 34.6497 33.3276 34.5286C32.8723 34.4075 32.4715 34.1506 32.1859 33.7969C31.9002 33.4431 31.7452 33.0118 31.7444 32.5681V19.0625H25.211C23.7671 19.0625 22.3823 19.6003 21.3612 20.5575C20.3402 21.5147 19.7666 22.813 19.7666 24.1667V54.7917C19.7666 56.1454 20.3402 57.4436 21.3612 58.4009C22.3823 59.3581 23.7671 59.8958 25.211 59.8958H43.3193C40.9171 57.555 39.5146 54.4691 39.3779 51.2233C39.2413 47.9775 40.3798 44.7975 42.5777 42.2864C44.7756 39.7753 47.8799 38.1076 51.3022 37.5996C54.7244 37.0915 58.2265 37.7785 61.1444 39.5302V24.1667C61.1444 23.4964 61.0036 22.8327 60.7299 22.2134C60.4563 21.5941 60.0553 21.0314 59.5497 20.5575C59.0442 20.0835 58.444 19.7075 57.7834 19.451C57.1229 19.1945 56.4149 19.0625 55.6999 19.0625ZM35.011 53.7708H27.3888C27.1 53.7708 26.8231 53.6633 26.6189 53.4718C26.4147 53.2804 26.2999 53.0207 26.2999 52.75C26.2999 52.4793 26.4147 52.2196 26.6189 52.0282C26.8231 51.8367 27.1 51.7292 27.3888 51.7292H35.011C35.2998 51.7292 35.5768 51.8367 35.781 52.0282C35.9852 52.2196 36.0999 52.4793 36.0999 52.75C36.0999 53.0207 35.9852 53.2804 35.781 53.4718C35.5768 53.6633 35.2998 53.7708 35.011 53.7708ZM35.011 49.6875H27.3888C27.1 49.6875 26.8231 49.58 26.6189 49.3885C26.4147 49.1971 26.2999 48.9374 26.2999 48.6667C26.2999 48.3959 26.4147 48.1363 26.6189 47.9448C26.8231 47.7534 27.1 47.6458 27.3888 47.6458H35.011C35.2998 47.6458 35.5768 47.7534 35.781 47.9448C35.9852 48.1363 36.0999 48.3959 36.0999 48.6667C36.0999 48.9374 35.9852 49.1971 35.781 49.3885C35.5768 49.58 35.2998 49.6875 35.011 49.6875Z" fill="#00C4B3"/>
<path d="M33.9219 32.564V32.5804C34.1555 32.1059 34.5218 31.6995 34.9819 31.4044C35.442 31.1092 35.9788 30.9364 36.5352 30.9042C37.1876 30.9671 37.8181 31.1597 38.3848 31.4692C38.9515 31.7786 39.4413 32.1978 39.8215 32.6988C40.0122 32.901 40.2139 33.0939 40.4258 33.2766C40.5543 33.1439 40.7231 32.9336 40.845 32.7794C41.1577 32.255 41.6022 31.81 42.14 31.4832C42.6778 31.1564 43.2926 30.9576 43.9309 30.9042C44.5428 30.9652 45.1298 31.1642 45.6418 31.4842C46.1538 31.8042 46.5755 32.2356 46.8709 32.7417L46.9798 32.8836V19.0625H33.9219V32.564Z" fill="#00C4B3"/>
</g>
<defs>
<clipPath id="clip0_575_3304">
<rect width="49" height="49" fill="white" transform="translate(16.5 16)"/>
</clipPath>
</defs>
</svg>
