<svg width="162" height="128" viewBox="0 0 162 128" fill="none" xmlns="http://www.w3.org/2000/svg">
    <path d="M76.1363 127.735C88.7523 127.76 101.092 124.041 111.594 117.05C122.096 110.059 130.288 100.109 135.133 88.4608C139.978 76.8122 141.258 63.9881 138.812 51.6114C136.366 39.2348 130.304 27.862 121.391 18.9323C112.479 10.0027 101.118 3.91763 88.7465 1.44725C76.3747 -1.02313 63.5481 0.232225 51.89 5.05445C40.2319 9.87667 30.2664 18.049 23.2547 28.5371C16.243 39.0253 12.5003 51.3577 12.5003 63.9738C12.4876 72.3401 14.124 80.6268 17.3159 88.3603C20.5079 96.0937 25.1928 103.122 31.1029 109.044C37.0129 114.966 44.0322 119.664 51.7593 122.871C59.4865 126.078 67.77 127.731 76.1363 127.735Z" fill="#525454"/>
    <path d="M79.6353 127.522C92.2514 127.547 104.591 123.828 115.093 116.837C125.595 109.846 133.787 99.8965 138.632 88.2479C143.477 76.5993 144.757 63.7752 142.311 51.3986C139.865 39.0219 133.803 27.6491 124.89 18.7195C115.978 9.78981 104.617 3.70474 92.2455 1.23435C79.8737 -1.23603 67.0471 0.0193343 55.389 4.84156C43.7309 9.66378 33.7654 17.8361 26.7537 28.3242C19.7421 38.8124 15.9994 51.1449 15.9993 63.7609C15.9866 72.1272 17.623 80.4139 20.8149 88.1474C24.0069 95.8808 28.6918 102.909 34.6019 108.831C40.5119 114.753 47.5312 119.451 55.2584 122.658C62.9855 125.866 71.2691 127.518 79.6353 127.522Z" fill="#525454"/>
    <path d="M6.42729 37.6991C7.14961 37.6981 7.85543 37.483 8.45552 37.0809C9.05562 36.6789 9.52306 36.108 9.79875 35.4403C10.0744 34.7727 10.146 34.0383 10.0044 33.33C9.86281 32.6217 9.51441 31.9712 9.00323 31.4609C8.49205 30.9505 7.84104 30.6032 7.1325 30.4628C6.42396 30.3223 5.68969 30.3951 5.0225 30.6719C4.35531 30.9487 3.78515 31.4171 3.3841 32.0178C2.98304 32.6186 2.76909 33.3247 2.76929 34.0471C2.77455 35.0151 3.16183 35.9418 3.84687 36.6257C4.53191 37.3096 5.4593 37.6954 6.42729 37.6991Z" fill="#525454"/>
    <path d="M2.76929 25.8479C3.26254 25.8469 3.74443 25.6997 4.15407 25.425C4.56371 25.1502 4.88273 24.7602 5.0708 24.3042C5.25887 23.8483 5.30757 23.3468 5.21074 22.8631C5.1139 22.3794 4.87588 21.9353 4.52675 21.5869C4.17762 21.2385 3.73305 21.0014 3.2492 20.9055C2.76536 20.8096 2.26395 20.8593 1.80834 21.0483C1.35273 21.2373 0.963362 21.5571 0.689428 21.9673C0.415495 22.3775 0.26929 22.8597 0.269289 23.3529C0.268892 23.6811 0.333323 24.0061 0.458881 24.3093C0.584439 24.6125 0.768651 24.888 1.00094 25.1198C1.23323 25.3516 1.50903 25.5353 1.81249 25.6602C2.11595 25.7852 2.44111 25.849 2.76929 25.8479Z" fill="#525454"/>
    <path d="M157.102 54.915C158.018 54.914 158.914 54.6412 159.675 54.1312C160.437 53.6212 161.03 52.8968 161.38 52.0497C161.73 51.2026 161.82 50.2707 161.641 49.372C161.461 48.4733 161.019 47.6481 160.37 47.0007C159.721 46.3533 158.895 45.9129 157.996 45.735C157.097 45.5572 156.165 45.65 155.319 46.0016C154.472 46.3533 153.749 46.948 153.241 47.7106C152.733 48.4732 152.462 49.3695 152.463 50.286C152.459 50.8958 152.576 51.5003 152.808 52.0643C153.04 52.6283 153.382 53.1406 153.813 53.5713C154.245 54.0021 154.758 54.3427 155.323 54.5734C155.887 54.804 156.492 54.9202 157.102 54.915Z" fill="#525454"/>
    <g filter="url(#filter0_d_817_7261)">
    <path d="M51.5283 50.0098H143.016C143.915 50.0098 144.776 50.3668 145.412 51.0022C146.047 51.6377 146.404 52.4995 146.404 53.3982V70.3403C146.404 71.239 146.047 72.1009 145.412 72.7363C144.776 73.3718 143.915 73.7288 143.016 73.7288H51.5283C50.6297 73.7288 49.7678 73.3718 49.1323 72.7363C48.4969 72.1009 48.1399 71.239 48.1399 70.3403V53.3982C48.1399 52.4995 48.4969 51.6377 49.1323 51.0022C49.7678 50.3668 50.6297 50.0098 51.5283 50.0098V50.0098Z" fill="white"/>
    </g>
    <g filter="url(#filter1_d_817_7261)">
    <path d="M143.016 50.0098H51.5283C49.6569 50.0098 48.1399 51.5268 48.1399 53.3982V70.3403C48.1399 72.2117 49.6569 73.7288 51.5283 73.7288H143.016C144.887 73.7288 146.404 72.2117 146.404 70.3403V53.3982C146.404 51.5268 144.887 50.0098 143.016 50.0098Z" fill="#1D1F1F"/>
    </g>
    <path d="M100.322 55.4307H82.7022C81.5794 55.4307 80.6692 56.3409 80.6692 57.4637C80.6692 58.5865 81.5794 59.4968 82.7022 59.4968H100.322C101.445 59.4968 102.355 58.5865 102.355 57.4637C102.355 56.3409 101.445 55.4307 100.322 55.4307Z" fill="#525454"/>
    <path d="M112.52 64.2407H82.7022C81.5794 64.2407 80.6692 65.151 80.6692 66.2738C80.6692 67.3966 81.5794 68.3068 82.7022 68.3068H112.52C113.643 68.3068 114.553 67.3966 114.553 66.2738C114.553 65.151 113.643 64.2407 112.52 64.2407Z" fill="#525454"/>
    <path d="M68.8096 68.3062C72.3652 68.3062 75.2476 65.4238 75.2476 61.8682C75.2476 58.3126 72.3652 55.4302 68.8096 55.4302C65.254 55.4302 62.3716 58.3126 62.3716 61.8682C62.3716 65.4238 65.254 68.3062 68.8096 68.3062Z" fill="#525454"/>
    <g filter="url(#filter2_d_817_7261)">
    <path d="M22.3882 79.1499H113.876C114.774 79.1499 115.636 79.5069 116.272 80.1424C116.907 80.7778 117.264 81.6397 117.264 82.5383V99.4805C117.264 100.379 116.907 101.241 116.272 101.876C115.636 102.512 114.774 102.869 113.876 102.869H22.3882C21.4895 102.869 20.6277 102.512 19.9922 101.876C19.3568 101.241 18.9998 100.379 18.9998 99.4805V82.5383C18.9998 81.6397 19.3568 80.7778 19.9922 80.1424C20.6277 79.5069 21.4895 79.1499 22.3882 79.1499V79.1499Z" fill="white"/>
    </g>
    <path d="M72.5364 84.5708H54.9166C53.7938 84.5708 52.8835 85.481 52.8835 86.6039C52.8835 87.7267 53.7938 88.6369 54.9166 88.6369H72.5364C73.6593 88.6369 74.5695 87.7267 74.5695 86.6039C74.5695 85.481 73.6593 84.5708 72.5364 84.5708Z" fill="#B4DAFF"/>
    <path d="M84.7348 93.3809H54.9166C53.7938 93.3809 52.8835 94.2911 52.8835 95.4139C52.8835 96.5367 53.7938 97.447 54.9166 97.447H84.7348C85.8576 97.447 86.7678 96.5367 86.7678 95.4139C86.7678 94.2911 85.8576 93.3809 84.7348 93.3809Z" fill="#DEE9FC"/>
    <g filter="url(#filter3_d_817_7261)">
    <path d="M113.876 79.1494H22.3882C20.5168 79.1494 18.9998 80.6665 18.9998 82.5378V99.48C18.9998 101.351 20.5168 102.868 22.3882 102.868H113.876C115.747 102.868 117.264 101.351 117.264 99.48V82.5378C117.264 80.6665 115.747 79.1494 113.876 79.1494Z" fill="#1D1F1F"/>
    </g>
    <path d="M71.1812 84.5703H53.5614C52.4386 84.5703 51.5283 85.4805 51.5283 86.6034C51.5283 87.7262 52.4386 88.6364 53.5614 88.6364H71.1812C72.304 88.6364 73.2143 87.7262 73.2143 86.6034C73.2143 85.4805 72.304 84.5703 71.1812 84.5703Z" fill="#525454"/>
    <path d="M83.3796 93.3804H53.5614C52.4386 93.3804 51.5283 94.2906 51.5283 95.4134C51.5283 96.5363 52.4386 97.4465 53.5614 97.4465H83.3796C84.5024 97.4465 85.4126 96.5363 85.4126 95.4134C85.4126 94.2906 84.5024 93.3804 83.3796 93.3804Z" fill="#525454"/>
    <path d="M39.6687 97.4459C43.2243 97.4459 46.1067 94.5635 46.1067 91.0078C46.1067 87.4522 43.2243 84.5698 39.6687 84.5698C36.1131 84.5698 33.2307 87.4522 33.2307 91.0078C33.2307 94.5635 36.1131 97.4459 39.6687 97.4459Z" fill="#525454"/>
    <g filter="url(#filter4_d_817_7261)">
    <path d="M113.876 20.8691H22.3882C20.5168 20.8691 18.9998 22.3862 18.9998 24.2576V41.1997C18.9998 43.0711 20.5168 44.5881 22.3882 44.5881H113.876C115.747 44.5881 117.264 43.0711 117.264 41.1997V24.2576C117.264 22.3862 115.747 20.8691 113.876 20.8691Z" fill="#1D1F1F"/>
    </g>
    <path d="M71.1812 26.29H53.5614C52.4386 26.29 51.5283 27.2003 51.5283 28.3231C51.5283 29.4459 52.4386 30.3562 53.5614 30.3562H71.1812C72.304 30.3562 73.2143 29.4459 73.2143 28.3231C73.2143 27.2003 72.304 26.29 71.1812 26.29Z" fill="#525454"/>
    <path d="M83.3796 35.1001H53.5614C52.4386 35.1001 51.5283 36.0103 51.5283 37.1332C51.5283 38.256 52.4386 39.1662 53.5614 39.1662H83.3796C84.5024 39.1662 85.4126 38.256 85.4126 37.1332C85.4126 36.0103 84.5024 35.1001 83.3796 35.1001Z" fill="#525454"/>
    <path d="M39.6687 39.1661C43.2243 39.1661 46.1067 36.2837 46.1067 32.7281C46.1067 29.1724 43.2243 26.29 39.6687 26.29C36.1131 26.29 33.2307 29.1724 33.2307 32.7281C33.2307 36.2837 36.1131 39.1661 39.6687 39.1661Z" fill="#525454"/>
    <defs>
    <filter id="filter0_d_817_7261" x="42.1399" y="47.0098" width="110.264" height="35.7192" filterUnits="userSpaceOnUse" color-interpolation-filters="sRGB">
    <feFlood flood-opacity="0" result="BackgroundImageFix"/>
    <feColorMatrix in="SourceAlpha" type="matrix" values="0 0 0 0 0 0 0 0 0 0 0 0 0 0 0 0 0 0 127 0" result="hardAlpha"/>
    <feOffset dy="3"/>
    <feGaussianBlur stdDeviation="3"/>
    <feColorMatrix type="matrix" values="0 0 0 0 0 0 0 0 0 0 0 0 0 0 0 0 0 0 0.05 0"/>
    <feBlend mode="normal" in2="BackgroundImageFix" result="effect1_dropShadow_817_7261"/>
    <feBlend mode="normal" in="SourceGraphic" in2="effect1_dropShadow_817_7261" result="shape"/>
    </filter>
    <filter id="filter1_d_817_7261" x="42.1399" y="47.0098" width="110.264" height="35.7192" filterUnits="userSpaceOnUse" color-interpolation-filters="sRGB">
    <feFlood flood-opacity="0" result="BackgroundImageFix"/>
    <feColorMatrix in="SourceAlpha" type="matrix" values="0 0 0 0 0 0 0 0 0 0 0 0 0 0 0 0 0 0 127 0" result="hardAlpha"/>
    <feOffset dy="3"/>
    <feGaussianBlur stdDeviation="3"/>
    <feColorMatrix type="matrix" values="0 0 0 0 0 0 0 0 0 0 0 0 0 0 0 0 0 0 0.161 0"/>
    <feBlend mode="normal" in2="BackgroundImageFix" result="effect1_dropShadow_817_7261"/>
    <feBlend mode="normal" in="SourceGraphic" in2="effect1_dropShadow_817_7261" result="shape"/>
    </filter>
    <filter id="filter2_d_817_7261" x="12.9998" y="76.1499" width="110.264" height="35.7192" filterUnits="userSpaceOnUse" color-interpolation-filters="sRGB">
    <feFlood flood-opacity="0" result="BackgroundImageFix"/>
    <feColorMatrix in="SourceAlpha" type="matrix" values="0 0 0 0 0 0 0 0 0 0 0 0 0 0 0 0 0 0 127 0" result="hardAlpha"/>
    <feOffset dy="3"/>
    <feGaussianBlur stdDeviation="3"/>
    <feColorMatrix type="matrix" values="0 0 0 0 0 0 0 0 0 0 0 0 0 0 0 0 0 0 0.161 0"/>
    <feBlend mode="normal" in2="BackgroundImageFix" result="effect1_dropShadow_817_7261"/>
    <feBlend mode="normal" in="SourceGraphic" in2="effect1_dropShadow_817_7261" result="shape"/>
    </filter>
    <filter id="filter3_d_817_7261" x="12.9998" y="76.1494" width="110.264" height="35.7192" filterUnits="userSpaceOnUse" color-interpolation-filters="sRGB">
    <feFlood flood-opacity="0" result="BackgroundImageFix"/>
    <feColorMatrix in="SourceAlpha" type="matrix" values="0 0 0 0 0 0 0 0 0 0 0 0 0 0 0 0 0 0 127 0" result="hardAlpha"/>
    <feOffset dy="3"/>
    <feGaussianBlur stdDeviation="3"/>
    <feColorMatrix type="matrix" values="0 0 0 0 0 0 0 0 0 0 0 0 0 0 0 0 0 0 0.05 0"/>
    <feBlend mode="normal" in2="BackgroundImageFix" result="effect1_dropShadow_817_7261"/>
    <feBlend mode="normal" in="SourceGraphic" in2="effect1_dropShadow_817_7261" result="shape"/>
    </filter>
    <filter id="filter4_d_817_7261" x="12.9998" y="17.8691" width="110.264" height="35.7192" filterUnits="userSpaceOnUse" color-interpolation-filters="sRGB">
    <feFlood flood-opacity="0" result="BackgroundImageFix"/>
    <feColorMatrix in="SourceAlpha" type="matrix" values="0 0 0 0 0 0 0 0 0 0 0 0 0 0 0 0 0 0 127 0" result="hardAlpha"/>
    <feOffset dy="3"/>
    <feGaussianBlur stdDeviation="3"/>
    <feColorMatrix type="matrix" values="0 0 0 0 0 0 0 0 0 0 0 0 0 0 0 0 0 0 0.05 0"/>
    <feBlend mode="normal" in2="BackgroundImageFix" result="effect1_dropShadow_817_7261"/>
    <feBlend mode="normal" in="SourceGraphic" in2="effect1_dropShadow_817_7261" result="shape"/>
    </filter>
    </defs>
    </svg>
    