<svg width="162" height="128" viewBox="0 0 162 128" fill="none" xmlns="http://www.w3.org/2000/svg">
<path d="M76.1361 127.735C88.7521 127.76 101.092 124.041 111.594 117.05C122.096 110.059 130.288 100.109 135.133 88.4608C139.978 76.8122 141.258 63.9881 138.812 51.6114C136.366 39.2348 130.303 27.862 121.391 18.9323C112.479 10.0027 101.118 3.91763 88.7463 1.44725C76.3745 -1.02313 63.5478 0.232225 51.8898 5.05445C40.2317 9.87667 30.2662 18.049 23.2545 28.5371C16.2428 39.0253 12.5001 51.3577 12.5001 63.9738C12.4873 72.3401 14.1237 80.6268 17.3157 88.3603C20.5076 96.0937 25.1926 103.122 31.1026 109.044C37.0127 114.966 44.0319 119.664 51.7591 122.871C59.4863 126.078 67.7698 127.731 76.1361 127.735Z" fill="#525454"/>
<path d="M79.6361 127.522C92.2521 127.547 104.592 123.828 115.094 116.837C125.596 109.846 133.788 99.8965 138.633 88.2479C143.478 76.5993 144.758 63.7752 142.312 51.3986C139.866 39.0219 133.803 27.6491 124.891 18.7195C115.979 9.78981 104.618 3.70474 92.2463 1.23435C79.8745 -1.23603 67.0478 0.0193343 55.3898 4.84156C43.7317 9.66378 33.7662 17.8361 26.7545 28.3242C19.7428 38.8124 16.0001 51.1449 16.0001 63.7609C15.9873 72.1272 17.6237 80.4139 20.8157 88.1474C24.0076 95.8808 28.6926 102.909 34.6026 108.831C40.5127 114.753 47.5319 119.451 55.2591 122.658C62.9863 125.866 71.2698 127.518 79.6361 127.522Z" fill="#525454"/>
<path d="M6.42753 37.6991C7.14986 37.6981 7.85567 37.483 8.45577 37.0809C9.05586 36.6789 9.5233 36.108 9.79899 35.4403C10.0747 34.7727 10.1463 34.0383 10.0047 33.33C9.86306 32.6217 9.51465 31.9712 9.00347 31.4609C8.49229 30.9505 7.84129 30.6032 7.13275 30.4628C6.4242 30.3223 5.68993 30.3951 5.02274 30.6719C4.35555 30.9487 3.7854 31.4171 3.38434 32.0178C2.98329 32.6186 2.76933 33.3247 2.76953 34.0471C2.7748 35.0151 3.16207 35.9418 3.84711 36.6257C4.53215 37.3096 5.45954 37.6954 6.42753 37.6991Z" fill="#525454"/>
<path d="M2.76953 25.8479C3.26278 25.8469 3.74467 25.6997 4.15432 25.425C4.56396 25.1502 4.88297 24.7602 5.07104 24.3042C5.25912 23.8483 5.30782 23.3468 5.21098 22.8631C5.11415 22.3794 4.87613 21.9353 4.527 21.5869C4.17787 21.2385 3.73329 21.0014 3.24945 20.9055C2.7656 20.8096 2.2642 20.8593 1.80859 21.0483C1.35298 21.2373 0.963606 21.5571 0.689672 21.9673C0.415739 22.3775 0.269534 22.8597 0.269533 23.3529C0.269136 23.6811 0.333568 24.0061 0.459125 24.3093C0.584683 24.6125 0.768895 24.888 1.00119 25.1198C1.23348 25.3516 1.50927 25.5353 1.81273 25.6602C2.1162 25.7852 2.44135 25.849 2.76953 25.8479Z" fill="#525454"/>
<path d="M157.102 54.915C158.019 54.914 158.914 54.6412 159.676 54.1312C160.437 53.6212 161.03 52.8968 161.38 52.0497C161.73 51.2026 161.821 50.2707 161.641 49.372C161.461 48.4733 161.019 47.6481 160.37 47.0007C159.721 46.3533 158.895 45.9129 157.996 45.735C157.097 45.5572 156.165 45.65 155.319 46.0016C154.473 46.3533 153.75 46.948 153.241 47.7106C152.733 48.4732 152.462 49.3695 152.463 50.286C152.459 50.8958 152.577 51.5003 152.808 52.0643C153.04 52.6283 153.382 53.1406 153.814 53.5713C154.245 54.0021 154.758 54.3427 155.323 54.5734C155.887 54.804 156.492 54.9202 157.102 54.915Z" fill="#525454"/>
<g filter="url(#filter0_d_2136_8470)">
<path d="M51.5291 50.0093H143.017C143.915 50.0093 144.777 50.3663 145.413 51.0017C146.048 51.6372 146.405 52.499 146.405 53.3977V70.3399C146.405 71.2385 146.048 72.1004 145.413 72.7358C144.777 73.3713 143.915 73.7283 143.017 73.7283H51.5291C50.6304 73.7283 49.7685 73.3713 49.1331 72.7358C48.4976 72.1004 48.1406 71.2385 48.1406 70.3399V53.3977C48.1406 52.499 48.4976 51.6372 49.1331 51.0017C49.7685 50.3663 50.6304 50.0093 51.5291 50.0093V50.0093Z" fill="white"/>
</g>
<g filter="url(#filter1_d_2136_8470)">
<path d="M143.017 50.0093H51.5291C49.6577 50.0093 48.1406 51.5263 48.1406 53.3977V70.3399C48.1406 72.2112 49.6577 73.7283 51.5291 73.7283H143.017C144.888 73.7283 146.405 72.2112 146.405 70.3399V53.3977C146.405 51.5263 144.888 50.0093 143.017 50.0093Z" fill="#1D1F1F"/>
</g>
<path d="M100.323 55.4302H82.703C81.5802 55.4302 80.6699 56.3404 80.6699 57.4632C80.6699 58.5861 81.5802 59.4963 82.703 59.4963H100.323C101.446 59.4963 102.356 58.5861 102.356 57.4632C102.356 56.3404 101.446 55.4302 100.323 55.4302Z" fill="#525454"/>
<path d="M112.521 64.24H82.703C81.5802 64.24 80.6699 65.1502 80.6699 66.273C80.6699 67.3959 81.5802 68.3061 82.703 68.3061H112.521C113.644 68.3061 114.554 67.3959 114.554 66.273C114.554 65.1502 113.644 64.24 112.521 64.24Z" fill="#525454"/>
<path d="M68.8091 68.3057C72.3647 68.3057 75.2471 65.4233 75.2471 61.8677C75.2471 58.3121 72.3647 55.4297 68.8091 55.4297C65.2535 55.4297 62.3711 58.3121 62.3711 61.8677C62.3711 65.4233 65.2535 68.3057 68.8091 68.3057Z" fill="#525454"/>
<g filter="url(#filter2_d_2136_8470)">
<path d="M22.3884 79.1497H113.876C114.775 79.1497 115.637 79.5067 116.272 80.1421C116.907 80.7776 117.264 81.6394 117.264 82.5381V99.4802C117.264 100.379 116.907 101.241 116.272 101.876C115.637 102.512 114.775 102.869 113.876 102.869H22.3884C21.4898 102.869 20.6279 102.512 19.9924 101.876C19.357 101.241 19 100.379 19 99.4802V82.5381C19 81.6394 19.357 80.7776 19.9924 80.1421C20.6279 79.5067 21.4898 79.1497 22.3884 79.1497V79.1497Z" fill="white"/>
</g>
<path d="M72.5377 84.5708H54.9178C53.795 84.5708 52.8848 85.481 52.8848 86.6039C52.8848 87.7267 53.795 88.6369 54.9178 88.6369H72.5377C73.6605 88.6369 74.5707 87.7267 74.5707 86.6039C74.5707 85.481 73.6605 84.5708 72.5377 84.5708Z" fill="#B4DAFF"/>
<path d="M84.736 93.3806H54.9178C53.795 93.3806 52.8848 94.2908 52.8848 95.4137C52.8848 96.5365 53.795 97.4467 54.9178 97.4467H84.736C85.8588 97.4467 86.7691 96.5365 86.7691 95.4137C86.7691 94.2908 85.8588 93.3806 84.736 93.3806Z" fill="#DEE9FC"/>
<g filter="url(#filter3_d_2136_8470)">
<path d="M113.876 79.1494H22.3884C20.5171 79.1494 19 80.6665 19 82.5378V99.48C19 101.351 20.5171 102.868 22.3884 102.868H113.876C115.747 102.868 117.264 101.351 117.264 99.48V82.5378C117.264 80.6665 115.747 79.1494 113.876 79.1494Z" fill="#1D1F1F"/>
</g>
<path d="M71.1822 84.5706H53.5624C52.4395 84.5706 51.5293 85.4808 51.5293 86.6036C51.5293 87.7264 52.4395 88.6367 53.5624 88.6367H71.1822C72.305 88.6367 73.2152 87.7264 73.2152 86.6036C73.2152 85.4808 72.305 84.5706 71.1822 84.5706Z" fill="#525454"/>
<path d="M83.3805 93.3804H53.5624C52.4395 93.3804 51.5293 94.2906 51.5293 95.4134C51.5293 96.5363 52.4395 97.4465 53.5624 97.4465H83.3805C84.5034 97.4465 85.4136 96.5363 85.4136 95.4134C85.4136 94.2906 84.5034 93.3804 83.3805 93.3804Z" fill="#525454"/>
<path d="M39.6685 97.4459C43.2241 97.4459 46.1065 94.5635 46.1065 91.0078C46.1065 87.4522 43.2241 84.5698 39.6685 84.5698C36.1129 84.5698 33.2305 87.4522 33.2305 91.0078C33.2305 94.5635 36.1129 97.4459 39.6685 97.4459Z" fill="#525454"/>
<g filter="url(#filter4_d_2136_8470)">
<path d="M113.876 20.8691H22.3884C20.5171 20.8691 19 22.3862 19 24.2576V41.1997C19 43.0711 20.5171 44.5881 22.3884 44.5881H113.876C115.747 44.5881 117.264 43.0711 117.264 41.1997V24.2576C117.264 22.3862 115.747 20.8691 113.876 20.8691Z" fill="#1D1F1F"/>
</g>
<path d="M71.1822 26.2903H53.5624C52.4395 26.2903 51.5293 27.2005 51.5293 28.3233C51.5293 29.4462 52.4395 30.3564 53.5624 30.3564H71.1822C72.305 30.3564 73.2152 29.4462 73.2152 28.3233C73.2152 27.2005 72.305 26.2903 71.1822 26.2903Z" fill="#525454"/>
<path d="M83.3805 35.1001H53.5624C52.4395 35.1001 51.5293 36.0103 51.5293 37.1332C51.5293 38.256 52.4395 39.1662 53.5624 39.1662H83.3805C84.5034 39.1662 85.4136 38.256 85.4136 37.1332C85.4136 36.0103 84.5034 35.1001 83.3805 35.1001Z" fill="#525454"/>
<path d="M39.6685 39.1658C43.2241 39.1658 46.1065 36.2834 46.1065 32.7278C46.1065 29.1722 43.2241 26.2898 39.6685 26.2898C36.1129 26.2898 33.2305 29.1722 33.2305 32.7278C33.2305 36.2834 36.1129 39.1658 39.6685 39.1658Z" fill="#525454"/>
<defs>
<filter id="filter0_d_2136_8470" x="42.1406" y="47.0093" width="110.264" height="35.719" filterUnits="userSpaceOnUse" color-interpolation-filters="sRGB">
<feFlood flood-opacity="0" result="BackgroundImageFix"/>
<feColorMatrix in="SourceAlpha" type="matrix" values="0 0 0 0 0 0 0 0 0 0 0 0 0 0 0 0 0 0 127 0" result="hardAlpha"/>
<feOffset dy="3"/>
<feGaussianBlur stdDeviation="3"/>
<feColorMatrix type="matrix" values="0 0 0 0 0 0 0 0 0 0 0 0 0 0 0 0 0 0 0.05 0"/>
<feBlend mode="normal" in2="BackgroundImageFix" result="effect1_dropShadow_2136_8470"/>
<feBlend mode="normal" in="SourceGraphic" in2="effect1_dropShadow_2136_8470" result="shape"/>
</filter>
<filter id="filter1_d_2136_8470" x="42.1406" y="47.0093" width="110.264" height="35.719" filterUnits="userSpaceOnUse" color-interpolation-filters="sRGB">
<feFlood flood-opacity="0" result="BackgroundImageFix"/>
<feColorMatrix in="SourceAlpha" type="matrix" values="0 0 0 0 0 0 0 0 0 0 0 0 0 0 0 0 0 0 127 0" result="hardAlpha"/>
<feOffset dy="3"/>
<feGaussianBlur stdDeviation="3"/>
<feColorMatrix type="matrix" values="0 0 0 0 0 0 0 0 0 0 0 0 0 0 0 0 0 0 0.161 0"/>
<feBlend mode="normal" in2="BackgroundImageFix" result="effect1_dropShadow_2136_8470"/>
<feBlend mode="normal" in="SourceGraphic" in2="effect1_dropShadow_2136_8470" result="shape"/>
</filter>
<filter id="filter2_d_2136_8470" x="13" y="76.1497" width="110.264" height="35.719" filterUnits="userSpaceOnUse" color-interpolation-filters="sRGB">
<feFlood flood-opacity="0" result="BackgroundImageFix"/>
<feColorMatrix in="SourceAlpha" type="matrix" values="0 0 0 0 0 0 0 0 0 0 0 0 0 0 0 0 0 0 127 0" result="hardAlpha"/>
<feOffset dy="3"/>
<feGaussianBlur stdDeviation="3"/>
<feColorMatrix type="matrix" values="0 0 0 0 0 0 0 0 0 0 0 0 0 0 0 0 0 0 0.161 0"/>
<feBlend mode="normal" in2="BackgroundImageFix" result="effect1_dropShadow_2136_8470"/>
<feBlend mode="normal" in="SourceGraphic" in2="effect1_dropShadow_2136_8470" result="shape"/>
</filter>
<filter id="filter3_d_2136_8470" x="13" y="76.1494" width="110.264" height="35.719" filterUnits="userSpaceOnUse" color-interpolation-filters="sRGB">
<feFlood flood-opacity="0" result="BackgroundImageFix"/>
<feColorMatrix in="SourceAlpha" type="matrix" values="0 0 0 0 0 0 0 0 0 0 0 0 0 0 0 0 0 0 127 0" result="hardAlpha"/>
<feOffset dy="3"/>
<feGaussianBlur stdDeviation="3"/>
<feColorMatrix type="matrix" values="0 0 0 0 0 0 0 0 0 0 0 0 0 0 0 0 0 0 0.05 0"/>
<feBlend mode="normal" in2="BackgroundImageFix" result="effect1_dropShadow_2136_8470"/>
<feBlend mode="normal" in="SourceGraphic" in2="effect1_dropShadow_2136_8470" result="shape"/>
</filter>
<filter id="filter4_d_2136_8470" x="13" y="17.8691" width="110.264" height="35.719" filterUnits="userSpaceOnUse" color-interpolation-filters="sRGB">
<feFlood flood-opacity="0" result="BackgroundImageFix"/>
<feColorMatrix in="SourceAlpha" type="matrix" values="0 0 0 0 0 0 0 0 0 0 0 0 0 0 0 0 0 0 127 0" result="hardAlpha"/>
<feOffset dy="3"/>
<feGaussianBlur stdDeviation="3"/>
<feColorMatrix type="matrix" values="0 0 0 0 0 0 0 0 0 0 0 0 0 0 0 0 0 0 0.05 0"/>
<feBlend mode="normal" in2="BackgroundImageFix" result="effect1_dropShadow_2136_8470"/>
<feBlend mode="normal" in="SourceGraphic" in2="effect1_dropShadow_2136_8470" result="shape"/>
</filter>
</defs>
</svg>
