<svg width="162" height="128" viewBox="0 0 162 128" fill="none" xmlns="http://www.w3.org/2000/svg">
<path d="M79.6351 127.522C92.2511 127.547 104.591 123.828 115.093 116.837C125.595 109.846 133.787 99.8965 138.632 88.2479C143.477 76.5993 144.757 63.7752 142.311 51.3986C139.865 39.0219 133.802 27.6491 124.89 18.7195C115.978 9.78981 104.617 3.70474 92.2453 1.23435C79.8735 -1.23603 67.0469 0.0193343 55.3888 4.84156C43.7307 9.66378 33.7652 17.8361 26.7535 28.3242C19.7418 38.8124 15.9991 51.1449 15.9991 63.7609C15.9863 72.1272 17.6227 80.4139 20.8147 88.1474C24.0066 95.8808 28.6916 102.909 34.6016 108.831C40.5117 114.753 47.531 119.451 55.2581 122.658C62.9853 125.866 71.2688 127.518 79.6351 127.522Z" fill="#DFE5E5"/>
<path d="M6.42704 37.6991C7.14937 37.6981 7.85518 37.483 8.45528 37.0809C9.05538 36.6789 9.52281 36.108 9.7985 35.4403C10.0742 34.7727 10.1458 34.0383 10.0042 33.33C9.86257 32.6217 9.51416 31.9712 9.00298 31.4609C8.4918 30.9505 7.8408 30.6032 7.13226 30.4628C6.42372 30.3223 5.68945 30.3951 5.02226 30.6719C4.35507 30.9487 3.78491 31.4171 3.38385 32.0178C2.9828 32.6186 2.76885 33.3247 2.76904 34.0471C2.77431 35.0151 3.16158 35.9418 3.84662 36.6257C4.53167 37.3096 5.45905 37.6954 6.42704 37.6991Z" fill="#DFE5E5"/>
<path d="M2.76904 25.8479C3.2623 25.8469 3.74419 25.6997 4.15383 25.425C4.56347 25.1502 4.88248 24.7602 5.07056 24.3042C5.25863 23.8483 5.30733 23.3468 5.21049 22.8631C5.11366 22.3794 4.87564 21.9353 4.52651 21.5869C4.17738 21.2385 3.7328 21.0014 3.24896 20.9055C2.76511 20.8096 2.26371 20.8593 1.8081 21.0483C1.35249 21.2373 0.963118 21.5571 0.689184 21.9673C0.41525 22.3775 0.269046 22.8597 0.269045 23.3529C0.268648 23.6811 0.333079 24.0061 0.458637 24.3093C0.584195 24.6125 0.768407 24.888 1.0007 25.1198C1.23299 25.3516 1.50878 25.5353 1.81225 25.6602C2.11571 25.7852 2.44087 25.849 2.76904 25.8479Z" fill="#DFE5E5"/>
<path d="M157.102 54.915C158.018 54.914 158.914 54.6412 159.675 54.1312C160.437 53.6212 161.03 52.8968 161.38 52.0497C161.729 51.2026 161.82 50.2707 161.64 49.372C161.461 48.4733 161.018 47.6481 160.37 47.0007C159.721 46.3533 158.895 45.9129 157.996 45.735C157.097 45.5572 156.165 45.65 155.319 46.0016C154.472 46.3533 153.749 46.948 153.241 47.7106C152.732 48.4732 152.462 49.3695 152.462 50.286C152.459 50.8958 152.576 51.5003 152.808 52.0643C153.04 52.6283 153.382 53.1406 153.813 53.5713C154.245 54.0021 154.758 54.3427 155.322 54.5734C155.887 54.804 156.492 54.9202 157.102 54.915Z" fill="#DFE5E5"/>
<g filter="url(#filter0_d_2136_7023)">
<path d="M51.5286 50.0093H143.016C143.915 50.0093 144.777 50.3663 145.412 51.0017C146.048 51.6372 146.405 52.499 146.405 53.3977V70.3399C146.405 71.2385 146.048 72.1004 145.412 72.7358C144.777 73.3713 143.915 73.7283 143.016 73.7283H51.5286C50.6299 73.7283 49.768 73.3713 49.1326 72.7358C48.4971 72.1004 48.1401 71.2385 48.1401 70.3399V53.3977C48.1401 52.499 48.4971 51.6372 49.1326 51.0017C49.768 50.3663 50.6299 50.0093 51.5286 50.0093V50.0093Z" fill="white"/>
</g>
<g filter="url(#filter1_d_2136_7023)">
<path d="M143.016 50.0093H51.5286C49.6572 50.0093 48.1401 51.5263 48.1401 53.3977V70.3399C48.1401 72.2112 49.6572 73.7283 51.5286 73.7283H143.016C144.888 73.7283 146.405 72.2112 146.405 70.3399V53.3977C146.405 51.5263 144.888 50.0093 143.016 50.0093Z" fill="white"/>
</g>
<path d="M100.322 55.4302H82.7025C81.5797 55.4302 80.6694 56.3404 80.6694 57.4632C80.6694 58.5861 81.5797 59.4963 82.7025 59.4963H100.322C101.445 59.4963 102.355 58.5861 102.355 57.4632C102.355 56.3404 101.445 55.4302 100.322 55.4302Z" fill="#DFE5E5"/>
<path d="M112.521 64.24H82.7025C81.5797 64.24 80.6694 65.1502 80.6694 66.273C80.6694 67.3959 81.5797 68.3061 82.7025 68.3061H112.521C113.643 68.3061 114.554 67.3959 114.554 66.273C114.554 65.1502 113.643 64.24 112.521 64.24Z" fill="#DFE5E5"/>
<path d="M68.8096 68.3057C72.3652 68.3057 75.2476 65.4233 75.2476 61.8677C75.2476 58.3121 72.3652 55.4297 68.8096 55.4297C65.254 55.4297 62.3716 58.3121 62.3716 61.8677C62.3716 65.4233 65.254 68.3057 68.8096 68.3057Z" fill="#DFE5E5"/>
<g filter="url(#filter2_d_2136_7023)">
<path d="M22.3879 79.1497H113.876C114.774 79.1497 115.636 79.5067 116.272 80.1421C116.907 80.7776 117.264 81.6394 117.264 82.5381V99.4802C117.264 100.379 116.907 101.241 116.272 101.876C115.636 102.512 114.774 102.869 113.876 102.869H22.3879C21.4893 102.869 20.6274 102.512 19.992 101.876C19.3565 101.241 18.9995 100.379 18.9995 99.4802V82.5381C18.9995 81.6394 19.3565 80.7776 19.992 80.1421C20.6274 79.5067 21.4893 79.1497 22.3879 79.1497V79.1497Z" fill="white"/>
</g>
<path d="M72.5362 84.5708H54.9164C53.7935 84.5708 52.8833 85.481 52.8833 86.6039C52.8833 87.7267 53.7935 88.6369 54.9164 88.6369H72.5362C73.659 88.6369 74.5693 87.7267 74.5693 86.6039C74.5693 85.481 73.659 84.5708 72.5362 84.5708Z" fill="#B4DAFF"/>
<path d="M84.7345 93.3806H54.9164C53.7935 93.3806 52.8833 94.2908 52.8833 95.4137C52.8833 96.5365 53.7935 97.4467 54.9164 97.4467H84.7345C85.8574 97.4467 86.7676 96.5365 86.7676 95.4137C86.7676 94.2908 85.8574 93.3806 84.7345 93.3806Z" fill="#DEE9FC"/>
<g filter="url(#filter3_d_2136_7023)">
<path d="M113.876 79.1494H22.3879C20.5166 79.1494 18.9995 80.6665 18.9995 82.5378V99.48C18.9995 101.351 20.5166 102.868 22.3879 102.868H113.876C115.747 102.868 117.264 101.351 117.264 99.48V82.5378C117.264 80.6665 115.747 79.1494 113.876 79.1494Z" fill="white"/>
</g>
<path d="M71.1807 84.5706H53.5609C52.4381 84.5706 51.5278 85.4808 51.5278 86.6036C51.5278 87.7264 52.4381 88.6367 53.5609 88.6367H71.1807C72.3036 88.6367 73.2138 87.7264 73.2138 86.6036C73.2138 85.4808 72.3036 84.5706 71.1807 84.5706Z" fill="#DFE5E5"/>
<path d="M83.3791 93.3804H53.5609C52.4381 93.3804 51.5278 94.2906 51.5278 95.4134C51.5278 96.5363 52.4381 97.4465 53.5609 97.4465H83.3791C84.5019 97.4465 85.4121 96.5363 85.4121 95.4134C85.4121 94.2906 84.5019 93.3804 83.3791 93.3804Z" fill="#DFE5E5"/>
<path d="M39.6685 97.4459C43.2241 97.4459 46.1065 94.5635 46.1065 91.0078C46.1065 87.4522 43.2241 84.5698 39.6685 84.5698C36.1129 84.5698 33.2305 87.4522 33.2305 91.0078C33.2305 94.5635 36.1129 97.4459 39.6685 97.4459Z" fill="#DFE5E5"/>
<g filter="url(#filter4_d_2136_7023)">
<path d="M113.876 20.8691H22.3879C20.5166 20.8691 18.9995 22.3862 18.9995 24.2576V41.1997C18.9995 43.0711 20.5166 44.5881 22.3879 44.5881H113.876C115.747 44.5881 117.264 43.0711 117.264 41.1997V24.2576C117.264 22.3862 115.747 20.8691 113.876 20.8691Z" fill="white"/>
</g>
<path d="M71.1807 26.2903H53.5609C52.4381 26.2903 51.5278 27.2005 51.5278 28.3233C51.5278 29.4462 52.4381 30.3564 53.5609 30.3564H71.1807C72.3036 30.3564 73.2138 29.4462 73.2138 28.3233C73.2138 27.2005 72.3036 26.2903 71.1807 26.2903Z" fill="#DFE5E5"/>
<path d="M83.3791 35.1001H53.5609C52.4381 35.1001 51.5278 36.0103 51.5278 37.1332C51.5278 38.256 52.4381 39.1662 53.5609 39.1662H83.3791C84.5019 39.1662 85.4121 38.256 85.4121 37.1332C85.4121 36.0103 84.5019 35.1001 83.3791 35.1001Z" fill="#DFE5E5"/>
<path d="M39.6685 39.1658C43.2241 39.1658 46.1065 36.2834 46.1065 32.7278C46.1065 29.1722 43.2241 26.2898 39.6685 26.2898C36.1129 26.2898 33.2305 29.1722 33.2305 32.7278C33.2305 36.2834 36.1129 39.1658 39.6685 39.1658Z" fill="#DFE5E5"/>
<defs>
<filter id="filter0_d_2136_7023" x="42.1401" y="47.0093" width="110.265" height="35.719" filterUnits="userSpaceOnUse" color-interpolation-filters="sRGB">
<feFlood flood-opacity="0" result="BackgroundImageFix"/>
<feColorMatrix in="SourceAlpha" type="matrix" values="0 0 0 0 0 0 0 0 0 0 0 0 0 0 0 0 0 0 127 0" result="hardAlpha"/>
<feOffset dy="3"/>
<feGaussianBlur stdDeviation="3"/>
<feColorMatrix type="matrix" values="0 0 0 0 0 0 0 0 0 0 0 0 0 0 0 0 0 0 0.05 0"/>
<feBlend mode="normal" in2="BackgroundImageFix" result="effect1_dropShadow_2136_7023"/>
<feBlend mode="normal" in="SourceGraphic" in2="effect1_dropShadow_2136_7023" result="shape"/>
</filter>
<filter id="filter1_d_2136_7023" x="42.1401" y="47.0093" width="110.265" height="35.719" filterUnits="userSpaceOnUse" color-interpolation-filters="sRGB">
<feFlood flood-opacity="0" result="BackgroundImageFix"/>
<feColorMatrix in="SourceAlpha" type="matrix" values="0 0 0 0 0 0 0 0 0 0 0 0 0 0 0 0 0 0 127 0" result="hardAlpha"/>
<feOffset dy="3"/>
<feGaussianBlur stdDeviation="3"/>
<feColorMatrix type="matrix" values="0 0 0 0 0 0 0 0 0 0 0 0 0 0 0 0 0 0 0.161 0"/>
<feBlend mode="normal" in2="BackgroundImageFix" result="effect1_dropShadow_2136_7023"/>
<feBlend mode="normal" in="SourceGraphic" in2="effect1_dropShadow_2136_7023" result="shape"/>
</filter>
<filter id="filter2_d_2136_7023" x="12.9995" y="76.1497" width="110.265" height="35.719" filterUnits="userSpaceOnUse" color-interpolation-filters="sRGB">
<feFlood flood-opacity="0" result="BackgroundImageFix"/>
<feColorMatrix in="SourceAlpha" type="matrix" values="0 0 0 0 0 0 0 0 0 0 0 0 0 0 0 0 0 0 127 0" result="hardAlpha"/>
<feOffset dy="3"/>
<feGaussianBlur stdDeviation="3"/>
<feColorMatrix type="matrix" values="0 0 0 0 0 0 0 0 0 0 0 0 0 0 0 0 0 0 0.161 0"/>
<feBlend mode="normal" in2="BackgroundImageFix" result="effect1_dropShadow_2136_7023"/>
<feBlend mode="normal" in="SourceGraphic" in2="effect1_dropShadow_2136_7023" result="shape"/>
</filter>
<filter id="filter3_d_2136_7023" x="12.9995" y="76.1494" width="110.265" height="35.719" filterUnits="userSpaceOnUse" color-interpolation-filters="sRGB">
<feFlood flood-opacity="0" result="BackgroundImageFix"/>
<feColorMatrix in="SourceAlpha" type="matrix" values="0 0 0 0 0 0 0 0 0 0 0 0 0 0 0 0 0 0 127 0" result="hardAlpha"/>
<feOffset dy="3"/>
<feGaussianBlur stdDeviation="3"/>
<feColorMatrix type="matrix" values="0 0 0 0 0 0 0 0 0 0 0 0 0 0 0 0 0 0 0.05 0"/>
<feBlend mode="normal" in2="BackgroundImageFix" result="effect1_dropShadow_2136_7023"/>
<feBlend mode="normal" in="SourceGraphic" in2="effect1_dropShadow_2136_7023" result="shape"/>
</filter>
<filter id="filter4_d_2136_7023" x="12.9995" y="17.8691" width="110.265" height="35.719" filterUnits="userSpaceOnUse" color-interpolation-filters="sRGB">
<feFlood flood-opacity="0" result="BackgroundImageFix"/>
<feColorMatrix in="SourceAlpha" type="matrix" values="0 0 0 0 0 0 0 0 0 0 0 0 0 0 0 0 0 0 127 0" result="hardAlpha"/>
<feOffset dy="3"/>
<feGaussianBlur stdDeviation="3"/>
<feColorMatrix type="matrix" values="0 0 0 0 0 0 0 0 0 0 0 0 0 0 0 0 0 0 0.05 0"/>
<feBlend mode="normal" in2="BackgroundImageFix" result="effect1_dropShadow_2136_7023"/>
<feBlend mode="normal" in="SourceGraphic" in2="effect1_dropShadow_2136_7023" result="shape"/>
</filter>
</defs>
</svg>
