<svg width="32" height="32" viewBox="0 0 32 32" fill="none" xmlns="http://www.w3.org/2000/svg">
<path d="M22 0H10C4.47715 0 0 4.47715 0 10V22C0 27.5228 4.47715 32 10 32H22C27.5228 32 32 27.5228 32 22V10C32 4.47715 27.5228 0 22 0Z" fill="#DFE5E5"/>
<path opacity="0.4" d="M20.9998 22.43H16.9998L12.5498 25.39C12.3994 25.489 12.225 25.5456 12.0451 25.5538C11.8652 25.562 11.6865 25.5214 11.5277 25.4364C11.369 25.3514 11.2361 25.2251 11.1432 25.0708C11.0503 24.9165 11.0007 24.74 10.9998 24.56V22.43C10.3327 22.4702 9.66463 22.3685 9.03975 22.1314C8.41488 21.8944 7.84741 21.5275 7.37484 21.0549C6.90227 20.5823 6.53534 20.0149 6.29831 19.39C6.06128 18.7651 5.95953 18.0971 5.99979 17.43V11.43C5.95953 10.7629 6.06128 10.0948 6.29831 9.46993C6.53534 8.84506 6.90227 8.27759 7.37484 7.80501C7.84741 7.33244 8.41488 6.96552 9.03975 6.72849C9.66463 6.49145 10.3327 6.38971 10.9998 6.42997H20.9998C21.6669 6.38971 22.335 6.49145 22.9598 6.72849C23.5847 6.96552 24.1522 7.33244 24.6247 7.80501C25.0973 8.27759 25.4642 8.84506 25.7013 9.46993C25.9383 10.0948 26.0401 10.7629 25.9998 11.43V17.43C26.0401 18.0971 25.9383 18.7651 25.7013 19.39C25.4642 20.0149 25.0973 20.5823 24.6247 21.0549C24.1522 21.5275 23.5847 21.8944 22.9598 22.1314C22.335 22.3685 21.6669 22.4702 20.9998 22.43Z" fill="#1D1F1F"/>
<path d="M20.2387 16.8737C20.2387 17.0087 20.2087 17.1475 20.145 17.2825C20.0812 17.4175 19.9988 17.545 19.89 17.665C19.7063 17.8675 19.5037 18.0138 19.275 18.1075C19.05 18.2013 18.8063 18.25 18.5438 18.25C18.1613 18.25 17.7525 18.16 17.3212 17.9763C16.89 17.7925 16.4588 17.545 16.0312 17.2338C15.6 16.9188 15.1912 16.57 14.8012 16.1838C14.415 15.7937 14.0662 15.385 13.755 14.9575C13.4475 14.53 13.2 14.1025 13.02 13.6788C12.84 13.2513 12.75 12.8425 12.75 12.4525C12.75 12.1975 12.795 11.9538 12.885 11.7288C12.975 11.5 13.1175 11.29 13.3162 11.1025C13.5562 10.8663 13.8188 10.75 14.0963 10.75C14.2013 10.75 14.3063 10.7725 14.4 10.8175C14.4975 10.8625 14.5838 10.93 14.6513 11.0275L15.5213 12.2538C15.5888 12.3475 15.6375 12.4338 15.6712 12.5163C15.705 12.595 15.7238 12.6738 15.7238 12.745C15.7238 12.835 15.6975 12.925 15.645 13.0113C15.5963 13.0975 15.525 13.1875 15.435 13.2775L15.15 13.5738C15.1087 13.615 15.09 13.6638 15.09 13.7238C15.09 13.7538 15.0938 13.78 15.1013 13.81C15.1125 13.84 15.1238 13.8625 15.1313 13.885C15.1988 14.0087 15.315 14.17 15.48 14.365C15.6487 14.56 15.8287 14.7587 16.0237 14.9575C16.2262 15.1562 16.4212 15.34 16.62 15.5087C16.815 15.6737 16.9762 15.7862 17.1037 15.8537C17.1225 15.8612 17.145 15.8725 17.1712 15.8837C17.2013 15.895 17.2312 15.8987 17.265 15.8987C17.3288 15.8987 17.3775 15.8763 17.4187 15.835L17.7038 15.5538C17.7975 15.46 17.8875 15.3888 17.9738 15.3438C18.06 15.2913 18.1462 15.265 18.24 15.265C18.3112 15.265 18.3863 15.28 18.4688 15.3138C18.5512 15.3475 18.6375 15.3963 18.7313 15.46L19.9725 16.3412C20.07 16.4088 20.1375 16.4875 20.1788 16.5812C20.2162 16.675 20.2387 16.7688 20.2387 16.8737Z" fill="#292D32"/>
</svg>
