<svg width="32" height="32" viewBox="0 0 32 32" fill="none" xmlns="http://www.w3.org/2000/svg">
<path d="M22 0H10C4.47715 0 0 4.47715 0 10V22C0 27.5228 4.47715 32 10 32H22C27.5228 32 32 27.5228 32 22V10C32 4.47715 27.5228 0 22 0Z" fill="#1D1F1F"/>
<path opacity="0.4" d="M21 22.43H17L12.55 25.39C12.3996 25.489 12.2253 25.5456 12.0454 25.5538C11.8655 25.562 11.6867 25.5214 11.5279 25.4364C11.3692 25.3514 11.2363 25.2251 11.1434 25.0708C11.0505 24.9165 11.0009 24.74 11 24.56V22.43C10.3329 22.4702 9.66484 22.3685 9.03997 22.1314C8.41509 21.8944 7.84763 21.5275 7.37505 21.0549C6.90248 20.5823 6.53556 20.0149 6.29852 19.39C6.06149 18.7651 5.95974 18.0971 6 17.43V11.43C5.95974 10.7629 6.06149 10.0948 6.29852 9.46993C6.53556 8.84506 6.90248 8.27759 7.37505 7.80501C7.84763 7.33244 8.41509 6.96552 9.03997 6.72849C9.66484 6.49145 10.3329 6.38971 11 6.42997H21C21.6671 6.38971 22.3352 6.49145 22.96 6.72849C23.5849 6.96552 24.1524 7.33244 24.625 7.80501C25.0975 8.27759 25.4645 8.84506 25.7015 9.46993C25.9385 10.0948 26.0403 10.7629 26 11.43V17.43C26.0403 18.0971 25.9385 18.7651 25.7015 19.39C25.4645 20.0149 25.0975 20.5823 24.625 21.0549C24.1524 21.5275 23.5849 21.8944 22.96 22.1314C22.3352 22.3685 21.6671 22.4702 21 22.43Z" fill="#F4F7F7"/>
<path d="M18.8333 12.7501H18.25V12.1667C18.25 12.0301 18.1367 11.9167 18 11.9167C17.8633 11.9167 17.75 12.0301 17.75 12.1667V12.7501H17.1667C17.03 12.7501 16.9167 12.8634 16.9167 13.0001C16.9167 13.1367 17.03 13.2501 17.1667 13.2501H17.75V13.8334C17.75 13.9701 17.8633 14.0834 18 14.0834C18.1367 14.0834 18.25 13.9701 18.25 13.8334V13.2501H18.8333C18.97 13.2501 19.0833 13.1367 19.0833 13.0001C19.0833 12.8634 18.97 12.7501 18.8333 12.7501Z" fill="#F4F7F7"/>
<path d="M15.6833 15.9834L15.0667 16.6001C14.9367 16.7301 14.73 16.7301 14.5967 16.6034C14.56 16.5667 14.5233 16.5334 14.4867 16.4967C14.1433 16.1501 13.8333 15.7867 13.5567 15.4067C13.2833 15.0267 13.0633 14.6467 12.9033 14.2701C12.7467 13.8901 12.6667 13.5267 12.6667 13.1801C12.6667 12.9534 12.7067 12.7367 12.7867 12.5367C12.8667 12.3334 12.9933 12.1467 13.17 11.9801C13.3833 11.7701 13.6167 11.6667 13.8633 11.6667C13.9567 11.6667 14.05 11.6867 14.1333 11.7267C14.22 11.7667 14.2967 11.8267 14.3567 11.9134L15.13 13.0034C15.19 13.0867 15.2333 13.1634 15.2633 13.2367C15.2933 13.3067 15.31 13.3767 15.31 13.4401C15.31 13.5201 15.2867 13.6001 15.24 13.6767C15.1967 13.7534 15.1333 13.8334 15.0533 13.9134L14.8 14.1767C14.7633 14.2134 14.7467 14.2567 14.7467 14.3101C14.7467 14.3367 14.75 14.3601 14.7567 14.3867C14.7667 14.4134 14.7767 14.4334 14.7833 14.4534C14.8433 14.5634 14.9467 14.7067 15.0933 14.8801C15.2433 15.0534 15.4033 15.2301 15.5767 15.4067C15.61 15.4401 15.6467 15.4734 15.68 15.5067C15.8133 15.6367 15.8167 15.8501 15.6833 15.9834Z" fill="#F4F7F7"/>
<path d="M19.3233 17.1099C19.3233 17.2033 19.3067 17.2999 19.2733 17.3933C19.2633 17.4199 19.2533 17.4466 19.24 17.4733C19.1833 17.5933 19.11 17.7066 19.0133 17.8133C18.85 17.9933 18.67 18.1233 18.4667 18.2066C18.4633 18.2066 18.46 18.2099 18.4567 18.2099C18.26 18.2899 18.0467 18.3333 17.8167 18.3333C17.4767 18.3333 17.1133 18.2533 16.73 18.0899C16.3467 17.9266 15.9633 17.7066 15.5833 17.4299C15.4533 17.3333 15.3233 17.2366 15.2 17.1333L16.29 16.0433C16.3833 16.1133 16.4667 16.1666 16.5367 16.2033C16.5533 16.2099 16.5733 16.2199 16.5967 16.2299C16.6233 16.2399 16.65 16.2433 16.68 16.2433C16.7367 16.2433 16.78 16.2233 16.8167 16.1866L17.07 15.9366C17.1533 15.8533 17.2333 15.7899 17.31 15.7499C17.3867 15.7033 17.4633 15.6799 17.5467 15.6799C17.61 15.6799 17.6767 15.6933 17.75 15.7233C17.8233 15.7533 17.9 15.7966 17.9833 15.8533L19.0867 16.6366C19.1733 16.6966 19.2333 16.7666 19.27 16.8499C19.3033 16.9333 19.3233 17.0166 19.3233 17.1099Z" fill="#F4F7F7"/>
</svg>
