<svg width="50" height="26" viewBox="0 0 50 26" fill="none" xmlns="http://www.w3.org/2000/svg">
<g clip-path="url(#clip0_2476_12264)">
<path d="M47.7174 0.116133L44.6116 4.59355C44.5329 4.7071 44.5613 4.86323 44.6748 4.94323L45.1329 5.26065C45.2464 5.33936 45.4038 5.31097 45.4826 5.19742L48.5884 0.720003C48.6697 0.602584 48.64 0.441294 48.5238 0.360003L48.0787 0.0503261C47.9613 -0.0309643 47.8 -0.00257717 47.7187 0.114842L47.7174 0.116133Z" fill="#FF5100"/>
<path d="M44.6206 0.712233L47.7084 5.20255C47.7871 5.31739 47.9432 5.34578 48.0581 5.26707L48.5174 4.95223C48.6323 4.87352 48.6606 4.71739 48.5819 4.60255L45.4942 0.112233C45.4129 -0.0051868 45.2529 -0.0348642 45.1355 0.0451358L44.6877 0.352233C44.5703 0.433523 44.5406 0.593523 44.6206 0.712233Z" fill="#FF5100"/>
<path d="M49.3264 2.14577L43.8774 2.10706C43.7393 2.10706 43.6258 2.21802 43.6245 2.35609L43.6206 2.91351C43.6206 3.05286 43.7316 3.16512 43.8697 3.16641L49.3187 3.20383C49.4619 3.20383 49.5781 3.09028 49.5793 2.94706L49.5832 2.40512C49.5832 2.26189 49.4697 2.14577 49.3264 2.14448V2.14577Z" fill="#FF5100"/>
<path d="M6.68903 2.41029C7.4529 3.09674 7.83484 4.03352 7.83484 5.22061C7.83484 5.90191 7.70323 6.53932 7.44 7.13287C7.17677 7.72642 6.74839 8.21416 6.15484 8.5961C5.56129 8.97803 4.79484 9.169 3.85548 9.169H2.24516V12.7767H0V1.38062H3.4529C4.84645 1.38062 5.92516 1.72384 6.68903 2.41029ZM4.86194 6.69932C5.12 6.50836 5.30581 6.28384 5.41935 6.02578C5.5329 5.76771 5.58968 5.51997 5.58968 5.28255C5.58968 4.87997 5.47097 4.49029 5.23355 4.11352C4.99613 3.73674 4.53677 3.54836 3.85548 3.54836H2.24516V6.98578H3.84C4.26323 6.98578 4.60387 6.89029 4.86194 6.69932Z" fill="#00C4B3"/>
<path d="M29.289 1.38067V13.2413H29.2271L21.2529 6.04132L21.2994 12.7768H19.0232V0.931641H19.1161L27.0748 8.24003L27.0284 1.38067H29.289Z" fill="#00C4B3"/>
<path d="M40.649 12.2116C40.2 12.4128 39.7045 12.578 39.1626 12.707C38.6207 12.8361 38.1278 12.9006 37.6839 12.9006C36.4761 12.9006 35.4155 12.6657 34.5019 12.1961C33.5884 11.7264 32.8839 11.0761 32.3884 10.2451C31.8929 9.41413 31.6452 8.46704 31.6452 7.40381C31.6452 6.0722 31.9084 4.94446 32.4348 4.02058C32.9613 3.09671 33.6684 2.4051 34.5561 1.94575C35.4439 1.48639 36.4245 1.25671 37.4981 1.25671C38.1897 1.25671 38.84 1.33413 39.449 1.48897C40.0581 1.64381 40.5948 1.8451 41.0594 2.09284L40.3316 4.18317C40.0323 4.018 39.6219 3.86575 39.1007 3.72639C38.5794 3.58704 38.1432 3.51736 37.7923 3.51736C36.5536 3.51736 35.6065 3.82704 34.951 4.44639C34.2955 5.06575 33.9678 5.98446 33.9678 7.20252C33.9678 7.90446 34.1278 8.51607 34.4478 9.03736C34.7678 9.55865 35.2142 9.95865 35.7871 10.2374C36.36 10.5161 37.0129 10.6554 37.7458 10.6554C38.4787 10.6554 38.969 10.5574 39.3097 10.3612V8.98317H37.3432V6.81542H41.5858V11.6309C41.4103 11.8167 41.0981 12.0103 40.649 12.2116Z" fill="#00C4B3"/>
<path d="M6.68903 15.1691C7.4529 15.8555 7.83484 16.7923 7.83484 17.9794C7.83484 18.6607 7.70323 19.2981 7.44 19.8917C7.17677 20.4852 6.74839 20.973 6.15484 21.3549C5.56129 21.7368 4.79484 21.9278 3.85548 21.9278H2.24516V25.5355H0V14.1394H3.4529C4.84645 14.1394 5.92516 14.4826 6.68903 15.1691ZM4.86194 19.4581C5.12 19.2671 5.30581 19.0426 5.41935 18.7846C5.5329 18.5265 5.58968 18.2788 5.58968 18.0413C5.58968 17.6388 5.47097 17.2491 5.23355 16.8723C4.99613 16.4955 4.53677 16.3071 3.85548 16.3071H2.24516V19.7446H3.84C4.26323 19.7446 4.60387 19.6491 4.86194 19.4581Z" fill="#00C4B3"/>
<path d="M29.3032 14.1393V26H29.2413L21.2671 18.8L21.3135 25.5355H19.0374V13.6903H19.1303L27.089 20.9987L27.0426 14.1393H29.3032Z" fill="#00C4B3"/>
<path d="M40.5523 24.9703C40.1032 25.1716 39.6078 25.3368 39.0658 25.4658C38.5239 25.5949 38.031 25.6594 37.5871 25.6594C36.3794 25.6594 35.3187 25.4245 34.4052 24.9549C33.4916 24.4852 32.7871 23.8349 32.2916 23.0039C31.7961 22.1729 31.5484 21.2258 31.5484 20.1626C31.5484 18.831 31.8116 17.7032 32.3381 16.7794C32.8645 15.8555 33.5716 15.1639 34.4594 14.7045C35.3471 14.2452 36.3278 14.0155 37.4013 14.0155C38.0929 14.0155 38.7432 14.0929 39.3523 14.2478C39.9613 14.4026 40.4981 14.6039 40.9626 14.8516L40.2349 16.942C39.9355 16.7768 39.5252 16.6245 39.0039 16.4852C38.4826 16.3458 38.0465 16.2761 37.6955 16.2761C36.4568 16.2761 35.5097 16.5858 34.8542 17.2052C34.1987 17.8245 33.871 18.7432 33.871 19.9613C33.871 20.6632 34.031 21.2749 34.351 21.7961C34.671 22.3174 35.1174 22.7174 35.6903 22.9961C36.2632 23.2749 36.9161 23.4142 37.649 23.4142C38.3819 23.4142 38.8723 23.3161 39.2129 23.12V21.742H37.2465V19.5742H41.489V24.3897C41.3136 24.5755 41.0013 24.7691 40.5523 24.9703Z" fill="black"/>
<path d="M40.5523 24.9703C40.1032 25.1716 39.6078 25.3368 39.0658 25.4658C38.5239 25.5949 38.031 25.6594 37.5871 25.6594C36.3794 25.6594 35.3187 25.4245 34.4052 24.9549C33.4916 24.4852 32.7871 23.8349 32.2916 23.0039C31.7961 22.1729 31.5484 21.2258 31.5484 20.1626C31.5484 18.831 31.8116 17.7032 32.3381 16.7794C32.8645 15.8555 33.5716 15.1639 34.4594 14.7045C35.3471 14.2452 36.3278 14.0155 37.4013 14.0155C38.0929 14.0155 38.7432 14.0929 39.3523 14.2478C39.9613 14.4026 40.4981 14.6039 40.9626 14.8516L40.2349 16.942C39.9355 16.7768 39.5252 16.6245 39.0039 16.4852C38.4826 16.3458 38.0465 16.2761 37.6955 16.2761C36.4568 16.2761 35.5097 16.5858 34.8542 17.2052C34.1987 17.8245 33.871 18.7432 33.871 19.9613C33.871 20.6632 34.031 21.2749 34.351 21.7961C34.671 22.3174 35.1174 22.7174 35.6903 22.9961C36.2632 23.2749 36.9161 23.4142 37.649 23.4142C38.3819 23.4142 38.8723 23.3161 39.2129 23.12V21.742H37.2465V19.5742H41.489V24.3897C41.3136 24.5755 41.0013 24.7691 40.5523 24.9703Z" fill="#00C4B3"/>
<path d="M14.2219 5.04907H11.9071V17.5497H14.2219V5.04907Z" fill="url(#paint0_linear_2476_12264)"/>
<path d="M13.0155 24.2103C11.0684 24.1936 9.5071 22.6181 9.52001 20.6787C9.53291 18.791 11.2142 17.1316 13.0748 17.1703C14.9652 17.2091 16.6271 18.8865 16.6078 20.7368C16.5884 22.6155 14.9239 24.2258 13.0155 24.2103Z" fill="#FF5100"/>
<path d="M13.04 4.36003C12.04 4.35229 11.24 3.54325 11.2464 2.54841C11.2529 1.57938 12.1161 0.727769 13.071 0.748415C14.0413 0.767769 14.8929 1.62841 14.8839 2.57809C14.8735 3.54196 14.0193 4.36906 13.04 4.36003Z" fill="#FF5100"/>
</g>
<defs>
<linearGradient id="paint0_linear_2476_12264" x1="13.1019" y1="17.0478" x2="13.0194" y2="4.34972" gradientUnits="userSpaceOnUse">
<stop stop-color="white"/>
<stop offset="0.98" stop-color="#FF5100"/>
</linearGradient>
<clipPath id="clip0_2476_12264">
<rect width="49.5832" height="26" fill="white"/>
</clipPath>
</defs>
</svg>
