<svg width="320" height="250" viewBox="0 0 320 250" fill="none" xmlns="http://www.w3.org/2000/svg">
<path d="M272.078 156.362C299.45 96.6063 247.515 7.81581 148.221 13.8507C93.0247 17.2043 21.0701 59.2653 27.9674 143.324C31.1245 181.809 84.2293 225.702 133.68 175.99C169.826 139.655 247.556 209.89 272.076 156.362H272.078Z" fill="#F4F7F7"/>
<path d="M206.989 228.003C229.076 228.003 246.981 225.504 246.981 222.421C246.981 219.338 229.076 216.838 206.989 216.838C184.902 216.838 166.996 219.338 166.996 222.421C166.996 225.504 184.902 228.003 206.989 228.003Z" fill="#F4F7F7"/>
<path d="M214.59 77.6673H97.4324C93.3732 77.6673 90.0825 80.958 90.0825 85.0172V161.52C90.0825 165.579 93.3732 168.87 97.4324 168.87H214.59C218.649 168.87 221.94 165.579 221.94 161.52V85.0172C221.94 80.958 218.649 77.6673 214.59 77.6673Z" fill="#CBF2EE"/>
<path fill-rule="evenodd" clip-rule="evenodd" d="M52.7512 95.8862C52.1851 96.942 52.5821 98.2568 53.6379 98.8229C54.6936 99.389 56.0084 98.992 56.5745 97.9363C57.1406 96.8805 56.7437 95.5657 55.6879 94.9996C54.6321 94.4335 53.3173 94.8304 52.7512 95.8862ZM53.374 99.315C52.0464 98.6032 51.5473 96.9499 52.2591 95.6224C52.9709 94.2948 54.6242 93.7956 55.9518 94.5075C57.2793 95.2193 57.7785 96.8726 57.0666 98.2001C56.3548 99.5277 54.7016 100.027 53.374 99.315Z" fill="#6BDDD3"/>
<path fill-rule="evenodd" clip-rule="evenodd" d="M163.832 42.6368C163.514 43.7916 164.192 44.986 165.346 45.3046C166.501 45.6231 167.696 44.9451 168.014 43.7903C168.333 42.6354 167.655 41.441 166.5 41.1225C165.345 40.8039 164.151 41.4819 163.832 42.6368ZM165.198 45.8428C163.746 45.4423 162.893 43.9404 163.294 42.4883C163.694 41.0361 165.196 40.1836 166.648 40.5842C168.101 40.9847 168.953 42.4866 168.552 43.9387C168.152 45.3909 166.65 46.2434 165.198 45.8428Z" fill="#6BDDD3"/>
<path fill-rule="evenodd" clip-rule="evenodd" d="M261.278 146.005C260.961 147.16 261.64 148.354 262.795 148.671C263.95 148.989 265.144 148.31 265.462 147.154C265.779 145.999 265.1 144.806 263.945 144.488C262.79 144.17 261.596 144.849 261.278 146.005ZM262.647 149.21C261.195 148.81 260.341 147.309 260.74 145.857C261.139 144.404 262.64 143.55 264.093 143.95C265.545 144.349 266.399 145.85 266 147.302C265.601 148.755 264.1 149.609 262.647 149.21Z" fill="#6BDDD3"/>
<path d="M196.707 103.969C196.707 105.691 195.311 107.087 193.589 107.087H115.162C113.441 107.087 112.045 105.691 112.045 103.969C112.045 102.248 113.441 100.852 115.162 100.852H193.589C195.311 100.852 196.707 102.248 196.707 103.969Z" fill="#06302F"/>
<path d="M159.952 205.129L119.376 205.155L118.909 117.23C118.869 109.907 123.616 103.973 129.508 103.976L174.275 104.004C178.62 103.817 182.957 104.356 185.131 107.1C181.648 107.283 178.531 106.748 178.386 110.905L178.455 122.9L178.761 180.223C178.835 194.078 171.102 205.135 159.954 205.129H159.952Z" fill="white"/>
<path d="M165.058 126.655H132.158C131.623 126.655 131.131 126.128 131.061 125.484C130.992 124.84 131.373 124.313 131.909 124.313H164.809C165.344 124.313 165.837 124.84 165.906 125.484C165.975 126.128 165.594 126.655 165.058 126.655Z" fill="#DFE5E5"/>
<path d="M163.862 137.313H130.962C130.427 137.313 129.934 136.786 129.865 136.141C129.796 135.497 130.177 134.97 130.713 134.97H163.613C164.148 134.97 164.641 135.497 164.71 136.141C164.779 136.786 164.398 137.313 163.862 137.313Z" fill="#DFE5E5"/>
<path d="M163.286 147.97H130.386C129.85 147.97 129.358 147.443 129.289 146.799C129.219 146.154 129.601 145.627 130.136 145.627H163.037C163.572 145.627 164.064 146.154 164.133 146.799C164.203 147.443 163.821 147.97 163.286 147.97Z" fill="#DFE5E5"/>
<path d="M163.124 159.582H130.224C129.688 159.582 129.196 159.055 129.127 158.411C129.057 157.766 129.439 157.239 129.974 157.239H162.875C163.41 157.239 163.902 157.766 163.972 158.411C164.041 159.055 163.659 159.582 163.124 159.582Z" fill="#DFE5E5"/>
<path d="M162.075 174.548H143.265C142.73 174.548 142.237 174.021 142.168 173.377C142.098 172.732 142.48 172.205 143.015 172.205H161.825C162.361 172.205 162.853 172.732 162.922 173.377C162.992 174.021 162.61 174.548 162.075 174.548Z" fill="#DFE5E5"/>
<path d="M160.124 205.127L105.113 205.154C97.0556 205.01 93.8556 196.358 89.3835 184.634C82.1773 165.742 76.3142 140.298 76.3142 140.298L115.286 137.402C126.506 137.418 131.514 141.086 135.882 151.657C136.946 154.233 148.913 204.602 160.125 205.127H160.124Z" fill="#06302F"/>
<path d="M99.8806 181.738H60.0383L71.7744 142.338C73.8576 139.06 79.9586 136.404 85.4004 136.404H111.932C117.539 136.584 123.581 138.378 123.581 138.378C106.836 137.689 100.71 148.062 100.439 160.226L99.8822 181.738H99.8806Z" fill="white"/>
<path fill-rule="evenodd" clip-rule="evenodd" d="M79.3443 139.196C78.4902 141.912 79.3394 144.641 82.3527 145.987L98.1098 149.43L97.5531 146.116L86.2779 141.657L79.3443 139.194V139.196Z" fill="#D27457"/>
<path d="M96.7501 145.974L99.689 146.11C100.276 146.138 100.832 146.376 101.258 146.78L102.983 148.418C103.585 148.988 103.431 149.984 102.684 150.345L99.0067 149.957C98.1956 149.871 97.3943 149.46 96.7649 148.804L95.7175 147.71L96.7501 145.974Z" fill="#D27457"/>
<path fill-rule="evenodd" clip-rule="evenodd" d="M96.9566 145.08L94.7991 149.685C94.7991 149.685 81.9859 146.599 80.7633 146.161C79.5408 145.723 76.549 143.427 75.2488 141.177C73.4712 138.104 65.8801 127.65 65.8801 127.65C65.8801 127.65 70.7867 118.869 74.5434 124.907C77.4708 129.612 85.171 139.835 85.171 139.835L96.9583 145.082L96.9566 145.08Z" fill="#FFE2D5"/>
<path d="M95.8662 153.59H73.2052C72.5609 153.59 72.0339 153.063 72.0339 152.419C72.0339 151.774 72.5609 151.247 73.2052 151.247H95.8662C96.5105 151.247 97.0375 151.774 97.0375 152.419C97.0375 153.063 96.5105 153.59 95.8662 153.59Z" fill="#DFE5E5"/>
<path d="M95.108 169.108H72.4469C71.8026 169.108 71.2756 168.581 71.2756 167.936C71.2756 167.292 71.8026 166.765 72.4469 166.765H95.108C95.7523 166.765 96.2792 167.292 96.2792 167.936C96.2792 168.581 95.7523 169.108 95.108 169.108Z" fill="#DFE5E5"/>
<path fill-rule="evenodd" clip-rule="evenodd" d="M67.4776 114.708C67.4809 114.744 67.8229 115.359 68.3862 116.199C68.6671 116.617 67.7783 117.308 67.357 117.072C66.9374 116.836 66.5938 115.291 66.5938 115.291L67.4759 114.708H67.4776Z" fill="#D27457"/>
<path fill-rule="evenodd" clip-rule="evenodd" d="M66.0982 116.968C66.0982 116.968 65.4225 119.695 64.8624 121.955C64.7137 122.557 64.195 123.034 63.5061 123.204C62.8172 123.373 62.0655 123.209 61.5385 122.773C61.3667 122.631 61.1982 122.49 61.0396 122.36C60.3177 121.762 60.05 120.871 60.354 120.07C61.1338 118.02 62.5529 114.283 62.5529 114.283L66.0982 116.969V116.968Z" fill="#D27457"/>
<path fill-rule="evenodd" clip-rule="evenodd" d="M65.8784 118.483L65.2325 120.396L63.2583 117.734L65.8784 118.483Z" fill="#AE6148"/>
<path fill-rule="evenodd" clip-rule="evenodd" d="M62.039 113.209C62.039 112.388 62.6998 111.723 63.511 111.719C64.3783 111.716 65.4703 111.714 66.3376 111.711C67.1504 111.709 67.6824 112.382 67.8063 113.193C67.9533 114.149 67.8063 116.135 67.5238 117.564C67.3652 118.37 66.7341 119.114 65.9213 119.115C65.054 119.117 62.457 118.291 62.2092 116.727C62.0192 115.535 62.0374 114.419 62.039 113.211V113.209Z" fill="#D27457"/>
<path fill-rule="evenodd" clip-rule="evenodd" d="M62.1976 117.571C60.0334 116.662 59.2206 113.986 60.5505 112.053C60.8248 111.653 61.1139 111.321 61.403 111.118C63.1294 109.907 65.2374 109.377 67.1703 111.181C67.4808 111.47 67.5816 111.921 67.4098 112.309C66.9125 113.436 65.5232 115.841 62.2009 117.574H62.1976V117.571Z" fill="black"/>
<path fill-rule="evenodd" clip-rule="evenodd" d="M63.696 116.066C63.924 116.698 64.5286 117.057 65.0473 116.864C65.5661 116.672 65.804 116.003 65.576 115.37C65.348 114.737 64.7434 114.379 64.2246 114.572C63.7059 114.764 63.468 115.433 63.696 116.066Z" fill="#D27457"/>
<path d="M66.2336 224.147C78.9588 224.147 89.2746 223.026 89.2746 221.643C89.2746 220.259 78.9588 219.138 66.2336 219.138C53.5084 219.138 43.1926 220.259 43.1926 221.643C43.1926 223.026 53.5084 224.147 66.2336 224.147Z" fill="#F4F7F7"/>
<path fill-rule="evenodd" clip-rule="evenodd" d="M67.666 217.717C67.666 217.717 61.3948 195.881 65.6686 187.125L61.4031 157.831L76.0352 156.896L70.861 217.891L67.6676 217.717H67.666Z" fill="#D27457"/>
<path fill-rule="evenodd" clip-rule="evenodd" d="M70.9618 216.848L73.7389 218.87C74.284 219.371 77.2643 220.341 77.2643 220.341C77.5617 220.962 76.9802 221.289 76.4879 221.37L67.6974 221.187C67.6974 221.187 65.667 220.765 67.4677 216.852C69.0669 217.557 70.5438 218.064 70.9618 216.847V216.848Z" fill="black"/>
<path fill-rule="evenodd" clip-rule="evenodd" d="M55.6539 142.431L74.7779 143.888C77.8887 145.029 75.898 162.627 75.898 162.627L64.0711 163.547C58.0742 163.453 49.4951 163.557 50.1956 155.046C51.1108 143.926 55.6523 142.431 55.6523 142.431H55.6539Z" fill="#00312F"/>
<path fill-rule="evenodd" clip-rule="evenodd" d="M76.0351 160.21L74.4822 187.901L73.4513 212.318H63.212C63.212 212.318 64.1685 207.888 64.0545 206.48C63.9422 205.074 61.5831 192.362 63.5441 186.535L61.0544 160.21H76.0335H76.0351Z" fill="#00312F"/>
<path fill-rule="evenodd" clip-rule="evenodd" d="M51.9335 217.775C51.9335 217.775 47.098 195.938 51.9484 187.183L53.4898 163.339L61.9383 163.914L55.117 217.947L51.9352 217.773L51.9335 217.775Z" fill="#D27457"/>
<path fill-rule="evenodd" clip-rule="evenodd" d="M55.2872 216.906L56.713 218.514C57.2251 219.014 58.8887 220.068 58.8887 220.068C58.8887 220.068 60.5159 221.537 58.028 221.355L51.737 221.244C51.737 221.244 49.7347 220.823 51.7932 216.909C53.3461 217.615 54.79 218.122 55.2872 216.905V216.906Z" fill="black"/>
<path fill-rule="evenodd" clip-rule="evenodd" d="M62.5926 159.529L60.0138 187.394L57.1822 212.523L49.2375 212.193C49.2375 212.193 49.1632 208.525 49.1434 207.119C49.1235 205.714 46.9577 192.899 50.4832 186.763L51.0729 159.072L62.5926 159.531V159.529Z" fill="#00312F"/>
<path fill-rule="evenodd" clip-rule="evenodd" d="M57.6366 160.548C57.6795 160.4 57.8348 160.314 57.9833 160.357L60.653 161.129C60.7587 161.159 60.8367 161.249 60.8524 161.358L62.5127 172.864C62.5348 173.017 62.4286 173.159 62.2756 173.181C62.1225 173.203 61.9805 173.097 61.9584 172.944L60.3239 161.616L57.8278 160.895C57.6793 160.852 57.5936 160.697 57.6366 160.548Z" fill="#DFE5E5"/>
<path fill-rule="evenodd" clip-rule="evenodd" d="M65.1895 120.508L61.484 120.336L60.2896 120.273L55.0625 122.41C52.7397 123.559 50.7854 125.395 50.26 129.104C50.26 129.104 49.619 148.845 49.2126 154.965C58.9894 158.596 73.7438 158.061 76.8298 153.574C76.5555 147.112 76.6794 136.847 75.2752 131.369C74.2906 127.526 74.8292 126.009 73.2118 123.267C72.0339 121.27 66.0981 120.728 65.1895 120.506V120.508Z" fill="#FFE2D5"/>
<path d="M101.703 86.5239C102.9 86.5239 103.87 85.5535 103.87 84.3564C103.87 83.1594 102.9 82.189 101.703 82.189C100.506 82.189 99.5354 83.1594 99.5354 84.3564C99.5354 85.5535 100.506 86.5239 101.703 86.5239Z" fill="white"/>
<path d="M109.877 86.5239C111.074 86.5239 112.045 85.5535 112.045 84.3564C112.045 83.1594 111.074 82.189 109.877 82.189C108.68 82.189 107.71 83.1594 107.71 84.3564C107.71 85.5535 108.68 86.5239 109.877 86.5239Z" fill="white"/>
<path d="M118.05 86.5239C119.247 86.5239 120.217 85.5535 120.217 84.3564C120.217 83.1594 119.247 82.189 118.05 82.189C116.853 82.189 115.882 83.1594 115.882 84.3564C115.882 85.5535 116.853 86.5239 118.05 86.5239Z" fill="white"/>
<path fill-rule="evenodd" clip-rule="evenodd" d="M96.7053 91.4321C96.7053 91.2935 96.8177 91.181 96.9564 91.181H210.585C210.724 91.181 210.836 91.2935 210.836 91.4321C210.836 91.5708 210.724 91.6833 210.585 91.6833H96.9564C96.8177 91.6833 96.7053 91.5708 96.7053 91.4321Z" fill="#00C4B3"/>
<path fill-rule="evenodd" clip-rule="evenodd" d="M100.399 161.751C100.538 161.755 100.647 161.87 100.644 162.009L100.132 181.744C100.128 181.88 100.017 181.989 99.8806 181.989H81.4174C81.2787 181.989 81.1663 181.876 81.1663 181.738C81.1663 181.599 81.2787 181.486 81.4174 181.486H99.6359L100.142 161.996C100.145 161.857 100.261 161.748 100.399 161.751Z" fill="#00C4B3"/>
<path fill-rule="evenodd" clip-rule="evenodd" d="M69.2717 132.135C69.2717 132.005 69.3768 131.9 69.5063 131.9H69.8516C69.9318 131.9 70.0065 131.941 70.0496 132.009L76.2331 141.736C76.3027 141.846 76.2704 141.991 76.161 142.06C76.0517 142.13 75.9067 142.097 75.8372 141.988L69.7227 132.37H69.5063C69.3768 132.37 69.2717 132.265 69.2717 132.135Z" fill="#DFE5E5"/>
<path d="M233.187 164.586C233.172 162.694 231.593 161.161 229.66 161.163L189.124 161.206C187.191 161.208 185.636 162.744 185.649 164.636L186.076 219.819C186.091 221.71 187.67 223.243 189.603 223.242L230.141 223.199C232.073 223.197 233.628 221.661 233.615 219.769L233.189 164.586H233.187Z" fill="#06302F"/>
<path d="M226.921 223.199L186.383 223.242C184.45 223.243 182.871 221.712 182.856 219.819L182.43 164.636C182.415 162.744 183.971 161.208 185.904 161.206L226.442 161.163C228.375 161.161 229.954 162.693 229.969 164.586L230.395 219.769C230.41 221.661 228.854 223.197 226.921 223.199Z" fill="#DEE5E5"/>
<path d="M221.958 181.263L190.019 181.298C188.77 181.298 187.751 180.31 187.741 179.088L187.662 168.724C187.652 167.502 188.656 166.511 189.905 166.509L221.844 166.474C223.093 166.474 224.112 167.462 224.122 168.685L224.202 179.048C224.211 180.271 223.207 181.262 221.958 181.263Z" fill="#6A7070"/>
<path fill-rule="evenodd" clip-rule="evenodd" d="M221.844 166.151C223.264 166.151 224.435 167.275 224.446 168.682L224.525 179.045C224.525 179.045 224.525 179.045 224.525 179.045C224.537 180.454 223.38 181.585 221.959 181.587L190.02 181.622H190.019C188.599 181.622 187.429 180.497 187.417 179.09L187.338 168.727C187.338 168.727 187.338 168.727 187.338 168.727C187.327 167.318 188.483 166.187 189.905 166.185L221.844 166.151ZM221.844 166.798C221.844 166.798 221.844 166.798 221.844 166.798L189.906 166.833C189.906 166.833 189.906 166.833 189.906 166.833C188.83 166.834 187.977 167.686 187.986 168.722L188.065 179.085C188.065 179.085 188.065 179.085 188.065 179.085C188.073 180.123 188.941 180.974 190.019 180.974C190.019 180.974 190.019 180.974 190.019 180.974L221.958 180.94C223.034 180.938 223.886 180.087 223.878 179.051L223.798 168.687C223.798 168.687 223.798 168.687 223.798 168.687C223.79 167.65 222.922 166.798 221.844 166.798Z" fill="white"/>
<path d="M194.078 194.065L190.868 194.068C189.426 194.068 188.252 192.907 188.24 191.463C188.229 190.006 189.406 188.82 190.862 188.818L194.072 188.815C195.514 188.815 196.689 189.976 196.7 191.42C196.712 192.877 195.534 194.063 194.078 194.065Z" fill="white"/>
<path d="M207.676 194.05L204.466 194.053C203.022 194.053 201.85 192.892 201.838 191.448C201.826 189.991 203.004 188.805 204.46 188.803L207.67 188.8C209.112 188.8 210.286 189.961 210.298 191.405C210.31 192.862 209.132 194.049 207.676 194.05Z" fill="white"/>
<path d="M221.4 194.035L218.19 194.039C216.748 194.039 215.573 192.877 215.561 191.433C215.55 189.976 216.728 188.79 218.183 188.788L221.393 188.785C222.837 188.785 224.01 189.947 224.021 191.39C224.033 192.847 222.855 194.034 221.4 194.035Z" fill="white"/>
<path d="M194.154 203.888L190.944 203.891C189.502 203.891 188.328 202.73 188.316 201.286C188.304 199.829 189.482 198.643 190.938 198.641L194.148 198.638C195.59 198.638 196.765 199.799 196.776 201.243C196.788 202.7 195.61 203.886 194.154 203.888Z" fill="white"/>
<path d="M207.752 203.873L204.542 203.877C203.098 203.877 201.925 202.715 201.914 201.271C201.902 199.814 203.08 198.628 204.536 198.626L207.746 198.623C209.188 198.623 210.362 199.784 210.374 201.228C210.386 202.685 209.208 203.872 207.752 203.873Z" fill="white"/>
<path d="M221.476 203.858L218.266 203.862C216.824 203.862 215.649 202.7 215.638 201.256C215.626 199.799 216.804 198.613 218.259 198.611L221.469 198.608C222.911 198.608 224.086 199.77 224.098 201.213C224.109 202.671 222.931 203.857 221.476 203.858Z" fill="white"/>
<path d="M194.23 213.709L191.02 213.713C189.576 213.713 188.403 212.551 188.392 211.107C188.38 209.65 189.558 208.464 191.014 208.463L194.224 208.459C195.666 208.459 196.84 209.621 196.852 211.065C196.864 212.522 195.686 213.708 194.23 213.709Z" fill="white"/>
<path d="M207.827 213.696L204.617 213.7C203.175 213.7 202 212.538 201.988 211.094C201.977 209.637 203.155 208.451 204.61 208.449L207.82 208.446C209.262 208.446 210.437 209.607 210.448 211.051C210.46 212.508 209.282 213.695 207.827 213.696Z" fill="white"/>
<path d="M221.552 213.681L218.342 213.685C216.898 213.685 215.725 212.523 215.713 211.079C215.702 209.622 216.88 208.436 218.335 208.434L221.545 208.431C222.987 208.431 224.162 209.593 224.174 211.036C224.185 212.494 223.007 213.68 221.552 213.681Z" fill="#F7B387"/>
<path d="M190.835 178.832C190.331 178.832 189.915 178.429 189.912 177.935C189.909 177.441 190.317 177.037 190.821 177.036C191.324 177.036 191.741 177.439 191.744 177.933C191.747 178.427 191.339 178.83 190.835 178.832Z" fill="white"/>
<path fill-rule="evenodd" clip-rule="evenodd" d="M219.498 218.031C219.498 218.21 219.354 218.355 219.175 218.355L192.678 218.383C192.499 218.383 192.354 218.238 192.354 218.06C192.353 217.881 192.498 217.736 192.677 217.735L219.174 217.707C219.353 217.707 219.498 217.852 219.498 218.031Z" fill="white"/>
<path d="M202.851 152.82H211.129V126.089H202.851V152.82Z" fill="white"/>
<path d="M206.883 158.771L216.711 148.188H197.267L206.883 158.771Z" fill="white"/>
<path fill-rule="evenodd" clip-rule="evenodd" d="M226.708 62.2833C227.038 62.2833 227.306 62.5498 227.306 62.8786V74.7303C227.306 75.059 227.038 75.3255 226.708 75.3255C226.378 75.3255 226.11 75.059 226.11 74.7303V62.8786C226.11 62.5498 226.378 62.2833 226.708 62.2833Z" fill="#00C4B3"/>
<path d="M245.155 42.8511C248.433 32.8934 242.983 22.1749 232.982 18.9106C222.981 15.6463 212.215 21.0723 208.936 31.0301C205.658 40.9878 211.108 51.7063 221.109 54.9706C231.11 58.2349 241.876 52.8088 245.155 42.8511Z" fill="#6DAF3E"/>
<path fill-rule="evenodd" clip-rule="evenodd" d="M236.407 27.8425C236.968 28.2378 237.102 29.0113 236.705 29.5701L226.297 44.2238C226.074 44.5388 225.715 44.7321 225.328 44.7467C224.941 44.7612 224.569 44.5954 224.322 44.2981L219.638 38.6594C219.2 38.132 219.274 37.3507 219.804 36.9143C220.333 36.478 221.118 36.5519 221.556 37.0793L225.204 41.4704L234.672 28.1387C235.069 27.5798 235.846 27.4472 236.407 27.8425Z" fill="white"/>
</svg>
