<svg width="320" height="250" viewBox="0 0 320 250" fill="none" xmlns="http://www.w3.org/2000/svg">
<path d="M272.077 156.362C299.45 96.6063 247.514 7.81581 148.22 13.8507C93.024 17.2043 21.0694 59.2653 27.9667 143.324C31.1237 181.809 84.2285 225.702 133.679 175.99C169.826 139.655 247.556 209.89 272.075 156.362H272.077Z" fill="#393D3D"/>
<path d="M206.989 228.003C229.076 228.003 246.981 225.504 246.981 222.421C246.981 219.338 229.076 216.838 206.989 216.838C184.901 216.838 166.996 219.338 166.996 222.421C166.996 225.504 184.901 228.003 206.989 228.003Z" fill="#393D3D"/>
<path d="M214.59 77.6673H97.432C93.3727 77.6673 90.082 80.958 90.082 85.0172V161.52C90.082 165.579 93.3727 168.87 97.432 168.87H214.59C218.649 168.87 221.94 165.579 221.94 161.52V85.0172C221.94 80.958 218.649 77.6673 214.59 77.6673Z" fill="#1D7A72"/>
<path fill-rule="evenodd" clip-rule="evenodd" d="M52.7517 95.8862C52.1856 96.942 52.5826 98.2568 53.6383 98.8229C54.6941 99.389 56.0089 98.992 56.575 97.9362C57.1411 96.8805 56.7442 95.5657 55.6884 94.9996C54.6326 94.4334 53.3178 94.8304 52.7517 95.8862ZM53.3745 99.315C52.0469 98.6031 51.5478 96.9499 52.2596 95.6223C52.9714 94.2948 54.6247 93.7956 55.9523 94.5074C57.2798 95.2193 57.779 96.8725 57.0671 98.2001C56.3553 99.5277 54.702 100.027 53.3745 99.315Z" fill="#15D1C1"/>
<path fill-rule="evenodd" clip-rule="evenodd" d="M163.832 42.6368C163.513 43.7916 164.191 44.986 165.346 45.3046C166.501 45.6231 167.695 44.9451 168.014 43.7903C168.332 42.6354 167.655 41.441 166.5 41.1225C165.345 40.8039 164.15 41.4819 163.832 42.6368ZM165.198 45.8428C163.746 45.4423 162.893 43.9404 163.294 42.4883C163.694 41.0361 165.196 40.1836 166.648 40.5842C168.1 40.9847 168.953 42.4866 168.552 43.9387C168.152 45.3909 166.65 46.2434 165.198 45.8428Z" fill="#15D1C1"/>
<path fill-rule="evenodd" clip-rule="evenodd" d="M261.279 146.005C260.961 147.16 261.64 148.354 262.796 148.671C263.951 148.989 265.144 148.31 265.462 147.154C265.78 145.999 265.101 144.806 263.945 144.488C262.79 144.17 261.596 144.85 261.279 146.005ZM262.648 149.21C261.195 148.81 260.341 147.309 260.741 145.857C261.14 144.404 262.641 143.55 264.093 143.95C265.546 144.349 266.4 145.85 266 147.302C265.601 148.755 264.1 149.609 262.648 149.21Z" fill="#15D1C1"/>
<path d="M196.707 103.969C196.707 105.691 195.311 107.087 193.59 107.087H115.162C113.441 107.087 112.045 105.691 112.045 103.969C112.045 102.248 113.441 100.852 115.162 100.852H193.59C195.311 100.852 196.707 102.248 196.707 103.969Z" fill="#06302F"/>
<path d="M159.952 205.129L119.376 205.155L118.908 117.23C118.869 109.907 123.615 103.973 129.508 103.976L174.275 104.004C178.62 103.817 182.956 104.356 185.13 107.1C181.648 107.283 178.531 106.748 178.385 110.905L178.455 122.9L178.76 180.223C178.835 194.078 171.101 205.135 159.953 205.129H159.952Z" fill="white"/>
<path d="M165.058 126.655H132.158C131.623 126.655 131.13 126.128 131.061 125.484C130.991 124.84 131.373 124.313 131.908 124.313H164.809C165.344 124.313 165.836 124.84 165.906 125.484C165.975 126.128 165.593 126.655 165.058 126.655Z" fill="#DFE5E5"/>
<path d="M163.863 137.313H130.963C130.427 137.313 129.935 136.786 129.866 136.141C129.796 135.497 130.178 134.97 130.713 134.97H163.613C164.149 134.97 164.641 135.497 164.71 136.141C164.78 136.786 164.398 137.313 163.863 137.313Z" fill="#DFE5E5"/>
<path d="M163.287 147.97H130.386C129.851 147.97 129.359 147.443 129.289 146.799C129.22 146.154 129.602 145.627 130.137 145.627H163.037C163.573 145.627 164.065 146.154 164.134 146.799C164.204 147.443 163.822 147.97 163.287 147.97Z" fill="#DFE5E5"/>
<path d="M163.125 159.582H130.224C129.689 159.582 129.197 159.055 129.127 158.411C129.058 157.766 129.44 157.239 129.975 157.239H162.875C163.41 157.239 163.903 157.766 163.972 158.411C164.041 159.055 163.66 159.582 163.125 159.582Z" fill="#DFE5E5"/>
<path d="M162.075 174.548H143.265C142.73 174.548 142.238 174.021 142.168 173.377C142.099 172.732 142.481 172.205 143.016 172.205H161.826C162.361 172.205 162.853 172.732 162.923 173.377C162.992 174.021 162.611 174.548 162.075 174.548Z" fill="#DFE5E5"/>
<path d="M160.124 205.127L105.113 205.154C97.0558 205.01 93.8558 196.358 89.3837 184.634C82.1775 165.742 76.3145 140.298 76.3145 140.298L115.286 137.402C126.507 137.418 131.514 141.086 135.882 151.657C136.946 154.233 148.913 204.602 160.126 205.127H160.124Z" fill="#06302F"/>
<path d="M99.8813 181.738H60.0391L71.7751 142.338C73.8584 139.06 79.9594 136.404 85.4012 136.404H111.933C117.54 136.584 123.581 138.378 123.581 138.378C106.836 137.689 100.711 148.062 100.44 160.226L99.8829 181.738H99.8813Z" fill="white"/>
<path fill-rule="evenodd" clip-rule="evenodd" d="M79.3456 139.196C78.4914 141.912 79.3406 144.641 82.3539 145.987L98.1111 149.43L97.5543 146.116L86.2792 141.657L79.3456 139.194V139.196Z" fill="#D27457"/>
<path d="M96.7513 145.974L99.6902 146.11C100.277 146.138 100.833 146.376 101.26 146.78L102.984 148.418C103.586 148.988 103.432 149.984 102.685 150.345L99.008 149.957C98.1968 149.871 97.3956 149.46 96.7661 148.804L95.7188 147.71L96.7513 145.974Z" fill="#D27457"/>
<path fill-rule="evenodd" clip-rule="evenodd" d="M96.9574 145.08L94.7998 149.685C94.7998 149.685 81.9866 146.599 80.7641 146.161C79.5416 145.723 76.5497 143.427 75.2496 141.177C73.472 138.104 65.8809 127.65 65.8809 127.65C65.8809 127.65 70.7874 118.869 74.5442 124.907C77.4716 129.612 85.1717 139.835 85.1717 139.835L96.959 145.082L96.9574 145.08Z" fill="#FFE2D5"/>
<path d="M95.8655 153.59H73.2045C72.5602 153.59 72.0332 153.063 72.0332 152.419C72.0332 151.774 72.5602 151.247 73.2045 151.247H95.8655C96.5098 151.247 97.0368 151.774 97.0368 152.419C97.0368 153.063 96.5098 153.59 95.8655 153.59Z" fill="#DFE5E5"/>
<path d="M95.1077 169.108H72.4467C71.8024 169.108 71.2754 168.581 71.2754 167.936C71.2754 167.292 71.8024 166.765 72.4467 166.765H95.1077C95.752 166.765 96.279 167.292 96.279 167.936C96.279 168.581 95.752 169.108 95.1077 169.108Z" fill="#DFE5E5"/>
<path fill-rule="evenodd" clip-rule="evenodd" d="M67.4776 114.708C67.4809 114.744 67.8229 115.359 68.3862 116.199C68.6671 116.617 67.7783 117.308 67.357 117.072C66.9374 116.836 66.5938 115.291 66.5938 115.291L67.4759 114.708H67.4776Z" fill="#D27457"/>
<path fill-rule="evenodd" clip-rule="evenodd" d="M66.0982 116.968C66.0982 116.968 65.4225 119.695 64.8624 121.955C64.7137 122.557 64.195 123.034 63.5061 123.204C62.8172 123.373 62.0655 123.209 61.5385 122.773C61.3667 122.631 61.1982 122.49 61.0396 122.36C60.3177 121.762 60.05 120.871 60.354 120.07C61.1338 118.02 62.5529 114.283 62.5529 114.283L66.0982 116.969V116.968Z" fill="#D27457"/>
<path fill-rule="evenodd" clip-rule="evenodd" d="M65.8799 118.483L65.2339 120.396L63.2598 117.734L65.8799 118.483Z" fill="#AE6148"/>
<path fill-rule="evenodd" clip-rule="evenodd" d="M62.0403 113.209C62.0403 112.388 62.7011 111.722 63.5122 111.719C64.3795 111.716 65.4715 111.714 66.3389 111.711C67.1517 111.709 67.6836 112.382 67.8075 113.193C67.9546 114.149 67.8075 116.135 67.525 117.564C67.3664 118.37 66.7353 119.114 65.9225 119.115C65.0552 119.117 62.4582 118.291 62.2104 116.726C62.0204 115.535 62.0386 114.419 62.0403 113.211V113.209Z" fill="#D27457"/>
<path fill-rule="evenodd" clip-rule="evenodd" d="M62.1983 117.571C60.0342 116.662 59.2214 113.986 60.5513 112.053C60.8255 111.653 61.1146 111.321 61.4037 111.118C63.1301 109.907 65.2381 109.377 67.171 111.181C67.4816 111.47 67.5823 111.921 67.4105 112.309C66.9133 113.436 65.5239 115.841 62.2017 117.574H62.1983V117.571Z" fill="black"/>
<path fill-rule="evenodd" clip-rule="evenodd" d="M63.696 116.066C63.924 116.698 64.5286 117.057 65.0473 116.864C65.5661 116.672 65.804 116.003 65.576 115.37C65.348 114.737 64.7434 114.379 64.2246 114.572C63.7059 114.764 63.468 115.433 63.696 116.066Z" fill="#D27457"/>
<path d="M66.2344 224.147C78.9595 224.147 89.2753 223.026 89.2753 221.643C89.2753 220.259 78.9595 219.138 66.2344 219.138C53.5092 219.138 43.1934 220.259 43.1934 221.643C43.1934 223.026 53.5092 224.147 66.2344 224.147Z" fill="#393D3D"/>
<path fill-rule="evenodd" clip-rule="evenodd" d="M67.6672 217.717C67.6672 217.717 61.396 195.881 65.6699 187.125L61.4043 157.831L76.0364 156.896L70.8622 217.891L67.6688 217.717H67.6672Z" fill="#D27457"/>
<path fill-rule="evenodd" clip-rule="evenodd" d="M70.9616 216.848L73.7386 218.87C74.2838 219.371 77.2641 220.341 77.2641 220.341C77.5615 220.962 76.9799 221.289 76.4876 221.37L67.6971 221.187C67.6971 221.187 65.6668 220.765 67.4675 216.852C69.0667 217.557 70.5436 218.064 70.9616 216.847V216.848Z" fill="black"/>
<path fill-rule="evenodd" clip-rule="evenodd" d="M55.6549 142.431L74.7789 143.888C77.8897 145.029 75.899 162.627 75.899 162.627L64.072 163.547C58.0751 163.453 49.4961 163.557 50.1966 155.046C51.1118 143.926 55.6533 142.431 55.6533 142.431H55.6549Z" fill="#00312F"/>
<path fill-rule="evenodd" clip-rule="evenodd" d="M76.0354 160.21L74.4825 187.901L73.4516 212.318H63.2123C63.2123 212.318 64.1688 207.888 64.0548 206.48C63.9425 205.074 61.5833 192.362 63.5443 186.535L61.0547 160.21H76.0337H76.0354Z" fill="#00312F"/>
<path fill-rule="evenodd" clip-rule="evenodd" d="M51.9338 217.775C51.9338 217.775 47.0983 195.938 51.9487 187.183L53.49 163.339L61.9385 163.914L55.1173 217.947L51.9354 217.773L51.9338 217.775Z" fill="#D27457"/>
<path fill-rule="evenodd" clip-rule="evenodd" d="M55.287 216.906L56.7127 218.514C57.2248 219.014 58.8884 220.068 58.8884 220.068C58.8884 220.068 60.5157 221.537 58.0277 221.355L51.7368 221.244C51.7368 221.244 49.7345 220.823 51.7929 216.909C53.3459 217.615 54.7897 218.122 55.287 216.904V216.906Z" fill="black"/>
<path fill-rule="evenodd" clip-rule="evenodd" d="M62.5924 159.529L60.0135 187.394L57.1819 212.523L49.2373 212.193C49.2373 212.193 49.1629 208.525 49.1431 207.119C49.1233 205.714 46.9575 192.899 50.4829 186.763L51.0727 159.072L62.5924 159.531V159.529Z" fill="#00312F"/>
<path fill-rule="evenodd" clip-rule="evenodd" d="M57.638 160.548C57.681 160.4 57.8362 160.314 57.9848 160.357L60.6545 161.129C60.7602 161.159 60.8382 161.249 60.8539 161.358L62.5142 172.864C62.5363 173.017 62.4301 173.159 62.277 173.181C62.124 173.203 61.982 173.097 61.9599 172.944L60.3254 161.616L57.8293 160.895C57.6807 160.852 57.5951 160.697 57.638 160.548Z" fill="#DFE5E5"/>
<path fill-rule="evenodd" clip-rule="evenodd" d="M65.1898 120.508L61.4842 120.336L60.2898 120.273L55.0628 122.409C52.74 123.559 50.7856 125.395 50.2603 129.104C50.2603 129.104 49.6193 148.845 49.2129 154.965C58.9897 158.596 73.744 158.06 76.83 153.574C76.5558 147.112 76.6797 136.847 75.2755 131.368C74.2908 127.526 74.8294 126.009 73.2121 123.267C72.0342 121.27 66.0984 120.728 65.1898 120.506V120.508Z" fill="#FFE2D5"/>
<path d="M101.703 86.5239C102.9 86.5239 103.87 85.5535 103.87 84.3564C103.87 83.1594 102.9 82.1889 101.703 82.1889C100.506 82.1889 99.5352 83.1594 99.5352 84.3564C99.5352 85.5535 100.506 86.5239 101.703 86.5239Z" fill="white"/>
<path d="M109.876 86.5239C111.074 86.5239 112.044 85.5535 112.044 84.3564C112.044 83.1594 111.074 82.1889 109.876 82.1889C108.679 82.1889 107.709 83.1594 107.709 84.3564C107.709 85.5535 108.679 86.5239 109.876 86.5239Z" fill="white"/>
<path d="M118.05 86.5239C119.247 86.5239 120.218 85.5535 120.218 84.3564C120.218 83.1594 119.247 82.1889 118.05 82.1889C116.853 82.1889 115.883 83.1594 115.883 84.3564C115.883 85.5535 116.853 86.5239 118.05 86.5239Z" fill="white"/>
<path fill-rule="evenodd" clip-rule="evenodd" d="M96.7051 91.4321C96.7051 91.2934 96.8175 91.181 96.9562 91.181H210.585C210.724 91.181 210.836 91.2934 210.836 91.4321C210.836 91.5708 210.724 91.6832 210.585 91.6832H96.9562C96.8175 91.6832 96.7051 91.5708 96.7051 91.4321Z" fill="#15D1C1"/>
<path fill-rule="evenodd" clip-rule="evenodd" d="M100.399 161.751C100.538 161.755 100.647 161.87 100.643 162.009L100.131 181.744C100.128 181.88 100.016 181.989 99.8803 181.989H81.4171C81.2784 181.989 81.166 181.876 81.166 181.738C81.166 181.599 81.2784 181.486 81.4171 181.486H99.6356L100.141 161.996C100.145 161.857 100.26 161.748 100.399 161.751Z" fill="#15D1C1"/>
<path fill-rule="evenodd" clip-rule="evenodd" d="M69.2715 132.135C69.2715 132.005 69.3765 131.9 69.5061 131.9H69.8513C69.9316 131.9 70.0063 131.941 70.0493 132.009L76.2329 141.736C76.3024 141.846 76.2701 141.991 76.1608 142.06C76.0514 142.13 75.9065 142.097 75.837 141.988L69.7225 132.37H69.5061C69.3765 132.37 69.2715 132.265 69.2715 132.135Z" fill="#DFE5E5"/>
<path d="M233.188 164.586C233.173 162.694 231.594 161.161 229.661 161.163L189.125 161.206C187.192 161.208 185.637 162.744 185.65 164.636L186.077 219.819C186.092 221.71 187.671 223.243 189.604 223.242L230.142 223.199C232.074 223.197 233.629 221.661 233.616 219.769L233.19 164.586H233.188Z" fill="#06302F"/>
<path d="M226.921 223.199L186.383 223.242C184.45 223.243 182.871 221.712 182.856 219.819L182.43 164.636C182.415 162.744 183.971 161.208 185.904 161.206L226.442 161.163C228.375 161.161 229.954 162.693 229.969 164.586L230.395 219.769C230.41 221.661 228.854 223.197 226.921 223.199Z" fill="#DEE5E5"/>
<path d="M221.959 181.263L190.02 181.298C188.771 181.298 187.751 180.31 187.741 179.088L187.662 168.724C187.652 167.502 188.657 166.511 189.906 166.509L221.845 166.474C223.093 166.474 224.113 167.462 224.123 168.685L224.202 179.048C224.212 180.271 223.207 181.262 221.959 181.263Z" fill="#6A7070"/>
<path fill-rule="evenodd" clip-rule="evenodd" d="M221.844 166.151C223.264 166.151 224.435 167.275 224.446 168.682L224.525 179.045C224.525 179.045 224.525 179.045 224.525 179.045C224.537 180.454 223.38 181.585 221.959 181.587L190.02 181.622H190.019C188.599 181.622 187.429 180.497 187.417 179.09L187.338 168.727C187.338 168.727 187.338 168.727 187.338 168.727C187.327 167.318 188.483 166.187 189.905 166.185L221.844 166.151ZM221.844 166.798C221.844 166.798 221.844 166.798 221.844 166.798L189.906 166.833C189.906 166.833 189.906 166.833 189.906 166.833C188.83 166.834 187.977 167.686 187.986 168.722L188.065 179.085C188.065 179.085 188.065 179.085 188.065 179.085C188.073 180.123 188.941 180.974 190.019 180.974C190.019 180.974 190.019 180.974 190.019 180.974L221.958 180.94C223.034 180.938 223.886 180.087 223.878 179.051L223.798 168.687C223.798 168.687 223.798 168.687 223.798 168.687C223.79 167.65 222.922 166.798 221.844 166.798Z" fill="white"/>
<path d="M194.079 194.065L190.869 194.068C189.426 194.068 188.252 192.907 188.24 191.463C188.229 190.006 189.407 188.82 190.862 188.818L194.072 188.815C195.514 188.815 196.689 189.976 196.7 191.42C196.712 192.877 195.534 194.063 194.079 194.065Z" fill="white"/>
<path d="M207.676 194.05L204.466 194.053C203.022 194.053 201.85 192.892 201.838 191.448C201.826 189.991 203.004 188.805 204.46 188.803L207.67 188.8C209.112 188.8 210.286 189.961 210.298 191.405C210.31 192.862 209.132 194.049 207.676 194.05Z" fill="white"/>
<path d="M221.399 194.035L218.189 194.039C216.747 194.039 215.572 192.877 215.561 191.433C215.549 189.976 216.727 188.79 218.182 188.788L221.392 188.785C222.836 188.785 224.009 189.947 224.021 191.39C224.032 192.847 222.854 194.034 221.399 194.035Z" fill="white"/>
<path d="M194.155 203.888L190.945 203.891C189.503 203.891 188.328 202.73 188.316 201.286C188.305 199.829 189.483 198.643 190.938 198.641L194.148 198.638C195.59 198.638 196.765 199.799 196.777 201.243C196.788 202.7 195.61 203.886 194.155 203.888Z" fill="white"/>
<path d="M207.752 203.873L204.543 203.877C203.099 203.877 201.926 202.715 201.914 201.271C201.903 199.814 203.08 198.628 204.536 198.626L207.746 198.623C209.188 198.623 210.363 199.784 210.374 201.228C210.386 202.685 209.208 203.872 207.752 203.873Z" fill="white"/>
<path d="M221.475 203.858L218.265 203.862C216.823 203.862 215.648 202.7 215.637 201.256C215.625 199.799 216.803 198.613 218.259 198.611L221.468 198.608C222.911 198.608 224.085 199.77 224.097 201.213C224.108 202.671 222.931 203.857 221.475 203.858Z" fill="white"/>
<path d="M194.231 213.709L191.021 213.713C189.577 213.713 188.404 212.551 188.393 211.107C188.381 209.65 189.559 208.464 191.014 208.463L194.224 208.459C195.667 208.459 196.841 209.621 196.853 211.065C196.864 212.522 195.686 213.708 194.231 213.709Z" fill="white"/>
<path d="M207.827 213.696L204.617 213.7C203.175 213.7 202 212.538 201.988 211.094C201.977 209.637 203.155 208.451 204.61 208.449L207.82 208.446C209.262 208.446 210.437 209.607 210.448 211.051C210.46 212.508 209.282 213.695 207.827 213.696Z" fill="white"/>
<path d="M221.551 213.681L218.341 213.685C216.897 213.685 215.725 212.523 215.713 211.079C215.701 209.622 216.879 208.436 218.335 208.434L221.545 208.431C222.987 208.431 224.161 209.593 224.173 211.036C224.185 212.494 223.007 213.68 221.551 213.681Z" fill="#F7B387"/>
<path d="M190.836 178.832C190.332 178.832 189.915 178.429 189.912 177.935C189.909 177.441 190.317 177.037 190.821 177.036C191.325 177.036 191.741 177.439 191.744 177.933C191.748 178.427 191.339 178.83 190.836 178.832Z" fill="white"/>
<path fill-rule="evenodd" clip-rule="evenodd" d="M219.498 218.031C219.498 218.21 219.354 218.355 219.175 218.355L192.678 218.383C192.499 218.383 192.354 218.238 192.354 218.06C192.353 217.881 192.498 217.736 192.677 217.735L219.174 217.707C219.353 217.707 219.498 217.852 219.498 218.031Z" fill="white"/>
<path d="M202.851 152.82H211.129V126.089H202.851V152.82Z" fill="white"/>
<path d="M206.884 158.771L216.712 148.188H197.268L206.884 158.771Z" fill="white"/>
<path fill-rule="evenodd" clip-rule="evenodd" d="M226.709 62.2833C227.039 62.2833 227.307 62.5498 227.307 62.8786V74.7302C227.307 75.059 227.039 75.3255 226.709 75.3255C226.379 75.3255 226.111 75.059 226.111 74.7302V62.8786C226.111 62.5498 226.379 62.2833 226.709 62.2833Z" fill="#15D1C1"/>
<path d="M245.155 42.8511C248.433 32.8934 242.983 22.1749 232.982 18.9106C222.981 15.6463 212.215 21.0723 208.936 31.03C205.658 40.9877 211.108 51.7063 221.109 54.9706C231.11 58.2349 241.876 52.8088 245.155 42.8511Z" fill="#8DC168"/>
<path fill-rule="evenodd" clip-rule="evenodd" d="M236.406 27.8425C236.968 28.2378 237.101 29.0113 236.704 29.5701L226.297 44.2238C226.073 44.5388 225.715 44.7321 225.328 44.7467C224.94 44.7612 224.568 44.5954 224.322 44.2981L219.637 38.6594C219.199 38.132 219.273 37.3507 219.803 36.9143C220.333 36.478 221.117 36.5519 221.555 37.0793L225.203 41.4704L234.672 28.1387C235.068 27.5798 235.845 27.4472 236.406 27.8425Z" fill="white"/>
</svg>
