<svg width="138" height="144" viewBox="0 0 138 144" fill="none" xmlns="http://www.w3.org/2000/svg">
  <g clip-path="url(#clip0_441_5477)">
  <path d="M99.7701 29.2104H84.3445V44.6361H99.7701V29.2104Z" fill="#1D1F1F"/>
  <path d="M26.393 29.2104H10.9673V44.6361H26.393V29.2104Z" fill="#1D1F1F"/>
  <path d="M26.393 102.764H10.9673V118.189H26.393V102.764Z" fill="#1D1F1F"/>
  <path d="M0.451172 128.746H36.9345V92.2625H0.451172V128.746ZM5.38651 97.1978H31.9992V123.81H5.38651V97.1978Z" fill="#1D1F1F"/>
  <path d="M36.9345 18.6833H0.451172V55.1667H36.9345V18.6833ZM31.9992 50.2277H5.38651V23.6187H31.9992V50.2313V50.2277Z" fill="#1D1F1F"/>
  <path d="M73.9678 18.6833V55.1667H110.451V18.6833H73.9678ZM105.516 50.2277H78.9031V23.6187H105.516V50.2313V50.2277Z" fill="#1D1F1F"/>
  <path d="M68.4128 18.5H63.1694V23.7433H68.4128V18.5Z" fill="#1D1F1F"/>
  <path d="M79.0573 91.9543H73.814V97.1977H79.0573V91.9543Z" fill="#1D1F1F"/>
  <path d="M31.9992 65.7487H42.3465V70.7243H47.4579V81.5373H58.0472V76.294H63.3089V71.0653H68.4165V65.822H63.3089V60.5053H68.4019V65.7487H73.8175V70.9773H68.5742V76.2207H79.0645V65.7487H84.3482V76.2207H89.4375V76.2757H94.6809V71.0323H89.5915V65.745H94.6809V60.5017H68.4165V50.1873H63.3089V44.944H68.4165V29.2103H47.5935V23.7433H57.8162V18.5H42.3905V19.1637H42.3502V60.5053H32.0029V65.7267H26.7595V76.2243H31.6912H42.1889V70.981H32.0065V65.7523L31.9992 65.7487ZM47.5899 50.1873H52.7012V44.944H47.5899V34.4537H52.8002V39.697H58.0435V34.4537H63.1659V44.944H58.0619V50.1873H63.1659V55.3463H58.0435V50.0077H52.8002V60.322H58.0619V71.223H52.7012V60.5933H47.5899V50.191V50.1873Z" fill="#1D1F1F"/>
  <path d="M57.9702 123.48H42.2329V128.808H57.9702V123.48Z" fill="#1D1F1F"/>
  <path d="M26.393 86.8394V81.6108V81.5924V76.3674H21.3146H21.146H16.0713V81.6108H21.146V86.8394H26.393Z" fill="#1D1F1F"/>
  <path d="M15.8072 81.5924H5.69451V76.3857H15.8072V71.223H21.1458V65.7487H26.3928V60.5054H21.1458V65.5104H5.69451V60.5054H0.451172V65.7487H5.48184V71.1424H0.451172V76.2207V76.3857V81.5924V82.85V86.8394H15.8072V81.5924Z" fill="#1D1F1F"/>
  <path d="M36.9345 81.5923H31.6912V86.8393H36.9345H42.1778V81.5923H36.9345Z" fill="#1D1F1F"/>
  <path d="M68.5742 107.853H73.8176H79.0609V102.61H73.8176H68.5742V107.853Z" fill="#1D1F1F"/>
  <path d="M52.7231 97.1977H57.8124V91.9544H52.8368V87.0154H47.5898H42.3464V91.9544V92.2624V97.1977H47.4798V102.441H52.7231V97.1977Z" fill="#1D1F1F"/>
  <path d="M110.451 60.5054H105.208V65.7487H110.451V60.5054Z" fill="#1D1F1F"/>
  <path d="M105.014 65.7488H99.7666V86.8394H103.386H105.014H110.451V76.2941H105.014V65.7488Z" fill="#1D1F1F"/>
  <path d="M110.451 123.389H105.325V128.911H110.451V123.389Z" fill="#1D1F1F"/>
  <path d="M47.5898 102.61H42.3464V107.853H47.5898V102.61Z" fill="#1D1F1F"/>
  <path d="M105.168 91.9691H99.9205V91.9545H94.6772V87.0155H89.5878V81.7868H84.3445H84.3042V76.5435H79.0572V81.7868H73.8175H73.8102H63.3198V87.0338H63.3235V92.0388V92.2625V97.3775H63.3088H60.3095H58.0618V107.879H58.0472H54.2925H52.8038V113.126H47.5898V118.369H52.8368H58.0802H63.3088V118.325V117.775V113.126H63.3235H68.5705V107.879H63.3235H63.3088V102.357H63.3235H68.3982V97.3775V92.2625H68.5705H73.8138V87.0338H73.8175H84.3445V102.441V102.734V118.325H79.0975V113.082H73.8505V118.325H68.6035V123.389H63.3235V128.808H79.0608V123.389H84.3445H89.5512V128.911H94.6772V123.389H89.5878V118.16H94.6772V112.917H89.5878V107.853H94.6772V102.61H89.5878V102.441V92.2625H94.6772V97.1978H99.9205V107.853H94.7872V112.917H99.9205H105.168H110.451V107.853H105.168V91.9691Z" fill="#1D1F1F"/>
  </g>
  <path d="M127.549 0H71.5488C66.026 0 61.5488 4.47715 61.5488 10V134C61.5488 139.523 66.026 144 71.5488 144H127.549C133.072 144 137.549 139.523 137.549 134V10C137.549 4.47715 133.072 0 127.549 0Z" fill="#B6B8B8"/>
  <path d="M127.549 1.5H71.5488C66.8544 1.5 63.0488 5.30558 63.0488 10V134C63.0488 138.694 66.8544 142.5 71.5488 142.5H127.549C132.243 142.5 136.049 138.694 136.049 134V10C136.049 5.30558 132.243 1.5 127.549 1.5Z" fill="#B6B8B8" stroke="#06302F" stroke-width="3"/>
  <path d="M100.049 6H92.0488C91.2204 6 90.5488 6.67157 90.5488 7.5C90.5488 8.32843 91.2204 9 92.0488 9H100.049C100.877 9 101.549 8.32843 101.549 7.5C101.549 6.67157 100.877 6 100.049 6Z" fill="#06302F"/>
  <path d="M105.549 7.5C105.549 6.67157 104.877 6 104.049 6C103.22 6 102.549 6.67157 102.549 7.5C102.549 8.32843 103.22 9 104.049 9C104.877 9 105.549 8.32843 105.549 7.5Z" fill="#06302F"/>
  <defs>
  <clipPath id="clip0_441_5477">
  <rect width="110" height="110.411" fill="white" transform="translate(0.451172 18.5)"/>
  </clipPath>
  </defs>
  </svg>
  