<svg width="138" height="145" viewBox="0 0 138 145" fill="none" xmlns="http://www.w3.org/2000/svg">
  <g clip-path="url(#clip0_441_5533)">
  <path d="M99.3671 29.7103H83.9414V45.136H99.3671V29.7103Z" fill="#F4F7F7"/>
  <path d="M25.9901 29.7103H10.5645V45.136H25.9901V29.7103Z" fill="#F4F7F7"/>
  <path d="M25.9901 103.264H10.5645V118.689H25.9901V103.264Z" fill="#F4F7F7"/>
  <path d="M0.0488281 129.246H36.5322V92.7623H0.0488281V129.246ZM4.98416 97.6977H31.5968V124.31H4.98416V97.6977Z" fill="#F4F7F7"/>
  <path d="M36.5322 19.1833H0.0488281V55.6667H36.5322V19.1833ZM31.5968 50.7277H4.98416V24.1187H31.5968V50.7313V50.7277Z" fill="#F4F7F7"/>
  <path d="M73.5664 19.1833V55.6667H110.05V19.1833H73.5664ZM105.114 50.7277H78.5017V24.1187H105.114V50.7313V50.7277Z" fill="#F4F7F7"/>
  <path d="M68.0109 19H62.7676V24.2433H68.0109V19Z" fill="#F4F7F7"/>
  <path d="M78.6554 92.4543H73.4121V97.6977H78.6554V92.4543Z" fill="#F4F7F7"/>
  <path d="M31.5971 66.2487H41.9444V71.2243H47.0558V82.0373H57.6451V76.794H62.9068V71.5653H68.0144V66.322H62.9068V61.0053H67.9998V66.2487H73.4154V71.4773H68.1721V76.7207H78.6624V66.2487H83.9461V76.7207H89.0354V76.7757H94.2788V71.5323H89.1894V66.245H94.2788V61.0017H68.0144V50.6873H62.9068V45.444H68.0144V29.7103H47.1914V24.2433H57.4141V19H41.9884V19.6637H41.9481V61.0053H31.6008V66.2267H26.3574V76.7243H31.2891H41.7868V71.481H31.6044V66.2523L31.5971 66.2487ZM47.1878 50.6873H52.2991V45.444H47.1878V34.9537H52.3981V40.197H57.6414V34.9537H62.7638V45.444H57.6598V50.6873H62.7638V55.8463H57.6414V50.5077H52.3981V60.822H57.6598V71.723H52.2991V61.0933H47.1878V50.691V50.6873Z" fill="#F4F7F7"/>
  <path d="M57.5674 123.98H41.8301V129.308H57.5674V123.98Z" fill="#F4F7F7"/>
  <path d="M25.9896 87.3393V82.1106V82.0923V76.8673H20.9113H20.7426H15.668V82.1106H20.7426V87.3393H25.9896Z" fill="#F4F7F7"/>
  <path d="M15.4048 82.0924H5.29216V76.8857H15.4048V71.723H20.7435V66.2487H25.9905V61.0054H20.7435V66.0104H5.29216V61.0054H0.0488281V66.2487H5.07949V71.6424H0.0488281V76.7207V76.8857V82.0924V83.35V87.3394H15.4048V82.0924Z" fill="#F4F7F7"/>
  <path d="M36.5324 82.0923H31.2891V87.3393H36.5324H41.7757V82.0923H36.5324Z" fill="#F4F7F7"/>
  <path d="M68.1719 108.353H73.4152H78.6585V103.11H73.4152H68.1719V108.353Z" fill="#F4F7F7"/>
  <path d="M52.32 97.6977H57.4094V92.4544H52.4337V87.5154H47.1867H41.9434V92.4544V92.7624V97.6977H47.0767V102.941H52.32V97.6977Z" fill="#F4F7F7"/>
  <path d="M110.048 61.0054H104.805V66.2487H110.048V61.0054Z" fill="#F4F7F7"/>
  <path d="M104.61 66.2487H99.3633V87.3393H102.982H104.61H110.048V76.794H104.61V66.2487Z" fill="#F4F7F7"/>
  <path d="M110.048 123.889H104.922V129.411H110.048V123.889Z" fill="#F4F7F7"/>
  <path d="M47.1867 103.11H41.9434V108.353H47.1867V103.11Z" fill="#F4F7F7"/>
  <path d="M104.765 92.469H99.5182V92.4543H94.2748V87.5153H89.1855V82.2867H83.9422H83.9018V77.0433H78.6548V82.2867H73.4152H73.4078H62.9175V87.5337H62.9212V92.5387V92.7623V97.8773H62.9065H59.9072H57.6595V108.379H57.6448H53.8902H52.4015V113.626H47.1875V118.869H52.4345H57.6778H62.9065V118.825V118.275V113.626H62.9212H68.1682V108.379H62.9212H62.9065V102.857H62.9212H67.9958V97.8773V92.7623H68.1682H73.4115V87.5337H73.4152H83.9422V102.941V103.234V118.825H78.6952V113.582H73.4482V118.825H68.2012V123.889H62.9212V129.308H78.6585V123.889H83.9422H89.1488V129.411H94.2748V123.889H89.1855V118.66H94.2748V113.417H89.1855V108.353H94.2748V103.11H89.1855V102.941V92.7623H94.2748V97.6977H99.5182V108.353H94.3848V113.417H99.5182H104.765H110.049V108.353H104.765V92.469Z" fill="#F4F7F7"/>
  </g>
  <path d="M127.146 0.5H71.1465C65.6236 0.5 61.1465 4.97715 61.1465 10.5V134.5C61.1465 140.023 65.6236 144.5 71.1465 144.5H127.146C132.669 144.5 137.146 140.023 137.146 134.5V10.5C137.146 4.97715 132.669 0.5 127.146 0.5Z" fill="#B6B8B8"/>
  <path d="M127.146 2H71.1465C66.4521 2 62.6465 5.80558 62.6465 10.5V134.5C62.6465 139.194 66.4521 143 71.1465 143H127.146C131.841 143 135.646 139.194 135.646 134.5V10.5C135.646 5.80558 131.841 2 127.146 2Z" fill="#B6B8B8" stroke="#06302F" stroke-width="3"/>
  <path d="M99.6465 6.5H91.6465C90.8181 6.5 90.1465 7.17157 90.1465 8C90.1465 8.82843 90.8181 9.5 91.6465 9.5H99.6465C100.475 9.5 101.146 8.82843 101.146 8C101.146 7.17157 100.475 6.5 99.6465 6.5Z" fill="#06302F"/>
  <path d="M105.146 8C105.146 7.17157 104.475 6.5 103.646 6.5C102.818 6.5 102.146 7.17157 102.146 8C102.146 8.82843 102.818 9.5 103.646 9.5C104.475 9.5 105.146 8.82843 105.146 8Z" fill="#06302F"/>
  <defs>
  <clipPath id="clip0_441_5533">
  <rect width="110" height="110.411" fill="white" transform="translate(0.0488281 19)"/>
  </clipPath>
  </defs>
  </svg>
  