<svg id="gallery-export_bold" data-name="gallery-export/bold" xmlns="http://www.w3.org/2000/svg" width="32" height="32" viewBox="0 0 32 32">
  <g id="vuesax_bold_gallery-export" data-name="vuesax/bold/gallery-export">
    <g id="gallery-export">
      <path id="Vector" d="M4.97,0H2.03A1.866,1.866,0,0,0,0,2.03V4.97A1.866,1.866,0,0,0,2.03,7H4.97A1.866,1.866,0,0,0,7,4.97V2.03A1.866,1.866,0,0,0,4.97,0Zm.22,3.31a.628.628,0,0,1-.88,0l-.18-.18V5.37a.63.63,0,1,1-1.26,0V3.13l-.18.18a.622.622,0,0,1-.88-.88L3.06,1.18a.615.615,0,0,1,.19-.12c.02-.01.04-.01.06-.02a.415.415,0,0,1,.16-.03h.06a.477.477,0,0,1,.2.04h.02a.567.567,0,0,1,.18.12c.01.01.01.01.02.01L5.2,2.43A.619.619,0,0,1,5.19,3.31Z" transform="translate(24 1)" fill="#00a19a"/>
      <path id="Vector-2" data-name="Vector" d="M4.76,2.38A2.38,2.38,0,1,1,2.38,0,2.38,2.38,0,0,1,4.76,2.38Z" transform="translate(9.373 7.957)" fill="#00a19a"/>
      <path id="Vector-3" data-name="Vector" d="M26.558,8.4H25.9v6.454l-.182-.154a3.121,3.121,0,0,0-3.948,0l-5.824,5A3.121,3.121,0,0,1,12,19.7l-.476-.392a3.109,3.109,0,0,0-3.7-.2L2.59,22.624a7.466,7.466,0,0,1-.49-2.758V8.134C2.1,4.186,4.186,2.1,8.134,2.1H19.6V1.442A2.925,2.925,0,0,1,19.922,0H8.134C3.038,0,0,3.038,0,8.134V19.866a9.412,9.412,0,0,0,.784,3.976C1.988,26.5,4.564,28,8.134,28H19.866C24.962,28,28,24.962,28,19.866V8.078A2.925,2.925,0,0,1,26.558,8.4Z" transform="translate(2 2)" fill="#00a19a"/>
      <path id="Vector-4" data-name="Vector" d="M0,0H32V32H0Z" fill="none" opacity="0"/>
    </g>
  </g>
</svg>
