<svg width="130" height="133" viewBox="0 0 130 133" fill="none" xmlns="http://www.w3.org/2000/svg">
<g clip-path="url(#clip0_153_1701)">
<g opacity="0.4">
<path d="M0.0141788 90.657C-0.0791578 88.3973 0.31261 86.3517 0.704992 84.2513C0.830259 83.582 0.981931 82.917 1.16001 82.2594C1.24045 81.9629 1.31966 81.6725 1.39949 81.3809C1.91407 79.5 2.63436 77.6844 3.54746 75.9738C8.86027 66.1626 19.1297 61.5889 28.5138 55.4315C41.6165 46.8118 44.5081 32.1524 47.4003 17.7864C49.7613 5.94184 62.7462 2.01298 73.1102 0.675091C75.276 0.462176 77.4559 0.443264 79.6278 0.618965C81.7997 0.794666 83.9649 1.16498 86.1012 1.72869C87.9826 2.07826 89.6965 2.66209 91.2697 3.43445C99.1339 7.29681 103.47 15.8805 107.602 23.6504C110.435 29.0453 116.455 31.3904 120.999 35.5541C124.171 38.4373 126.606 42.0123 128.132 45.915C128.895 47.8666 129.431 49.8993 129.719 51.9675C130.324 56.8395 130.147 61.8824 127.196 66.2798C125.942 68.1271 124.452 69.5412 122.801 70.6576C121.15 71.7747 119.339 72.5928 117.432 73.2535C112.028 75.1343 106.243 75.4864 101.05 78.4763C95.1474 81.8775 91.2525 87.3303 88.7735 93.37C85.2323 101.814 82.9898 110.492 77.2053 118.057C71.8342 125.21 64.0437 129.198 55.7238 131.136C53.9031 131.59 52.1205 131.926 50.3778 132.15C19.0088 136.192 0.57297 104.157 0.0141788 90.657Z" fill="#FFE3D6"/>
<path d="M98.7526 94.2467C97.3912 92.4317 97.4502 89.9689 98.3356 87.9166C99.6933 84.8089 102.998 82.1703 106.598 83.1672C108.487 83.6949 109.726 85.3952 109.963 87.2717C110.199 89.7346 109.136 92.1389 107.352 93.827C104.558 96.4668 100.674 96.7041 98.7526 94.2467Z" fill="#FFE3D6"/>
<path d="M19.8028 43.1428C17.8869 39.7209 19.3625 35.6164 21.8414 32.8601C24.3793 30.1044 27.9796 28.2278 31.8162 29.1075C33.8229 29.5767 35.4753 30.9841 36.1244 32.9778C37.0688 35.7335 36.4198 38.607 34.8852 41.1284C32.6427 44.5881 28.8061 46.8746 24.7601 46.3256C22.6268 46.1151 20.8043 45.0402 19.8028 43.1428Z" fill="#FFE3D6"/>
</g>
<path d="M104.046 16.4595V118.129L91.4127 110.178L78.7718 118.129L66.1455 110.178L53.5119 118.129L40.8783 110.178L28.2448 118.129V16.4595L40.8783 24.4099L53.5193 16.4595L66.1455 24.4099L78.7791 16.4595L91.4127 24.4099L104.046 16.4595Z" fill="white"/>
<path d="M41.703 56.554H65.222" stroke="#B5B5B5" stroke-width="1.5" stroke-miterlimit="10" stroke-linecap="square"/>
<path d="M81.0676 56.554H90.5892" stroke="#B5B5B5" stroke-width="1.5" stroke-miterlimit="10" stroke-linecap="square"/>
<path d="M41.703 64.4252H58.8432" stroke="#B5B5B5" stroke-width="1.5" stroke-miterlimit="10" stroke-linecap="square"/>
<path d="M81.0676 64.4252H90.5892" stroke="#B5B5B5" stroke-width="1.5" stroke-miterlimit="10" stroke-linecap="square"/>
<path d="M41.703 72.2969H65.222" stroke="#B5B5B5" stroke-width="1.5" stroke-miterlimit="10" stroke-linecap="square"/>
<path d="M81.0676 72.2969H90.5892" stroke="#B5B5B5" stroke-width="1.5" stroke-miterlimit="10" stroke-linecap="square"/>
<path d="M41.703 80.168H65.222" stroke="#B5B5B5" stroke-width="1.5" stroke-miterlimit="10" stroke-linecap="square"/>
<path d="M81.0676 80.168H90.5892" stroke="#B5B5B5" stroke-width="1.5" stroke-miterlimit="10" stroke-linecap="square"/>
<path d="M41.703 88.0398H62.148" stroke="#B5B5B5" stroke-width="1.5" stroke-miterlimit="10" stroke-linecap="square"/>
<path d="M81.0676 88.0398H90.5892" stroke="#B5B5B5" stroke-width="1.5" stroke-miterlimit="10" stroke-linecap="square"/>
<path d="M41.703 95.9109H65.222" stroke="#B5B5B5" stroke-width="1.5" stroke-miterlimit="10" stroke-linecap="square"/>
<path d="M81.0676 95.9109H90.5892" stroke="#B5B5B5" stroke-width="1.5" stroke-miterlimit="10" stroke-linecap="square"/>
<path d="M50.4514 40.827H81.8401" stroke="#B5B5B5" stroke-width="1.5" stroke-miterlimit="10" stroke-linecap="square"/>
<g style="mix-blend-mode:multiply" opacity="0.21">
<path d="M74.38 45.7698H100.689V86.3475H90.0237L78.4144 95.7279L80.5255 86.3475H78.6987C76.3137 86.3475 74.38 84.4264 74.38 82.0568V45.7698Z" fill="#545454"/>
</g>
<path d="M78.6373 42.6755H117.121C119.506 42.6755 121.44 44.5966 121.44 46.9661V80.7867C121.44 83.1562 119.506 85.0773 117.121 85.0773H89.9623L78.3529 94.4578L80.4641 85.0773H78.6373C76.2523 85.0773 74.3186 83.1562 74.3186 80.7867V46.9661C74.3186 44.5966 76.2523 42.6755 78.6373 42.6755Z" fill="#FF2466"/>
<path d="M100.606 76.5967C100.606 77.355 100.317 78.0053 99.7411 78.5465C99.1645 79.0882 98.4946 79.3591 97.7313 79.3591C97.0147 79.3591 96.3877 79.0919 95.8504 78.558C95.3131 78.0242 95.0442 77.4013 95.0442 76.6894C95.0442 75.8847 95.3205 75.2234 95.8738 74.7042C96.4264 74.1857 97.108 73.9264 97.9186 73.9264C98.6819 73.9264 99.3205 74.182 99.8344 74.6926C100.348 75.2033 100.606 75.8383 100.606 76.596V76.5967ZM100.489 50.2702C100.489 50.5027 100.326 52.375 99.9984 55.8884L98.6898 70.0262C98.6272 70.6295 98.3705 70.9315 97.9186 70.9315C97.4666 70.9315 97.186 70.6295 97.124 70.0262L95.6521 55.8884C95.3561 52.9631 95.2081 51.0908 95.2081 50.2702C95.2081 47.5621 96.1274 46.2078 97.9653 46.2078C99.6164 46.2078 100.442 47.531 100.442 50.1775L100.489 50.2702Z" fill="white"/>
</g>
<defs>
<clipPath id="clip0_153_1701">
<rect width="130" height="132" fill="white" transform="translate(0 0.5)"/>
</clipPath>
</defs>
</svg>
