<svg width="88" height="20" viewBox="0 0 88 20" fill="none" xmlns="http://www.w3.org/2000/svg">
<g clip-path="url(#clip0_2_1927)">
<path d="M5.39844 17.2891C4.5026 17.2891 3.72396 17.1536 3.0625 16.8828C2.40104 16.612 1.88021 16.2318 1.5 15.7422C1.125 15.2474 0.914062 14.6667 0.867188 14L0.859375 13.875H3.13281L3.14062 13.9531C3.17188 14.2344 3.28646 14.4818 3.48438 14.6953C3.6875 14.9036 3.95833 15.0677 4.29688 15.1875C4.63542 15.3073 5.02344 15.3672 5.46094 15.3672C5.88281 15.3672 6.2526 15.3047 6.57031 15.1797C6.88802 15.0547 7.13542 14.8828 7.3125 14.6641C7.49479 14.4401 7.58594 14.1849 7.58594 13.8984V13.8906C7.58594 13.5208 7.4349 13.224 7.13281 13C6.83594 12.776 6.33594 12.5911 5.63281 12.4453L4.44531 12.2031C3.27344 11.9635 2.42188 11.5703 1.89062 11.0234C1.35938 10.4766 1.09375 9.77604 1.09375 8.92188V8.91406C1.09375 8.21615 1.27865 7.60677 1.64844 7.08594C2.01823 6.5651 2.52604 6.16146 3.17188 5.875C3.81771 5.58333 4.55729 5.4375 5.39062 5.4375C6.26562 5.4375 7.01562 5.58073 7.64062 5.86719C8.27083 6.14844 8.76302 6.53646 9.11719 7.03125C9.47135 7.52083 9.67188 8.08073 9.71875 8.71094L9.72656 8.8125H7.50781L7.49219 8.71875C7.44531 8.44792 7.33073 8.21094 7.14844 8.00781C6.97135 7.80469 6.73177 7.64583 6.42969 7.53125C6.13281 7.41146 5.78646 7.35156 5.39062 7.35156C5.00521 7.35156 4.66667 7.40885 4.375 7.52344C4.08333 7.63802 3.85677 7.79948 3.69531 8.00781C3.53385 8.21094 3.45312 8.45312 3.45312 8.73438V8.74219C3.45312 9.10677 3.59896 9.40625 3.89062 9.64062C4.1875 9.86979 4.66667 10.0521 5.32812 10.1875L6.52344 10.4297C7.32031 10.5911 7.96875 10.8099 8.46875 11.0859C8.97396 11.362 9.34635 11.7083 9.58594 12.125C9.82552 12.5417 9.94531 13.0443 9.94531 13.6328V13.6406C9.94531 14.3854 9.76042 15.0312 9.39062 15.5781C9.02604 16.1198 8.5026 16.5417 7.82031 16.8438C7.14323 17.1406 6.33594 17.2891 5.39844 17.2891ZM15.7344 17.1797C14.8646 17.1797 14.1146 17 13.4844 16.6406C12.8594 16.276 12.3776 15.7604 12.0391 15.0938C11.7005 14.4271 11.5312 13.6328 11.5312 12.7109V12.7031C11.5312 11.7917 11.6979 11 12.0312 10.3281C12.3698 9.65625 12.8464 9.13542 13.4609 8.76562C14.0807 8.39583 14.8073 8.21094 15.6406 8.21094C16.4792 8.21094 17.2031 8.39062 17.8125 8.75C18.4219 9.10938 18.8906 9.61198 19.2188 10.2578C19.5469 10.9036 19.7109 11.6615 19.7109 12.5312V13.2422H12.6719V11.8125H18.6172L17.5469 13.1641V12.25C17.5469 11.7344 17.4661 11.3047 17.3047 10.9609C17.1484 10.6172 16.9297 10.3594 16.6484 10.1875C16.3724 10.0104 16.0495 9.92188 15.6797 9.92188C15.3151 9.92188 14.9896 10.013 14.7031 10.1953C14.4219 10.3724 14.1979 10.6354 14.0312 10.9844C13.8698 11.3281 13.7891 11.75 13.7891 12.25V13.1719C13.7891 13.6562 13.8698 14.0703 14.0312 14.4141C14.1927 14.7578 14.4219 15.0208 14.7188 15.2031C15.0156 15.3854 15.3698 15.4766 15.7812 15.4766C16.1146 15.4766 16.3984 15.4271 16.6328 15.3281C16.8672 15.2292 17.0547 15.1146 17.1953 14.9844C17.3411 14.849 17.4401 14.7266 17.4922 14.6172L17.5156 14.5703H19.6406L19.625 14.6484C19.5573 14.9193 19.4349 15.2031 19.2578 15.5C19.0807 15.7917 18.8359 16.0651 18.5234 16.3203C18.2161 16.5755 17.8307 16.7839 17.3672 16.9453C16.9089 17.1016 16.3646 17.1797 15.7344 17.1797ZM25.1484 17.0312C24.1068 17.0312 23.3568 16.849 22.8984 16.4844C22.4401 16.1146 22.2109 15.513 22.2109 14.6797V10.1172H20.8828V8.39844H22.2109V6.34375H24.5156V8.39844H26.2891V10.1172H24.5156V14.1562C24.5156 14.5417 24.6016 14.8255 24.7734 15.0078C24.9505 15.1849 25.2318 15.2734 25.6172 15.2734C25.763 15.2734 25.8828 15.2708 25.9766 15.2656C26.0755 15.2552 26.1797 15.2448 26.2891 15.2344V16.9297C26.1484 16.9557 25.9792 16.9792 25.7812 17C25.5833 17.0208 25.3724 17.0312 25.1484 17.0312ZM31.8359 17.0312C30.7943 17.0312 30.0443 16.849 29.5859 16.4844C29.1276 16.1146 28.8984 15.513 28.8984 14.6797V10.1172H27.5703V8.39844H28.8984V6.34375H31.2031V8.39844H32.9766V10.1172H31.2031V14.1562C31.2031 14.5417 31.2891 14.8255 31.4609 15.0078C31.638 15.1849 31.9193 15.2734 32.3047 15.2734C32.4505 15.2734 32.5703 15.2708 32.6641 15.2656C32.763 15.2552 32.8672 15.2448 32.9766 15.2344V16.9297C32.8359 16.9557 32.6667 16.9792 32.4688 17C32.2708 17.0208 32.0599 17.0312 31.8359 17.0312ZM34.9531 17V5.10938H37.2344V17H34.9531ZM43.375 17.1797C42.5052 17.1797 41.7552 17 41.125 16.6406C40.5 16.276 40.0182 15.7604 39.6797 15.0938C39.3411 14.4271 39.1719 13.6328 39.1719 12.7109V12.7031C39.1719 11.7917 39.3385 11 39.6719 10.3281C40.0104 9.65625 40.487 9.13542 41.1016 8.76562C41.7214 8.39583 42.4479 8.21094 43.2812 8.21094C44.1198 8.21094 44.8438 8.39062 45.4531 8.75C46.0625 9.10938 46.5312 9.61198 46.8594 10.2578C47.1875 10.9036 47.3516 11.6615 47.3516 12.5312V13.2422H40.3125V11.8125H46.2578L45.1875 13.1641V12.25C45.1875 11.7344 45.1068 11.3047 44.9453 10.9609C44.7891 10.6172 44.5703 10.3594 44.2891 10.1875C44.013 10.0104 43.6901 9.92188 43.3203 9.92188C42.9557 9.92188 42.6302 10.013 42.3438 10.1953C42.0625 10.3724 41.8385 10.6354 41.6719 10.9844C41.5104 11.3281 41.4297 11.75 41.4297 12.25V13.1719C41.4297 13.6562 41.5104 14.0703 41.6719 14.4141C41.8333 14.7578 42.0625 15.0208 42.3594 15.2031C42.6562 15.3854 43.0104 15.4766 43.4219 15.4766C43.7552 15.4766 44.0391 15.4271 44.2734 15.3281C44.5078 15.2292 44.6953 15.1146 44.8359 14.9844C44.9818 14.849 45.0807 14.7266 45.1328 14.6172L45.1562 14.5703H47.2812L47.2656 14.6484C47.1979 14.9193 47.0755 15.2031 46.8984 15.5C46.7214 15.7917 46.4766 16.0651 46.1641 16.3203C45.8568 16.5755 45.4714 16.7839 45.0078 16.9453C44.5495 17.1016 44.0052 17.1797 43.375 17.1797Z" fill="#00C4B3"/>
<path d="M58.3594 17.2891C57.2708 17.2891 56.3307 17.0495 55.5391 16.5703C54.7474 16.0911 54.138 15.4089 53.7109 14.5234C53.2839 13.638 53.0703 12.5859 53.0703 11.3672V11.3516C53.0703 10.1328 53.2839 9.08073 53.7109 8.19531C54.138 7.3099 54.7448 6.63021 55.5312 6.15625C56.3229 5.67708 57.2656 5.4375 58.3594 5.4375C59.25 5.4375 60.0495 5.61198 60.7578 5.96094C61.4714 6.3099 62.0469 6.79167 62.4844 7.40625C62.9219 8.02083 63.1771 8.72396 63.25 9.51562V9.61719H60.9609L60.9531 9.5625C60.875 9.14062 60.7161 8.77083 60.4766 8.45312C60.237 8.13021 59.9349 7.88021 59.5703 7.70312C59.2109 7.52604 58.8073 7.4375 58.3594 7.4375C57.7708 7.4375 57.2604 7.59635 56.8281 7.91406C56.3958 8.22656 56.0625 8.67708 55.8281 9.26562C55.599 9.84896 55.4844 10.5443 55.4844 11.3516V11.3672C55.4844 12.1693 55.599 12.8646 55.8281 13.4531C56.0625 14.0417 56.3958 14.4948 56.8281 14.8125C57.2604 15.1302 57.7734 15.2891 58.3672 15.2891C58.8203 15.2891 59.224 15.2083 59.5781 15.0469C59.9375 14.8802 60.2344 14.6484 60.4688 14.3516C60.7083 14.0495 60.8672 13.6979 60.9453 13.2969L60.9609 13.2266H63.2578V13.3203C63.1745 14.1068 62.9167 14.7969 62.4844 15.3906C62.0521 15.9844 61.4844 16.4505 60.7812 16.7891C60.0781 17.1224 59.2708 17.2891 58.3594 17.2891ZM70.2188 17.2891C69.1302 17.2891 68.1901 17.0495 67.3984 16.5703C66.6068 16.0911 65.9974 15.4089 65.5703 14.5234C65.1432 13.638 64.9297 12.5859 64.9297 11.3672V11.3516C64.9297 10.1328 65.1432 9.08073 65.5703 8.19531C65.9974 7.3099 66.6042 6.63021 67.3906 6.15625C68.1823 5.67708 69.125 5.4375 70.2188 5.4375C71.1094 5.4375 71.9089 5.61198 72.6172 5.96094C73.3307 6.3099 73.9062 6.79167 74.3438 7.40625C74.7812 8.02083 75.0365 8.72396 75.1094 9.51562V9.61719H72.8203L72.8125 9.5625C72.7344 9.14062 72.5755 8.77083 72.3359 8.45312C72.0964 8.13021 71.7943 7.88021 71.4297 7.70312C71.0703 7.52604 70.6667 7.4375 70.2188 7.4375C69.6302 7.4375 69.1198 7.59635 68.6875 7.91406C68.2552 8.22656 67.9219 8.67708 67.6875 9.26562C67.4583 9.84896 67.3438 10.5443 67.3438 11.3516V11.3672C67.3438 12.1693 67.4583 12.8646 67.6875 13.4531C67.9219 14.0417 68.2552 14.4948 68.6875 14.8125C69.1198 15.1302 69.6328 15.2891 70.2266 15.2891C70.6797 15.2891 71.0833 15.2083 71.4375 15.0469C71.7969 14.8802 72.0938 14.6484 72.3281 14.3516C72.5677 14.0495 72.7266 13.6979 72.8047 13.2969L72.8203 13.2266H75.1172V13.3203C75.0339 14.1068 74.776 14.7969 74.3438 15.3906C73.9115 15.9844 73.3438 16.4505 72.6406 16.7891C71.9375 17.1224 71.1302 17.2891 70.2188 17.2891Z" fill="#FF5100"/>
</g>
<defs>
<clipPath id="clip0_2_1927">
<rect width="88" height="20" fill="white"/>
</clipPath>
</defs>
</svg>
