<svg width="100" height="10" viewBox="0 0 100 10" fill="none" xmlns="http://www.w3.org/2000/svg">
<path d="M97.9043 7.43047L98.532 6.98761C98.6935 6.87436 98.7335 6.64786 98.6219 6.4856L97.5612 4.93729C97.4363 4.75305 97.5646 4.50289 97.7844 4.50289H99.6427C99.8392 4.50289 99.9974 4.34062 99.9974 4.14286V3.36533C99.9974 3.16588 99.8375 3.0053 99.6427 3.0053H97.7844C97.5646 3.0053 97.4347 2.75514 97.5612 2.5709L98.6219 1.02259C98.7335 0.858636 98.6935 0.633828 98.532 0.520579L97.9043 0.0777237C97.7427 -0.0355255 97.5213 0.00504136 97.4097 0.168999L95.8528 2.44412L94.2958 0.168999C94.1843 0.00504136 93.9611 -0.0355255 93.8013 0.0777237L93.1735 0.520579C93.012 0.633828 92.972 0.860326 93.0836 1.02259L94.1443 2.5709C94.2692 2.75514 94.141 3.0053 93.9212 3.0053H92.0628C91.8663 3.0053 91.7081 3.16757 91.7081 3.36533V4.14286C91.7081 4.34231 91.868 4.50289 92.0628 4.50289H93.9212C94.141 4.50289 94.2708 4.75305 94.1443 4.93729L93.0836 6.4856C92.972 6.64955 93.012 6.87436 93.1735 6.98761L93.8013 7.43047C93.9628 7.54372 94.1843 7.50315 94.2958 7.33919L95.8528 5.06407L97.4097 7.33919C97.5213 7.50315 97.7444 7.54372 97.9043 7.43047Z" fill="white"/>
<path d="M50.0255 9.55527L53.1793 0.255315C53.2293 0.116711 53.3425 0.0102234 53.5174 0.0102234H56.4348C56.598 0.0102234 56.7278 0.111641 56.7878 0.255315L59.9266 9.54344C59.945 9.60091 59.9549 9.64824 59.9549 9.68711C59.9549 9.85952 59.8467 9.98798 59.6153 9.98967H57.5205C57.239 9.98291 57.1691 9.62795 57.1691 9.62795L56.6612 8.08303C56.538 7.61651 56.1167 7.39846 55.4773 7.4103H54.4765C53.9187 7.4272 53.4558 7.56242 53.3059 8.07627L52.7997 9.62795C52.7281 9.81895 52.6948 9.98967 52.475 9.98967H50.3485C50.217 9.98967 50.1254 9.92544 50.0738 9.8629C50.0222 9.80036 49.9972 9.7412 49.9972 9.68373C49.9972 9.64655 50.0072 9.6026 50.0255 9.55527ZM54.6747 6.16963L55.3541 6.16456C55.6355 6.14596 55.9302 5.98538 55.9169 5.67944C55.9136 5.61352 55.9036 5.54084 55.8753 5.46478L55.2691 3.00372C55.2125 2.84145 55.1592 2.73835 55.1076 2.69609C55.056 2.65383 55.011 2.63186 54.9744 2.63186C54.9461 2.63186 54.9061 2.65383 54.8545 2.69609C54.8029 2.73835 54.7496 2.84145 54.693 3.00372L54.0869 5.46478C54.0586 5.54084 54.0452 5.61352 54.0452 5.67944C54.0452 5.98369 54.1984 6.15103 54.678 6.16963H54.6747Z" fill="white"/>
<path d="M18.9848 0.377838V9.58821C18.9848 9.82823 18.85 10.0006 18.5885 10.0006L16.6886 9.99557C16.4454 9.99726 16.3339 9.83668 16.3339 9.6237V9.53919L16.3372 6.82459C16.3372 6.27187 15.9792 5.98114 15.2365 5.95071H13.6196C12.877 5.98114 12.519 6.27187 12.519 6.82459L12.5223 9.53919V9.6237C12.5223 9.83668 12.4041 9.99726 12.1693 9.99726L10.281 10.0006C10.0129 10.0006 9.88464 9.82823 9.88464 9.58821V0.377838C9.91462 0.161481 10.0462 0.00935514 10.281 0.00597457L12.1543 0.00259399C12.2742 0.00259399 12.3674 0.0685152 12.429 0.137817C12.4906 0.210499 12.5206 0.288252 12.5206 0.377838V3.11103C12.5206 3.6722 12.8636 3.94265 13.633 3.96124H15.2265C15.9958 3.94265 16.3389 3.6722 16.3389 3.11103V0.381218C16.3372 0.291633 16.3672 0.21557 16.4288 0.141197C16.4904 0.0718957 16.582 0.00766485 16.7035 0.00597457H18.5902C18.825 0.00935514 18.9565 0.161481 18.9865 0.379528L18.9848 0.377838Z" fill="white"/>
<path d="M41.1199 0.343128C41.1299 0.152126 41.2615 0.0388766 41.5146 0H43.4478C43.5694 0.0202834 43.6643 0.0659212 43.7292 0.136913C43.7942 0.207905 43.8292 0.339748 43.8142 0.444545L43.2147 6.68846C43.1614 7.24457 43.5927 7.72461 44.1439 7.72461L48.8047 7.72968C49.0112 7.72968 49.1794 7.89364 49.191 8.10154C49.191 8.10154 49.1894 9.6752 49.1894 9.68365C49.1894 9.87465 49.0811 9.97945 48.8647 9.99804H41.1915C40.9284 9.97776 40.7969 9.8493 40.7969 9.61097L41.1216 0.341438L41.1199 0.343128Z" fill="white"/>
<path d="M61.1457 9.55929L61.139 0.374273C61.1574 0.147774 61.2756 0.0260738 61.4921 0.00748061H65.5284C68.3276 0.00579033 69.7297 0.566965 69.7297 1.91243C69.7297 2.44825 69.4899 2.93675 69.0103 3.37284C68.5308 3.81062 67.873 4.11487 67.0371 4.2839C66.9438 4.31264 66.8839 4.34475 66.8606 4.38194C66.8373 4.41913 66.8256 4.45293 66.8256 4.48167C66.8256 4.50026 66.8373 4.529 66.8606 4.56618C66.8839 4.60337 66.9372 4.63717 67.0221 4.66422C68.0645 4.87212 68.8588 5.22032 69.405 5.70881C69.9495 6.199 70.2226 6.75341 70.2226 7.37544C70.2226 7.82674 70.0844 8.22565 69.8063 8.56878C69.5299 8.91191 69.1552 9.18235 68.6856 9.38012C68.216 9.57788 67.7015 9.72662 67.142 9.82466C66.5825 9.9227 65.983 9.97341 65.3453 9.97341L61.5254 9.98186C61.4221 9.97171 61.3322 9.92777 61.2573 9.84832C61.1823 9.76888 61.144 9.67084 61.144 9.55929H61.1457ZM63.81 3.50806C63.82 3.77175 63.9549 3.90359 64.2179 3.90359C64.2546 3.90359 64.2979 3.89852 64.3445 3.89007C66.0347 3.70245 66.8806 3.28325 66.8806 2.63418C66.8806 2.08822 66.3627 1.81609 65.3303 1.81609L64.3012 1.84482C63.9815 1.86341 63.8166 2.0054 63.8083 2.26739V3.50975L63.81 3.50806ZM63.81 7.22162C63.82 7.56982 64.0215 7.75406 64.4161 7.77265L65.6 7.80139C66.0979 7.80139 66.4992 7.69997 66.8056 7.49883C67.1104 7.29599 67.2636 7.02555 67.2636 6.68749C67.2636 5.92517 66.2961 5.44006 64.3595 5.23384C64.3029 5.2237 64.2562 5.22032 64.2179 5.22032C63.9648 5.22032 63.8283 5.37583 63.81 5.68684V7.22669V7.22162Z" fill="white"/>
<path d="M70.7183 9.55528L73.8738 0.253636C73.9238 0.115033 74.037 0.00854492 74.2118 0.00854492H77.1292C77.2924 0.00854492 77.4223 0.109962 77.4822 0.253636L80.6211 9.54176C80.6394 9.59923 80.6494 9.64656 80.6494 9.68543C80.6494 9.85784 80.5412 9.9863 80.3097 9.98799H78.2149C77.9335 9.98123 77.8636 9.62627 77.8636 9.62627L77.3557 8.08135C77.2325 7.61483 76.8112 7.39679 76.1717 7.40862H75.171C74.6131 7.42552 74.1502 7.56074 74.0004 8.07459L73.4941 9.62627C73.4225 9.81728 73.3892 9.98799 73.1694 9.98799H71.043C70.9115 9.98799 70.8199 9.92376 70.7682 9.86122C70.7166 9.79868 70.6917 9.73952 70.6917 9.68205C70.6917 9.64487 70.7016 9.60092 70.72 9.55359L70.7183 9.55528ZM75.3675 6.16964L76.0469 6.16457C76.3283 6.14597 76.623 5.9854 76.6097 5.67945C76.6064 5.61353 76.5964 5.54085 76.5681 5.46479L75.9619 3.00373C75.9053 2.84146 75.852 2.73836 75.8004 2.6961C75.7488 2.65384 75.7038 2.63187 75.6672 2.63187C75.6389 2.63187 75.5989 2.65384 75.5473 2.6961C75.4957 2.73836 75.4424 2.84146 75.3858 3.00373L74.7797 5.46479C74.7513 5.54085 74.738 5.61353 74.738 5.67945C74.738 5.98371 74.8912 6.15104 75.3708 6.16964H75.3675Z" fill="white"/>
<path d="M20.1005 9.55252L23.2543 0.252568C23.3043 0.113965 23.4175 0.00747681 23.5923 0.00747681H26.5097C26.6729 0.00747681 26.8028 0.108894 26.8627 0.252568L30.0016 9.54069C30.0199 9.59816 30.0299 9.64549 30.0299 9.68436C30.0299 9.85677 29.9217 9.98524 29.6902 9.98693H27.5954C27.314 9.98016 27.2441 9.6252 27.2441 9.6252L26.7362 8.08028C26.613 7.61376 26.1917 7.39572 25.5522 7.40755H24.5515C23.9936 7.42445 23.5307 7.55967 23.3809 8.07352L22.8746 9.6252C22.803 9.81621 22.7697 9.98693 22.5499 9.98693H20.4235C20.2919 9.98693 20.2004 9.9227 20.1487 9.86016C20.0971 9.79761 20.0721 9.73845 20.0721 9.68098C20.0721 9.6438 20.0821 9.59985 20.1005 9.55252ZM24.7496 6.16688L25.429 6.16181C25.7104 6.14322 26.0052 5.98264 25.9918 5.6767C25.9885 5.61078 25.9785 5.53809 25.9502 5.46203L25.3441 3.00097C25.2875 2.83871 25.2342 2.7356 25.1826 2.69334C25.1309 2.65108 25.086 2.62911 25.0494 2.62911C25.021 2.62911 24.9811 2.65108 24.9295 2.69334C24.8778 2.7356 24.8246 2.83871 24.7679 3.00097L24.1618 5.46203C24.1335 5.53809 24.1202 5.61078 24.1202 5.6767C24.1202 5.98095 24.2734 6.14829 24.753 6.16688H24.7496Z" fill="white"/>
<path d="M37.5278 0.0993347H37.5228C37.5445 0.102715 37.5678 0.104406 37.5894 0.106096C37.5678 0.104406 37.5478 0.0993347 37.5262 0.0993347H37.5278Z" fill="white"/>
<path d="M37.616 0.108795C37.6842 0.117247 37.7508 0.127388 37.8158 0.13584C37.7525 0.124008 37.6842 0.115556 37.616 0.108795Z" fill="white"/>
<path d="M37.5916 0.105133C37.5999 0.105133 37.6082 0.106823 37.6182 0.108514C37.6099 0.108514 37.6015 0.106823 37.5916 0.105133Z" fill="white"/>
<path d="M39.0334 7.67145L34.2993 7.67483C34.0029 7.6799 33.8581 7.40608 33.8581 7.1762C33.8581 6.94632 33.9913 6.73334 34.266 6.52375C34.5408 6.31415 34.8838 6.12484 35.2951 5.95581C35.7097 5.78678 36.156 5.58564 36.6439 5.34393C37.1285 5.10729 37.5731 4.86051 37.9877 4.6002C38.399 4.34328 38.7454 4.00522 39.0234 3.5911C39.3015 3.1736 39.4381 2.71891 39.4381 2.22028C39.4381 1.72164 39.1999 0.917069 38.5489 0.45055C38.3457 0.305185 38.1043 0.193626 37.8162 0.137847C37.7512 0.127705 37.6846 0.119254 37.6164 0.110802C37.608 0.110802 37.5997 0.109112 37.5897 0.107422C37.5681 0.104041 37.5448 0.102351 37.5231 0.10066C35.4749 -0.13598 32.1429 0.166582 32.1429 0.166582C31.8532 0.202078 31.5185 0.518161 31.4918 0.817342L31.3936 2.13238C31.3769 2.53467 31.6151 2.70877 32.0364 2.50594C32.7524 2.11717 34.3443 1.86701 34.8255 1.86701C35.3068 1.86701 35.7397 1.83658 36.0628 1.98533C36.3858 2.13407 36.5457 2.35212 36.5457 2.64116C36.5457 2.89808 36.4041 3.14825 36.1227 3.38489C35.8413 3.62153 35.4899 3.83619 35.067 4.01705C34.644 4.20129 34.1878 4.41934 33.6915 4.67288C33.2003 4.92643 32.7391 5.18842 32.3128 5.4538C31.8832 5.72255 31.5235 6.06906 31.2354 6.48825C30.9423 6.91082 30.7858 7.37734 30.7675 7.87936C30.7525 8.17685 30.7408 8.6552 30.7408 9.31103C30.7408 9.72515 30.9573 9.95503 31.3886 9.9956H39.085C39.3098 9.97531 39.4247 9.82657 39.4247 9.54936L39.4197 8.07881C39.4181 7.854 39.2449 7.67483 39.0318 7.67483L39.0334 7.67145Z" fill="white"/>
<path d="M1.90976 0.0987244H1.91475C1.8931 0.102105 1.86979 0.103795 1.84814 0.105486C1.86979 0.103795 1.88977 0.0987244 1.91142 0.0987244H1.90976Z" fill="white"/>
<path d="M1.82165 0.10788C1.75338 0.116331 1.68677 0.126473 1.62183 0.134924C1.6851 0.123092 1.75338 0.114641 1.82165 0.10788Z" fill="white"/>
<path d="M1.84671 0.104523C1.83839 0.104523 1.83006 0.106213 1.82007 0.107903C1.82839 0.107903 1.83672 0.106213 1.84671 0.104523Z" fill="white"/>
<path d="M0.404638 7.67054L5.13874 7.67392C5.43514 7.67899 5.58001 7.40516 5.58001 7.17528C5.58001 6.9454 5.44679 6.73243 5.17204 6.52283C4.89728 6.31324 4.55426 6.12392 4.14296 5.9549C3.72833 5.78587 3.28206 5.58472 2.79417 5.34301C2.3096 5.10637 1.865 4.85959 1.45037 4.59929C1.03907 4.34236 0.692714 4.00431 0.414629 3.59019C0.136545 3.17268 0 2.718 0 2.21936C0 1.72073 0.23812 0.916153 0.889205 0.449634C1.09236 0.30427 1.33381 0.192711 1.62188 0.136931C1.68682 0.126789 1.75343 0.118338 1.8217 0.109887C1.83003 0.109887 1.83836 0.108196 1.84835 0.106506C1.86999 0.103125 1.89331 0.101435 1.91495 0.0997449C3.96312 -0.136895 7.29514 0.165666 7.29514 0.165666C7.58488 0.201162 7.91958 0.517246 7.94622 0.816426L8.04447 2.13147C8.06112 2.53376 7.823 2.70786 7.40171 2.50502C6.68569 2.11626 5.09378 1.86609 4.61254 1.86609C4.1313 1.86609 3.69836 1.83567 3.37531 1.98441C3.05227 2.13316 2.89241 2.35121 2.89241 2.64024C2.89241 2.89717 3.03395 3.14733 3.31537 3.38397C3.59678 3.62061 3.94813 3.83528 4.37109 4.01614C4.79404 4.20038 5.2503 4.41843 5.74653 4.67197C6.23775 4.92551 6.69901 5.18751 7.12529 5.45288C7.55491 5.72164 7.91459 6.06815 8.20266 6.48734C8.49573 6.90991 8.65226 7.37643 8.67058 7.87844C8.68556 8.17593 8.69722 8.65428 8.69722 9.31011C8.69722 9.72423 8.48075 9.95411 8.04947 9.99468H0.351352C0.126553 9.9744 0.0116562 9.82565 0.0116562 9.54844L0.0166518 8.0779C0.0183169 7.85309 0.191495 7.67392 0.404638 7.67392V7.67054Z" fill="white"/>
<path d="M81.7135 2.32765L86.4476 2.32427C86.744 2.3192 86.8888 2.59303 86.8888 2.82291C86.8888 3.05279 86.7556 3.26576 86.4809 3.47536C86.2061 3.68495 85.8631 3.87426 85.4518 4.04329C85.0372 4.21232 84.5909 4.41347 84.103 4.65518C83.6184 4.89182 83.1738 5.1386 82.7592 5.3989C82.3479 5.65583 82.0015 5.99388 81.7235 6.408C81.4454 6.8255 81.3088 7.28019 81.3088 7.77882C81.3088 8.27746 81.547 9.08204 82.198 9.54855C82.4012 9.69392 82.6426 9.80548 82.9307 9.86126C82.9957 9.8714 83.0623 9.87985 83.1305 9.8883C83.1389 9.8883 83.1472 9.88999 83.1572 9.89168C83.1788 9.89506 83.2021 9.89675 83.2238 9.89844C85.272 10.1351 88.604 9.83252 88.604 9.83252C88.8937 9.79703 89.2284 9.48094 89.2551 9.18176L89.3533 7.86672C89.37 7.46443 89.1318 7.29033 88.7105 7.49317C87.9945 7.88193 86.4026 8.13209 85.9214 8.13209C85.4218 8.13209 85.0072 8.16252 84.6841 8.01377C84.3611 7.86503 84.2012 7.64698 84.2012 7.35794C84.2012 7.10102 84.3428 6.85086 84.6242 6.61422C84.9056 6.37758 85.257 6.16291 85.6799 5.98205C86.1029 5.79781 86.5591 5.57976 87.0554 5.32622C87.5466 5.07268 88.0078 4.81068 88.4341 4.54531C88.8637 4.27655 89.2234 3.93004 89.5115 3.51085C89.8046 3.08828 89.9611 2.62176 89.9794 2.11975C89.9944 1.82226 90.0061 1.34391 90.0061 0.688075C90.0061 0.273955 89.7896 0.0440764 89.3583 0.00350952H81.6619C81.4371 0.023793 81.3222 0.172538 81.3222 0.449745L81.3272 1.92029C81.3288 2.1451 81.502 2.32427 81.7151 2.32427L81.7135 2.32765Z" fill="white"/>
</svg>
