<svg width="206" height="120" viewBox="0 0 206 120" fill="none" xmlns="http://www.w3.org/2000/svg">
<g clip-path="url(#clip0_187_8833)">
<path d="M178.803 87.7056C173.617 91.2502 166.645 93.651 158.636 94.8444C158.634 94.8452 158.632 94.8446 158.63 94.8452C157.017 95.0853 155.392 95.3143 153.756 95.5319C113.883 100.836 67.7645 99.3946 32.3261 93.5839C23.0945 92.0701 13.8878 89.7781 7.81458 85.8272C6.89314 85.2286 6.044 84.591 5.27719 83.9125C2.94685 81.8487 1.38525 79.4034 0.894584 76.4909C0.35035 73.2548 1.33002 70.0813 3.27805 66.9989C5.83264 62.9555 10.0539 59.0688 14.6841 55.4062C14.7573 55.3481 14.8306 55.29 14.9033 55.2328C33.8658 40.3348 58.6715 27.2279 85.6262 18.0668C110.412 9.64314 151.638 0.0729808 171.354 11.6486C196.222 26.2499 199.484 58.9996 185.543 80.9423C183.901 83.5261 181.614 85.7844 178.802 87.7064L178.803 87.7056Z" fill="#FF5100" fill-opacity="0.24"/>
<path d="M56.4379 53.6512H64.5849C66.3096 53.6512 67.7223 52.1487 67.7223 50.3143C67.7223 48.4776 66.3096 46.9774 64.5849 46.9774H56.4379C54.7132 46.9774 53.3004 48.4799 53.3004 50.3143C53.3004 52.151 54.7132 53.6512 56.4379 53.6512Z" fill="#DEE5E5"/>
<path d="M60.9555 85.7919L119.649 85.8311C119.649 85.8311 119.497 70.504 131.483 70.1675C143.47 69.8311 142.815 85.1329 142.815 85.1329L142.776 87.5964C142.776 87.5964 151.225 86.7391 153.671 85.4071C153.671 85.4071 154.555 83.4391 154.902 81.4526C155.248 79.4684 155.001 75.3503 155.001 75.3503L153.01 73.7049C153.01 73.7049 153.794 64.2197 152.503 60.7744C152.503 60.7744 153.729 57.1126 153.407 54.8726L127.997 31.1871L91.5241 31.6296C86.6337 31.7402 84.1376 32.9086 79.7586 35.2246C63.3909 43.8803 53.4629 51.492 53.4629 51.492C53.4629 51.492 35.052 54.9763 28.634 60.2467C26.0621 62.8577 24.7101 64.616 23.7502 71.4995L23.6028 74.2188L38.742 79.3993L60.9555 85.7896V85.7919Z" fill="#DEE5E5"/>
<path d="M25.932 81.2091L27.0501 86.2789C27.0501 87.8437 29.2277 88.8807 30.6967 88.883L166.472 89.0351L174.48 88.8853C175.936 88.8577 177.267 88.0119 177.962 86.6707L180.469 81.829C176.736 72.3483 170.998 66.9766 162.234 65.8358L100.631 61.3306L60.6239 68.2325L25.932 81.2091Z" fill="black"/>
<path d="M40.8242 72.3776C41.4548 72.3961 42.0701 72.4836 42.6682 72.6265C43.4243 72.4422 44.2065 72.3546 45.0104 72.3776C50.8628 72.5436 55.5062 78.4039 55.3805 85.4717C55.2548 92.5373 50.4078 98.1326 44.5554 97.9667C43.9249 97.9482 41.1709 97.9897 40.3692 97.9667C34.5168 97.8007 29.8735 91.9404 29.9991 84.8726C30.1248 77.807 34.9718 72.2117 40.8242 72.3776Z" fill="black"/>
<path d="M124.706 72.3776C125.336 72.3961 125.952 72.4836 126.55 72.6265C127.306 72.4422 128.088 72.3546 128.892 72.3776C134.744 72.5436 139.388 78.4039 139.262 85.4717C139.136 92.5373 134.289 98.1326 128.437 97.9667C127.806 97.9482 125.052 97.9897 124.251 97.9667C118.398 97.8007 113.755 91.9404 113.881 84.8726C114.006 77.807 118.853 72.2117 124.706 72.3776Z" fill="black"/>
<path d="M74.5346 73.4489C74.6299 73.4512 74.7252 73.4604 74.8206 73.465H79.6438V75.1957C82.8614 77.4702 84.9913 81.7243 84.9068 86.5407C84.8223 91.3317 82.5645 95.4429 79.2949 97.5446V99.0379H74.4435V99.0333C74.3222 99.0333 74.2009 99.0379 74.0795 99.0333C68.2271 98.8674 63.5838 93.0071 63.7095 85.9392C63.8351 78.8736 68.6822 73.2783 74.5346 73.4443V73.4489Z" fill="black"/>
<path d="M89.0915 86.2707C89.1031 79.2032 84.6249 73.4656 79.0891 73.4553C73.5534 73.445 69.0563 79.166 69.0447 86.2335C69.0331 93.301 73.5114 99.0386 79.0471 99.0489C84.5829 99.0592 89.0799 93.3382 89.0915 86.2707Z" fill="black"/>
<path d="M79.4498 95.0438C83.4824 95.0116 86.7237 91.0381 86.6893 86.1688C86.655 81.2994 83.358 77.3782 79.3253 77.4103C75.2927 77.4425 72.0514 81.416 72.0858 86.2853C72.1202 91.1547 75.4171 95.076 79.4498 95.0438Z" fill="#6A7070"/>
<path d="M81.8084 86.3267C81.7802 87.9514 80.6643 89.2373 79.3188 89.2004C77.9732 89.1635 76.905 87.8154 76.9332 86.1907C76.9613 84.5661 78.0772 83.2802 79.4228 83.3171C80.7683 83.3539 81.8365 84.7021 81.8084 86.3267Z" fill="#F5FCF9"/>
<path d="M157.224 73.4489C157.32 73.4512 157.415 73.4604 157.51 73.465H162.334V75.1957C165.551 77.4702 167.681 81.7243 167.597 86.5407C167.512 91.3317 165.254 95.4429 161.985 97.5446V99.0379H157.133V99.0333C157.012 99.0333 156.891 99.0379 156.769 99.0333C150.917 98.8674 146.274 93.0071 146.399 85.9392C146.525 78.8736 151.372 73.2783 157.224 73.4443V73.4489Z" fill="black"/>
<path d="M171.783 86.2728C171.794 79.2053 167.316 73.4677 161.78 73.4574C156.245 73.4471 151.748 79.1681 151.736 86.2356C151.724 93.303 156.203 99.0407 161.738 99.051C167.274 99.0612 171.771 93.3403 171.783 86.2728Z" fill="black"/>
<path d="M92.3973 84.0476L150.629 84.2066C150.629 84.2066 152.835 71.7785 161.697 71.9191C172.008 72.085 172.63 84.0822 172.63 84.0822H180.471C180.471 84.0822 184.471 73.4585 180.942 70.4834C180.942 70.4834 178.127 64.2198 176.881 60.7746C176.881 60.7746 178.064 57.1128 177.754 54.8728L169.059 47.6137C165.363 42.3041 150.923 34.5219 144.941 33.4733C132.35 31.2656 122.084 29.8184 109.469 36.5475C89.9857 46.9385 83.6501 58.2374 83.6501 58.2374C83.6501 58.2374 75.9646 57.6497 63.8417 60.2492C61.3607 62.8601 60.9945 65.9343 60.4247 68.7135L60.4745 84.1213L65.1612 84.1052C66.3204 84.1006 67.3258 83.2572 67.601 82.0611C68.4828 78.2219 71.4231 71.7923 77.9581 71.5895C84.1896 71.396 89.1905 73.364 90.4429 82.2501C90.5881 83.2802 91.4201 84.043 92.3994 84.0453L92.3973 84.0476Z" fill="#B6B8B8"/>
<path d="M177.282 62.8323C177.282 62.8323 63.1028 61.0256 63.8395 60.249C76.0123 56.4558 87.4658 52.4322 87.4658 52.4322C87.4658 52.4322 98.1067 41.048 111.82 34.312C121.291 29.6592 137.932 30.8852 149.086 33.5999C156.41 35.3836 164.022 40.4511 166.513 44.0323L177.705 54.9164C178.017 57.1564 176.831 60.8182 176.831 60.8182C177.026 61.3598 177.174 62.0511 177.28 62.83L177.282 62.8323Z" fill="#B6B8B8"/>
<path d="M166.353 58.502C166.353 58.502 175.648 51.9942 177.622 55.1167C177.622 55.1167 178.485 58.0918 176.617 61.1637L166.058 61.1084L166.353 58.5044V58.502Z" fill="#F5FCF9"/>
<path d="M137.975 34.4689L135.758 52.9463L156.657 53.0384C160.958 53.0569 163.257 47.6989 160.459 44.2261C153.604 35.7156 142.49 34.7108 137.975 34.4712V34.4689Z" fill="black"/>
<path d="M136.168 34.2591C136.168 34.2591 120.012 31.5675 108.765 38.5708C102.275 42.6106 96.4512 46.9292 90.7592 52.6628L134.103 53.0983L136.168 34.2614V34.2591Z" fill="black"/>
<path d="M167.2 45.293L166.576 62.1273L163.909 69.4947H163.211L165.746 62.1388L166.513 44.0325L167.2 45.293Z" fill="#6A7070"/>
<path d="M93.433 55.3542L91.4223 62.8323L91.6996 84.0013L90.7506 84.0221L90.3627 62.7332L92.3236 55.4119L93.433 55.3542Z" fill="#6A7070"/>
<path d="M114.526 33.116H92.3712C88.8199 33.116 85.3098 33.9456 82.103 35.5679C71.8109 40.7784 54.0284 52.4322 54.0284 52.4322H84.935C86.5275 52.4322 88.0573 51.7846 89.2186 50.6231C95.9637 43.894 105.049 37.2502 114.526 33.1136V33.116Z" fill="black"/>
<path d="M26.814 84.0339L61.3455 84.1214V66.7825L23.7502 71.5021L23.6028 76.2539C23.6028 78.533 24.1532 84.0315 26.814 84.0315V84.0339Z" fill="#DEE5E5"/>
<path d="M107.712 53.038L96.1219 52.9711C94.3972 52.9619 94.6854 46.2881 101.216 46.325L106.557 46.3549C108.282 46.3642 109.688 47.8759 109.677 49.7103L109.671 50.9777C109.664 52.1162 108.784 53.0426 107.714 53.038H107.712Z" fill="#DEE5E5"/>
<path fill-rule="evenodd" clip-rule="evenodd" d="M177.811 54.7178C178.019 54.6837 178.213 54.8349 178.245 55.0554C178.559 57.2203 178.28 58.8489 177.911 59.9464C177.728 60.4939 177.522 60.9067 177.36 61.1862C177.279 61.3259 177.209 61.4324 177.157 61.5057C177.132 61.5424 177.11 61.5708 177.095 61.591C177.087 61.6011 177.081 61.6091 177.076 61.6151L177.07 61.6225L177.068 61.6251L177.067 61.6261L177.067 61.6265C177.067 61.6267 177.067 61.6269 176.794 61.3713L177.067 61.6269C176.928 61.7944 176.688 61.8107 176.531 61.6633C176.373 61.5163 176.358 61.2619 176.495 61.0943C176.495 61.0941 176.496 61.0939 176.496 61.0937L176.495 61.0941L176.497 61.0928C176.498 61.0908 176.501 61.0868 176.506 61.0808C176.515 61.0689 176.53 61.0492 176.549 61.0216C176.588 60.9664 176.645 60.8799 176.714 60.7618C176.851 60.5257 177.032 60.1638 177.196 59.6746C177.524 58.6986 177.788 57.2058 177.494 55.1788C177.462 54.9583 177.604 54.7519 177.811 54.7178ZM176.496 61.0937C176.496 61.0937 176.496 61.0937 176.496 61.0937L176.496 61.0937L176.496 61.0937Z" fill="#3B260D"/>
<path d="M55.855 65.312C57.9156 62.9338 60.5374 61.1847 63.4495 60.2606C64.5849 59.9011 65.7181 59.5577 66.5631 59.3434C69.0895 58.7004 72.8163 58.9171 72.8163 58.9171C72.8163 58.9171 72.3223 66.8514 67.809 66.7823C63.2956 66.7131 54.6005 66.7639 54.6005 66.7639L55.8572 65.312H55.855Z" fill="#F5FCF9"/>
<path d="M32.0272 64.5881C29.4726 61.2973 30.0945 61.0553 28.8507 60.0759C28.8507 60.0759 25.1673 62.8229 24.7144 66.2289C24.6494 66.7105 25.3276 66.7751 26.0101 66.7382C29.0782 66.5723 29.8453 66.5976 29.8453 66.5976L32.0294 64.5881H32.0272Z" fill="#F5FCF9"/>
<path d="M57.4931 61.6016H29.2928C29.2928 64.4246 31.4444 66.7152 34.1008 66.7152H52.6872C55.3415 66.7152 57.4953 64.4269 57.4953 61.6016H57.4931Z" fill="#525454"/>
<path d="M161.84 95.0382C165.873 95.006 169.114 91.0325 169.08 86.1632C169.046 81.2938 165.749 77.3725 161.716 77.4047C157.683 77.4369 154.442 81.4104 154.476 86.2797C154.511 91.1491 157.808 95.0704 161.84 95.0382Z" fill="#6A7070"/>
<path d="M164.197 86.3267C164.169 87.9514 163.053 89.2373 161.707 89.2004C160.362 89.1635 159.294 87.8154 159.322 86.1907C159.35 84.5661 160.466 83.2802 161.811 83.3171C163.157 83.3539 164.225 84.7021 164.197 86.3267Z" fill="#F5FCF9"/>
<path d="M130.372 84.2596L129.505 84.0384L134.211 63.1367L134.198 55.1147H135.091V63.2473L130.372 84.2596Z" fill="#6A7070"/>
<path d="M26.9613 84.0336L34.3434 77.959H49.697L61.3455 84.1212L26.9613 84.0336Z" fill="#B6B8B8"/>
<path d="M49.3201 73.9515H34.2416V74.8987H49.3201V73.9515Z" fill="#B6B8B8"/>
<path d="M128.567 61.1064H121.599V57.9193H129.46C130.04 57.9193 130.51 58.4194 130.51 59.037C130.51 60.18 129.639 61.1064 128.565 61.1064H128.567Z" fill="#DEE5E5"/>
<path d="M156.969 61.1064H150V57.9193H157.861C158.442 57.9193 158.912 58.4194 158.912 59.037C158.912 60.18 158.041 61.1064 156.966 61.1064H156.969Z" fill="#DEE5E5"/>
</g>
<defs>
<clipPath id="clip0_187_8833">
<rect width="205.44" height="120" fill="white" transform="translate(0.279999)"/>
</clipPath>
</defs>
</svg>
