<svg width="390" height="425" viewBox="0 0 390 425" fill="none" xmlns="http://www.w3.org/2000/svg">
<g opacity="0.8">
<rect x="390" y="395" width="390" height="395" transform="rotate(-180 390 395)" fill="#F4F7F7"/>
<rect x="390" y="395" width="390" height="395" transform="rotate(-180 390 395)" fill="url(#paint0_linear_3358_11641)" fill-opacity="0.8" style="mix-blend-mode:multiply"/>
<rect x="390" y="395" width="390" height="395" transform="rotate(-180 390 395)" fill="url(#paint1_radial_3358_11641)" style="mix-blend-mode:multiply"/>
<rect x="390" y="395" width="390" height="395" transform="rotate(-180 390 395)" fill="url(#paint2_linear_3358_11641)" style="mix-blend-mode:hue"/>
<rect x="390" y="395" width="390" height="395" transform="rotate(-180 390 395)" fill="url(#paint3_radial_3358_11641)" fill-opacity="0.9"/>
</g>
<path d="M0 0L390 0V425L0 425V0Z" fill="url(#paint4_linear_3358_11641)"/>
<defs>
<linearGradient id="paint0_linear_3358_11641" x1="779.074" y1="365.398" x2="360.059" y2="811.867" gradientUnits="userSpaceOnUse">
<stop offset="0.00483098" stop-color="#FCE202"/>
<stop offset="1" stop-color="#FF6F2C"/>
</linearGradient>
<radialGradient id="paint1_radial_3358_11641" cx="0" cy="0" r="1" gradientUnits="userSpaceOnUse" gradientTransform="translate(758.694 780.287) rotate(-138.28) scale(260.632 335.215)">
<stop stop-color="#00C4B3"/>
<stop offset="1" stop-color="#BFDBD8" stop-opacity="0"/>
</radialGradient>
<linearGradient id="paint2_linear_3358_11641" x1="459.477" y1="576.311" x2="523.232" y2="784.5" gradientUnits="userSpaceOnUse">
<stop stop-color="#8347AD"/>
<stop offset="1" stop-color="#00C4B3"/>
</linearGradient>
<radialGradient id="paint3_radial_3358_11641" cx="0" cy="0" r="1" gradientUnits="userSpaceOnUse" gradientTransform="translate(765.178 700.732) rotate(-179.396) scale(219.561 216.17)">
<stop stop-color="white"/>
<stop offset="1" stop-color="white" stop-opacity="0"/>
</radialGradient>
<linearGradient id="paint4_linear_3358_11641" x1="130.165" y1="42.7986" x2="179.195" y2="398.054" gradientUnits="userSpaceOnUse">
<stop stop-color="#F7FAFA" stop-opacity="0.5"/>
<stop offset="0.849631" stop-color="#F4F7F7"/>
</linearGradient>
</defs>
</svg>
