<svg width="93" height="26" viewBox="0 0 93 26" fill="none" xmlns="http://www.w3.org/2000/svg">
<g clip-path="url(#clip0_1040_5611)">
<path d="M88.682 12.1706L89.7262 11.4451C89.9949 11.2584 90.0616 10.8896 89.8749 10.621L88.1114 8.08184C87.9019 7.78133 88.1174 7.37003 88.4832 7.37003H91.5763C91.9026 7.37003 92.1682 7.10595 92.1682 6.77812V5.50476C92.1682 5.17845 91.9041 4.91285 91.5763 4.91285H88.4832C88.1174 4.91285 87.9019 4.50155 88.1114 4.20104L89.8749 1.6619C90.0616 1.39326 89.9949 1.02446 89.7262 0.837778L88.682 0.112309C88.4134 -0.07437 88.0446 -0.00759045 87.8579 0.261045L85.2687 3.99007L82.6795 0.261045C82.4928 -0.00759045 82.124 -0.07437 81.8553 0.112309L80.8112 0.837778C80.5425 1.02446 80.4757 1.39326 80.6624 1.6619L82.426 4.20104C82.6354 4.50155 82.4199 4.91285 82.0542 4.91285H78.9611C78.6347 4.91285 78.3691 5.17693 78.3691 5.50476V6.77812C78.3691 7.10443 78.6332 7.37003 78.9611 7.37003H82.0542C82.4199 7.37003 82.6354 7.78133 82.426 8.08184L80.6624 10.621C80.4757 10.8896 80.5425 11.2584 80.8112 11.4451L81.8553 12.1706C82.124 12.3572 82.4928 12.2905 82.6795 12.0218L85.2687 8.29432L87.8579 12.0218C88.0446 12.2905 88.4134 12.3572 88.682 12.1706Z" fill="#F85300"/>
<path d="M18.0498 0H19.059L18.7813 17.302C18.7752 17.6738 18.7479 18.1428 18.7145 18.7134C18.6811 19.2826 18.5749 19.8791 18.4034 20.5013C18.2304 21.1312 17.9724 21.7534 17.6354 22.3757C17.297 22.998 16.8143 23.555 16.1708 24.0376C13.1506 26.3491 8.904 26.2641 5.44664 25.0772C3.07597 24.2622 0.823676 22.5533 0.292475 19.9838C0.0754418 18.9578 -0.0171389 17.9242 0.00259143 16.8709L0.108832 0H5.11578L5.07632 16.3413C5.05659 17.434 5.08998 18.501 5.1689 19.5406C5.3404 21.5804 5.86249 23.3774 7.89623 24.1727C9.96944 24.9877 12.9897 24.7297 14.8443 23.4973C17.5201 21.7094 17.7796 18.5753 17.7993 15.634C17.8327 11.2099 17.9648 4.42566 18.0513 0" fill="#005152"/>
<path d="M30.4859 5.48503V25.9818H26.2272V4.27996C26.2272 3.08855 25.6338 1.88652 24.6822 1.15195C23.6699 0.370323 22.5392 0.470492 21.3311 0.470492V0H25.0009C28.0287 0 30.4859 2.45718 30.4859 5.48503Z" fill="#005152"/>
<path d="M40.4378 7.5992C40.4272 6.10121 40.4272 3.97338 40.4105 2.48146H36.1806C36.1639 3.97338 36.1639 6.10121 36.1639 7.5992H34.3427C33.8798 7.76615 33.8691 8.04693 33.8691 8.0788C34.6341 8.08942 35.399 8.10005 36.1533 8.11674H40.4363V8.10005H44.1866C44.1866 8.10005 44.4066 7.98167 44.4825 7.60982C43.1302 7.60982 41.7886 7.5992 40.4363 7.5992M69.0392 14.6019C69.0392 14.5746 69.0043 14.567 68.9906 14.5913C68.0724 16.323 66.6564 18.68 64.7881 20.7988V20.8049L64.7941 25.9833H69.0498C69.0225 23.7265 69.0331 17.4841 69.0392 14.6035M75.3423 9.16093C73.354 8.08942 70.3748 9.27324 68.9906 10.8896C68.9739 10.9063 68.9633 10.9215 68.9527 10.9382V9.25655H64.7501L64.7881 16.8527V17.4886C64.5938 17.8013 64.4162 18.0972 64.2705 18.334C63.759 19.1581 63.2354 19.9443 62.6435 20.6242C61.2594 22.192 59.0131 23.2423 56.9066 23.2696C55.0322 23.2909 53.2747 22.4182 51.9072 21.1691L49.1055 23.6794C50.1178 24.3912 52.3595 25.6828 55.2416 25.6828C55.9656 25.6828 56.7153 25.6388 57.4211 25.4688C57.6502 25.4142 57.8764 25.3459 58.098 25.2669C58.3863 25.1652 58.6686 25.0469 58.9433 24.9148C59.2848 24.7524 59.6172 24.5688 59.9405 24.3715C60.3305 24.1332 60.7069 23.8722 61.0697 23.5959C61.5007 23.2666 61.915 22.9145 62.3127 22.5457C62.7801 22.1116 63.2263 21.6548 63.6513 21.1797C64.1476 20.6258 64.6196 20.049 65.0673 19.4571C65.5879 18.7696 66.0781 18.0608 66.5425 17.3354C67.0783 16.5006 67.5822 15.6431 68.0587 14.7734C68.1286 14.646 68.1968 14.5185 68.2651 14.391C68.6309 13.7126 68.8495 12.9537 69.2183 12.2738C69.6918 11.4011 70.3626 10.539 71.3036 10.1429C71.5996 10.0184 71.9547 9.90917 72.2795 9.94711C72.7242 9.99871 72.8213 10.4039 72.7804 10.8031C72.7424 11.1582 72.5967 11.4921 72.5436 11.8534C72.4085 12.9795 73.4481 14.0616 74.5804 14.0616C75.7065 14.0662 76.7249 13.0812 76.86 11.9657C76.9996 10.8456 76.3379 9.6982 75.3407 9.15941M55.0914 8.98336C54.973 8.94086 54.8485 8.90292 54.7195 8.87105C53.9227 8.65553 53.088 8.60089 52.2365 8.7041C51.3851 8.80123 50.5929 9.02737 49.8659 9.36127C47.6895 10.3584 45.8363 12.3466 45.2217 14.7006C44.4992 17.437 45.9213 20.1204 47.6788 22.1678C47.6257 22.2224 47.5817 22.2588 47.5817 22.2588C45.2004 24.9088 42.8996 24.4292 42.8996 24.4292C40.195 24.1969 40.3999 20.0657 40.3999 20.0657C40.4166 19.5755 40.4272 11.9475 40.4317 8.9788H36.1548C36.1654 12.6577 36.1821 17.8362 36.1821 21.2571C36.1821 24.3548 42.1407 29.0036 48.4119 23.3212L48.5136 23.2302L51.4018 20.6713C53.4219 18.9639 56.5848 17.0455 57.3391 14.3849C57.9204 12.3375 57.248 9.77864 55.0929 8.98639M52.8892 16.3625C52.2487 17.2731 51.417 18.2596 50.6035 19.1551C50.3455 18.6436 50.092 18.1261 49.8386 17.6085C48.9977 15.7873 47.565 13.1313 48.5242 11.1173C48.7503 10.6058 49.2299 10.1793 49.963 9.85149C51.0193 9.37189 52.0104 9.77561 52.6888 10.6711C52.965 11.0232 53.1973 11.4193 53.3855 11.8458C54.0411 13.324 53.8195 15.0421 52.8892 16.364" fill="#005152"/>
</g>
<defs>
<clipPath id="clip0_1040_5611">
<rect width="92.1664" height="26" fill="white"/>
</clipPath>
</defs>
</svg>
