<svg width="132" height="132" viewBox="0 0 132 132" fill="none" xmlns="http://www.w3.org/2000/svg">
<path d="M101.026 131.327C96.4454 132.742 91.3013 131.892 86.0641 129.095C86.0628 129.095 86.0621 129.094 86.0601 129.093C85.0057 128.53 83.9487 127.947 82.8904 127.345C57.0896 112.677 30.4996 86.8926 12.0858 61.6043C7.28904 55.0166 2.84107 47.5361 0.953686 39.7623C0.667003 38.5837 0.43968 37.3976 0.278463 36.207C-0.210584 32.5864 -0.0824202 28.9236 0.878136 25.2766C1.94595 21.2249 3.88595 18.0428 6.35816 15.4728C9.60072 12.1011 13.7593 9.78307 18.0629 7.93964C18.1311 7.91031 18.1992 7.88098 18.2666 7.8524C35.8481 0.42153 56.1081 -1.87015 75.9425 1.55496C94.1809 4.70481 122.61 15.1133 129.274 38.8943C137.679 68.8908 125.547 108.72 107.905 126.976C105.828 129.126 103.509 130.559 101.025 131.327H101.026Z" fill="#007278" fill-opacity="0.26"/>
<path d="M44.3718 55.0159C44.3964 54.4648 44.0166 53.9958 43.5233 53.9683C43.0301 53.9408 42.6103 54.3651 42.5856 54.9162C42.561 55.4672 42.9409 55.9362 43.4341 55.9638C43.9273 55.9913 44.3472 55.5669 44.3718 55.0159Z" fill="#355E60"/>
<path d="M54.1806 56.1745C54.5312 56.1745 54.8154 55.8571 54.8154 55.4654C54.8154 55.0738 54.5312 54.7563 54.1806 54.7563C53.8301 54.7563 53.5459 55.0738 53.5459 55.4654C53.5459 55.8571 53.8301 56.1745 54.1806 56.1745Z" fill="#355E60"/>
<path d="M49.5707 45.1185H50.2332V55.7605L49.4688 55.7501L49.5707 45.1185Z" fill="#355E60"/>
<path d="M47.2168 55.7863L48.7318 45.1185H49.5704L48.7921 56.0037L47.2168 55.7863Z" fill="#C4C7BF"/>
<path d="M50.6082 44.8597H48.1572V45.2479H50.6082V44.8597Z" fill="#C4C7BF"/>
<path d="M50.2333 50.7294H48.0557V51.1176H50.2333V50.7294Z" fill="#C4C7BF"/>
<path d="M50.2333 53.9126H48.0557V54.3008H50.2333V53.9126Z" fill="#C4C7BF"/>
<path d="M45.6508 55.7344L44.6779 55.8372L44.5898 55.8166L45.5628 55.7139L45.6508 55.7344Z" fill="#355E60"/>
<path d="M45.5634 55.7138L44.5904 55.8174C44.785 53.7159 44.3865 51.7283 43.6591 51.1952C43.3163 50.9415 42.9271 50.9053 42.8159 50.9001C42.7974 50.9001 42.7881 50.9001 42.7881 50.9001L43.7611 50.7966C43.7611 50.7966 43.7703 50.7966 43.7888 50.7966C43.8954 50.8018 44.2846 50.838 44.6321 51.0916C45.3595 51.6248 45.7579 53.6124 45.5634 55.7138Z" fill="#355E60"/>
<mask id="mask0_1190_6297" style="mask-type:luminance" maskUnits="userSpaceOnUse" x="42" y="50" width="4" height="6">
<path d="M45.5643 55.7138L44.5914 55.8173C44.786 53.7159 44.3875 51.7283 43.6601 51.1951C43.3172 50.9415 42.9281 50.9053 42.8169 50.9001C42.7983 50.9001 42.7891 50.9001 42.7891 50.9001L43.762 50.7966C43.762 50.7966 43.7713 50.7966 43.7898 50.7966C43.8964 50.8017 44.2856 50.838 44.6331 51.0916C45.3605 51.6247 45.7589 53.6123 45.5643 55.7138Z" fill="white"/>
</mask>
<g mask="url(#mask0_1190_6297)">
<path d="M45.5643 55.7138L44.5914 55.8173C44.786 53.7159 44.3875 51.7283 43.6601 51.1951C43.3172 50.9415 42.9281 50.9053 42.8169 50.9001C42.7983 50.9001 42.7891 50.9001 42.7891 50.9001L43.762 50.7966C43.762 50.7966 43.7713 50.7966 43.7898 50.7966C43.8964 50.8017 44.2856 50.838 44.6331 51.0916C45.3605 51.6247 45.7589 53.6123 45.5643 55.7138Z" fill="#355E60"/>
</g>
<mask id="mask1_1190_6297" style="mask-type:luminance" maskUnits="userSpaceOnUse" x="42" y="50" width="2" height="1">
<path d="M42.7197 50.9045L43.6927 50.8017C43.7344 50.8017 43.7576 50.8017 43.7576 50.7966L42.7846 50.8993C42.7846 50.8993 42.7614 50.8993 42.7197 50.9045Z" fill="white"/>
</mask>
<g mask="url(#mask1_1190_6297)">
<path d="M43.7615 50.7966L42.7885 50.8993C42.7885 50.8993 42.7653 50.8993 42.7236 50.9045L43.6966 50.8017C43.7383 50.8017 43.7615 50.8017 43.7615 50.7966Z" fill="#1A1C18"/>
</g>
<path d="M42.7001 50.7706L43.6731 50.6671C43.5156 50.6826 43.1542 50.7499 42.8206 51.0191C42.0839 51.6092 41.6994 53.5139 41.9032 55.5533L40.9302 55.6568C40.7264 53.6175 41.1109 51.7127 41.8476 51.1226C42.1812 50.8586 42.5426 50.7913 42.7001 50.7706Z" fill="#C4C7BF"/>
<mask id="mask2_1190_6297" style="mask-type:luminance" maskUnits="userSpaceOnUse" x="40" y="50" width="4" height="6">
<path d="M42.7011 50.7706L43.6741 50.6671C43.5165 50.6826 43.1551 50.7499 42.8216 51.0191C42.0849 51.6092 41.7003 53.5139 41.9042 55.5533L40.9312 55.6568C40.7274 53.6175 41.1119 51.7127 41.8486 51.1226C42.1822 50.8586 42.5436 50.7913 42.7011 50.7706Z" fill="white"/>
</mask>
<g mask="url(#mask2_1190_6297)">
<path d="M41.9077 55.5482L40.9347 55.6518C40.805 54.3681 40.9116 53.1414 41.1895 52.2563L42.1625 52.1528C41.8845 53.0379 41.778 54.2646 41.9077 55.5482Z" fill="#C4C7BF"/>
<path d="M42.1575 52.1579L41.1846 52.2615C41.3143 51.8422 41.4857 51.5058 41.6896 51.2728L42.6625 51.1693C42.4587 51.4022 42.2873 51.7387 42.1575 52.1579Z" fill="#C4C7BF"/>
<path d="M42.6673 51.1692L41.6943 51.2727C41.7453 51.2158 41.7963 51.164 41.8519 51.1226C42.1855 50.8586 42.5468 50.7913 42.7044 50.7706L43.6773 50.6671C43.5198 50.6826 43.1584 50.7499 42.8248 51.0191C42.7692 51.0605 42.7183 51.1123 42.6673 51.1692Z" fill="#C4C7BF"/>
</g>
<path d="M43.7976 50.6621C43.9227 50.6672 44.3119 50.7086 44.664 50.9674C45.4239 51.5265 45.8455 53.571 45.6463 55.7294L45.5582 55.7087C45.7528 53.6072 45.3544 51.6196 44.627 51.0865C44.2841 50.8329 43.8949 50.7966 43.7837 50.7915C43.7652 50.7915 43.7559 50.7915 43.7559 50.7915C43.7513 50.7915 43.2741 50.8018 42.8571 51.1331C42.1528 51.6973 41.7868 53.5451 41.986 55.5275L41.898 55.5431C41.6942 53.5037 42.0787 51.5989 42.8154 51.0089C43.2509 50.6621 43.7328 50.6517 43.7513 50.6517C43.7513 50.6517 43.7698 50.6517 43.793 50.6517L43.7976 50.6621Z" fill="#BCC0B5"/>
<path d="M41.8701 55.1238L45.6879 55.1807L45.6508 55.7346L41.9211 55.6569L41.8701 55.1238Z" fill="#355E60"/>
<path d="M55.8025 55.9312L55.0519 56.0134L54.9824 55.998L55.733 55.9157L55.8025 55.9312Z" fill="#355E60"/>
<path d="M55.7333 55.9158L54.9827 55.9986C55.1356 54.3785 54.8252 52.8516 54.2646 52.4426C54.0005 52.246 53.6993 52.2201 53.6159 52.2149C53.602 52.2149 53.5928 52.2149 53.5928 52.2149L54.3433 52.1321C54.3433 52.1321 54.3526 52.1321 54.3665 52.1321C54.4499 52.1321 54.7511 52.1631 55.0152 52.3598C55.5758 52.7687 55.8816 54.3008 55.7333 55.9158Z" fill="#355E60"/>
<mask id="mask3_1190_6297" style="mask-type:luminance" maskUnits="userSpaceOnUse" x="53" y="52" width="3" height="4">
<path d="M55.7333 55.9158L54.9827 55.9986C55.1356 54.3785 54.8252 52.8516 54.2646 52.4426C54.0005 52.246 53.6993 52.2201 53.6159 52.2149C53.602 52.2149 53.5928 52.2149 53.5928 52.2149L54.3433 52.1321C54.3433 52.1321 54.3526 52.1321 54.3665 52.1321C54.4499 52.1321 54.7511 52.1631 55.0152 52.3598C55.5758 52.7687 55.8816 54.3008 55.7333 55.9158Z" fill="white"/>
</mask>
<g mask="url(#mask3_1190_6297)">
<path d="M55.7333 55.9158L54.9827 55.9986C55.1356 54.3785 54.8252 52.8516 54.2646 52.4426C54.0005 52.246 53.6993 52.2201 53.6159 52.2149C53.602 52.2149 53.5928 52.2149 53.5928 52.2149L54.3433 52.1321C54.3433 52.1321 54.3526 52.1321 54.3665 52.1321C54.4499 52.1321 54.7511 52.1631 55.0152 52.3598C55.5758 52.7687 55.8816 54.3008 55.7333 55.9158Z" fill="#355E60"/>
</g>
<mask id="mask4_1190_6297" style="mask-type:luminance" maskUnits="userSpaceOnUse" x="53" y="52" width="2" height="1">
<path d="M53.5459 52.2143L54.2965 52.1321C54.3289 52.1321 54.3474 52.1321 54.3474 52.1321L53.5969 52.2143C53.5969 52.2143 53.5783 52.2143 53.5459 52.2143Z" fill="white"/>
</mask>
<g mask="url(#mask4_1190_6297)">
<path d="M54.3474 52.1321L53.5969 52.2143C53.5969 52.2143 53.5783 52.2143 53.5459 52.2143L54.2965 52.1321C54.3289 52.1321 54.3474 52.1321 54.3474 52.1321Z" fill="#1A1C18"/>
</g>
<path d="M53.5321 52.1114L54.2827 52.0286C54.1622 52.0441 53.8842 52.0959 53.6248 52.2977C53.0595 52.748 52.763 54.218 52.9205 55.7864L52.1699 55.8692C52.0124 54.3008 52.3089 52.8308 52.8742 52.3805C53.129 52.1735 53.407 52.1217 53.5321 52.1114Z" fill="#C4C7BF"/>
<mask id="mask5_1190_6297" style="mask-type:luminance" maskUnits="userSpaceOnUse" x="52" y="52" width="3" height="4">
<path d="M53.5321 52.1114L54.2827 52.0286C54.1622 52.0441 53.8842 52.0959 53.6248 52.2977C53.0595 52.748 52.763 54.218 52.9205 55.7864L52.1699 55.8692C52.0124 54.3008 52.3089 52.8308 52.8742 52.3805C53.129 52.1735 53.407 52.1217 53.5321 52.1114Z" fill="white"/>
</mask>
<g mask="url(#mask5_1190_6297)">
<path d="M52.9207 55.7916L52.1702 55.8744C52.0729 54.8858 52.1516 53.9386 52.3648 53.2605L53.1153 53.1777C52.9022 53.8557 52.8188 54.8029 52.9207 55.7916Z" fill="#C4C7BF"/>
<path d="M53.1148 53.1777L52.3643 53.2605C52.4662 52.9396 52.5959 52.6756 52.7534 52.4996L53.504 52.4168C53.3465 52.5928 53.2168 52.8567 53.1148 53.1777Z" fill="#C4C7BF"/>
<path d="M53.5045 52.4167L52.7539 52.4995C52.791 52.4581 52.8327 52.4167 52.8744 52.3857C53.1292 52.1786 53.4072 52.1269 53.5323 52.1165L54.2829 52.0337C54.1624 52.0492 53.8844 52.101 53.6249 52.3028C53.5832 52.3339 53.5415 52.3753 53.5045 52.4167Z" fill="#C4C7BF"/>
</g>
<path d="M54.3755 52.0286C54.4728 52.0286 54.7693 52.0648 55.0427 52.2667C55.6264 52.6963 55.9554 54.275 55.7979 55.9365L55.733 55.9209C55.8859 54.3008 55.5755 52.7739 55.0149 52.365C54.7508 52.1683 54.4496 52.1424 54.3662 52.1373C54.3523 52.1373 54.3431 52.1373 54.3431 52.1373C54.3431 52.1373 53.9724 52.1476 53.6527 52.4012C53.1106 52.836 52.828 54.2594 52.9809 55.7864L52.916 55.8019C52.7585 54.2336 53.055 52.7636 53.6203 52.3132C53.9539 52.0441 54.3245 52.0389 54.3431 52.0389C54.3431 52.0389 54.357 52.0389 54.3755 52.0389V52.0286Z" fill="#BCC0B5"/>
<path d="M52.8926 55.4655L55.83 55.5069L55.8022 55.9313L52.9296 55.8744L52.8926 55.4655Z" fill="#355E60"/>
<path d="M18.6807 67.9138L19.0513 68.1674L31.3061 69.3942L33.7709 66.6146L18.6807 67.9138Z" fill="#284849"/>
<path d="M23.5267 74.1665C24.2819 73.2451 25.2178 72.2358 26.3576 71.2523C28.3823 69.4977 30.3606 68.4055 31.922 67.7119C27.5066 67.7792 23.0912 67.8465 18.6758 67.9138L20.2557 66.0349C20.8348 65.3465 21.6271 64.9376 22.4703 64.8858L34.2803 64.1871L44.7791 58.4727L37.8571 55.9313V55.4499L58.8268 55.7915L60.7403 57.6808L71.2715 58.0742L71.7487 58.5918L69.9789 58.7108L73.6437 61.7595L77.0861 63.7316L91.1108 65.7036L93.0798 66.8475L92.547 66.9873L96.6289 70.7762L57.6546 79.3994L24.4811 78.2555L23.5267 74.1716V74.1665Z" fill="#BCC0B5"/>
<path d="M32.21 73.1882C33.5443 72.0184 35.1845 70.7606 37.1304 69.5701C38.6825 68.6229 40.1512 67.8931 41.4763 67.3237C57.4515 67.1788 73.4266 67.0339 89.4018 66.8941L93.7709 71.2213L55.7882 73.0536L32.21 73.1933V73.1882Z" fill="#284849"/>
<path d="M67.1667 62.0079H74.0841L77.0864 63.7264L91.111 65.6984L93.0801 66.8423L85.2917 66.7181C82.6693 66.0194 79.769 65.4034 76.6138 64.9635C74.7559 64.7047 72.9767 64.5338 71.281 64.4251C69.9096 63.6177 68.5335 62.8154 67.1621 62.0079H67.1667Z" fill="#529193"/>
<path d="M70.6281 64.0369H36.2314L71.0914 64.2233L70.6281 64.0369Z" fill="#529193"/>
<path d="M41.4763 67.3185C40.2068 67.862 38.8122 68.5556 37.3528 69.4355C35.3096 70.6623 33.5999 71.9718 32.21 73.1882H34.3644C35.5922 72.0857 37.0563 70.9055 38.7705 69.7616C40.2948 68.7471 41.7404 67.9448 43.0562 67.303C42.528 67.303 42.0045 67.3134 41.4763 67.3185Z" fill="#213A3B"/>
<path d="M41.4766 67.3186L89.4021 66.8889L89.7218 67.2047L41.0596 67.7585L41.4766 67.3186Z" fill="#213A3B"/>
<path d="M54.2215 67.4221H51.3906V73.0743H54.2215V67.4221Z" fill="#213A3B"/>
<path d="M51.3914 67.2306V73.0743H51.2246V67.2306H51.3914Z" fill="#657B97"/>
<path d="M89.4014 66.8889L92.5519 66.9769L95.6654 69.8703L92.3851 69.8445L89.4014 66.8889Z" fill="#355E60"/>
<path d="M92.3851 69.8445L92.1256 69.5857L58.7714 70.036L55.5885 72.831H54.2217V73.0743L55.7877 73.0484L92.3851 69.8445Z" fill="#213A3B"/>
<path d="M44.6777 61.5059C46.443 60.5586 48.6576 59.6166 51.28 59.011C52.3178 58.7729 53.3001 58.6125 54.2221 58.5089H61.8575L65.6706 61.6922L44.6777 61.511V61.5059Z" fill="#2C4D4F"/>
<path d="M62.71 58.5038L69.984 58.7108L73.5655 61.687H66.7547L62.71 58.5038Z" fill="#2C4D4F"/>
<path d="M89.7211 67.2047L92.8577 67.2668L92.5519 66.9769L89.4014 66.8889L89.7211 67.2047Z" fill="#284849"/>
<path d="M92.126 69.5857H95.1236L92.6032 67.2616L92.858 67.2668L95.6657 69.8704L92.3854 69.8445L92.126 69.5857Z" fill="#284849"/>
<path d="M54.2223 58.5038L48.2872 61.0659L65.6755 61.6922L44.6826 61.511C45.8224 60.9003 47.1753 60.2791 48.7181 59.7512C50.7845 59.0472 52.6609 58.6901 54.2269 58.5141L54.2223 58.5038Z" fill="#213A3B"/>
<path d="M54.2219 58.5038H61.8574L65.6705 61.687L61.5238 58.7263L53.3926 58.8609L54.2219 58.5038Z" fill="#213A3B"/>
<path d="M55.0332 58.835V61.4127H56.5992V58.7212L55.0332 58.835Z" fill="#213A3B"/>
<path d="M60.7408 57.6808L58.8273 55.7915L51.3076 55.6673L52.8041 57.6808H60.7408Z" fill="#529193"/>
<path d="M71.7494 58.5918L71.2722 58.0742L62.2051 57.7325L62.7101 58.5038L71.7494 58.5918Z" fill="#529193"/>
<path d="M71.7496 58.5918L62.6084 58.3485L62.7103 58.5038L69.9844 58.7108L71.7496 58.5918Z" fill="#355E60"/>
<path d="M66.7549 61.687L67.1672 62.008H74.0892L73.5656 61.687H66.7549Z" fill="#529193"/>
<path d="M69.8453 58.8143L73.0561 61.4903H69.1688L66.2129 58.7108L69.8453 58.8143Z" fill="#355E60"/>
<path d="M44.6777 61.5059L44.2236 61.8734L66.1061 62.0079L65.6706 61.687L44.6777 61.5059Z" fill="#529193"/>
<path d="M40.0072 67.9914H33.1501C32.2791 68.3745 31.3571 68.8351 30.398 69.3941C28.3316 70.6001 26.6405 71.9407 25.2969 73.183H32.2049C33.3493 72.184 34.7068 71.1229 36.2821 70.0981C37.5979 69.244 38.8535 68.5504 40.0026 67.9914H40.0072Z" fill="#355E60"/>
<path d="M33.1543 67.9914L35.1419 67.3237L41.4755 67.3185L40.0068 67.9914L35.6747 68.1674L33.1543 67.9914Z" fill="#355E60"/>
<path d="M34.9062 67.4014C35.5549 67.215 36.1989 67.0287 36.8475 66.8423H60.1385L59.8512 67.1633C51.5347 67.2409 43.2228 67.3237 34.9062 67.4014Z" fill="#355E60"/>
<path d="M52.8043 57.6808L46.7256 57.7325V57.5773L53.5456 57.5048L52.8043 57.6808Z" fill="#529193"/>
<path d="M37.8574 55.4447L58.8271 55.7915L59.1329 56.0866L37.8574 55.657V55.4447Z" fill="#FDFFF9"/>
<path d="M71.2906 64.4251L70.9478 64.2233L36.2314 64.0369L71.2906 64.4251Z" fill="#FDFFF9"/>
<path d="M85.2965 66.713L60.1338 66.8424L84.4811 66.5059L85.2965 66.713Z" fill="#FDFFF9"/>
<path d="M21.3035 65.5742L21.1367 65.3775L22.6657 63.7523C23.3653 63.0069 24.2873 62.5514 25.251 62.4738L40.8694 61.216L40.8879 61.4852L25.2695 62.7429C24.3568 62.8154 23.495 63.245 22.8325 63.9489L21.3035 65.5742Z" fill="#BCC0B5"/>
<path d="M27.9627 62.3087L26.3477 65.2461L26.5529 65.3869L28.168 62.4496L27.9627 62.3087Z" fill="#BCC0B5"/>
<path d="M33.911 61.8328L32.1094 64.8518L32.3098 65.0011L34.1114 61.9821L33.911 61.8328Z" fill="#BCC0B5"/>
<path d="M93.0854 66.8424L92.5526 66.9769L89.4021 66.8889L66.542 67.0908L66.7551 66.9666L85.2971 66.713L93.0854 66.8424Z" fill="#355E60"/>
<path d="M66.7547 66.9666L59.9764 67.0183L59.8467 67.1633L66.6157 67.1219L66.7547 66.9666Z" fill="#355E60"/>
<path d="M7.56574 84.9326L1.66309 84.7877C2.93257 83.0537 4.81827 80.8849 7.46381 78.9336C11.9719 75.6157 16.378 74.6374 18.9031 74.3062C15.1224 77.8466 11.3464 81.387 7.56574 84.9274V84.9326Z" fill="#BCC0B5"/>
<path d="M1.66331 84.7877L0.676443 84.9274L0 86.3819L6.12968 86.5423L7.4455 84.9326L1.66331 84.7877Z" fill="#BCC0B5"/>
<path d="M0.968639 82.2876L0.875977 82.1996C2.78948 79.6789 4.9995 77.6137 7.44118 76.0712C12.3894 72.9449 17.3145 72.4842 21.2758 72.1116C22.6889 71.977 24.1252 71.9149 25.5383 71.9252L54.5374 71.6302C54.9358 71.6302 55.3296 71.4749 55.6447 71.2057L58.3783 68.8662C58.6284 68.654 58.9389 68.5349 59.2493 68.5349H88.9108V68.6695H59.2493C58.962 68.6695 58.6794 68.7782 58.4524 68.9697L55.7188 71.3093C55.3806 71.5991 54.9636 71.7596 54.542 71.7648L25.543 72.0598C24.1345 72.0494 22.7028 72.1116 21.2897 72.2461C17.3423 72.6188 12.4311 73.0795 7.50604 76.1903C5.07363 77.7275 2.87751 79.7773 0.973273 82.2928L0.968639 82.2876Z" fill="#BCC0B5"/>
<path d="M6.6439 76.7182H6.52344V79.8704H6.6439V76.7182Z" fill="#BCC0B5"/>
<path d="M10.3412 74.6219H10.2207V77.6499H10.3412V74.6219Z" fill="#BCC0B5"/>
<path d="M15.0902 73.0588H14.9697V75.2896H15.0902V73.0588Z" fill="#BCC0B5"/>
<path d="M19.682 72.3393H19.5615V74.1251H19.682V72.3393Z" fill="#BCC0B5"/>
<path d="M25.1166 71.9925H24.9961V74.125H25.1166V71.9925Z" fill="#BCC0B5"/>
<path d="M32.0482 71.9925H31.9277V73.7938H32.0482V71.9925Z" fill="#BCC0B5"/>
<path d="M40.0677 71.8476H39.9473V73.8973H40.0677V71.8476Z" fill="#BCC0B5"/>
<path d="M46.5546 71.7803H46.4434V73.359H46.5546V71.7803Z" fill="#BCC0B5"/>
<path d="M52.4935 71.7234H52.373V73.3642H52.4935V71.7234Z" fill="#BCC0B5"/>
<path d="M59.0453 68.6333H58.9248V70.4086H59.0453V68.6333Z" fill="#BCC0B5"/>
<path d="M66.1664 68.6333H66.0459V70.771H66.1664V68.6333Z" fill="#BCC0B5"/>
<path d="M73.5472 68.6074H73.4268V70.2585H73.5472V68.6074Z" fill="#BCC0B5"/>
<path d="M79.8753 68.6333H79.7549V70.5639H79.8753V68.6333Z" fill="#BCC0B5"/>
<path d="M85.7142 68.6074H85.5938V70.0412H85.7142V68.6074Z" fill="#BCC0B5"/>
<path d="M131.072 70.9625L130.956 70.9211L131.123 70.3207C131.151 70.2223 131.137 70.1136 131.081 70.0256C131.026 69.9376 130.942 69.8859 130.85 69.8859C125.809 69.6581 120.689 69.4563 115.634 69.2906C106.743 68.9904 97.7226 68.7834 88.8223 68.6643V68.5298C97.7226 68.6488 106.743 68.8558 115.639 69.1561C120.694 69.3269 125.814 69.5287 130.854 69.7513C130.984 69.7565 131.105 69.8289 131.179 69.948C131.253 70.067 131.276 70.2171 131.234 70.3569L131.068 70.9573L131.072 70.9625Z" fill="#718BAE"/>
<path d="M91.8753 68.6436H91.7549V69.979H91.8753V68.6436Z" fill="#718BAE"/>
<path d="M97.0921 68.7316H96.9717V70.036H97.0921V68.7316Z" fill="#718BAE"/>
<path d="M102.074 68.8403H101.953V70.1188H102.074V68.8403Z" fill="#718BAE"/>
<path d="M110.469 69.0577H110.349V70.4345H110.469V69.0577Z" fill="#718BAE"/>
<path d="M118.744 69.3268H118.623V70.9418H118.744V69.3268Z" fill="#718BAE"/>
<path d="M126.231 69.6167H126.11V70.8538H126.231V69.6167Z" fill="#718BAE"/>
<path d="M7.44579 84.9274C8.85891 82.6293 10.2581 80.916 11.3191 79.741C13.0241 77.8518 14.4465 76.2783 16.7631 75.1395C18.6117 74.2285 20.2936 73.9542 21.4055 73.8662C32.6317 73.7989 43.8579 73.7265 55.0794 73.6592L56.7705 72.0443L131.995 71.4283L118.563 85.0775L7.43652 84.9274H7.44579Z" fill="url(#paint0_linear_1190_6297)"/>
<path opacity="0.74" d="M131.999 71.4232L118.568 85.0724L65.0361 84.9999L98.8258 71.6975L131.999 71.4232Z" fill="url(#paint1_linear_1190_6297)"/>
<path d="M92.7979 85.0724L121.991 81.5941L118.568 85.0724H92.7979Z" fill="#213A3B"/>
<path d="M48.3561 78.8249H35.2442C35.0651 78.8249 34.9199 78.9871 34.9199 79.1872V82.1375C34.9199 82.3377 35.0651 82.4999 35.2442 82.4999H48.3561C48.5352 82.4999 48.6804 82.3377 48.6804 82.1375V79.1872C48.6804 78.9871 48.5352 78.8249 48.3561 78.8249Z" fill="#284849"/>
<path opacity="0.74" d="M40.9667 75.9418H39.0532C39.0276 75.9418 39.0068 75.965 39.0068 75.9936V76.4232C39.0068 76.4518 39.0276 76.475 39.0532 76.475H40.9667C40.9923 76.475 41.013 76.4518 41.013 76.4232V75.9936C41.013 75.965 40.9923 75.9418 40.9667 75.9418Z" fill="url(#paint2_linear_1190_6297)"/>
<path d="M58.8271 79.1872V82.1427C58.8271 82.3394 58.9615 82.5051 59.1283 82.5051H71.3599C71.5267 82.5051 71.661 82.3446 71.661 82.1427V79.1872C71.661 78.9905 71.5267 78.8249 71.3599 78.8249H59.1283C58.9615 78.8249 58.8271 78.9853 58.8271 79.1872Z" fill="#284849"/>
<path d="M87.349 78.1468L87.0479 79.6323H88.2571L88.5722 78.1934C88.6 78.0743 88.5166 77.9553 88.4054 77.9553H87.5575C87.4556 77.9553 87.3675 78.0329 87.3444 78.1416L87.349 78.1468Z" fill="#2A2233"/>
<path d="M94.892 78.1468L94.5908 79.6323H95.8001L96.1151 78.1934C96.1429 78.0743 96.0595 77.9553 95.9483 77.9553H95.1005C94.9985 77.9553 94.9105 78.0329 94.8873 78.1416L94.892 78.1468Z" fill="#2A2233"/>
<path d="M102.703 78.1468L102.402 79.6323H103.612L103.927 78.1934C103.954 78.0743 103.871 77.9553 103.76 77.9553H102.912C102.81 77.9553 102.722 78.0329 102.699 78.1416L102.703 78.1468Z" fill="#2A2233"/>
<path d="M18.1855 76.6768L86.6777 76.4801L86.1681 76.6768L18.1855 76.9615V76.6768Z" fill="#D4C9D4"/>
<path d="M18.1855 76.9615L18.4311 77.1427L85.9132 76.7803L86.168 76.6768L18.1855 76.9615Z" fill="#284849"/>
<path d="M18.1856 76.6768C18.1161 76.7389 18.0513 76.801 17.9818 76.8683C17.1617 77.6189 16.3046 78.4781 15.4382 79.4615C13.7656 81.3611 12.4729 83.2452 11.4814 84.9274H11.7872C12.6953 83.3487 13.8953 81.5475 15.466 79.7359C16.3972 78.6644 17.3146 77.7431 18.181 76.9615V76.6768H18.1856Z" fill="#D4C9D4"/>
<path d="M11.792 84.9326H11.9449C12.8901 83.3901 14.0715 81.6872 15.531 79.9584C16.4669 78.8508 17.3889 77.8777 18.2738 77.0288C18.246 77.0081 18.2136 76.9874 18.1858 76.9667C17.2684 77.7948 16.2815 78.7886 15.2808 79.9636C13.7982 81.7079 12.6584 83.4264 11.792 84.9326Z" fill="#284849"/>
<path d="M10.2298 84.9274C11.0916 83.0226 12.8383 79.829 16.0723 77.1582C17.8931 75.6572 19.663 74.7565 21.039 74.2027C21.002 74.1043 20.9603 74.006 20.9232 73.9077C20.1495 73.9956 19.1672 74.1768 18.0692 74.5754C16.8831 75.005 15.9981 75.5278 15.4978 75.8487C14.4321 76.5319 13.765 77.1841 12.7827 78.152C12.426 78.504 11.1611 79.7669 9.6646 81.7131C9.03449 82.5309 8.26538 83.6075 7.44531 84.9223C8.37195 84.9223 9.30321 84.9223 10.2298 84.9223V84.9274Z" fill="#355E60"/>
<path d="M21.035 74.2079L55.0842 73.654L21.4057 73.8611L20.9238 73.9077L21.035 74.2079Z" fill="#355E60"/>
<path opacity="0.74" d="M85.913 76.7803L63.4004 76.8994L85.1068 77.0961L85.913 76.7803Z" fill="url(#paint3_linear_1190_6297)"/>
<path d="M56.7744 72.0391L97.917 72.0546L98.8251 71.6975L56.7744 72.0391Z" fill="url(#paint4_linear_1190_6297)"/>
<path opacity="0.74" d="M58.7391 75.8124H56.8256C56.8 75.8124 56.7793 75.8356 56.7793 75.8642V76.2938C56.7793 76.3224 56.8 76.3456 56.8256 76.3456H58.7391C58.7647 76.3456 58.7855 76.3224 58.7855 76.2938V75.8642C58.7855 75.8356 58.7647 75.8124 58.7391 75.8124Z" fill="url(#paint5_linear_1190_6297)"/>
<path opacity="0.74" d="M80.2147 75.7762H78.3012C78.2756 75.7762 78.2549 75.7994 78.2549 75.8279V76.2576C78.2549 76.2861 78.2756 76.3093 78.3012 76.3093H80.2147C80.2403 76.3093 80.261 76.2861 80.261 76.2576V75.8279C80.261 75.7994 80.2403 75.7762 80.2147 75.7762Z" fill="url(#paint6_linear_1190_6297)"/>
<path d="M86.6776 76.4802L123.799 76.4594V76.7131L86.168 76.6768L86.6776 76.4802Z" fill="#9593AC"/>
<path opacity="0.74" d="M86.1679 76.6768L123.799 76.7131L123.683 76.9408L85.2969 77.0236L86.1679 76.6768Z" fill="#355E60"/>
<path d="M123.799 76.4594L127.63 75.8642L127.376 76.123L123.799 76.7131V76.4594Z" fill="#9593AC"/>
<path opacity="0.74" d="M123.798 76.7131L127.375 76.123L127.083 76.418L123.683 76.9408L123.798 76.7131Z" fill="#355E60"/>
<path d="M56.7744 72.0391L58.7806 70.3206L94.0251 69.8445L131.507 70.9159L131.999 71.4231L56.7744 72.0391Z" fill="#B5B8AB"/>
<path d="M94.0254 69.8445L98.8254 71.6975L131.999 71.4231C131.948 71.3403 131.874 71.2368 131.772 71.1333C131.675 71.0349 131.582 70.9677 131.503 70.9211C127.801 70.771 124.095 70.6312 120.393 70.507C111.604 70.2119 102.815 69.9894 94.0254 69.8445Z" fill="#487F80"/>
<path d="M118.568 85.0723L118.067 85.6624L63.9287 85.6935L65.036 84.9999L118.568 85.0723Z" fill="#355E60"/>
<path d="M63.9283 85.6935L65.0356 84.9999L7.44531 84.9274L6.8291 85.6935H63.9283Z" fill="#B5B8AB"/>
<path d="M118.068 85.6624L117.484 86.5423H62.7568L63.7391 85.6935L118.068 85.6624Z" fill="#213A3B"/>
<path d="M62.7559 86.5424H6.02734L6.82888 85.6935H63.9281L62.7559 86.5424Z" fill="#284849"/>
<path d="M35.0596 81.8011V79.2804C35.0596 79.2804 35.0596 79.1717 35.1152 79.0889C35.1615 79.0216 35.2264 79.0009 35.2495 78.9905H48.2919C48.3243 78.9957 48.3892 79.0164 48.4494 79.0682C48.5004 79.1096 48.5328 79.1613 48.5467 79.1924V81.8477L48.3985 79.3321C48.3892 79.3062 48.3707 79.27 48.3382 79.2338C48.2687 79.1613 48.1853 79.151 48.1575 79.151H35.6063C35.5229 79.151 35.4441 79.182 35.3793 79.2441L35.3607 79.2648C35.2773 79.3477 35.2264 79.4615 35.2171 79.5858L35.0642 81.7959L35.0596 81.8011Z" fill="#191B1C"/>
<path d="M42.4306 79.0681H40.6747C40.603 79.0681 40.5449 79.133 40.5449 79.2131V79.4201C40.5449 79.5002 40.603 79.565 40.6747 79.565H42.4306C42.5023 79.565 42.5604 79.5002 42.5604 79.4201V79.2131C42.5604 79.133 42.5023 79.0681 42.4306 79.0681Z" fill="#191B1C"/>
<path d="M58.9658 81.946V79.4253C58.9658 79.4253 58.9658 79.3166 59.0168 79.2338C59.0631 79.1665 59.1187 79.1458 59.1372 79.1354H71.1928C71.2252 79.1406 71.2808 79.1613 71.3364 79.2131C71.3827 79.2545 71.4105 79.3062 71.429 79.3373V81.9926L71.2947 79.4771C71.2854 79.4512 71.2715 79.4149 71.2391 79.3787C71.1742 79.3062 71.0955 79.2959 71.0723 79.2959H59.4708C59.3921 79.2959 59.3179 79.327 59.2623 79.3891L59.2438 79.4098C59.165 79.4926 59.1187 79.6065 59.1094 79.7307L58.9705 81.9408L58.9658 81.946Z" fill="#191B1C"/>
<path d="M65.7631 79.2183H64.16C64.0884 79.2183 64.0303 79.2831 64.0303 79.3632V79.5702C64.0303 79.6503 64.0884 79.7152 64.16 79.7152H65.7631C65.8347 79.7152 65.8928 79.6503 65.8928 79.5702V79.3632C65.8928 79.2831 65.8347 79.2183 65.7631 79.2183Z" fill="#191B1C"/>
<path d="M18.431 77.1427C17.5832 77.945 16.6658 78.9232 15.7392 80.093C14.516 81.6407 13.5801 83.1469 12.8759 84.4616C20.7939 84.6169 28.7167 84.7722 36.6347 84.9274H11.9492C12.76 83.5765 13.7793 82.0599 15.0442 80.5071C16.1608 79.1355 17.2635 77.9864 18.2781 77.0288C18.3291 77.065 18.3847 77.1064 18.4357 77.1427H18.431Z" fill="#284849"/>
<path d="M65.0358 84.9999L11.9443 84.9326L12.8154 84.6376L65.6242 84.7721L65.0358 84.9999Z" fill="#284849"/>
<path d="M93.961 85.0465L65.0361 84.9999L65.6245 84.7721L96.1293 84.8239L93.961 85.0465Z" fill="#213A3B"/>
<path d="M69.1729 61.4903L69.7474 61.1228C69.8447 61.0607 69.9512 61.0297 70.0624 61.0297H70.6786C70.8732 61.0297 71.0586 61.0918 71.2207 61.216L71.6655 61.5473L69.3767 61.5938L69.1775 61.4955L69.1729 61.4903Z" fill="#2C4D4F"/>
<path d="M44.3076 61.8734L41.8057 61.8268C42.7184 61.2781 43.747 60.7502 44.8867 60.274C48.4635 58.7884 51.7438 58.4727 54.1809 58.5038C52.5407 58.659 50.4651 59.0421 48.167 59.9375C46.6612 60.5224 45.3732 61.2108 44.3122 61.8734H44.3076Z" fill="#529193"/>
<path d="M37.8574 55.9261V56.2729L44.0103 58.8868L44.7794 58.4675L37.8574 55.9261Z" fill="#213A3B"/>
<defs>
<linearGradient id="paint0_linear_1190_6297" x1="69.6693" y1="73.0795" x2="69.8196" y2="84.896" gradientUnits="userSpaceOnUse">
<stop stop-color="#355E60"/>
<stop offset="0.46" stop-color="#355E60"/>
<stop offset="1" stop-color="#355E60"/>
</linearGradient>
<linearGradient id="paint1_linear_1190_6297" x1="98.4598" y1="72.888" x2="98.6159" y2="84.5336" gradientUnits="userSpaceOnUse">
<stop stop-color="#2A494B"/>
<stop offset="1" stop-color="#274647"/>
</linearGradient>
<linearGradient id="paint2_linear_1190_6297" x1="39.0068" y1="76.211" x2="41.013" y2="76.211" gradientUnits="userSpaceOnUse">
<stop stop-color="#2A494B"/>
<stop offset="1" stop-color="#274647"/>
</linearGradient>
<linearGradient id="paint3_linear_1190_6297" x1="63.4004" y1="76.9408" x2="85.913" y2="76.9408" gradientUnits="userSpaceOnUse">
<stop stop-color="#2A494B"/>
<stop offset="1" stop-color="#274647"/>
</linearGradient>
<linearGradient id="paint4_linear_1190_6297" x1="56.7744" y1="71.8735" x2="98.8251" y2="71.8735" gradientUnits="userSpaceOnUse">
<stop stop-color="#2A494B"/>
<stop offset="1" stop-color="#274647"/>
</linearGradient>
<linearGradient id="paint5_linear_1190_6297" x1="56.7793" y1="76.0816" x2="58.7808" y2="76.0816" gradientUnits="userSpaceOnUse">
<stop stop-color="#2A494B"/>
<stop offset="1" stop-color="#274647"/>
</linearGradient>
<linearGradient id="paint6_linear_1190_6297" x1="78.2549" y1="76.0453" x2="80.261" y2="76.0453" gradientUnits="userSpaceOnUse">
<stop stop-color="#2A494B"/>
<stop offset="1" stop-color="#274647"/>
</linearGradient>
</defs>
</svg>
