<svg width="195" height="108" viewBox="0 0 195 108" fill="none" xmlns="http://www.w3.org/2000/svg">
<path d="M158.451 83.5776C156.491 87.2516 152.813 89.9001 147.899 91.4266C147.898 91.4275 147.897 91.427 147.895 91.4278C146.906 91.7349 145.903 92.0319 144.888 92.3183C120.139 99.3005 88.1737 100.036 61.5361 96.0448C54.597 95.0048 47.3317 93.2097 41.4633 89.6625C40.5733 89.1251 39.7152 88.5465 38.8951 87.9247C36.4017 86.0327 34.2623 83.7357 32.6443 80.9364C30.8473 77.8262 30.1131 74.7061 30.0769 71.6295C30.0289 67.5937 31.1823 63.6327 32.7123 59.87C32.7364 59.8103 32.7606 59.7507 32.7847 59.6919C39.0957 44.3807 50.1661 30.5346 64.4368 20.4123C77.5595 11.1048 101.345 -0.0736094 119.844 10.2304C143.178 23.228 159.839 54.8083 160.046 76.7131C160.071 79.2924 159.513 81.5861 158.45 83.5784L158.451 83.5776Z" fill="#007278" fill-opacity="0.26"/>
<path d="M65.5116 39.9956C65.548 39.1821 64.9872 38.4896 64.2589 38.4489C63.5307 38.4083 62.9108 39.0349 62.8745 39.8484C62.8381 40.662 63.399 41.3545 64.1272 41.3951C64.8554 41.4358 65.4753 40.8092 65.5116 39.9956Z" fill="#355E60"/>
<path d="M79.9958 41.7055C80.5133 41.7055 80.9329 41.2368 80.9329 40.6585C80.9329 40.0803 80.5133 39.6116 79.9958 39.6116C79.4782 39.6116 79.0586 40.0803 79.0586 40.6585C79.0586 41.2368 79.4782 41.7055 79.9958 41.7055Z" fill="#355E60"/>
<path d="M73.1857 25.3835H74.1639V41.0957L73.0352 41.0804L73.1857 25.3835Z" fill="#355E60"/>
<path d="M69.7109 41.1337L71.9478 25.3833H73.186L72.0367 41.4546L69.7109 41.1337Z" fill="#C4C7BF"/>
<path d="M74.7202 25H71.1016V25.5732H74.7202V25Z" fill="#C4C7BF"/>
<path d="M74.1643 33.6655H70.9492V34.2387H74.1643V33.6655Z" fill="#C4C7BF"/>
<path d="M74.1643 38.3657H70.9492V38.9389H74.1643V38.3657Z" fill="#C4C7BF"/>
<path d="M67.4024 41.0543L65.9659 41.206L65.8359 41.1757L67.2725 41.0239L67.4024 41.0543Z" fill="#355E60"/>
<path d="M67.2733 41.0232L65.8368 41.176C66.1241 38.0733 65.5358 35.1388 64.4618 34.3516C63.9556 33.9772 63.381 33.9237 63.2168 33.916C63.1895 33.916 63.1758 33.916 63.1758 33.916L64.6123 33.7632C64.6123 33.7632 64.626 33.7632 64.6533 33.7632C64.8107 33.7708 65.3853 33.8243 65.8983 34.1988C66.9723 34.9859 67.5606 37.9205 67.2733 41.0232Z" fill="#355E60"/>
<mask id="mask0_2466_9148" style="mask-type:luminance" maskUnits="userSpaceOnUse" x="63" y="33" width="5" height="9">
<path d="M67.2733 41.0224L65.8368 41.1753C66.1241 38.0726 65.5358 35.138 64.4618 34.3509C63.9556 33.9764 63.381 33.9229 63.2168 33.9153C63.1895 33.9153 63.1758 33.9153 63.1758 33.9153L64.6123 33.7625C64.6123 33.7625 64.626 33.7625 64.6533 33.7625C64.8107 33.7701 65.3853 33.8236 65.8983 34.1981C66.9723 34.9852 67.5606 37.9198 67.2733 41.0224Z" fill="white"/>
</mask>
<g mask="url(#mask0_2466_9148)">
<path d="M67.2733 41.0222L65.8368 41.175C66.1241 38.0724 65.5358 35.1378 64.4618 34.3507C63.9556 33.9762 63.381 33.9227 63.2168 33.915C63.1895 33.915 63.1758 33.915 63.1758 33.915L64.6123 33.7622C64.6123 33.7622 64.626 33.7622 64.6533 33.7622C64.8107 33.7698 65.3853 33.8233 65.8983 34.1978C66.9723 34.9849 67.5606 37.9195 67.2733 41.0222Z" fill="#355E60"/>
</g>
<mask id="mask1_2466_9148" style="mask-type:luminance" maskUnits="userSpaceOnUse" x="63" y="33" width="2" height="1">
<path d="M63.0742 33.9225L64.5107 33.7708C64.5723 33.7708 64.6065 33.7708 64.6065 33.7632L63.17 33.9149C63.17 33.9149 63.1358 33.9149 63.0742 33.9225Z" fill="white"/>
</mask>
<g mask="url(#mask1_2466_9148)">
<path d="M64.6143 33.7625L63.1778 33.9142C63.1778 33.9142 63.1436 33.9142 63.082 33.9218L64.5186 33.77C64.5801 33.77 64.6143 33.77 64.6143 33.7625Z" fill="#1A1C18"/>
</g>
<path d="M63.0448 33.7253L64.4813 33.5725C64.2487 33.5954 63.7152 33.6948 63.2227 34.0922C62.135 34.9634 61.5672 37.7757 61.8682 40.7867L60.4317 40.9395C60.1307 37.9285 60.6985 35.1162 61.7861 34.245C62.2787 33.8553 62.8122 33.7559 63.0448 33.7253Z" fill="#C4C7BF"/>
<mask id="mask2_2466_9148" style="mask-type:luminance" maskUnits="userSpaceOnUse" x="60" y="33" width="5" height="8">
<path d="M63.0448 33.7255L64.4813 33.5726C64.2487 33.5956 63.7152 33.6949 63.2227 34.0923C62.135 34.9635 61.5672 37.7758 61.8682 40.7868L60.4317 40.9396C60.1307 37.9286 60.6985 35.1163 61.7861 34.2451C62.2787 33.8554 62.8122 33.756 63.0448 33.7255Z" fill="white"/>
</mask>
<g mask="url(#mask2_2466_9148)">
<path d="M61.873 40.7803L60.4364 40.9331C60.2449 39.0379 60.4022 37.2267 60.8127 35.9199L62.2492 35.7671C61.8388 37.0739 61.6814 38.8851 61.873 40.7803Z" fill="#C4C7BF"/>
<path d="M62.2412 35.7736L60.8047 35.9264C60.9962 35.3074 61.2493 34.8107 61.5503 34.4668L62.9868 34.314C62.6858 34.6579 62.4327 35.1546 62.2412 35.7736Z" fill="#C4C7BF"/>
<path d="M62.9951 34.3139L61.5586 34.4668C61.6338 34.3827 61.7091 34.3063 61.7912 34.2451C62.2837 33.8554 62.8173 33.756 63.0498 33.7255L64.4864 33.5726C64.2538 33.5956 63.7202 33.6949 63.2277 34.0923C63.1456 34.1534 63.0704 34.2299 62.9951 34.3139Z" fill="#C4C7BF"/>
</g>
<path d="M64.666 33.5648C64.8507 33.5725 65.4253 33.6336 65.9452 34.0157C67.0671 34.8411 67.6896 37.8597 67.3954 41.0465L67.2654 41.0159C67.5527 37.9132 66.9645 34.9786 65.8905 34.1915C65.3843 33.817 64.8097 33.7635 64.6455 33.7559C64.6181 33.7559 64.6044 33.7559 64.6044 33.7559C64.5976 33.7559 63.893 33.7712 63.2774 34.2603C62.2376 35.0933 61.6972 37.8215 61.9913 40.7484L61.8614 40.7713C61.5604 37.7604 62.1282 34.9481 63.2158 34.0769C63.8588 33.5648 64.5703 33.5496 64.5976 33.5496C64.5976 33.5496 64.625 33.5496 64.6592 33.5496L64.666 33.5648Z" fill="#BCC0B5"/>
<path d="M61.8203 40.1534L67.457 40.2375L67.4022 41.0552L61.8956 40.9406L61.8203 40.1534Z" fill="#355E60"/>
<path d="M82.3905 41.3443L81.2823 41.4657L81.1797 41.4429L82.2879 41.3215L82.3905 41.3443Z" fill="#355E60"/>
<path d="M82.2893 41.3225L81.1811 41.4447C81.4068 39.0528 80.9485 36.7983 80.1208 36.1946C79.7309 35.9042 79.2862 35.866 79.1631 35.8584C79.1426 35.8584 79.1289 35.8584 79.1289 35.8584L80.2371 35.7361C80.2371 35.7361 80.2508 35.7361 80.2713 35.7361C80.3944 35.7361 80.839 35.7819 81.229 36.0723C82.0567 36.6761 82.5082 38.9381 82.2893 41.3225Z" fill="#355E60"/>
<mask id="mask3_2466_9148" style="mask-type:luminance" maskUnits="userSpaceOnUse" x="79" y="35" width="4" height="7">
<path d="M82.2893 41.3227L81.1811 41.445C81.4068 39.053 80.9485 36.7986 80.1208 36.1949C79.7309 35.9045 79.2862 35.8662 79.1631 35.8586C79.1426 35.8586 79.1289 35.8586 79.1289 35.8586L80.2371 35.7363C80.2371 35.7363 80.2508 35.7363 80.2713 35.7363C80.3944 35.7363 80.839 35.7822 81.229 36.0726C82.0567 36.6763 82.5082 38.9384 82.2893 41.3227Z" fill="white"/>
</mask>
<g mask="url(#mask3_2466_9148)">
<path d="M82.2893 41.3228L81.1811 41.4451C81.4068 39.0531 80.9485 36.7987 80.1208 36.195C79.7309 35.9046 79.2862 35.8664 79.1631 35.8587C79.1426 35.8587 79.1289 35.8587 79.1289 35.8587L80.2371 35.7365C80.2371 35.7365 80.2508 35.7365 80.2713 35.7365C80.3944 35.7365 80.839 35.7823 81.229 36.0727C82.0567 36.6764 82.5082 38.9385 82.2893 41.3228Z" fill="#355E60"/>
</g>
<mask id="mask4_2466_9148" style="mask-type:luminance" maskUnits="userSpaceOnUse" x="79" y="35" width="2" height="1">
<path d="M79.0586 35.8574L80.1668 35.736C80.2147 35.736 80.242 35.736 80.242 35.736L79.1338 35.8574C79.1338 35.8574 79.1065 35.8574 79.0586 35.8574Z" fill="white"/>
</mask>
<g mask="url(#mask4_2466_9148)">
<path d="M80.242 35.736L79.1338 35.8574C79.1338 35.8574 79.1065 35.8574 79.0586 35.8574L80.1668 35.736C80.2147 35.736 80.242 35.736 80.242 35.736Z" fill="#1A1C18"/>
</g>
<path d="M79.038 35.7053L80.1462 35.583C79.9683 35.6059 79.5579 35.6824 79.1748 35.9804C78.3403 36.6453 77.9025 38.8156 78.1351 41.1312L77.0269 41.2534C76.7943 38.9379 77.2321 36.7675 78.0666 36.1027C78.4429 35.797 78.8533 35.7206 79.038 35.7053Z" fill="#C4C7BF"/>
<mask id="mask5_2466_9148" style="mask-type:luminance" maskUnits="userSpaceOnUse" x="76" y="35" width="5" height="7">
<path d="M79.038 35.7053L80.1462 35.583C79.9683 35.6059 79.5579 35.6824 79.1748 35.9804C78.3403 36.6453 77.9025 38.8156 78.1351 41.1312L77.0269 41.2534C76.7943 38.9379 77.2321 36.7675 78.0666 36.1027C78.4429 35.797 78.8533 35.7206 79.038 35.7053Z" fill="white"/>
</mask>
<g mask="url(#mask5_2466_9148)">
<path d="M78.1339 41.1406L77.0257 41.2629C76.8821 39.8033 76.9984 38.4048 77.3131 37.4036L78.4212 37.2814C78.1066 38.2825 77.9834 39.681 78.1339 41.1406Z" fill="#C4C7BF"/>
<path d="M78.4207 37.2799L77.3125 37.4022C77.463 36.9284 77.6545 36.5386 77.8871 36.2788L78.9953 36.1565C78.7627 36.4163 78.5712 36.8061 78.4207 37.2799Z" fill="#C4C7BF"/>
<path d="M78.9949 36.1571L77.8867 36.2793C77.9414 36.2182 78.003 36.1571 78.0646 36.1112C78.4408 35.8055 78.8512 35.7291 79.0359 35.7138L80.1441 35.5916C79.9663 35.6145 79.5558 35.6909 79.1727 35.9889C79.1112 36.0348 79.0496 36.0959 78.9949 36.1571Z" fill="#C4C7BF"/>
</g>
<path d="M80.2832 35.583C80.4269 35.583 80.8647 35.6365 81.2683 35.9345C82.1302 36.5688 82.6159 38.8997 82.3833 41.3528L82.2875 41.3299C82.5133 38.9379 82.0549 36.6835 81.2272 36.0797C80.8373 35.7893 80.3927 35.7511 80.2695 35.7435C80.249 35.7435 80.2353 35.7435 80.2353 35.7435C80.2353 35.7435 79.6881 35.7588 79.2161 36.1332C78.4157 36.7752 77.9985 38.8767 78.2242 41.1312L78.1284 41.1541C77.8959 38.8385 78.3337 36.6682 79.1682 36.0033C79.6607 35.6059 80.208 35.5983 80.2353 35.5983C80.2353 35.5983 80.2559 35.5983 80.2832 35.5983V35.583Z" fill="#BCC0B5"/>
<path d="M78.0938 40.6582L82.4307 40.7193L82.3896 41.346L78.1485 41.2619L78.0938 40.6582Z" fill="#355E60"/>
<path d="M27.582 59.0363L28.1293 59.4108L46.2227 61.222L49.8619 57.1182L27.582 59.0363Z" fill="#284849"/>
<path d="M34.7363 68.2691C35.8513 66.9088 37.2331 65.4186 38.9159 63.9666C41.9053 61.3759 44.8262 59.7634 47.1315 58.7394C40.6124 58.8387 34.0933 58.9381 27.5742 59.0374L29.9069 56.2633C30.7619 55.247 31.9317 54.6432 33.1767 54.5668L50.6133 53.5351L66.1141 45.0982L55.8943 41.346V40.6353L86.8548 41.1396L89.68 43.929L105.229 44.5098L105.933 45.274L103.32 45.4498L108.731 49.951L113.814 52.8626L134.52 55.7743L137.427 57.4632L136.641 57.6695L142.667 63.2635L85.1242 75.9953L36.1455 74.3064L34.7363 68.2767V68.2691Z" fill="#BCC0B5"/>
<path d="M47.5547 66.8264C49.5248 65.0993 51.9464 63.2422 54.8194 61.4845C57.111 60.086 59.2795 59.0085 61.2359 58.1679C84.8223 57.9539 108.409 57.7399 131.995 57.5336L138.446 63.9224L82.3665 66.6277L47.5547 66.834V66.8264Z" fill="#284849"/>
<path d="M99.167 50.3186H109.38L113.813 52.8558L134.519 55.7674L137.426 57.4563L125.927 57.2729C122.056 56.2412 117.773 55.3318 113.115 54.6822C110.372 54.3001 107.745 54.0479 105.241 53.8875C103.217 52.6953 101.185 51.5108 99.1602 50.3186H99.167Z" fill="#529193"/>
<path d="M104.277 53.3148H53.4922L104.961 53.5899L104.277 53.3148Z" fill="#529193"/>
<path d="M61.2359 58.1592C59.3616 58.9616 57.3025 59.9856 55.1477 61.2848C52.131 63.096 49.6069 65.0294 47.5547 66.8253H50.7356C52.5483 65.1975 54.71 63.4551 57.241 61.7662C59.4915 60.2684 61.6258 59.0839 63.5685 58.1362C62.7887 58.1362 62.0157 58.1515 61.2359 58.1592Z" fill="#213A3B"/>
<path d="M61.2367 58.1592L131.996 57.5249L132.468 57.9911L60.6211 58.8088L61.2367 58.1592Z" fill="#213A3B"/>
<path d="M80.0546 58.312H75.875V66.6572H80.0546V58.312Z" fill="#213A3B"/>
<path d="M75.8791 58.0298V66.6577H75.6328V58.0298H75.8791Z" fill="#657B97"/>
<path d="M131.996 57.5249L136.648 57.6548L141.245 61.9268L136.401 61.8885L131.996 57.5249Z" fill="#355E60"/>
<path d="M136.401 61.8894L136.018 61.5073L86.7721 62.1722L82.0727 66.2989H80.0547V66.6581L82.3668 66.6199L136.401 61.8894Z" fill="#213A3B"/>
<path d="M65.9648 49.5757C68.5711 48.1771 71.8409 46.7863 75.7127 45.8922C77.245 45.5406 78.6952 45.3037 80.0565 45.1509H91.3298L96.9596 49.8508L65.9648 49.5833V49.5757Z" fill="#2C4D4F"/>
<path d="M92.5898 45.1454L103.33 45.4511L108.617 49.8453H98.5617L92.5898 45.1454Z" fill="#2C4D4F"/>
<path d="M132.468 57.9911L137.099 58.0828L136.648 57.6548L131.996 57.5249L132.468 57.9911Z" fill="#284849"/>
<path d="M136.02 61.507H140.445L136.724 58.0757L137.1 58.0833L141.246 61.9273L136.403 61.8891L136.02 61.507Z" fill="#284849"/>
<path d="M80.0574 45.1454L71.2946 48.9282L96.9674 49.8529L65.9727 49.5854C67.6554 48.6837 69.6529 47.7666 71.9308 46.9871C74.9817 45.9478 77.7522 45.4205 80.0643 45.1607L80.0574 45.1454Z" fill="#213A3B"/>
<path d="M80.0565 45.1455H91.3298L96.9596 49.8454L90.8373 45.4741L78.832 45.6728L80.0565 45.1455Z" fill="#213A3B"/>
<path d="M81.2539 45.6335V49.4392H83.566V45.4653L81.2539 45.6335Z" fill="#213A3B"/>
<path d="M89.6814 43.9281L86.8562 41.1387L75.7539 40.9553L77.9634 43.9281H89.6814Z" fill="#529193"/>
<path d="M105.935 45.2749L105.231 44.5107L91.8438 44.0063L92.5894 45.145L105.935 45.2749Z" fill="#529193"/>
<path d="M105.934 45.2737L92.4375 44.9146L92.588 45.1438L103.328 45.4495L105.934 45.2737Z" fill="#355E60"/>
<path d="M98.5586 49.8457L99.1674 50.3195H109.387L108.614 49.8457H98.5586Z" fill="#529193"/>
<path d="M103.125 45.6039L107.865 49.5549H102.126L97.7617 45.451L103.125 45.6039Z" fill="#355E60"/>
<path d="M65.9633 49.5775L65.293 50.1201L97.6011 50.3188L96.9581 49.845L65.9633 49.5775Z" fill="#529193"/>
<path d="M59.0705 59.1514H48.9464C47.6603 59.7169 46.2991 60.397 44.8831 61.2224C41.8322 63.003 39.3353 64.9823 37.3516 66.8164H47.5509C49.2405 65.3415 51.2448 63.7748 53.5706 62.2617C55.5133 61.0008 57.3671 59.9767 59.0636 59.1514H59.0705Z" fill="#355E60"/>
<path d="M48.9531 59.1527L51.8877 58.1668L61.2388 58.1592L59.0704 59.1527L52.6744 59.4125L48.9531 59.1527Z" fill="#355E60"/>
<path d="M51.5391 58.2809C52.4967 58.0058 53.4476 57.7307 54.4053 57.4556H88.793L88.3688 57.9294C76.09 58.044 63.8179 58.1663 51.5391 58.2809Z" fill="#355E60"/>
<path d="M77.9631 43.9288L68.9883 44.0052V43.7759L79.0576 43.6689L77.9631 43.9288Z" fill="#529193"/>
<path d="M55.8945 40.6295L86.8551 41.1415L87.3065 41.5771L55.8945 40.9428V40.6295Z" fill="#FDFFF9"/>
<path d="M105.255 53.888L104.749 53.5899L53.4922 53.3148L105.255 53.888Z" fill="#FDFFF9"/>
<path d="M125.936 57.2654L88.7852 57.4564L124.732 56.9597L125.936 57.2654Z" fill="#FDFFF9"/>
<path d="M31.4533 55.5825L31.207 55.2921L33.4644 52.8925C34.4974 51.792 35.8586 51.1195 37.2815 51.0049L60.3411 49.1478L60.3685 49.5452L37.3088 51.4022C35.9612 51.5092 34.6889 52.1435 33.7107 53.1829L31.4533 55.5825Z" fill="#BCC0B5"/>
<path d="M41.2829 50.7601L38.8984 55.0969L39.2015 55.3049L41.586 50.9681L41.2829 50.7601Z" fill="#BCC0B5"/>
<path d="M50.0662 50.0598L47.4062 54.5172L47.7022 54.7376L50.3621 50.2803L50.0662 50.0598Z" fill="#BCC0B5"/>
<path d="M137.436 57.4567L136.649 57.6554L131.998 57.5255L98.2461 57.8235L98.5608 57.6401L125.937 57.2656L137.436 57.4567Z" fill="#355E60"/>
<path d="M98.5587 57.6403L88.5509 57.7167L88.3594 57.9307L98.3535 57.8695L98.5587 57.6403Z" fill="#355E60"/>
<path d="M11.172 84.1664L2.45703 83.9524C4.33135 81.3923 7.11548 78.1903 11.0215 75.3092C17.6774 70.4106 24.1828 68.9663 27.9109 68.4772C22.329 73.7044 16.7539 78.9316 11.172 84.1588V84.1664Z" fill="#BCC0B5"/>
<path d="M2.45577 83.9507L0.998728 84.157L0 86.3045L9.05011 86.5414L10.9928 84.1647L2.45577 83.9507Z" fill="#BCC0B5"/>
<path d="M1.42978 80.2609L1.29297 80.131C4.11814 76.4093 7.3811 73.3601 10.9861 71.0827C18.2919 66.4669 25.5634 65.7867 31.4121 65.2365C33.4985 65.0378 35.6191 64.9461 37.7055 64.9614L80.5208 64.5258C81.109 64.5258 81.6905 64.2965 82.1557 63.8991L86.1916 60.4449C86.561 60.1316 87.0193 59.9558 87.4776 59.9558H131.271V60.1545H87.4776C87.0535 60.1545 86.6363 60.315 86.3011 60.5977L82.2651 64.052C81.7657 64.4799 81.1501 64.7168 80.5276 64.7245L37.7123 65.1601C35.6328 65.1448 33.519 65.2365 31.4326 65.4352C25.6044 65.9854 18.3534 66.6656 11.0819 71.2585C7.49055 73.5282 4.24811 76.5545 1.43662 80.2685L1.42978 80.2609Z" fill="#BCC0B5"/>
<path d="M9.81067 72.0385H9.63281V76.6925H9.81067V72.0385Z" fill="#BCC0B5"/>
<path d="M15.2677 68.9414H15.0898V73.412H15.2677V68.9414Z" fill="#BCC0B5"/>
<path d="M22.2794 66.6344H22.1016V69.9281H22.2794V66.6344Z" fill="#BCC0B5"/>
<path d="M29.0607 65.5732H28.8828V68.2098H29.0607V65.5732Z" fill="#BCC0B5"/>
<path d="M37.0841 65.0601H36.9062V68.2086H37.0841V65.0601Z" fill="#BCC0B5"/>
<path d="M47.3185 65.0599H47.1406V67.7194H47.3185V65.0599Z" fill="#BCC0B5"/>
<path d="M59.1583 64.8467H58.9805V67.873H59.1583V64.8467Z" fill="#BCC0B5"/>
<path d="M68.7345 64.7456H68.5703V67.0764H68.7345V64.7456Z" fill="#BCC0B5"/>
<path d="M77.5021 64.662H77.3242V67.0845H77.5021V64.662Z" fill="#BCC0B5"/>
<path d="M87.1779 60.1001H87V62.7213H87.1779V60.1001Z" fill="#BCC0B5"/>
<path d="M97.6935 60.1001H97.5156V63.2563H97.6935V60.1001Z" fill="#BCC0B5"/>
<path d="M108.588 60.0625H108.41V62.5003H108.588V60.0625Z" fill="#BCC0B5"/>
<path d="M117.932 60.1001H117.754V62.9506H117.932V60.1001Z" fill="#BCC0B5"/>
<path d="M126.553 60.0625H126.375V62.1794H126.553V60.0625Z" fill="#BCC0B5"/>
<path d="M193.52 63.5391L193.349 63.4779L193.595 62.5914C193.636 62.4462 193.616 62.2857 193.534 62.1558C193.452 62.0259 193.328 61.9495 193.192 61.9495C185.749 61.6132 178.19 61.3152 170.727 61.0706C157.6 60.6274 144.281 60.3217 131.141 60.146V59.9473C144.281 60.123 157.6 60.4287 170.734 60.872C178.197 61.1241 185.756 61.4222 193.199 61.7508C193.39 61.7584 193.568 61.8654 193.677 62.0412C193.787 62.217 193.821 62.4386 193.759 62.6449L193.513 63.5314L193.52 63.5391Z" fill="#718BAE"/>
<path d="M135.647 60.1143H135.469V62.0859H135.647V60.1143Z" fill="#718BAE"/>
<path d="M143.35 60.2441H143.172V62.1699H143.35V60.2441Z" fill="#718BAE"/>
<path d="M150.705 60.4058H150.527V62.2934H150.705V60.4058Z" fill="#718BAE"/>
<path d="M163.1 60.7256H162.922V62.7584H163.1V60.7256Z" fill="#718BAE"/>
<path d="M175.318 61.1235H175.141V63.5079H175.318V61.1235Z" fill="#718BAE"/>
<path d="M186.373 61.5532H186.195V63.3797H186.373V61.5532Z" fill="#718BAE"/>
<path d="M10.9942 84.1572C13.0805 80.7641 15.1464 78.2345 16.7129 76.4998C19.2302 73.7104 21.3303 71.3872 24.7506 69.7059C27.48 68.3609 29.9631 67.9559 31.6049 67.826C48.1796 67.7267 64.7544 67.6197 81.3223 67.5203L83.8191 65.136L194.883 64.2266L175.052 84.3788L10.9805 84.1572H10.9942Z" fill="url(#paint0_linear_2466_9148)"/>
<path opacity="0.74" d="M194.891 64.2179L175.06 84.3701L96.0234 84.2631L145.912 64.6229L194.891 64.2179Z" fill="url(#paint1_linear_2466_9148)"/>
<path d="M137.012 84.3716L180.114 79.2361L175.059 84.3716H137.012Z" fill="#213A3B"/>
<path d="M71.3963 75.1471H52.0374C51.773 75.1471 51.5586 75.3866 51.5586 75.682V80.038C51.5586 80.3335 51.773 80.573 52.0374 80.573H71.3963C71.6608 80.573 71.8752 80.3335 71.8752 80.038V75.682C71.8752 75.3866 71.6608 75.1471 71.3963 75.1471Z" fill="#284849"/>
<path opacity="0.74" d="M60.4834 70.8907H57.6582C57.6205 70.8907 57.5898 70.925 57.5898 70.9672V71.6015C57.5898 71.6437 57.6205 71.6779 57.6582 71.6779H60.4834C60.5212 71.6779 60.5518 71.6437 60.5518 71.6015V70.9672C60.5518 70.925 60.5212 70.8907 60.4834 70.8907Z" fill="url(#paint2_linear_2466_9148)"/>
<path d="M86.8555 75.6819V80.0456C86.8555 80.336 87.0538 80.5805 87.3001 80.5805H105.359C105.606 80.5805 105.804 80.3436 105.804 80.0456V75.6819C105.804 75.3915 105.606 75.147 105.359 75.147H87.3001C87.0538 75.147 86.8555 75.3839 86.8555 75.6819Z" fill="#284849"/>
<path d="M128.964 74.1465L128.52 76.3398H130.305L130.77 74.2153C130.811 74.0395 130.688 73.8638 130.524 73.8638H129.272C129.122 73.8638 128.992 73.9784 128.957 74.1389L128.964 74.1465Z" fill="#2A2233"/>
<path d="M140.101 74.1465L139.656 76.3398H141.442L141.907 74.2153C141.948 74.0395 141.825 73.8638 141.661 73.8638H140.409C140.258 73.8638 140.128 73.9784 140.094 74.1389L140.101 74.1465Z" fill="#2A2233"/>
<path d="M151.636 74.1465L151.191 76.3398H152.977L153.442 74.2153C153.483 74.0395 153.36 73.8638 153.196 73.8638H151.944C151.793 73.8638 151.663 73.9784 151.629 74.1389L151.636 74.1465Z" fill="#2A2233"/>
<path d="M26.8516 71.9769L127.976 71.6865L127.224 71.9769L26.8516 72.3972V71.9769Z" fill="#D4C9D4"/>
<path d="M26.8516 72.3954L27.2141 72.6629L126.847 72.1279L127.224 71.9751L26.8516 72.3954Z" fill="#284849"/>
<path d="M26.8515 71.975C26.7489 72.0667 26.6531 72.1584 26.5505 72.2577C25.3397 73.3658 24.0742 74.6344 22.795 76.0864C20.3255 78.8911 18.417 81.6728 16.9531 84.1565H17.4046C18.7454 81.8256 20.5171 79.1662 22.836 76.4915C24.211 74.9095 25.5654 73.5493 26.8446 72.3953V71.975H26.8515Z" fill="#D4C9D4"/>
<path d="M17.4102 84.166H17.6359C19.0314 81.8886 20.7757 79.3744 22.9305 76.8219C24.3123 75.1865 25.6736 73.7498 26.9802 72.4965C26.9391 72.4659 26.8912 72.4354 26.8502 72.4048C25.4957 73.6275 24.0387 75.0948 22.5611 76.8296C20.3721 79.405 18.6893 81.9421 17.4102 84.166Z" fill="#284849"/>
<path d="M15.1034 84.1588C16.3757 81.3465 18.9546 76.6314 23.7294 72.688C26.4177 70.4718 29.0308 69.1421 31.0625 68.3244C31.0078 68.1792 30.9462 68.034 30.8915 67.8888C29.7491 68.0187 28.2989 68.2862 26.6777 68.8746C24.9265 69.5089 23.6199 70.2808 22.8811 70.7546C21.3078 71.7633 20.3228 72.7262 18.8726 74.1553C18.3458 74.675 16.4783 76.5396 14.2688 79.4131C13.3385 80.6205 12.203 82.2101 10.9922 84.1512C12.3603 84.1512 13.7353 84.1512 15.1034 84.1512V84.1588Z" fill="#355E60"/>
<path d="M31.0587 68.3319L81.3303 67.5142L31.606 67.8198L30.8945 67.8886L31.0587 68.3319Z" fill="#355E60"/>
<path opacity="0.74" d="M126.844 72.1278L93.6055 72.3036L125.654 72.594L126.844 72.1278Z" fill="url(#paint3_linear_2466_9148)"/>
<path d="M83.8242 65.1289L144.569 65.1518L145.909 64.6245L83.8242 65.1289Z" fill="url(#paint4_linear_2466_9148)"/>
<path opacity="0.74" d="M86.7256 70.7002H83.9004C83.8627 70.7002 83.832 70.7344 83.832 70.7766V71.4109C83.832 71.4531 83.8627 71.4873 83.9004 71.4873H86.7256C86.7634 71.4873 86.794 71.4531 86.794 71.4109V70.7766C86.794 70.7344 86.7634 70.7002 86.7256 70.7002Z" fill="url(#paint5_linear_2466_9148)"/>
<path opacity="0.74" d="M118.433 70.6456H115.607C115.57 70.6456 115.539 70.6798 115.539 70.722V71.3563C115.539 71.3985 115.57 71.4328 115.607 71.4328H118.433C118.47 71.4328 118.501 71.3985 118.501 71.3563V70.722C118.501 70.6798 118.47 70.6456 118.433 70.6456Z" fill="url(#paint6_linear_2466_9148)"/>
<path d="M127.975 71.6854L182.782 71.6548V72.0293L127.223 71.9758L127.975 71.6854Z" fill="#9593AC"/>
<path opacity="0.74" d="M127.224 71.9751L182.783 72.0286L182.612 72.3649L125.938 72.4871L127.224 71.9751Z" fill="#355E60"/>
<path d="M182.781 71.6542L188.438 70.7754L188.062 71.1575L182.781 72.0287V71.6542Z" fill="#9593AC"/>
<path opacity="0.74" d="M182.78 72.0301L188.061 71.1589L187.63 71.5945L182.609 72.3664L182.78 72.0301Z" fill="#355E60"/>
<path d="M83.8242 65.1282L86.7862 62.591L138.823 61.8879L194.163 63.4699L194.888 64.2188L83.8242 65.1282Z" fill="#B5B8AB"/>
<path d="M138.824 61.8879L145.911 64.6238L194.89 64.2188C194.815 64.0965 194.705 63.9437 194.555 63.7908C194.411 63.6456 194.274 63.5463 194.158 63.4775C188.692 63.2559 183.22 63.0495 177.754 62.8661C164.777 62.4305 151.801 62.1019 138.824 61.8879Z" fill="#487F80"/>
<path d="M175.058 84.3721L174.319 85.2433L94.3867 85.2892L96.0216 84.2651L175.058 84.3721Z" fill="#355E60"/>
<path d="M94.3855 85.2896L96.0204 84.2656L10.9918 84.1586L10.082 85.2896H94.3855Z" fill="#B5B8AB"/>
<path d="M174.319 85.2428L173.457 86.542H92.6562L94.1065 85.2886L174.319 85.2428Z" fill="#213A3B"/>
<path d="M92.6547 86.5423H8.89844L10.0819 85.2889H94.3854L92.6547 86.5423Z" fill="#284849"/>
<path d="M51.7656 79.5419V75.8202C51.7656 75.8202 51.7656 75.6597 51.8477 75.5374C51.9161 75.4381 52.0119 75.4075 52.0461 75.3922H71.3024C71.3503 75.3999 71.446 75.4304 71.535 75.5069C71.6102 75.568 71.6581 75.6444 71.6786 75.6903V79.6107L71.4597 75.8966C71.446 75.8584 71.4187 75.8049 71.3708 75.7514C71.2682 75.6444 71.145 75.6291 71.104 75.6291H52.5728C52.4497 75.6291 52.3334 75.675 52.2376 75.7667L52.2103 75.7972C52.0871 75.9195 52.0119 76.0877 51.9982 76.2711L51.7725 79.5342L51.7656 79.5419Z" fill="#191B1C"/>
<path d="M62.6474 75.5073H60.0548C59.949 75.5073 59.8633 75.6031 59.8633 75.7213V76.027C59.8633 76.1452 59.949 76.241 60.0548 76.241H62.6474C62.7532 76.241 62.8389 76.1452 62.8389 76.027V75.7213C62.8389 75.6031 62.7532 75.5073 62.6474 75.5073Z" fill="#191B1C"/>
<path d="M87.0586 79.7551V76.0334C87.0586 76.0334 87.0586 75.8729 87.1338 75.7507C87.2022 75.6513 87.2843 75.6208 87.3117 75.6055H105.111C105.159 75.6131 105.241 75.6437 105.323 75.7201C105.391 75.7812 105.432 75.8577 105.46 75.9035V79.8239L105.261 76.1099C105.248 76.0716 105.227 76.0181 105.179 75.9646C105.084 75.8577 104.967 75.8424 104.933 75.8424H87.8042C87.6879 75.8424 87.5785 75.8882 87.4964 75.9799L87.469 76.0105C87.3527 76.1328 87.2843 76.3009 87.2707 76.4843L87.0654 79.7475L87.0586 79.7551Z" fill="#191B1C"/>
<path d="M97.0974 75.7295H94.7306C94.6248 75.7295 94.5391 75.8253 94.5391 75.9435V76.2491C94.5391 76.3673 94.6248 76.4631 94.7306 76.4631H97.0974C97.2032 76.4631 97.289 76.3673 97.289 76.2491V75.9435C97.289 75.8253 97.2032 75.7295 97.0974 75.7295Z" fill="#191B1C"/>
<path d="M27.2145 72.6651C25.9627 73.8496 24.6083 75.294 23.2401 77.0211C21.4342 79.3061 20.0524 81.5299 19.0127 83.471C30.7032 83.7003 42.4007 83.9295 54.0912 84.1588H17.6445C18.8416 82.1642 20.3466 79.9251 22.214 77.6324C23.8626 75.6073 25.4907 73.9107 26.9888 72.4969C27.064 72.5504 27.1461 72.6116 27.2214 72.6651H27.2145Z" fill="#284849"/>
<path d="M96.0231 84.2638L17.6367 84.1645L18.9227 83.7289L96.8919 83.9276L96.0231 84.2638Z" fill="#284849"/>
<path d="M138.729 84.3329L96.0234 84.2641L96.8922 83.9279L141.931 84.0043L138.729 84.3329Z" fill="#213A3B"/>
<path d="M102.129 49.554L102.977 49.0115C103.121 48.9197 103.278 48.8739 103.442 48.8739H104.352C104.639 48.8739 104.913 48.9656 105.152 49.149L105.809 49.6381L102.43 49.7069L102.136 49.5617L102.129 49.554Z" fill="#2C4D4F"/>
<path d="M65.4166 50.1206L61.7227 50.0518C63.0703 49.2417 64.5889 48.4622 66.2717 47.7592C71.5526 45.5659 76.3957 45.0997 79.9939 45.1456C77.5723 45.3748 74.5077 45.9403 71.1148 47.2624C68.8916 48.126 66.9899 49.1424 65.4234 50.1206H65.4166Z" fill="#529193"/>
<path d="M55.8945 41.3389V41.8509L64.9788 45.7102L66.1144 45.0911L55.8945 41.3389Z" fill="#213A3B"/>
<defs>
<linearGradient id="paint0_linear_2466_9148" x1="102.863" y1="66.6644" x2="103.085" y2="84.1107" gradientUnits="userSpaceOnUse">
<stop stop-color="#355E60"/>
<stop offset="0.46" stop-color="#355E60"/>
<stop offset="1" stop-color="#355E60"/>
</linearGradient>
<linearGradient id="paint1_linear_2466_9148" x1="145.372" y1="66.3806" x2="145.602" y2="83.5747" gradientUnits="userSpaceOnUse">
<stop stop-color="#2A494B"/>
<stop offset="1" stop-color="#274647"/>
</linearGradient>
<linearGradient id="paint2_linear_2466_9148" x1="57.5898" y1="71.2881" x2="60.5518" y2="71.2881" gradientUnits="userSpaceOnUse">
<stop stop-color="#2A494B"/>
<stop offset="1" stop-color="#274647"/>
</linearGradient>
<linearGradient id="paint3_linear_2466_9148" x1="93.6055" y1="72.3647" x2="126.844" y2="72.3647" gradientUnits="userSpaceOnUse">
<stop stop-color="#2A494B"/>
<stop offset="1" stop-color="#274647"/>
</linearGradient>
<linearGradient id="paint4_linear_2466_9148" x1="83.8242" y1="64.8843" x2="145.909" y2="64.8843" gradientUnits="userSpaceOnUse">
<stop stop-color="#2A494B"/>
<stop offset="1" stop-color="#274647"/>
</linearGradient>
<linearGradient id="paint5_linear_2466_9148" x1="83.832" y1="71.0976" x2="86.7872" y2="71.0976" gradientUnits="userSpaceOnUse">
<stop stop-color="#2A494B"/>
<stop offset="1" stop-color="#274647"/>
</linearGradient>
<linearGradient id="paint6_linear_2466_9148" x1="115.539" y1="71.043" x2="118.501" y2="71.043" gradientUnits="userSpaceOnUse">
<stop stop-color="#2A494B"/>
<stop offset="1" stop-color="#274647"/>
</linearGradient>
</defs>
</svg>
