<svg width="205" height="154" viewBox="0 0 205 154" fill="none" xmlns="http://www.w3.org/2000/svg">
    <g clip-path="url(#clip0_352_8923)">
    <path fill-rule="evenodd" clip-rule="evenodd" d="M83.0039 68.7373L159.308 83.9825L156.988 95.5954L80.6837 80.3502L83.0039 68.7373ZM188.325 89.78L164.424 85.0047L162.104 96.6177L186.005 101.393L188.325 89.78Z" fill="#FEFEFE"/>
    <mask id="mask0_352_8923" style="mask-type:luminance" maskUnits="userSpaceOnUse" x="1" y="2" width="200" height="149">
    <path d="M193.339 34.9579L31.0805 2.53939C26.3654 1.59732 21.7665 4.7198 20.8087 9.51364L1.30553 107.129C0.347742 111.923 3.3937 116.573 8.10887 117.515L170.367 149.934C175.083 150.876 179.681 147.753 180.639 142.959L200.142 45.3437C201.1 40.5499 198.054 35.9 193.339 34.9579Z" fill="white"/>
    </mask>
    <g mask="url(#mask0_352_8923)">
    <path d="M223.551 36.9984L134.432 19.1929L109.904 141.957L199.023 159.763L223.551 36.9984Z" fill="#FF5100"/>
    <path d="M187.195 33.2759L179.527 71.6533C179.354 72.5203 178.516 73.0875 177.663 72.9171L177.44 72.8726C176.588 72.7022 176.034 71.857 176.207 70.9901L183.879 32.592C184.987 32.8134 186.092 33.0405 187.197 33.2763L187.195 33.2759Z" fill="#6FDDD0"/>
    <path d="M178.481 63.7395C166.372 61.3203 154.448 69.9111 151.848 82.928L195.696 91.6888C198.297 78.6718 190.589 66.1587 178.481 63.7395Z" fill="#FF9D5F"/>
    <path d="M180.171 64.3715C179.569 64.1056 178.942 63.9032 178.288 63.7725C170.398 62.1962 161.902 71.4376 159.31 84.4133L163.16 85.1826C165.538 73.2798 172.883 64.5214 180.17 64.369L180.171 64.3715Z" fill="#FFCEAC"/>
    <path d="M107.312 53.7925L63.1074 44.9606L47.3101 124.028L91.5151 132.86L107.312 53.7925Z" fill="#ACABD5"/>
    <path d="M72.6661 26.8622L5.39453 13.4216L-2.50435 52.9564L64.7673 66.397L72.6661 26.8622Z" fill="#FF5100"/>
    <path d="M115.212 14.2654L9.44727 -6.86597L1.54839 32.6688L107.313 53.8001L115.212 14.2654Z" fill="#93D500"/>
    <path d="M91.7703 75.2918C108.648 78.6638 125.109 67.4864 128.537 50.3264C131.966 33.1664 121.063 16.5219 104.186 13.1499C87.3087 9.77787 70.8476 20.9553 67.4191 38.1153C63.9906 55.2753 74.893 71.9198 91.7703 75.2918Z" fill="#00C4B3"/>
    <path opacity="0.6" d="M153.936 23.0896L109.156 14.1427L101.468 52.6252L146.248 61.5721L153.936 23.0896Z" fill="#00C4B3"/>
    <path d="M154.097 22.2994L115.211 14.5302L99.3436 93.9477L138.23 101.717L154.097 22.2994Z" fill="#00C4B3"/>
    <path d="M64.9337 65.5609L-2.33789 52.1204L-14.2175 111.579L53.0541 125.02L64.9337 65.5609Z" fill="#95D4E9"/>
    <path d="M138.351 101.107L99.4648 93.338L91.566 132.873L130.452 140.642L138.351 101.107Z" fill="white"/>
    <path d="M100.099 33.6135L105.316 30.9983L105.827 36.8653L111.543 37.853L108.559 42.9277L112.589 47.1421L107.249 49.4866L108.053 55.316L102.397 54.0338L99.6711 59.2541L95.8589 54.8348L90.6392 57.4496L90.1285 51.5826L84.4136 50.5928L87.3966 45.5202L83.367 41.3037L88.707 38.9613L87.9026 33.1298L93.5587 34.4141L96.2847 29.1937L100.099 33.6135Z" fill="#FCE200"/>
    <path d="M138.351 101.107L99.4648 93.338L90.5246 138.085L129.411 145.854L138.351 101.107Z" fill="#FCE200"/>
    <path d="M85.7186 93.1033C85.9919 89.6372 83.682 86.4496 80.2427 85.7624C80.1495 85.7438 80.0555 85.7293 79.9619 85.7128C79.7873 81.1571 76.5795 77.1604 71.9836 76.2422C67.9792 75.4421 64.0502 77.2055 61.8389 80.4086C61.5781 80.3222 61.3084 80.2491 61.0309 80.1936C60.089 80.0054 59.1522 80.0239 58.2668 80.2174C57.3336 78.4677 55.6691 77.1415 53.5929 76.7267C50.3015 76.069 47.0848 77.9255 45.867 80.9844C43.9059 81.0059 42.1249 82.2134 41.3481 84.0455C39.5037 83.7991 37.7396 85.0592 37.3639 86.9394L37.1586 87.967C36.7677 89.9233 38.0219 91.8378 39.9461 92.2223L82.9945 100.823C84.9188 101.208 86.8123 99.922 87.2032 97.9656L87.4085 96.9381C87.7183 95.3874 86.9928 93.8633 85.7202 93.1058L85.7186 93.1033Z" fill="#C1E5F1"/>
    <path d="M113.029 77.3879C113.206 75.1425 111.708 73.0766 109.48 72.6314C109.419 72.6193 109.358 72.6092 109.297 72.5991C109.183 69.6468 107.105 67.058 104.126 66.4627C101.531 65.9443 98.9839 67.0865 97.5517 69.1624C97.3816 69.107 97.2079 69.0595 97.0276 69.0234C96.4179 68.9016 95.8111 68.9132 95.2364 69.0382C94.6309 67.9043 93.5536 67.0444 92.2066 66.7753C90.0737 66.3492 87.9883 67.5515 87.2006 69.5335C85.9298 69.5473 84.7751 70.3295 84.2726 71.5162C83.0765 71.3564 81.9338 72.1732 81.6906 73.3903L81.5577 74.0554C81.3047 75.3219 82.1182 76.5638 83.3639 76.8126L111.259 82.386C112.505 82.6349 113.733 81.801 113.986 80.5345L114.119 79.8694C114.32 78.8644 113.85 77.8774 113.025 77.3871L113.029 77.3879Z" fill="#C1E5F1"/>
    <path d="M4.25209 90.4503L49.7352 99.5376C52.3157 100.053 54.8225 98.5024 55.3043 96.091L55.7807 93.7063C56.2625 91.2948 54.5461 88.9003 51.9636 88.3843L6.48047 79.297L4.25251 90.4482L4.25209 90.4503Z" fill="#6FDDD0"/>
    <path d="M40.4037 84.0494C37.8799 83.5452 36.9769 80.7692 38.8829 79.3897C42.0387 77.1099 45.8985 75.5768 50.0907 74.9945C47.8855 73.1063 45.194 71.7441 42.1719 71.1403L34.2724 69.562C33.446 69.3968 32.6341 69.9499 32.4666 70.788L29.0253 88.0122C28.8574 88.8524 29.3969 89.6733 30.2213 89.838L54.0374 94.5964C54.8638 94.7615 55.6757 94.2084 55.8432 93.3703L56.0514 92.3283C56.3974 90.5964 56.4832 88.8703 56.3382 87.1924C56.1615 87.1806 55.984 87.1623 55.8058 87.1267L40.4037 84.0494Z" fill="#00C4B3"/>
    <path d="M50.09 74.9948C45.8982 75.575 42.038 77.1101 38.8821 79.3899C36.9742 80.7691 37.8792 83.5454 40.403 84.0497L55.805 87.1269C55.9833 87.1625 56.1624 87.1833 56.3375 87.1926C55.9252 82.4139 53.6314 78.028 50.09 74.9948Z" fill="#6FDDD0"/>
    <path d="M5.0987 86.2179L29.5427 91.1017L33.8497 69.5448L-0.90625 62.6007L5.0987 86.2179Z" fill="#00C4B3"/>
    <path d="M37.9174 86.4656L15.3917 108.88L7.55903 107.315L38.3341 83.8527L37.9174 86.4656Z" fill="#6FDDD0"/>
    <path d="M38.3341 83.8527L15.4772 107.925L7.74582 106.38L23.483 80.8855L38.3341 83.8527Z" fill="#00C4B3"/>
    <path d="M36.524 72.708L31.8795 71.7801C31.3571 71.6757 30.8476 72.0216 30.7415 72.5528L29.0895 80.8209C28.9834 81.3521 29.3209 81.8672 29.8433 81.9716L34.4878 82.8996C35.0102 83.0039 35.5197 82.658 35.6259 82.1269L37.2778 73.8587C37.3839 73.3276 37.0465 72.8124 36.524 72.708Z" fill="#6FDDD0"/>
    <path d="M27.5983 70.9246L22.9537 69.9966C22.4313 69.8922 21.9218 70.2382 21.8157 70.7693L20.1637 79.0375C20.0576 79.5686 20.3951 80.0838 20.9175 80.1882L25.562 81.1161C26.0844 81.2205 26.594 80.8745 26.7001 80.3434L28.352 72.0753C28.4581 71.5441 28.1207 71.0289 27.5983 70.9246Z" fill="#6FDDD0"/>
    <path d="M18.2897 69.0649L13.6451 68.137C13.1227 68.0326 12.6132 68.3786 12.5071 68.9097L10.8551 77.1779C10.749 77.709 11.0865 78.2242 11.6089 78.3285L16.2534 79.2565C16.7758 79.3609 17.2854 79.0149 17.3915 78.4838L19.0434 70.2156C19.1496 69.6845 18.8121 69.1693 18.2897 69.0649Z" fill="#6FDDD0"/>
    <mask id="mask1_352_8923" style="mask-type:luminance" maskUnits="userSpaceOnUse" x="30" y="-18" width="192" height="194">
    <path d="M221.116 14.3639L62.7773 -17.2716L30.614 143.709L188.953 175.345L221.116 14.3639Z" fill="white"/>
    </mask>
    <g mask="url(#mask1_352_8923)">
    <path d="M174.938 21.9545L154.412 49.5544C154.412 49.5544 154.398 63.3622 146.599 70.019C138.798 76.6753 140.592 68.7503 140.592 68.7503C140.592 68.7503 131.573 55.2856 132.716 49.6398C133.1 47.7505 140.65 43.0315 142.739 40.1446C144.139 38.2078 158.294 16.1556 158.294 16.1556L174.938 21.9545Z" fill="#F29E70"/>
    <path d="M139.296 71.8774L147.399 65.4357C148.747 64.3643 149 62.3356 147.963 60.929C146.895 59.4823 144.895 59.2775 143.587 60.4809L135.937 67.51C134.814 68.5428 134.711 70.3467 135.712 71.5147C136.639 72.5973 138.194 72.7537 139.298 71.8778L139.296 71.8774Z" fill="#F29E70"/>
    <path d="M132.007 63.183L141.264 54.9096C142.269 54.0118 143.744 53.9853 144.802 54.8477L145.02 55.0239C146.464 56.199 146.508 58.4671 145.111 59.6614L135.636 67.7586C134.498 68.7305 132.827 68.6 131.81 67.4588C130.703 66.2184 130.793 64.2704 132.008 63.1855L132.007 63.183Z" fill="#F29E70"/>
    <path d="M129.887 61.8391C130.754 62.7491 132.134 62.8106 133.132 61.982L139.479 56.7185C140.507 55.8659 140.803 54.3404 140.164 53.1848L139.845 52.6072C139.065 51.1899 137.247 50.938 136.066 52.0833L130.037 57.9245C128.945 58.9827 128.875 60.7782 129.885 61.8387L129.887 61.8391Z" fill="#F29E70"/>
    <path d="M128.914 56.839C129.705 57.4274 130.761 57.4114 131.471 56.7974L136.633 52.3463C137.475 51.6194 137.553 50.3095 136.81 49.4028L136.341 48.8315C135.524 47.8374 134.073 47.749 133.24 48.6425L128.548 53.6649C127.704 54.5692 127.877 56.0643 128.914 56.839Z" fill="#F29E70"/>
    <path d="M137.691 57.3711C137.843 57.2602 138.045 57.2962 138.146 57.4535C138.249 57.6132 138.208 57.8364 138.057 57.9538C137.73 58.2056 133.995 61.404 132.065 63.0594C131.918 63.1862 131.71 63.1639 131.599 63.0111C131.488 62.8584 131.517 62.6328 131.664 62.5059C131.893 62.3096 137.262 57.703 137.685 57.3764C137.685 57.3764 137.69 57.3731 137.693 57.3715L137.691 57.3711Z" fill="black"/>
    <path d="M141.108 61.8753C141.261 61.7645 141.462 61.8005 141.564 61.9577C141.667 62.1175 141.626 62.3428 141.472 62.4598C141.109 62.7384 136.864 66.5226 134.671 68.485C134.528 68.6127 134.318 68.5966 134.203 68.4471C134.087 68.2977 134.114 68.0717 134.258 67.9419C134.517 67.7089 140.624 62.2454 141.099 61.882C141.099 61.882 141.103 61.8787 141.106 61.877L141.108 61.8753Z" fill="black"/>
    <path d="M135.04 52.7714C135.195 52.6589 135.4 52.6977 135.5 52.8591C135.6 53.0226 135.554 53.2446 135.4 53.3595C134.968 53.6779 131.859 56.4939 130.277 57.9381C130.135 58.0683 129.923 58.0538 129.808 57.9043C129.692 57.7549 129.714 57.5281 129.858 57.3983C130.046 57.2261 134.469 53.1907 135.042 52.7718L135.04 52.7714Z" fill="black"/>
    <path d="M147.579 64.8472C147.85 64.6487 148.15 64.5888 148.275 64.7144C148.408 64.8501 148.285 65.151 147.999 65.3874L140.951 71.209C140.668 71.4437 140.327 71.5255 140.195 71.3898C140.062 71.254 140.185 70.9531 140.47 70.7167L147.518 64.8952C147.539 64.8778 147.559 64.8625 147.581 64.8476L147.579 64.8472Z" fill="black"/>
    <path d="M154.25 52.2152C154.25 52.2152 163.86 57.6516 175.193 44.2378C186.526 30.824 225.011 -8.21473 234.965 -29.7806C242.337 -45.7504 240.508 -57.9135 229.539 -63.3815C216.772 -69.7464 205.725 -57.3848 186.948 -34.2409C165.545 -7.85925 154.933 8.22779 148.046 17.4995C134.891 35.2156 140.454 42.4776 140.454 42.4776L154.248 52.2128L154.25 52.2152Z" fill="#8347AD"/>
    <path d="M105.38 147.836L66.7382 122.39C64.5993 120.982 64.0507 118.046 65.5267 115.919L104.334 59.9726C105.737 57.9486 108.459 57.4068 110.491 58.7466L145.095 81.531C147.128 82.8687 147.741 85.6082 146.483 87.7276L111.715 146.335C110.394 148.564 107.519 149.247 105.38 147.838L105.38 147.836Z" fill="#8347AD"/>
    <path d="M116.596 70.2253C117.274 70.1699 117.782 69.5675 117.732 68.8798C117.682 68.1921 117.092 67.6795 116.414 67.7349C115.737 67.7902 115.228 68.3926 115.278 69.0803C115.329 69.768 115.919 70.2806 116.596 70.2253Z" fill="black"/>
    <path d="M132.84 80.1062C132.738 80.7885 133.201 81.423 133.872 81.5208C134.544 81.6206 135.172 81.1462 135.272 80.4636C135.375 79.7814 134.912 79.1468 134.24 79.0491C133.569 78.9492 132.941 79.4236 132.84 80.1062Z" fill="black"/>
    <path d="M116.383 69.5412C116.302 69.525 116.225 69.4903 116.156 69.4358C115.913 69.246 115.87 68.8947 116.056 68.6492L128.699 51.9679C128.885 51.7203 129.23 51.6714 129.476 51.8619C129.716 52.0513 129.762 52.403 129.576 52.6486L116.933 69.3298C116.799 69.5064 116.586 69.5817 116.385 69.5416L116.383 69.5412Z" fill="black"/>
    <path d="M133.942 80.8343C133.851 80.8161 133.764 80.7753 133.691 80.7092C133.46 80.5067 133.436 80.1528 133.637 79.9167L144.093 67.6147C144.296 67.379 144.642 67.354 144.874 67.5544C145.105 67.757 145.129 68.1108 144.928 68.347L134.472 80.649C134.335 80.8079 134.133 80.8724 133.942 80.8343Z" fill="black"/>
    <path d="M101.152 136.464L69.7852 103.017C68.3282 101.464 68.804 98.6192 70.8054 96.899L107.317 65.5586C109.048 64.0714 111.322 63.9624 112.582 65.3065L138.507 92.9507C139.766 94.2944 139.604 96.6541 138.132 98.4158L107.062 135.559C105.358 137.596 102.609 138.017 101.154 136.465L101.152 136.464Z" fill="#FCE200"/>
    <path d="M110.443 74.743C110.292 75.3019 110.603 75.874 111.138 76.0216C111.674 76.1672 112.232 75.833 112.381 75.2738C112.531 74.7145 112.222 74.1428 111.687 73.9952C111.151 73.8496 110.593 74.1838 110.443 74.743Z" fill="black"/>
    <path d="M128.5 92.6322C128.348 93.1911 128.66 93.7632 129.195 93.9108C129.731 94.0564 130.288 93.7222 130.44 93.1633C130.592 92.6045 130.28 92.0324 129.745 91.8848C129.21 91.7392 128.652 92.0734 128.5 92.6322Z" fill="black"/>
    <path d="M111.302 75.5569C111.219 75.5403 111.138 75.5048 111.069 75.4482C110.829 75.2568 110.79 74.9021 110.98 74.6595L128.706 51.9547C128.896 51.712 129.246 51.6684 129.484 51.8594C129.724 52.0508 129.762 52.4055 129.573 52.6481L111.848 75.3533C111.715 75.5258 111.502 75.5969 111.304 75.5573L111.302 75.5569Z" fill="black"/>
    <path d="M129.359 93.4455C129.296 93.433 129.235 93.4102 129.179 93.3754C128.919 93.2141 128.838 92.8682 128.999 92.6026L144.039 67.6844C144.2 67.4188 144.543 67.3332 144.8 67.4958C145.06 67.657 145.141 68.0029 144.98 68.2665L129.94 93.1847C129.814 93.393 129.58 93.4897 129.359 93.4455Z" fill="black"/>
    </g>
    <path d="M70.207 89.3206L106.15 96.5018L120.107 117.427L116.086 137.555L62.7011 126.889L70.207 89.3206Z" fill="#FF5100"/>
    <path d="M105.863 111.792L57.0078 102.031L51.3669 130.264L100.223 140.025L105.863 111.792Z" fill="#FF5100"/>
    <path d="M65.103 133.062L67.4326 121.402C67.8231 119.447 66.5705 117.535 64.6483 117.151C62.7261 116.767 60.835 118.051 60.4446 120.006L58.115 131.665L65.103 133.062Z" fill="#ACDCD9"/>
    <path d="M32.2859 20.2511L25.4825 41.0929C24.2054 45.0073 26.5769 49.1517 30.551 49.9457L53.1943 54.4697L69.6648 27.7192L32.2879 20.2515L32.2859 20.2511Z" fill="#FF5100"/>
    <path d="M39.721 23.9695C39.7579 23.8377 43.5636 10.7252 51.3765 12.5475C59.3121 14.3878 59.0014 26.6545 58.9978 26.778L60.6129 26.8223C60.6174 26.684 60.7123 23.3943 59.7136 19.8004C58.3499 14.9023 55.5958 11.84 51.7448 10.9464C47.823 10.0386 44.2319 11.9767 41.321 16.5518C39.2091 19.869 38.2064 23.3799 38.1642 23.5278L39.7186 23.9712L39.721 23.9695Z" fill="#FF5100"/>
    <path d="M69.6633 27.721L35.191 20.8336L35.7265 43.9512C35.8217 48.082 38.7205 51.58 42.7108 52.3773L63.6648 56.5638C68.2262 57.4752 72.371 53.6198 71.8814 48.922L69.6638 27.719L69.6633 27.721Z" fill="#FF9D5F"/>
    <path d="M42.4691 24.5184C42.506 24.3865 46.3117 11.2741 54.1246 13.0964C62.0602 14.9367 61.7515 27.2038 61.7459 27.3269L63.361 27.3712C63.3655 27.2329 63.4604 23.9432 62.4617 20.3493C61.098 15.4512 58.3439 12.3889 54.4929 11.4953C50.5711 10.5875 46.9801 12.5255 44.0671 17.1003C41.9552 20.4174 40.9525 23.9284 40.9103 24.0763L42.4647 24.5196L42.4691 24.5184Z" fill="#FF9D5F"/>
    <path d="M157.879 133.247L171.166 135.902C178.827 137.432 186.301 132.359 187.857 124.569L146.826 116.371C145.27 124.16 150.218 131.716 157.881 133.247L157.879 133.247Z" fill="#FCE200"/>
    <g style="mix-blend-mode:multiply" opacity="0.5">
    <path d="M182.549 123.509L187.855 124.569C186.299 132.357 178.827 137.432 171.165 135.901L165.858 134.841C173.518 136.372 180.992 131.299 182.549 123.509Z" fill="#FCE200"/>
    </g>
    <path d="M156.537 142.247L169.825 144.901C177.485 146.432 184.959 141.359 186.515 133.569L145.484 125.371C143.928 133.159 148.877 140.716 156.539 142.247L156.537 142.247Z" fill="#FF9D5F"/>
    <path opacity="0.69" d="M180.396 132.346L185.703 133.407C184.147 141.195 176.675 146.27 169.012 144.739L163.705 143.679C171.366 145.21 178.84 140.137 180.396 132.346Z" fill="#FF5100"/>
    <path d="M154.691 149.205L167.979 151.86C175.639 153.391 183.113 148.318 184.67 140.528L143.639 132.33C142.083 140.118 147.031 147.675 154.694 149.206L154.691 149.205Z" fill="#FFCEAC"/>
    <g style="mix-blend-mode:multiply" opacity="0.5">
    <path d="M179.361 139.467L184.668 140.527C183.112 148.316 175.64 153.391 167.977 151.86L162.67 150.8C170.331 152.33 177.805 147.258 179.361 139.467Z" fill="#FF9D5F"/>
    </g>
    <path d="M80.3589 98.9821L75.3438 97.9801L73.8082 105.665L78.8234 106.667L80.3589 98.9821Z" fill="#ACDCD9"/>
    <path d="M89.275 100.763L84.2598 99.7614L82.7243 107.447L87.7395 108.449L89.275 100.763Z" fill="#ACDCD9"/>
    <path d="M98.189 102.544L93.1738 101.542L91.6383 109.228L96.6535 110.23L98.189 102.544Z" fill="#ACDCD9"/>
    <path d="M65.304 113.852C66.6588 114.123 67.98 113.226 68.2552 111.849C68.5304 110.471 67.6553 109.135 66.3006 108.865C64.9459 108.594 63.6246 109.491 63.3494 110.868C63.0742 112.246 63.9493 113.582 65.304 113.852Z" fill="#FF9D5F"/>
    <path d="M48.416 37.6252C48.3352 34.4032 50.7281 32.2836 53.7583 32.889C56.7885 33.4945 59.3131 36.5987 59.3943 39.8186C59.4752 43.0406 57.0823 45.1602 54.0521 44.5548C51.0219 43.9494 48.4969 40.8472 48.416 37.6252Z" fill="#FF5100"/>
    <path d="M6.01803 113.025C1.41807 112.106 -2.94972 110.668 -7.03934 108.786L-10.3029 125.121L50.1549 137.2L57.948 98.1947L57.1344 102.056C43.5802 114.632 25.3289 116.885 6.01761 113.027L6.01803 113.025Z" fill="#93D500"/>
    <path d="M122.252 106.521L112.931 104.659L111.532 111.662L103.442 110.046L102.116 116.681L93.5905 114.978L91.9324 123.277L83.1052 121.513L80.2062 136.023L114.97 142.969L122.252 106.521Z" fill="#FF9D5F"/>
    <path d="M170.398 131.845C170.692 131.904 170.984 131.979 171.282 132.017C171.551 132.052 171.648 132.155 171.648 132.45C171.646 134.6 171.666 136.75 171.678 138.9C171.684 140.03 171.68 141.158 171.697 142.287C171.701 142.509 171.64 142.548 171.442 142.506C170.824 142.374 170.204 142.25 169.583 142.135C169.41 142.102 169.353 142.02 169.357 141.852C169.363 141.493 169.357 141.135 169.363 140.778C169.366 140.586 169.297 140.487 169.098 140.449C168.15 140.268 167.205 140.079 166.26 139.882C166.084 139.847 165.98 139.894 165.892 140.05C165.698 140.389 165.486 140.719 165.297 141.058C165.214 141.206 165.126 141.247 164.962 141.212C164.239 141.059 163.514 140.912 162.787 140.777C162.549 140.734 162.568 140.65 162.679 140.484C164.532 137.716 166.379 134.946 168.233 132.181C168.533 131.731 168.954 131.546 169.488 131.663C169.791 131.73 170.098 131.785 170.402 131.846L170.398 131.845ZM169.31 134.467C169.24 134.52 169.208 134.535 169.192 134.559C168.55 135.624 167.907 136.69 167.265 137.755C167.161 137.927 167.241 137.977 167.4 138.007C167.955 138.113 168.513 138.221 169.067 138.34C169.293 138.389 169.337 138.317 169.33 138.097C169.313 137.361 169.316 136.625 169.312 135.887C169.31 135.427 169.309 134.964 169.308 134.465L169.31 134.467Z" fill="#F8F4F1"/>
    <path d="M147.296 134.25C147.657 133.687 148.02 133.125 148.382 132.559C149.286 131.142 150.193 129.726 151.09 128.305C151.222 128.096 151.346 128.012 151.606 128.072C152.284 128.231 152.968 128.36 153.655 128.486C153.883 128.527 153.912 128.591 153.777 128.791C151.822 131.711 149.873 134.635 147.928 137.561C147.82 137.724 147.711 137.76 147.527 137.721C146.815 137.568 146.1 137.421 145.384 137.293C145.161 137.252 145.093 137.162 145.081 136.937C144.948 134.248 144.794 131.562 144.672 128.873C144.645 128.288 144.44 127.863 143.96 127.543C143.371 127.149 142.758 126.801 142.119 126.502C142.022 126.457 141.86 126.438 141.921 126.266C141.973 126.124 142.102 126.182 142.202 126.202C143.579 126.477 144.956 126.744 146.331 127.029C146.954 127.158 147.297 127.616 147.292 128.305C147.283 129.511 147.259 130.716 147.241 131.92C147.232 132.687 147.222 133.454 147.212 134.219C147.242 134.229 147.271 134.239 147.301 134.249L147.296 134.25Z" fill="#F8F4F1"/>
    <path d="M158.119 139.972C157.261 139.816 156.453 139.517 155.686 139.096C155.468 138.975 155.396 138.86 155.51 138.618C155.753 138.097 155.983 137.569 156.199 137.036C156.274 136.851 156.339 136.862 156.471 136.961C157.03 137.39 157.651 137.694 158.33 137.881C158.833 138.02 159.339 138.093 159.85 137.949C160.579 137.746 160.779 137.113 160.313 136.517C160.118 136.268 159.878 136.07 159.634 135.878C159.23 135.558 158.835 135.23 158.483 134.847C157.051 133.287 157.84 131.481 159.008 130.673C159.785 130.137 160.66 129.952 161.576 129.974C162.716 130.003 163.791 130.303 164.792 130.863C164.979 130.969 165.025 131.077 164.937 131.275C164.714 131.77 164.493 132.266 164.291 132.77C164.204 132.983 164.127 132.99 163.944 132.872C163.249 132.427 162.504 132.119 161.667 132.078C161.363 132.065 161.066 132.104 160.802 132.269C160.428 132.503 160.342 132.874 160.572 133.249C160.733 133.511 160.963 133.707 161.194 133.903C161.602 134.252 162.02 134.586 162.408 134.959C164.132 136.614 163.105 138.863 161.719 139.612C160.779 140.12 159.781 140.201 158.754 140.092C158.542 140.069 158.334 140.011 158.124 139.969L158.119 139.972Z" fill="#F8F4F1"/>
    <path d="M152.246 138.662C151.93 138.599 151.618 138.518 151.299 138.479C151.029 138.447 150.993 138.346 151.098 138.105C151.592 136.97 152.074 135.831 152.563 134.695C153.369 132.82 154.179 130.947 154.976 129.07C155.063 128.862 155.152 128.786 155.38 128.838C156.027 128.982 156.68 129.11 157.335 129.228C157.568 129.271 157.597 129.339 157.499 129.565C156.2 132.587 154.911 135.612 153.624 138.638C153.541 138.831 153.456 138.932 153.221 138.864C152.902 138.772 152.572 138.727 152.246 138.662Z" fill="#F8F4F1"/>
    <path d="M58.0026 30.1594L57.4564 32.8936C56.74 32.7524 56.059 32.469 55.4524 32.0594C54.8458 31.6499 54.3255 31.1223 53.9214 30.5069C53.5173 29.8916 53.2372 29.2005 53.0973 28.4733C52.9573 27.7461 52.9603 26.9971 53.106 26.2692L54.1061 21.2514C54.1213 21.1748 54.1513 21.1019 54.1942 21.0368C54.2371 20.9718 54.2922 20.9159 54.3563 20.8724C54.4203 20.8289 54.4922 20.7985 54.5676 20.7832C54.6431 20.7678 54.7207 20.7676 54.796 20.7828L56.3375 21.0908C56.4129 21.1057 56.4845 21.1357 56.5483 21.1789C56.612 21.2221 56.6667 21.2777 56.7092 21.3425C56.7516 21.4073 56.781 21.4801 56.7957 21.5566C56.8104 21.6331 56.81 21.712 56.7946 21.7885L55.7969 26.7929C55.795 26.7942 55.7934 26.7959 55.7923 26.7979C55.7912 26.7999 55.7905 26.8022 55.7903 26.8045C55.7168 27.1737 55.7158 27.5536 55.7874 27.9223C55.8589 28.2909 56.0015 28.6412 56.2071 28.9529C56.4127 29.2646 56.6772 29.5315 56.9853 29.7385C57.2935 29.9454 57.6393 30.0882 58.0028 30.1587" fill="white"/>
    <path d="M51.9327 25.8181C52.1187 24.7173 51.9815 23.5872 51.5383 22.5691C51.095 21.551 50.3653 20.69 49.4403 20.0936C48.5154 19.4972 47.4361 19.1919 46.3374 19.2158C45.2386 19.2397 44.1691 19.5917 43.2624 20.2279C42.3557 20.8641 41.652 21.7563 41.2392 22.793C40.8264 23.8297 40.7228 24.965 40.9413 26.0571C41.1599 27.1491 41.6909 28.1495 42.468 28.9334C43.2451 29.7172 44.2339 30.2497 45.3109 30.4644C46.1612 30.6181 47.0392 30.4389 47.7687 29.9629C47.8197 29.9311 47.8787 29.9151 47.9384 29.9169C47.9981 29.9187 48.0559 29.9382 48.1046 29.973C48.1532 30.0078 48.1907 30.0564 48.2124 30.1127C48.2341 30.1691 48.239 30.2308 48.2265 30.2902L48.0765 31.0196L50.7853 31.5608L51.9327 25.8181ZM45.8514 27.7119C45.3071 27.5965 44.8097 27.3199 44.4217 26.9171C44.0337 26.5142 43.7725 26.0031 43.6709 25.448C43.5692 24.8929 43.6318 24.3186 43.8506 23.7975C44.0695 23.2763 44.4348 22.8315 44.9007 22.5191C45.3666 22.2067 45.9122 22.0407 46.4689 22.0418C47.0256 22.0429 47.5684 22.2113 48.0292 22.5256C48.4899 22.8399 48.8479 23.2861 49.0581 23.8082C49.2684 24.3302 49.3214 24.9047 49.2106 25.4594C49.0563 26.2084 48.6157 26.8664 47.9858 27.2887C47.3559 27.7111 46.5881 27.8633 45.8514 27.7119Z" fill="white"/>
    <path d="M39.2693 18.0897L34.9675 25.186C34.7619 25.5389 34.4228 25.4894 34.3542 25.0868L32.9587 16.8128C32.9388 16.6946 32.8845 16.5855 32.8027 16.4994C32.7209 16.4133 32.6154 16.3542 32.4999 16.3298L30.8501 16.0001C30.757 15.9817 30.6609 15.9865 30.5698 16.0141C30.4787 16.0417 30.3955 16.0914 30.3273 16.1588C30.259 16.2261 30.2078 16.3093 30.1781 16.4009C30.1484 16.4926 30.141 16.5901 30.1565 16.685L31.9752 27.8045L36.1346 28.6355L41.9777 19.0391C42.0278 18.9574 42.0578 18.8647 42.0649 18.7689C42.0721 18.6732 42.0563 18.5772 42.0189 18.4893C41.9815 18.4014 41.9236 18.3241 41.8502 18.2642C41.7768 18.2042 41.69 18.1633 41.5973 18.145L39.8875 17.8066C39.7687 17.7831 39.6454 17.7977 39.5347 17.8485C39.424 17.8992 39.3311 17.9835 39.2693 18.0897Z" fill="white"/>
    <path d="M71.6848 24.7632L70.6807 29.7979C70.3867 31.2696 69.5296 32.5662 68.2981 33.4024C67.0666 34.2385 65.5614 34.5458 64.1139 34.2566C62.6663 33.9674 61.3948 33.1053 60.5791 31.8601C59.7634 30.615 59.4704 29.0886 59.7644 27.6169L60.7682 22.5821C60.7835 22.5054 60.8134 22.4325 60.8564 22.3674C60.8993 22.3024 60.9544 22.2465 61.0186 22.2029C61.0827 22.1594 61.1546 22.1291 61.2301 22.1138C61.3056 22.0984 61.3833 22.0984 61.4586 22.1136L63.0001 22.4215C63.0755 22.4365 63.1471 22.4664 63.2109 22.5096C63.2747 22.5528 63.3294 22.6084 63.3718 22.6732C63.4142 22.738 63.4436 22.8108 63.4582 22.8873C63.4728 22.9639 63.4724 23.0427 63.457 23.1193L62.4562 28.1375C62.4554 28.1416 62.4505 28.1449 62.4489 28.1532C62.3073 28.8979 62.4607 29.6673 62.8757 30.2941C63.2906 30.921 63.9335 31.3546 64.6646 31.5007C65.3957 31.6468 66.1559 31.4935 66.7798 31.0742C67.4038 30.6549 67.8411 30.0035 67.9965 29.2616C67.9982 29.2534 67.995 29.2484 67.9958 29.2443L68.9966 24.2261C69.0279 24.0717 69.118 23.9358 69.2473 23.848C69.3765 23.7602 69.5344 23.7276 69.6864 23.7574L71.2279 24.0654C71.3033 24.0804 71.3749 24.1104 71.4386 24.1535C71.5024 24.1967 71.5571 24.2523 71.5995 24.3171C71.6419 24.382 71.6713 24.4547 71.6859 24.5313C71.7006 24.6078 71.7002 24.6866 71.6848 24.7632Z" fill="white"/>
    <path d="M77.2628 32.3088L77.9104 32.0214C77.95 32.0038 77.9859 31.9785 78.0159 31.9469C78.046 31.9153 78.0697 31.878 78.0856 31.8372C78.1015 31.7964 78.1094 31.7528 78.1087 31.709C78.1081 31.6652 78.099 31.6221 78.0818 31.582L77.4026 29.9874C77.3844 29.9446 77.3781 29.8975 77.3844 29.8512C77.3907 29.8049 77.4094 29.7611 77.4384 29.7247C77.4675 29.6883 77.5057 29.6606 77.5491 29.6447C77.5924 29.6287 77.6392 29.6251 77.6842 29.6343L79.365 29.9701C79.4072 29.9786 79.4507 29.9785 79.493 29.9699C79.5353 29.9613 79.5756 29.9443 79.6115 29.9199C79.6474 29.8955 79.6783 29.8642 79.7023 29.8278C79.7264 29.7913 79.7432 29.7505 79.7517 29.7075L79.8922 29.0044C79.9095 28.9177 79.8923 28.8278 79.8442 28.7545C79.7962 28.6812 79.7213 28.6304 79.6361 28.6134L77.9553 28.2776C77.9102 28.2687 77.8685 28.2474 77.8346 28.2161C77.8008 28.1847 77.7761 28.1445 77.7633 28.0997C77.7505 28.055 77.75 28.0075 77.7619 27.9623C77.7738 27.9172 77.7977 27.8761 77.8309 27.8437L79.0706 26.633C79.1018 26.6026 79.1268 26.5662 79.1443 26.5261C79.1617 26.4859 79.1711 26.4427 79.1721 26.3989C79.1731 26.3551 79.1656 26.3116 79.15 26.2709C79.1343 26.2302 79.111 26.1931 79.0812 26.1617L78.5939 25.6464C78.564 25.615 78.5283 25.5899 78.4887 25.5726C78.4492 25.5553 78.4066 25.5461 78.3635 25.5455C78.3203 25.5449 78.2774 25.553 78.2372 25.5693C78.197 25.5855 78.1603 25.6096 78.1292 25.6402L76.3098 27.419L75.3142 25.0778C75.2972 25.0375 75.2726 25.0012 75.2418 24.9707C75.2109 24.9402 75.1744 24.9163 75.1343 24.9002C75.0943 24.8842 75.0514 24.8763 75.0083 24.8771C74.9651 24.8779 74.9224 24.8874 74.8828 24.9049L74.2352 25.1924C74.1954 25.2099 74.1594 25.2352 74.1292 25.2668C74.099 25.2985 74.0753 25.3358 74.0593 25.3767C74.0433 25.4176 74.0354 25.4613 74.0361 25.5052C74.0368 25.5491 74.0461 25.5924 74.0633 25.6325L74.7417 27.2273C74.7599 27.27 74.7662 27.3171 74.7598 27.3633C74.7535 27.4096 74.7348 27.4533 74.7057 27.4897C74.6767 27.526 74.6385 27.5537 74.5952 27.5696C74.5519 27.5856 74.5052 27.5892 74.4601 27.5801L72.7796 27.2443C72.6944 27.2273 72.6057 27.2454 72.5332 27.2946C72.4607 27.3438 72.4102 27.4202 72.3929 27.5069L72.2524 28.2103C72.235 28.2969 72.2523 28.3868 72.3003 28.4602C72.3484 28.5335 72.4233 28.5843 72.5085 28.6013L74.1893 28.9371C74.2344 28.9459 74.2762 28.9672 74.3101 28.9986C74.344 29.03 74.3687 29.0702 74.3815 29.115C74.3943 29.1598 74.3948 29.2074 74.3828 29.2526C74.3708 29.2977 74.3469 29.3388 74.3136 29.3713L73.0746 30.5826C73.0434 30.6131 73.0184 30.6495 73.001 30.6897C72.9836 30.7299 72.9742 30.7731 72.9732 30.817C72.9723 30.8608 72.9799 30.9043 72.9955 30.945C73.0112 30.9857 73.0346 31.0229 73.0645 31.0543L73.5519 31.5685C73.5817 31.6 73.6174 31.6251 73.6568 31.6426C73.6963 31.66 73.7388 31.6693 73.7819 31.67C73.825 31.6707 73.8679 31.6627 73.9081 31.6466C73.9483 31.6305 73.985 31.6065 74.0161 31.576L75.8349 29.7973L76.8312 32.1384C76.8482 32.1785 76.8729 32.2148 76.9039 32.2452C76.9348 32.2755 76.9713 32.2993 77.0114 32.3152C77.0515 32.3312 77.0943 32.3389 77.1375 32.338C77.1806 32.3371 77.2232 32.3275 77.2628 32.3099" fill="white"/>
    </g>
    <path d="M32.6972 62.4519C32.359 64.1913 33.4921 65.8712 35.2295 66.2089L38.5616 66.8566L39.2454 63.3384L32.7695 62.0796L32.6968 62.454L32.6972 62.4519Z" fill="#F9F5F2"/>
    <path d="M40.1615 58.631L33.6855 57.3722L32.9876 60.9628L39.4635 62.2216L40.1615 58.631Z" fill="#F9F5F2"/>
    <path d="M34.8909 51.1733L34.8177 51.5497L41.2936 52.8085L41.9779 49.2882L38.6458 48.6405C36.9084 48.3028 35.2282 49.4379 34.8904 51.1753L34.8909 51.1733Z" fill="#F9F5F2"/>
    <path d="M51.8756 51.2104L43.0914 49.5029L39.6765 67.0712L44.144 67.9396L46.8747 53.8916L54.3372 55.3422L54.4104 54.9657C54.7481 53.2284 53.6133 51.546 51.876 51.2083L51.8756 51.2104Z" fill="#F9F5F2"/>
    <path d="M41.0755 53.9255L34.5996 52.6667L33.9017 56.2573L40.3776 57.5161L41.0755 53.9255Z" fill="#F9F5F2"/>
    <path d="M54.121 56.4611L47.7754 55.2277L47.0774 58.8183L53.4231 60.0517L54.121 56.4611Z" fill="#F9F5F2"/>
    <path d="M53.205 61.1666L46.8594 59.9331L46.1614 63.5237L52.507 64.7572L53.205 61.1666Z" fill="#F9F5F2"/>
    <path d="M45.261 68.1588L48.4607 68.7808C50.1981 69.1185 51.88 67.9858 52.2182 66.2464L52.2909 65.872L45.9453 64.6385L45.2614 68.1568L45.261 68.1588Z" fill="#F9F5F2"/>
    </g>
    <defs>
    <clipPath id="clip0_352_8923">
    <rect width="184.197" height="119.874" fill="white" transform="translate(23.4863) rotate(11.2987)"/>
    </clipPath>
    </defs>
    </svg>
    