<svg width="358" height="225" viewBox="0 0 358 225" fill="none" xmlns="http://www.w3.org/2000/svg">
  <mask id="mask0_445_7294" style="mask-type:luminance" maskUnits="userSpaceOnUse" x="1" y="0" width="356" height="225">
  <path d="M340.052 0H17.9482C8.58795 0 1 7.58796 1 16.9482V207.548C1 216.908 8.58795 224.496 17.9482 224.496H340.052C349.412 224.496 357 216.908 357 207.548V16.9482C357 7.58796 349.412 0 340.052 0Z" fill="white"/>
  </mask>
  <g mask="url(#mask0_445_7294)">
  <path d="M398.505 -7.50305H221.593V232.2H398.505V-7.50305Z" fill="#F05523"/>
  <path d="M327.684 -0.860496V74.0733C327.684 75.7661 326.301 77.1453 324.608 77.1453H324.166C322.473 77.1453 321.094 75.7661 321.094 74.0733V-0.900696C323.293 -0.900696 325.489 -0.888643 327.688 -0.860496H327.684Z" fill="#7CCDC7"/>
  <path d="M322.67 59.6061C298.633 59.6061 279.147 80.2093 279.147 105.625H366.192C366.192 80.2093 346.707 59.6061 322.67 59.6061Z" fill="#F89D61"/>
  <path d="M326.135 60.165C324.885 59.8916 323.61 59.7468 322.312 59.7468C306.65 59.7468 293.956 80.2857 293.956 105.621H301.6C301.6 82.3806 312.279 63.1807 326.131 60.161L326.135 60.165Z" fill="#FDCEAD"/>
  <path d="M183.02 67.6359H95.2676V222.019H183.02V67.6359Z" fill="#ACACD6"/>
  <path d="M106.61 30.0604H-26.9326V107.254H106.61V30.0604Z" fill="#F05523"/>
  <path d="M183.024 -9.55371H-26.9326V67.6399H183.024V-9.55371Z" fill="#95C93D"/>
  <path d="M161.552 113.832C195.056 113.832 222.216 86.6703 222.216 53.1645C222.216 19.6587 195.056 -7.50305 161.552 -7.50305C128.049 -7.50305 100.889 19.6587 100.889 53.1645C100.889 86.6703 128.049 113.832 161.552 113.832Z" fill="#00B3AA"/>
  <path opacity="0.6" d="M260.309 -7.50305H171.415V67.6358H260.309V-7.50305Z" fill="#00B3AA"/>
  <path d="M260.314 -9.04706H183.12V146.02H260.314V-9.04706Z" fill="#00B3AA"/>
  <path d="M106.61 105.625H-26.9326V221.721H106.61V105.625Z" fill="#96D3E8"/>
  <path d="M260.314 144.829H183.12V222.023H260.314V144.829Z" fill="white" stroke="#221F1F" stroke-miterlimit="10"/>
  <path d="M161.552 32.4488L170.514 25.5811L173.727 36.4054L185.014 36.1159L181.254 46.7632L190.555 53.1645L181.254 59.5699L185.014 70.2132L173.727 69.9277L170.514 80.7521L161.552 73.8843L152.585 80.7521L149.372 69.9277L138.086 70.2132L141.845 59.5699L132.545 53.1645L141.845 46.7632L138.086 36.1159L149.372 36.4054L152.585 25.5811L161.552 32.4488Z" fill="#FBE200"/>
  <path d="M260.314 144.829H183.12V232.2H260.314V144.829Z" fill="#FBE200"/>
  <path d="M156.796 149.542C155.996 142.932 150.371 137.813 143.543 137.813C143.358 137.813 143.173 137.821 142.988 137.825C140.917 129.337 133.27 123.036 124.146 123.036C116.197 123.036 109.369 127.821 106.37 134.665C105.839 134.6 105.296 134.564 104.745 134.564C102.876 134.564 101.094 134.95 99.4779 135.646C97.0292 132.71 93.346 130.845 89.2246 130.845C82.6906 130.845 77.2583 135.537 76.1003 141.737C72.3648 142.513 69.4256 145.449 68.6415 149.18C65.0267 149.409 62.1396 152.437 62.1396 156.108V158.115C62.1396 161.934 65.2639 165.059 69.0838 165.059H154.54C158.36 165.059 161.484 161.934 161.484 158.115V156.108C161.484 153.08 159.518 150.491 156.8 149.546L156.796 149.542Z" fill="#C2E5F0"/>
  <path d="M202.932 109.795C202.413 105.513 198.766 102.196 194.343 102.196C194.223 102.196 194.102 102.2 193.982 102.204C192.639 96.7031 187.685 92.6218 181.77 92.6218C176.619 92.6218 172.192 95.722 170.25 100.157C169.904 100.117 169.554 100.093 169.197 100.093C167.986 100.093 166.832 100.342 165.783 100.792C164.195 98.8904 161.81 97.6801 159.136 97.6801C154.902 97.6801 151.38 100.72 150.632 104.737C148.211 105.239 146.306 107.141 145.799 109.558C143.455 109.707 141.585 111.669 141.585 114.045V115.344C141.585 117.817 143.612 119.843 146.084 119.843H201.46C203.933 119.843 205.96 117.817 205.96 115.344V114.045C205.96 112.083 204.685 110.406 202.924 109.795H202.932Z" fill="#C2E5F0"/>
  <path d="M0.269531 175.127H90.5593C95.6819 175.127 99.8757 171.275 99.8757 166.566V161.91C99.8757 157.202 95.6859 153.35 90.5593 153.35H0.269531V175.123V175.127Z" fill="#7CCDC7"/>
  <path d="M66.8351 149.55C61.825 149.55 59.0426 144.677 62.1548 141.371C67.3096 135.907 74.0929 131.58 81.8733 128.915C76.9437 126.196 71.2863 124.648 65.2871 124.648H49.6055C47.9649 124.648 46.626 125.991 46.626 127.628V161.259C46.626 162.899 47.969 164.238 49.6055 164.238H96.8834C98.524 164.238 99.8629 162.895 99.8629 161.259V159.224C99.8629 155.843 99.3683 152.57 98.4516 149.474C98.1098 149.518 97.764 149.55 97.4102 149.55H66.8351Z" fill="#00B3AA"/>
  <path d="M81.8739 128.919C74.0934 131.58 67.3101 135.911 62.1553 141.375C59.0391 144.681 61.8256 149.554 66.8357 149.554H97.4107C97.7646 149.554 98.1144 149.526 98.4522 149.478C95.8426 140.66 89.7911 133.285 81.8739 128.919Z" fill="#7CCDC7"/>
  <path d="M0.269322 166.86H48.7938V124.769H-20.2012L0.269322 166.86Z" fill="#00B3AA"/>
  <path d="M63.0118 155.014L28.5606 205.549H13.0117L62.8108 149.952L63.0118 155.014Z" fill="#7CCDC7"/>
  <path d="M62.8108 149.952L28.3596 203.724H13.0117L33.3294 149.952H62.8108Z" fill="#00B3AA"/>
  <path d="M55.1065 129.703H45.8866C44.8495 129.703 44.0088 130.543 44.0088 131.581V147.725C44.0088 148.762 44.8495 149.602 45.8866 149.602H55.1065C56.1436 149.602 56.9843 148.762 56.9843 147.725V131.581C56.9843 130.543 56.1436 129.703 55.1065 129.703Z" fill="#7CCDC7"/>
  <path d="M37.3868 129.703H28.1668C27.1298 129.703 26.2891 130.543 26.2891 131.581V147.725C26.2891 148.762 27.1298 149.602 28.1668 149.602H37.3868C38.4239 149.602 39.2646 148.762 39.2646 147.725V131.581C39.2646 130.543 38.4239 129.703 37.3868 129.703Z" fill="#7CCDC7"/>
  <path d="M18.9102 129.703H9.69027C8.6532 129.703 7.8125 130.543 7.8125 131.581V147.725C7.8125 148.762 8.6532 149.602 9.69027 149.602H18.9102C19.9473 149.602 20.788 148.762 20.788 147.725V131.581C20.788 130.543 19.9473 129.703 18.9102 129.703Z" fill="#7CCDC7"/>
  <mask id="mask1_445_7294" style="mask-type:luminance" maskUnits="userSpaceOnUse" x="70" y="-50" width="316" height="316">
  <path d="M385.224 -49.0994H70.9004V265.224H385.224V-49.0994Z" fill="white"/>
  </mask>
  <g mask="url(#mask1_445_7294)">
  <path d="M299.967 -17.5272L271.31 41.9944C271.31 41.9944 276.549 67.9253 264.201 83.3496C251.849 98.7738 252.251 83.2209 252.251 83.2209C252.251 83.2209 229.899 61.323 229.927 50.2936C229.939 46.6024 242.552 34.9096 245.439 28.7053C247.374 24.5436 265.982 -22.1714 265.982 -22.1714L299.967 -17.5272Z" fill="#F29F70"/>
  <path d="M250.965 89.586L263.977 74.4512C266.14 71.9341 265.85 68.0299 263.333 65.7781C260.744 63.4621 256.847 63.828 254.809 66.5783L242.887 82.6459C241.138 85.0062 241.628 88.432 243.985 90.2494C246.168 91.9342 249.196 91.6447 250.969 89.586H250.965Z" fill="#F29F70"/>
  <path d="M233.739 75.9872L248.255 56.9804C249.831 54.9176 252.637 54.3145 254.986 55.5369L255.468 55.7861C258.673 57.4508 259.622 61.6929 257.41 64.4593L242.412 83.2169C240.611 85.4686 237.37 85.8506 234.994 84.0894C232.408 82.1754 231.837 78.4842 233.743 75.9913L233.739 75.9872Z" fill="#F29F70"/>
  <path d="M229.179 74.2583C231.182 75.6415 233.839 75.2394 235.428 73.3093L245.536 61.0455C247.173 59.0592 247.157 56.0837 245.496 54.1537L244.668 53.1887C242.637 50.8203 239.071 51.0294 237.253 53.6229L227.973 66.8517C226.292 69.2482 226.843 72.6459 229.175 74.2583H229.179Z" fill="#F29F70"/>
  <path d="M225.411 65.2393C227.144 66.0475 229.155 65.6213 230.277 64.2019L238.431 53.9084C239.762 52.2277 239.412 49.7387 237.647 48.3153L236.533 47.4186C234.595 45.8585 231.793 46.2365 230.542 48.2268L223.502 59.4171C222.235 61.4315 223.136 64.1738 225.411 65.2393Z" fill="#F29F70"/>
  <path d="M242.372 62.9394C242.621 62.674 243.019 62.666 243.272 62.9233C243.53 63.1847 243.538 63.6189 243.293 63.8964C242.766 64.4915 236.855 71.898 233.803 75.73C233.57 76.0235 233.164 76.0597 232.894 75.8144C232.625 75.5691 232.593 75.1348 232.826 74.8413C233.188 74.387 241.68 63.7235 242.364 62.9515C242.364 62.9515 242.372 62.9434 242.376 62.9394H242.372Z" fill="#010101"/>
  <path d="M250.61 70.1207C250.86 69.8554 251.258 69.8473 251.511 70.1046C251.768 70.366 251.776 70.8043 251.527 71.0817C250.94 71.7412 244.281 80.4384 240.844 84.9459C240.618 85.2394 240.212 85.2876 239.935 85.0504C239.657 84.8132 239.621 84.3789 239.846 84.0814C240.252 83.5466 249.826 70.9973 250.594 70.1368C250.594 70.1368 250.602 70.1288 250.606 70.1248L250.61 70.1207Z" fill="#010101"/>
  <path d="M235.556 55.2996C235.81 55.0302 236.216 55.0262 236.469 55.2916C236.722 55.561 236.718 55.9952 236.469 56.2687C235.765 57.0286 230.904 63.4822 228.435 66.7874C228.214 67.0849 227.804 67.1372 227.527 66.9C227.249 66.6627 227.205 66.2285 227.43 65.9309C227.724 65.5369 234.627 56.3008 235.56 55.2996H235.556Z" fill="#010101"/>
  <path d="M264.096 73.2731C264.539 72.7986 265.09 72.5735 265.375 72.7625C265.681 72.9675 265.56 73.5787 265.106 74.1296L253.871 87.7042C253.421 88.251 252.802 88.5325 252.496 88.3274C252.19 88.1224 252.311 87.5112 252.765 86.9603L264 73.3857C264.032 73.3455 264.064 73.3093 264.1 73.2731H264.096Z" fill="#010101"/>
  <path d="M272.014 47.0568C272.014 47.0568 292.432 53.6591 308.95 24.222C325.468 -5.21513 384.045 -92.9516 394.821 -137.178C402.802 -169.928 394.672 -192.079 371.648 -198.231C344.849 -205.393 328.476 -178.038 301.459 -127.539C270.663 -69.976 256.541 -35.7902 246.931 -15.7982C228.576 22.4005 241.965 33.9486 241.965 33.9486L272.01 47.0528L272.014 47.0568Z" fill="#804D9E"/>
  <path d="M215.194 244.922L131.724 211.641C127.103 209.799 124.936 204.492 126.943 199.944L179.685 80.342C181.591 76.0155 186.581 73.9769 190.972 75.73L265.717 105.529C270.107 107.278 272.323 112.192 270.731 116.643L226.714 239.727C225.041 244.408 219.814 246.768 215.194 244.926V244.922Z" fill="#804D9E"/>
  <path d="M207.005 94.9893C208.277 94.6313 209.017 93.31 208.659 92.0381C208.301 90.7662 206.98 90.0254 205.708 90.3834C204.436 90.7413 203.695 92.0626 204.053 93.3345C204.411 94.6064 205.733 95.3473 207.005 94.9893Z" fill="#010101"/>
  <path d="M241.78 107.455C241.844 108.774 242.97 109.791 244.289 109.723C245.608 109.658 246.625 108.533 246.556 107.214C246.492 105.895 245.366 104.878 244.047 104.946C242.729 105.01 241.711 106.136 241.78 107.455Z" fill="#010101"/>
  <path d="M206.335 93.7879C206.175 93.7879 206.014 93.7517 205.861 93.6753C205.326 93.41 205.109 92.7666 205.37 92.2359L223.143 56.1723C223.404 55.6375 224.044 55.4163 224.586 55.6817C225.117 55.9471 225.338 56.5904 225.077 57.1212L207.304 93.1848C207.115 93.5668 206.737 93.7879 206.339 93.7879H206.335Z" fill="#010101"/>
  <path d="M244.164 108.408C243.983 108.408 243.802 108.364 243.637 108.267C243.119 107.974 242.938 107.318 243.231 106.8L258.499 79.779C258.796 79.2603 259.448 79.0834 259.966 79.3729C260.485 79.6665 260.666 80.3219 260.373 80.8406L245.105 107.861C244.904 108.211 244.542 108.408 244.164 108.408Z" fill="#010101"/>
  <path d="M202.785 225.167L130.151 174.134C126.778 171.765 126.601 166.245 129.765 162.264L187.51 89.7227C190.248 86.2808 194.546 85.2233 197.465 87.274L257.498 129.453C260.413 131.504 261.004 135.995 258.865 139.855L213.722 221.251C211.245 225.714 206.159 227.536 202.789 225.167H202.785Z" fill="#FBE200"/>
  <path d="M196.983 105.79C196.906 106.896 197.718 107.853 198.796 107.929C199.874 108.002 200.81 107.165 200.883 106.06C200.955 104.954 200.147 103.997 199.069 103.921C197.992 103.848 197.055 104.685 196.983 105.79Z" fill="#010101"/>
  <path d="M238.274 132.61C238.197 133.716 239.009 134.673 240.087 134.749C241.165 134.821 242.101 133.985 242.178 132.879C242.254 131.773 241.442 130.816 240.364 130.74C239.287 130.668 238.35 131.504 238.274 132.61Z" fill="#010101"/>
  <path d="M198.933 107.001C198.768 107.001 198.599 106.964 198.446 106.884C197.916 106.615 197.707 105.963 197.976 105.436L223.155 56.1561C223.424 55.6293 224.076 55.4162 224.602 55.6856C225.133 55.955 225.342 56.6064 225.073 57.1332L199.898 106.414C199.709 106.787 199.331 107.001 198.937 107.001H198.933Z" fill="#010101"/>
  <path d="M240.224 133.816C240.099 133.816 239.975 133.796 239.854 133.752C239.295 133.547 239.01 132.927 239.215 132.369L258.423 79.9398C258.628 79.3809 259.251 79.0914 259.802 79.3005C260.361 79.5055 260.646 80.1248 260.441 80.6797L241.233 133.108C241.073 133.547 240.662 133.816 240.224 133.816Z" fill="#010101"/>
  </g>
  <path d="M125.738 148.263H197.089L231.714 182.316V221.617H125.738V148.263Z" fill="#F05523"/>
  <path d="M202.372 177.073H105.388V232.2H202.372V177.073Z" fill="#F05523"/>
  <path d="M132.674 232.305V209.538C132.674 205.722 129.554 202.602 125.738 202.602C121.922 202.602 118.802 205.722 118.802 209.538V232.305H132.674Z" fill="#96D3E8"/>
  <path d="M27.0079 32.8026L21.9696 74.4875C21.0247 82.3162 27.1325 89.208 35.0215 89.208H79.9714L101.21 32.8026H27.0119H27.0079Z" fill="#F05523"/>
  <path d="M42.6208 36.9924C42.6409 36.7311 44.9047 10.6835 60.5139 11.1741C76.3643 11.6526 80.4496 34.801 80.4898 35.0342L83.5899 34.5115C83.5457 34.2502 82.4721 28.0378 79.1951 21.6647C74.7238 12.9795 68.2984 8.26295 60.6064 8.02973C52.7736 7.79652 46.6578 12.7825 42.846 22.4648C40.0796 29.4854 39.5046 36.4536 39.4805 36.7471L42.6168 36.9964L42.6208 36.9924Z" fill="#F05523"/>
  <path d="M101.205 32.8026H32.7734L42.6126 76.0074C44.3698 83.7275 51.2375 89.208 59.1587 89.208H100.755C109.81 89.208 116.252 80.4143 113.526 71.7774L101.205 32.7986V32.8026Z" fill="#F89D61"/>
  <path d="M48.0731 36.9924C48.0932 36.7311 50.3569 10.6835 65.9662 11.1741C81.8166 11.6526 85.9059 34.801 85.9421 35.0342L89.0422 34.5115C88.998 34.2502 87.9244 28.0378 84.6473 21.6647C80.1761 12.9795 73.7507 8.26295 66.0586 8.02973C58.2259 7.79652 52.1101 12.7825 48.2942 22.4648C45.5278 29.4854 44.9528 36.4536 44.9287 36.7471L48.065 36.9964L48.0731 36.9924Z" fill="#F89D61"/>
  <path d="M309.852 197.849H336.229C351.436 197.849 363.768 185.521 363.768 170.31H282.316C282.316 185.517 294.645 197.849 309.856 197.849H309.852Z" fill="#FBE200"/>
  <g style="mix-blend-mode:multiply" opacity="0.5">
  <path d="M353.234 170.31H363.768C363.768 185.517 351.44 197.849 336.229 197.849H325.694C340.901 197.849 353.234 185.521 353.234 170.31Z" fill="#FBE200"/>
  </g>
  <path d="M310.721 215.24H337.098C352.305 215.24 364.637 202.912 364.637 187.7H283.186C283.186 202.908 295.514 215.24 310.725 215.24H310.721Z" fill="#F89D61"/>
  <path opacity="0.89" d="M352.494 187.7H363.029C363.029 202.908 350.701 215.24 335.49 215.24H324.955C340.162 215.24 352.494 202.912 352.494 187.7Z" fill="#F05523"/>
  <path d="M309.852 229.007H336.229C351.436 229.007 363.768 216.679 363.768 201.468H282.316C282.316 216.675 294.645 229.007 309.856 229.007H309.852Z" fill="#FDCEAD"/>
  <g style="mix-blend-mode:multiply" opacity="0.5">
  <path d="M353.234 201.468H363.768C363.768 216.675 351.44 229.007 336.229 229.007H325.694C340.901 229.007 353.234 216.679 353.234 201.468Z" fill="#F89D61"/>
  </g>
  <path d="M148.801 162.59H138.846V177.596H148.801V162.59Z" fill="#96D3E8"/>
  <path d="M166.502 162.59H156.546V177.596H166.502V162.59Z" fill="#96D3E8"/>
  <path d="M184.198 162.59H174.242V177.596H184.198V162.59Z" fill="#96D3E8"/>
  <path d="M125.738 196.16C128.427 196.16 130.607 193.98 130.607 191.291C130.607 188.602 128.427 186.422 125.738 186.422C123.048 186.422 120.868 188.602 120.868 191.291C120.868 193.98 123.048 196.16 125.738 196.16Z" fill="#F89D61"/>
  <path d="M64.4222 59.3729C63.039 53.3536 66.7986 48.4762 72.8139 48.4762C78.8292 48.4762 84.8324 53.3576 86.2156 59.3729C87.5988 65.3922 83.8392 70.2696 77.8239 70.2696C71.8086 70.2696 65.8054 65.3922 64.4222 59.3729Z" fill="#F05523"/>
  <path d="M12.2472 216.848C3.11565 216.848 -5.77058 215.787 -14.2949 213.788V245.682H105.721V169.522L105.641 177.077C84.5634 205.774 50.5826 216.852 12.2472 216.852V216.848Z" fill="#95C93D"/>
  <path d="M231.649 161.034H213.144V174.709H197.085V187.664H180.161V203.869H162.638V232.2H231.649V161.034Z" fill="#F89D61"/>
  </g>
  <path d="M0.651367 16C0.651367 7.16344 7.81481 0 16.6514 0H341.451C350.288 0 357.451 7.16344 357.451 16V209C357.451 217.837 350.288 225 341.451 225H16.6514C7.81482 225 0.651367 217.837 0.651367 209V16Z" fill="url(#paint0_linear_445_7294)"/>
  <defs>
  <linearGradient id="paint0_linear_445_7294" x1="179.051" y1="225" x2="179.051" y2="101.128" gradientUnits="userSpaceOnUse">
  <stop stop-opacity="0.6"/>
  <stop offset="1" stop-opacity="0.1"/>
  </linearGradient>
  </defs>
  </svg>
  