<svg width="100" height="22" viewBox="0 0 100 22" fill="none" xmlns="http://www.w3.org/2000/svg">
    <path d="M58.4962 16.463V21.8135C57.0717 21.8172 55.6604 21.5399 54.3433 20.9973C53.0262 20.4547 51.8292 19.6575 50.8207 18.6514C49.8123 17.6453 49.0123 16.4501 48.4666 15.1342C47.9209 13.8184 47.6403 12.4078 47.6408 10.9833L47.6362 1.1647C47.636 1.01482 47.6654 0.866362 47.7226 0.72784C47.7799 0.589319 47.8639 0.46345 47.9699 0.357441C48.0758 0.251432 48.2017 0.167364 48.3402 0.110051C48.4787 0.0527377 48.6271 0.0233051 48.777 0.0234379H51.8439C51.9938 0.0233052 52.1423 0.0527342 52.2808 0.110041C52.4193 0.167348 52.5452 0.251408 52.6512 0.35741C52.7572 0.463413 52.8413 0.589278 52.8986 0.727802C52.9559 0.866327 52.9853 1.01479 52.9852 1.1647L52.9892 10.9571C52.9861 10.9602 52.9838 10.9641 52.9824 10.9682C52.981 10.9724 52.9806 10.9769 52.9811 10.9813C52.9817 11.7037 53.1249 12.419 53.4027 13.0859C53.6805 13.7528 54.0873 14.3583 54.5997 14.8675C55.1122 15.3768 55.7202 15.7797 56.3889 16.0533C57.0576 16.3268 57.7737 16.4655 58.4962 16.4615" fill="white"/>
    <path d="M45.2223 10.5727C45.1574 8.43117 44.463 6.35619 43.2258 4.60697C41.9886 2.85776 40.2634 1.51183 38.2658 0.737316C36.2681 -0.0371993 34.0866 -0.205973 31.9936 0.252077C29.9006 0.710126 27.9889 1.77469 26.4974 3.31281C25.0059 4.85092 24.0006 6.7944 23.6071 8.9005C23.2136 11.0066 23.4494 13.1819 24.2849 15.1548C25.1205 17.1277 26.5188 18.8107 28.3053 19.9935C30.0917 21.1764 32.187 21.8067 34.3296 21.8057C36.015 21.7753 37.6265 21.108 38.8401 19.9381C38.9256 19.859 39.0324 19.8066 39.1472 19.7876C39.2621 19.7685 39.3801 19.7834 39.4865 19.8306C39.593 19.8778 39.6833 19.9552 39.7463 20.0531C39.8093 20.151 39.8422 20.2653 39.841 20.3817L39.833 21.8107H45.2223V10.5727ZM34.3114 16.4229C33.226 16.4103 32.1687 16.0769 31.2724 15.4647C30.3761 14.8525 29.6809 13.9888 29.2742 12.9825C28.8676 11.9761 28.7678 10.8719 28.9873 9.80888C29.2067 8.74588 29.7357 7.77154 30.5077 7.00849C31.2796 6.24543 32.26 5.72776 33.3255 5.52061C34.391 5.31346 35.4939 5.4261 36.4955 5.84434C37.4971 6.26258 38.3526 6.96775 38.9544 7.87109C39.5562 8.77443 39.8773 9.83558 39.8774 10.921C39.8683 12.3885 39.2769 13.7924 38.2332 14.8241C37.1895 15.8557 35.7789 16.4308 34.3114 16.4229Z" fill="white"/>
    <path d="M18.0405 0.790808L12.5229 15.762C12.2645 16.5035 11.5967 16.5378 11.3115 15.8059L5.47901 0.760522C5.39578 0.545638 5.25008 0.360624 5.06068 0.229355C4.87129 0.0980849 4.64691 0.0265833 4.41648 0.0240763H1.13403C0.949027 0.0243025 0.766854 0.0694782 0.603185 0.155715C0.439516 0.241953 0.299253 0.366668 0.194467 0.51913C0.0896807 0.671591 0.0235106 0.84723 0.00165119 1.03093C-0.0202083 1.21464 0.00289768 1.4009 0.0689804 1.57369L7.79889 21.8146H16.0744L23.5853 1.55905C23.6499 1.38645 23.6718 1.20074 23.6489 1.01785C23.626 0.834961 23.5591 0.660346 23.454 0.508977C23.3488 0.357609 23.2085 0.234003 23.0451 0.148757C22.8817 0.0635115 22.7 0.0191697 22.5157 0.0195335L19.1151 0.0255906C18.8788 0.0260725 18.6486 0.0999705 18.4561 0.237061C18.2637 0.374151 18.1181 0.567657 18.0405 0.790808Z" fill="white"/>
    <path d="M82.6075 1.1647L82.6111 11.0166C82.6111 13.8967 81.467 16.6589 79.4304 18.6954C77.3939 20.7319 74.6317 21.876 71.7516 21.876C68.8715 21.876 66.1094 20.7319 64.0729 18.6954C62.0363 16.6589 60.8922 13.8967 60.8922 11.0166L60.8882 1.1647C60.888 1.01473 60.9174 0.866195 60.9747 0.727608C61.032 0.58902 61.1161 0.463107 61.2222 0.357084C61.3283 0.251062 61.4542 0.167015 61.5928 0.109762C61.7314 0.0525081 61.88 0.0231735 62.03 0.0234393H65.0969C65.2468 0.0232398 65.3953 0.052627 65.5338 0.109916C65.6723 0.167206 65.7982 0.251271 65.9042 0.357294C66.0101 0.463316 66.0941 0.589211 66.1514 0.727763C66.2086 0.866315 66.2379 1.0148 66.2377 1.1647L66.2412 10.9843C66.2412 10.9924 66.2331 11.0005 66.2331 11.0166C66.247 12.4712 66.8346 13.8614 67.868 14.885C68.9015 15.9087 70.2973 16.4829 71.7519 16.4829C73.2065 16.4829 74.6023 15.9087 75.6358 14.885C76.6692 13.8614 77.2568 12.4712 77.2707 11.0166C77.2707 11.0005 77.2626 10.9924 77.2626 10.9843L77.2591 1.1647C77.26 0.862395 77.3805 0.572727 77.5942 0.358915C77.8079 0.145102 78.0976 0.0245042 78.3999 0.0234393H81.4668C81.6167 0.0233064 81.7651 0.052739 81.9036 0.110052C82.0421 0.167365 82.1679 0.251433 82.2739 0.357442C82.3799 0.463451 82.4639 0.58932 82.5211 0.727842C82.5784 0.866363 82.6077 1.01482 82.6075 1.1647Z" fill="white"/>
    <path d="M96.1688 13.2612L97.298 12.4768C97.367 12.4288 97.426 12.3677 97.4714 12.2969C97.5168 12.2261 97.5479 12.147 97.5627 12.0643C97.5776 11.9815 97.576 11.8966 97.558 11.8144C97.54 11.7322 97.506 11.6544 97.458 11.5854L95.549 8.83999C95.4977 8.76639 95.4676 8.68012 95.462 8.5906C95.4563 8.50107 95.4754 8.41172 95.517 8.33228C95.5587 8.25283 95.6213 8.18634 95.6982 8.14004C95.775 8.09375 95.8631 8.06943 95.9528 8.06973H99.2968C99.3808 8.06979 99.464 8.0533 99.5416 8.02118C99.6192 7.98906 99.6898 7.94196 99.7492 7.88256C99.8086 7.82316 99.8557 7.75263 99.8878 7.67501C99.9199 7.59739 99.9364 7.5142 99.9363 7.43019V6.05422C99.9363 5.8846 99.869 5.72193 99.749 5.602C99.6291 5.48206 99.4664 5.41468 99.2968 5.41468H95.9528C95.8631 5.41492 95.7752 5.39058 95.6984 5.34431C95.6217 5.29804 95.5591 5.23161 95.5175 5.15225C95.4758 5.07289 95.4567 4.98363 95.4623 4.89418C95.4679 4.80474 95.4978 4.71852 95.549 4.64492L97.458 1.90054C97.506 1.83156 97.54 1.75378 97.558 1.67165C97.5759 1.58952 97.5775 1.50466 97.5627 1.42191C97.5478 1.33916 97.5168 1.26016 97.4714 1.18942C97.4259 1.11867 97.367 1.05758 97.298 1.00964L96.1688 0.223219C96.0996 0.175363 96.0216 0.141618 95.9393 0.123911C95.8571 0.106205 95.7721 0.104884 95.6893 0.120025C95.6065 0.135166 95.5276 0.166472 95.4569 0.212153C95.3862 0.257834 95.3252 0.316996 95.2774 0.386256L92.4765 4.41778L89.6766 0.386256C89.6288 0.316943 89.5679 0.257731 89.4972 0.212012C89.4265 0.166292 89.3475 0.134963 89.2647 0.119819C89.1819 0.104675 89.0969 0.106012 89.0146 0.123755C88.9323 0.141498 88.8544 0.175298 88.7852 0.223219L87.656 1.00762C87.5866 1.05553 87.5274 1.1167 87.4818 1.18759C87.4361 1.25848 87.4049 1.3377 87.39 1.42069C87.3751 1.50368 87.3767 1.5888 87.3948 1.67115C87.4129 1.7535 87.4472 1.83146 87.4955 1.90054L89.403 4.64644C89.4541 4.72004 89.4841 4.80625 89.4897 4.8957C89.4952 4.98514 89.4761 5.0744 89.4345 5.15376C89.3929 5.23313 89.3303 5.29955 89.2535 5.34582C89.1768 5.39209 89.0888 5.41643 88.9992 5.4162H85.6556C85.486 5.4162 85.3234 5.48358 85.2034 5.60351C85.0835 5.72345 85.0161 5.88612 85.0161 6.05573V7.43221C85.0161 7.60183 85.0835 7.76449 85.2034 7.88443C85.3234 8.00437 85.486 8.07174 85.6556 8.07174H88.9997C89.0894 8.07144 89.1775 8.09577 89.2543 8.14206C89.3311 8.18836 89.3938 8.25485 89.4354 8.3343C89.4771 8.41374 89.4961 8.50309 89.4905 8.59262C89.4849 8.68214 89.4548 8.76841 89.4035 8.84201L87.496 11.5874C87.448 11.6565 87.414 11.7344 87.3962 11.8166C87.3783 11.8988 87.3767 11.9837 87.3917 12.0665C87.4067 12.1493 87.4378 12.2283 87.4833 12.2991C87.5288 12.3698 87.5879 12.4309 87.657 12.4788L88.7862 13.2632C88.8552 13.3112 88.933 13.3452 89.0151 13.3631C89.0973 13.3811 89.1822 13.3826 89.2649 13.3677C89.3477 13.3528 89.4267 13.3217 89.4974 13.2762C89.5681 13.2308 89.6292 13.1718 89.6771 13.1027L92.477 9.07168L95.2779 13.1027C95.3259 13.1718 95.387 13.2308 95.4577 13.2763C95.5285 13.3218 95.6075 13.3528 95.6903 13.3677C95.7731 13.3826 95.858 13.3811 95.9402 13.3632C96.0224 13.3452 96.1003 13.3113 96.1693 13.2632" fill="white"/>
    </svg>
    