<svg width="205" height="154" viewBox="0 0 205 154" fill="none" xmlns="http://www.w3.org/2000/svg">
    <g clip-path="url(#clip0_478_5532)">
    <path fill-rule="evenodd" clip-rule="evenodd" d="M83.0044 68.7373L159.308 83.9825L156.988 95.5954L80.6842 80.3502L83.0044 68.7373ZM188.325 89.78L164.425 85.0047L162.105 96.6177L186.005 101.393L188.325 89.78Z" fill="#FEFEFE"/>
    <mask id="mask0_478_5532" style="mask-type:luminance" maskUnits="userSpaceOnUse" x="1" y="2" width="200" height="149">
    <path d="M193.338 34.9581L31.0796 2.53951C26.3644 1.59744 21.7655 4.71992 20.8078 9.51377L1.30455 107.13C0.346766 111.923 3.39273 116.573 8.1079 117.515L170.366 149.934C175.082 150.876 179.68 147.753 180.638 142.96L200.141 45.3439C201.099 40.55 198.053 35.9001 193.338 34.9581Z" fill="white"/>
    </mask>
    <g mask="url(#mask0_478_5532)">
    <path d="M223.551 36.9984L134.432 19.1929L109.904 141.957L199.023 159.763L223.551 36.9984Z" fill="#FF5100"/>
    <path d="M187.195 33.2762L179.527 71.6536C179.354 72.5206 178.516 73.0877 177.663 72.9173L177.44 72.8728C176.588 72.7024 176.034 71.8573 176.207 70.9903L183.879 32.5923C184.987 32.8137 186.092 33.0408 187.197 33.2766L187.195 33.2762Z" fill="#6FDDD0"/>
    <path d="M178.481 63.7397C166.372 61.3205 154.448 69.9113 151.848 82.9283L195.696 91.689C198.297 78.6721 190.589 66.159 178.481 63.7397Z" fill="#FF9D5F"/>
    <path d="M180.17 64.3716C179.568 64.1057 178.941 63.9033 178.287 63.7726C170.398 62.1963 161.901 71.4377 159.309 84.4134L163.159 85.1828C165.537 73.2799 172.882 64.5215 180.169 64.3691L180.17 64.3716Z" fill="#FFCEAC"/>
    <path d="M107.312 53.7927L63.1074 44.9607L47.3101 124.028L91.5151 132.86L107.312 53.7927Z" fill="#ACABD5"/>
    <path d="M72.6657 26.8622L5.39404 13.4216L-2.50484 52.9564L64.7668 66.397L72.6657 26.8622Z" fill="#FF5100"/>
    <path d="M115.212 14.2656L9.44727 -6.86572L1.54839 32.6691L107.313 53.8004L115.212 14.2656Z" fill="#93D500"/>
    <path d="M91.7703 75.292C108.648 78.664 125.109 67.4866 128.537 50.3265C131.966 33.1665 121.063 16.522 104.186 13.15C87.3087 9.77799 70.8476 20.9554 67.4191 38.1154C63.9906 55.2754 74.893 71.9199 91.7703 75.292Z" fill="#00C4B3"/>
    <path opacity="0.6" d="M153.936 23.0897L109.155 14.1428L101.467 52.6253L146.247 61.5722L153.936 23.0897Z" fill="#00C4B3"/>
    <path d="M154.096 22.2995L115.21 14.5303L99.3427 93.9478L138.229 101.717L154.096 22.2995Z" fill="#00C4B3"/>
    <path d="M64.9337 65.5612L-2.33789 52.1206L-14.2175 111.579L53.0541 125.02L64.9337 65.5612Z" fill="#95D4E9"/>
    <path d="M138.35 101.107L99.4639 93.3381L91.565 132.873L130.451 140.642L138.35 101.107Z" fill="white"/>
    <path d="M100.098 33.6138L105.315 30.9985L105.826 36.8655L111.542 37.8532L108.558 42.9279L112.588 47.1424L107.248 49.4868L108.052 55.3162L102.396 54.034L99.6701 59.2544L95.8579 54.835L90.6383 57.4499L90.1275 51.5828L84.4126 50.5931L87.3956 45.5205L83.366 41.3039L88.706 38.9615L87.9017 33.1301L93.5577 34.4143L96.2837 29.194L100.098 33.6138Z" fill="#FCE200"/>
    <path d="M138.35 101.107L99.4639 93.3381L90.5236 138.085L129.41 145.854L138.35 101.107Z" fill="#FCE200"/>
    <path d="M85.7191 93.1035C85.9924 89.6375 83.6825 86.4498 80.2432 85.7627C80.15 85.744 80.056 85.7296 79.9624 85.713C79.7878 81.1574 76.58 77.1607 71.9841 76.2424C67.9796 75.4424 64.0507 77.2058 61.8394 80.4088C61.5786 80.3225 61.3089 80.2493 61.0314 80.1939C60.0895 80.0057 59.1527 80.0241 58.2672 80.2177C57.3341 78.4679 55.6696 77.1417 53.5934 76.7269C50.302 76.0693 47.0853 77.9258 45.8675 80.9847C43.9064 81.0062 42.1254 82.2136 41.3486 84.0458C39.5042 83.7993 37.7401 85.0595 37.3644 86.9396L37.1591 87.9672C36.7682 89.9236 38.0224 91.8381 39.9466 92.2225L82.995 100.823C84.9193 101.208 86.8128 99.9222 87.2037 97.9659L87.409 96.9383C87.7188 95.3876 86.9933 93.8635 85.7207 93.106L85.7191 93.1035Z" fill="#C1E5F1"/>
    <path d="M113.028 77.3882C113.205 75.1428 111.707 73.0768 109.479 72.6316C109.418 72.6195 109.357 72.6094 109.296 72.5993C109.182 69.647 107.104 67.0582 104.125 66.4629C101.53 65.9445 98.9829 67.0867 97.5507 69.1627C97.3807 69.1073 97.2069 69.0597 97.0266 69.0237C96.4169 68.9019 95.8101 68.9134 95.2354 69.0384C94.6299 67.9045 93.5526 67.0447 92.2056 66.7756C90.0728 66.3494 87.9874 67.5517 87.1996 69.5337C85.9288 69.5475 84.7741 70.3298 84.2716 71.5164C83.0755 71.3567 81.9328 72.1734 81.6897 73.3905L81.5568 74.0557C81.3037 75.3221 82.1172 76.564 83.3629 76.8129L111.258 82.3863C112.504 82.6352 113.732 81.8012 113.985 80.5348L114.118 79.8696C114.319 78.8647 113.849 77.8776 113.024 77.3874L113.028 77.3882Z" fill="#C1E5F1"/>
    <path d="M4.25209 90.4504L49.7352 99.5377C52.3157 100.053 54.8225 98.5025 55.3043 96.0911L55.7807 93.7064C56.2625 91.2949 54.5461 88.9004 51.9636 88.3844L6.48047 79.2971L4.25251 90.4483L4.25209 90.4504Z" fill="#6FDDD0"/>
    <path d="M40.4027 84.0495C37.8789 83.5453 36.9759 80.7694 38.8819 79.3898C42.0377 77.11 45.8975 75.5769 50.0897 74.9947C47.8845 73.1064 45.193 71.7442 42.171 71.1404L34.2714 69.5621C33.445 69.397 32.6331 69.95 32.4656 70.7882L29.0243 88.0123C28.8565 88.8525 29.396 89.6734 30.2204 89.8381L54.0364 94.5965C54.8628 94.7616 55.6748 94.2085 55.8422 93.3704L56.0504 92.3284C56.3964 90.5965 56.4822 88.8704 56.3372 87.1925C56.1605 87.1808 55.983 87.1624 55.8048 87.1268L40.4027 84.0495Z" fill="#00C4B3"/>
    <path d="M50.089 74.9948C45.8972 75.575 42.037 77.1101 38.8812 79.3899C36.9732 80.7691 37.8782 83.5454 40.402 84.0497L55.8041 87.1269C55.9823 87.1625 56.1614 87.1833 56.3365 87.1926C55.9242 82.4139 53.6304 78.028 50.089 74.9948Z" fill="#6FDDD0"/>
    <path d="M5.09821 86.2181L29.5422 91.1019L33.8492 69.5449L-0.906738 62.6008L5.09821 86.2181Z" fill="#00C4B3"/>
    <path d="M37.9169 86.4656L15.3912 108.88L7.55854 107.315L38.3336 83.8527L37.9169 86.4656Z" fill="#6FDDD0"/>
    <path d="M38.3336 83.8527L15.4768 107.925L7.74534 106.38L23.4825 80.8855L38.3336 83.8527Z" fill="#00C4B3"/>
    <path d="M36.5235 72.708L31.879 71.7801C31.3566 71.6757 30.8471 72.0216 30.741 72.5528L29.089 80.8209C28.9829 81.3521 29.3204 81.8672 29.8428 81.9716L34.4873 82.8996C35.0097 83.0039 35.5193 82.658 35.6254 82.1269L37.2773 73.8587C37.3834 73.3276 37.046 72.8124 36.5235 72.708Z" fill="#6FDDD0"/>
    <path d="M27.5973 70.9248L22.9528 69.9969C22.4303 69.8925 21.9208 70.2384 21.8147 70.7696L20.1627 79.0377C20.0566 79.5689 20.3941 80.084 20.9165 80.1884L25.561 81.1164C26.0835 81.2207 26.593 80.8748 26.6991 80.3437L28.3511 72.0755C28.4572 71.5444 28.1197 71.0292 27.5973 70.9248Z" fill="#6FDDD0"/>
    <path d="M18.2901 69.0652L13.6456 68.1372C13.1232 68.0329 12.6137 68.3788 12.5076 68.9099L10.8556 77.1781C10.7495 77.7092 11.087 78.2244 11.6094 78.3288L16.2539 79.2567C16.7763 79.3611 17.2859 79.0152 17.392 78.484L19.0439 70.2159C19.15 69.6847 18.8126 69.1696 18.2901 69.0652Z" fill="#6FDDD0"/>
    <mask id="mask1_478_5532" style="mask-type:luminance" maskUnits="userSpaceOnUse" x="30" y="-18" width="192" height="194">
    <path d="M221.115 14.364L62.7764 -17.2715L30.6131 143.709L188.952 175.345L221.115 14.364Z" fill="white"/>
    </mask>
    <g mask="url(#mask1_478_5532)">
    <path d="M174.938 21.9547L154.412 49.5545C154.412 49.5545 154.398 63.3624 146.599 70.0191C138.798 76.6754 140.592 68.7505 140.592 68.7505C140.592 68.7505 131.573 55.2858 132.716 49.6399C133.1 47.7506 140.65 43.0317 142.739 40.1447C144.139 38.208 158.294 16.1557 158.294 16.1557L174.938 21.9547Z" fill="#F29E70"/>
    <path d="M139.295 71.8775L147.398 65.4359C148.745 64.3644 148.999 62.3357 147.961 60.9292C146.894 59.4824 144.894 59.2776 143.585 60.481L135.935 67.5101C134.813 68.5429 134.709 70.3468 135.71 71.5148C136.638 72.5974 138.193 72.7539 139.297 71.878L139.295 71.8775Z" fill="#F29E70"/>
    <path d="M132.006 63.1833L141.263 54.9098C142.268 54.012 143.744 53.9856 144.802 54.848L145.019 55.0242C146.463 56.1993 146.507 58.4674 145.11 59.6616L135.636 67.7588C134.498 68.7308 132.826 68.6002 131.809 67.459C130.703 66.2186 130.793 64.2707 132.008 63.1857L132.006 63.1833Z" fill="#F29E70"/>
    <path d="M129.887 61.8393C130.754 62.7492 132.134 62.8108 133.131 61.9821L139.478 56.7186C140.506 55.866 140.802 54.3405 140.163 53.1849L139.845 52.6073C139.064 51.19 137.246 50.9381 136.065 52.0835L130.037 57.9246C128.945 58.9828 128.875 60.7783 129.885 61.8389L129.887 61.8393Z" fill="#F29E70"/>
    <path d="M128.913 56.839C129.703 57.4274 130.76 57.4114 131.47 56.7974L136.631 52.3463C137.473 51.6194 137.552 50.3095 136.808 49.4028L136.339 48.8315C135.522 47.8374 134.072 47.749 133.238 48.6425L128.547 53.6649C127.702 54.5692 127.876 56.0643 128.913 56.839Z" fill="#F29E70"/>
    <path d="M137.691 57.3711C137.843 57.2602 138.045 57.2962 138.146 57.4535C138.249 57.6132 138.208 57.8364 138.057 57.9538C137.73 58.2056 133.995 61.404 132.065 63.0594C131.918 63.1862 131.71 63.1639 131.599 63.0111C131.488 62.8584 131.517 62.6328 131.664 62.5059C131.893 62.3096 137.262 57.703 137.685 57.3764C137.685 57.3764 137.69 57.3731 137.693 57.3715L137.691 57.3711Z" fill="black"/>
    <path d="M141.106 61.8756C141.259 61.7648 141.461 61.8007 141.562 61.958C141.665 62.1177 141.624 62.343 141.47 62.46C141.107 62.7387 136.862 66.5228 134.669 68.4853C134.526 68.613 134.316 68.5968 134.201 68.4474C134.085 68.298 134.112 68.0719 134.256 67.9422C134.515 67.7092 140.622 62.2456 141.097 61.8822C141.097 61.8822 141.102 61.8789 141.104 61.8772L141.106 61.8756Z" fill="black"/>
    <path d="M135.039 52.7714C135.194 52.6589 135.399 52.6977 135.5 52.8591C135.6 53.0226 135.553 53.2446 135.4 53.3595C134.968 53.6779 131.858 56.4939 130.276 57.9381C130.135 58.0683 129.923 58.0538 129.807 57.9043C129.692 57.7549 129.714 57.5281 129.858 57.3983C130.046 57.2261 134.469 53.1907 135.041 52.7718L135.039 52.7714Z" fill="black"/>
    <path d="M147.578 64.8472C147.849 64.6487 148.15 64.5888 148.274 64.7144C148.407 64.8501 148.284 65.151 147.999 65.3874L140.951 71.209C140.668 71.4437 140.327 71.5255 140.194 71.3898C140.061 71.254 140.184 70.9531 140.47 70.7167L147.518 64.8952C147.538 64.8778 147.558 64.8625 147.58 64.8476L147.578 64.8472Z" fill="black"/>
    <path d="M154.249 52.2152C154.249 52.2152 163.859 57.6516 175.192 44.2378C186.525 30.824 225.01 -8.21473 234.964 -29.7806C242.336 -45.7504 240.507 -57.9135 229.538 -63.3815C216.771 -69.7464 205.724 -57.3848 186.947 -34.2409C165.544 -7.85925 154.932 8.22779 148.045 17.4995C134.89 35.2156 140.453 42.4776 140.453 42.4776L154.247 52.2128L154.249 52.2152Z" fill="#8347AD"/>
    <path d="M105.379 147.836L66.7362 122.39C64.5974 120.982 64.0487 118.046 65.5248 115.919L104.332 59.9726C105.735 57.9486 108.457 57.4068 110.489 58.7466L145.093 81.531C147.126 82.8687 147.739 85.6082 146.481 87.7276L111.713 146.335C110.392 148.564 107.517 149.247 105.378 147.838L105.379 147.836Z" fill="#8347AD"/>
    <path d="M116.595 70.2254C117.272 70.17 117.781 69.5677 117.731 68.8799C117.681 68.1922 117.091 67.6796 116.413 67.735C115.735 67.7903 115.227 68.3927 115.277 69.0804C115.327 69.7681 115.917 70.2807 116.595 70.2254Z" fill="black"/>
    <path d="M132.838 80.1061C132.735 80.7883 133.198 81.4229 133.87 81.5207C134.541 81.6205 135.169 81.1461 135.27 80.4635C135.372 79.7813 134.909 79.1467 134.237 79.0489C133.566 78.9491 132.938 79.4235 132.838 80.1061Z" fill="black"/>
    <path d="M116.382 69.5411C116.301 69.5249 116.223 69.4902 116.154 69.4357C115.912 69.2459 115.868 68.8946 116.054 68.6491L128.697 51.9678C128.884 51.7202 129.228 51.6713 129.475 51.8618C129.715 52.0512 129.76 52.4029 129.574 52.6484L116.931 69.3297C116.797 69.5063 116.584 69.5815 116.384 69.5415L116.382 69.5411Z" fill="black"/>
    <path d="M133.941 80.8343C133.85 80.8161 133.763 80.7753 133.69 80.7092C133.459 80.5067 133.435 80.1528 133.636 79.9167L144.092 67.6147C144.295 67.379 144.641 67.354 144.873 67.5544C145.104 67.757 145.128 68.1108 144.927 68.347L134.471 80.649C134.334 80.8079 134.132 80.8724 133.941 80.8343Z" fill="black"/>
    <path d="M101.15 136.464L69.7833 103.017C68.3262 101.465 68.802 98.6193 70.8034 96.8991L107.315 65.5587C109.046 64.0715 111.32 63.9625 112.581 65.3066L138.506 92.9509C139.764 94.2945 139.602 96.6543 138.13 98.4159L107.06 135.559C105.356 137.596 102.607 138.017 101.152 136.465L101.15 136.464Z" fill="#FCE200"/>
    <path d="M110.443 74.7432C110.291 75.302 110.602 75.8741 111.137 76.0218C111.673 76.1673 112.231 75.8332 112.38 75.2739C112.53 74.7147 112.221 74.143 111.686 73.9953C111.15 73.8497 110.592 74.1839 110.443 74.7432Z" fill="black"/>
    <path d="M128.499 92.6323C128.347 93.1912 128.658 93.7633 129.194 93.9109C129.729 94.0565 130.287 93.7223 130.439 93.1635C130.59 92.6046 130.279 92.0325 129.744 91.8849C129.208 91.7393 128.65 92.0735 128.499 92.6323Z" fill="black"/>
    <path d="M111.301 75.5571C111.218 75.5405 111.137 75.505 111.068 75.4484C110.828 75.257 110.79 74.9024 110.979 74.6597L128.706 51.9549C128.895 51.7122 129.245 51.6687 129.483 51.8597C129.723 52.051 129.762 52.4057 129.572 52.6484L111.848 75.3536C111.714 75.5261 111.502 75.5972 111.303 75.5575L111.301 75.5571Z" fill="black"/>
    <path d="M129.358 93.4457C129.296 93.4331 129.235 93.4103 129.179 93.3755C128.918 93.2142 128.838 92.8683 128.998 92.6027L144.039 67.6845C144.199 67.4189 144.543 67.3333 144.799 67.4959C145.06 67.6572 145.14 68.003 144.98 68.2666L129.939 93.1848C129.813 93.3931 129.579 93.4898 129.358 93.4457Z" fill="black"/>
    </g>
    <path d="M70.2061 89.3208L106.149 96.502L120.106 117.427L116.085 137.555L62.7001 126.889L70.2061 89.3208Z" fill="#FF5100"/>
    <path d="M105.862 111.792L57.0068 102.031L51.366 130.264L100.222 140.025L105.862 111.792Z" fill="#FF5100"/>
    <path d="M65.1016 133.062L67.4311 121.402C67.8216 119.448 66.5691 117.536 64.6469 117.151C62.7246 116.767 60.8336 118.051 60.4431 120.006L58.1135 131.666L65.1016 133.062Z" fill="#ACDCD9"/>
    <path d="M32.2859 20.2514L25.4825 41.0933C24.2054 45.0077 26.5769 49.1521 30.551 49.9461L53.1943 54.4701L69.6648 27.7196L32.2879 20.2518L32.2859 20.2514Z" fill="#FF5100"/>
    <path d="M39.7225 23.9697C39.7594 23.8379 43.5651 10.7255 51.3779 12.5477C59.3136 14.3881 59.0028 26.6547 58.9992 26.7782L60.6144 26.8225C60.6189 26.6842 60.7137 23.3945 59.7151 19.8007C58.3514 14.9026 55.5972 11.8403 51.7463 10.9467C47.8244 10.0389 44.2334 11.9769 41.3225 16.5521C39.2105 19.8692 38.2078 23.3802 38.1657 23.5281L39.7201 23.9714L39.7225 23.9697Z" fill="#FF5100"/>
    <path d="M69.6629 27.7213L35.1905 20.8338L35.726 43.9515C35.8212 48.0822 38.72 51.5803 42.7103 52.3775L63.6643 56.564C68.2258 57.4754 72.3705 53.62 71.8809 48.9222L69.6633 27.7192L69.6629 27.7213Z" fill="#FF9D5F"/>
    <path d="M42.4701 24.5187C42.507 24.3869 46.3127 11.2745 54.1256 13.0967C62.0612 14.9371 61.7525 27.2041 61.7469 27.3272L63.362 27.3715C63.3665 27.2332 63.4613 23.9435 62.4627 20.3497C61.099 15.4515 58.3449 12.3893 54.4939 11.4956C50.572 10.5879 46.981 12.5259 44.0681 17.1007C41.9561 20.4178 40.9534 23.9287 40.9113 24.0766L42.4657 24.52L42.4701 24.5187Z" fill="#FF9D5F"/>
    <path d="M157.879 133.247L171.167 135.902C178.827 137.432 186.301 132.36 187.858 124.569L146.827 116.371C145.271 124.16 150.219 131.716 157.881 133.247L157.879 133.247Z" fill="#FCE200"/>
    <g style="mix-blend-mode:multiply" opacity="0.5">
    <path d="M182.55 123.509L187.857 124.569C186.301 132.357 178.829 137.433 171.166 135.902L165.859 134.841C173.52 136.372 180.994 131.299 182.55 123.509Z" fill="#FCE200"/>
    </g>
    <path d="M156.537 142.247L169.825 144.902C177.485 146.432 184.959 141.36 186.515 133.569L145.484 125.371C143.928 133.16 148.877 140.716 156.539 142.247L156.537 142.247Z" fill="#FF9D5F"/>
    <path opacity="0.69" d="M180.397 132.347L185.704 133.407C184.148 141.195 176.675 146.27 169.013 144.74L163.706 143.679C171.366 145.21 178.84 140.137 180.397 132.347Z" fill="#FF5100"/>
    <path d="M154.691 149.206L167.978 151.86C175.639 153.391 183.113 148.318 184.669 140.528L143.638 132.33C142.082 140.118 147.03 147.675 154.693 149.206L154.691 149.206Z" fill="#FFCEAC"/>
    <g style="mix-blend-mode:multiply" opacity="0.5">
    <path d="M179.362 139.468L184.668 140.528C183.112 148.316 175.64 153.391 167.978 151.86L162.671 150.8C170.331 152.331 177.805 147.258 179.362 139.468Z" fill="#FF9D5F"/>
    </g>
    <path d="M80.358 98.9822L75.3428 97.9802L73.8073 105.666L78.8225 106.668L80.358 98.9822Z" fill="#ACDCD9"/>
    <path d="M89.2735 100.763L84.2583 99.7615L82.7228 107.447L87.738 108.449L89.2735 100.763Z" fill="#ACDCD9"/>
    <path d="M98.188 102.545L93.1729 101.543L91.6373 109.228L96.6525 110.23L98.188 102.545Z" fill="#ACDCD9"/>
    <path d="M65.3045 113.853C66.6592 114.123 67.9805 113.226 68.2557 111.849C68.5309 110.471 67.6558 109.136 66.3011 108.865C64.9464 108.594 63.6251 109.491 63.3499 110.869C63.0747 112.246 63.9498 113.582 65.3045 113.853Z" fill="#FF9D5F"/>
    <path d="M48.415 37.6254C48.3342 34.4034 50.7271 32.2839 53.7573 32.8893C56.7875 33.4947 59.3121 36.5989 59.3934 39.8189C59.4742 43.0409 57.0813 45.1605 54.0511 44.555C51.0209 43.9496 48.4959 40.8475 48.415 37.6254Z" fill="#FF5100"/>
    <path d="M6.01851 113.025C1.41855 112.106 -2.94923 110.668 -7.03885 108.786L-10.3024 125.121L50.1554 137.2L57.9485 98.1947L57.1349 102.056C43.5806 114.632 25.3294 116.885 6.0181 113.027L6.01851 113.025Z" fill="#93D500"/>
    <path d="M122.252 106.521L112.93 104.659L111.531 111.662L103.441 110.046L102.115 116.681L93.59 114.978L91.9319 123.277L83.1047 121.513L80.2057 136.023L114.97 142.969L122.252 106.521Z" fill="#FF9D5F"/>
    <path d="M170.399 131.845C170.693 131.904 170.985 131.979 171.283 132.017C171.552 132.052 171.649 132.155 171.649 132.45C171.647 134.6 171.666 136.75 171.679 138.9C171.685 140.03 171.681 141.158 171.698 142.287C171.702 142.509 171.641 142.548 171.443 142.506C170.825 142.374 170.205 142.25 169.584 142.135C169.411 142.102 169.354 142.02 169.358 141.852C169.364 141.493 169.358 141.135 169.364 140.778C169.367 140.586 169.298 140.487 169.099 140.449C168.151 140.268 167.206 140.079 166.261 139.882C166.085 139.847 165.981 139.894 165.893 140.05C165.699 140.389 165.487 140.719 165.298 141.058C165.215 141.206 165.127 141.247 164.963 141.212C164.24 141.059 163.515 140.912 162.788 140.777C162.55 140.734 162.569 140.65 162.68 140.484C164.533 137.716 166.38 134.946 168.234 132.181C168.534 131.731 168.955 131.546 169.489 131.663C169.792 131.73 170.099 131.785 170.403 131.846L170.399 131.845ZM169.31 134.467C169.241 134.52 169.209 134.535 169.193 134.559C168.551 135.624 167.908 136.69 167.266 137.755C167.162 137.927 167.242 137.977 167.401 138.007C167.956 138.113 168.514 138.221 169.068 138.34C169.294 138.389 169.338 138.317 169.331 138.097C169.314 137.361 169.317 136.625 169.313 135.887C169.31 135.427 169.31 134.964 169.309 134.465L169.31 134.467Z" fill="#F8F4F1"/>
    <path d="M147.296 134.251C147.657 133.687 148.02 133.125 148.382 132.56C149.286 131.143 150.193 129.726 151.09 128.306C151.222 128.097 151.346 128.012 151.606 128.073C152.284 128.232 152.968 128.36 153.655 128.486C153.883 128.527 153.912 128.591 153.777 128.791C151.822 131.711 149.873 134.635 147.928 137.561C147.82 137.724 147.711 137.76 147.527 137.721C146.815 137.568 146.1 137.421 145.384 137.293C145.161 137.253 145.093 137.162 145.081 136.937C144.948 134.248 144.794 131.562 144.672 128.874C144.645 128.288 144.44 127.864 143.96 127.543C143.371 127.149 142.758 126.802 142.119 126.503C142.022 126.458 141.86 126.438 141.921 126.266C141.973 126.124 142.102 126.182 142.202 126.202C143.579 126.477 144.956 126.744 146.331 127.029C146.954 127.158 147.297 127.616 147.292 128.305C147.283 129.511 147.259 130.716 147.241 131.921C147.232 132.687 147.222 133.454 147.212 134.219C147.242 134.229 147.271 134.239 147.301 134.249L147.296 134.251Z" fill="#F8F4F1"/>
    <path d="M158.119 139.972C157.262 139.816 156.453 139.517 155.687 139.096C155.468 138.975 155.397 138.86 155.51 138.618C155.754 138.097 155.983 137.569 156.199 137.036C156.274 136.851 156.339 136.862 156.471 136.961C157.03 137.39 157.652 137.694 158.331 137.881C158.834 138.02 159.339 138.093 159.85 137.949C160.58 137.746 160.78 137.113 160.314 136.517C160.119 136.268 159.878 136.07 159.634 135.878C159.231 135.558 158.835 135.23 158.484 134.847C157.052 133.287 157.84 131.481 159.008 130.673C159.785 130.137 160.661 129.952 161.577 129.974C162.717 130.003 163.792 130.303 164.792 130.863C164.98 130.969 165.026 131.077 164.937 131.275C164.714 131.77 164.493 132.266 164.291 132.77C164.204 132.983 164.127 132.99 163.944 132.872C163.25 132.427 162.504 132.119 161.668 132.078C161.363 132.065 161.067 132.104 160.802 132.269C160.429 132.503 160.342 132.874 160.573 133.249C160.733 133.511 160.964 133.707 161.194 133.903C161.602 134.252 162.02 134.586 162.409 134.959C164.132 136.614 163.105 138.863 161.719 139.612C160.78 140.12 159.782 140.201 158.755 140.092C158.542 140.069 158.335 140.011 158.124 139.969L158.119 139.972Z" fill="#F8F4F1"/>
    <path d="M152.247 138.662C151.931 138.599 151.619 138.518 151.3 138.479C151.031 138.447 150.994 138.346 151.099 138.105C151.593 136.97 152.076 135.831 152.564 134.695C153.37 132.82 154.181 130.947 154.977 129.07C155.065 128.862 155.154 128.786 155.381 128.838C156.029 128.982 156.681 129.11 157.336 129.228C157.57 129.271 157.598 129.339 157.5 129.565C156.202 132.587 154.913 135.612 153.626 138.638C153.543 138.831 153.457 138.932 153.222 138.864C152.904 138.772 152.574 138.727 152.247 138.662Z" fill="#F8F4F1"/>
    <path d="M58.0031 30.1597L57.4569 32.8938C56.7405 32.7527 56.0595 32.4692 55.4529 32.0597C54.8463 31.6501 54.326 31.1226 53.9219 30.5072C53.5177 29.8918 53.2377 29.2007 53.0978 28.4735C52.9578 27.7463 52.9608 26.9973 53.1065 26.2694L54.1066 21.2516C54.1218 21.175 54.1517 21.1021 54.1947 21.0371C54.2376 20.9721 54.2927 20.9162 54.3567 20.8726C54.4208 20.8291 54.4927 20.7988 54.5681 20.7834C54.6436 20.768 54.7212 20.7679 54.7965 20.783L56.338 21.091C56.4134 21.106 56.485 21.1359 56.5488 21.1791C56.6125 21.2223 56.6672 21.2779 56.7097 21.3427C56.7521 21.4075 56.7815 21.4803 56.7962 21.5568C56.8108 21.6334 56.8105 21.7122 56.7951 21.7888L55.7974 26.7931C55.7955 26.7944 55.7939 26.7962 55.7928 26.7982C55.7917 26.8002 55.791 26.8024 55.7908 26.8047C55.7173 27.1739 55.7163 27.5538 55.7878 27.9225C55.8594 28.2912 56.002 28.6414 56.2076 28.9531C56.4132 29.2648 56.6777 29.5318 56.9858 29.7387C57.294 29.9456 57.6397 30.0884 58.0033 30.1589" fill="white"/>
    <path d="M51.9322 25.8183C52.1182 24.7174 51.981 23.5873 51.5378 22.5693C51.0945 21.5512 50.3648 20.6901 49.4399 20.0938C48.5149 19.4974 47.4356 19.192 46.3369 19.2159C45.2381 19.2398 44.1686 19.5918 43.2619 20.228C42.3552 20.8642 41.6515 21.7564 41.2387 22.7931C40.8259 23.8298 40.7223 24.9651 40.9409 26.0572C41.1594 27.1492 41.6904 28.1497 42.4675 28.9335C43.2447 29.7173 44.2335 30.2498 45.3104 30.4645C46.1607 30.6182 47.0388 30.4391 47.7682 29.9631C47.8192 29.9312 47.8782 29.9152 47.9379 29.917C47.9976 29.9188 48.0554 29.9383 48.1041 29.9731C48.1528 30.0079 48.1902 30.0565 48.2119 30.1129C48.2336 30.1692 48.2385 30.2309 48.226 30.2903L48.076 31.0197L50.7848 31.5609L51.9322 25.8183ZM45.8509 27.712C45.3066 27.5966 44.8092 27.32 44.4212 26.9172C44.0332 26.5144 43.772 26.0032 43.6704 25.4481C43.5687 24.893 43.6313 24.3188 43.8501 23.7976C44.069 23.2764 44.4343 22.8317 44.9002 22.5193C45.3661 22.2069 45.9117 22.0408 46.4684 22.0419C47.0251 22.0431 47.568 22.2114 48.0287 22.5257C48.4894 22.84 48.8474 23.2862 49.0576 23.8083C49.2679 24.3303 49.3209 24.9048 49.2102 25.4595C49.0558 26.2085 48.6152 26.8665 47.9853 27.2889C47.3554 27.7112 46.5877 27.8635 45.8509 27.712Z" fill="white"/>
    <path d="M39.2693 18.0899L34.9675 25.1862C34.7619 25.5392 34.4228 25.4896 34.3542 25.087L32.9587 16.813C32.9388 16.6949 32.8845 16.5857 32.8027 16.4996C32.7209 16.4135 32.6154 16.3544 32.4999 16.33L30.8501 16.0004C30.757 15.9819 30.6609 15.9867 30.5698 16.0143C30.4787 16.042 30.3955 16.0916 30.3273 16.159C30.259 16.2264 30.2078 16.3095 30.1781 16.4012C30.1484 16.4929 30.141 16.5904 30.1565 16.6853L31.9752 27.8047L36.1346 28.6357L41.9777 19.0393C42.0278 18.9576 42.0578 18.8649 42.0649 18.7692C42.0721 18.6734 42.0563 18.5775 42.0189 18.4896C41.9815 18.4016 41.9236 18.3244 41.8502 18.2644C41.7768 18.2045 41.69 18.1636 41.5973 18.1452L39.8875 17.8068C39.7687 17.7834 39.6454 17.798 39.5347 17.8487C39.424 17.8994 39.3311 17.9837 39.2693 18.0899Z" fill="white"/>
    <path d="M71.6838 24.7635L70.6797 29.7983C70.3857 31.27 69.5286 32.5666 68.2971 33.4027C67.0656 34.2389 65.5605 34.5462 64.1129 34.2569C62.6653 33.9677 61.3938 33.1057 60.5781 31.8605C59.7625 30.6153 59.4694 29.089 59.7635 27.6172L60.7673 22.5825C60.7825 22.5058 60.8124 22.4329 60.8554 22.3678C60.8983 22.3027 60.9535 22.2468 61.0176 22.2033C61.0817 22.1598 61.1536 22.1295 61.2291 22.1141C61.3047 22.0988 61.3823 22.0987 61.4577 22.1139L62.9992 22.4219C63.0745 22.4369 63.1461 22.4668 63.2099 22.51C63.2737 22.5532 63.3284 22.6088 63.3708 22.6736C63.4133 22.7384 63.4426 22.8112 63.4572 22.8877C63.4719 22.9643 63.4714 23.0431 63.456 23.1197L62.4552 28.1379C62.4544 28.142 62.4495 28.1453 62.4479 28.1536C62.3064 28.8982 62.4597 29.6677 62.8747 30.2945C63.2896 30.9214 63.9325 31.355 64.6636 31.5011C65.3947 31.6471 66.1549 31.4938 66.7789 31.0746C67.4028 30.6553 67.8401 30.0038 67.9956 29.262C67.9972 29.2537 67.994 29.2488 67.9948 29.2447L68.9956 24.2264C69.0269 24.0721 69.117 23.9361 69.2463 23.8483C69.3755 23.7605 69.5334 23.728 69.6855 23.7578L71.227 24.0658C71.3023 24.0808 71.3739 24.1107 71.4377 24.1539C71.5014 24.1971 71.5561 24.2527 71.5985 24.3175C71.641 24.3823 71.6703 24.4551 71.685 24.5316C71.6996 24.6082 71.6992 24.687 71.6838 24.7635Z" fill="white"/>
    <path d="M77.2638 32.3091L77.9114 32.0217C77.951 32.0041 77.9869 31.9787 78.0169 31.9471C78.047 31.9155 78.0706 31.8782 78.0866 31.8374C78.1025 31.7966 78.1104 31.7531 78.1097 31.7093C78.1091 31.6655 78.0999 31.6223 78.0828 31.5822L77.4036 29.9876C77.3853 29.9448 77.379 29.8977 77.3853 29.8514C77.3917 29.8051 77.4104 29.7614 77.4394 29.725C77.4684 29.6885 77.5067 29.6608 77.5501 29.6449C77.5934 29.629 77.6401 29.6254 77.6852 29.6345L79.366 29.9704C79.4082 29.9788 79.4517 29.9787 79.494 29.9701C79.5363 29.9615 79.5765 29.9445 79.6125 29.9201C79.6484 29.8957 79.6793 29.8644 79.7033 29.828C79.7274 29.7916 79.7442 29.7507 79.7527 29.7078L79.8932 29.0046C79.9105 28.918 79.8933 28.8281 79.8452 28.7547C79.7972 28.6814 79.7223 28.6306 79.637 28.6136L77.9563 28.2778C77.9112 28.2689 77.8695 28.2477 77.8356 28.2163C77.8018 28.185 77.7771 28.1447 77.7643 28.1C77.7515 28.0553 77.751 28.0077 77.7629 27.9626C77.7748 27.9174 77.7987 27.8764 77.8319 27.8439L79.0716 26.6332C79.1028 26.6028 79.1278 26.5665 79.1452 26.5263C79.1626 26.4861 79.1721 26.4429 79.1731 26.3992C79.1741 26.3554 79.1665 26.3119 79.1509 26.2712C79.1353 26.2305 79.1119 26.1933 79.0821 26.1619L78.5949 25.6466C78.565 25.6152 78.5292 25.5902 78.4897 25.5729C78.4501 25.5555 78.4076 25.5463 78.3644 25.5458C78.3213 25.5452 78.2784 25.5532 78.2382 25.5695C78.198 25.5857 78.1613 25.6098 78.1302 25.6404L76.3108 27.4193L75.3151 25.078C75.2982 25.0378 75.2736 25.0014 75.2428 24.9709C75.2119 24.9405 75.1754 24.9165 75.1353 24.9005C75.0953 24.8844 75.0524 24.8766 75.0092 24.8774C74.9661 24.8782 74.9234 24.8876 74.8837 24.9052L74.2361 25.1926C74.1964 25.2101 74.1604 25.2354 74.1302 25.2671C74.1 25.2987 74.0762 25.3361 74.0603 25.377C74.0443 25.4179 74.0364 25.4616 74.0371 25.5055C74.0378 25.5494 74.047 25.5926 74.0643 25.6328L74.7427 27.2275C74.7609 27.2702 74.7671 27.3173 74.7608 27.3636C74.7545 27.4098 74.7357 27.4535 74.7067 27.4899C74.6777 27.5263 74.6394 27.5539 74.5961 27.5699C74.5528 27.5858 74.5061 27.5894 74.4611 27.5803L72.7806 27.2445C72.6954 27.2275 72.6067 27.2456 72.5342 27.2948C72.4617 27.3441 72.4112 27.4204 72.3939 27.5071L72.2533 28.2105C72.236 28.2972 72.2533 28.3871 72.3013 28.4604C72.3494 28.5337 72.4242 28.5845 72.5095 28.6015L74.1903 28.9373C74.2354 28.9462 74.2772 28.9675 74.311 28.9988C74.3449 29.0302 74.3696 29.0705 74.3825 29.1153C74.3953 29.16 74.3957 29.2076 74.3838 29.2528C74.3718 29.298 74.3479 29.339 74.3146 29.3715L73.0755 30.5829C73.0444 30.6133 73.0194 30.6497 73.002 30.6899C72.9846 30.7301 72.9751 30.7734 72.9742 30.8172C72.9733 30.861 72.9808 30.9045 72.9965 30.9452C73.0122 30.986 73.0356 31.0231 73.0655 31.0545L73.5529 31.5688C73.5827 31.6002 73.6183 31.6254 73.6578 31.6428C73.6973 31.6602 73.7398 31.6695 73.7829 31.6702C73.826 31.6709 73.8689 31.663 73.909 31.6468C73.9492 31.6307 73.986 31.6067 74.0171 31.5762L75.8359 29.7975L76.8322 32.1386C76.8492 32.1788 76.8739 32.215 76.9048 32.2454C76.9358 32.2757 76.9723 32.2996 77.0124 32.3155C77.0525 32.3314 77.0953 32.3392 77.1385 32.3382C77.1816 32.3373 77.2242 32.3278 77.2638 32.3102" fill="white"/>
    </g>
    <path d="M32.6972 62.4519C32.359 64.1913 33.4921 65.8712 35.2295 66.2089L38.5616 66.8566L39.2454 63.3384L32.7695 62.0796L32.6968 62.454L32.6972 62.4519Z" fill="#F9F5F2"/>
    <path d="M40.1605 58.6309L33.6846 57.3721L32.9866 60.9627L39.4625 62.2215L40.1605 58.6309Z" fill="#F9F5F2"/>
    <path d="M34.8894 51.1731L34.8162 51.5496L41.2921 52.8084L41.9764 49.2881L38.6443 48.6404C36.9069 48.3027 35.2267 49.4378 34.889 51.1752L34.8894 51.1731Z" fill="#F9F5F2"/>
    <path d="M51.876 51.2105L43.0919 49.503L39.6769 67.0714L44.1445 67.9398L46.8752 53.8917L54.3377 55.3423L54.4109 54.9659C54.7486 53.2285 53.6138 51.5462 51.8764 51.2084L51.876 51.2105Z" fill="#F9F5F2"/>
    <path d="M41.075 53.9255L34.5991 52.6667L33.9012 56.2573L40.3771 57.5161L41.075 53.9255Z" fill="#F9F5F2"/>
    <path d="M54.12 56.4612L47.7744 55.2278L47.0765 58.8184L53.4221 60.0518L54.12 56.4612Z" fill="#F9F5F2"/>
    <path d="M53.2055 61.1666L46.8599 59.9331L46.1619 63.5237L52.5075 64.7572L53.2055 61.1666Z" fill="#F9F5F2"/>
    <path d="M45.261 68.159L48.4607 68.7809C50.1981 69.1186 51.88 67.986 52.2182 66.2465L52.2909 65.8721L45.9453 64.6387L45.2614 68.1569L45.261 68.159Z" fill="#F9F5F2"/>
    </g>
    <defs>
    <clipPath id="clip0_478_5532">
    <rect width="184.197" height="119.874" fill="white" transform="translate(23.4863) rotate(11.2987)"/>
    </clipPath>
    </defs>
    </svg>
    