<svg width="198" height="44" viewBox="0 0 198 44" fill="none" xmlns="http://www.w3.org/2000/svg">
    <path d="M115.902 32.616V43.216C113.08 43.2235 110.284 42.6741 107.674 41.5991C105.065 40.5241 102.694 38.9447 100.696 36.9515C98.6978 34.9583 97.1129 32.5904 96.0319 29.9835C94.9508 27.3767 94.3948 24.5821 94.3957 21.76L94.3867 2.30788C94.3863 2.01094 94.4445 1.71683 94.5579 1.4424C94.6713 1.16797 94.8378 0.918603 95.0477 0.708584C95.2576 0.498564 95.5069 0.332014 95.7813 0.218468C96.0557 0.104923 96.3498 0.0466126 96.6467 0.0468759H102.723C103.02 0.0466128 103.314 0.104916 103.588 0.218449C103.863 0.331982 104.112 0.498517 104.322 0.708523C104.532 0.91853 104.699 1.16789 104.812 1.44232C104.926 1.71676 104.984 2.01089 104.984 2.30788L104.992 21.708C104.986 21.7142 104.981 21.7218 104.978 21.7301C104.975 21.7384 104.975 21.7473 104.976 21.756C104.977 23.1873 105.261 24.6042 105.811 25.9255C106.361 27.2468 107.167 28.4463 108.182 29.4552C109.198 30.464 110.402 31.2624 111.727 31.8043C113.052 32.3462 114.471 32.621 115.902 32.613" fill="#00C4B3"/>
    <path d="M89.6043 20.9461C89.4758 16.7034 88.1001 12.5925 85.649 9.12708C83.1979 5.66162 79.7801 2.99515 75.8225 1.46073C71.8649 -0.0736971 67.5428 -0.408061 63.3963 0.499401C59.2498 1.40686 55.4625 3.51592 52.5076 6.56315C49.5526 9.61038 47.561 13.4607 46.7815 17.6332C46.0019 21.8056 46.469 26.1153 48.1244 30.0239C49.7798 33.9325 52.5501 37.2667 56.0892 39.6101C59.6284 41.9535 63.7796 43.2022 68.0243 43.2002C71.3634 43.1399 74.5559 41.818 76.9603 39.5002C77.1296 39.3435 77.3412 39.2398 77.5688 39.202C77.7963 39.1642 78.03 39.1939 78.2409 39.2873C78.4519 39.3808 78.6308 39.5341 78.7556 39.7281C78.8804 39.9221 78.9457 40.1485 78.9433 40.3792L78.9273 43.2102H89.6043V20.9461ZM67.9883 32.5361C65.838 32.5111 63.7432 31.8506 61.9675 30.6377C60.1918 29.4249 58.8145 27.7139 58.0089 25.7201C57.2034 23.7263 57.0056 21.5388 57.4404 19.4328C57.8752 17.3268 58.9232 15.3965 60.4525 13.8848C61.9819 12.3731 63.9242 11.3475 66.035 10.9371C68.1459 10.5267 70.331 10.7499 72.3153 11.5785C74.2997 12.4071 75.9946 13.8041 77.1868 15.5938C78.3789 17.3834 79.0151 19.4857 79.0153 21.6361C78.9973 24.5434 77.8257 27.3247 75.758 29.3686C73.6903 31.4125 70.8956 32.5518 67.9883 32.5361Z" fill="#00C4B3"/>
    <path d="M35.7534 1.56707L24.8223 31.2272C24.3103 32.6962 22.9873 32.7642 22.4223 31.3142L10.8673 1.50707C10.7024 1.08136 10.4137 0.714817 10.0385 0.454753C9.66331 0.194689 9.21877 0.0530336 8.76227 0.0480669H2.25924C1.89274 0.048515 1.53182 0.138015 1.20757 0.308863C0.88332 0.479711 0.605438 0.726791 0.397842 1.02884C0.190246 1.33089 0.0591536 1.67885 0.0158469 2.04279C-0.0274598 2.40674 0.0183163 2.77575 0.149236 3.11808L15.4633 43.2182H31.8584L46.7384 3.08908C46.8665 2.74712 46.9097 2.37921 46.8644 2.01688C46.8191 1.65455 46.6866 1.30861 46.4783 1.00873C46.2699 0.708842 45.992 0.463961 45.6682 0.295077C45.3444 0.126194 44.9846 0.0383462 44.6194 0.0390669L37.8824 0.0510669C37.4143 0.0520217 36.9581 0.198424 36.5768 0.47002C36.1956 0.741616 35.9072 1.12498 35.7534 1.56707Z" fill="#00C4B3"/>
    <path d="M163.671 2.30789L163.678 21.826C163.678 27.5319 161.411 33.004 157.376 37.0387C153.342 41.0734 147.87 43.34 142.164 43.34C136.458 43.34 130.986 41.0734 126.951 37.0387C122.916 33.004 120.65 27.5319 120.65 21.826L120.642 2.30789C120.641 2.01077 120.699 1.7165 120.813 1.44194C120.927 1.16738 121.093 0.917923 121.303 0.707878C121.513 0.497832 121.763 0.331323 122.038 0.217895C122.312 0.104468 122.607 0.046352 122.904 0.0468785H128.98C129.277 0.0464833 129.571 0.104704 129.845 0.218202C130.12 0.331701 130.369 0.498246 130.579 0.708292C130.789 0.918338 130.955 1.16775 131.069 1.44225C131.182 1.71674 131.24 2.0109 131.24 2.30789L131.247 21.762C131.247 21.778 131.231 21.794 131.231 21.826C131.258 24.7076 132.422 27.4619 134.47 29.4898C136.517 31.5178 139.282 32.6554 142.164 32.6554C145.046 32.6554 147.811 31.5178 149.859 29.4898C151.906 27.4619 153.07 24.7076 153.098 21.826C153.098 21.794 153.082 21.778 153.082 21.762L153.075 2.30789C153.077 1.70897 153.315 1.1351 153.739 0.711504C154.162 0.28791 154.736 0.0489883 155.335 0.0468785H161.411C161.708 0.0466153 162.002 0.104926 162.276 0.218471C162.551 0.332016 162.8 0.498567 163.01 0.708586C163.22 0.918606 163.386 1.16797 163.5 1.4424C163.613 1.71683 163.671 2.01094 163.671 2.30789Z" fill="#00C4B3"/>
    <path d="M190.536 26.2724L192.774 24.7184C192.91 24.6234 193.027 24.5022 193.117 24.362C193.207 24.2218 193.269 24.0651 193.298 23.9011C193.327 23.7371 193.324 23.5689 193.289 23.4061C193.253 23.2433 193.186 23.0892 193.091 22.9524L189.308 17.5134C189.207 17.3676 189.147 17.1967 189.136 17.0193C189.125 16.842 189.163 16.6649 189.245 16.5076C189.328 16.3502 189.452 16.2184 189.604 16.1267C189.756 16.035 189.931 15.9868 190.108 15.9874H196.734C196.9 15.9875 197.065 15.9548 197.219 15.8912C197.372 15.8276 197.512 15.7343 197.63 15.6166C197.747 15.4989 197.841 15.3592 197.904 15.2054C197.968 15.0516 198.001 14.8868 198.001 14.7204V11.9944C198.001 11.6584 197.867 11.3361 197.629 11.0985C197.392 10.8609 197.07 10.7274 196.734 10.7274H190.108C189.931 10.7278 189.757 10.6796 189.605 10.588C189.453 10.4963 189.329 10.3647 189.246 10.2075C189.164 10.0502 189.126 9.8734 189.137 9.69619C189.148 9.51898 189.207 9.34819 189.308 9.20237L193.091 3.76535C193.186 3.62869 193.253 3.4746 193.289 3.31189C193.324 3.14918 193.327 2.98105 193.298 2.81712C193.269 2.65319 193.207 2.49667 193.117 2.35652C193.027 2.21637 192.91 2.09533 192.774 2.00034L190.536 0.442338C190.399 0.347528 190.245 0.280674 190.082 0.245595C189.919 0.210516 189.751 0.2079 189.587 0.237896C189.423 0.267893 189.266 0.329914 189.126 0.420415C188.986 0.510916 188.865 0.628124 188.77 0.765339L183.221 8.75237L177.674 0.765339C177.58 0.628018 177.459 0.510711 177.319 0.420135C177.179 0.329558 177.023 0.267491 176.858 0.237488C176.694 0.207485 176.526 0.210135 176.363 0.245286C176.2 0.280437 176.046 0.347399 175.908 0.442338L173.671 1.99634C173.534 2.09128 173.417 2.21245 173.326 2.3529C173.236 2.49334 173.174 2.65029 173.144 2.8147C173.115 2.97911 173.118 3.14774 173.154 3.31089C173.19 3.47404 173.258 3.62849 173.353 3.76535L177.132 9.20537C177.234 9.35119 177.293 9.52198 177.304 9.69919C177.315 9.8764 177.277 10.0532 177.195 10.2105C177.112 10.3677 176.988 10.4993 176.836 10.591C176.684 10.6826 176.51 10.7308 176.332 10.7304H169.708C169.372 10.7304 169.05 10.8639 168.813 11.1015C168.575 11.3391 168.441 11.6614 168.441 11.9974V14.7244C168.441 15.0604 168.575 15.3827 168.813 15.6203C169.05 15.8579 169.372 15.9914 169.708 15.9914H176.333C176.511 15.9908 176.686 16.039 176.838 16.1307C176.99 16.2224 177.114 16.3542 177.197 16.5116C177.279 16.6689 177.317 16.846 177.306 17.0233C177.295 17.2007 177.235 17.3716 177.133 17.5174L173.354 22.9564C173.259 23.0933 173.192 23.2476 173.157 23.4104C173.121 23.5733 173.118 23.7415 173.148 23.9056C173.177 24.0696 173.239 24.2262 173.329 24.3663C173.419 24.5065 173.536 24.6275 173.673 24.7224L175.91 26.2764C176.047 26.3716 176.201 26.4389 176.364 26.4744C176.527 26.5099 176.695 26.513 176.859 26.4834C177.023 26.4539 177.179 26.3923 177.319 26.3023C177.46 26.2122 177.581 26.0953 177.675 25.9584L183.222 17.9724L188.772 25.9584C188.867 26.0954 188.988 26.2122 189.128 26.3023C189.268 26.3924 189.425 26.454 189.589 26.4835C189.753 26.5131 189.921 26.51 190.084 26.4744C190.246 26.4389 190.401 26.3716 190.538 26.2764" fill="#FF5100"/>
    </svg>
    