<svg width="65" height="21" viewBox="0 0 65 21" fill="none" xmlns="http://www.w3.org/2000/svg">
    <path d="M57.5588 0.398752C58.1432 0.398752 58.7315 0.430984 59.3159 0.390684C59.8438 0.354415 60.0695 0.511604 60.1823 1.06774C61.0004 5.1138 61.8588 9.1518 62.7051 13.1938C63.1484 15.3176 63.5715 17.4414 64.0349 19.5612C64.1276 19.9763 64.0269 20.073 63.6319 20.0689C62.3988 20.0528 61.1656 20.0528 59.9325 20.0689C59.5899 20.073 59.4489 19.9399 59.3924 19.6216C59.2675 18.9445 59.1184 18.2716 58.9935 17.5986C58.925 17.2359 58.7557 17.0747 58.3608 17.0787C56.4788 17.0948 54.5968 17.0948 52.7148 17.0787C52.3642 17.0787 52.1829 17.2077 52.0741 17.5341C51.8323 18.2434 51.5542 18.9446 51.3205 19.6538C51.2197 19.9642 51.0666 20.073 50.7402 20.0689C49.2974 20.0528 47.8547 20.0488 46.412 20.0689C45.9405 20.077 45.9445 19.9118 46.0936 19.5571C48.5801 13.6533 51.0545 7.74533 53.545 1.84549C53.948 0.886362 54.6814 0.378602 55.7494 0.398752C56.3539 0.410842 56.9624 0.398752 57.5669 0.398752H57.5588ZM56.4788 5.74246C56.366 5.86739 56.3095 5.90771 56.2894 5.9601C55.4673 8.20478 54.6452 10.4535 53.823 12.6982C53.6901 13.0609 53.8633 13.1253 54.1777 13.1213C55.2819 13.1133 56.3901 13.1052 57.4943 13.1213C57.9457 13.1294 58.0021 12.9762 57.9054 12.5652C57.591 11.1869 57.317 9.80062 57.0269 8.41432C56.8455 7.54788 56.6682 6.67741 56.4748 5.73843L56.4788 5.74246Z" fill="#F8F4F1"/>
    <path d="M14.2771 13.6135C14.7526 12.4166 15.2322 11.2238 15.7077 10.0228C16.8966 7.01649 18.0894 4.01014 19.2621 0.99977C19.4354 0.556475 19.641 0.35097 20.1608 0.36709C21.5189 0.411419 22.877 0.395307 24.2391 0.375157C24.6905 0.367097 24.7711 0.47588 24.5897 0.903055C21.9662 7.13335 19.3548 13.3677 16.7515 19.6061C16.6064 19.9526 16.413 20.0614 16.0462 20.0574C14.6237 20.0373 13.2011 20.0292 11.7826 20.0574C11.3393 20.0655 11.174 19.9204 11.0652 19.5013C9.78372 14.492 8.46188 9.4949 7.20051 4.48165C6.92648 3.38953 6.37036 2.66815 5.33064 2.24501C4.05314 1.72515 2.74742 1.30205 1.40948 0.979649C1.20798 0.93129 0.889627 0.955452 0.942017 0.608876C0.986346 0.32275 1.25634 0.383176 1.4538 0.383176C4.19417 0.383176 6.93051 0.36706 9.67087 0.38721C10.9121 0.39527 11.7423 1.12874 11.9962 2.42639C12.4395 4.69928 12.8545 6.97617 13.2817 9.24906C13.5557 10.6958 13.8298 12.1426 14.1038 13.5853C14.1643 13.5933 14.2247 13.6014 14.2852 13.6095L14.2771 13.6135Z" fill="#F8F4F1"/>
    <path d="M37.1709 20.3109C35.4703 20.3391 33.8099 20.0812 32.1818 19.5774C31.7184 19.4323 31.537 19.243 31.662 18.7432C31.9279 17.6713 32.1657 16.5912 32.3753 15.5072C32.4478 15.1324 32.5768 15.1284 32.8669 15.2654C34.1001 15.8618 35.4058 16.2003 36.776 16.297C37.7915 16.3696 38.7869 16.3172 39.7098 15.8538C41.0276 15.1969 41.1686 13.9315 40.0483 12.9844C39.5808 12.5895 39.0448 12.3074 38.5048 12.0374C37.6102 11.5861 36.7276 11.1186 35.9095 10.5302C32.5727 8.13239 33.3908 4.43694 35.3171 2.47838C36.5987 1.17671 38.2026 0.499664 39.9637 0.197418C42.156 -0.177367 44.3281 -0.0161596 46.4559 0.660871C46.8549 0.78983 46.9838 0.975223 46.8911 1.38225C46.6534 2.39779 46.4196 3.41332 46.2262 4.43693C46.1416 4.87216 45.9965 4.91248 45.6016 4.75935C44.1024 4.18306 42.559 3.88482 40.9429 4.12258C40.3546 4.21124 39.8025 4.39665 39.3592 4.8077C38.7345 5.38801 38.7103 6.1174 39.2947 6.73801C39.7017 7.16922 40.2175 7.4513 40.7334 7.7334C41.6482 8.23714 42.5751 8.70867 43.4617 9.2648C47.3909 11.7311 46.2866 16.3494 43.9211 18.2798C42.3171 19.5895 40.4392 20.1174 38.4323 20.2988C38.0172 20.3351 37.5981 20.3028 37.179 20.3028L37.1709 20.3109Z" fill="#F8F4F1"/>
    <path d="M25.4358 20.0574C24.8071 20.0574 24.1785 20.0211 23.5538 20.0695C23.0259 20.1098 22.9171 19.9324 23.0259 19.4408C23.5377 17.1195 24.0253 14.7942 24.525 12.473C25.3512 8.6405 26.1854 4.81209 26.9914 0.979608C27.08 0.556463 27.2211 0.379112 27.6764 0.391202C28.9701 0.419411 30.2677 0.415382 31.5654 0.391202C32.0288 0.383142 32.1094 0.500028 32.0086 0.963472C30.6788 7.13735 29.369 13.3153 28.0633 19.4932C27.9787 19.8881 27.8538 20.1098 27.3782 20.0695C26.7334 20.0171 26.0846 20.0574 25.4358 20.0574Z" fill="#F8F4F1"/>
    </svg>
    