<svg xmlns="http://www.w3.org/2000/svg" width="40" height="40" viewBox="0 0 40 40">
  <g id="Group_2742" data-name="Group 2742" transform="translate(-0.448 -0.137)">
    <circle id="Ellipse_240" data-name="Ellipse 240" cx="20" cy="20" r="20" transform="translate(0.448 0.137)" fill="#ffe2b7"/>
    <g id="Group_32667" data-name="Group 32667" transform="translate(12.066 14.662)">
      <line id="Line_82" data-name="Line 82" x2="14.437" transform="translate(1.483 0)" fill="none" stroke="#fd9f13" stroke-linecap="round" stroke-width="1.9"/>
      <line id="Line_83" data-name="Line 83" x2="7.105" transform="translate(8.895 4.542)" fill="none" stroke="#fd9f13" stroke-linecap="round" stroke-width="1.9"/>
      <line id="Line_84" data-name="Line 84" x2="8.025" transform="translate(7.895 9.083)" fill="none" stroke="#fd9f13" stroke-linecap="round" stroke-width="1.9"/>
      <path id="Path_34547" data-name="Path 34547" d="M5.356,3.9a.747.747,0,0,1-.192.415l-.224.289L1.871,8.559a.507.507,0,0,1-.409.223.5.5,0,0,1-.38-.185.477.477,0,0,1-.107-.3.64.64,0,0,1,.073-.262l.07-.155c.038-.085,1.125-2.511,1.132-2.511-.155,0-1.632.008-1.786,0A.5.5,0,0,1,0,4.922a.815.815,0,0,1,.268-.557L3.334.418A1.7,1.7,0,0,1,3.622.086.5.5,0,0,1,4,.009a.462.462,0,0,1,.309.209.794.794,0,0,1-.1.773L3.178,3.413H4.546a1.315,1.315,0,0,1,.536.049.469.469,0,0,1,.268.364A.421.421,0,0,1,5.356,3.9Z" transform="translate(0.764 2.168)" fill="#fd9f13"/>
    </g>
  </g>
</svg>
