<svg xmlns="http://www.w3.org/2000/svg" width="40" height="40" viewBox="0 0 40 40">
  <g id="available_v_cont" transform="translate(-28 -143)">
    <circle id="Ellipse_1102" data-name="Ellipse 1102" cx="20" cy="20" r="20" transform="translate(28 143)" fill="#fff"/>
    <g id="available_v" transform="translate(-9.876 157.406)">
      <path id="Path_4455" data-name="Path 4455" d="M134.469,15.958A9.1,9.1,0,0,1,125.4,6.853V4.58a4.1,4.1,0,1,1,8.2,0V6.853a.877.877,0,1,0,1.754,0V4.58a4.1,4.1,0,1,1,8.2-.005V6.853a9.1,9.1,0,0,1-9.074,9.105M129.495,2.266a2.313,2.313,0,0,0-2.306,2.314V6.852a7.282,7.282,0,1,0,14.564,0V4.58a2.306,2.306,0,1,0-4.612,0V6.853a2.669,2.669,0,1,1-5.338,0V4.58a2.313,2.313,0,0,0-2.308-2.314" transform="translate(-77.268 -0.364)" fill="#e94e1b"/>
      <path id="Path_4457" data-name="Path 4457" d="M145.987,29.722a5.888,5.888,0,0,1-5.871-5.892v-.748a.9.9,0,1,1,1.792,0v.748a4.079,4.079,0,1,0,8.158.119c0-.04,0-.08,0-.119v-.748a.9.9,0,1,1,1.792,0v.748a5.888,5.888,0,0,1-5.872,5.892" transform="translate(-88.787 -17.341)" fill="#e94e1b"/>
      <path id="Path_4460" data-name="Path 4460" d="M218.528,2.9a.436.436,0,0,0-.214-.269l-.8-.387.813-.395a.432.432,0,0,0,.157-.589l-.156-.271a.426.426,0,0,0-.261-.2.434.434,0,0,0-.339.052l-.734.5.065-.9A.431.431,0,0,0,216.631,0h-.313a.428.428,0,0,0-.3.127.437.437,0,0,0-.124.32l.065.887-.747-.509a.428.428,0,0,0-.587.158l-.156.271a.435.435,0,0,0,.171.6l.8.387-.812.395a.433.433,0,0,0-.158.589l.156.271a.427.427,0,0,0,.261.2.42.42,0,0,0,.109.015.453.453,0,0,0,.231-.066l.734-.5-.065.9a.431.431,0,0,0,.429.431h.312a.434.434,0,0,0,.429-.447l-.065-.887.747.509a.425.425,0,0,0,.214.058.436.436,0,0,0,.112-.015.427.427,0,0,0,.261-.2l.156-.271a.43.43,0,0,0,.043-.327" transform="translate(-146.917)" fill="#e94e1b"/>
    </g>
  </g>
</svg>
