<svg width="33" height="33" viewBox="0 0 33 33" fill="none" xmlns="http://www.w3.org/2000/svg">
    <path d="M25.7867 12.9533C25.005 12.09 23.8267 11.5883 22.1934 11.4133V10.5266C22.1934 8.9283 21.5167 7.3883 20.3267 6.31497C19.125 5.2183 17.5617 4.70497 15.94 4.85663C13.1517 5.12497 10.8067 7.81997 10.8067 10.7366V11.4133C9.17336 11.5883 7.99503 12.09 7.21336 12.9533C6.0817 14.2133 6.1167 15.8933 6.24503 17.06L7.0617 23.5583C7.3067 25.8333 8.22836 28.1666 13.245 28.1666H19.755C24.7717 28.1666 25.6934 25.8333 25.9384 23.57L26.755 17.0483C26.8834 15.8933 26.9067 14.2133 25.7867 12.9533ZM16.1034 6.4783C17.27 6.3733 18.3784 6.73497 19.2417 7.51663C20.0934 8.28663 20.5717 9.3833 20.5717 10.5266V11.3433H12.4284V10.7366C12.4284 8.65997 14.1434 6.66497 16.1034 6.4783ZM12.3234 17.8416H12.3117C11.67 17.8416 11.145 17.3166 11.145 16.675C11.145 16.0333 11.67 15.5083 12.3117 15.5083C12.965 15.5083 13.49 16.0333 13.49 16.675C13.49 17.3166 12.965 17.8416 12.3234 17.8416ZM20.49 17.8416H20.4784C19.8367 17.8416 19.3117 17.3166 19.3117 16.675C19.3117 16.0333 19.8367 15.5083 20.4784 15.5083C21.1317 15.5083 21.6567 16.0333 21.6567 16.675C21.6567 17.3166 21.1317 17.8416 20.49 17.8416Z" fill="#8347AD"/>
    </svg>
    