<svg width="28" height="29" viewBox="0 0 28 29" fill="none" xmlns="http://www.w3.org/2000/svg">
    <path opacity="0.4" d="M24.9317 13.5256V20.514C24.9317 23.734 22.3184 26.3473 19.0984 26.3473H8.90169C5.68169 26.3473 3.06836 23.734 3.06836 20.514V13.6073C3.95503 14.564 5.21503 15.1123 6.58003 15.1123C8.05003 15.1123 9.46169 14.3773 10.3484 13.199C11.1417 14.3773 12.495 15.1123 14 15.1123C15.4934 15.1123 16.8234 14.4123 17.6284 13.2456C18.5267 14.4006 19.915 15.1123 21.3617 15.1123C22.7734 15.1123 24.0567 14.5406 24.9317 13.5256Z" fill="#FF5100"/>
    <path d="M17.4886 1.69556H10.4886L9.62523 10.2822C9.55523 11.0756 9.6719 11.8222 9.96357 12.4989C10.6402 14.0856 12.2269 15.1122 14.0002 15.1122C15.7969 15.1122 17.3486 14.1089 18.0486 12.5106C18.2586 12.0089 18.3869 11.4256 18.3986 10.8306V10.6089L17.4886 1.69556Z" fill="#FF5100"/>
    <path opacity="0.6" d="M26.0867 9.88556L25.7484 6.65389C25.2584 3.13056 23.6601 1.69556 20.2417 1.69556H15.7617L16.6251 10.4456C16.6367 10.5622 16.6484 10.6906 16.6484 10.9122C16.7184 11.5189 16.9051 12.0789 17.1851 12.5806C18.0251 14.1206 19.6584 15.1122 21.3617 15.1122C22.9134 15.1122 24.3134 14.4239 25.1884 13.2106C25.8884 12.2772 26.2034 11.0989 26.0867 9.88556Z" fill="#FF5100"/>
    <path opacity="0.6" d="M7.68841 1.69556C4.25841 1.69556 2.67175 3.13056 2.17008 6.68889L1.85508 9.89722C1.73841 11.1456 2.07675 12.3589 2.81175 13.3039C3.69841 14.4589 5.06341 15.1122 6.58008 15.1122C8.28341 15.1122 9.91675 14.1206 10.7451 12.6039C11.0484 12.0789 11.2467 11.4722 11.3051 10.8422L12.2151 1.70722H7.68841V1.69556Z" fill="#FF5100"/>
    <path d="M13.2418 19.6739C11.7601 19.8256 10.6401 21.0856 10.6401 22.5789V26.3473H17.3485V22.9873C17.3601 20.5489 15.9251 19.3939 13.2418 19.6739Z" fill="#FF5100"/>
    </svg>
    