<svg width="32" height="32" viewBox="0 0 32 32" fill="none" xmlns="http://www.w3.org/2000/svg">
<path d="M16.6887 23.0317C19.1617 23.0317 21.1665 21.027 21.1665 18.5539C21.1665 16.0809 19.1617 14.0762 16.6887 14.0762C14.2157 14.0762 12.2109 16.0809 12.2109 18.5539C12.2109 21.027 14.2157 23.0317 16.6887 23.0317Z" fill="#00C4B3"/>
<path d="M27.7586 9.53905H24.2534C24.029 9.5391 23.8102 9.46851 23.6281 9.33728C23.4461 9.20604 23.3099 9.02082 23.239 8.80788L22.9012 7.79343C22.7592 7.36774 22.4868 6.99754 22.1226 6.73527C21.7585 6.473 21.3211 6.33197 20.8723 6.33215H12.1955C11.7468 6.33227 11.3095 6.47356 10.9456 6.73602C10.5816 6.99847 10.3095 7.36878 10.1677 7.7945L9.82988 8.80788C9.75896 9.02082 9.6228 9.20604 9.44072 9.33728C9.25864 9.46851 9.03988 9.5391 8.81543 9.53905H5.31029C4.74328 9.53905 4.19949 9.7643 3.79855 10.1652C3.39761 10.5662 3.17236 11.11 3.17236 11.677V24.5046C3.17236 25.0716 3.39761 25.6154 3.79855 26.0163C4.19949 26.4173 4.74328 26.6425 5.31029 26.6425H27.7586C28.3256 26.6425 28.8694 26.4173 29.2703 26.0163C29.6713 25.6154 29.8965 25.0716 29.8965 24.5046V11.677C29.8965 11.11 29.6713 10.5662 29.2703 10.1652C28.8694 9.7643 28.3256 9.53905 27.7586 9.53905ZM16.5344 24.5046C13.2933 24.5046 10.6551 21.8664 10.6551 18.6253C10.6551 15.3842 13.2933 12.7459 16.5344 12.7459C19.7755 12.7459 22.4137 15.3842 22.4137 18.6253C22.4137 21.8664 19.7755 24.5046 16.5344 24.5046ZM22.9482 13.8149C22.6647 13.8149 22.3928 13.7023 22.1924 13.5018C21.9919 13.3013 21.8793 13.0295 21.8793 12.7459C21.8793 12.4624 21.9919 12.1905 22.1924 11.9901C22.3928 11.7896 22.6647 11.677 22.9482 11.677C23.2317 11.677 23.5036 11.7896 23.7041 11.9901C23.9046 12.1905 24.0172 12.4624 24.0172 12.7459C24.0172 13.0295 23.9046 13.3013 23.7041 13.5018C23.5036 13.7023 23.2317 13.8149 22.9482 13.8149Z" fill="#00C4B3"/>
<path d="M6.37945 8.47009H4.24151C4.09976 8.47009 3.96381 8.41378 3.86358 8.31354C3.76334 8.21331 3.70703 8.07736 3.70703 7.93561C3.70703 7.79385 3.76334 7.6579 3.86358 7.55767C3.96381 7.45743 4.09976 7.40112 4.24151 7.40112H6.37945C6.5212 7.40112 6.65715 7.45743 6.75738 7.55767C6.85762 7.6579 6.91393 7.79385 6.91393 7.93561C6.91393 8.07736 6.85762 8.21331 6.75738 8.31354C6.65715 8.41378 6.5212 8.47009 6.37945 8.47009Z" fill="#00C4B3"/>
</svg>
