<svg width="24" height="24" viewBox="0 0 24 24" fill="none" xmlns="http://www.w3.org/2000/svg">
<path d="M21.75 8.00057C21.75 8.41057 21.41 8.75057 21 8.75057H3C2.59 8.75057 2.25 8.41057 2.25 8.00057C2.25 7.59057 2.59 7.25057 3 7.25057H4.02L4.4 5.44057C4.76 3.69057 5.51 2.08057 8.49 2.08057H15.51C18.49 2.08057 19.24 3.69057 19.6 5.44057L19.98 7.25057H21C21.41 7.25057 21.75 7.59057 21.75 8.00057Z" fill="#FF5100"/>
<path d="M22.1796 13.6605C22.0296 12.0105 21.5896 10.2505 18.3796 10.2505H5.6196C2.4096 10.2505 1.9796 12.0105 1.8196 13.6605L1.2596 19.7505C1.1896 20.5105 1.4396 21.2705 1.9596 21.8405C2.4896 22.4205 3.2396 22.7505 4.0396 22.7505H5.9196C7.5396 22.7505 7.8496 21.8205 8.0496 21.2105L8.2496 20.6105C8.4796 19.9205 8.5396 19.7505 9.4396 19.7505H14.5596C15.4596 19.7505 15.4896 19.8505 15.7496 20.6105L15.9496 21.2105C16.1496 21.8205 16.4596 22.7505 18.0796 22.7505H19.9596C20.7496 22.7505 21.5096 22.4205 22.0396 21.8405C22.5596 21.2705 22.8096 20.5105 22.7396 19.7505L22.1796 13.6605ZM8.9996 15.7505H5.9996C5.5896 15.7505 5.2496 15.4105 5.2496 15.0005C5.2496 14.5905 5.5896 14.2505 5.9996 14.2505H8.9996C9.4096 14.2505 9.7496 14.5905 9.7496 15.0005C9.7496 15.4105 9.4096 15.7505 8.9996 15.7505ZM17.9996 15.7505H14.9996C14.5896 15.7505 14.2496 15.4105 14.2496 15.0005C14.2496 14.5905 14.5896 14.2505 14.9996 14.2505H17.9996C18.4096 14.2505 18.7496 14.5905 18.7496 15.0005C18.7496 15.4105 18.4096 15.7505 17.9996 15.7505Z" fill="#FF5100"/>
</svg>
