<svg width="25" height="25" viewBox="0 0 25 25" fill="none" xmlns="http://www.w3.org/2000/svg">
<g id="vuesax/outline/card-receive">
<g id="card-receive">
<path id="Vector" d="M15.1958 9.90967H2.6958C2.2858 9.90967 1.9458 9.56967 1.9458 9.15967C1.9458 8.74967 2.2858 8.40967 2.6958 8.40967H15.1958C15.6058 8.40967 15.9458 8.74967 15.9458 9.15967C15.9458 9.56967 15.6058 9.90967 15.1958 9.90967Z" fill="#1D1F1F"/>
<path id="Vector_2" d="M8.6958 17.9097H6.6958C6.2858 17.9097 5.9458 17.5697 5.9458 17.1597C5.9458 16.7497 6.2858 16.4097 6.6958 16.4097H8.6958C9.1058 16.4097 9.4458 16.7497 9.4458 17.1597C9.4458 17.5697 9.1058 17.9097 8.6958 17.9097Z" fill="#1D1F1F"/>
<path id="Vector_3" d="M15.1958 17.9097H11.1958C10.7858 17.9097 10.4458 17.5697 10.4458 17.1597C10.4458 16.7497 10.7858 16.4097 11.1958 16.4097H15.1958C15.6058 16.4097 15.9458 16.7497 15.9458 17.1597C15.9458 17.5697 15.6058 17.9097 15.1958 17.9097Z" fill="#1D1F1F"/>
<path id="Vector_4" d="M18.2558 21.9097H7.1358C3.1558 21.9097 1.9458 20.7097 1.9458 16.7697V8.54967C1.9458 4.60967 3.1558 3.40967 7.1358 3.40967H15.1958C15.6058 3.40967 15.9458 3.74967 15.9458 4.15967C15.9458 4.56967 15.6058 4.90967 15.1958 4.90967H7.1358C3.9958 4.90967 3.4458 5.44967 3.4458 8.54967V16.7597C3.4458 19.8597 3.9958 20.3997 7.1358 20.3997H18.2458C21.3858 20.3997 21.9358 19.8597 21.9358 16.7597V14.6797C21.9358 14.2697 22.2758 13.9297 22.6858 13.9297C23.0958 13.9297 23.4358 14.2697 23.4358 14.6797V16.7597C23.4458 20.7097 22.2358 21.9097 18.2558 21.9097Z" fill="#1D1F1F"/>
<path id="Vector_5" d="M20.6958 10.9097C20.5958 10.9097 20.5058 10.8897 20.4058 10.8497C20.1258 10.7297 19.9458 10.4597 19.9458 10.1597V4.15967C19.9458 3.74967 20.2858 3.40967 20.6958 3.40967C21.1058 3.40967 21.4458 3.74967 21.4458 4.15967V8.34967L22.1658 7.62967C22.4558 7.33967 22.9358 7.33967 23.2258 7.62967C23.5158 7.91967 23.5158 8.39967 23.2258 8.68967L21.2258 10.6897C21.0858 10.8297 20.8958 10.9097 20.6958 10.9097Z" fill="#1D1F1F"/>
<path id="Vector_6" d="M20.6957 10.9096C20.5057 10.9096 20.3157 10.8396 20.1657 10.6896L18.1657 8.68961C17.8757 8.39961 17.8757 7.91961 18.1657 7.62961C18.4557 7.33961 18.9357 7.33961 19.2257 7.62961L21.2257 9.62961C21.5157 9.91961 21.5157 10.3996 21.2257 10.6896C21.0757 10.8396 20.8857 10.9096 20.6957 10.9096Z" fill="#1D1F1F"/>
</g>
</g>
</svg>
