<svg width="28" height="28" viewBox="0 0 28 28" fill="none" xmlns="http://www.w3.org/2000/svg">
    <path opacity="0.4" d="M25.6666 9.06855V10.5035H2.33325V8.80021C2.33325 6.12855 4.50325 3.97021 7.17492 3.97021H18.6666V6.96855C18.6666 8.45021 19.5533 9.33688 21.0349 9.33688H24.4649C24.9316 9.33688 25.3283 9.25521 25.6666 9.06855Z" fill="#6BDDD3"/>
    <path d="M2.33325 10.5034V19.2067C2.33325 21.8784 4.50325 24.0368 7.17492 24.0368H20.8249C23.4966 24.0368 25.6666 21.8784 25.6666 19.2067V10.5034H2.33325ZM9.33325 20.1284H6.99992C6.52158 20.1284 6.12492 19.7318 6.12492 19.2534C6.12492 18.7751 6.52158 18.3784 6.99992 18.3784H9.33325C9.81158 18.3784 10.2083 18.7751 10.2083 19.2534C10.2083 19.7318 9.81158 20.1284 9.33325 20.1284ZM16.9166 20.1284H12.2499C11.7716 20.1284 11.3749 19.7318 11.3749 19.2534C11.3749 18.7751 11.7716 18.3784 12.2499 18.3784H16.9166C17.3949 18.3784 17.7916 18.7751 17.7916 19.2534C17.7916 19.7318 17.3949 20.1284 16.9166 20.1284Z" fill="#6BDDD3"/>
    <path d="M24.4651 1.16992H21.0351C19.5534 1.16992 18.6667 2.05659 18.6667 3.53825V6.96825C18.6667 8.44992 19.5534 9.33659 21.0351 9.33659H24.4651C25.9467 9.33659 26.8334 8.44992 26.8334 6.96825V3.53825C26.8334 2.05659 25.9467 1.16992 24.4651 1.16992ZM25.2351 4.02826L22.4701 7.25992C22.3651 7.38825 22.2017 7.46992 22.0384 7.46992C22.0267 7.46992 22.0267 7.46992 22.0151 7.46992C21.8517 7.46992 21.7001 7.41159 21.5834 7.29492L20.3001 6.03492C20.0667 5.80159 20.0667 5.41659 20.3001 5.18326C20.5334 4.94992 20.9184 4.93826 21.1517 5.18326L21.9684 5.98826L24.3017 3.25826C24.5234 3.00159 24.8967 2.97826 25.1534 3.18826C25.4217 3.39826 25.4451 3.78326 25.2351 4.02826Z" fill="#6BDDD3"/>
    </svg>
    