<svg width="32" height="32" viewBox="0 0 32 32" fill="none" xmlns="http://www.w3.org/2000/svg">
<path opacity="0.4" d="M29.3337 12V21.9467C29.3337 25 26.8537 27.4667 23.8003 27.4667H8.20033C5.14699 27.4667 2.66699 25 2.66699 21.9467V12H29.3337Z" fill="#00C4B3"/>
<path d="M29.3337 10.0534V12.0001H2.66699V10.0534C2.66699 7.00011 5.14699 4.53345 8.20033 4.53345H23.8003C26.8537 4.53345 29.3337 7.00011 29.3337 10.0534Z" fill="#00C4B3"/>
<path d="M10.6667 23H8C7.45333 23 7 22.5467 7 22C7 21.4533 7.45333 21 8 21H10.6667C11.2133 21 11.6667 21.4533 11.6667 22C11.6667 22.5467 11.2133 23 10.6667 23Z" fill="#00C4B3"/>
<path d="M19.3333 23H14C13.4533 23 13 22.5467 13 22C13 21.4533 13.4533 21 14 21H19.3333C19.88 21 20.3333 21.4533 20.3333 22C20.3333 22.5467 19.88 23 19.3333 23Z" fill="#00C4B3"/>
</svg>
