<svg width="32" height="32" viewBox="0 0 32 32" fill="none" xmlns="http://www.w3.org/2000/svg">
<path d="M27.9597 10.6666H24.0397C22.3463 10.6666 21.333 9.65325 21.333 7.95992V4.03992C21.333 2.34659 22.3463 1.33325 24.0397 1.33325H27.9597C29.653 1.33325 30.6663 2.34659 30.6663 4.03992V7.95992C30.6663 9.65325 29.653 10.6666 27.9597 10.6666ZM28.253 6.25325C28.093 6.09325 27.8797 6.01325 27.6663 6.01325C27.453 6.01325 27.2397 6.09325 27.0797 6.25325L26.8397 6.49325V3.50659C26.8397 3.03992 26.4663 2.66659 25.9997 2.66659C25.533 2.66659 25.1597 3.03992 25.1597 3.50659V6.49325L24.9197 6.25325C24.5997 5.93325 24.0663 5.93325 23.7463 6.25325C23.4263 6.57325 23.4263 7.10659 23.7463 7.42659L25.413 9.09325C25.4797 9.15992 25.573 9.21325 25.6663 9.25325C25.693 9.26659 25.7197 9.26659 25.7463 9.27992C25.813 9.30659 25.8797 9.31992 25.9597 9.31992C25.9863 9.31992 26.013 9.31992 26.0397 9.31992C26.133 9.31992 26.213 9.30659 26.3063 9.26659C26.3197 9.26659 26.3197 9.26659 26.333 9.26659C26.4263 9.22659 26.5063 9.17325 26.573 9.10659C26.5863 9.09325 26.5863 9.09325 26.5997 9.09325L28.2663 7.42659C28.5863 7.10659 28.5863 6.57325 28.253 6.25325Z" fill="#8DC168"/>
<path opacity="0.4" d="M29.3337 10.3601V12.0001H2.66699V10.0534C2.66699 7.00011 5.14699 4.53345 8.20033 4.53345H21.3337V7.96011C21.3337 9.65345 22.347 10.6668 24.0403 10.6668H27.9603C28.4937 10.6668 28.947 10.5734 29.3337 10.3601Z" fill="#8DC168"/>
<path d="M2.66699 12V21.9467C2.66699 25 5.14699 27.4667 8.20033 27.4667H23.8003C26.8537 27.4667 29.3337 25 29.3337 21.9467V12H2.66699ZM10.667 23H8.00033C7.45366 23 7.00033 22.5467 7.00033 22C7.00033 21.4533 7.45366 21 8.00033 21H10.667C11.2137 21 11.667 21.4533 11.667 22C11.667 22.5467 11.2137 23 10.667 23ZM19.3337 23H14.0003C13.4537 23 13.0003 22.5467 13.0003 22C13.0003 21.4533 13.4537 21 14.0003 21H19.3337C19.8803 21 20.3337 21.4533 20.3337 22C20.3337 22.5467 19.8803 23 19.3337 23Z" fill="#8DC168"/>
</svg>
