<svg id="cashback_cont" xmlns="http://www.w3.org/2000/svg" width="40" height="40" viewBox="0 0 40 40">
  <circle id="Ellipse_1102" data-name="Ellipse 1102" cx="20" cy="20" r="20" fill="#fff"/>
  <g id="cashback_inner" transform="translate(8 8)">
    <g id="vuesax_bulk_money-3" data-name="vuesax/bulk/money-3">
      <g id="money-3">
        <path id="Vector" d="M0,0H24V24H0Z" fill="none" opacity="0"/>
        <path id="Vector-2" data-name="Vector" d="M15,17H5c-3,0-5-1.5-5-5V5C0,1.5,2,0,5,0H15c3,0,5,1.5,5,5v7C20,15.5,18,17,15,17Z" transform="translate(2 3.5)" fill="#fd9f13" opacity="0.4"/>
        <path id="Vector-3" data-name="Vector" d="M6,3A3,3,0,1,1,3,0,3,3,0,0,1,6,3Z" transform="translate(9 9)" fill="#fd9f13"/>
        <g id="Group">
          <path id="Vector-4" data-name="Vector" d="M3.75,1.5h-3A.755.755,0,0,1,0,.75.755.755,0,0,1,.75,0h3A.755.755,0,0,1,4.5.75.755.755,0,0,1,3.75,1.5Z" transform="translate(15.25 6.25)" fill="#fd9f13"/>
        </g>
        <g id="Group-2" data-name="Group">
          <path id="Vector-5" data-name="Vector" d="M3.75,1.5h-3A.755.755,0,0,1,0,.75.755.755,0,0,1,.75,0h3A.755.755,0,0,1,4.5.75.755.755,0,0,1,3.75,1.5Z" transform="translate(4.25 16.25)" fill="#fd9f13"/>
        </g>
      </g>
    </g>
  </g>
</svg>
