<svg width="25" height="25" viewBox="0 0 25 25" fill="none" xmlns="http://www.w3.org/2000/svg">
<g id="vuesax/outline/moneys">
<g id="moneys">
<path id="Vector" d="M15.586 18.8796H6.79599C6.27599 18.8796 5.78598 18.8297 5.34598 18.7297C5.11598 18.6997 4.83599 18.6196 4.54599 18.5096C3.21599 18.0096 1.646 16.7797 1.646 13.7197V8.56964C1.646 5.29964 3.52599 3.41968 6.79599 3.41968H15.586C18.346 3.41968 20.126 4.73965 20.606 7.13965C20.696 7.57965 20.736 8.04964 20.736 8.56964V13.7197C20.736 17.0097 18.866 18.8796 15.586 18.8796ZM6.80597 4.9397C4.34597 4.9397 3.15598 6.12966 3.15598 8.58966V13.7397C3.15598 15.5297 3.78599 16.6297 5.07599 17.1197C5.27599 17.1897 5.466 17.2397 5.646 17.2697C6.026 17.3497 6.39597 17.3896 6.80597 17.3896H15.596C18.056 17.3896 19.246 16.1997 19.246 13.7397V8.58966C19.246 8.16966 19.216 7.79966 19.146 7.45966C18.806 5.75966 17.646 4.9397 15.596 4.9397H6.80597Z" fill="#1D1F1F"/>
<path id="Vector_2" d="M18.5859 21.8795H9.79589C8.94589 21.8795 8.18588 21.7595 7.53588 21.5095C6.06588 20.9595 5.10587 19.7995 4.77587 18.1395C4.72587 17.8895 4.80589 17.6295 4.98589 17.4595C5.16589 17.2795 5.4259 17.2095 5.6759 17.2695C6.0059 17.3395 6.37589 17.3795 6.79589 17.3795H15.5859C18.0459 17.3795 19.2359 16.1895 19.2359 13.7295V8.57951C19.2359 8.15951 19.2059 7.78951 19.1359 7.44951C19.0859 7.19951 19.1659 6.94951 19.3359 6.76951C19.5159 6.58951 19.7659 6.5095 20.0159 6.5695C22.4159 7.0595 23.7359 8.83951 23.7359 11.5795V16.7295C23.7359 20.0095 21.8659 21.8795 18.5859 21.8795ZM6.6159 18.8795C6.9359 19.4595 7.41589 19.8695 8.07589 20.1095C8.55589 20.2895 9.13587 20.3795 9.80587 20.3795H18.5959C21.0559 20.3795 22.2459 19.1895 22.2459 16.7295V11.5795C22.2459 9.99951 21.7559 8.94952 20.7459 8.39952C20.7459 8.45952 20.7459 8.51951 20.7459 8.57951V13.7295C20.7459 16.9995 18.8659 18.8795 15.5959 18.8795H6.80587C6.73587 18.8795 6.6759 18.8795 6.6159 18.8795Z" fill="#1D1F1F"/>
<path id="Vector_3" d="M11.1957 14.5496C9.32568 14.5496 7.80566 13.0295 7.80566 11.1595C7.80566 9.28955 9.32568 7.76953 11.1957 7.76953C13.0657 7.76953 14.5857 9.28955 14.5857 11.1595C14.5857 13.0295 13.0657 14.5496 11.1957 14.5496ZM11.1957 9.26953C10.1557 9.26953 9.30566 10.1195 9.30566 11.1595C9.30566 12.1995 10.1557 13.0496 11.1957 13.0496C12.2357 13.0496 13.0857 12.1995 13.0857 11.1595C13.0857 10.1195 12.2357 9.26953 11.1957 9.26953Z" fill="#1D1F1F"/>
<path id="Vector_4" d="M5.47607 14.1097C5.06607 14.1097 4.72607 13.7697 4.72607 13.3597V8.95972C4.72607 8.54972 5.06607 8.20972 5.47607 8.20972C5.88607 8.20972 6.22607 8.54972 6.22607 8.95972V13.3597C6.22607 13.7697 5.89607 14.1097 5.47607 14.1097Z" fill="#1D1F1F"/>
<path id="Vector_5" d="M16.9058 14.1097C16.4958 14.1097 16.1558 13.7697 16.1558 13.3597V8.95972C16.1558 8.54972 16.4958 8.20972 16.9058 8.20972C17.3158 8.20972 17.6558 8.54972 17.6558 8.95972V13.3597C17.6558 13.7697 17.3258 14.1097 16.9058 14.1097Z" fill="#1D1F1F"/>
</g>
</g>
</svg>
