<svg width="26" height="26" viewBox="0 0 26 26" fill="none" xmlns="http://www.w3.org/2000/svg">
<path d="M5.41663 10.8333H7.58329C9.74996 10.8333 10.8333 9.74999 10.8333 7.58332V5.41666C10.8333 3.24999 9.74996 2.16666 7.58329 2.16666H5.41663C3.24996 2.16666 2.16663 3.24999 2.16663 5.41666V7.58332C2.16663 9.74999 3.24996 10.8333 5.41663 10.8333Z" stroke="#292D32" stroke-width="1.5" stroke-miterlimit="10" stroke-linecap="round" stroke-linejoin="round"/>
<path d="M18.4166 10.8333H20.5833C22.75 10.8333 23.8333 9.74999 23.8333 7.58332V5.41666C23.8333 3.24999 22.75 2.16666 20.5833 2.16666H18.4166C16.25 2.16666 15.1666 3.24999 15.1666 5.41666V7.58332C15.1666 9.74999 16.25 10.8333 18.4166 10.8333Z" stroke="#292D32" stroke-width="1.5" stroke-miterlimit="10" stroke-linecap="round" stroke-linejoin="round"/>
<path d="M18.4166 23.8333H20.5833C22.75 23.8333 23.8333 22.75 23.8333 20.5833V18.4167C23.8333 16.25 22.75 15.1667 20.5833 15.1667H18.4166C16.25 15.1667 15.1666 16.25 15.1666 18.4167V20.5833C15.1666 22.75 16.25 23.8333 18.4166 23.8333Z" stroke="#292D32" stroke-width="1.5" stroke-miterlimit="10" stroke-linecap="round" stroke-linejoin="round"/>
<path d="M5.41663 23.8333H7.58329C9.74996 23.8333 10.8333 22.75 10.8333 20.5833V18.4167C10.8333 16.25 9.74996 15.1667 7.58329 15.1667H5.41663C3.24996 15.1667 2.16663 16.25 2.16663 18.4167V20.5833C2.16663 22.75 3.24996 23.8333 5.41663 23.8333Z" stroke="#292D32" stroke-width="1.5" stroke-miterlimit="10" stroke-linecap="round" stroke-linejoin="round"/>
</svg>
