<svg id="changepin_cont" xmlns="http://www.w3.org/2000/svg" width="40" height="40" viewBox="0 0 40 40">
  <circle id="Ellipse_1102" data-name="Ellipse 1102" cx="20" cy="20" r="20" fill="#fff"/>
  <g id="change_pin_inner" transform="translate(8 8)">
    <g id="vuesax_bulk_key-square" data-name="vuesax/bulk/key-square">
      <g id="key-square">
        <path id="Vector" d="M14.19,0H5.81C2.17,0,0,2.17,0,5.81v8.37C0,17.83,2.17,20,5.81,20h8.37c3.64,0,5.81-2.17,5.81-5.81V5.81C20,2.17,17.83,0,14.19,0Z" transform="translate(2 2)" fill="#6daf3d" opacity="0.4"/>
        <path id="Vector-2" data-name="Vector" d="M8.888,1.1A3.785,3.785,0,0,0,2.6,4.9L.248,7.253a.992.992,0,0,0-.24.74l.15,1.09a.938.938,0,0,0,.75.75L2,9.993a.96.96,0,0,0,.74-.25l.41-.41a.242.242,0,0,0,0-.35l-.97-.97a.375.375,0,0,1,.53-.53l.97.97a.261.261,0,0,0,.35,0L5.088,7.4a3.787,3.787,0,0,0,3.8-6.3Zm-2.64,3.89A1.25,1.25,0,1,1,7.5,3.743,1.25,1.25,0,0,1,6.248,4.993Z" transform="translate(7.002 7.007)" fill="#6daf3d"/>
        <path id="Vector-3" data-name="Vector" d="M0,0H24V24H0Z" fill="none" opacity="0"/>
      </g>
    </g>
  </g>
</svg>
