<svg id="Buttons_-_Close" data-name="Buttons - Close" xmlns="http://www.w3.org/2000/svg" width="30" height="30" viewBox="0 0 30 30">
  <ellipse id="Oval" cx="15" cy="15" rx="15" ry="15" fill="#e8eaed"/>
  <path id="_" data-name="􀅾" d="M-5.078-.547a1.031,1.031,0,0,0,1.422.008L0-4.2,3.656-.547A1.016,1.016,0,0,0,5.078-.555a1.014,1.014,0,0,0,.008-1.414L1.43-5.633,5.086-9.289A1.014,1.014,0,0,0,5.078-10.7a1.024,1.024,0,0,0-1.422-.008L0-7.055l-3.656-3.664a1.031,1.031,0,0,0-1.422.008,1.031,1.031,0,0,0-.008,1.422l3.664,3.656L-5.086-1.969A1.031,1.031,0,0,0-5.078-.547Z" transform="translate(15 21)" fill="rgba(60,60,67,0.6)"/>
</svg>
