<svg width="24" height="25" viewBox="0 0 24 25" fill="none" xmlns="http://www.w3.org/2000/svg">
<path d="M18 3.5H6C3.79 3.5 2 5.28 2 7.47V17.53C2 19.72 3.79 21.5 6 21.5H18C20.21 21.5 22 19.72 22 17.53V7.47C22 5.28 20.21 3.5 18 3.5Z" fill="#B6B8B8"/>
<path d="M19 9.25H14C13.59 9.25 13.25 8.91 13.25 8.5C13.25 8.09 13.59 7.75 14 7.75H19C19.41 7.75 19.75 8.09 19.75 8.5C19.75 8.91 19.41 9.25 19 9.25Z" fill="#1D1F1F"/>
<path d="M19 13.25H15C14.59 13.25 14.25 12.91 14.25 12.5C14.25 12.09 14.59 11.75 15 11.75H19C19.41 11.75 19.75 12.09 19.75 12.5C19.75 12.91 19.41 13.25 19 13.25Z" fill="#1D1F1F"/>
<path d="M19 17.25H17C16.59 17.25 16.25 16.91 16.25 16.5C16.25 16.09 16.59 15.75 17 15.75H19C19.41 15.75 19.75 16.09 19.75 16.5C19.75 16.91 19.41 17.25 19 17.25Z" fill="#1D1F1F"/>
<path d="M8.50043 12.29C9.77621 12.29 10.8104 11.2558 10.8104 9.98004C10.8104 8.70427 9.77621 7.67004 8.50043 7.67004C7.22465 7.67004 6.19043 8.70427 6.19043 9.98004C6.19043 11.2558 7.22465 12.29 8.50043 12.29Z" fill="#1D1F1F"/>
<path d="M9.29954 13.61C8.76954 13.56 8.21954 13.56 7.68954 13.61C6.00954 13.77 4.65954 15.1 4.49954 16.78C4.48954 16.92 4.52954 17.06 4.62954 17.16C4.72954 17.26 4.85954 17.33 4.99954 17.33H11.9995C12.1395 17.33 12.2795 17.27 12.3695 17.17C12.4595 17.07 12.5095 16.93 12.4995 16.79C12.3295 15.1 10.9895 13.77 9.29954 13.61Z" fill="#1D1F1F"/>
</svg>
