<svg width="40" height="41" viewBox="0 0 40 41" fill="none" xmlns="http://www.w3.org/2000/svg">
<path d="M30 0.25H10C4.47715 0.25 0 4.72715 0 10.25V30.25C0 35.7728 4.47715 40.25 10 40.25H30C35.5228 40.25 40 35.7728 40 30.25V10.25C40 4.72715 35.5228 0.25 30 0.25Z" fill="#F4F7F7"/>
<path d="M28.7892 29.7734H10.6902C10.496 29.772 10.3101 29.6942 10.1728 29.5568C10.0355 29.4194 9.95787 29.2334 9.9567 29.0392C9.95807 28.8451 10.0358 28.6593 10.1731 28.522C10.3103 28.3848 10.4961 28.307 10.6902 28.3057H28.7892C28.9833 28.307 29.1691 28.3848 29.3063 28.522C29.4436 28.6593 29.5213 28.8451 29.5227 29.0392C29.5215 29.2334 29.4439 29.4194 29.3066 29.5568C29.1693 29.6942 28.9834 29.772 28.7892 29.7734Z" fill="#1D1F1F"/>
<path opacity="0.4" d="M28.1434 21.6533L21.0702 28.7265C20.742 29.0563 20.3521 29.3182 19.9227 29.4972C19.4933 29.6762 19.0328 29.7688 18.5676 29.7697C18.1023 29.7706 17.6415 29.6798 17.2114 29.5025C16.7813 29.3252 16.3903 29.0648 16.0609 28.7363L11.5512 24.2265L23.6434 12.1343L28.1532 16.644C28.4817 16.9734 28.7421 17.3644 28.9194 17.7945C29.0967 18.2246 29.1875 18.6854 29.1866 19.1507C29.1857 19.6159 29.0931 20.0764 28.9141 20.5058C28.7351 20.9352 28.4732 21.3251 28.1434 21.6533Z" fill="#1D1F1F"/>
<path d="M23.6427 12.1341L11.5414 24.2264L10.6512 23.3354C10.3226 23.006 10.0623 22.615 9.88494 22.1849C9.70761 21.7548 9.61681 21.294 9.61771 20.8287C9.61862 20.3635 9.71122 19.903 9.89022 19.4736C10.0692 19.0442 10.3311 18.6543 10.6609 18.3261L17.7341 11.2529C18.0623 10.9233 18.4522 10.6615 18.8816 10.4827C19.311 10.3038 19.7714 10.2113 20.2365 10.2105C20.7017 10.2096 21.1624 10.3005 21.5924 10.4778C22.0224 10.6551 22.4133 10.9154 22.7427 11.2439L23.6427 12.1341Z" fill="#1D1F1F"/>
<path d="M20.6104 25.4686L19.2897 26.7893C19.157 26.9118 18.9821 26.9782 18.8016 26.9746C18.6211 26.971 18.4489 26.8977 18.3212 26.77C18.1936 26.6424 18.1203 26.4702 18.1167 26.2897C18.1131 26.1092 18.1795 25.9343 18.3019 25.8016L19.6227 24.4808C19.7554 24.3583 19.9303 24.292 20.1108 24.2955C20.2913 24.2991 20.4635 24.3725 20.5911 24.5001C20.7188 24.6278 20.7921 24.8 20.7957 24.9805C20.7993 25.161 20.7329 25.3359 20.6104 25.4686Z" fill="#1D1F1F"/>
<path d="M24.8952 21.1828L22.2634 23.8145C22.1308 23.937 21.9558 24.0034 21.7753 23.9998C21.5948 23.9962 21.4227 23.9229 21.295 23.7952C21.1673 23.6675 21.094 23.4954 21.0904 23.3149C21.0868 23.1344 21.1532 22.9594 21.2757 22.8268L23.9074 20.195C23.9722 20.13 24.0491 20.0783 24.1339 20.0431C24.2186 20.0079 24.3095 19.9897 24.4013 19.9897C24.4931 19.9897 24.584 20.0079 24.6687 20.0431C24.7535 20.0783 24.8304 20.13 24.8952 20.195C25.0223 20.328 25.0932 20.5049 25.0932 20.6889C25.0932 20.8729 25.0223 21.0498 24.8952 21.1828Z" fill="#1D1F1F"/>
</svg>
