<svg width="54" height="54" viewBox="0 0 54 54" fill="none" xmlns="http://www.w3.org/2000/svg">
<rect width="54" height="54" rx="12" fill="#F4F7F7"/>
<g opacity="0.5">
<path d="M18.25 30.75C15.4875 30.75 13.25 32.9875 13.25 35.75C13.25 36.6875 13.5125 37.575 13.975 38.325C14.8375 39.775 16.425 40.75 18.25 40.75C20.075 40.75 21.6625 39.775 22.525 38.325C22.9875 37.575 23.25 36.6875 23.25 35.75C23.25 32.9875 21.0125 30.75 18.25 30.75ZM20.7125 35.3375L18.05 37.8C17.875 37.9625 17.6375 38.05 17.4125 38.05C17.175 38.05 16.9375 37.9625 16.75 37.775L15.5125 36.5375C15.15 36.175 15.15 35.575 15.5125 35.2125C15.875 34.85 16.475 34.85 16.8375 35.2125L17.4375 35.8125L19.4375 33.9625C19.8125 33.6125 20.4125 33.6375 20.7625 34.0125C21.1125 34.3875 21.0875 34.9875 20.7125 35.3375Z" fill="#15171A"/>
<path d="M34.1876 20.8125C33.8876 20.7625 33.5751 20.75 33.2501 20.75H20.7501C20.4001 20.75 20.0625 20.775 19.7375 20.825C19.9125 20.475 20.1626 20.15 20.4626 19.85L24.5251 15.775C26.2376 14.075 29.0126 14.075 30.725 15.775L32.9125 17.9874C33.7126 18.7749 34.1376 19.775 34.1876 20.8125Z" fill="#15171A"/>
<path opacity="0.4" d="M39.5 27V33.25C39.5 37 37 39.5 33.25 39.5H21.5375C21.925 39.175 22.2625 38.775 22.525 38.325C22.9875 37.575 23.25 36.6875 23.25 35.75C23.25 32.9875 21.0125 30.75 18.25 30.75C16.75 30.75 15.4125 31.4125 14.5 32.45V27C14.5 23.6 16.55 21.225 19.7375 20.825C20.0625 20.775 20.4 20.75 20.75 20.75H33.25C33.575 20.75 33.8875 20.7625 34.1875 20.8125C37.4125 21.1875 39.5 23.575 39.5 27Z" fill="#15171A"/>
<path d="M39.5 27.625H35.75C34.375 27.625 33.25 28.75 33.25 30.125C33.25 31.5 34.375 32.625 35.75 32.625H39.5" fill="#15171A"/>
</g>
</svg>
