<svg width="24" height="24" viewBox="0 0 24 24" fill="none" xmlns="http://www.w3.org/2000/svg">
<g id="arrow-swap-horizontal/outline">
<g id="vuesax/outline/arrow-swap-horizontal">
<g id="arrow-swap-horizontal">
<path id="Vector" d="M15.4899 3.23918C15.3914 3.23882 15.2938 3.2581 15.2028 3.29587C15.1118 3.33364 15.0292 3.38916 14.9599 3.45918C14.8204 3.60031 14.7422 3.79075 14.7422 3.98918C14.7422 4.18761 14.8204 4.37804 14.9599 4.51918L19.9699 9.52918C20.1121 9.66166 20.3001 9.73378 20.4944 9.73035C20.6887 9.72692 20.8741 9.64821 21.0115 9.5108C21.1489 9.37339 21.2276 9.188 21.2311 8.9937C21.2345 8.7994 21.1624 8.61135 21.0299 8.46918L16.0199 3.45918C15.8773 3.32167 15.688 3.24309 15.4899 3.23918Z" fill="#00C4B3"/>
<path id="Vector_2" d="M20.5 8.26172H3.5C3.30149 8.26303 3.11149 8.34247 2.97112 8.48284C2.83075 8.62321 2.75131 8.81321 2.75 9.01172C2.75131 9.21023 2.83075 9.40023 2.97112 9.5406C3.11149 9.68097 3.30149 9.76041 3.5 9.76172H20.5C20.6985 9.76041 20.8885 9.68097 21.0289 9.5406C21.1693 9.40023 21.2487 9.21023 21.25 9.01172C21.2487 8.81321 21.1693 8.62321 21.0289 8.48284C20.8885 8.34247 20.6985 8.26303 20.5 8.26172Z" fill="#00C4B3"/>
<path id="Vector_3" d="M3.49965 14.2408C3.40113 14.2405 3.30352 14.2597 3.21253 14.2975C3.12153 14.3353 3.03897 14.3908 2.96965 14.4608C2.83017 14.602 2.75195 14.7924 2.75195 14.9908C2.75195 15.1893 2.83017 15.3797 2.96965 15.5208L7.97965 20.5308C8.04832 20.6045 8.13112 20.6636 8.22312 20.7046C8.31512 20.7456 8.41443 20.7676 8.51513 20.7694C8.61583 20.7712 8.71586 20.7527 8.80925 20.7149C8.90264 20.6772 8.98747 20.6211 9.05869 20.5499C9.12991 20.4786 9.18606 20.3938 9.22378 20.3004C9.2615 20.207 9.28002 20.107 9.27825 20.0063C9.27647 19.9056 9.25443 19.8063 9.21344 19.7143C9.17244 19.6223 9.11334 19.5395 9.03965 19.4708L4.02965 14.4608C3.88811 14.3217 3.69813 14.2428 3.49965 14.2408Z" fill="#00C4B3"/>
<path id="Vector_4" d="M20.5 14.2383H3.5C3.30149 14.2396 3.11149 14.319 2.97112 14.4594C2.83075 14.5998 2.75131 14.7898 2.75 14.9883C2.75131 15.1868 2.83075 15.3768 2.97112 15.5172C3.11149 15.6575 3.30149 15.737 3.5 15.7383H20.5C20.6985 15.737 20.8885 15.6575 21.0289 15.5172C21.1693 15.3768 21.2487 15.1868 21.25 14.9883C21.2487 14.7898 21.1693 14.5998 21.0289 14.4594C20.8885 14.319 20.6985 14.2396 20.5 14.2383Z" fill="#00C4B3"/>
</g>
</g>
</g>
</svg>
