<svg width="22" height="22" viewBox="0 0 22 22" fill="none" xmlns="http://www.w3.org/2000/svg">
<path d="M13.6584 1.83337H8.34171C7.71838 1.83337 6.83837 2.20005 6.39837 2.64005L2.64005 6.39838C2.20005 6.83838 1.83337 7.71838 1.83337 8.34171V13.6584C1.83337 14.2817 2.20005 15.1617 2.64005 15.6017L6.39837 19.36C6.83837 19.8 7.71838 20.1667 8.34171 20.1667H13.6584C14.2817 20.1667 15.1617 19.8 15.6017 19.36L19.36 15.6017C19.8 15.1617 20.1667 14.2817 20.1667 13.6584V8.34171C20.1667 7.71838 19.8 6.83838 19.36 6.39838L15.6017 2.64005C15.1617 2.20005 14.2817 1.83337 13.6584 1.83337Z" stroke="#D00B00" stroke-width="1.5" stroke-linecap="round" stroke-linejoin="round"/>
<path d="M7.79163 14.2083L14.2083 7.79163" stroke="#D00B00" stroke-width="1.5" stroke-linecap="round" stroke-linejoin="round"/>
<path d="M14.2083 14.2083L7.79163 7.79163" stroke="#D00B00" stroke-width="1.5" stroke-linecap="round" stroke-linejoin="round"/>
</svg>
