<svg width="14" height="15" viewBox="0 0 14 15" fill="none" xmlns="http://www.w3.org/2000/svg">
<path d="M12.8334 4.2915H9.33337" stroke="#1D1F1F" stroke-miterlimit="10" stroke-linecap="round" stroke-linejoin="round"/>
<path d="M3.49996 4.2915H1.16663" stroke="#1D1F1F" stroke-miterlimit="10" stroke-linecap="round" stroke-linejoin="round"/>
<path d="M5.83329 6.33333C6.96087 6.33333 7.87496 5.41925 7.87496 4.29167C7.87496 3.16409 6.96087 2.25 5.83329 2.25C4.70571 2.25 3.79163 3.16409 3.79163 4.29167C3.79163 5.41925 4.70571 6.33333 5.83329 6.33333Z" stroke="#1D1F1F" stroke-miterlimit="10" stroke-linecap="round" stroke-linejoin="round"/>
<path d="M12.8333 10.7085H10.5" stroke="#1D1F1F" stroke-miterlimit="10" stroke-linecap="round" stroke-linejoin="round"/>
<path d="M4.66663 10.7085H1.16663" stroke="#1D1F1F" stroke-miterlimit="10" stroke-linecap="round" stroke-linejoin="round"/>
<path d="M8.16667 12.7498C9.29425 12.7498 10.2083 11.8358 10.2083 10.7082C10.2083 9.58059 9.29425 8.6665 8.16667 8.6665C7.03909 8.6665 6.125 9.58059 6.125 10.7082C6.125 11.8358 7.03909 12.7498 8.16667 12.7498Z" stroke="#1D1F1F" stroke-miterlimit="10" stroke-linecap="round" stroke-linejoin="round"/>
</svg>
