<svg width="25" height="25" viewBox="0 0 25 25" fill="none" xmlns="http://www.w3.org/2000/svg">
    <path d="M21.6958 12.4098H3.6958C2.7358 12.4098 1.9458 11.6198 1.9458 10.6598V7.33976C1.9458 6.65976 2.41578 5.96977 3.04578 5.71977L12.0458 2.11979C12.4258 1.96979 12.9658 1.96979 13.3458 2.11979L22.3458 5.71977C22.9758 5.96977 23.4458 6.66976 23.4458 7.33976V10.6598C23.4458 11.6198 22.6558 12.4098 21.6958 12.4098ZM12.6958 3.4998C12.6558 3.4998 12.6158 3.49975 12.5958 3.50975L3.60577 7.10978C3.54577 7.13978 3.4458 7.26976 3.4458 7.33976V10.6598C3.4458 10.7998 3.5558 10.9098 3.6958 10.9098H21.6958C21.8358 10.9098 21.9458 10.7998 21.9458 10.6598V7.33976C21.9458 7.26976 21.8558 7.13978 21.7858 7.10978L12.7858 3.50975C12.7658 3.49975 12.7358 3.4998 12.6958 3.4998Z" fill="#1D1F1F"/>
    <path d="M22.6958 23.4098H2.6958C2.2858 23.4098 1.9458 23.0698 1.9458 22.6598V19.6598C1.9458 18.6998 2.7358 17.9098 3.6958 17.9098H21.6958C22.6558 17.9098 23.4458 18.6998 23.4458 19.6598V22.6598C23.4458 23.0698 23.1058 23.4098 22.6958 23.4098ZM3.4458 21.9098H21.9458V19.6598C21.9458 19.5198 21.8358 19.4098 21.6958 19.4098H3.6958C3.5558 19.4098 3.4458 19.5198 3.4458 19.6598V21.9098Z" fill="#1D1F1F"/>
    <path d="M4.6958 19.4098C4.2858 19.4098 3.9458 19.0698 3.9458 18.6598V11.6598C3.9458 11.2498 4.2858 10.9098 4.6958 10.9098C5.1058 10.9098 5.4458 11.2498 5.4458 11.6598V18.6598C5.4458 19.0698 5.1058 19.4098 4.6958 19.4098Z" fill="#1D1F1F"/>
    <path d="M8.6958 19.4098C8.2858 19.4098 7.9458 19.0698 7.9458 18.6598V11.6598C7.9458 11.2498 8.2858 10.9098 8.6958 10.9098C9.1058 10.9098 9.4458 11.2498 9.4458 11.6598V18.6598C9.4458 19.0698 9.1058 19.4098 8.6958 19.4098Z" fill="#1D1F1F"/>
    <path d="M12.6958 19.4098C12.2858 19.4098 11.9458 19.0698 11.9458 18.6598V11.6598C11.9458 11.2498 12.2858 10.9098 12.6958 10.9098C13.1058 10.9098 13.4458 11.2498 13.4458 11.6598V18.6598C13.4458 19.0698 13.1058 19.4098 12.6958 19.4098Z" fill="#1D1F1F"/>
    <path d="M16.6958 19.4098C16.2858 19.4098 15.9458 19.0698 15.9458 18.6598V11.6598C15.9458 11.2498 16.2858 10.9098 16.6958 10.9098C17.1058 10.9098 17.4458 11.2498 17.4458 11.6598V18.6598C17.4458 19.0698 17.1058 19.4098 16.6958 19.4098Z" fill="#1D1F1F"/>
    <path d="M20.6958 19.4098C20.2858 19.4098 19.9458 19.0698 19.9458 18.6598V11.6598C19.9458 11.2498 20.2858 10.9098 20.6958 10.9098C21.1058 10.9098 21.4458 11.2498 21.4458 11.6598V18.6598C21.4458 19.0698 21.1058 19.4098 20.6958 19.4098Z" fill="#1D1F1F"/>
    <path d="M23.6958 23.4098H1.6958C1.2858 23.4098 0.945801 23.0698 0.945801 22.6598C0.945801 22.2498 1.2858 21.9098 1.6958 21.9098H23.6958C24.1058 21.9098 24.4458 22.2498 24.4458 22.6598C24.4458 23.0698 24.1058 23.4098 23.6958 23.4098Z" fill="#1D1F1F"/>
    <path d="M12.6958 9.90976C11.4558 9.90976 10.4458 8.89976 10.4458 7.65976C10.4458 6.41976 11.4558 5.40976 12.6958 5.40976C13.9358 5.40976 14.9458 6.41976 14.9458 7.65976C14.9458 8.89976 13.9358 9.90976 12.6958 9.90976ZM12.6958 6.90976C12.2858 6.90976 11.9458 7.24976 11.9458 7.65976C11.9458 8.06976 12.2858 8.40976 12.6958 8.40976C13.1058 8.40976 13.4458 8.06976 13.4458 7.65976C13.4458 7.24976 13.1058 6.90976 12.6958 6.90976Z" fill="#1D1F1F"/>
    </svg>
    