<svg width="208" height="266" viewBox="0 0 208 266" fill="none" xmlns="http://www.w3.org/2000/svg">
    <g clip-path="url(#clip0_1364_10489)">
    <g opacity="0.2">
    <path d="M73.4228 1.85475C67.6564 -0.85541 58.1196 3.55108 55.0779 9.99878C49.273 22.3065 68.0475 40.1315 74.8743 38.2184C82.504 36.0803 84.0097 6.83015 73.4217 1.85475H73.4228Z" stroke="#00C4B3" stroke-width="2" stroke-miterlimit="10" stroke-linecap="round"/>
    <path d="M44.5796 29.7327C42.5213 28.5428 20.7218 15.9422 8.38413 25.9149C-0.278926 32.9169 -0.362344 47.8848 6.14746 56.2977C19.0409 72.9588 59.0215 65.4889 63.1695 53.5667C65.963 45.5383 52.8475 34.5122 44.5786 29.7327H44.5796Z" stroke="#00C4B3" stroke-width="2" stroke-miterlimit="10" stroke-linecap="round"/>
    </g>
    <path opacity="0.15" d="M207.5 262.226C207.5 264.31 164.806 266 112.142 266C82.4258 266 55.885 265.462 38.3972 264.618C34.3691 264.424 30.8218 264.214 27.826 263.99C25.8531 263.843 24.119 263.689 22.6457 263.531C18.8543 263.125 16.7834 262.686 16.7834 262.226C16.7834 261.642 20.1441 261.087 26.143 260.594C28.5997 260.391 31.4985 260.199 34.7904 260.02C52.1103 259.071 80.3038 258.453 112.142 258.453C140.146 258.453 165.333 258.93 182.779 259.692C198.14 260.362 207.5 261.252 207.5 262.227V262.226Z" fill="#040C2B"/>
    <path d="M80.2558 253.975H45.4211V261.989H80.2558V253.975Z" fill="#00C4B3"/>
    <path d="M80.2558 261.99H134.696V253.976H80.2558V261.99Z" fill="#CBF2EE"/>
    <path d="M140.124 253.975H63.9725V74.5447H126.189L131.538 86.6305C139.5 104.625 145.245 123.519 148.646 142.899L149.81 149.53C150.251 152.046 149.789 154.638 148.504 156.848L140.124 171.262V253.975Z" fill="#6BDDD3"/>
    <path d="M137.011 251.37H60.8599V71.9397H123.077L128.425 84.0255C136.387 102.02 142.133 120.914 145.533 140.294L146.697 146.925C147.138 149.441 146.676 152.033 145.391 154.243L137.011 168.657V251.37Z" fill="#CBF2EE"/>
    <path d="M132.062 171.647H67.8201V253.975H132.062V171.647Z" fill="#CBF2EE"/>
    <path opacity="0.1" d="M126.595 180.652H93.3797V244.969H126.595V180.652Z" fill="#00C4B3"/>
    <path d="M125.785 244.159V181.462H94.1899V244.159H125.785Z" fill="#00C4B3"/>
    <path d="M133.643 150.316H76.2048V100.81H120.276L133.643 150.316Z" fill="#00C4B3"/>
    <path d="M139.516 154.121H67.8201V74.5447H118.291L139.516 154.121Z" fill="#F4F6FC"/>
    <path d="M134.088 150.316H67.8201V112.592H112.984L119.992 97.1304L134.088 150.316Z" fill="#E3E9F7"/>
    <path d="M119.425 92.8396L68.793 92.9209V78.5928H115.456L119.425 92.8396Z" fill="#E3E9F7"/>
    <path d="M112.984 112.592H76.2048V97.1658L119.992 97.1304L112.984 112.592Z" fill="#CBF2EE"/>
    <path d="M112.984 112.592H76.2048V141.735H121.734L112.984 112.592Z" fill="#6BDDD3"/>
    <path d="M110.237 115.345L76.2048 115.182V138.659H116.928L110.237 115.345Z" fill="#00C4B3"/>
    <path opacity="0.1" d="M110.237 115.345L76.2048 115.182V138.659H94.0022L110.237 115.345Z" fill="black"/>
    <path d="M134.129 150.315H76.2048V141.735H121.734L134.129 150.315Z" fill="#00C4B3"/>
    <path d="M139.516 154.121H67.8201V171.647H132.063L139.516 154.121Z" fill="#CBF2EE"/>
    <path d="M122.585 206.698C123.244 206.698 123.78 207.233 123.78 207.893V223.152C123.78 223.811 123.245 224.346 122.585 224.346C121.926 224.346 121.39 223.812 121.39 223.152V207.893C121.39 207.234 121.925 206.698 122.585 206.698Z" fill="#CBF2EE"/>
    <path d="M122.585 204.676C123.525 204.676 124.286 203.915 124.286 202.976C124.286 202.036 123.525 201.275 122.585 201.275C121.645 201.275 120.883 202.036 120.883 202.976C120.883 203.915 121.645 204.676 122.585 204.676Z" fill="#CBF2EE"/>
    <path d="M116.643 150.212H103.358L95.8906 141.776H109.177L116.643 150.212Z" fill="#CBF2EE"/>
    <path d="M101.379 144.311H98.8927L97.4902 142.779H99.9761L101.379 144.311Z" fill="#F6471E"/>
    <path d="M103.412 146.902H100.926L99.5246 145.372H102.01L103.412 146.902Z" fill="#00C4B3"/>
    <path d="M105.364 149.102H102.878L101.476 147.57H103.961L105.364 149.102Z" fill="#7AC943"/>
    <path d="M105.033 144.341H102.563L101.17 142.819H103.64L105.033 144.341Z" fill="#00C4B3"/>
    <path d="M107.055 146.917H104.585L103.191 145.394H105.662L107.055 146.917Z" fill="#00C4B3"/>
    <path d="M108.995 149.102H106.524L105.13 147.579H107.602L108.995 149.102Z" fill="#00C4B3"/>
    <path d="M108.102 144.311H105.616L104.215 142.779H106.7L108.102 144.311Z" fill="#00C4B3"/>
    <path d="M110.137 146.902H107.651L106.248 145.372H108.734L110.137 146.902Z" fill="#00C4B3"/>
    <path d="M112.054 149.102H109.584L108.19 147.579H110.66L112.054 149.102Z" fill="#00C4B3"/>
    <path d="M111.152 144.341H108.682L107.289 142.819H109.759L111.152 144.341Z" fill="#00C4B3"/>
    <path d="M113.215 146.902H110.729L109.326 145.372H111.812L113.215 146.902Z" fill="#00C4B3"/>
    <path d="M115.167 149.102H112.681L111.278 147.57H113.764L115.167 149.102Z" fill="#00C4B3"/>
    <path d="M115.78 123.359H113.493L112.635 122.45L112.919 121.542H115.205L115.78 123.359Z" fill="#00C4B3"/>
    <path d="M117.157 128.054H114.871L114.012 127.145L114.296 126.238H116.583L117.157 128.054Z" fill="#00C4B3"/>
    <path d="M118.534 132.749H116.248L115.389 131.84L115.673 130.933H117.959L118.534 132.749Z" fill="#00C4B3"/>
    <path d="M115.374 144.94H123.43L124.367 145.188H116.404L115.374 144.94Z" fill="#040C2B"/>
    <path d="M87.9523 253.975H46.15V74.5447H74.0182L79.3664 86.6305C87.3287 104.625 93.0742 123.519 96.4746 142.899L97.6383 149.53C98.0793 152.046 97.6174 154.638 96.3328 156.848L87.9523 171.262V253.975Z" fill="#6BDDD3"/>
    <path d="M83.7396 253.975H41.9373V74.5447H69.8055L75.1537 86.6305C83.1161 104.625 88.8615 123.519 92.2619 142.899L93.4256 149.53C93.8667 152.046 93.4048 154.638 92.1201 156.848L83.7396 171.262V253.975Z" fill="#00C4B3"/>
    <path d="M126.653 161.077H105.03L105.74 159.544H127.364L126.653 161.077Z" fill="#040C2B"/>
    <path d="M91.1816 89.7376L90.0117 87.8506H86.8313L86.7364 89.7376H84.7438L85.5561 81.7759H87.8178L93.1754 89.7376H91.1827H91.1816ZM89.1692 86.4397C88.0972 84.7299 87.4924 83.7619 87.3558 83.5378C87.2182 83.3138 87.115 83.1367 87.0461 83.0064C87.0461 83.4691 86.9961 84.6142 86.896 86.4397H89.1692Z" fill="#00C4B3"/>
    <path d="M97.6383 89.7375H95.7884L93.9292 83.2075H91.5601L91.1618 81.8081H97.7498L98.1482 83.2075H95.7791L97.6383 89.7375Z" fill="#00C4B3"/>
    <path d="M105.043 89.7375L101.171 83.5169H101.117C101.553 84.7829 101.831 85.6269 101.951 86.05L103.001 89.7375H101.348L99.0908 81.8081H101.609L105.4 87.8713H105.436L105.899 81.8081H108.417L110.675 89.7375H108.95L107.881 85.9843C107.831 85.8072 107.776 85.603 107.715 85.3716C107.656 85.1403 107.507 84.5256 107.271 83.5274H107.217L106.735 89.7375H105.041H105.043Z" fill="#00C4B3"/>
    <path d="M155.728 248.964L156.511 258.169L151.817 259.895L148.291 256.285L149.769 248.569L155.728 248.964Z" fill="#DB965F"/>
    <path d="M150.208 255.205C150.208 255.205 149.81 252.817 148.99 252.427C148.99 252.427 138.151 255.575 136.59 256.657C136.59 256.657 132.459 258.554 136.557 261.135C137.824 261.933 139.27 262.406 140.761 262.554L148.777 263.347C148.777 263.347 159.016 264.234 157.185 258.555L156.221 254.801C156.221 254.801 152.795 259.477 150.208 255.207V255.205Z" fill="#040C2B"/>
    <path d="M172.699 235.956L176.84 242.604L169.88 247.759L168.566 246.016L167.349 236.627L172.699 235.956Z" fill="#DB965F"/>
    <path d="M179.415 242.66C179.415 242.66 180.243 244.453 178.338 248.995C178.338 248.995 177.458 250.125 177.222 252.682C177.222 252.682 175.692 258.43 169.605 260.52C168.482 260.906 167.223 260.455 166.631 259.427C166.112 258.526 165.829 257.035 166.354 254.573C166.354 254.573 167.895 247.261 168.18 242.954C168.18 242.954 171.85 245.432 175.437 240.181C175.437 240.181 177.179 238.985 179.414 242.661L179.415 242.66Z" fill="#040C2B"/>
    <path d="M150.676 221.79L161.206 233.37L167.906 240.739L174.051 236.192L160.549 215.441C159.518 213.857 159.361 211.86 160.129 210.135L170.923 185.916C177.68 171.411 170.916 158.421 170.916 158.421L149.47 160.085L150.164 164.123L153.23 181.944L147.11 208.051C145.965 212.937 147.298 218.074 150.675 221.787L150.676 221.79Z" fill="#040C2B"/>
    <path opacity="0.15" d="M150.676 221.789L161.206 233.37L156.511 213.312L163.351 164.894L150.164 164.124L153.23 181.945L147.11 208.052C145.965 212.938 147.298 218.075 150.675 221.788L150.676 221.789Z" fill="black"/>
    <path d="M139.591 192.521L143.653 217.101L148.603 251.579L154.836 251.097L156.657 250.956L155.224 215.843L161.518 162.296L142.265 160.96C142.265 160.96 138.014 176.543 139.59 192.522L139.591 192.521Z" fill="#040C2B"/>
    <path d="M152.033 119.584L153.574 126.995L158.094 127.097L166.482 127.284L169.853 123.337C169.338 122.78 168.961 121.663 168.687 120.265C168.444 119.024 168.282 117.561 168.175 116.069C167.861 111.693 168.023 107.069 168.023 107.069L156.271 110.823C155.886 116.406 152.033 119.583 152.033 119.583V119.584Z" fill="#FEC6A5"/>
    <path d="M168.861 98.7924C168.861 98.7924 167.762 114.658 155.696 113.677C155.175 113.634 154.683 113.425 154.289 113.084C152.594 111.618 148.683 106.859 153.28 96.6762C153.28 96.6762 164.402 82.5065 168.86 98.7924H168.861Z" fill="#FEC6A5"/>
    <path d="M144.519 120.118V136.45H145.096L145.711 119.721L144.519 120.118Z" fill="#EB4545"/>
    <path d="M137.101 153.487L141.306 155.649L143.457 156.755L143.844 156.953L143.792 155.893L143.711 154.277L143.52 150.388L142.922 138.327L142.737 134.573L138.931 133.466L137.537 148.729L137.259 151.757L137.101 153.487Z" fill="#FEC6A5"/>
    <path d="M111.304 155.031C113.678 156.907 116.4 155.308 116.4 155.308L137.902 160.879C139.28 161.237 140.647 160.905 141.678 160.128C142.692 159.366 143.381 158.173 143.438 156.777L143.515 154.934L143.552 154.01L143.613 152.535L142.954 152.507L140.788 152.411L136.033 152.204L125.064 151.723C123.013 151.388 120.839 150.459 119.465 149.791C118.72 149.428 118.02 148.979 117.393 148.436C116.121 147.336 114.528 146.395 113.254 145.729C111.98 145.063 111.024 144.672 111.024 144.672C110.702 145.313 110.922 146.094 111.532 146.471L114.068 148.043L113.325 148.17C111.346 148.509 109.925 150.313 110.138 152.308C110.237 153.238 110.561 154.206 111.304 155.031Z" fill="#FEC6A5"/>
    <path d="M132.477 147.327L137.536 148.729L142.17 150.012L143.52 150.387L143.941 150.503L144.479 150.558L144.008 137.543L143.39 120.484C138.176 122.464 137.486 127.979 137.486 127.979L132.477 147.327Z" fill="white"/>
    <path opacity="0.15" d="M141.306 155.649C141.451 154.908 141.578 154.187 141.692 153.488C141.892 152.262 142.049 151.102 142.169 150.013C142.952 142.958 142.833 141.407 142.833 141.407L143.218 139.193L143.893 134.38C143.864 136.905 143.452 144.503 143.529 150.39L143.521 150.387L143.532 150.629L143.713 154.276L144.327 154.516L143.793 155.892L143.845 156.952L143.459 156.754L142.792 158.474C142.595 158.984 142.317 159.432 141.978 159.812C141.451 160.407 140.778 160.839 140.043 161.078C140.56 159.167 140.975 157.354 141.307 155.649H141.306Z" fill="black"/>
    <path d="M144.053 157.935C146.513 159.938 153.098 159.835 153.098 159.835L169.355 162.232L174.511 162.992L175.073 163.074C176.482 163.283 177.805 162.808 178.747 161.924C179.672 161.058 180.231 159.799 180.138 158.404L180.016 156.564L179.955 155.642L179.857 154.17L179.199 154.211L177.034 154.348L174.032 154.539L172.285 154.65L168.764 154.873L161.328 155.345C159.252 155.231 156.991 154.54 155.553 154.022C154.775 153.742 154.029 153.37 153.349 152.897C151.965 151.94 150.282 151.173 148.943 150.648C147.604 150.123 146.611 149.835 146.611 149.835C146.361 150.506 146.663 151.259 147.31 151.569L149.999 152.862L147.13 152.583C146.158 152.488 145.174 152.667 144.315 153.131C141.102 154.866 144.052 157.938 144.052 157.938L144.053 157.935Z" fill="#FEC6A5"/>
    <path d="M178.618 131.06L179.871 154.354L173.417 155.797L173.128 140.396L178.618 131.06Z" fill="#FEC6A5"/>
    <path d="M172.839 146.172L173.097 153.455L173.418 153.487L187.386 148.77L181.51 132.599C179.378 125.225 177.106 123.012 176.478 122.516C174.907 126.086 171.656 135.078 172.84 146.172H172.839Z" fill="white"/>
    <path opacity="0.15" d="M167.444 138.375L168.765 154.873L169.355 162.232L174.511 162.992L174.032 154.538L172.953 135.522L167.444 138.375Z" fill="black"/>
    <path d="M173.029 151.554L173.097 153.455L173.024 153.448C173.029 156.529 173.115 159.368 173.237 161.875C173.423 165.687 174.333 169.131 174.141 170.959L140.444 170.259C140.777 166.759 141.385 162.992 141.978 159.813C142.73 155.769 143.453 152.674 143.547 152.279C143.553 152.25 143.556 152.221 143.555 152.191C143.548 151.657 143.54 151.137 143.532 150.63C143.532 150.55 143.509 145.531 143.508 145.451C143.451 141.037 143.462 140.426 143.478 139.332C143.493 138.353 143.56 137.376 143.68 136.404L143.902 134.617L143.418 121.218L143.39 120.485C143.56 120.421 143.736 120.36 143.915 120.304C144.049 120.26 144.187 120.221 144.326 120.183L144.519 120.118L145.712 119.721L152.965 118.453C152.965 118.453 154.478 118.465 158.752 119.192C161.389 119.64 162.43 122.668 166.472 119.037C166.476 119.034 166.479 119.031 166.482 119.029L173.328 121.376L174.631 121.823L176.307 122.398C176.307 122.398 176.366 122.432 176.476 122.518C175.652 124.393 174.364 127.761 173.498 132.145C172.85 135.427 172.438 139.279 172.634 143.497L173.029 151.555V151.554Z" fill="white"/>
    <path d="M161.214 90.2774C161.214 90.2774 166.133 90.043 169.428 98.0724C170.503 100.693 171.081 103.489 171.2 106.317C171.526 114.042 170.542 131.545 153.456 120.422C153.456 120.422 159.548 115.924 157.766 105.288C157.766 105.288 152.306 101.799 153.702 98.7674C153.702 98.7674 154.194 89.4167 161.213 90.2774H161.214Z" fill="black"/>
    <path d="M156.346 105.497C156.089 106.597 156.458 107.624 157.172 107.791C157.887 107.958 158.674 107.202 158.931 106.102C159.189 105.003 158.82 103.975 158.106 103.808C157.391 103.642 156.604 104.397 156.346 105.496V105.497Z" fill="#FEC6A5"/>
    <path d="M154.072 101.596C154.072 101.596 153.703 100.982 151.979 97.2898C151.979 97.2898 155.058 89.7845 160.845 90.2763C165.758 90.6942 154.072 101.596 154.072 101.596Z" fill="black"/>
    </g>
    <defs>
    <clipPath id="clip0_1364_10489">
    <rect width="207" height="266" fill="white" transform="translate(0.5)"/>
    </clipPath>
    </defs>
    </svg>
    