<svg xmlns="http://www.w3.org/2000/svg" width="32" height="32" viewBox="0 0 32 32">
  <g id="booth_icon" transform="translate(-22 -427)">
    <rect id="Button_Shape" data-name="Button Shape" width="32" height="32" rx="10" transform="translate(22 427)" fill="#e8e9e9"/>
    <g id="booth_inner" transform="translate(26 431)">
      <g id="vuesax_bulk_location" data-name="vuesax/bulk/location">
        <g id="location">
          <path id="Vector" d="M17.5,6.7A8.626,8.626,0,0,0,8.88,0H8.87A8.624,8.624,0,0,0,.25,6.69C-.92,11.85,2.24,16.22,5.1,18.97a5.422,5.422,0,0,0,7.55,0C15.51,16.22,18.67,11.86,17.5,6.7Z" transform="translate(3.12 1.75)" fill="#4b5353" opacity="0.4"/>
          <path id="Vector-2" data-name="Vector" d="M6.3,3.15A3.15,3.15,0,1,1,3.15,0,3.15,3.15,0,0,1,6.3,3.15Z" transform="translate(8.85 7.16)" fill="#4b5353"/>
          <path id="Vector-3" data-name="Vector" d="M0,0H24V24H0Z" fill="none" opacity="0"/>
        </g>
      </g>
    </g>
  </g>
</svg>
