<svg width="160" height="74" viewBox="0 0 160 74" fill="none" xmlns="http://www.w3.org/2000/svg">
<g clip-path="url(#clip0_2156_802)">
<path d="M159.659 43.5535C159.284 42.8937 158.945 42.2175 158.64 41.5229C158.121 40.1894 157.754 38.8092 157.535 37.3947C157.172 34.2204 157.52 31.0379 157.643 27.8585C157.776 24.409 157.543 20.8932 156.502 17.5847C154.662 11.7391 150.551 6.97192 145.14 4.19172C142.17 2.66593 138.952 1.67024 135.679 1.06803C132.077 0.405712 128.484 0.267809 124.874 0.949733C121.399 1.60635 118.078 3.11886 115.113 5.03621C112.206 6.91562 109.563 9.22391 107.268 11.8219C103.277 16.3405 100.207 21.5934 97.7927 27.114C97.479 27.8319 97.1765 28.5544 96.876 29.278C96.6369 29.8543 96.839 30.7684 97.1358 31.2802C97.4488 31.8191 98.0612 32.3334 98.6761 32.4745C99.3356 32.6263 100.077 32.5934 100.662 32.2126C101.235 31.8406 101.54 31.3706 101.805 30.7583C101.769 30.8437 101.733 30.9291 101.697 31.0145C103.191 27.448 104.919 23.9745 107.004 20.7205C107.585 19.8146 108.193 18.9265 108.83 18.0605C108.985 17.8498 109.177 17.6448 109.313 17.4203C109.384 17.3305 109.454 17.24 109.525 17.1508C109.879 16.708 110.24 16.2721 110.61 15.8439C112.112 14.1055 113.758 12.4899 115.55 11.0559C115.572 11.0382 115.594 11.0204 115.616 11.0027C115.708 10.9325 115.799 10.8623 115.892 10.7933C116.167 10.5878 116.446 10.386 116.727 10.1892C117.281 9.80146 117.847 9.43076 118.424 9.07778C119.531 8.39966 120.679 7.79111 121.865 7.2667C123.525 6.59426 125.247 6.10654 127.015 5.832C129.037 5.59478 131.072 5.63464 133.091 5.88008C135.861 6.28556 138.626 6.9852 141.22 8.0511C142.066 8.42686 142.893 8.84499 143.693 9.31374C144.131 9.57057 144.561 9.84258 144.981 10.1285C145.196 10.2753 145.409 10.4264 145.62 10.5814C145.684 10.6295 145.749 10.6782 145.813 10.7263C146.595 11.357 147.332 12.0452 148.011 12.7885C148.315 13.1219 148.604 13.4673 148.886 13.8196C148.944 13.8993 149.002 13.9784 149.059 14.0587C149.22 14.2839 149.375 14.5129 149.526 14.7451C150.098 15.6263 150.591 16.5549 151.014 17.5164C151.64 19.0979 152.067 20.747 152.324 22.4297C152.663 25.3136 152.477 28.2033 152.318 31.0954C152.146 34.2122 152.145 37.3428 152.878 40.3976C153.363 42.4193 154.185 44.3752 155.208 46.1781C155.878 47.3585 157.572 47.8658 158.735 47.1099C159.917 46.3413 160.376 44.8181 159.659 43.5548L159.659 43.5535ZM145.956 10.8332C146.002 10.8686 146.032 10.8914 145.956 10.8332V10.8332Z" fill="black"/>
<path d="M106.6 31.019C106.612 31.0019 106.625 30.9849 106.638 30.9678C106.542 31.0899 106.484 31.1632 106.454 31.2031C106.492 31.1556 106.53 31.1082 106.568 31.0601C106.578 31.0462 106.589 31.0329 106.6 31.019Z" fill="black"/>
<path d="M155.475 51.4285C154.232 50.3993 153.018 49.3277 151.943 48.1175C151.747 47.8974 151.56 47.6716 151.374 47.4432C151.294 47.3407 151.147 47.1522 151.082 47.0599C150.955 46.8802 150.83 46.698 150.711 46.5133C150.275 45.8434 149.891 45.1412 149.562 44.4125C149.131 43.3143 148.831 42.1738 148.649 41.0067C148.474 39.3942 148.516 37.771 148.707 36.1605C149.022 33.9964 149.495 31.8678 149.646 29.6765C149.783 27.6908 149.673 25.6621 149.216 23.7214C148.164 19.2515 144.923 15.8065 140.861 13.8803C137.933 12.4918 134.794 11.6372 131.589 11.2253C128.882 10.8774 126.028 11.0995 123.444 12.0123C120.771 12.9567 118.375 14.5021 116.366 16.5144C115.309 17.5733 114.371 18.7607 113.518 19.9904C112.618 21.2859 111.878 22.6789 111.088 24.0427C110.286 25.4274 109.462 26.8002 108.593 28.1431C108.206 28.7403 107.811 29.3311 107.402 29.9131C107.216 30.1788 107.026 30.4426 106.834 30.7038C106.768 30.7917 106.703 30.8797 106.637 30.967C106.669 30.9278 106.703 30.8835 106.743 30.8335C106.694 30.8949 106.647 30.9569 106.599 31.0182C106.583 31.0397 106.567 31.0612 106.551 31.0821C106.482 31.1751 106.372 31.3079 106.453 31.2023C105.773 32.0594 105.05 32.885 104.257 33.639C104.073 33.8142 103.886 33.985 103.694 34.1514C103.609 34.2254 103.523 34.2981 103.437 34.3703C103.078 34.6189 102.732 34.8814 102.355 35.1053C102.062 35.2793 101.762 35.4381 101.454 35.5823C100.894 35.7955 100.318 35.9555 99.7283 36.0599C99.0024 36.1288 98.2739 36.1168 97.5486 36.0409C97.3785 36.0131 97.2085 35.984 97.0391 35.9505C96.3508 35.8157 95.6744 35.8461 95.0532 36.2123C94.5186 36.528 94.0085 37.1454 93.8686 37.7653C93.5781 39.0507 94.2532 40.6841 95.6687 40.9611C97.9577 41.4096 100.36 41.4716 102.588 40.6815C104.864 39.875 106.824 38.4586 108.497 36.7209C110.494 34.6473 112.145 32.2201 113.669 29.7815C114.565 28.3481 115.418 26.8874 116.254 25.4173C116.64 24.7367 117.023 24.0547 117.446 23.3956C117.638 23.097 117.835 22.8016 118.039 22.5112C118.134 22.3765 118.23 22.243 118.327 22.1102C118.349 22.0811 118.371 22.052 118.392 22.0229C119.296 20.8906 120.287 19.8563 121.402 18.9321C121.541 18.8277 121.682 18.7252 121.825 18.6253C122.112 18.4241 122.406 18.2331 122.706 18.0522C123.211 17.7466 123.736 17.4746 124.273 17.2298C125.296 16.8262 126.355 16.5378 127.439 16.3638C128.74 16.2234 130.047 16.243 131.347 16.3929C133.544 16.7275 135.738 17.3171 137.8 18.1572C138.596 18.5121 139.372 18.9137 140.11 19.3806C140.377 19.5495 140.636 19.7291 140.89 19.9139C140.987 19.9891 141.184 20.1429 141.273 20.2194C141.419 20.3465 141.563 20.4775 141.704 20.6116C141.985 20.8804 142.254 21.1626 142.509 21.458C142.677 21.6547 143.12 22.293 142.527 21.4536C142.63 21.5991 142.739 21.7401 142.839 21.8875C143.191 22.4018 143.495 22.9465 143.755 23.5133C144.08 24.3628 144.304 25.2453 144.446 26.1448C144.627 27.8363 144.546 29.5437 144.34 31.2308C144.087 32.9811 143.707 34.7081 143.516 36.4692C143.282 38.6225 143.369 40.7802 143.763 42.9108C144.4 46.3457 146.15 49.439 148.479 51.9934C149.508 53.1225 150.656 54.1315 151.83 55.1031C152.373 55.5529 152.924 55.8641 153.652 55.8641C154.284 55.8641 155.039 55.5814 155.474 55.1031C156.343 54.1498 156.587 52.3495 155.474 51.4285H155.475Z" fill="black"/>
<path d="M109.076 42.003C109.133 41.9359 109.101 41.9296 108.831 42.206C108.835 42.2035 108.838 42.2003 108.842 42.1978C108.914 42.1282 108.995 42.065 109.076 42.0036V42.003Z" fill="black"/>
<path d="M119.258 60.1247C119.518 59.8957 119.783 59.6717 120.051 59.4522C120.168 59.3567 120.285 59.2618 120.402 59.1682C120.412 59.1612 120.424 59.1511 120.438 59.1397C120.441 59.1372 120.445 59.134 120.448 59.1321C120.961 58.7406 121.484 58.3623 122.014 57.9941C123.135 57.2135 124.284 56.4734 125.414 55.7036C130.573 52.1858 135.683 48.2018 138.358 42.3567C139.494 39.8751 140.207 37.3334 140.373 34.5949C140.538 31.8767 140.04 28.9169 138.528 26.6143C136.588 23.6601 133.315 21.8933 129.849 21.5466C128.135 21.3752 126.309 21.8528 124.861 22.7821C123.032 23.9561 121.758 25.6919 120.495 27.4303C118.46 30.2307 116.795 33.2842 114.742 36.0701C114.682 36.1511 114.623 36.2314 114.563 36.3117C114.549 36.3295 114.509 36.3832 114.469 36.4357C114.465 36.4402 114.462 36.4446 114.459 36.4484C114.381 36.5483 114.302 36.6483 114.223 36.7482C113.935 37.1088 113.642 37.4643 113.342 37.8148C112.72 38.541 112.071 39.2444 111.395 39.9187C110.72 40.5912 110.017 41.2351 109.285 41.8424C109.218 41.8974 109.146 41.9499 109.076 42.0031C109.052 42.0309 109.013 42.0689 108.97 42.1011C108.927 42.1334 108.884 42.165 108.842 42.1973C108.831 42.2074 108.82 42.2169 108.81 42.227C108.817 42.2194 108.823 42.2131 108.83 42.2055C108.794 42.2321 108.759 42.2593 108.723 42.2858C108.402 42.5199 108.073 42.7419 107.735 42.9494C107.186 43.2872 106.616 43.5871 106.031 43.854C104.942 44.2873 103.815 44.5979 102.66 44.7852C101.448 44.9174 100.23 44.9136 99.0169 44.7782C98.4032 44.7099 97.6127 45.1179 97.1948 45.5392C96.748 45.9896 96.4111 46.7291 96.44 47.3762C96.4701 48.048 96.6891 48.7451 97.1948 49.2133C97.7287 49.7079 98.2997 49.8939 99.0169 49.9743C101.669 50.2703 104.458 49.9584 106.969 49.0349C108.192 48.5845 109.393 48.0354 110.497 47.3364C111.673 46.5918 112.766 45.6929 113.803 44.7637C115.933 42.8539 117.786 40.6519 119.458 38.3297C120.845 36.4035 122.043 34.3457 123.351 32.3644C123.764 31.7382 124.186 31.1176 124.621 30.5059C124.852 30.1795 125.087 29.8562 125.327 29.5355C125.363 29.4874 125.399 29.44 125.435 29.3926C125.53 29.2717 125.623 29.1503 125.719 29.0301C126.175 28.4563 126.661 27.9313 127.206 27.4442C127.307 27.3721 127.41 27.3025 127.515 27.2361C127.689 27.1266 127.868 27.028 128.052 26.9369C128.297 26.8508 128.546 26.7819 128.801 26.7288C129.116 26.7072 129.431 26.711 129.748 26.7357C130.357 26.8508 130.949 27.0337 131.528 27.2595C131.954 27.4556 132.368 27.6738 132.762 27.9332C132.853 27.9933 132.942 28.0559 133.03 28.1192C133.208 28.2704 133.379 28.4291 133.543 28.5955C133.685 28.741 133.818 28.8941 133.95 29.0484C134.012 29.1376 134.074 29.2275 134.133 29.3185C134.329 29.626 134.503 29.9473 134.657 30.2782C134.893 30.9127 135.061 31.5674 135.173 32.2347C135.282 33.2943 135.263 34.3602 135.147 35.4185C134.937 36.7836 134.571 38.1127 134.06 39.3949C133.672 40.2768 133.232 41.1345 132.732 41.9575C132.442 42.4358 132.132 42.9026 131.806 43.3562C131.746 43.4384 131.686 43.52 131.625 43.6016C131.465 43.8009 131.305 44.0008 131.14 44.1956C130.42 45.0464 129.641 45.8441 128.823 46.5988C128.392 46.9961 127.951 47.3819 127.501 47.7577C127.277 47.9456 127.05 48.1303 126.822 48.3131C126.719 48.396 126.615 48.4782 126.511 48.5598C126.502 48.5668 126.494 48.5737 126.483 48.5813C122.656 51.5184 118.341 53.8292 114.824 57.1692C112.646 59.2378 110.762 61.7226 109.593 64.511C109.311 65.1834 109.131 65.7762 109.333 66.5131C109.497 67.116 109.96 67.7688 110.517 68.0661C111.115 68.3849 111.84 68.5443 112.503 68.328C113.094 68.1351 113.79 67.7384 114.044 67.1337C114.369 66.3581 114.744 65.6054 115.173 64.8823C115.363 64.5603 115.563 64.2447 115.773 63.9353C115.882 63.7734 115.994 63.6134 116.109 63.4552C116.154 63.3913 116.202 63.3287 116.248 63.2654C117.164 62.1319 118.165 61.0843 119.259 60.1234L119.258 60.1247Z" fill="black"/>
<path d="M123.549 46.9784C124.994 45.4621 126.296 43.8015 127.505 42.0898C128.937 40.063 130.202 37.9198 131.309 35.6963C131.913 34.483 131.668 32.825 130.384 32.1412C129.215 31.5181 127.504 31.7762 126.858 33.0736C125.893 35.0118 124.807 36.8887 123.596 38.6814C123.31 39.1053 123.017 39.524 122.717 39.9384C122.585 40.1199 122.451 40.3002 122.317 40.4799C122.341 40.4501 122.367 40.4166 122.397 40.3799C122.357 40.4299 122.318 40.4811 122.279 40.5317C122.265 40.5501 122.249 40.5703 122.234 40.5899C122.203 40.6298 122.172 40.6703 122.141 40.7101C121.565 41.4433 120.964 42.1575 120.334 42.8444C119.763 43.4675 119.168 44.0698 118.544 44.6391C118.259 44.8991 117.968 45.1515 117.67 45.3956C117.533 45.507 117.395 45.6164 117.256 45.7252C117.253 45.7278 117.25 45.7303 117.246 45.7328C117.114 45.834 116.983 45.9359 116.851 46.0365C115.023 47.4319 113.143 48.7585 111.196 49.98C109.129 51.2768 106.986 52.4508 104.76 53.4478C104.208 53.6951 103.729 54.4397 103.576 55.0008C103.406 55.6226 103.482 56.4507 103.836 57.0029C104.19 57.5577 104.718 58.046 105.376 58.1972C106.093 58.3617 106.694 58.2345 107.362 57.9353C111.484 56.0888 115.313 53.6382 118.924 50.9244C120.552 49.7004 122.14 48.4586 123.549 46.9796V46.9784Z" fill="black"/>
<path d="M122.293 40.5126C122.302 40.5019 122.31 40.4905 122.318 40.4797C122.028 40.8422 122.132 40.7195 122.234 40.5898C122.249 40.5702 122.264 40.5512 122.279 40.5316C122.284 40.5253 122.289 40.519 122.293 40.5126Z" fill="black"/>
<path d="M144.334 55.7922C144.466 55.8909 144.574 55.9649 144.213 55.6992C144.235 55.7163 144.261 55.7365 144.289 55.7574C144.304 55.7688 144.319 55.7802 144.334 55.7916V55.7922Z" fill="black"/>
<path d="M150.129 58.5553C149.321 58.3674 148.532 58.1176 147.762 57.8108C146.832 57.392 145.939 56.8973 145.091 56.3286C144.866 56.1781 144.646 56.0225 144.428 55.8624C144.397 55.839 144.365 55.8156 144.334 55.7916C144.319 55.7802 144.303 55.7688 144.288 55.7574C144.227 55.7112 144.166 55.6644 144.104 55.6195C144.144 55.6492 144.18 55.6752 144.213 55.6992C144.21 55.6967 144.206 55.6942 144.203 55.6916C143.771 55.3399 143.354 54.9686 142.953 54.5795C142.559 54.1962 142.18 53.7951 141.82 53.3783C141.666 53.1992 141.517 53.0158 141.368 52.8317C141.307 52.7476 141.245 52.6628 141.184 52.5774C140.584 51.7291 140.064 50.8264 139.642 49.875C139.394 49.3177 138.66 48.8357 138.101 48.6807C137.485 48.5093 136.663 48.5865 136.115 48.9426C135.565 49.3 135.081 49.8326 134.931 50.4956C134.768 51.218 134.893 51.8259 135.191 52.4977C136.343 55.0932 138.233 57.4338 140.402 59.2372C142.843 61.2672 145.656 62.8442 148.757 63.5647C150.068 63.8696 151.61 63.158 151.928 61.7499C152.227 60.4252 151.533 58.8805 150.128 58.5534L150.129 58.5553Z" fill="black"/>
<path d="M144.545 65.3105C143.895 65.1675 143.26 64.9733 142.641 64.731C141.122 64.0295 139.758 63.0623 138.379 62.1166C136.772 61.0133 135.092 60.0208 133.219 59.4458C131.187 58.8214 128.977 58.7032 126.918 59.2624C124.816 59.8329 122.953 60.9918 121.292 62.3791C119.388 63.9694 117.807 66.0462 116.713 68.2767C116.403 68.9073 116.263 69.5823 116.453 70.2788C116.617 70.8816 117.08 71.5345 117.638 71.8318C118.802 72.4517 120.526 72.2006 121.164 70.8993C121.574 70.0637 122.047 69.2622 122.588 68.5063C122.628 68.45 122.67 68.3943 122.711 68.338C122.834 68.1875 122.956 68.0356 123.082 67.8882C123.376 67.5454 123.685 67.2145 124.007 66.8976C124.306 66.6035 124.616 66.3213 124.937 66.0531C124.981 66.0164 125.026 65.9804 125.071 65.9437C125.207 65.8431 125.343 65.7438 125.483 65.6483C126.064 65.2485 126.675 64.8961 127.313 64.5982C127.859 64.3869 128.42 64.2212 128.996 64.1149C129.503 64.075 130.008 64.0909 130.514 64.1415C131.241 64.268 131.948 64.4666 132.636 64.7336C134.264 65.4895 135.703 66.5718 137.19 67.5713C139.021 68.8017 141.013 69.8461 143.177 70.3212C144.491 70.6096 146.027 69.9258 146.347 68.5063C146.643 67.1949 145.956 65.6192 144.547 65.3098L144.545 65.3105Z" fill="black"/>
<path d="M135.11 68.6905C133.568 67.8776 131.956 67.3349 130.207 67.2628C128.874 67.2084 127.517 67.4937 126.247 67.8833C124.959 68.2793 124.01 69.7191 124.447 71.0798C124.867 72.3898 126.236 73.3185 127.617 72.8946C128.151 72.7308 128.69 72.5878 129.239 72.4892C129.66 72.4525 130.082 72.4487 130.504 72.4816C130.987 72.5739 131.455 72.7112 131.915 72.8845C132.116 72.9781 132.313 73.0743 132.509 73.1774C133.703 73.8062 135.364 73.526 136.035 72.245C136.662 71.0488 136.387 69.3623 135.11 68.6899V68.6905Z" fill="black"/>
<path d="M15.4071 68.5144C9.35655 68.5144 4.45239 63.5695 4.45239 57.4702V54.2073C4.45239 52.9681 3.456 51.9629 2.2262 51.9629C0.99702 51.9629 0 52.9674 0 54.2073V57.4702C0 66.0486 6.8982 73.0032 15.4071 73.0032H18.6434C19.8726 73.0032 20.8696 71.9987 20.8696 70.7588C20.8696 69.5196 19.8733 68.5144 18.6434 68.5144H15.4071Z" fill="black"/>
<path d="M64 57.4697C64 63.5697 59.0952 68.5139 53.0454 68.5139H49.809C48.5798 68.5139 47.5828 69.5185 47.5828 70.7583C47.5828 71.9975 48.5792 73.0027 49.809 73.0027H53.0454C61.5542 73.0027 68.4524 66.0481 68.4524 57.4697V54.2068C68.4524 52.9676 67.456 51.9624 66.2262 51.9624C64.997 51.9624 64 52.9669 64 54.2068V57.4697Z" fill="black"/>
<path d="M4.45239 19.5235C4.45239 13.4235 9.35718 8.47928 15.4071 8.47928H18.6434C19.8726 8.47928 20.8696 7.47474 20.8696 6.23488C20.8696 4.99565 19.8733 3.99048 18.6434 3.99048H15.4071C6.8982 3.99048 0 10.9451 0 19.5235V22.7864C0 24.0256 0.996392 25.0308 2.2262 25.0308C3.45537 25.0308 4.45239 24.0263 4.45239 22.7864V19.5235Z" fill="black"/>
<path d="M53.0454 8.47928C59.0959 8.47928 64 13.4242 64 19.5235V22.7864C64 24.0256 64.9964 25.0308 66.2262 25.0308C67.4554 25.0308 68.4524 24.0263 68.4524 22.7864V19.5235C68.4524 10.9451 61.5542 3.99048 53.0454 3.99048H49.809C48.5798 3.99048 47.5828 4.99502 47.5828 6.23488C47.5828 7.47411 48.5792 8.47928 49.809 8.47928H53.0454Z" fill="black"/>
<path d="M20.3131 33.2221C19.0839 33.2221 18.0869 32.2169 18.0869 30.9777V25.9278C18.0869 24.6885 19.0839 23.6833 20.3131 23.6833C21.5423 23.6833 22.5393 24.6885 22.5393 25.9278V30.9777C22.5393 32.2169 21.5423 33.2221 20.3131 33.2221Z" fill="black"/>
<path d="M48.1393 33.2221C46.9101 33.2221 45.9131 32.2169 45.9131 30.9777V25.9278C45.9131 24.6885 46.9101 23.6833 48.1393 23.6833C49.3685 23.6833 50.3655 24.6885 50.3655 25.9278V30.9777C50.3655 32.2169 49.3685 33.2221 48.1393 33.2221Z" fill="black"/>
<path d="M31.4906 45.1885H29.7626C28.5334 45.1885 27.5364 44.1833 27.5364 42.9441C27.5364 41.7049 28.5334 40.6997 29.7626 40.6997H31.4906C31.7773 40.6997 32.0114 40.4644 32.0114 40.1753V26.6633C32.0114 25.4241 33.0084 24.4189 34.2376 24.4189C35.4667 24.4189 36.4638 25.4241 36.4638 26.6633V40.1753C36.4638 42.9397 34.2332 45.1885 31.4912 45.1885H31.4906Z" fill="black"/>
<path d="M34.2262 57.0629C29.5975 57.0629 24.9688 55.2227 21.0184 51.5423C20.0779 50.6656 20.0779 49.2448 21.0184 48.368C21.9596 47.4919 23.4843 47.4919 24.4248 48.368C30.4703 54.0005 37.9809 54.0005 44.0264 48.368C44.9676 47.4919 46.4923 47.4919 47.4328 48.368C48.3734 49.2448 48.3734 50.6656 47.4328 51.5423C43.483 55.2227 38.8537 57.0629 34.225 57.0629H34.2262Z" fill="black"/>
</g>
<defs>
<clipPath id="clip0_2156_802">
<rect width="160" height="73" fill="white" transform="translate(0 0.5)"/>
</clipPath>
</defs>
</svg>
