<svg width="24" height="25" viewBox="0 0 24 25" fill="none" xmlns="http://www.w3.org/2000/svg">
<path d="M9.42001 2.66L3.92001 4.72C2.87001 5.11 2.01001 6.35999 2.01001 7.47999V15.58C2.01001 16.39 2.54002 17.46 3.19002 17.94L8.69002 22.05C9.66002 22.78 11.25 22.78 12.22 22.05L17.72 17.94C18.37 17.45 18.9 16.39 18.9 15.58V7.47999C18.9 6.35999 18.04 5.11 16.99 4.72L11.49 2.66C10.92 2.45 9.99001 2.45 9.42001 2.66Z" fill="#B6B8B8"/>
<path d="M19.2599 7.26001H12.4099C12.2099 7.26001 12.0199 7.27002 11.8399 7.27002C10.1199 7.37002 9.65991 8.00002 9.65991 9.96002V10.35C9.65991 10.7642 9.9957 11.1 10.4099 11.1H21.2499C21.6641 11.1 21.9999 10.7642 21.9999 10.35V9.96002C21.9999 7.80002 21.4499 7.26001 19.2599 7.26001Z" fill="#1D1F1F"/>
<path d="M10.4199 12.2C10.0057 12.2 9.66992 12.5358 9.66992 12.95V15.04C9.66992 17.2 10.2199 17.75 12.4099 17.75H19.2599C21.4099 17.75 21.9799 17.23 21.9999 15.16V12.95C21.9999 12.5358 21.6641 12.2 21.2499 12.2H10.4199ZM13.2699 15.97H12.0199C11.7199 15.97 11.4799 15.73 11.4799 15.43C11.4799 15.13 11.7199 14.89 12.0199 14.89H13.2699C13.5699 14.89 13.8099 15.13 13.8099 15.43C13.8099 15.73 13.5699 15.97 13.2699 15.97ZM17.3199 15.97H14.8299C14.5299 15.97 14.2899 15.73 14.2899 15.43C14.2899 15.13 14.5299 14.89 14.8299 14.89H17.3199C17.6199 14.89 17.8599 15.13 17.8599 15.43C17.8699 15.73 17.6199 15.97 17.3199 15.97Z" fill="#1D1F1F"/>
</svg>
