<svg width="40" height="40" viewBox="0 0 40 40" fill="none" xmlns="http://www.w3.org/2000/svg">
<path opacity="0.4" d="M20 36.6663C29.2048 36.6663 36.6667 29.2044 36.6667 19.9997C36.6667 10.7949 29.2048 3.33301 20 3.33301C10.7953 3.33301 3.33334 10.7949 3.33334 19.9997C3.33334 29.2044 10.7953 36.6663 20 36.6663Z" fill="#FF5100"/>
<path d="M26.1833 26.5499C25.9667 26.5499 25.75 26.4999 25.55 26.3666L20.3833 23.2833C19.1 22.5166 18.15 20.8333 18.15 19.3499V12.5166C18.15 11.8333 18.7167 11.2666 19.4 11.2666C20.0833 11.2666 20.65 11.8333 20.65 12.5166V19.3499C20.65 19.9499 21.15 20.8333 21.6667 21.1333L26.8333 24.2166C27.4333 24.5666 27.6167 25.3333 27.2667 25.9333C27.0167 26.3333 26.6 26.5499 26.1833 26.5499Z" fill="#FF5100"/>
</svg>
