<svg width="40" height="40" viewBox="0 0 40 40" fill="none" xmlns="http://www.w3.org/2000/svg">
<path opacity="0.4" d="M13.3333 36.6663H26.6667C31.2667 36.6663 35 32.933 35 28.333V11.6663C35 7.06634 31.2667 3.33301 26.6667 3.33301H13.3333C8.73333 3.33301 5 7.06634 5 11.6663V28.333C5 32.933 8.73333 36.6663 13.3333 36.6663Z" fill="#00C4B3"/>
<path d="M25 9.5166H15C13.2833 9.5166 11.8667 10.9166 11.8667 12.6499V14.3166C11.8667 16.0333 13.2667 17.4499 15 17.4499H25C26.7167 17.4499 28.1333 16.0499 28.1333 14.3166V12.6499C28.1333 10.9166 26.7333 9.5166 25 9.5166Z" fill="#00C4B3"/>
<path d="M13.6 24.867C13.3667 24.867 13.15 24.817 12.95 24.7337C12.75 24.6504 12.5667 24.5337 12.4167 24.3837C12.1 24.067 11.9167 23.6504 11.9167 23.2004C11.9167 22.9837 11.9667 22.767 12.05 22.567C12.1333 22.3504 12.25 22.1837 12.4167 22.017C12.8 21.6337 13.3833 21.4504 13.9167 21.567C14.0167 21.5837 14.1333 21.617 14.2333 21.667C14.3333 21.7004 14.4333 21.7504 14.5167 21.817C14.6167 21.867 14.7 21.9504 14.7667 22.017C14.9167 22.1837 15.05 22.3504 15.1333 22.567C15.2167 22.767 15.25 22.9837 15.25 23.2004C15.25 23.6504 15.0833 24.067 14.7667 24.3837C14.45 24.7004 14.0333 24.867 13.6 24.867Z" fill="#00C4B3"/>
<path d="M20.25 24.8662C19.8167 24.8662 19.4 24.6995 19.0833 24.3829C18.7667 24.0662 18.5833 23.6495 18.5833 23.1995C18.5833 22.7662 18.7667 22.3329 19.0833 22.0162C19.7 21.3995 20.8167 21.3995 21.4333 22.0162C21.5833 22.1829 21.7167 22.3495 21.8 22.5662C21.8833 22.7662 21.9167 22.9829 21.9167 23.1995C21.9167 23.6495 21.75 24.0662 21.4333 24.3829C21.1167 24.6995 20.7 24.8662 20.25 24.8662Z" fill="#00C4B3"/>
<path d="M26.9167 24.8662C26.4833 24.8662 26.0667 24.6995 25.75 24.3829C25.4333 24.0662 25.25 23.6495 25.25 23.1995C25.25 22.7662 25.4333 22.3329 25.75 22.0162C26.3667 21.3995 27.4833 21.3995 28.1 22.0162C28.4167 22.3329 28.6 22.7662 28.6 23.1995C28.6 23.4162 28.55 23.6329 28.4667 23.8329C28.3833 24.0329 28.2667 24.2162 28.1 24.3829C27.7833 24.6995 27.3667 24.8662 26.9167 24.8662Z" fill="#00C4B3"/>
<path d="M13.6 31.533C13.15 31.533 12.7333 31.3663 12.4167 31.0497C12.1 30.733 11.9167 30.3163 11.9167 29.8663C11.9167 29.433 12.1 28.9997 12.4167 28.683C12.5667 28.533 12.75 28.4163 12.95 28.333C13.3667 28.1663 13.8167 28.1663 14.2333 28.333C14.3333 28.3663 14.4333 28.4163 14.5167 28.483C14.6167 28.533 14.7 28.6163 14.7667 28.683C15.0833 28.9997 15.2667 29.433 15.2667 29.8663C15.2667 30.3163 15.0833 30.733 14.7667 31.0497C14.45 31.3663 14.0333 31.533 13.6 31.533Z" fill="#00C4B3"/>
<path d="M20.25 31.5331C19.8167 31.5331 19.4 31.3664 19.0833 31.0497C18.7667 30.7331 18.5833 30.3164 18.5833 29.8664C18.5833 29.7497 18.6 29.6497 18.6167 29.5331C18.65 29.4331 18.6833 29.3331 18.7167 29.2331C18.7667 29.1331 18.8167 29.0331 18.8667 28.9331C18.9333 28.8497 19 28.7664 19.0833 28.6831C19.2333 28.5331 19.4167 28.4164 19.6167 28.3331C20.2333 28.0831 20.9667 28.2164 21.4333 28.6831C21.75 28.9997 21.9167 29.4331 21.9167 29.8664C21.9167 30.3164 21.75 30.7331 21.4333 31.0497C21.2833 31.1997 21.1 31.3164 20.9 31.3997C20.7 31.4831 20.4833 31.5331 20.25 31.5331Z" fill="#00C4B3"/>
<path d="M26.9167 31.5331C26.7 31.5331 26.4833 31.4831 26.2833 31.3997C26.0833 31.3164 25.9 31.1997 25.75 31.0497C25.4333 30.7331 25.2667 30.3164 25.2667 29.8664C25.2667 29.4331 25.4333 28.9997 25.75 28.6831C26.2 28.2164 26.95 28.0831 27.5667 28.3331C27.7667 28.4164 27.95 28.5331 28.1 28.6831C28.4167 28.9997 28.5833 29.4331 28.5833 29.8664C28.5833 30.3164 28.4167 30.7331 28.1 31.0497C27.7833 31.3664 27.3667 31.5331 26.9167 31.5331Z" fill="#00C4B3"/>
</svg>
