<svg width="25" height="25" viewBox="0 0 25 25" fill="none" xmlns="http://www.w3.org/2000/svg">
<path opacity="0.4" d="M19.8 8.41998V13.57C19.8 16.65 18.04 17.97 15.4 17.97H6.60995C6.15995 17.97 5.72996 17.93 5.32996 17.84C5.07996 17.8 4.83996 17.73 4.61996 17.65C3.11996 17.09 2.20996 15.79 2.20996 13.57V8.41998C2.20996 5.33998 3.96995 4.02002 6.60995 4.02002H15.4C17.64 4.02002 19.25 4.97001 19.68 7.14001C19.75 7.54001 19.8 7.94998 19.8 8.41998Z" fill="#F4F7F7"/>
<path d="M22.8001 11.4201V16.5701C22.8001 19.6501 21.0401 20.9701 18.4001 20.9701H9.61008C8.87008 20.9701 8.20009 20.8701 7.62009 20.6501C6.43009 20.2101 5.62008 19.3001 5.33008 17.8401C5.73008 17.9301 6.16008 17.9701 6.61008 17.9701H15.4001C18.0401 17.9701 19.8001 16.6501 19.8001 13.5701V8.4201C19.8001 7.9501 19.7601 7.53014 19.6801 7.14014C21.5801 7.54014 22.8001 8.88011 22.8001 11.4201Z" fill="#B6B8B8"/>
<path d="M10.9999 13.6399C12.4579 13.6399 13.6399 12.4579 13.6399 10.9999C13.6399 9.54185 12.4579 8.35986 10.9999 8.35986C9.54185 8.35986 8.35986 9.54185 8.35986 10.9999C8.35986 12.4579 9.54185 13.6399 10.9999 13.6399Z" fill="#F4F7F7"/>
<path d="M5.28003 8.75C4.87003 8.75 4.53003 9.09 4.53003 9.5V12.5C4.53003 12.91 4.87003 13.25 5.28003 13.25C5.69003 13.25 6.03003 12.91 6.03003 12.5V9.5C6.03003 9.09 5.70003 8.75 5.28003 8.75Z" fill="#F4F7F7"/>
<path d="M16.71 8.75C16.3 8.75 15.96 9.09 15.96 9.5V12.5C15.96 12.91 16.3 13.25 16.71 13.25C17.12 13.25 17.46 12.91 17.46 12.5V9.5C17.46 9.09 17.13 8.75 16.71 8.75Z" fill="#F4F7F7"/>
</svg>
