<svg width="24" height="24" viewBox="0 0 24 24" fill="none" xmlns="http://www.w3.org/2000/svg">
<path opacity="0.4" d="M3.98999 14.6599L2.47 13.14C1.85 12.52 1.85 11.5 2.47 10.88L3.98999 9.35996C4.24999 9.09996 4.46 8.58995 4.46 8.22995V6.07999C4.46 5.19999 5.18 4.47995 6.06 4.47995H8.21C8.57 4.47995 9.08 4.26998 9.34 4.00998L10.86 2.48996C11.48 1.86996 12.5 1.86996 13.12 2.48996L14.64 4.00998C14.9 4.26998 15.41 4.47995 15.77 4.47995H17.92C18.8 4.47995 19.52 5.19999 19.52 6.07999V8.22995C19.52 8.58995 19.73 9.09996 19.99 9.35996L21.51 10.88C22.13 11.5 22.13 12.52 21.51 13.14L19.99 14.6599C19.73 14.9199 19.52 15.43 19.52 15.79V17.94C19.52 18.82 18.8 19.54 17.92 19.54H15.77C15.41 19.54 14.9 19.75 14.64 20.01L13.12 21.53C12.5 22.15 11.48 22.15 10.86 21.53L9.34 20.01C9.08 19.75 8.57 19.54 8.21 19.54H6.06C5.18 19.54 4.46 18.82 4.46 17.94V15.79C4.46 15.42 4.24999 14.9099 3.98999 14.6599Z" fill="#00C4B3"/>
<path d="M15 16C14.44 16 13.99 15.55 13.99 15C13.99 14.45 14.44 14 14.99 14C15.54 14 15.99 14.45 15.99 15C15.99 15.55 15.55 16 15 16Z" fill="#00C4B3"/>
<path d="M9.01001 10C8.45001 10 8 9.55 8 9C8 8.45 8.45 8 9 8C9.55 8 10 8.45 10 9C10 9.55 9.56001 10 9.01001 10Z" fill="#00C4B3"/>
<path d="M9 15.75C8.81 15.75 8.62 15.68 8.47 15.53C8.18 15.24 8.18 14.7599 8.47 14.4699L14.47 8.46994C14.76 8.17994 15.24 8.17994 15.53 8.46994C15.82 8.75994 15.82 9.24 15.53 9.53L9.53 15.53C9.38 15.68 9.19 15.75 9 15.75Z" fill="#00C4B3"/>
</svg>
