<svg width="40" height="40" viewBox="0 0 40 40" fill="none" xmlns="http://www.w3.org/2000/svg">
<path d="M27.9167 5.933V3.33301C27.9167 2.64967 27.35 2.08301 26.6667 2.08301C25.9834 2.08301 25.4167 2.64967 25.4167 3.33301V5.83301H14.5834V3.33301C14.5834 2.64967 14.0167 2.08301 13.3334 2.08301C12.65 2.08301 12.0834 2.64967 12.0834 3.33301V5.933C7.58336 6.34967 5.40004 9.033 5.0667 13.0163C5.03337 13.4997 5.43337 13.8997 5.90004 13.8997H34.1C34.5833 13.8997 34.9833 13.483 34.9333 13.0163C34.6 9.033 32.4167 6.34967 27.9167 5.933Z" fill="#8347AD"/>
<path opacity="0.4" d="M33.3333 16.3994C34.25 16.3994 35 17.1494 35 18.0661V28.3328C35 33.3328 32.5 36.6661 26.6667 36.6661H13.3333C7.5 36.6661 5 33.3328 5 28.3328V18.0661C5 17.1494 5.75 16.3994 6.66667 16.3994H33.3333Z" fill="#8347AD"/>
<path d="M14.1667 24.9998C13.95 24.9998 13.7333 24.9498 13.5333 24.8665C13.3333 24.7832 13.15 24.6665 12.9833 24.5165C12.8333 24.3498 12.7166 24.1665 12.6333 23.9665C12.55 23.7665 12.5 23.5498 12.5 23.3332C12.5 23.1165 12.55 22.8998 12.6333 22.6998C12.7166 22.4998 12.8333 22.3165 12.9833 22.1498C13.15 21.9998 13.3333 21.8831 13.5333 21.7998C13.9333 21.6331 14.4 21.6331 14.8 21.7998C15 21.8831 15.1833 21.9998 15.35 22.1498C15.5 22.3165 15.6167 22.4998 15.7 22.6998C15.7834 22.8998 15.8333 23.1165 15.8333 23.3332C15.8333 23.5498 15.7834 23.7665 15.7 23.9665C15.6167 24.1665 15.5 24.3498 15.35 24.5165C15.1833 24.6665 15 24.7832 14.8 24.8665C14.6 24.9498 14.3833 24.9998 14.1667 24.9998Z" fill="#8347AD"/>
<path d="M20 24.9996C19.7833 24.9996 19.5667 24.9497 19.3667 24.8663C19.1667 24.783 18.9834 24.6663 18.8167 24.5163C18.5167 24.1996 18.3333 23.7663 18.3333 23.333C18.3333 22.8996 18.5167 22.4663 18.8167 22.1496C18.9834 21.9996 19.1667 21.8829 19.3667 21.7996C19.7667 21.6163 20.2334 21.6163 20.6334 21.7996C20.8334 21.8829 21.0167 21.9996 21.1833 22.1496C21.4833 22.4663 21.6667 22.8996 21.6667 23.333C21.6667 23.7663 21.4833 24.1996 21.1833 24.5163C21.0167 24.6663 20.8334 24.783 20.6334 24.8663C20.4334 24.9497 20.2167 24.9996 20 24.9996Z" fill="#8347AD"/>
<path d="M14.1667 30.8328C13.95 30.8328 13.7333 30.7829 13.5333 30.6995C13.3333 30.6162 13.15 30.4995 12.9833 30.3495C12.6833 30.0328 12.5 29.5995 12.5 29.1662C12.5 28.7328 12.6833 28.2995 12.9833 27.9828C13.15 27.8328 13.3333 27.7161 13.5333 27.6328C13.9333 27.4661 14.4 27.4661 14.8 27.6328C15 27.7161 15.1833 27.8328 15.35 27.9828C15.65 28.2995 15.8333 28.7328 15.8333 29.1662C15.8333 29.5995 15.65 30.0328 15.35 30.3495C15.1833 30.4995 15 30.6162 14.8 30.6995C14.6 30.7829 14.3833 30.8328 14.1667 30.8328Z" fill="#8347AD"/>
</svg>
