<svg width="21" height="20" viewBox="0 0 21 20" fill="none" xmlns="http://www.w3.org/2000/svg">
    <path d="M14.4579 2.96797V1.66797C14.4579 1.50221 14.392 1.34324 14.2748 1.22603C14.1576 1.10882 13.9986 1.04297 13.8329 1.04297C13.6671 1.04297 13.5082 1.10882 13.3909 1.22603C13.2737 1.34324 13.2079 1.50221 13.2079 1.66797V2.91797H7.79088V1.66797C7.79088 1.50221 7.72503 1.34324 7.60782 1.22603C7.49061 1.10882 7.33164 1.04297 7.16588 1.04297C7.00012 1.04297 6.84115 1.10882 6.72394 1.22603C6.60673 1.34324 6.54088 1.50221 6.54088 1.66797V2.96797C5.60705 2.97615 4.71428 3.35299 4.05704 4.01642C3.39979 4.67984 3.03132 5.5761 3.03188 6.50997C3.02876 6.56673 3.03722 6.62353 3.05675 6.67692C3.07628 6.7303 3.10647 6.77916 3.14548 6.8205C3.18449 6.86185 3.2315 6.89483 3.28366 6.91743C3.33582 6.94003 3.39204 6.95178 3.44888 6.95197H17.5489C17.606 6.95266 17.6626 6.94151 17.7152 6.91921C17.7677 6.89691 17.8151 6.86395 17.8543 6.82241C17.8935 6.78088 17.9236 6.73167 17.9429 6.67789C17.9621 6.62411 17.9699 6.56693 17.9659 6.50997C17.9664 5.57627 17.5981 4.68017 16.9411 4.01677C16.2841 3.35337 15.3915 2.97641 14.4579 2.96797Z" fill="#00C4B3"/>
    <path d="M17.167 8.19922H3.833C3.61232 8.20001 3.4009 8.28803 3.24485 8.44407C3.08881 8.60012 3.00079 8.81154 3 9.03222V14.1662C3 16.6662 4.25 18.3332 7.167 18.3332H13.834C16.75 18.3322 18 16.6662 18 14.1662V9.03222C17.9992 8.81154 17.9112 8.60012 17.7551 8.44407C17.5991 8.28803 17.3877 8.20001 17.167 8.19922ZM8.175 15.1742C8.13541 15.2101 8.09366 15.2435 8.05 15.2742C8.00356 15.3058 7.95311 15.331 7.9 15.3492C7.85278 15.3733 7.80222 15.3901 7.75 15.3992C7.69483 15.409 7.63901 15.4147 7.583 15.4162C7.47396 15.4149 7.36624 15.3922 7.266 15.3492C7.16402 15.3089 7.07067 15.2495 6.991 15.1742C6.83617 15.0163 6.74945 14.8039 6.74945 14.5827C6.74945 14.3615 6.83617 14.1492 6.991 13.9912C7.07067 13.9159 7.16402 13.8565 7.266 13.8162C7.41793 13.7499 7.58671 13.7324 7.749 13.7662C7.80122 13.7753 7.85178 13.7921 7.899 13.8162C7.95211 13.8344 8.00256 13.8597 8.049 13.8912L8.174 13.9912C8.32883 14.1492 8.41555 14.3615 8.41555 14.5827C8.41555 14.8039 8.32883 15.0163 8.174 15.1742H8.175ZM8.175 12.2572C8.01705 12.412 7.80468 12.4988 7.5835 12.4988C7.36232 12.4988 7.14995 12.412 6.992 12.2572C6.83717 12.0993 6.75045 11.8869 6.75045 11.6657C6.75045 11.4445 6.83717 11.2322 6.992 11.0742C7.10906 10.9585 7.25782 10.8801 7.41945 10.849C7.58108 10.8178 7.74831 10.8353 7.9 10.8992C8.003 10.9375 8.09672 10.9971 8.175 11.0742C8.32983 11.2322 8.41655 11.4445 8.41655 11.6657C8.41655 11.8869 8.32983 12.0993 8.175 12.2572ZM11.092 15.1742C10.9342 15.3265 10.7228 15.4108 10.5035 15.4089C10.2842 15.407 10.0743 15.3191 9.91918 15.164C9.76402 15.009 9.67591 14.7992 9.67382 14.5799C9.67173 14.3606 9.75582 14.1492 9.908 13.9912C10.0658 13.8389 10.2772 13.7546 10.4965 13.7565C10.7158 13.7584 10.9257 13.8464 11.0808 14.0014C11.236 14.1564 11.3241 14.3662 11.3262 14.5855C11.3283 14.8049 11.2442 15.0163 11.092 15.1742ZM11.092 12.2572L10.967 12.3572C10.9206 12.3888 10.8701 12.414 10.817 12.4322C10.7698 12.4563 10.7192 12.4731 10.667 12.4822C10.6118 12.492 10.556 12.4977 10.5 12.4992C10.3903 12.5003 10.2815 12.4795 10.18 12.438C10.0784 12.3965 9.98616 12.3352 9.9086 12.2576C9.83103 12.1801 9.76971 12.0878 9.72823 11.9863C9.68675 11.8847 9.66593 11.7759 9.667 11.6662C9.67017 11.4454 9.75661 11.234 9.909 11.0742C9.98699 10.9972 10.0804 10.9376 10.183 10.8992C10.3347 10.8353 10.5019 10.8178 10.6636 10.849C10.8252 10.8801 10.9739 10.9585 11.091 11.0742C11.2458 11.2322 11.3325 11.4445 11.3325 11.6657C11.3325 11.8869 11.2458 12.0993 11.091 12.2572H11.092ZM14.009 15.1742C13.8512 15.3265 13.6398 15.4108 13.4205 15.4089C13.2012 15.407 12.9913 15.3191 12.8362 15.164C12.681 15.009 12.5929 14.7992 12.5908 14.5799C12.5887 14.3606 12.6728 14.1492 12.825 13.9912C12.9836 13.8431 13.1936 13.7624 13.4106 13.7661C13.6275 13.7699 13.8346 13.8577 13.988 14.0112C14.1415 14.1646 14.2294 14.3717 14.2331 14.5887C14.2368 14.8056 14.1571 15.0156 14.009 15.1742ZM14.009 12.2572L13.884 12.3572C13.8376 12.3888 13.7871 12.414 13.734 12.4322C13.6868 12.4563 13.6362 12.4731 13.584 12.4822C13.5288 12.4916 13.473 12.4973 13.417 12.4992C13.3073 12.5003 13.1985 12.4795 13.097 12.438C12.9954 12.3965 12.9032 12.3352 12.8256 12.2576C12.748 12.1801 12.6867 12.0878 12.6452 11.9863C12.6037 11.8847 12.5829 11.7759 12.584 11.6662C12.5872 11.4454 12.6736 11.234 12.826 11.0742C12.9054 10.999 12.9984 10.9396 13.1 10.8992C13.2519 10.8329 13.4207 10.8154 13.583 10.8492C13.6352 10.8583 13.6858 10.8751 13.733 10.8992C13.7861 10.9174 13.8366 10.9427 13.883 10.9742L14.008 11.0742C14.1628 11.2322 14.2495 11.4445 14.2495 11.6657C14.2495 11.8869 14.1638 12.0993 14.009 12.2572Z" fill="#00C4B3"/>
    </svg>
    