<svg width="20" height="21" viewBox="0 0 20 21" fill="none" xmlns="http://www.w3.org/2000/svg">
<path d="M10 0.707703C4.49 0.707703 0 5.1977 0 10.7077C0 16.2177 4.49 20.7077 10 20.7077C15.51 20.7077 20 16.2177 20 10.7077C20 5.1977 15.51 0.707703 10 0.707703ZM14.78 8.4077L9.11 14.0777C8.97 14.2177 8.78 14.2977 8.58 14.2977C8.38 14.2977 8.19 14.2177 8.05 14.0777L5.22 11.2477C4.93 10.9577 4.93 10.4777 5.22 10.1877C5.51 9.8977 5.99 9.8977 6.28 10.1877L8.58 12.4877L13.72 7.3477C14.01 7.0577 14.49 7.0577 14.78 7.3477C15.07 7.6377 15.07 8.1077 14.78 8.4077Z" fill="#00C4B3"/>
</svg>
