<svg width="24" height="24" viewBox="0 0 24 24" fill="none" xmlns="http://www.w3.org/2000/svg">
<path d="M22 6V8.42C22 10 21 11 19.42 11H16V4.01C16 2.9 16.91 1.99 18.02 2C19.11 2.01 20.11 2.45 20.83 3.17C21.55 3.9 22 4.9 22 6Z" fill="#F0C148"/>
<path opacity="0.4" d="M2 7V21C2 21.83 2.94 22.3 3.6 21.8L5.31 20.52C5.71 20.22 6.27 20.26 6.63 20.62L8.29 22.29C8.68 22.68 9.32 22.68 9.71 22.29L11.39 20.61C11.74 20.26 12.3 20.22 12.69 20.52L14.4 21.8C15.06 22.29 16 21.82 16 21V4C16 2.9 16.9 2 18 2H7H6C3 2 2 3.79 2 6V7Z" fill="#F0C148"/>
<path d="M11.43 12.08C10.88 12.08 10.43 12.53 10.43 13.08C10.43 13.63 10.88 14.08 11.43 14.08C11.98 14.08 12.43 13.63 12.43 13.08C12.43 12.53 11.98 12.08 11.43 12.08Z" fill="#F0C148"/>
<path d="M6.56998 10.03C7.12998 10.03 7.56998 9.58 7.56998 9.03C7.56998 8.48 7.11998 8.03 6.56998 8.03C6.01998 8.03 5.56998 8.48 5.56998 9.03C5.56998 9.58 6.01998 10.03 6.56998 10.03Z" fill="#F0C148"/>
<path d="M12.26 7.74C11.97 7.45 11.49 7.45 11.2 7.74L5.73999 13.2C5.44999 13.49 5.44999 13.97 5.73999 14.26C5.88999 14.41 6.07999 14.48 6.26999 14.48C6.45999 14.48 6.64999 14.41 6.79999 14.26L12.26 8.8C12.55 8.51 12.55 8.03 12.26 7.74Z" fill="#F0C148"/>
</svg>
