<svg width="20" height="20" viewBox="0 0 20 20" fill="none" xmlns="http://www.w3.org/2000/svg">
<path d="M9.34909 13.0158C9.30967 13.0593 9.27293 13.1052 9.23909 13.1533C9.2044 13.2044 9.17665 13.2598 9.15659 13.3183C9.13016 13.3702 9.11162 13.4258 9.10159 13.4833C9.09709 13.5443 9.09709 13.6056 9.10159 13.6666C9.09849 13.7868 9.12361 13.9061 9.17492 14.0149C9.21609 14.1287 9.28177 14.232 9.36732 14.3175C9.45286 14.4031 9.55617 14.4688 9.66992 14.5099C9.77965 14.5584 9.89829 14.5835 10.0183 14.5835C10.1382 14.5835 10.2569 14.5584 10.3666 14.5099C10.4803 14.4688 10.5837 14.4031 10.6692 14.3175C10.7547 14.232 10.8204 14.1287 10.8616 14.0149C10.9023 13.9035 10.921 13.7852 10.9166 13.6666C10.9173 13.5459 10.8942 13.4264 10.8485 13.3147C10.8029 13.203 10.7357 13.1014 10.6508 13.0158C10.5655 12.9298 10.4642 12.8616 10.3525 12.8151C10.2407 12.7686 10.1209 12.7446 9.99992 12.7446C9.87891 12.7446 9.7591 12.7686 9.64739 12.8151C9.53569 12.8616 9.43431 12.9298 9.34909 13.0158ZM9.99992 0.833252C8.18693 0.833252 6.41465 1.37087 4.9072 2.37811C3.39974 3.38536 2.22483 4.817 1.53103 6.49199C0.837224 8.16698 0.655693 10.0101 1.00939 11.7882C1.36309 13.5664 2.23613 15.1998 3.51811 16.4817C4.80009 17.7637 6.43344 18.6368 8.2116 18.9905C9.98975 19.3442 11.8329 19.1626 13.5079 18.4688C15.1828 17.775 16.6145 16.6001 17.6217 15.0926C18.629 13.5852 19.1666 11.8129 19.1666 9.99992C19.1666 8.79614 18.9295 7.60414 18.4688 6.49199C18.0082 5.37984 17.3329 4.36931 16.4817 3.51811C15.6305 2.6669 14.62 1.99169 13.5079 1.53102C12.3957 1.07035 11.2037 0.833252 9.99992 0.833252ZM9.99992 17.3333C8.54953 17.3333 7.1317 16.9032 5.92574 16.0974C4.71978 15.2916 3.77985 14.1463 3.22481 12.8063C2.66976 11.4663 2.52454 9.99179 2.8075 8.56926C3.09046 7.14673 3.78889 5.84005 4.81447 4.81447C5.84006 3.78888 7.14673 3.09045 8.56926 2.80749C9.99179 2.52454 11.4663 2.66976 12.8063 3.2248C14.1463 3.77985 15.2916 4.71978 16.0974 5.92574C16.9032 7.1317 17.3333 8.54952 17.3333 9.99992C17.3333 11.9448 16.5606 13.8101 15.1854 15.1854C13.8101 16.5606 11.9448 17.3333 9.99992 17.3333ZM9.99992 5.41659C9.5169 5.41628 9.04231 5.5432 8.62392 5.78457C8.20553 6.02595 7.8581 6.37327 7.61659 6.79159C7.55026 6.89592 7.50573 7.01259 7.48567 7.13458C7.4656 7.25657 7.47042 7.38136 7.49983 7.50144C7.52924 7.62152 7.58264 7.73441 7.65682 7.83332C7.73099 7.93223 7.8244 8.01511 7.93144 8.07698C8.03847 8.13885 8.15692 8.17843 8.27964 8.19333C8.40237 8.20824 8.52685 8.19817 8.64558 8.16372C8.76432 8.12928 8.87486 8.07117 8.97055 7.9929C9.06624 7.91462 9.14512 7.8178 9.20242 7.70825C9.28319 7.56837 9.39948 7.4523 9.53952 7.37182C9.67957 7.29133 9.8384 7.24928 9.99992 7.24992C10.243 7.24992 10.4762 7.3465 10.6481 7.5184C10.82 7.69031 10.9166 7.92347 10.9166 8.16659C10.9166 8.4097 10.82 8.64286 10.6481 8.81477C10.4762 8.98668 10.243 9.08325 9.99992 9.08325C9.75681 9.08325 9.52365 9.17983 9.35174 9.35174C9.17983 9.52365 9.08326 9.7568 9.08326 9.99992V10.9166C9.08326 11.1597 9.17983 11.3929 9.35174 11.5648C9.52365 11.7367 9.75681 11.8333 9.99992 11.8333C10.243 11.8333 10.4762 11.7367 10.6481 11.5648C10.82 11.3929 10.9166 11.1597 10.9166 10.9166V10.7516C11.5228 10.5316 12.0325 10.1055 12.3565 9.54788C12.6804 8.99022 12.7981 8.33644 12.6889 7.70082C12.5797 7.0652 12.2505 6.48819 11.759 6.07064C11.2675 5.6531 10.6448 5.42159 9.99992 5.41659Z" fill="#525454"/>
</svg>
