<svg xmlns="http://www.w3.org/2000/svg" width="32" height="32" viewBox="0 0 32 32">
  <g id="earlyset_icon" transform="translate(-22 -427)">
    <rect id="Button_Shape" data-name="Button Shape" width="32" height="32" rx="10" transform="translate(22 427)" fill="#f7ebee"/>
    <g id="earlyset_inner" transform="translate(26 431)">
      <g id="vuesax_bulk_empty-wallet-tick" data-name="vuesax/bulk/empty-wallet-tick">
        <g id="empty-wallet-tick">
          <path id="Vector" d="M0,0H24V24H0Z" fill="none" opacity="0"/>
          <path id="Vector-2" data-name="Vector" d="M4,0A4,4,0,0,0,0,4,3.921,3.921,0,0,0,.58,6.06,3.97,3.97,0,0,0,4,8,3.905,3.905,0,0,0,6.63,7a3.593,3.593,0,0,0,.79-.94A3.921,3.921,0,0,0,8,4,4,4,0,0,0,4,0ZM6.07,3.57,3.94,5.54a.763.763,0,0,1-.51.2.742.742,0,0,1-.53-.22l-.99-.99A.75.75,0,0,1,2.97,3.47l.48.48,1.6-1.48a.75.75,0,0,1,1.02,1.1Z" transform="translate(1 15)" fill="#f04864"/>
          <path id="Vector-3" data-name="Vector" d="M16.98,5.2H19V3.76A3.768,3.768,0,0,0,15.24,0H3.76A3.768,3.768,0,0,0,0,3.76V8.13a4,4,0,0,1,6.5,3.12,3.921,3.921,0,0,1-.58,2.06,3.593,3.593,0,0,1-.79.94H15.24A3.768,3.768,0,0,0,19,10.49V9.3H17.1a2.132,2.132,0,0,1-2.16-1.87A2.06,2.06,0,0,1,16.98,5.2Z" transform="translate(2.5 7.75)" fill="#f04864" opacity="0.4"/>
          <path id="Vector-4" data-name="Vector" d="M12.35,1.9V5.7H3.76A3.768,3.768,0,0,0,0,9.461V5.791a2.848,2.848,0,0,1,1.84-2.67l7.94-3A1.9,1.9,0,0,1,12.35,1.9Z" transform="translate(2.5 2.049)" fill="#f04864"/>
          <path id="Vector-5" data-name="Vector" d="M5.129,1.02V3.08a1.027,1.027,0,0,1-1,1.02H2.169A2.132,2.132,0,0,1,.009,2.23,2.008,2.008,0,0,1,.609.6,1.993,1.993,0,0,1,2.049,0h2.08A1.027,1.027,0,0,1,5.129,1.02Z" transform="translate(17.431 12.95)" fill="#f04864"/>
          <g id="Group">
            <path id="Vector-6" data-name="Vector" d="M7.75,1.5h-7A.755.755,0,0,1,0,.75.755.755,0,0,1,.75,0h7A.755.755,0,0,1,8.5.75.755.755,0,0,1,7.75,1.5Z" transform="translate(6.25 11.25)" fill="#f04864"/>
          </g>
        </g>
      </g>
    </g>
  </g>
</svg>
