<svg width="20" height="21" viewBox="0 0 20 21" fill="none" xmlns="http://www.w3.org/2000/svg">
<path d="M12.5 19.4582H7.49996C2.97496 19.4582 1.04163 17.5248 1.04163 12.9998V7.99984C1.04163 3.47484 2.97496 1.5415 7.49996 1.5415H9.16663C9.50829 1.5415 9.79163 1.82484 9.79163 2.1665C9.79163 2.50817 9.50829 2.7915 9.16663 2.7915H7.49996C3.65829 2.7915 2.29163 4.15817 2.29163 7.99984V12.9998C2.29163 16.8415 3.65829 18.2082 7.49996 18.2082H12.5C16.3416 18.2082 17.7083 16.8415 17.7083 12.9998V11.3332C17.7083 10.9915 17.9916 10.7082 18.3333 10.7082C18.675 10.7082 18.9583 10.9915 18.9583 11.3332V12.9998C18.9583 17.5248 17.025 19.4582 12.5 19.4582Z" fill="#525454"/>
<path d="M7.08336 15.2415C6.57503 15.2415 6.10836 15.0581 5.76669 14.7248C5.35836 14.3165 5.18336 13.7248 5.27503 13.0998L5.63336 10.5915C5.70003 10.1081 6.01669 9.48314 6.35836 9.14147L12.925 2.5748C14.5834 0.916471 16.2667 0.916471 17.925 2.5748C18.8334 3.48314 19.2417 4.40814 19.1584 5.33314C19.0834 6.08314 18.6834 6.81647 17.925 7.56647L11.3584 14.1331C11.0167 14.4748 10.3917 14.7915 9.90836 14.8581L7.40003 15.2165C7.29169 15.2415 7.18336 15.2415 7.08336 15.2415ZM13.8084 3.45814L7.24169 10.0248C7.08336 10.1831 6.90003 10.5498 6.86669 10.7665L6.50836 13.2748C6.47503 13.5165 6.52503 13.7165 6.65003 13.8415C6.77503 13.9665 6.97503 14.0165 7.21669 13.9831L9.72503 13.6248C9.94169 13.5915 10.3167 13.4081 10.4667 13.2498L17.0334 6.68314C17.575 6.14147 17.8584 5.65814 17.9 5.20814C17.95 4.66647 17.6667 4.09147 17.0334 3.4498C15.7 2.11647 14.7834 2.49147 13.8084 3.45814Z" fill="#525454"/>
<path d="M16.5417 8.69173C16.4833 8.69173 16.425 8.6834 16.375 8.66673C14.1833 8.05006 12.4417 6.3084 11.825 4.11673C11.7333 3.7834 11.925 3.44173 12.2583 3.34173C12.5917 3.25006 12.9333 3.44173 13.025 3.77506C13.525 5.55006 14.9333 6.9584 16.7083 7.4584C17.0417 7.55006 17.2333 7.90006 17.1417 8.2334C17.0667 8.51673 16.8167 8.69173 16.5417 8.69173Z" fill="#525454"/>
</svg>
