<svg width="25" height="24" viewBox="0 0 25 24" fill="none" xmlns="http://www.w3.org/2000/svg">
    <path d="M6.60023 18.8436C6.95507 18.8436 7.22715 18.5361 7.22715 18.1103L7.21529 15.4252L8.30347 14.7983L11.2606 12.8466L11.0595 16.3833V17.6371L8.71751 18.9619C8.339 19.1749 8.22071 19.5652 8.40996 19.8727C8.61107 20.2394 8.98958 20.2867 9.35623 20.0738L11.0595 19.1038V21.2448C11.0595 21.6824 11.3434 21.99 11.7574 21.99C12.195 21.99 12.4553 21.6824 12.4553 21.2448V19.1038L14.1467 20.0738C14.5134 20.2867 14.8919 20.2394 15.1048 19.8845C15.2941 19.5652 15.164 19.1749 14.7855 18.9619L12.4553 17.6371V16.3833L12.2542 12.8466L15.2113 14.7865L16.2995 15.4134L16.2758 18.1103C16.2758 18.5361 16.5479 18.8436 16.9146 18.8436C17.3404 18.8436 17.5651 18.5243 17.5651 18.1103V16.1586L19.434 17.235C19.8125 17.4479 20.2029 17.3651 20.4039 16.9866C20.6169 16.6317 20.4986 16.2177 20.1319 16.0166L18.263 14.9403L19.9545 13.9585C20.3212 13.7456 20.475 13.3907 20.262 13.0359C20.0728 12.7165 19.6943 12.6219 19.3158 12.8466L16.9974 14.2069L15.9092 13.58L12.7391 11.995L15.9092 10.41L16.9974 9.77129L19.3158 11.1315C19.6824 11.3563 20.0846 11.2617 20.2738 10.9541C20.475 10.5874 20.3212 10.2326 19.9545 10.0197L18.2749 9.03789L20.1319 7.97337C20.5104 7.74864 20.6287 7.37013 20.4039 6.99162C20.2029 6.63673 19.8125 6.53029 19.434 6.75503L17.5651 7.83141L17.5533 5.8679C17.5533 5.45392 17.3404 5.13451 16.9146 5.14637C16.5479 5.14637 16.2758 5.44206 16.2758 5.8679L16.2995 8.56475L15.2113 9.19166L12.2542 11.1315L12.4553 7.59486V6.34104L14.7855 5.01626C15.164 4.80334 15.2941 4.41297 15.1048 4.10547C14.8919 3.73877 14.5134 3.69148 14.1467 3.90435L12.4553 4.87429V2.73335C12.4553 2.29574 12.195 2 11.7574 2C11.3434 2 11.0595 2.29574 11.0595 2.73335V4.87429L9.35623 3.90435C8.98958 3.70329 8.61107 3.73877 8.40996 4.10547C8.22071 4.41297 8.339 4.80334 8.71751 5.01626L11.0595 6.34104V7.59486L11.2606 11.1434L8.30347 9.19166L7.21529 8.55294L7.22715 5.8679C7.22715 5.44206 6.95507 5.14637 6.60023 5.14637C6.17439 5.14637 5.94965 5.45392 5.94965 5.8679L5.93784 7.81954L4.08078 6.75503C3.71408 6.5421 3.31195 6.63673 3.11084 6.99162C2.88611 7.37013 3.01621 7.76045 3.38286 7.97337L5.23998 9.03789L3.56031 10.0197C3.19366 10.2326 3.02802 10.5756 3.24094 10.9541C3.41839 11.2617 3.83238 11.3563 4.19908 11.1315L6.51742 9.7831L7.60565 10.41L10.7756 11.995L7.60565 13.58L6.51742 14.2069L4.19908 12.8466C3.82057 12.6219 3.4302 12.7165 3.25275 13.0241C3.05169 13.4026 3.19366 13.7456 3.56031 13.9585L5.23998 14.9403L3.38286 16.0166C3.01621 16.2177 2.89792 16.6317 3.11084 16.9866C3.32376 17.3651 3.71408 17.4361 4.08078 17.235L5.93784 16.1586L5.94965 18.1103C5.94965 18.5243 6.17439 18.8436 6.60023 18.8436Z" fill="black"/>
    </svg>
    