<svg id="vuesax_bulk_message-search" data-name="vuesax/bulk/message-search" xmlns="http://www.w3.org/2000/svg" width="24" height="24" viewBox="0 0 24 24">
  <g id="message-search">
    <path id="Vector" d="M0,0H24V24H0Z" fill="none" opacity="0"/>
    <g id="Group">
      <path id="Vector-2" data-name="Vector" d="M0,10.96V4.98A4.991,4.991,0,0,1,5,0H15a4.993,4.993,0,0,1,5,4.99v6.98a4.991,4.991,0,0,1-5,4.98H13.5a1.014,1.014,0,0,0-.8.4l-1.5,1.99a1.421,1.421,0,0,1-2.4,0L7.3,17.35a1.13,1.13,0,0,0-.8-.4H5a4.991,4.991,0,0,1-5-4.98Z" transform="translate(2 2.01)" fill="#4b5353" opacity="0.4"/>
      <g id="Group-2" data-name="Group">
        <path id="Vector-3" data-name="Vector" d="M1.01,2A1,1,0,1,1,2,1,.988.988,0,0,1,1.01,2Z" transform="translate(10.99 10)" fill="#4b5353"/>
      </g>
      <g id="Group-3" data-name="Group">
        <path id="Vector-4" data-name="Vector" d="M1.01,2A1,1,0,1,1,2,1,.988.988,0,0,1,1.01,2Z" transform="translate(14.99 10)" fill="#4b5353"/>
      </g>
      <g id="Group-4" data-name="Group">
        <path id="Vector-5" data-name="Vector" d="M1.01,2A1,1,0,1,1,2,1,.988.988,0,0,1,1.01,2Z" transform="translate(6.99 10)" fill="#4b5353"/>
      </g>
    </g>
  </g>
</svg>
