<svg width="40" height="40" viewBox="0 0 40 40" fill="none" xmlns="http://www.w3.org/2000/svg">
<rect width="40" height="40" rx="20" fill="#E6F9F7"/>
<path d="M20 29.3213C18.7344 29.3213 17.5479 29.0811 16.4404 28.6006C15.333 28.126 14.3574 27.4697 13.5137 26.6318C12.6758 25.7939 12.0195 24.8213 11.5449 23.7139C11.0703 22.6064 10.833 21.4199 10.833 20.1543C10.833 18.8887 11.0703 17.7021 11.5449 16.5947C12.0195 15.4873 12.6758 14.5146 13.5137 13.6768C14.3574 12.833 15.333 12.1738 16.4404 11.6992C17.5479 11.2246 18.7344 10.9873 20 10.9873C21.2656 10.9873 22.4521 11.2246 23.5596 11.6992C24.667 12.1738 25.6396 12.833 26.4775 13.6768C27.3154 14.5146 27.9717 15.4873 28.4463 16.5947C28.9268 17.7021 29.167 18.8887 29.167 20.1543C29.167 21.4199 28.9268 22.6064 28.4463 23.7139C27.9717 24.8213 27.3154 25.7939 26.4775 26.6318C25.6396 27.4697 24.667 28.126 23.5596 28.6006C22.4521 29.0811 21.2656 29.3213 20 29.3213ZM20 27.3086C20.9902 27.3086 21.916 27.124 22.7773 26.7549C23.6445 26.3857 24.4033 25.873 25.0537 25.2168C25.71 24.5547 26.2227 23.793 26.5918 22.9316C26.9668 22.0645 27.1543 21.1387 27.1543 20.1543C27.1543 19.1641 26.9668 18.2383 26.5918 17.377C26.2227 16.5098 25.71 15.748 25.0537 15.0918C24.4033 14.4355 23.6445 13.9229 22.7773 13.5537C21.916 13.1846 20.9902 13 20 13C19.0098 13 18.0811 13.1846 17.2139 13.5537C16.3525 13.9229 15.5938 14.4355 14.9375 15.0918C14.2812 15.748 13.7686 16.5098 13.3994 17.377C13.0303 18.2383 12.8457 19.1641 12.8457 20.1543C12.8457 21.1387 13.0303 22.0645 13.3994 22.9316C13.7686 23.793 14.2812 24.5547 14.9375 25.2168C15.5938 25.873 16.3525 26.3857 17.2139 26.7549C18.0811 27.124 19.0098 27.3086 20 27.3086ZM15.4561 20.8662C15.1865 20.8662 14.9902 20.7871 14.8672 20.6289C14.7441 20.4648 14.7061 20.2832 14.7529 20.084C14.7998 19.8789 14.9463 19.7207 15.1924 19.6094L22.9092 15.9883C23.1553 15.877 23.3809 15.8623 23.5859 15.9443C23.7969 16.0264 23.9434 16.1699 24.0254 16.375C24.1133 16.5801 24.0986 16.8086 23.9814 17.0605L20.3955 24.7861C20.2842 25.0264 20.126 25.1729 19.9209 25.2256C19.7217 25.2725 19.54 25.2344 19.376 25.1113C19.2119 24.9824 19.1299 24.7832 19.1299 24.5137V21.165C19.1299 20.9658 19.0332 20.8662 18.8398 20.8662H15.4561Z" fill="#00C4B3"/>
</svg>
