<svg width="32" height="12" viewBox="0 0 32 12" fill="none" xmlns="http://www.w3.org/2000/svg">
    <g clip-path="url(#clip0_2197_34241)">
    <path d="M13.6459 0H11.5289C11.1667 0 10.873 0.286895 10.873 0.640799V1.39661C10.873 1.75052 11.1667 2.03741 11.5289 2.03741H13.6459C14.0081 2.03741 14.3018 1.75052 14.3018 1.39661V0.640799C14.3018 0.286895 14.0081 0 13.6459 0Z" fill="#00C4B3"/>
    <path d="M11.4651 8.63081H10.0944V3.59274C10.0944 3.09982 9.68448 2.69727 9.17784 2.69727H8.08889C7.51498 2.69727 7.17232 3.03204 7.17232 3.59274L7.16602 9.83847C7.16602 10.2821 7.3426 10.697 7.66214 11.0112C7.98168 11.3255 8.40843 11.498 8.86251 11.498H11.463C11.7972 11.498 12.0684 11.233 12.0684 10.9065V9.22027C12.0684 8.8937 11.7972 8.62876 11.463 8.62876L11.4651 8.63081Z" fill="#FF5100"/>
    <path d="M13.9373 2.72266H11.3369C11.0026 2.72266 10.7314 2.9876 10.7314 3.31416V5.00037C10.7314 5.32693 11.0026 5.59187 11.3369 5.59187H12.7075V10.6299C12.7075 11.1229 13.1175 11.5254 13.6241 11.5254H14.7131C15.287 11.5254 15.6296 11.1906 15.6296 10.6299L15.6359 4.38421C15.6359 3.94058 15.4593 3.52571 15.1398 3.21147C14.8203 2.89723 14.3935 2.72471 13.9394 2.72471L13.9373 2.72266Z" fill="#FF5100"/>
    <path d="M19.6449 2.70703H17.3072C16.7249 2.70703 16.3906 3.03359 16.3906 3.60251V10.6102C16.3906 11.1791 16.7249 11.5057 17.3072 11.5057H18.3961C18.9785 11.5057 19.3127 11.1791 19.3127 10.6102V9.1602H19.4599C21.766 9.1602 22.9853 8.03675 22.9853 5.90897C22.9853 3.78119 21.8312 2.70703 19.6449 2.70703ZM19.3127 4.96831H19.6449C20.1347 4.96831 20.1872 5.67689 20.1872 5.98291C20.1872 6.28893 20.1347 6.96054 19.6449 6.96054H19.3127V4.96831Z" fill="#00C4B3"/>
    <path d="M3.25424 2.69922H0.916568C0.412035 2.69922 0 3.09972 0 3.59469V10.6045C0 11.1652 0.342662 11.4999 0.916568 11.4999H2.00552C2.57942 11.4999 2.92209 11.1652 2.92209 10.6045V9.15444C3.23952 9.15444 3.93325 9.15444 4.55131 9.15239C4.90027 9.15239 5.18197 8.87307 5.18197 8.53213V7.57504C5.18197 7.2341 4.89817 6.95478 4.5471 6.95478H2.91998V4.96255H3.25424C3.48548 4.96255 3.64735 5.11864 3.73354 5.42467C3.80502 5.67524 4.03416 5.84981 4.29273 5.84981H5.97241C6.14058 5.84981 6.30035 5.77793 6.40967 5.6547C6.51898 5.53147 6.56944 5.36716 6.54631 5.20491C6.30876 3.56594 5.16936 2.69922 3.25424 2.69922Z" fill="#00C4B3"/>
    <path d="M30.0869 9.20384L30.6608 8.81567C30.808 8.71503 30.8458 8.51786 30.7428 8.37409L29.7737 7.01239C29.6581 6.85014 29.7779 6.63038 29.9776 6.63038H31.6762C31.8549 6.63038 31.9999 6.48866 31.9999 6.31409V5.63016C31.9999 5.45558 31.8549 5.31387 31.6762 5.31387H29.9776C29.7758 5.31387 29.6581 5.09411 29.7737 4.93185L30.7428 3.57015C30.8458 3.42638 30.808 3.22716 30.6608 3.12858L30.0869 2.7404C29.9398 2.63976 29.7358 2.67673 29.6349 2.8205L28.2138 4.82094L26.7927 2.8205C26.6897 2.67673 26.4879 2.63976 26.3408 2.7404L25.7668 3.12858C25.6197 3.22922 25.5819 3.42638 25.6849 3.57015L26.654 4.93185C26.7696 5.09411 26.6498 5.31387 26.4501 5.31387H24.7515C24.5728 5.31387 24.4277 5.45558 24.4277 5.63016V6.31409C24.4277 6.48866 24.5728 6.63038 24.7515 6.63038H26.4501C26.6519 6.63038 26.7696 6.85014 26.654 7.01239L25.6849 8.37409C25.5819 8.51786 25.6197 8.71708 25.7668 8.81567L26.3408 9.20384C26.4879 9.30448 26.6918 9.26751 26.7927 9.12374L28.2138 7.1233L29.6349 9.12374C29.7379 9.26751 29.9398 9.30448 30.0869 9.20384Z" fill="#FF5100"/>
    </g>
    <defs>
    <clipPath id="clip0_2197_34241">
    <rect width="32" height="11.52" fill="white"/>
    </clipPath>
    </defs>
    </svg>
    