<svg width="41" height="40" viewBox="0 0 41 40" fill="none" xmlns="http://www.w3.org/2000/svg">
    <path d="M28.25 0H12.25C5.62258 0 0.25 5.37258 0.25 12V28C0.25 34.6274 5.62258 40 12.25 40H28.25C34.8774 40 40.25 34.6274 40.25 28V12C40.25 5.37258 34.8774 0 28.25 0Z" fill="#FFEEE6"/>
    <path d="M26.1977 17.6088L26.1257 17.6838L22.0657 21.0838C21.5728 21.4973 20.95 21.7239 20.3067 21.7239C19.6633 21.7239 19.0406 21.4973 18.5477 21.0838L14.4537 17.7408L14.3357 17.6218C14.2347 17.4816 14.1856 17.3106 14.1969 17.1382C14.2082 16.9657 14.2792 16.8026 14.3977 16.6768C14.5117 16.5542 14.6678 16.4793 14.8347 16.4671C15.0017 16.4548 15.167 16.5062 15.2977 16.6108L19.3477 19.9988C19.5965 20.2176 19.9164 20.3382 20.2477 20.3382C20.579 20.3382 20.8989 20.2176 21.1477 19.9988L25.2077 16.6108C25.2735 16.5467 25.352 16.4968 25.438 16.4645C25.5241 16.4321 25.6159 16.4179 25.7077 16.4228C25.8912 16.4427 26.0609 16.53 26.1837 16.6678C26.2918 16.8003 26.3517 16.9656 26.3535 17.1366C26.3553 17.3075 26.299 17.4741 26.1937 17.6088" fill="#FF5100"/>
    <path opacity="0.4" d="M27.9171 12.9233C27.5026 12.4847 27.0032 12.1349 26.4493 11.8953C25.8955 11.6557 25.2986 11.5311 24.6951 11.5293H15.8041C15.1929 11.542 14.5902 11.6751 14.0305 11.9209C13.4707 12.1667 12.9649 12.5205 12.542 12.9619C12.1191 13.4033 11.7873 13.9238 11.5656 14.4935C11.3439 15.0633 11.2367 15.6711 11.2501 16.2823V23.7173C11.2247 24.9512 11.6899 26.1448 12.5438 27.036C13.3976 27.9271 14.5703 28.443 15.8041 28.4703H24.6951C25.9291 28.443 27.1018 27.9272 27.9558 27.036C28.8098 26.1449 29.2753 24.9513 29.2501 23.7173V16.2823C29.2548 15.0328 28.7773 13.8296 27.9171 12.9233Z" fill="#FF5100"/>
    </svg>
    