<svg width="15" height="15" viewBox="0 0 15 15" fill="none" xmlns="http://www.w3.org/2000/svg">
<g opacity="0.5">
<path d="M7.05625 9.55625C7.02937 9.58595 7.00433 9.61726 6.98125 9.65C6.9576 9.68484 6.93868 9.72267 6.925 9.7625C6.90698 9.79793 6.89434 9.83585 6.8875 9.875C6.88443 9.91661 6.88443 9.95839 6.8875 10C6.88539 10.082 6.90251 10.1633 6.9375 10.2375C6.96557 10.3151 7.01036 10.3855 7.06868 10.4438C7.12701 10.5021 7.19744 10.5469 7.275 10.575C7.34982 10.6081 7.43071 10.6251 7.5125 10.6251C7.5943 10.6251 7.67519 10.6081 7.75 10.575C7.82756 10.5469 7.898 10.5021 7.95632 10.4438C8.01465 10.3855 8.05943 10.3151 8.0875 10.2375C8.11526 10.1615 8.12799 10.0808 8.125 10C8.12548 9.91775 8.10971 9.83621 8.07861 9.76006C8.04751 9.68391 8.00168 9.61465 7.94375 9.55625C7.88565 9.49767 7.81652 9.45117 7.74036 9.41944C7.6642 9.38771 7.58251 9.37138 7.5 9.37138C7.41749 9.37138 7.3358 9.38771 7.25964 9.41944C7.18348 9.45117 7.11435 9.49767 7.05625 9.55625ZM7.5 1.25C6.26387 1.25 5.0555 1.61656 4.02769 2.30332C2.99988 2.99007 2.1988 3.96619 1.72576 5.10823C1.25271 6.25027 1.12894 7.50693 1.37009 8.71932C1.61125 9.9317 2.20651 11.0453 3.08059 11.9194C3.95466 12.7935 5.06831 13.3888 6.28069 13.6299C7.49307 13.8711 8.74974 13.7473 9.89177 13.2742C11.0338 12.8012 12.0099 12.0001 12.6967 10.9723C13.3834 9.94451 13.75 8.73613 13.75 7.5C13.75 6.67924 13.5883 5.86651 13.2742 5.10823C12.9602 4.34994 12.4998 3.66095 11.9194 3.08058C11.3391 2.50022 10.6501 2.03984 9.89177 1.72575C9.13349 1.41166 8.32076 1.25 7.5 1.25ZM7.5 12.5C6.5111 12.5 5.5444 12.2068 4.72215 11.6573C3.89991 11.1079 3.25904 10.327 2.88061 9.41342C2.50217 8.49979 2.40315 7.49445 2.59608 6.52455C2.789 5.55464 3.26521 4.66373 3.96447 3.96447C4.66373 3.2652 5.55465 2.789 6.52455 2.59607C7.49446 2.40315 8.49979 2.50216 9.41342 2.8806C10.327 3.25904 11.1079 3.8999 11.6573 4.72215C12.2068 5.54439 12.5 6.51109 12.5 7.5C12.5 8.82608 11.9732 10.0979 11.0355 11.0355C10.0979 11.9732 8.82608 12.5 7.5 12.5ZM7.5 4.375C7.17067 4.37479 6.84709 4.46133 6.56182 4.6259C6.27656 4.79048 6.03967 5.02729 5.875 5.3125C5.82978 5.38364 5.79942 5.46318 5.78574 5.54636C5.77206 5.62954 5.77534 5.71462 5.7954 5.79649C5.81545 5.87836 5.85186 5.95534 5.90243 6.02277C5.953 6.09021 6.01669 6.14672 6.08967 6.1889C6.16265 6.23109 6.24341 6.25807 6.32709 6.26824C6.41076 6.2784 6.49563 6.27153 6.57659 6.24805C6.65754 6.22456 6.73291 6.18494 6.79816 6.13158C6.8634 6.07821 6.91718 6.01219 6.95625 5.9375C7.01132 5.84212 7.09061 5.76299 7.18609 5.70811C7.28158 5.65323 7.38987 5.62456 7.5 5.625C7.66576 5.625 7.82473 5.69085 7.94194 5.80806C8.05915 5.92527 8.125 6.08424 8.125 6.25C8.125 6.41576 8.05915 6.57473 7.94194 6.69194C7.82473 6.80915 7.66576 6.875 7.5 6.875C7.33424 6.875 7.17527 6.94085 7.05806 7.05806C6.94085 7.17527 6.875 7.33424 6.875 7.5V8.125C6.875 8.29076 6.94085 8.44973 7.05806 8.56694C7.17527 8.68415 7.33424 8.75 7.5 8.75C7.66576 8.75 7.82473 8.68415 7.94194 8.56694C8.05915 8.44973 8.125 8.29076 8.125 8.125V8.0125C8.53836 7.86251 8.88585 7.57202 9.10673 7.19179C9.32762 6.81157 9.40784 6.36581 9.33338 5.93243C9.25891 5.49906 9.0345 5.10564 8.69937 4.82095C8.36424 4.53626 7.93972 4.37841 7.5 4.375Z" fill="#525454"/>
</g>
</svg>
