<svg width="18" height="18" viewBox="0 0 18 18" fill="none" xmlns="http://www.w3.org/2000/svg">
<g clip-path="url(#clip0_5049_3787)">
<path d="M17.8129 9.06294C12.9504 9.06294 9.00043 13.0406 9.00043 17.9371C9.00043 17.9748 8.97543 18 8.93793 18C8.90043 18 8.87543 17.9748 8.87543 17.9371C8.87543 13.0406 4.92543 9.06294 0.0629272 9.06294C0.0254272 9.06294 0.000427246 9.03776 0.000427246 9C0.000427246 8.96224 0.0254272 8.93706 0.0629272 8.93706C4.92543 8.93706 8.87543 4.95944 8.87543 0.0629371C8.87543 0.0251748 8.90043 0 8.93793 0C8.97543 0 9.00043 0.0251748 9.00043 0.0629371C9.00043 4.95944 12.9504 8.93706 17.8129 8.93706C17.8504 8.93706 17.8754 8.96224 17.8754 9C17.8754 9.03776 17.8504 9.06294 17.8129 9.06294Z" fill="url(#paint0_linear_5049_3787)"/>
<path d="M12.938 2.45455C14.2505 2.45455 15.313 1.38462 15.313 0.0629371C15.313 0.0251748 15.338 0 15.3755 0C15.413 0 15.438 0.0251748 15.438 0.0629371C15.438 1.38462 16.5005 2.45455 17.813 2.45455C17.8505 2.45455 17.8755 2.47972 17.8755 2.51748C17.8755 2.55524 17.8505 2.58042 17.813 2.58042C16.5005 2.58042 15.438 3.65035 15.438 4.97203C15.438 5.00979 15.413 5.03497 15.3755 5.03497C15.338 5.03497 15.313 5.00979 15.313 4.97203C15.313 3.65035 14.2505 2.58042 12.938 2.58042C12.9005 2.58042 12.8755 2.55524 12.8755 2.51748C12.8755 2.47972 12.9005 2.45455 12.938 2.45455Z" fill="url(#paint1_linear_5049_3787)"/>
<path d="M4.18799 15.5454C3.28799 15.5454 2.56299 16.2755 2.56299 17.1818C2.56299 17.2195 2.53799 17.2447 2.50049 17.2447C2.46299 17.2447 2.43799 17.2195 2.43799 17.1818C2.43799 16.2755 1.71299 15.5454 0.812988 15.5454C0.775488 15.5454 0.750488 15.5202 0.750488 15.4825C0.750488 15.4447 0.775488 15.4195 0.812988 15.4195C1.71299 15.4195 2.43799 14.6894 2.43799 13.7832C2.43799 13.7454 2.46299 13.7202 2.50049 13.7202C2.53799 13.7202 2.56299 13.7454 2.56299 13.7832C2.56299 14.6894 3.28799 15.4195 4.18799 15.4195C4.22549 15.4195 4.25049 15.4447 4.25049 15.4825C4.25049 15.5202 4.22549 15.5454 4.18799 15.5454Z" fill="url(#paint2_linear_5049_3787)"/>
</g>
<defs>
<linearGradient id="paint0_linear_5049_3787" x1="8.93868" y1="18.0035" x2="8.93868" y2="0.0035255" gradientUnits="userSpaceOnUse">
<stop stop-color="#FFAE08"/>
<stop offset="1" stop-color="#FCD88E"/>
</linearGradient>
<linearGradient id="paint1_linear_5049_3787" x1="15.375" y1="5.03597" x2="15.375" y2="0.00100716" gradientUnits="userSpaceOnUse">
<stop stop-color="#FFAE08"/>
<stop offset="1" stop-color="#FCD88E"/>
</linearGradient>
<linearGradient id="paint2_linear_5049_3787" x1="2.49999" y1="17.2447" x2="2.49999" y2="13.7202" gradientUnits="userSpaceOnUse">
<stop stop-color="#FFAE08"/>
<stop offset="1" stop-color="#FCD88E"/>
</linearGradient>
<clipPath id="clip0_5049_3787">
<rect width="18" height="18" fill="white"/>
</clipPath>
</defs>
</svg>
