<svg width="16" height="16" viewBox="0 0 16 16" fill="none" xmlns="http://www.w3.org/2000/svg">
<g id="&#240;&#159;&#166;&#134; icon &#34;info&#34;">
<path id="Vector" d="M8 0C6.41775 0 4.87103 0.469192 3.55544 1.34824C2.23985 2.22729 1.21447 3.47672 0.608967 4.93853C0.00346625 6.40034 -0.15496 8.00887 0.153721 9.56072C0.462403 11.1126 1.22433 12.538 2.34315 13.6569C3.46197 14.7757 4.88743 15.5376 6.43928 15.8463C7.99113 16.155 9.59966 15.9965 11.0615 15.391C12.5233 14.7855 13.7727 13.7602 14.6518 12.4446C15.5308 11.129 16 9.58225 16 8C15.9976 5.879 15.154 3.84556 13.6542 2.34579C12.1544 0.846017 10.121 0.0023935 8 0ZM8 15.0588C6.6039 15.0588 5.23915 14.6448 4.07833 13.8692C2.91751 13.0936 2.01277 11.9911 1.4785 10.7013C0.944235 9.41146 0.804447 7.99217 1.07681 6.62289C1.34918 5.25361 2.02147 3.99585 3.00866 3.00866C3.99585 2.02146 5.25362 1.34918 6.62289 1.07681C7.99217 0.804443 9.41146 0.944232 10.7013 1.4785C11.9911 2.01276 13.0936 2.91751 13.8692 4.07833C14.6448 5.23914 15.0588 6.6039 15.0588 8C15.0567 9.87146 14.3123 11.6657 12.989 12.989C11.6657 14.3123 9.87147 15.0567 8 15.0588ZM9.09804 11.7647C9.09803 11.8895 9.04845 12.0092 8.9602 12.0975C8.87195 12.1857 8.75226 12.2353 8.62745 12.2353H8C7.8752 12.2353 7.7555 12.1857 7.66725 12.0975C7.579 12.0092 7.52942 11.8895 7.52941 11.7647V7.84314H7.37255C7.24774 7.84314 7.12805 7.79356 7.03979 7.7053C6.95154 7.61705 6.90196 7.49735 6.90196 7.37255C6.90196 7.24774 6.95154 7.12804 7.03979 7.03979C7.12805 6.95154 7.24774 6.90196 7.37255 6.90196H8C8.12481 6.90197 8.2445 6.95155 8.33275 7.0398C8.421 7.12805 8.47058 7.24774 8.47059 7.37255V11.2941H8.62745C8.75226 11.2941 8.87195 11.3437 8.9602 11.432C9.04845 11.5202 9.09803 11.6399 9.09804 11.7647ZM7.44539 5.10363C7.35419 5.01242 7.2869 4.90012 7.24946 4.77669C7.21203 4.65326 7.20561 4.5225 7.23078 4.396C7.25595 4.2695 7.31192 4.15115 7.39375 4.05145C7.47558 3.95175 7.58073 3.87376 7.6999 3.82441C7.81906 3.77505 7.94856 3.75584 8.07693 3.76848C8.20529 3.78113 8.32855 3.82523 8.43579 3.89689C8.54304 3.96854 8.63096 4.06554 8.69177 4.17929C8.75257 4.29305 8.78439 4.42004 8.78439 4.54902V4.54925C8.78433 4.70436 8.73829 4.85596 8.65208 4.98491C8.56587 5.11385 8.44337 5.21434 8.30006 5.27367C8.15675 5.33301 7.99906 5.34852 7.84694 5.31825C7.69481 5.28799 7.55508 5.2133 7.44539 5.10363Z" fill="#1D1F1F"/>
</g>
</svg>
