<svg id="vuesax_bulk_info-circle" data-name="vuesax/bulk/info-circle" xmlns="http://www.w3.org/2000/svg" width="32" height="32" viewBox="0 0 32 32">
  <g id="info-circle">
    <path id="Vector" d="M26.667,13.333A13.333,13.333,0,1,1,13.333,0,13.333,13.333,0,0,1,26.667,13.333Z" transform="translate(2.667 2.667)" fill="#4b5353" opacity="0.4"/>
    <path id="Vector-2" data-name="Vector" d="M1,8.667a1.007,1.007,0,0,0,1-1V1A1.007,1.007,0,0,0,1,0,1.007,1.007,0,0,0,0,1V7.667A1.007,1.007,0,0,0,1,8.667Z" transform="translate(15 9.667)" fill="#4b5353"/>
    <path id="Vector-3" data-name="Vector" d="M2.56.82A1.54,1.54,0,0,0,2.28.38,1.54,1.54,0,0,0,1.84.1,1.334,1.334,0,0,0,.827.1a1.54,1.54,0,0,0-.44.28,1.54,1.54,0,0,0-.28.44A1.327,1.327,0,0,0,0,1.327a1.327,1.327,0,0,0,.107.507,1.376,1.376,0,0,0,.28.44,1.54,1.54,0,0,0,.44.28,1.327,1.327,0,0,0,.507.107,1.327,1.327,0,0,0,.507-.107,1.54,1.54,0,0,0,.44-.28,1.376,1.376,0,0,0,.28-.44,1.327,1.327,0,0,0,.107-.507A1.327,1.327,0,0,0,2.56.82Z" transform="translate(14.667 20.007)" fill="#4b5353"/>
    <path id="Vector-4" data-name="Vector" d="M0,0H32V32H0Z" fill="none" opacity="0"/>
  </g>
</svg>
