<svg width="15" height="15" viewBox="0 0 15 15" fill="none" xmlns="http://www.w3.org/2000/svg">
<path d="M12.5391 8.62031C12.2344 8.30625 12.0844 7.90312 12.0844 7.5C12.0844 7.09688 12.2344 6.69375 12.5391 6.37969C13.5656 5.32031 12.7453 3.64219 11.4094 3.64219C11.2734 3.64219 11.1328 3.65625 10.9922 3.69375C10.1484 3.90937 9.28595 3.4125 9.05157 2.57344C8.83126 1.79531 8.16564 1.40625 7.50001 1.40625C6.83439 1.40625 6.16876 1.79531 5.94845 2.57344C5.75157 3.28125 5.10939 3.74531 4.40626 3.74531C4.27501 3.74531 4.13907 3.72656 4.00782 3.69375C2.88282 3.4125 1.99689 4.3125 1.99689 5.27344C1.99689 5.65312 2.13751 6.04688 2.46095 6.37969C2.76564 6.69375 2.91564 7.09688 2.91564 7.5C2.91564 7.90312 2.76564 8.30625 2.46095 8.62031C1.43439 9.67969 2.2547 11.3578 3.59064 11.3578C3.72657 11.3578 3.8672 11.3438 4.00782 11.3063C4.13907 11.2734 4.27501 11.2547 4.40626 11.2547C5.10939 11.2547 5.75157 11.7188 5.94845 12.4266C6.16876 13.2047 6.83439 13.5938 7.50001 13.5938C8.16564 13.5938 8.83126 13.2047 9.05157 12.4266C9.24845 11.7188 9.89064 11.2547 10.5938 11.2547C10.725 11.2547 10.8609 11.2734 10.9922 11.3063C12.1172 11.5875 13.0031 10.6875 13.0031 9.72656C13.0031 9.34688 12.8625 8.95312 12.5391 8.62031ZM10.1766 6.21094L6.92814 9.45469C6.84376 9.54375 6.72189 9.59062 6.60001 9.59062H6.55314C6.41251 9.57656 6.28595 9.50156 6.21095 9.38438L4.7672 7.21875C4.62189 7.00312 4.68282 6.7125 4.89845 6.56719C5.10939 6.42656 5.4047 6.48281 5.54532 6.69844L6.67032 8.38594L9.51095 5.54531C9.69376 5.3625 9.99376 5.3625 10.1766 5.54531C10.3594 5.72813 10.3594 6.02344 10.1766 6.21094Z" fill="white"/>
</svg>
