<svg width="22" height="14" viewBox="0 0 22 14" fill="none" xmlns="http://www.w3.org/2000/svg">
<path d="M2.72266 13.4307C1.82617 13.4307 1.14827 13.201 0.688965 12.7417C0.229655 12.2879 0 11.6156 0 10.7246V2.68945C0 1.80404 0.229655 1.13444 0.688965 0.680664C1.14827 0.226888 1.82617 0 2.72266 0H18.4194C19.3104 0 19.9855 0.226888 20.4448 0.680664C20.9097 1.13444 21.1421 1.80404 21.1421 2.68945V10.7246C21.1421 11.61 20.9097 12.2824 20.4448 12.7417C19.9855 13.201 19.3104 13.4307 18.4194 13.4307H2.72266ZM2.82227 11.7954H18.3198C18.6961 11.7954 18.9894 11.6958 19.1997 11.4966C19.41 11.2918 19.5151 10.9875 19.5151 10.5835V2.83887C19.5151 2.4349 19.41 2.1333 19.1997 1.93408C18.9894 1.73486 18.6961 1.63525 18.3198 1.63525H2.82227C2.4349 1.63525 2.13883 1.73486 1.93408 1.93408C1.73486 2.1333 1.63525 2.4349 1.63525 2.83887V10.5835C1.63525 10.9875 1.73486 11.2918 1.93408 11.4966C2.13883 11.6958 2.4349 11.7954 2.82227 11.7954ZM3.61084 4.83105C3.35628 4.83105 3.229 4.70378 3.229 4.44922V3.68555C3.229 3.42546 3.35628 3.29541 3.61084 3.29541H4.38281C4.6429 3.29541 4.77295 3.42546 4.77295 3.68555V4.44922C4.77295 4.70378 4.6429 4.83105 4.38281 4.83105H3.61084ZM6.24219 4.83105C5.9821 4.83105 5.85205 4.70378 5.85205 4.44922V3.68555C5.85205 3.42546 5.9821 3.29541 6.24219 3.29541H7.00586C7.26042 3.29541 7.3877 3.42546 7.3877 3.68555V4.44922C7.3877 4.70378 7.26042 4.83105 7.00586 4.83105H6.24219ZM8.86523 4.83105C8.60514 4.83105 8.4751 4.70378 8.4751 4.44922V3.68555C8.4751 3.42546 8.60514 3.29541 8.86523 3.29541H9.62891C9.88346 3.29541 10.0107 3.42546 10.0107 3.68555V4.44922C10.0107 4.70378 9.88346 4.83105 9.62891 4.83105H8.86523ZM11.4883 4.83105C11.2282 4.83105 11.0981 4.70378 11.0981 4.44922V3.68555C11.0981 3.42546 11.2282 3.29541 11.4883 3.29541H12.252C12.512 3.29541 12.6421 3.42546 12.6421 3.68555V4.44922C12.6421 4.70378 12.512 4.83105 12.252 4.83105H11.4883ZM14.1279 4.83105C13.8568 4.83105 13.7212 4.70378 13.7212 4.44922V3.68555C13.7212 3.42546 13.8568 3.29541 14.1279 3.29541H14.875C15.1296 3.29541 15.2568 3.42546 15.2568 3.68555V4.44922C15.2568 4.70378 15.1296 4.83105 14.875 4.83105H14.1279ZM16.7344 4.83105C16.4743 4.83105 16.3442 4.70378 16.3442 4.44922V3.68555C16.3442 3.42546 16.4743 3.29541 16.7344 3.29541H17.498C17.7581 3.29541 17.8882 3.42546 17.8882 3.68555V4.44922C17.8882 4.70378 17.7581 4.83105 17.498 4.83105H16.7344ZM3.61084 7.479C3.35628 7.479 3.229 7.34896 3.229 7.08887V6.3252C3.229 6.0651 3.35628 5.93506 3.61084 5.93506H4.38281C4.6429 5.93506 4.77295 6.0651 4.77295 6.3252V7.08887C4.77295 7.34896 4.6429 7.479 4.38281 7.479H3.61084ZM6.24219 7.479C5.9821 7.479 5.85205 7.34896 5.85205 7.08887V6.3252C5.85205 6.0651 5.9821 5.93506 6.24219 5.93506H7.00586C7.26042 5.93506 7.3877 6.0651 7.3877 6.3252V7.08887C7.3877 7.34896 7.26042 7.479 7.00586 7.479H6.24219ZM8.86523 7.479C8.60514 7.479 8.4751 7.34896 8.4751 7.08887V6.3252C8.4751 6.0651 8.60514 5.93506 8.86523 5.93506H9.62891C9.88346 5.93506 10.0107 6.0651 10.0107 6.3252V7.08887C10.0107 7.34896 9.88346 7.479 9.62891 7.479H8.86523ZM11.4883 7.479C11.2282 7.479 11.0981 7.34896 11.0981 7.08887V6.3252C11.0981 6.0651 11.2282 5.93506 11.4883 5.93506H12.252C12.512 5.93506 12.6421 6.0651 12.6421 6.3252V7.08887C12.6421 7.34896 12.512 7.479 12.252 7.479H11.4883ZM14.1279 7.479C13.8568 7.479 13.7212 7.34896 13.7212 7.08887V6.3252C13.7212 6.0651 13.8568 5.93506 14.1279 5.93506H14.875C15.1296 5.93506 15.2568 6.0651 15.2568 6.3252V7.08887C15.2568 7.34896 15.1296 7.479 14.875 7.479H14.1279ZM16.7344 7.479C16.4743 7.479 16.3442 7.34896 16.3442 7.08887V6.3252C16.3442 6.0651 16.4743 5.93506 16.7344 5.93506H17.498C17.7581 5.93506 17.8882 6.0651 17.8882 6.3252V7.08887C17.8882 7.34896 17.7581 7.479 17.498 7.479H16.7344ZM3.61084 10.1187C3.35628 10.1187 3.229 9.98861 3.229 9.72852V8.96484C3.229 8.71029 3.35628 8.58301 3.61084 8.58301H4.38281C4.6429 8.58301 4.77295 8.71029 4.77295 8.96484V9.72852C4.77295 9.98861 4.6429 10.1187 4.38281 10.1187H3.61084ZM6.30859 10.1187C6.00423 10.1187 5.85205 9.96647 5.85205 9.66211V9.03125C5.85205 8.73242 6.00423 8.58301 6.30859 8.58301H14.8086C15.1074 8.58301 15.2568 8.73242 15.2568 9.03125V9.66211C15.2568 9.96647 15.1074 10.1187 14.8086 10.1187H6.30859ZM16.7344 10.1187C16.4743 10.1187 16.3442 9.98861 16.3442 9.72852V8.96484C16.3442 8.71029 16.4743 8.58301 16.7344 8.58301H17.498C17.7581 8.58301 17.8882 8.71029 17.8882 8.96484V9.72852C17.8882 9.98861 17.7581 10.1187 17.498 10.1187H16.7344Z" fill="#525454"/>
</svg>
