<svg width="15" height="15" viewBox="0 0 15 15" fill="none" xmlns="http://www.w3.org/2000/svg">
<path d="M7.49995 10.8437C8.06259 10.8437 8.5187 10.3875 8.5187 9.8249C8.5187 9.26226 8.06259 8.80615 7.49995 8.80615C6.93731 8.80615 6.4812 9.26226 6.4812 9.8249C6.4812 10.3875 6.93731 10.8437 7.49995 10.8437Z" fill="black"/>
<path d="M10.4062 5.8999H4.59375C2.03125 5.8999 1.25 6.68115 1.25 9.24365V10.4062C1.25 12.9687 2.03125 13.7499 4.59375 13.7499H10.4062C12.9688 13.7499 13.75 12.9687 13.75 10.4062V9.24365C13.75 6.68115 12.9688 5.8999 10.4062 5.8999ZM7.5 11.7124C6.45625 11.7124 5.6125 10.8624 5.6125 9.8249C5.6125 8.7874 6.45625 7.9374 7.5 7.9374C8.54375 7.9374 9.3875 8.7874 9.3875 9.8249C9.3875 10.8624 8.54375 11.7124 7.5 11.7124Z" fill="black"/>
<path d="M4.44995 5.90625V5.175C4.44995 3.34375 4.9687 2.125 7.49995 2.125C10.0312 2.125 10.55 3.34375 10.55 5.175V5.90625C10.8687 5.9125 11.1562 5.925 11.425 5.9625V5.175C11.425 3.4875 11.0187 1.25 7.49995 1.25C3.9812 1.25 3.57495 3.4875 3.57495 5.175V5.95625C3.83745 5.925 4.1312 5.90625 4.44995 5.90625Z" fill="black"/>
</svg>
