<svg width="12" height="11" viewBox="0 0 12 11" fill="none" xmlns="http://www.w3.org/2000/svg">
<path d="M1.28878 10.721H6.52982C7.37186 10.721 7.81862 10.2834 7.81862 9.41918V5.65042C7.81862 4.79164 7.37186 4.35405 6.52982 4.35405H1.28878C0.446778 4.35405 0 4.79164 0 5.65042V9.41918C0 10.2834 0.446778 10.721 1.28878 10.721ZM5.97419 4.7807H6.87922V2.93734C6.87922 1.55346 7.80713 0.825956 8.87826 0.825956C9.9494 0.825956 10.8773 1.55346 10.8773 2.93734V4.15166C10.8773 4.47438 11.0778 4.63848 11.3356 4.63848C11.5819 4.63848 11.7881 4.49079 11.7881 4.15166V3.05221C11.7881 0.995521 10.3732 0 8.87826 0C7.37755 0 5.97419 0.995521 5.97419 3.05221V4.7807Z" fill="white"/>
</svg>
