<svg xmlns="http://www.w3.org/2000/svg" width="32" height="32" viewBox="0 0 32 32">
  <g id="purchases_icon" transform="translate(-22 -427)">
    <rect id="Button_Shape" data-name="Button Shape" width="32" height="32" rx="10" transform="translate(22 427)" fill="#f0f5ef"/>
    <g id="purchases_inner" transform="translate(26 431)">
      <g id="vuesax_bulk_bag" data-name="vuesax/bulk/bag">
        <g id="bag">
          <path id="Vector" d="M17.24,3.582h-.4L13.46.2a.706.706,0,0,0-.99,0,.706.706,0,0,0,0,.99l2.39,2.39H5.14l2.39-2.39a.706.706,0,0,0,0-.99.706.706,0,0,0-.99,0L3.17,3.582h-.4c-.9,0-2.77,0-2.77,2.56a2.726,2.726,0,0,0,.62,2.03,1.614,1.614,0,0,0,.84.45,3.867,3.867,0,0,0,.9.08H17.64a4.176,4.176,0,0,0,.88-.08c.84-.2,1.48-.8,1.48-2.48C20,3.583,18.13,3.582,17.24,3.582Z" transform="translate(2 1.998)" fill="#6daf3d" opacity="0.4"/>
          <path id="Vector-2" data-name="Vector" d="M16.19.08H.9A3.867,3.867,0,0,1,0,0L1.26,7.68c.28,1.72,1.03,3.7,4.36,3.7h5.61c3.37,0,3.97-1.69,4.33-3.58L17.07,0A4.238,4.238,0,0,1,16.19.08ZM7.15,6.54a.7.7,0,1,1-1.4,0V3.24a.7.7,0,1,1,1.4,0Zm4.28,0a.7.7,0,1,1-1.4,0V3.24a.7.7,0,0,1,1.4,0Z" transform="translate(3.46 10.62)" fill="#6daf3d"/>
          <path id="Vector-3" data-name="Vector" d="M0,0H24V24H0Z" fill="none" opacity="0"/>
        </g>
      </g>
    </g>
  </g>
</svg>
