<svg width="18" height="18" viewBox="0 0 18 18" fill="none" xmlns="http://www.w3.org/2000/svg">
<path opacity="0.6" d="M16.4775 8.99996C16.4775 11.205 15.5175 13.2 13.9875 14.5575C12.6675 15.7575 10.92 16.4775 9.00002 16.4775C4.87502 16.4775 1.52252 13.125 1.52252 8.99996C1.52252 4.87496 4.87502 1.52246 9.00002 1.52246C10.92 1.52246 12.6675 2.24246 13.9875 3.44246C15.5175 4.79996 16.4775 6.79496 16.4775 8.99996Z" fill="black"/>
<path d="M8.97752 12.2927C8.96252 13.5302 8.04002 13.8302 7.17752 13.4852C5.40002 12.7727 4.14752 11.0327 4.14752 9.00018C4.14752 6.96768 5.40002 5.22768 7.17752 4.50768C8.04002 4.16268 8.96252 4.47018 8.97752 5.70018V12.2927Z" fill="#F4F7F7"/>
</svg>
