<svg width="32" height="32" viewBox="0 0 32 32" fill="none" xmlns="http://www.w3.org/2000/svg">
    <path d="M22 0H10C4.47715 0 0 4.47715 0 10V22C0 27.5228 4.47715 32 10 32H22C27.5228 32 32 27.5228 32 22V10C32 4.47715 27.5228 0 22 0Z" fill="#F4F7F7"/>
    <path opacity="0.4" d="M26 13V20.46C25.9995 21.0044 25.8917 21.5433 25.6828 22.046C25.474 22.5487 25.1681 23.0053 24.7827 23.3898C24.3973 23.7742 23.94 24.079 23.4368 24.2867C22.9336 24.4943 22.3944 24.6008 21.85 24.6H10.15C9.60563 24.6008 9.06645 24.4943 8.56324 24.2867C8.06004 24.079 7.60267 23.7742 7.21728 23.3898C6.8319 23.0053 6.52603 22.5487 6.31716 22.046C6.1083 21.5433 6.00052 21.0044 6 20.46V13H26Z" fill="#1D1F1F"/>
    <path d="M26 11.54V13H6V11.54C6.00052 10.9956 6.1083 10.4567 6.31716 9.95401C6.52603 9.4513 6.8319 8.99468 7.21728 8.61022C7.60267 8.22576 8.06004 7.921 8.56324 7.71334C9.06645 7.50569 9.60563 7.39922 10.15 7.40001H21.85C22.3944 7.39922 22.9336 7.50569 23.4368 7.71334C23.94 7.921 24.3973 8.22576 24.7827 8.61022C25.1681 8.99468 25.474 9.4513 25.6828 9.95401C25.8917 10.4567 25.9995 10.9956 26 11.54Z" fill="#1D1F1F"/>
    <path d="M12 21.25H10C9.80149 21.2487 9.61149 21.1693 9.47112 21.0289C9.33075 20.8885 9.25131 20.6985 9.25 20.5C9.25131 20.3015 9.33075 20.1115 9.47112 19.9711C9.61149 19.8307 9.80149 19.7513 10 19.75H12C12.1985 19.7513 12.3885 19.8307 12.5289 19.9711C12.6693 20.1115 12.7487 20.3015 12.75 20.5C12.7487 20.6985 12.6693 20.8885 12.5289 21.0289C12.3885 21.1693 12.1985 21.2487 12 21.25Z" fill="#1D1F1F"/>
    <path d="M18.5 21.25H14.5C14.3015 21.2487 14.1115 21.1693 13.9711 21.0289C13.8307 20.8885 13.7513 20.6985 13.75 20.5C13.7513 20.3015 13.8307 20.1115 13.9711 19.9711C14.1115 19.8307 14.3015 19.7513 14.5 19.75H18.5C18.6985 19.7513 18.8885 19.8307 19.0289 19.9711C19.1693 20.1115 19.2487 20.3015 19.25 20.5C19.2487 20.6985 19.1693 20.8885 19.0289 21.0289C18.8885 21.1693 18.6985 21.2487 18.5 21.25Z" fill="#1D1F1F"/>
    </svg>
    