<svg id="mouse-circle-bold" xmlns="http://www.w3.org/2000/svg" width="24" height="24" viewBox="0 0 24 24">
  <g id="vuesax_bold_mouse-circle" data-name="vuesax/bold/mouse-circle">
    <g id="mouse-circle">
      <path id="Vector" d="M0,0H24V24H0Z" fill="none" opacity="0"/>
      <path id="Vector-2" data-name="Vector" d="M7.95,4.823l-1.63.55a1.505,1.505,0,0,0-.96.96l-.55,1.63a1.516,1.516,0,0,1-2.89-.03L.07,1.983A1.519,1.519,0,0,1,1.97.073l5.96,1.85A1.526,1.526,0,0,1,7.95,4.823Z" transform="translate(13.01 13.017)" fill="#bbbebe"/>
      <path id="Vector-3" data-name="Vector" d="M19,9.5a10.861,10.861,0,0,1-.08,1.28.491.491,0,0,1-.64.39l-4.85-1.51a3.018,3.018,0,0,0-3.78,3.79l1.5,4.83a.5.5,0,0,1-.4.64A10.49,10.49,0,0,1,9.5,19,9.5,9.5,0,0,1,0,9.233,9.61,9.61,0,0,1,9.233,0,9.5,9.5,0,0,1,19,9.5Z" transform="translate(1.997 1.997)" fill="#bbbebe"/>
    </g>
  </g>
</svg>
