<svg id="bold" xmlns="http://www.w3.org/2000/svg" width="24" height="24" viewBox="0 0 24 24">
  <g id="vuesax_bold_more-square" data-name="vuesax/bold/more-square">
    <g id="more-square">
      <path id="Vector" d="M14.19,0H5.81C2.17,0,0,2.17,0,5.81v8.37C0,17.83,2.17,20,5.81,20h8.37c3.64,0,5.81-2.17,5.81-5.81V5.81C20,2.17,17.83,0,14.19,0ZM6,11a1,1,0,1,1,1-1A1,1,0,0,1,6,11Zm4,0a1,1,0,1,1,1-1A1,1,0,0,1,10,11Zm4,0a1,1,0,1,1,1-1A1,1,0,0,1,14,11Z" transform="translate(2 2)" fill="#e94e1b"/>
      <path id="Vector-2" data-name="Vector" d="M0,0H24V24H0Z" transform="translate(24 24) rotate(180)" fill="none" opacity="0"/>
    </g>
  </g>
</svg>
