<svg id="home-trend-up-bold" xmlns="http://www.w3.org/2000/svg" width="24" height="24" viewBox="0 0 24 24">
  <g id="vuesax_bold_home-trend-up" data-name="vuesax/bold/home-trend-up">
    <g id="home-trend-up">
      <g id="home-trend-up-2" data-name="home-trend-up">
        <path id="Subtraction_1" data-name="Subtraction 1" d="M2472.4-2555h-10.78a4.631,4.631,0,0,1-4.62-4.631v-6.9a5.149,5.149,0,0,1,1.79-3.64l5.01-3.91a4.65,4.65,0,0,1,2.846-.918,4.636,4.636,0,0,1,2.644.787l5.76,4.03a5.1,5.1,0,0,1,1.969,3.78v6.78A4.625,4.625,0,0,1,2472.4-2555Zm-5.39-17a3,3,0,0,0-3,3,3,3,0,0,0,3,3,3,3,0,0,0,3-3A3,3,0,0,0,2467.01-2572Z" transform="translate(-2455.01 2577.002)" fill="#bbbebe"/>
        <path id="Vector" d="M0,0H24V24H0Z" transform="translate(24 24) rotate(180)" fill="none" opacity="0"/>
      </g>
      <path id="Vector-2" data-name="Vector" d="M0,0H24V24H0Z" transform="translate(24 24) rotate(180)" fill="none" opacity="0"/>
    </g>
  </g>
</svg>
