<svg width="24" height="25" viewBox="0 0 24 25" fill="none" xmlns="http://www.w3.org/2000/svg">
<path d="M18 3.5H6C3.79 3.5 2 5.28 2 7.47V17.53C2 19.72 3.79 21.5 6 21.5H18C20.21 21.5 22 19.72 22 17.53V7.47C22 5.28 20.21 3.5 18 3.5Z" fill="#B6B8B8"/>
<path d="M19 9.25H14C13.59 9.25 13.25 8.91 13.25 8.5C13.25 8.09 13.59 7.75 14 7.75H19C19.41 7.75 19.75 8.09 19.75 8.5C19.75 8.91 19.41 9.25 19 9.25Z" fill="#1D1F1F"/>
<path d="M19 13.25H15C14.59 13.25 14.25 12.91 14.25 12.5C14.25 12.09 14.59 11.75 15 11.75H19C19.41 11.75 19.75 12.09 19.75 12.5C19.75 12.91 19.41 13.25 19 13.25Z" fill="#1D1F1F"/>
<path d="M19 17.25H17C16.59 17.25 16.25 16.91 16.25 16.5C16.25 16.09 16.59 15.75 17 15.75H19C19.41 15.75 19.75 16.09 19.75 16.5C19.75 16.91 19.41 17.25 19 17.25Z" fill="#1D1F1F"/>
<path d="M8.49994 12.29C9.77572 12.29 10.8099 11.2558 10.8099 9.97998C10.8099 8.7042 9.77572 7.66998 8.49994 7.66998C7.22416 7.66998 6.18994 8.7042 6.18994 9.97998C6.18994 11.2558 7.22416 12.29 8.49994 12.29Z" fill="#1D1F1F"/>
<path d="M9.30003 13.61C8.77002 13.56 8.22003 13.56 7.69003 13.61C6.01003 13.77 4.66003 15.1 4.50003 16.78C4.49003 16.92 4.53003 17.06 4.63003 17.16C4.73003 17.26 4.86003 17.33 5.00003 17.33H12C12.14 17.33 12.28 17.27 12.37 17.17C12.46 17.07 12.51 16.93 12.5 16.79C12.33 15.1 10.99 13.77 9.30003 13.61Z" fill="#1D1F1F"/>
</svg>
