<?xml version="1.0" encoding="UTF-8"?>
<svg version="1.1" xmlns="http://www.w3.org/2000/svg" width="400" height="400">
<path d="M0 0 C2.9239701 1.0785296 5.83296818 2.19259018 8.73828125 3.3203125 C18.75266017 7.20602142 27.82439062 9.96244528 38.53881836 11.01416016 C43.06760629 11.57014483 46.8478903 12.84628959 50.98828125 14.6953125 C52.48835484 15.32455129 53.9896957 15.95077617 55.4921875 16.57421875 C56.23871582 16.88762207 56.98524414 17.20102539 57.75439453 17.52392578 C62.27837605 19.33909761 66.92631145 20.83712566 71.57006836 22.31542969 C74.53706325 23.31153615 76.71770064 24.09750622 78.90625 26.3828125 C82.32337834 29.66923102 86.55949955 30.73618343 90.98828125 32.2578125 C92.43654297 32.77166504 92.43654297 32.77166504 93.9140625 33.29589844 C98.90885978 35.0554293 103.9247986 36.74171919 108.9609375 38.37890625 C109.9001001 38.68530029 110.8392627 38.99169434 111.80688477 39.30737305 C113.59199208 39.88504324 115.38013948 40.45342949 117.17163086 41.01098633 C123.26748576 42.9675096 128.85772917 45.36951262 133.05078125 50.4453125 C134.1622471 53.77971004 134.18501385 56.28119328 134.19795227 59.79522705 C134.20162896 60.44213619 134.20530565 61.08904533 134.20909375 61.75555778 C134.22012284 63.92721581 134.2239731 66.09882597 134.2277832 68.27050781 C134.23404845 69.82607678 134.2406953 71.38164425 134.24769592 72.93721008 C134.26873156 78.0492753 134.27909786 83.16134079 134.2890625 88.2734375 C134.29311024 90.03372971 134.29722717 91.79402177 134.30141258 93.55431366 C134.32046318 101.82444923 134.33469447 110.09457587 134.34302455 118.36472917 C134.35279683 127.90895927 134.37911659 137.45295745 134.41952544 146.99710584 C134.44969221 154.37556061 134.46449396 161.75394892 134.46780556 169.13246417 C134.47015543 173.53866283 134.47910748 177.94461368 134.50426674 182.35074615 C134.52756235 186.49748796 134.53177484 190.64381905 134.52150536 194.79060936 C134.52101024 196.30993962 134.52732354 197.8292902 134.5410614 199.34855843 C134.66269503 213.6010389 134.66269503 213.6010389 130.05078125 219.4453125 C128.13818359 221.16699219 128.13818359 221.16699219 126.13671875 222.3671875 C125.38382568 222.82996094 124.63093262 223.29273438 123.85522461 223.76953125 C123.0535083 224.24003906 122.25179199 224.71054687 121.42578125 225.1953125 C120.5963501 225.70191406 119.76691895 226.20851563 118.91235352 226.73046875 C116.30235025 228.32038855 113.67927501 229.8861764 111.05078125 231.4453125 C108.49232672 232.96348481 105.93481807 234.48288841 103.38330078 236.01269531 C101.81646504 236.94992183 100.24339257 237.87681911 98.66357422 238.79199219 C97.95475098 239.21383789 97.24592773 239.63568359 96.515625 240.0703125 C95.89292725 240.43382812 95.27022949 240.79734375 94.62866211 241.171875 C90.89830974 244.18247658 90.5499177 248.57892554 89.73828125 253.0703125 C87.76322969 262.59006103 83.84049346 271.31711024 77.05078125 278.4453125 C76.39078125 278.4453125 75.73078125 278.4453125 75.05078125 278.4453125 C74.82132813 279.01894531 74.591875 279.59257812 74.35546875 280.18359375 C68.30947224 290.66452782 51.90592049 296.53674389 41.05078125 300.4453125 C25.00918749 304.22181968 11.16109315 300.81684457 -2.76171875 292.5078125 C-7.15788194 289.71508081 -11.31124511 286.76963288 -15.265625 283.37890625 C-16.9375957 282.19775715 -16.9375957 282.19775715 -18.9296875 282.96875 C-20.94921875 283.4453125 -20.94921875 283.4453125 -22.87109375 282.30078125 C-23.474375 281.75035156 -24.07765625 281.19992187 -24.69921875 280.6328125 C-25.3128125 280.09011719 -25.92640625 279.54742187 -26.55859375 278.98828125 C-27.94921875 277.4453125 -27.94921875 277.4453125 -27.94921875 275.4453125 C-28.89796875 275.1771875 -29.84671875 274.9090625 -30.82421875 274.6328125 C-33.94921875 273.4453125 -33.94921875 273.4453125 -35.94921875 270.4453125 C-37.60363249 269.68428218 -39.26405008 268.93258888 -40.95703125 268.26171875 C-43.0147434 267.41846024 -44.9698954 266.45807912 -46.94921875 265.4453125 C-49.90214338 263.94630877 -52.88671229 262.61645613 -55.9453125 261.34375 C-58.43849663 260.22594815 -60.83750591 258.95576979 -63.26171875 257.6953125 C-71.25000647 253.66617614 -79.57201846 250.55743396 -87.94921875 247.4453125 C-88.59745605 247.20393555 -89.24569336 246.96255859 -89.91357422 246.71386719 C-96.14385689 244.40782134 -102.36849086 242.31330741 -108.76171875 240.5078125 C-114.47580459 238.74265534 -119.75180242 236.85918752 -123.94921875 232.4453125 C-127.60427989 225.12308737 -128.02566236 216.37025912 -128.25463867 208.32226562 C-128.27462481 207.6299585 -128.29461094 206.93765137 -128.31520271 206.22436523 C-128.37981143 203.8918741 -128.43676531 201.55928929 -128.4921875 199.2265625 C-128.512759 198.39809311 -128.5333305 197.56962372 -128.55452538 196.71604919 C-129.13703422 172.73299271 -129.20771683 148.74342668 -129.24438477 124.75439453 C-129.25338976 119.4909357 -129.27465082 114.22772856 -129.3059082 108.96435547 C-129.34425462 102.50679207 -129.36313319 96.0494547 -129.36766624 89.59178162 C-129.37251919 87.15813416 -129.384096 84.72448996 -129.40270424 82.29090881 C-129.42698895 78.91957536 -129.4261559 75.54912802 -129.41918945 72.17773438 C-129.43199951 71.18883713 -129.44480957 70.19993988 -129.45800781 69.18107605 C-129.41193447 63.07082918 -128.58477113 59.41583483 -124.94921875 54.4453125 C-122.60161492 52.83025336 -120.60785459 51.6395227 -118.07421875 50.4453125 C-117.407854 50.11047852 -116.74148926 49.77564453 -116.05493164 49.43066406 C-114.02841434 48.41656593 -111.99067195 47.42892636 -109.94921875 46.4453125 C-107.76023991 45.36497042 -105.5726985 44.28171016 -103.38671875 43.1953125 C-102.23816406 42.62554687 -101.08960937 42.05578125 -99.90625 41.46875 C-92.14950452 37.54925668 -84.57492672 33.27290648 -76.95800781 29.09082031 C-72.83311292 26.83491382 -68.69498427 24.60384428 -64.55712891 22.37182617 C-57.05900679 18.32708111 -49.56975507 14.28160857 -42.19921875 10.0078125 C-37.08448103 7.04763462 -31.88909848 4.34408924 -26.5703125 1.76953125 C-23.93101276 0.54046707 -23.93101276 0.54046707 -21.796875 -1.22265625 C-14.49596502 -4.63775954 -7.27216535 -2.62458703 0 0 Z " fill="#C3BEBB" transform="translate(197.94921875,39.5546875)"/>
<path d="M0 0 C5.53607075 3.46336586 10.17434672 7.74520727 14.875 12.25 C16.0196875 13.28253906 16.0196875 13.28253906 17.1875 14.3359375 C36.63142327 32.49710194 43.98247679 57.91792762 44.8671875 83.70703125 C45.08729449 97.50586608 40.52735199 111.11644571 30.875 121.25 C30.215 121.25 29.555 121.25 28.875 121.25 C28.64554687 121.82363281 28.41609375 122.39726562 28.1796875 122.98828125 C22.13369099 133.46921532 5.73013924 139.34143139 -5.125 143.25 C-21.16659376 147.02650718 -35.0146881 143.62153207 -48.9375 135.3125 C-53.33366319 132.51976831 -57.48702636 129.57432038 -61.44140625 126.18359375 C-63.11337695 125.00244465 -63.11337695 125.00244465 -65.10546875 125.7734375 C-67.125 126.25 -67.125 126.25 -69.046875 125.10546875 C-69.65015625 124.55503906 -70.2534375 124.00460937 -70.875 123.4375 C-71.79539063 122.62345703 -71.79539063 122.62345703 -72.734375 121.79296875 C-74.125 120.25 -74.125 120.25 -74.125 118.25 C-75.094375 117.96125 -76.06375 117.6725 -77.0625 117.375 C-80.125 116.25 -80.125 116.25 -81.125 114.25 C-79.64 113.755 -79.64 113.755 -78.125 113.25 C-78.92300183 104.950781 -82.33586987 98.33333162 -86.15234375 91.08203125 C-94.95452728 74.1334385 -98.73906034 50.84589116 -93.21875 32.21484375 C-86.66386769 14.44643062 -76.12478555 4.36233664 -59.24462891 -3.64160156 C-37.76392111 -13.53175875 -20.58662457 -11.61214292 0 0 Z " fill="#F03525" transform="translate(244.125,196.75)"/>
<path d="M0 0 C5.08849314 -0.21309679 8.95473949 0.37547962 13.75 2.0625 C14.3776123 2.28075439 15.00522461 2.49900879 15.65185547 2.72387695 C17.7733956 3.46803766 19.88706885 4.23174524 22 5 C23.21961426 5.44134277 23.21961426 5.44134277 24.46386719 5.89160156 C39.43055674 11.32209442 39.43055674 11.32209442 46 14 C45.34 15.32 44.68 16.64 44 18 C42.68 18 41.36 18 40 18 C40 18.66 40 19.32 40 20 C39.16855469 20.39832031 38.33710938 20.79664062 37.48046875 21.20703125 C36.39378906 21.73683594 35.30710937 22.26664063 34.1875 22.8125 C33.10855469 23.33457031 32.02960938 23.85664062 30.91796875 24.39453125 C28.3868334 25.78716395 26.9692495 26.98386361 25 29 C21.8125 29.6875 21.8125 29.6875 19 30 C18.505 31.485 18.505 31.485 18 33 C15.98849728 33.90170812 13.97117739 34.79169798 11.93359375 35.6328125 C8.2682555 37.34102606 4.8822789 39.38916584 1.4375 41.5 C-12.50173999 50 -12.50173999 50 -17 50 C-17 50.66 -17 51.32 -17 52 C-18.60032137 52.84069415 -20.20541171 53.67231505 -21.8125 54.5 C-22.70582031 54.9640625 -23.59914063 55.428125 -24.51953125 55.90625 C-27 57 -27 57 -30 57 C-30 57.66 -30 58.32 -30 59 C-32.43656685 60.14785376 -34.87419281 61.29335402 -37.3125 62.4375 C-38.00279297 62.76298828 -38.69308594 63.08847656 -39.40429688 63.42382812 C-42.24477803 64.75487485 -45.02123803 66.00707934 -48 67 C-48.433125 67.45503906 -48.86625 67.91007812 -49.3125 68.37890625 C-52.35049186 71.2973475 -56.39430543 72.65914771 -60.1875 74.40234375 C-64.14903045 76.65271313 -65.5754239 78.72627169 -67 83 C-67.66 83 -68.32 83 -69 83 C-69 94.88 -69 106.76 -69 119 C-73.8117724 117.7970569 -75.42599077 116.33032678 -79 113 C-79 112.34 -79 111.68 -79 111 C-79.66 111 -80.32 111 -81 111 C-83.625 108.625 -83.625 108.625 -86 106 C-86 105.34 -86 104.68 -86 104 C-92.04226043 102.38873055 -95.76433899 103.74308211 -101.44921875 106.1875 C-104.2463295 107.0784633 -105.27098283 106.81664183 -108 106 C-108.14889585 100.43167699 -108.2574727 94.86452532 -108.32958984 89.29467773 C-108.35966736 87.40221967 -108.40054133 85.50989991 -108.45263672 83.61791992 C-108.52585497 80.88946343 -108.55954542 78.16285717 -108.5859375 75.43359375 C-108.61690521 74.59477158 -108.64787292 73.7559494 -108.67977905 72.89170837 C-108.68286903 67.43498873 -107.59770937 64.40123618 -103.74923706 60.48158264 C-101.01336457 58.16433172 -98.16317186 56.49736456 -94.9609375 54.90625 C-94.29059479 54.55727661 -93.62025208 54.20830322 -92.92959595 53.84875488 C-90.7516166 52.71855411 -88.56356486 51.6095404 -86.375 50.5 C-84.84808972 49.7113148 -83.32205753 48.92092746 -81.796875 48.12890625 C-78.69666871 46.52017702 -75.59324995 44.91793121 -72.48730469 43.3203125 C-65.95335973 39.95147101 -59.4755004 36.47948065 -53 33 C-51.28151855 32.07960938 -51.28151855 32.07960938 -49.52832031 31.140625 C-42.30092384 27.262407 -35.12152685 23.30622973 -27.97021484 19.28979492 C-23.57952648 16.83684707 -19.14073751 14.52613347 -14.625 12.3125 C-8.22250213 9.17108749 -2.10800958 5.68046731 4 2 C2.68 1.67 1.36 1.34 0 1 C0 0.67 0 0.34 0 0 Z " fill="#DFDFDF" transform="translate(229,50)"/>
<path d="M0 0 C3.83616837 3.3097541 6.40814158 6.92326861 9 11.25 C9.3403125 11.81485107 9.680625 12.37970215 10.03125 12.96166992 C12.79714486 17.58000716 15.45157375 22.25845693 18 27 C18.6290625 26.49210937 19.258125 25.98421875 19.90625 25.4609375 C21.68738841 24.02851595 23.47417116 22.60309319 25.265625 21.18359375 C26.94123248 19.84550149 28.60165302 18.48775346 30.234375 17.09765625 C33.28701644 14.58336824 35.14214011 13.10294319 39.125 12.625 C44.95585905 15.41367172 48.7683393 22.09266284 51 28 C50.93430764 31.90869528 50.01840967 32.98166736 47.19921875 35.7890625 C46.03890997 36.74694569 44.86788595 37.69196963 43.6875 38.625 C43.10548828 39.10195313 42.52347656 39.57890625 41.92382812 40.0703125 C39.00246391 42.45239884 36.03646391 44.76576236 33 47 C34.38152042 50.83085356 36.16202775 53.92928181 38.4765625 57.2734375 C39.48203125 58.7584375 39.48203125 58.7584375 40.5078125 60.2734375 C41.91812954 62.3394739 43.33741284 64.39941846 44.765625 66.453125 C50.46622168 74.92698492 50.46622168 74.92698492 50.69140625 78.9921875 C49.89156971 82.47170239 49.10552454 83.58166302 46.3125 85.75 C45.5803125 86.32363281 44.848125 86.89726562 44.09375 87.48828125 C37.08802401 92.54651998 37.08802401 92.54651998 32 92 C25.10773404 87.02709925 20.89406599 78.19192555 16.76904297 70.94580078 C16.32318848 70.17864746 15.87733398 69.41149414 15.41796875 68.62109375 C15.02375732 67.9242749 14.6295459 67.22745605 14.22338867 66.50952148 C13.61781128 65.76230835 13.61781128 65.76230835 13 65 C8.78956195 65 6.64054796 67.34724189 3.5 69.875 C-5.47607387 76.9802292 -5.47607387 76.9802292 -9.3125 77.125 C-15.32979109 75.28921628 -17.5309735 70.68257013 -20.4375 65.375 C-21.2365378 62.00128485 -21.09172721 60.34690094 -20 57 C-17.39889735 54.35841474 -14.45446318 52.26716502 -11.4375 50.125 C-10.63119141 49.53203125 -9.82488281 48.9390625 -8.99414062 48.328125 C-7.00666052 46.86985558 -5.00907424 45.42829396 -3 44 C-6.2880071 37.0904453 -10.00601305 30.6229018 -14.1328125 24.17578125 C-19.05802572 15.79879726 -19.05802572 15.79879726 -18.9296875 11.8203125 C-17.68415117 9.3815733 -16.09502407 7.77286201 -14.125 5.875 C-13.42632812 5.19179687 -12.72765625 4.50859375 -12.0078125 3.8046875 C-7.92025417 0.13065647 -5.46892728 -0.66004295 0 0 Z " fill="#EFE9E4" transform="translate(191,223)"/>
<path d="M0 0 C8.07045464 1.13038941 15.64892492 4.25418417 23.2409668 7.11303711 C25.45269995 7.94320526 27.67030607 8.75610673 29.88867188 9.56835938 C31.29986467 10.09532295 32.7106863 10.62328181 34.12109375 11.15234375 C35.11320107 11.51343483 35.11320107 11.51343483 36.12535095 11.88182068 C39.59922058 13.20877005 40.87295658 13.80943488 43 17 C43.1875 20.125 43.1875 20.125 43 23 C42 24 42 24 39.2109375 24.359375 C33.30855371 24.26907846 27.97876993 21.49757323 22.625 19.25 C21.53960937 18.8065625 20.45421875 18.363125 19.3359375 17.90625 C2.47243514 10.98162343 2.47243514 10.98162343 -2 8 C-2.3125 5 -2.3125 5 -2 2 C-1.34 1.34 -0.68 0.68 0 0 Z " fill="#605E5E" transform="translate(87,226)"/>
<path d="M0 0 C0.33 0.99 0.66 1.98 1 3 C-1.91086722 7.55780525 -6.00534755 10.58156028 -10.25 13.8125 C-10.8996875 14.31458984 -11.549375 14.81667969 -12.21875 15.33398438 C-13.80841483 16.56129913 -15.4036487 17.78139493 -17 19 C-15.61847958 22.83085356 -13.83797225 25.92928181 -11.5234375 29.2734375 C-10.853125 30.2634375 -10.1828125 31.2534375 -9.4921875 32.2734375 C-8.08187046 34.3394739 -6.66258716 36.39941846 -5.234375 38.453125 C0.46622168 46.92698492 0.46622168 46.92698492 0.69140625 50.9921875 C-0.10843029 54.47170239 -0.89447546 55.58166302 -3.6875 57.75 C-4.4196875 58.32363281 -5.151875 58.89726562 -5.90625 59.48828125 C-12.77529202 64.44783211 -12.77529202 64.44783211 -18 64 C-17.41734375 63.72671875 -16.8346875 63.4534375 -16.234375 63.171875 C-12.67059439 61.30275929 -9.65380854 59.0370561 -7 56 C-6.04356245 51.82645433 -6.75418887 50.39944309 -9 46.75 C-9.66 45.8425 -10.32 44.935 -11 44 C-11 43.34 -11 42.68 -11 42 C-11.66 42 -12.32 42 -13 42 C-16 36.25 -16 36.25 -16 34 C-16.66 34 -17.32 34 -18 34 C-19.2890625 32.42578125 -19.2890625 32.42578125 -20.625 30.3125 C-21.07101563 29.62800781 -21.51703125 28.94351562 -21.9765625 28.23828125 C-23.23139925 25.49392454 -23.52355151 23.98378027 -23 21 C-20.98828125 18.68359375 -20.98828125 18.68359375 -18.3125 16.4375 C-17.00732422 15.32181641 -17.00732422 15.32181641 -15.67578125 14.18359375 C-14.79277344 13.46300781 -13.90976563 12.74242187 -13 12 C-12.10667969 11.24847656 -11.21335938 10.49695313 -10.29296875 9.72265625 C-8 8 -8 8 -6 8 C-6 7.34 -6 6.68 -6 6 C-4.34997172 4.64613064 -2.6825613 3.31321858 -1 2 C-0.67 1.34 -0.34 0.68 0 0 Z " fill="#E7C2B2" transform="translate(241,251)"/>
<path d="M0 0 C6.70032051 0.37866232 13.30734595 3.49159004 19.4375 6 C20.33404297 6.35578125 21.23058594 6.7115625 22.15429688 7.078125 C28.73700221 9.73700221 28.73700221 9.73700221 31 12 C31.1875 15.5625 31.1875 15.5625 31 19 C30.505 19.495 30.505 19.495 30 20 C23.42158567 19.62255 17.77941399 17.13858156 11.75 14.625 C10.75742188 14.22539062 9.76484375 13.82578125 8.7421875 13.4140625 C0.3705685 9.96559072 0.3705685 9.96559072 -2 7 C-2.3125 4.4375 -2.3125 4.4375 -2 2 C-1.34 1.34 -0.68 0.68 0 0 Z " fill="#5F5D5D" transform="translate(88,242)"/>
<path d="M0 0 C4.62375953 2.95791642 8.83478635 6.43673583 13 10 C12.01 10.99 11.02 11.98 10 13 C5.35044248 11.36637168 5.35044248 11.36637168 3.625 9.5625 C1.13657812 7.16978666 -1.81713473 6.26217071 -5 5 C-5.969375 4.608125 -6.93875 4.21625 -7.9375 3.8125 C-8.618125 3.544375 -9.29875 3.27625 -10 3 C-10 2.34 -10 1.68 -10 1 C-10.928125 0.87625 -11.85625 0.7525 -12.8125 0.625 C-15.05840132 0.31894531 -17.24327579 -0.05414723 -19.45703125 -0.546875 C-27.58028672 -2.30711191 -36.0183355 -2.66055483 -44 0 C-44.99 -0.99 -45.98 -1.98 -47 -3 C-33.41453452 -11.69469791 -13.68133373 -6.49863352 0 0 Z " fill="#FB4F40" transform="translate(224,200)"/>
<path d="M0 0 C0.33 0.66 0.66 1.32 1 2 C1.99 2 2.98 2 4 2 C4 1.34 4 0.68 4 0 C10.01268489 1.98558276 16.00072789 4.03192176 21.97265625 6.13671875 C22.78117538 6.42102249 23.58969452 6.70532623 24.42271423 6.99824524 C26.96955146 7.89397748 29.51603149 8.79072016 32.0625 9.6875 C33.80401279 10.30019748 35.54554904 10.91282829 37.28710938 11.52539062 C41.52501081 13.01615746 45.76259253 14.50782972 50 16 C46.23375329 17.25541557 44.62811066 16.37061958 41 15 C40.67 16.32 40.34 17.64 40 19 C38.6875 18.5625 37.375 18.125 36.0625 17.6875 C35.23363281 17.41164063 34.40476563 17.13578125 33.55078125 16.8515625 C31.98461014 16.32870599 30.41929734 15.80325921 28.85546875 15.2734375 C28.16066406 15.03882813 27.46585938 14.80421875 26.75 14.5625 C26.01265625 14.31242187 25.2753125 14.06234375 24.515625 13.8046875 C22.64303978 13.20569285 20.75451188 12.65609656 18.859375 12.1328125 C11.97141461 10.19457248 5.25792514 8.0948887 0 3 C0 2.01 0 1.02 0 0 Z " fill="#B8B7B5" transform="translate(74,269)"/>
<path d="M0 0 C5.00774885 2.3758103 6.94063374 5.53576507 9.5625 10.1875 C9.95163574 10.86006836 10.34077148 11.53263672 10.74169922 12.22558594 C11.84277414 14.142392 12.92450874 16.06875283 14 18 C14.49628906 18.87785156 14.99257812 19.75570312 15.50390625 20.66015625 C16.625 22.75 16.625 22.75 18 26 C17.67 26.99 17.34 27.98 17 29 C16.34 29 15.68 29 15 29 C15 29.66 15 30.32 15 31 C14.34 31 13.68 31 13 31 C11.7109375 29.3203125 11.7109375 29.3203125 10.375 27.125 C9.92898437 26.40570313 9.48296875 25.68640625 9.0234375 24.9453125 C8 23 8 23 8 21 C7.34 21 6.68 21 6 21 C3.56839395 17.63316085 3 16.26649636 3 12 C2.34 12 1.68 12 1 12 C0.44191911 10.56879256 -0.09596462 9.12969645 -0.625 7.6875 C-0.92664063 6.88699219 -1.22828125 6.08648437 -1.5390625 5.26171875 C-1.69117188 4.51535156 -1.84328125 3.76898438 -2 3 C-1.34 2.01 -0.68 1.02 0 0 Z " fill="#EBCDBE" transform="translate(190,223)"/>
<path d="M0 0 C0.33 0.99 0.66 1.98 1 3 C-1.91086722 7.55780525 -6.00534755 10.58156028 -10.25 13.8125 C-10.8996875 14.31458984 -11.549375 14.81667969 -12.21875 15.33398438 C-13.80841483 16.56129913 -15.4036487 17.78139493 -17 19 C-16.05671264 21.42559608 -15.1415586 23.75155021 -13.8515625 26.015625 C-12.78084255 28.51069718 -12.98285094 30.08338637 -13.375 32.75 C-13.54128906 33.94882812 -13.54128906 33.94882812 -13.7109375 35.171875 C-13.80632812 35.77515625 -13.90171875 36.3784375 -14 37 C-14.66 36.67 -15.32 36.34 -16 36 C-16 35.34 -16 34.68 -16 34 C-16.66 34 -17.32 34 -18 34 C-19.2890625 32.42578125 -19.2890625 32.42578125 -20.625 30.3125 C-21.07101563 29.62800781 -21.51703125 28.94351562 -21.9765625 28.23828125 C-23.23139925 25.49392454 -23.52355151 23.98378027 -23 21 C-20.98828125 18.68359375 -20.98828125 18.68359375 -18.3125 16.4375 C-17.00732422 15.32181641 -17.00732422 15.32181641 -15.67578125 14.18359375 C-14.79277344 13.46300781 -13.90976563 12.74242187 -13 12 C-12.10667969 11.24847656 -11.21335938 10.49695313 -10.29296875 9.72265625 C-8 8 -8 8 -6 8 C-6 7.34 -6 6.68 -6 6 C-4.34997172 4.64613064 -2.6825613 3.31321858 -1 2 C-0.67 1.34 -0.34 0.68 0 0 Z " fill="#E3B9A8" transform="translate(241,251)"/>
<path d="M0 0 C0.33 0 0.66 0 1 0 C1.85785424 12.68398772 2.11941996 25.28840915 2 38 C0.68 38.66 -0.64 39.32 -2 40 C-2 27.46 -2 14.92 -2 2 C-1.34 2 -0.68 2 0 2 C0 1.34 0 0.68 0 0 Z " fill="#A9A3A1" transform="translate(162,131)"/>
<path d="M0 0 C2.625 0 2.625 0 6 1 C9.35982161 4.44657756 12.12937877 8.55954475 14 13 C13.625 15.75 13.625 15.75 13 18 C12.34 18 11.68 18 11 18 C10.67 18.99 10.34 19.98 10 21 C9.73445312 20.46375 9.46890625 19.9275 9.1953125 19.375 C8.31041868 17.61677959 7.40639753 15.86815694 6.4921875 14.125 C5.95851562 13.09375 5.42484375 12.0625 4.875 11 C4.33617187 9.96875 3.79734375 8.9375 3.2421875 7.875 C2 5 2 5 2 1 C1.34 0.67 0.68 0.34 0 0 Z " fill="#EDD2C6" transform="translate(227,236)"/>
<path d="M0 0 C4.82187075 1.01103742 9.61692859 2.09451902 14.375 3.375 C15.18710938 3.58898437 15.99921875 3.80296875 16.8359375 4.0234375 C19.54007051 5.24371413 20.52040931 6.44643849 22 9 C22.6408587 11.68084404 22.7698714 14.23845677 23 17 C20.5332355 17.88336837 19.36140628 18.1312406 16.859375 17.22265625 C16.16328125 16.83980469 15.4671875 16.45695312 14.75 16.0625 C14.04359375 15.68222656 13.3371875 15.30195313 12.609375 14.91015625 C12.07828125 14.60980469 11.5471875 14.30945313 11 14 C11 13.34 11 12.68 11 12 C14.465 11.505 14.465 11.505 18 11 C18 10.01 18 9.02 18 8 C17.01 8 16.02 8 15 8 C14.67 7.34 14.34 6.68 14 6 C11.65062258 5.0416631 9.33781945 4.18214554 6.9375 3.375 C6.27427734 3.14554687 5.61105469 2.91609375 4.92773438 2.6796875 C3.28740331 2.11324224 1.64397843 1.55577077 0 1 C0 0.67 0 0.34 0 0 Z " fill="#D69B95" transform="translate(144,293)"/>
<path d="M0 0 C0.66 0.33 1.32 0.66 2 1 C-4.11789391 6.90859754 -10.60350288 10.49772597 -18.3125 13.9375 C-19.18422852 14.32671631 -20.05595703 14.71593262 -20.95410156 15.11694336 C-26.5735338 17.55148929 -31.45959001 19.13973068 -37.64453125 19.09765625 C-38.90620117 19.09282227 -38.90620117 19.09282227 -40.19335938 19.08789062 C-41.05767578 19.07951172 -41.92199219 19.07113281 -42.8125 19.0625 C-43.69615234 19.05798828 -44.57980469 19.05347656 -45.49023438 19.04882812 C-47.66018559 19.03709866 -49.83010172 19.01916495 -52 19 C-52 18.67 -52 18.34 -52 18 C-51.42668945 17.96559814 -50.85337891 17.93119629 -50.26269531 17.89575195 C-39.06420438 17.17142116 -29.04303645 16.42383571 -19 11 C-18.04867187 10.51015625 -17.09734375 10.0203125 -16.1171875 9.515625 C-11.08894266 6.85764271 -6.26205143 3.98272519 -1.55859375 0.78515625 C-1.04425781 0.52605469 -0.52992188 0.26695312 0 0 Z " fill="#E91C10" transform="translate(267,322)"/>
<path d="M0 0 C2.94098922 2.86150303 5.64210433 5.83188971 8.25 9 C8.95640625 9.845625 9.6628125 10.69125 10.390625 11.5625 C12 14 12 14 12 18 C9.21788056 17.62403791 7.4120716 17.32681541 5.1875 15.5625 C4 14 4 14 4 12 C3.030625 11.71125 2.06125 11.4225 1.0625 11.125 C-2 10 -2 10 -3 8 C-2.01 7.67 -1.02 7.34 0 7 C0 4.69 0 2.38 0 0 Z " fill="#E16C63" transform="translate(166,303)"/>
<path d="M0 0 C3.33790735 1.11263578 3.97187624 1.90490039 6.125 4.5625 C12.39503904 11.89503519 18.8294655 17.31460068 27.51953125 21.578125 C30.14629039 23.0838578 31.96196128 24.77668504 34 27 C25.56784053 23.76387393 18.15392554 19.76101086 11.8515625 13.22265625 C9.98582632 11.70640545 9.98582632 11.70640545 7.2734375 12.30859375 C6.52320313 12.53675781 5.77296875 12.76492188 5 13 C4.67 12.34 4.34 11.68 4 11 C4.66 11 5.32 11 6 11 C4.54955729 6.89041233 2.48889248 3.56741255 0 0 Z " fill="#F0140E" transform="translate(172,310)"/>
<path d="M0 0 C0.33 0 0.66 0 1 0 C2.70427234 14.6608488 1.63578206 28.63863906 -7.43359375 40.9453125 C-8.57570567 42.33655365 -9.78054899 43.67602462 -11 45 C-11.33 44.34 -11.66 43.68 -12 43 C-11.67 42.34 -11.34 41.68 -11 41 C-10.34 41 -9.68 41 -9 41 C-8.731875 40.29875 -8.46375 39.5975 -8.1875 38.875 C-7 36 -7 36 -5.4375 33.125 C-3.86516144 29.70687269 -3.37265867 26.72658671 -3 23 C-2.34 23 -1.68 23 -1 23 C-0.67 15.41 -0.34 7.82 0 0 Z " fill="#DA190F" transform="translate(287,271)"/>
<path d="M0 0 C0.33 0.66 0.66 1.32 1 2 C1.99 2 2.98 2 4 2 C4 1.34 4 0.68 4 0 C9 1.66666667 14 3.33333333 19 5 C19 5.33 19 5.66 19 6 C16.36 6 13.72 6 11 6 C11 6.99 11 7.98 11 9 C6.5221629 7.75037104 3.35725691 6.25851406 0 3 C0 2.01 0 1.02 0 0 Z " fill="#AEADAB" transform="translate(74,269)"/>
<path d="M0 0 C0.33 0.99 0.66 1.98 1 3 C-2.29242433 8.17627868 -7.25642503 11.4209005 -12.13085938 14.98242188 C-16.3683601 18.18112232 -16.3683601 18.18112232 -18 23 C-19.32 23 -20.64 23 -22 23 C-21.43289291 19.77098814 -20.63773172 18.29861024 -18.12890625 16.203125 C-17.26749023 15.47802734 -17.26749023 15.47802734 -16.38867188 14.73828125 C-15.4847168 14.00158203 -15.4847168 14.00158203 -14.5625 13.25 C-13.96373047 12.74339844 -13.36496094 12.23679687 -12.74804688 11.71484375 C-8.2772174 8 -8.2772174 8 -6 8 C-6 7.34 -6 6.68 -6 6 C-4.34997172 4.64613064 -2.6825613 3.31321858 -1 2 C-0.67 1.34 -0.34 0.68 0 0 Z " fill="#D7A695" transform="translate(241,251)"/>
<path d="M0 0 C0 0.33 0 0.66 0 1 C-4.29 1.66 -8.58 2.32 -13 3 C-9.37 3 -5.74 3 -2 3 C-2.33 3.66 -2.66 4.32 -3 5 C-5.8359375 5.37890625 -5.8359375 5.37890625 -9.375 5.5625 C-14.27255474 5.82302499 -14.27255474 5.82302499 -19 7 C-19.99 6.01 -20.98 5.02 -22 4 C-14.75903687 -0.63421641 -8.44333791 -0.42691034 0 0 Z " fill="#F64637" transform="translate(199,193)"/>
<path d="M0 0 C-3.50153 3.85816731 -7.88674523 5.71910483 -13.078125 6.1875 C-14.71994004 6.1875 -16.36138226 6.10241361 -18 6 C-15.70946559 3.70946559 -13.61320096 2.69419098 -10.6875 1.3125 C-9.74261719 0.85488281 -8.79773438 0.39726562 -7.82421875 -0.07421875 C-4.70826707 -1.0956303 -3.09965679 -0.93159084 0 0 Z " fill="#A29D9B" transform="translate(142,154)"/>
<path d="M0 0 C0.99 0.33 1.98 0.66 3 1 C3 1.66 3 2.32 3 3 C3.99 3 4.98 3 6 3 C6.33 3.99 6.66 4.98 7 6 C4.90311466 8.09688534 0.89871765 7.87593037 -2 8 C-2.99 7.67 -3.98 7.34 -5 7 C-5 6.34 -5 5.68 -5 5 C-3.35 4.67 -1.7 4.34 0 4 C0 2.68 0 1.36 0 0 Z " fill="#CBAFAB" transform="translate(156,298)"/>
<path d="M0 0 C0.66 0.33 1.32 0.66 2 1 C-1.31603463 3.68885705 -4.65156819 6.35160584 -8 9 C-8.67546875 9.54269531 -9.3509375 10.08539063 -10.046875 10.64453125 C-12.72561633 12.7009986 -14.5374657 13.95079422 -17.9375 14.3125 C-18.9584375 14.1578125 -18.9584375 14.1578125 -20 14 C-19.13036621 13.59225342 -19.13036621 13.59225342 -18.24316406 13.17626953 C-16.00998053 12.00523359 -14.11693063 10.70154419 -12.109375 9.1796875 C-11.40039062 8.64472656 -10.69140625 8.10976563 -9.9609375 7.55859375 C-9.23132813 7.00300781 -8.50171875 6.44742187 -7.75 5.875 C-7.00492188 5.31167969 -6.25984375 4.74835938 -5.4921875 4.16796875 C-3.65925189 2.78151746 -1.82862987 1.39212232 0 0 Z " fill="#D4A494" transform="translate(200,286)"/>
<path d="M0 0 C0 0.99 0 1.98 0 3 C-0.77923828 3.36351562 -0.77923828 3.36351562 -1.57421875 3.734375 C-5.82428319 5.77691983 -9.40390906 7.90336614 -13 11 C-14.32901064 12.00573778 -15.66073801 13.00795408 -17 14 C-17.66 13.67 -18.32 13.34 -19 13 C-13.08214995 7.74747037 -7.18579166 3.42180555 0 0 Z " fill="#BCB7B3" transform="translate(240,138)"/>
<path d="M0 0 C4.85044762 1.01702934 9.66013209 2.11624832 14.4375 3.4375 C15.26121094 3.66308594 16.08492187 3.88867188 16.93359375 4.12109375 C19 5 19 5 21 8 C20.67 8.66 20.34 9.32 20 10 C19.34 10 18.68 10 18 10 C18 9.34 18 8.68 18 8 C17.01 8 16.02 8 15 8 C14.67 7.34 14.34 6.68 14 6 C11.65062258 5.0416631 9.33781945 4.18214554 6.9375 3.375 C6.27427734 3.14554687 5.61105469 2.91609375 4.92773438 2.6796875 C3.28740331 2.11324224 1.64397843 1.55577077 0 1 C0 0.67 0 0.34 0 0 Z " fill="#A99C9A" transform="translate(144,293)"/>
<path d="M0 0 C3.53586014 3.17320782 5.58578031 5.16743695 6 10 C3.625 9.6875 3.625 9.6875 1 9 C0.34 8.01 -0.32 7.02 -1 6 C-0.67 5.01 -0.34 4.02 0 3 C0 2.01 0 1.02 0 0 Z " fill="#F34E4A" transform="translate(172,311)"/>
<path d="M0 0 C1.32 0.33 2.64 0.66 4 1 C5.36623674 3.73247348 5.128426 5.98198902 5 9 C4 10 4 10 0.9375 10.0625 C-0.031875 10.041875 -1.00125 10.02125 -2 10 C-1.67 9.34 -1.34 8.68 -1 8 C-0.01 8 0.98 8 2 8 C1.34 5.36 0.68 2.72 0 0 Z " fill="#494645" transform="translate(125,240)"/>
<path d="M0 0 C0.66 0.33 1.32 0.66 2 1 C0.28211261 2.34783459 -1.4498097 3.67779443 -3.1875 5 C-4.15042969 5.7425 -5.11335937 6.485 -6.10546875 7.25 C-9.13138689 9.07943499 -10.54751479 9.40394708 -14 9 C-13.41347656 8.73316406 -12.82695312 8.46632813 -12.22265625 8.19140625 C-9.30652669 6.62827881 -7.11743843 4.55686485 -4.68359375 2.33984375 C-3 1 -3 1 0 0 Z " fill="#D9AA9A" transform="translate(237,306)"/>
<path d="M0 0 C0.33 0.99 0.66 1.98 1 3 C-1.10078511 6.07614963 -2.88621595 7.92414397 -6 10 C-6.99 9.67 -7.98 9.34 -9 9 C-8.01 8.67 -7.02 8.34 -6 8 C-6 7.34 -6 6.68 -6 6 C-4.34997172 4.64613064 -2.6825613 3.31321858 -1 2 C-0.67 1.34 -0.34 0.68 0 0 Z " fill="#DFAC9F" transform="translate(241,251)"/>
<path d="M0 0 C0.99 0.66 1.98 1.32 3 2 C3 2.66 3 3.32 3 4 C1.1875 5.0625 1.1875 5.0625 -1 6 C-1.99 5.67 -2.98 5.34 -4 5 C-2.68 3.35 -1.36 1.7 0 0 Z " fill="#D02619" transform="translate(202,286)"/>
<path d="M0 0 C5.76044212 0.60636233 10.72014369 2.75658279 16 5 C13.13421241 6.16161779 11.98369837 5.9946154 8.984375 5.00390625 C7.91703125 4.52824219 6.8496875 4.05257812 5.75 3.5625 C4.67234375 3.08941406 3.5946875 2.61632812 2.484375 2.12890625 C1.66453125 1.75636719 0.8446875 1.38382813 0 1 C0 0.67 0 0.34 0 0 Z " fill="#6F6E6E" transform="translate(99,232)"/>
<path d="M0 0 C2.5654594 2.5654594 2.54046087 4.47686668 3 8 C1.02 8.99 1.02 8.99 -1 10 C-1.66 9.34 -2.32 8.68 -3 8 C-2.01 7.67 -1.02 7.34 0 7 C0 4.69 0 2.38 0 0 Z " fill="#E39F5F" transform="translate(166,303)"/>
<path d="M0 0 C1.46109063 0.25554054 2.91888096 0.53000372 4.375 0.8125 C5.59316406 1.03873047 5.59316406 1.03873047 6.8359375 1.26953125 C9 2 9 2 11 5 C6.87248551 4.39301257 3.6678852 2.96189209 0 1 C0 0.67 0 0.34 0 0 Z " fill="#6E6D6D" transform="translate(116,238)"/>
<path d="M0 0 C4 2 4 2 5.3125 3.9375 C6 6 6 6 5 9 C3.35 6.03 1.7 3.06 0 0 Z " fill="#E5C8BA" transform="translate(218,276)"/>
<path d="M0 0 C0.66 0.33 1.32 0.66 2 1 C2 3.31 2 5.62 2 8 C1.01 8 0.02 8 -1 8 C-0.67 5.36 -0.34 2.72 0 0 Z " fill="#3F3D3C" transform="translate(117,253)"/>
<path d="M0 0 C0.33 0.99 0.66 1.98 1 3 C0 4 0 4 -3.5625 4.0625 C-4.696875 4.041875 -5.83125 4.02125 -7 4 C-6 2 -6 2 -2.9375 0.875 C-1.4834375 0.441875 -1.4834375 0.441875 0 0 Z " fill="#ABA8A5" transform="translate(130,248)"/>
</svg>
