<svg xmlns="http://www.w3.org/2000/svg" width="32" height="32" viewBox="0 0 32 32">
  <g id="offer_icon" transform="translate(-22 -427)">
    <rect id="Button_Shape" data-name="Button Shape" width="32" height="32" rx="10" transform="translate(22 427)" fill="#edf6f7"/>
    <g id="offer-inner" transform="translate(28 433.002)">
      <g id="Discount" transform="translate(0)">
        <g id="Group_31610" data-name="Group 31610" transform="translate(6.5 -2.477)">
          <path id="Fill_1" data-name="Fill 1" d="M10,20a3,3,0,0,1-2.124-.875l-.73-.73a1.5,1.5,0,0,0-1.064-.439H5.054a3.015,3.015,0,0,1-3.011-3.011V13.916a1.509,1.509,0,0,0-.44-1.065l-.718-.717A3.015,3.015,0,0,1,.874,7.877l.73-.731a1.5,1.5,0,0,0,.439-1.064V5.056A3.015,3.015,0,0,1,5.054,2.044H6.082A1.5,1.5,0,0,0,7.146,1.6L7.865.886A3.014,3.014,0,0,1,12.122.875l.73.73a1.5,1.5,0,0,0,1.063.439h1.028a3.015,3.015,0,0,1,3.011,3.012V6.083a1.509,1.509,0,0,0,.44,1.065l.718.718a3.009,3.009,0,0,1,.02,4.247c-.01.01-.019.021-.029.03l-.71.71a1.5,1.5,0,0,0-.439,1.064v1.027a3.015,3.015,0,0,1-3.011,3.011H13.915a1.5,1.5,0,0,0-1.064.44l-.719.718A3,3,0,0,1,10,20" transform="translate(-6.5 2.477)" fill="#00a19a" opacity="0.4"/>
          <path id="Combined_Shape" data-name="Combined Shape" d="M5.4,6.638a.9.9,0,0,1-.189-.282.845.845,0,0,1-.061-.34.854.854,0,0,1,.061-.341A1.2,1.2,0,0,1,5.39,5.4a.885.885,0,0,1,.964-.194.786.786,0,0,1,.289.187.9.9,0,0,1,0,1.237.907.907,0,0,1-.619.257A.894.894,0,0,1,5.4,6.638Zm-5.138,0a.877.877,0,0,1,0-1.238L5.4.256A.875.875,0,0,1,6.638,1.494L1.5,6.634a.876.876,0,0,1-1.237,0ZM.26,1.5A.877.877,0,0,1,0,.876.914.914,0,0,1,.254.261a.794.794,0,0,1,.3-.194A.856.856,0,0,1,1.5.26a.917.917,0,0,1,.194.275.852.852,0,0,1-.2.962.854.854,0,0,1-.616.254A.9.9,0,0,1,.26,1.5Z" transform="translate(0.052 9.031)" fill="#00a19a"/>
        </g>
      </g>
    </g>
  </g>
</svg>
