<svg width="24" height="24" viewBox="0 0 24 24" fill="none" xmlns="http://www.w3.org/2000/svg">
    <path d="M11.9999 22.7604C10.9099 22.7604 9.8299 22.4404 8.9799 21.8104L4.6799 18.6004C3.5399 17.7504 2.6499 15.9804 2.6499 14.5604V7.12043C2.6499 5.58043 3.7799 3.94043 5.2299 3.40043L10.2199 1.53043C11.2099 1.16043 12.7699 1.16043 13.7599 1.53043L18.7599 3.40043C20.2099 3.94043 21.3399 5.58043 21.3399 7.12043V14.5504C21.3399 15.9704 20.4499 17.7404 19.3099 18.5904L15.0099 21.8004C14.1699 22.4404 13.0899 22.7604 11.9999 22.7604ZM10.7499 2.94043L5.7599 4.81043C4.8999 5.13043 4.1499 6.21043 4.1499 7.13043V14.5604C4.1499 15.5104 4.8199 16.8404 5.5699 17.4004L9.8699 20.6104C11.0199 21.4704 12.9699 21.4704 14.1199 20.6104L18.4199 17.4004C19.1799 16.8304 19.8399 15.5004 19.8399 14.5604V7.12043C19.8399 6.21043 19.0899 5.13043 18.2299 4.80043L13.2399 2.93043C12.5799 2.69043 11.4199 2.69043 10.7499 2.94043Z" fill="#292D32"/>
    <path d="M12 13.25C10.48 13.25 9.25 12.02 9.25 10.5C9.25 8.98 10.48 7.75 12 7.75C13.52 7.75 14.75 8.98 14.75 10.5C14.75 12.02 13.52 13.25 12 13.25ZM12 9.25C11.31 9.25 10.75 9.81 10.75 10.5C10.75 11.19 11.31 11.75 12 11.75C12.69 11.75 13.25 11.19 13.25 10.5C13.25 9.81 12.69 9.25 12 9.25Z" fill="#292D32"/>
    <path d="M12 16.25C11.59 16.25 11.25 15.91 11.25 15.5V12.5C11.25 12.09 11.59 11.75 12 11.75C12.41 11.75 12.75 12.09 12.75 12.5V15.5C12.75 15.91 12.41 16.25 12 16.25Z" fill="#292D32"/>
    </svg>
    