<svg xmlns="http://www.w3.org/2000/svg" width="32" height="32" viewBox="0 0 32 32">
  <g id="booth_icon" transform="translate(-22 -427)">
    <rect id="Button_Shape" data-name="Button Shape" width="32" height="32" rx="10" transform="translate(22 427)" fill="#f0f5ef"/>
    <g id="receipt-add_bulk" data-name="receipt-add/bulk" transform="translate(26 431)">
      <g id="vuesax_bulk_receipt-add" data-name="vuesax/bulk/receipt-add">
        <g id="receipt-add">
          <path id="Vector" d="M0,0H24V24H0Z" fill="none" opacity="0"/>
          <path id="Vector-2" data-name="Vector" d="M6,4V6.42A2.4,2.4,0,0,1,3.42,9H0V2.01A2.019,2.019,0,0,1,2.02,0,3.995,3.995,0,0,1,6,4Z" transform="translate(16 2)" fill="#6daf3d"/>
          <path id="Vector-3" data-name="Vector" d="M0,5V19a1,1,0,0,0,1.6.8l1.71-1.28a1.007,1.007,0,0,1,1.32.1l1.66,1.67a1.008,1.008,0,0,0,1.42,0l1.68-1.68a.991.991,0,0,1,1.3-.09L12.4,19.8A1,1,0,0,0,14,19V2a2.006,2.006,0,0,1,2-2H4C1,0,0,1.79,0,4Z" transform="translate(2 2)" fill="#6daf3d" opacity="0.4"/>
        </g>
        <g id="vuesax_outline_clock" data-name="vuesax/outline/clock" transform="translate(3.275 7)">
          <g id="clock" transform="translate(0.725)">
            <g id="Vector-4" data-name="Vector" transform="translate(0.535 0.535)" fill="#6daf3d">
              <path d="M 4.602409362792969 9.304819107055664 C 2.009489297866821 9.304819107055664 -0.1000006347894669 7.195329189300537 -0.1000006347894669 4.602409362792969 C -0.1000006347894669 2.009489297866821 2.009489297866821 -0.1000006347894669 4.602409362792969 -0.1000006347894669 C 7.195329189300537 -0.1000006347894669 9.304819107055664 2.009489297866821 9.304819107055664 4.602409362792969 C 9.304819107055664 7.195329189300537 7.195329189300537 9.304819107055664 4.602409362792969 9.304819107055664 Z M 4.602409362792969 0.7421993613243103 C 2.473879337310791 0.7421993613243103 0.7421993613243103 2.473879337310791 0.7421993613243103 4.602409362792969 C 0.7421993613243103 6.730939388275146 2.473879337310791 8.462619781494141 4.602409362792969 8.462619781494141 C 6.730939388275146 8.462619781494141 8.462619781494141 6.730939388275146 8.462619781494141 4.602409362792969 C 8.462619781494141 2.473879337310791 6.730939388275146 0.7421993613243103 4.602409362792969 0.7421993613243103 Z" stroke="none"/>
              <path d="M 4.602409362792969 9.204819679260254 C 7.141229152679443 9.204819679260254 9.204819679260254 7.141229152679443 9.204819679260254 4.602409362792969 C 9.204819679260254 2.063589334487915 7.141229152679443 -6.372070515681116e-07 4.602409362792969 -6.372070515681116e-07 C 2.063589334487915 -6.372070515681116e-07 -6.372070515681116e-07 2.063589334487915 -6.372070515681116e-07 4.602409362792969 C -6.372070515681116e-07 7.141229152679443 2.063589334487915 9.204819679260254 4.602409362792969 9.204819679260254 M 4.602409362792969 0.6421993374824524 C 6.785879135131836 0.6421993374824524 8.562619209289551 2.418939352035522 8.562619209289551 4.602409362792969 C 8.562619209289551 6.785879135131836 6.785879135131836 8.562619209289551 4.602409362792969 8.562619209289551 C 2.418939352035522 8.562619209289551 0.6421993374824524 6.785879135131836 0.6421993374824524 4.602409362792969 C 0.6421993374824524 2.418939352035522 2.418939352035522 0.6421993374824524 4.602409362792969 0.6421993374824524 M 4.602409362792969 9.404819488525391 C 1.954349398612976 9.404819488525391 -0.2000006437301636 7.250469207763672 -0.2000006437301636 4.602409362792969 C -0.2000006437301636 1.954349398612976 1.954349398612976 -0.2000006437301636 4.602409362792969 -0.2000006437301636 C 7.250469207763672 -0.2000006437301636 9.404819488525391 1.954349398612976 9.404819488525391 4.602409362792969 C 9.404819488525391 7.250469207763672 7.250469207763672 9.404819488525391 4.602409362792969 9.404819488525391 Z M 4.602409362792969 0.8421993851661682 C 2.529019355773926 0.8421993851661682 0.8421993851661682 2.529019355773926 0.8421993851661682 4.602409362792969 C 0.8421993851661682 6.675799369812012 2.529019355773926 8.362619400024414 4.602409362792969 8.362619400024414 C 6.675799369812012 8.362619400024414 8.362619400024414 6.675799369812012 8.362619400024414 4.602409362792969 C 8.362619400024414 2.529019355773926 6.675799369812012 0.8421993851661682 4.602409362792969 0.8421993851661682 Z" stroke="none" fill="#6daf3d"/>
            </g>
            <g id="Vector-5" data-name="Vector" transform="translate(4.662 2.894)" fill="#6daf3d">
              <path d="M 2.063592433929443 4.025960922241211 C 1.982422351837158 4.025960922241211 1.909022331237793 4.004470825195312 1.845432281494141 3.962080955505371 L 0.5224423408508301 3.172690868377686 C 0.1617623120546341 2.957221031188965 -0.09999768435955048 2.496181011199951 -0.09999768435955048 2.076431035995483 L -0.09999768435955048 0.3211009800434113 C -0.09999768435955048 0.08890098333358765 0.0889023169875145 -0.09999901801347733 0.3211023211479187 -0.09999901801347733 C 0.5532923340797424 -0.09999901801347733 0.7421923279762268 0.08890098333358765 0.7421923279762268 0.3211009800434113 L 0.7421923279762268 2.076431035995483 C 0.7421923279762268 2.195060968399048 0.8528223037719727 2.38956093788147 0.9535723328590393 2.448060989379883 L 2.281812429428101 3.240710973739624 C 2.378682374954224 3.297210931777954 2.447522401809692 3.389081001281738 2.474782228469849 3.49889087677002 C 2.501662254333496 3.607120990753174 2.485132217407227 3.720431089401245 2.428252220153809 3.817940950393677 C 2.34629225730896 3.94917106628418 2.210562229156494 4.025960922241211 2.063592433929443 4.025960922241211 Z" stroke="none"/>
              <path d="M 2.063592433929443 3.925961017608643 C 2.1706223487854 3.925961017608643 2.27766227722168 3.870301008224487 2.341872215270996 3.767550945281982 C 2.431782245635986 3.613430976867676 2.384692430496216 3.416491031646729 2.230562210083008 3.326581001281738 L 0.9033523201942444 2.534540891647339 C 0.7706323266029358 2.457470893859863 0.6421923041343689 2.230561017990112 0.6421923041343689 2.076431035995483 L 0.6421923041343689 0.3211009800434113 C 0.6421923041343689 0.1455609798431396 0.496632307767868 9.856414635578403e-07 0.3211023211479187 9.856414635578403e-07 C 0.1455623209476471 9.856414635578403e-07 2.314910943823634e-06 0.1455609798431396 2.314910943823634e-06 0.3211009800434113 L 2.314910943823634e-06 2.076431035995483 C 2.314910943823634e-06 2.457470893859863 0.2440323084592819 2.889880895614624 0.5736923217773438 3.08682107925415 L 1.900902271270752 3.878870964050293 C 1.952282309532166 3.913120985031128 2.007932424545288 3.925961017608643 2.063592433929443 3.925961017608643 M 2.063592433929443 4.125960826873779 C 1.964266777038574 4.125960826873779 1.873791575431824 4.099845409393311 1.794585704803467 4.048327445983887 L 0.4712023138999939 3.2585608959198 C 0.08225231617689133 3.026201009750366 -0.199997678399086 2.529061079025269 -0.199997678399086 2.076431035995483 L -0.199997678399086 0.3211009800434113 C -0.199997678399086 0.03376098722219467 0.03376231342554092 -0.1999990195035934 0.3211023211479187 -0.1999990195035934 C 0.6084322929382324 -0.1999990195035934 0.8421922922134399 0.03376098722219467 0.8421922922134399 0.3211009800434113 L 0.8421922922134399 2.076431035995483 C 0.8421922922134399 2.160470962524414 0.9328023195266724 2.32037091255188 1.003782272338867 2.361591100692749 L 2.333052396774292 3.15484094619751 C 2.452592372894287 3.224560976028442 2.538012266159058 3.338551044464111 2.571842432022095 3.474791049957275 C 2.605022430419922 3.60844087600708 2.584702253341675 3.7482008934021 2.514622211456299 3.868330955505371 L 2.511482238769531 3.873540878295898 C 2.412702322006226 4.031600952148438 2.245272397994995 4.125960826873779 2.063592433929443 4.125960826873779 Z" stroke="none" fill="#6daf3d"/>
            </g>
            <g id="Vector-6" data-name="Vector" fill="none" opacity="0">
              <path d="M0,0H10.275V10.275H0Z" stroke="none"/>
              <path d="M 2.86102294921875e-06 2.86102294921875e-06 L 2.86102294921875e-06 10.27514362335205 L 10.27514362335205 10.27514362335205 L 10.27514362335205 2.86102294921875e-06 L 2.86102294921875e-06 2.86102294921875e-06 M -0.1999969482421875 -0.1999969482421875 L 10.47514343261719 -0.1999969482421875 L 10.47514343261719 10.47514343261719 L -0.1999969482421875 10.47514343261719 L -0.1999969482421875 -0.1999969482421875 Z" stroke="none" fill="#6daf3d"/>
            </g>
          </g>
        </g>
      </g>
    </g>
  </g>
</svg>
