<svg id="vuesax_bulk_like-shapes" data-name="vuesax/bulk/like-shapes" xmlns="http://www.w3.org/2000/svg" width="24" height="24" viewBox="0 0 24 24">
  <g id="like-shapes">
    <path id="Vector" d="M0,0H24V24H0Z" fill="none" opacity="0"/>
    <path id="Vector-2" data-name="Vector" d="M8.745.442a2.015,2.015,0,0,1,2.52,0l1.58,1.36a2.216,2.216,0,0,0,1.26.47h1.7a1.938,1.938,0,0,1,1.93,1.93V5.9a2.243,2.243,0,0,0,.47,1.26l1.36,1.58a2.015,2.015,0,0,1,0,2.52l-1.36,1.58a2.216,2.216,0,0,0-.47,1.26v1.7a1.938,1.938,0,0,1-1.93,1.93H14.1a2.243,2.243,0,0,0-1.26.47l-1.58,1.36a2.015,2.015,0,0,1-2.52,0L7.165,18.2a2.216,2.216,0,0,0-1.26-.47H4.175a1.938,1.938,0,0,1-1.93-1.93v-1.71a2.275,2.275,0,0,0-.46-1.25l-1.35-1.59a2.013,2.013,0,0,1,0-2.5l1.35-1.59a2.276,2.276,0,0,0,.46-1.25V4.2a1.938,1.938,0,0,1,1.93-1.93h1.73a2.243,2.243,0,0,0,1.26-.47Z" transform="translate(2.005 2.008)" fill="#4b5353" opacity="0.4"/>
    <path id="Vector-3" data-name="Vector" d="M9.35,3.694a1.052,1.052,0,0,0-.89-.42H6.51a.413.413,0,0,1-.33-.15.478.478,0,0,1-.1-.37l.24-1.56A1.031,1.031,0,0,0,5.65.054a1.031,1.031,0,0,0-1.14.36L2.57,3.294v-.36c0-.7-.3-.99-1.04-.99H1.04c-.74,0-1.04.29-1.04.99v4.78c0,.7.3.99,1.04.99h.49c.7,0,1-.27,1.03-.91l1.47,1.13a1.563,1.563,0,0,0,.97.31H6.85a1.509,1.509,0,0,0,1.42-1.07L9.44,4.6A.92.92,0,0,0,9.35,3.694Z" transform="translate(7.23 7.376)" fill="#4b5353"/>
  </g>
</svg>
