<svg id="location_bulk" data-name="location/bulk" xmlns="http://www.w3.org/2000/svg" width="20" height="20" viewBox="0 0 20 20">
  <g id="vuesax_bulk_location" data-name="vuesax/bulk/location">
    <g id="location">
      <path id="Vector" d="M13.556,5.393A6.727,6.727,0,0,0,6.879,0H6.871A6.726,6.726,0,0,0,.194,5.385c-.906,4.153,1.542,7.67,3.757,9.884a4.088,4.088,0,0,0,5.849,0C12.015,13.055,14.463,9.546,13.556,5.393Z" transform="translate(3.12 1.75)" fill="#00a19a" opacity="0.4"/>
      <path id="Vector-2" data-name="Vector" d="M6.3,3.15A3.15,3.15,0,1,1,3.15,0,3.15,3.15,0,0,1,6.3,3.15Z" transform="translate(6.85 5.542)" fill="#00a19a"/>
      <path id="Vector-3" data-name="Vector" d="M0,0H20V20H0Z" fill="none" opacity="0"/>
    </g>
  </g>
</svg>
