<svg width="25" height="25" viewBox="0 0 25 25" fill="none" xmlns="http://www.w3.org/2000/svg">
    <path d="M4.46875 12.2254C4.46875 11.8457 4.7509 11.5319 5.11698 11.4822L5.21875 11.4754L18.4028 11.476L13.6398 6.73247C13.3462 6.44021 13.3452 5.96534 13.6375 5.67181C13.9032 5.40497 14.3198 5.37987 14.6139 5.59709L14.6981 5.66953L20.7481 11.6935C20.7868 11.7321 20.8204 11.7737 20.849 11.8178C20.857 11.831 20.8652 11.8446 20.873 11.8584C20.8801 11.8703 20.8866 11.8826 20.8927 11.895C20.9012 11.9131 20.9094 11.9319 20.9169 11.9509C20.923 11.9657 20.9281 11.98 20.9328 11.9944C20.9383 12.0123 20.9437 12.0314 20.9483 12.0507C20.9517 12.0642 20.9545 12.0773 20.9568 12.0903C20.9602 12.1097 20.963 12.1299 20.965 12.1502C20.9668 12.1657 20.9678 12.1811 20.9684 12.1965C20.9686 12.2058 20.9688 12.2156 20.9688 12.2254L20.9684 12.2545C20.9678 12.2692 20.9668 12.2839 20.9654 12.2986L20.9688 12.2254C20.9688 12.2727 20.9644 12.319 20.956 12.3639C20.954 12.3747 20.9517 12.3857 20.9492 12.3966C20.9438 12.4192 20.9377 12.4409 20.9306 12.4623C20.9271 12.4728 20.923 12.4842 20.9187 12.4954C20.91 12.518 20.9004 12.5395 20.8899 12.5604C20.8851 12.5703 20.8796 12.5806 20.8739 12.5908C20.8645 12.6075 20.8549 12.6233 20.8447 12.6387C20.8375 12.6496 20.8295 12.661 20.8212 12.6722L20.8147 12.6808C20.7945 12.7072 20.7725 12.7323 20.7491 12.7557L20.7482 12.7564L14.6982 18.7814C14.4047 19.0737 13.9298 19.0727 13.6375 18.7792C13.3718 18.5124 13.3485 18.0957 13.5669 17.8025L13.6397 17.7186L18.4008 12.976L5.21875 12.9754C4.80454 12.9754 4.46875 12.6396 4.46875 12.2254Z" fill="#1D1F1F"/>
    </svg>
    