<svg width="124" height="81" viewBox="0 0 124 81" fill="none" xmlns="http://www.w3.org/2000/svg">
    <g clip-path="url(#clip0_568_20446)">
    <path d="M100.012 35.8669C100.012 35.8199 100.009 35.7745 100.006 35.7275C100.009 35.773 100.01 35.8199 100.012 35.8669Z" fill="#005EF0"/>
    <path d="M100.013 35.9103C100.013 35.8961 100.012 35.8818 100.012 35.8662C100.012 35.8847 100.012 35.9032 100.012 35.9217C100.012 35.9174 100.012 35.9145 100.012 35.9103H100.013Z" fill="#0F3872"/>
    <path d="M100.008 35.7268C99.9979 35.5519 99.9753 35.3828 99.9414 35.2207C99.9414 35.2235 99.9414 35.225 99.9414 35.2278C99.9767 35.387 99.9993 35.5548 100.009 35.7268H100.008Z" fill="#0F3872"/>
    <path d="M98.1816 33.4346C98.2268 33.4346 98.272 33.4388 98.3158 33.4431C98.2706 33.4374 98.2268 33.4346 98.1816 33.4346Z" fill="#005EF0"/>
    <path d="M98.3168 33.4443C99.0625 33.5339 99.722 34.2333 99.9381 35.2284C99.9381 35.2256 99.9381 35.2242 99.9381 35.2213C99.7291 34.2504 99.0893 33.5268 98.3154 33.4443H98.3168Z" fill="#005EF0"/>
    <path d="M100.014 35.9986C100.014 35.7598 99.9882 35.528 99.9402 35.3063C99.8569 35.6915 99.7058 36.0356 99.5067 36.3184H99.4968C99.6987 36.037 99.8541 35.6915 99.9388 35.2992C99.7905 34.6211 99.429 34.0468 98.9333 33.7454L69.9094 16.0026C69.4504 15.7226 68.9844 15.4781 68.5099 15.2705C68.0452 15.0658 67.5736 14.8966 67.0976 14.7616C65.249 14.237 63.3383 14.237 61.4897 14.7616C61.0138 14.8966 60.5435 15.0658 60.0775 15.2705C59.6044 15.4781 59.137 15.7226 58.678 16.0026L29.6526 33.7454C29.1583 34.0482 28.7968 34.6211 28.6471 35.2992C28.7318 35.6915 28.8872 36.037 29.0891 36.3184H29.0793C28.8801 36.0356 28.7276 35.6901 28.6457 35.3063C28.5977 35.528 28.5723 35.7612 28.5723 35.9986C28.5723 36.1081 28.5793 36.2133 28.5892 36.3184H28.5723V61.2203H99.936V36.6952C99.984 36.4748 100.011 36.2403 100.011 35.9986H100.014Z" fill="#00C4B3"/>
    <path d="M93.3043 65.3586H35.5402C35.5402 65.3586 33.782 2.08117 35.5402 0.662428C37.3916 -0.830232 80.6056 0.662428 80.6056 0.662428L93.3043 15.1483V65.3572V65.3586Z" fill="#EBEBED"/>
    <path d="M80.6055 0.664062C81.8214 0.668327 92.2648 10.436 93.3042 15.15C93.5019 16.0498 82.6603 12.5599 81.8864 11.9784C81.0362 11.3401 80.6055 0.664062 80.6055 0.664062Z" fill="#EB4545"/>
    <path d="M77.1069 5.84082H47.7017C47.5644 5.84082 47.4531 5.95284 47.4531 6.09102V7.57657C47.4531 7.71475 47.5644 7.82677 47.7017 7.82677H77.1069C77.2442 7.82677 77.3555 7.71475 77.3555 7.57657V6.09102C77.3555 5.95284 77.2442 5.84082 77.1069 5.84082Z" fill="#EB4545"/>
    <path d="M77.1069 9.99219H47.7017C47.5644 9.99219 47.4531 10.1042 47.4531 10.2424V11.7279C47.4531 11.8661 47.5644 11.9781 47.7017 11.9781H77.1069C77.2442 11.9781 77.3555 11.8661 77.3555 11.7279V10.2424C77.3555 10.1042 77.2442 9.99219 77.1069 9.99219Z" fill="#EB4545"/>
    <path d="M77.316 14.5908H47.4927C47.3554 14.5908 47.2441 14.7028 47.2441 14.841V16.3266C47.2441 16.4648 47.3554 16.5768 47.4927 16.5768H77.316C77.4532 16.5768 77.5645 16.4648 77.5645 16.3266V14.841C77.5645 14.7028 77.4532 14.5908 77.316 14.5908Z" fill="#EB4545"/>
    <path d="M100.014 35.9223C100.011 36.889 99.5887 37.7647 98.9334 38.1642L70.528 56.7215L70.0224 57.0513C69.7682 57.2062 69.5112 57.3498 69.2528 57.4834L69.4505 57.627L59.4308 57.4152C59.2161 57.3015 59.0043 57.1806 58.7939 57.0527L58.1654 56.6461L29.6555 38.1656C29.0003 37.7647 28.5794 36.889 28.5752 35.9237C28.5752 35.928 28.5752 35.9323 28.5752 35.9365V75.6044C28.5752 77.0387 29.455 77.9386 30.3998 78.1049C47.2447 81.0831 71.0195 82.3128 98.1892 78.1049C99.1368 77.9585 100.014 77.0387 100.014 75.6044V35.9351C100.014 35.9351 100.014 35.9266 100.014 35.9209V35.9223Z" fill="#6BDDD3"/>
    <path d="M98.1886 78.1048C98.762 78.0167 99.3085 77.6428 99.6503 77.0458L68.9882 55.6495C67.4375 54.3147 65.7867 53.3594 64.1428 53.3594C62.499 53.3594 61.3127 53.9891 59.1648 55.5799L28.5732 73.6937V75.6029C28.5732 77.0372 29.4531 77.9371 30.3978 78.1034C47.2428 81.0816 71.0175 82.3113 98.1872 78.1034L98.1886 78.1048Z" fill="#00C4B3"/>
    <path d="M70.7249 46.0965L72.7767 44.6803C73.3015 44.31 73.4309 43.5871 73.0652 43.0642L69.6098 38.1062C69.1964 37.5181 69.6216 36.7078 70.3398 36.7078H76.4016C77.0394 36.7078 77.5643 36.1908 77.5643 35.5568V33.0652C77.5643 32.4312 77.0394 31.9142 76.4016 31.9142H70.3398C69.6202 31.9142 69.1964 31.1098 69.6098 30.5217L73.0652 25.5578C73.4309 25.0349 73.3001 24.312 72.7767 23.9476L70.7249 22.5314C70.2 22.167 69.4744 22.2959 69.1146 22.8188L64.0312 30.104L58.9477 22.8188C58.5819 22.2959 57.8564 22.167 57.3315 22.5314L55.2856 23.9476C54.7548 24.312 54.6314 25.0349 54.9912 25.5578L58.4526 30.5217C58.86 31.1098 58.4407 31.9142 57.7211 31.9142H51.6593C51.017 31.9142 50.498 32.4312 50.498 33.0652V35.5568C50.498 36.1908 51.017 36.7078 51.6593 36.7078H57.7211C58.4407 36.7078 58.8585 37.5181 58.4526 38.1062L54.9912 43.0642C54.6314 43.5871 54.7548 44.31 55.2856 44.6803L57.3315 46.0965C57.8564 46.4609 58.5819 46.332 58.9477 45.8032L64.0312 38.518L69.1146 45.8032C69.4744 46.332 70.2 46.4609 70.7249 46.0965Z" fill="#EB4545"/>
    </g>
    <defs>
    <clipPath id="clip0_568_20446">
    <rect width="123" height="81" fill="white" transform="translate(0.5)"/>
    </clipPath>
    </defs>
    </svg>
    