<svg width="83" height="83" viewBox="0 0 83 83" fill="none" xmlns="http://www.w3.org/2000/svg">
    <path d="M32 64C49.6731 64 64 49.6731 64 32C64 14.3269 49.6731 0 32 0C14.3269 0 0 14.3269 0 32C0 49.6731 14.3269 64 32 64Z" fill="#FF5100"/>
    <path d="M48 83C67.33 83 83 67.33 83 48C83 28.67 67.33 13 48 13C28.67 13 13 28.67 13 48C13 67.33 28.67 83 48 83Z" fill="url(#paint0_linear_1405_29683)"/>
    <path d="M48 82.5C67.0538 82.5 82.5 67.0538 82.5 48C82.5 28.9462 67.0538 13.5 48 13.5C28.9462 13.5 13.5 28.9462 13.5 48C13.5 67.0538 28.9462 82.5 48 82.5Z" stroke="white" stroke-opacity="0.79" stroke-miterlimit="10"/>
    <g filter="url(#filter0_d_1405_29683)">
    <path d="M30.6299 47.9975L42.1879 59.5555L65.3449 36.4395" stroke="white" stroke-width="8" stroke-linecap="round" stroke-linejoin="round"/>
    </g>
    <defs>
    <filter id="filter0_d_1405_29683" x="16.6299" y="30.4395" width="62.7148" height="51.1152" filterUnits="userSpaceOnUse" color-interpolation-filters="sRGB">
    <feFlood flood-opacity="0" result="BackgroundImageFix"/>
    <feColorMatrix in="SourceAlpha" type="matrix" values="0 0 0 0 0 0 0 0 0 0 0 0 0 0 0 0 0 0 127 0" result="hardAlpha"/>
    <feOffset dy="8"/>
    <feGaussianBlur stdDeviation="5"/>
    <feColorMatrix type="matrix" values="0 0 0 0 0.278431 0 0 0 0 0.619608 0 0 0 0 0.596078 0 0 0 0.6 0"/>
    <feBlend mode="normal" in2="BackgroundImageFix" result="effect1_dropShadow_1405_29683"/>
    <feBlend mode="normal" in="SourceGraphic" in2="effect1_dropShadow_1405_29683" result="shape"/>
    </filter>
    <linearGradient id="paint0_linear_1405_29683" x1="51.15" y1="13" x2="96.44" y2="109.67" gradientUnits="userSpaceOnUse">
    <stop stop-color="#BCE2DF"/>
    <stop offset="0.586" stop-color="#479F99"/>
    <stop offset="1" stop-color="#479F99"/>
    </linearGradient>
    </defs>
    </svg>
    