<svg width="125" height="20" viewBox="0 0 125 20" fill="none" xmlns="http://www.w3.org/2000/svg">
<g clip-path="url(#clip0_3779_21652)">
<path d="M121.062 13.8121L122.242 12.9896C122.546 12.7783 122.62 12.358 122.41 12.0533L120.417 9.16949C120.18 8.82831 120.425 8.36121 120.837 8.36121H124.333C124.703 8.36121 125.002 8.06064 125.002 7.68899V6.24301C125.002 5.87136 124.703 5.57079 124.333 5.57079H120.837C120.423 5.57079 120.18 5.10369 120.417 4.76251L122.41 1.87867C122.62 1.57404 122.546 1.15568 122.242 0.942441L121.062 0.117908C120.759 -0.0933022 120.342 -0.0181601 120.13 0.28647L117.203 4.5188L114.275 0.28647C114.065 -0.0181601 113.647 -0.0933022 113.343 0.117908L112.163 0.942441C111.86 1.15365 111.785 1.57404 111.995 1.87867L113.988 4.76251C114.225 5.10369 113.98 5.57079 113.568 5.57079H110.072C109.703 5.57079 109.403 5.87136 109.403 6.24301V7.68899C109.403 8.06064 109.703 8.36121 110.072 8.36121H113.568C113.982 8.36121 114.225 8.82831 113.988 9.16949L111.995 12.0533C111.785 12.358 111.86 12.7763 112.163 12.9896L113.343 13.8121C113.647 14.0233 114.063 13.9481 114.275 13.6435L117.203 9.41117L120.13 13.6435C120.34 13.9481 120.759 14.0233 121.062 13.8121Z" fill="#FF5100"/>
<path d="M0 15.1248L4.82752 14.3571C5.08224 14.9786 5.29046 15.4436 5.45421 15.7543C5.61795 16.0651 5.85448 16.3291 6.16378 16.5484C6.47308 16.7678 6.88144 16.8774 7.39088 16.8774C8.22781 16.8774 8.83024 16.6398 9.20423 16.1646C9.5762 15.6894 9.76218 15.1329 9.76218 14.4932C9.76218 14.1276 9.65706 13.8047 9.44884 13.5204C9.23859 13.2381 8.90705 12.9314 8.45422 12.6024C7.99937 12.2734 7.21702 11.7535 6.1092 11.0407C4.56471 10.0375 3.41848 9.24745 2.67252 8.67068C1.92656 8.09594 1.37265 7.50699 1.00877 6.90382C0.644882 6.30066 0.46294 5.58985 0.46294 4.76735C0.46294 3.2706 1.12197 2.10082 2.44004 1.26004C3.75811 0.42332 5.57146 0.00292969 7.8801 0.00292969C9.29722 0.00292969 10.5607 0.23648 11.6705 0.701549C12.7784 1.16662 13.6335 1.82056 14.2339 2.65931L10.7164 4.87905C10.4435 4.18449 10.0472 3.67271 9.5297 3.34371C9.01218 3.01471 8.37134 2.85021 7.60718 2.85021C6.98858 2.85021 6.46702 3.03705 6.04046 3.41073C5.61391 3.78644 5.39962 4.23729 5.39962 4.76735C5.39962 5.05979 5.50475 5.32381 5.71297 5.56142C5.92119 5.79903 6.24464 6.06304 6.6813 6.35549C7.11796 6.64793 7.87201 7.113 8.94547 7.75273C9.01824 7.78928 9.10517 7.84005 9.20423 7.90301C9.30328 7.968 9.41851 8.03502 9.54587 8.10813C11.3815 9.2048 12.7865 10.2873 13.7588 11.3555C14.7312 12.4237 15.2184 13.6524 15.2184 15.0395C15.2184 15.9899 14.9415 16.8388 14.3875 17.5862C13.8336 18.3356 13.0109 18.9245 11.9192 19.3531C10.8276 19.7816 9.5014 19.9968 7.93872 19.9968C3.57616 19.9968 0.994614 18.7458 0.194071 16.2438C0.0667119 15.8782 0.00404315 15.5046 0.00404315 15.1207L0 15.1248Z" fill="#00C4B3"/>
<path d="M23.1264 0.00203087V8.19253H28.5785L28.5887 0L34.0368 0.0142161L34.0328 20H28.5705L28.5806 11.318H23.1264L23.1203 20.002H17.6641L17.6661 0.00203087H23.1264Z" fill="#00C4B3"/>
<path d="M40.9165 19.1957C39.6894 18.6595 38.713 17.6583 37.9852 16.1961C37.2574 14.7339 36.8936 12.6685 36.8936 10.002C36.8936 7.33542 37.2574 5.27003 37.9852 3.8078C38.713 2.34558 39.6894 1.34436 40.9165 0.808208C42.1436 0.270028 43.6294 0.00195312 45.3741 0.00195312C47.1187 0.00195312 48.5964 0.270028 49.8053 0.808208C51.0143 1.34639 51.9826 2.34558 52.7104 3.8078C53.4361 5.27206 53.802 7.33542 53.802 10.002C53.802 12.6685 53.4381 14.7339 52.7104 16.1961C51.9826 17.6583 51.0143 18.6595 49.8053 19.1957C48.5964 19.7318 47.1187 20.002 45.3741 20.002C43.6294 20.002 42.1436 19.7339 40.9165 19.1957ZM42.839 15.2233C43.3302 16.2976 44.0661 16.8338 45.0466 16.8338C46.027 16.8338 46.8923 16.2773 47.527 15.1665C48.1638 14.0556 48.4812 12.2968 48.4812 9.88822C48.4812 7.47961 48.2407 5.62949 47.7575 4.55516C47.2764 3.48083 46.5526 2.94468 45.5904 2.94468C44.5533 2.94468 43.7123 3.50114 43.0674 4.61203C42.4226 5.72291 42.0991 7.48164 42.0991 9.89025C42.0991 12.2989 42.3437 14.151 42.835 15.2233H42.839Z" fill="#00C4B3"/>
<path d="M56.6866 0.00406174L64.597 0C67.0148 0 68.9353 0.501625 70.3524 1.45207C71.7695 2.40252 72.4791 3.97238 72.4791 6.16369C72.4791 8.355 71.8201 9.88018 70.502 11.0662C69.1839 12.2543 67.3059 12.8473 64.8699 12.8473C63.851 12.8473 62.9332 12.766 62.1165 12.6015L62.1105 20H56.6562L56.6866 0.00406174ZM63.4528 10.3554C64.8335 10.3554 65.7897 9.98578 66.3153 9.24655C66.843 8.50731 67.1058 7.44314 67.1058 6.05402C67.1058 4.74005 66.847 3.78554 66.3295 3.19253C65.812 2.59951 64.8517 2.30301 63.4528 2.30301C63.0889 2.30301 62.7756 2.35378 62.5128 2.45329C62.2499 2.55483 62.1165 2.78635 62.1165 3.15191V9.45166C62.1165 10.0548 62.5613 10.3554 63.4528 10.3554Z" fill="#00C4B3"/>
<path d="M89.5235 0V20H84.0693V0H89.5235Z" fill="#00C4B3"/>
<path d="M91.7169 0.00812348L106.921 0V3.12348H102.037V20.002H96.5828V3.12145L91.7148 3.12957V0.00812348H91.7169Z" fill="#00C4B3"/>
<path d="M78.3584 0.00195312L75.3604 6.66524L74.5154 2.38213L70.9999 0.00195312H78.3584Z" fill="#FF5100"/>
</g>
<defs>
<clipPath id="clip0_3779_21652">
<rect width="125" height="20" fill="white"/>
</clipPath>
</defs>
</svg>
