<svg id="shaaalbaz_icon" xmlns="http://www.w3.org/2000/svg" width="32" height="32" viewBox="0 0 32 32">
  <rect id="Button_Shape" data-name="Button Shape" width="32" height="32" rx="10" fill="#f8efed"/>
  <g id="shaalbaz_inner" transform="translate(4 4)">
    <g id="vuesax_bulk_location" data-name="vuesax/bulk/location">
      <g id="location">
        <path id="Vector" d="M0,0H24V24H0Z" fill="none" opacity="0"/>
        <g id="Group_31634" data-name="Group 31634" transform="translate(-2)">
          <path id="Vector-2" data-name="Vector" d="M6,4V6.42A2.4,2.4,0,0,1,3.42,9H0V2.01A2.012,2.012,0,0,1,2.02,0,3.995,3.995,0,0,1,6,4Z" transform="translate(18 1.709)" fill="#e94e1b"/>
          <path id="Vector-3" data-name="Vector" d="M0,5V19a1,1,0,0,0,1.6.8l1.71-1.28a1.007,1.007,0,0,1,1.32.1l1.66,1.67a1.008,1.008,0,0,0,1.42,0l1.68-1.68a.991.991,0,0,1,1.3-.09L12.4,19.8A1,1,0,0,0,14,19V2a2.006,2.006,0,0,1,2-2H4C1,0,0,1.79,0,4Z" transform="translate(4 1.709)" fill="#e94e1b" opacity="0.4"/>
          <g id="Group" transform="translate(2 -0.291)">
            <path id="Vector-4" data-name="Vector" d="M3.75,0h-3A.755.755,0,0,0,0,.75a.755.755,0,0,0,.75.75h3A.755.755,0,0,0,4.5.75.755.755,0,0,0,3.75,0Z" transform="translate(8.25 12.26)" fill="#e94e1b"/>
            <path id="Vector-5" data-name="Vector" d="M.75,1.5h3A.755.755,0,0,0,4.5.75.755.755,0,0,0,3.75,0h-3A.755.755,0,0,0,0,.75.755.755,0,0,0,.75,1.5Z" transform="translate(8.25 8.26)" fill="#e94e1b"/>
            <path id="Vector-6" data-name="Vector" d="M1,0A1,1,0,1,0,2,1,1,1,0,0,0,1,0Z" transform="translate(4.97 8.01)" fill="#e94e1b"/>
            <path id="Vector-7" data-name="Vector" d="M1,0A1,1,0,1,0,2,1,1,1,0,0,0,1,0Z" transform="translate(4.97 12.01)" fill="#e94e1b"/>
          </g>
        </g>
      </g>
    </g>
  </g>
</svg>
