<svg width="105" height="96" viewBox="0 0 105 96" fill="none" xmlns="http://www.w3.org/2000/svg">
<g id="Isolation_Mode" clip-path="url(#clip0_3055_24110)">
<path id="Vector" d="M28.2948 -11C26.8836 -11 25.5238 -10.5737 24.3656 -9.76421L21.8305 -7.99448C18.7077 -5.81569 17.9313 -1.49687 20.1018 1.63783L47.5891 41.3641C47.8894 41.7947 47.7564 42.1994 47.6535 42.3975C47.5505 42.5999 47.2931 42.9357 46.7698 42.9357H8.89327C5.09275 42.9357 2 46.0403 2 49.8553V52.9556C2 56.7706 5.09275 59.8752 8.89327 59.8752H45.7575C46.2808 59.8752 46.5382 60.211 46.6411 60.4134C46.7441 60.6115 46.877 61.0162 46.5768 61.4468L24.49 93.3622C23.4391 94.8822 23.0401 96.7208 23.3661 98.5379C23.6921 100.359 24.7045 101.94 26.2187 102.994L28.7538 104.764C29.9163 105.574 31.276 106 32.683 106C34.9436 106 37.0626 104.889 38.3495 103.029L64.3054 65.5202L90.2613 103.029C91.5482 104.889 93.6672 106 95.9278 106C97.339 106 98.6988 105.574 99.857 104.764L102.392 102.994C103.906 101.94 104.919 100.359 105.245 98.5379C105.571 96.7165 105.172 94.8778 104.121 93.3622L82.034 61.4468C81.7337 61.0119 81.8667 60.6115 81.9697 60.4134C82.0726 60.211 82.3257 59.8752 82.8533 59.8752H132.179C134.838 59.8752 137 57.705 137 55.0353V47.7713C137 45.1016 134.838 42.9314 132.179 42.9314H81.841C81.3177 42.9314 81.0646 42.5956 80.9573 42.3932C80.8544 42.1951 80.7214 41.7904 81.0217 41.3598L96.8157 18.5643C97.5492 17.5051 97.828 16.2219 97.6007 14.9517C97.3734 13.6814 96.6656 12.5748 95.6104 11.8428L89.6522 7.68762C88.8415 7.12355 87.8935 6.82213 86.9069 6.82213C85.3284 6.82213 83.8528 7.5972 82.952 8.89758L64.3011 35.8267L33.957 -8.02462C32.6701 -9.88477 30.5511 -10.9957 28.2905 -10.9957M28.2905 -8.03323C29.5388 -8.03323 30.7699 -7.43902 31.5334 -6.3324L64.3011 41.0196L85.3755 10.5941C85.7359 10.0731 86.3193 9.79321 86.9069 9.79321C87.2758 9.79321 87.6447 9.90085 87.9664 10.1291L93.9203 14.2843C94.7653 14.8742 94.9755 16.0368 94.3879 16.885L78.5938 39.6848C76.775 42.3114 78.6496 45.9068 81.8324 45.9068H132.17C133.204 45.9068 134.04 46.7465 134.04 47.7842V55.0482C134.04 56.086 133.204 56.9256 132.17 56.9256H82.8447C79.6576 56.9256 77.7874 60.521 79.6061 63.1477L101.693 95.063C102.937 96.8586 102.495 99.3258 100.702 100.575L98.1669 102.34C97.4806 102.818 96.6956 103.046 95.9192 103.046C94.6709 103.046 93.4398 102.452 92.6763 101.345L64.2968 60.3359L35.9173 101.345C35.1495 102.452 33.9227 103.046 32.6744 103.046C31.898 103.046 31.113 102.818 30.4267 102.34L27.8916 100.575C26.1029 99.3258 25.6567 96.8586 26.9007 95.063L48.9875 63.1477C50.8062 60.521 48.9317 56.9256 45.7489 56.9256H8.8847C6.70562 56.9256 4.93833 55.1516 4.93833 52.9642V49.8639C4.93833 47.6765 6.70562 45.9025 8.8847 45.9025H46.7612C49.9483 45.9025 51.8186 42.3071 49.9998 39.6805L22.5125 -0.0457821C21.2686 -1.84134 21.7104 -4.30863 23.5034 -5.55734L26.0385 -7.32276C26.7248 -7.80071 27.5098 -8.03323 28.2862 -8.03323" fill="white"/>
</g>
<defs>
<clipPath id="clip0_3055_24110">
<rect width="105" height="99" fill="white" transform="translate(0 -1.5)"/>
</clipPath>
</defs>
</svg>
