<svg width="25" height="24" viewBox="0 0 25 24" fill="none" xmlns="http://www.w3.org/2000/svg">
    <path d="M18.6143 12.7125C19.1588 13.2713 19.6493 13.887 20.0753 14.5485L20.103 14.595C20.7068 15.8055 21.06 17.232 21.06 18.741C21.06 19.4168 20.9888 20.076 20.8545 20.712L20.8658 20.6505C20.8598 20.6895 20.8568 20.7338 20.8568 20.7795C20.8568 21.297 21.2768 21.717 21.7943 21.717C22.275 21.717 22.6718 21.3548 22.7258 20.8883L22.7265 20.8838C22.8608 20.2328 22.938 19.485 22.938 18.7193C22.938 16.8705 22.4888 15.1268 21.6945 13.5908L21.7238 13.653C21.2025 12.8258 20.6355 12.1065 20.0018 11.4525L20.0055 11.4563C19.5578 10.9868 19.1378 10.4805 18.753 9.94653L18.7238 9.90453C17.979 8.75703 17.5358 7.35303 17.5358 5.84628C17.5358 5.03778 17.6633 4.25928 17.8995 3.52878L17.8845 3.58203C17.9115 3.49878 17.9265 3.40353 17.9265 3.30378C17.9265 2.88528 17.6528 2.53128 17.274 2.41053L17.2673 2.40903C17.1848 2.38202 17.0895 2.36628 16.9905 2.36628C16.9898 2.36628 16.989 2.36628 16.9883 2.36628C16.5698 2.36628 16.2158 2.64078 16.095 3.01878L16.0935 3.02553C15.813 3.87228 15.6518 4.84727 15.6518 5.85978C15.6518 7.75578 16.2188 9.51978 17.1915 10.9905L17.1698 10.956C17.6363 11.6093 18.1095 12.183 18.6203 12.7215L18.6135 12.714L18.6143 12.7125ZM11.523 12.6675C12.186 13.3478 12.783 14.0978 13.3013 14.904L13.335 14.9603C14.076 16.4393 14.5095 18.1838 14.5095 20.0288C14.5095 20.8485 14.424 21.648 14.2613 22.419L14.2748 22.344C14.271 22.3763 14.2688 22.4138 14.2688 22.452C14.2688 22.9695 14.6888 23.3895 15.2063 23.3895C15.6803 23.3895 16.0718 23.0378 16.1348 22.5818L16.1355 22.5765C16.296 21.8033 16.3875 20.9153 16.3875 20.0055C16.3875 17.82 15.858 15.759 14.9205 13.9418L14.955 14.016C14.3348 13.0343 13.6613 12.1815 12.9098 11.4053L12.9135 11.4098C12.372 10.8413 11.8628 10.2278 11.3963 9.58128L11.361 9.52953C10.4483 8.12178 9.9053 6.40128 9.9053 4.55328C9.9053 3.56327 10.0613 2.60928 10.35 1.71528L10.332 1.78053C10.359 1.69728 10.374 1.60203 10.374 1.50228C10.374 1.08378 10.1003 0.729776 9.72155 0.609026L9.7148 0.607525C9.6323 0.580524 9.53705 0.564775 9.4388 0.564775C9.43805 0.564775 9.4373 0.564775 9.43655 0.564775C9.01805 0.564775 8.66405 0.839275 8.5433 1.21728L8.5418 1.22403C8.21105 2.22378 8.02055 3.37428 8.02055 4.56978C8.02055 6.80628 8.68805 8.88603 9.83405 10.6223L9.80855 10.581C10.3628 11.3565 10.9253 12.0368 11.5313 12.6765L11.523 12.6675ZM3.0158 10.8045C3.48155 11.457 3.95555 12.03 4.46555 12.5678L4.4588 12.561C5.0033 13.1205 5.49455 13.737 5.92055 14.3993L5.9483 14.4458C6.54905 15.6623 6.90005 17.0948 6.90005 18.6083C6.90005 19.278 6.83105 19.9313 6.70055 20.5628L6.71105 20.5005C6.70655 20.5358 6.70355 20.5755 6.70355 20.6168C6.70355 21.093 7.05905 21.4868 7.5188 21.5468L7.5233 21.5475C7.55555 21.5513 7.59305 21.5535 7.6313 21.5535C8.1098 21.5535 8.50505 21.1995 8.5703 20.7383L8.57105 20.733C8.70155 20.0888 8.7758 19.3478 8.7758 18.5895C8.7758 16.734 8.32955 14.9835 7.53755 13.4385L7.56755 13.5023C7.04555 12.6743 6.47855 11.9543 5.8448 11.3003L5.84855 11.304C5.4023 10.8353 4.9823 10.329 4.59755 9.79653L4.5683 9.75377C3.82355 8.60628 3.3803 7.20228 3.3803 5.69553C3.3803 4.88703 3.5078 4.10852 3.7433 3.37877L3.7283 3.43203C3.7553 3.34878 3.7703 3.25352 3.7703 3.15378C3.7703 2.73528 3.49655 2.38128 3.1178 2.26052L3.11105 2.25903C3.02855 2.23203 2.9333 2.21628 2.83505 2.21628C2.8343 2.21628 2.83355 2.21628 2.8328 2.21628C2.4143 2.21628 2.0603 2.49078 1.93955 2.86878L1.93805 2.87553C1.6583 3.72227 1.4963 4.69653 1.4963 5.70903C1.4963 7.60503 2.06255 9.36903 3.03605 10.8405L3.0143 10.806L3.0158 10.8045Z" fill="black"/>
    </svg>
    