<svg width="70" height="63" viewBox="0 0 70 63" fill="none" xmlns="http://www.w3.org/2000/svg">
    <path d="M52.3242 62.0783L57.6217 58.3982C57.9458 58.1731 58.2223 57.8862 58.4355 57.5541C58.6486 57.222 58.7942 56.8512 58.8639 56.4628C58.9336 56.0743 58.9261 55.676 58.8418 55.2905C58.7575 54.905 58.598 54.5399 58.3725 54.2161L49.4161 41.3357C49.1756 40.9904 49.0344 40.5857 49.008 40.1657C48.9816 39.7457 49.071 39.3265 49.2664 38.9537C49.4618 38.581 49.7557 38.269 50.1162 38.0518C50.4767 37.8346 50.8898 37.7205 51.3106 37.7219H66.9996C67.3937 37.7223 67.784 37.6449 68.1482 37.4942C68.5123 37.3435 68.8432 37.1225 69.1219 36.8438C69.4006 36.5652 69.6216 36.2343 69.7723 35.8701C69.923 35.5059 70.0003 35.1156 70 34.7215V28.2659C70 27.4702 69.6839 26.707 69.1212 26.1443C68.5585 25.5816 67.7953 25.2655 66.9996 25.2655H51.3106C50.8901 25.2666 50.4774 25.1524 50.1173 24.9353C49.7573 24.7182 49.4636 24.4066 49.2683 24.0343C49.073 23.6619 48.9835 23.2432 49.0095 22.8235C49.0356 22.4039 49.1762 21.9994 49.4161 21.6541L58.3725 8.77846C58.5979 8.45483 58.7573 8.08992 58.8416 7.7046C58.9259 7.31929 58.9335 6.92114 58.8638 6.53292C58.794 6.1447 58.6484 5.77405 58.4353 5.44215C58.2222 5.11025 57.9457 4.82363 57.6217 4.59868L52.3242 0.909111C51.9994 0.68459 51.6336 0.52627 51.2476 0.443198C50.8616 0.360126 50.463 0.353931 50.0746 0.424967C49.6862 0.496003 49.3157 0.642877 48.9841 0.857196C48.6525 1.07152 48.3663 1.34908 48.1421 1.67402L35.0012 20.5884L21.8651 1.67402C21.641 1.34883 21.355 1.07103 21.0234 0.856532C20.6918 0.642034 20.3212 0.495051 19.9327 0.423999C19.5443 0.352948 19.1456 0.359223 18.7595 0.442466C18.3735 0.525708 18.0076 0.684284 17.683 0.909111L12.3854 4.58921C12.0599 4.81402 11.7821 5.10098 11.5679 5.43358C11.3537 5.76617 11.2075 6.13784 11.1375 6.52719C11.0675 6.91653 11.0752 7.31588 11.1601 7.70224C11.245 8.08861 11.4055 8.45436 11.6324 8.77846L20.5816 21.6612C20.8215 22.0065 20.9621 22.411 20.9882 22.8306C21.0142 23.2503 20.9247 23.669 20.7294 24.0414C20.534 24.4137 20.2404 24.7253 19.8803 24.9424C19.5202 25.1595 19.1075 25.2737 18.687 25.2726H3.00044C2.20467 25.2726 1.4415 25.5887 0.878804 26.1514C0.316112 26.7141 0 27.4773 0 28.273V34.731C0 35.5267 0.316112 36.2899 0.878804 36.8526C1.4415 37.4153 2.20467 37.7314 3.00044 37.7314H18.6894C19.1102 37.73 19.5234 37.8441 19.8839 38.0613C20.2443 38.2785 20.5383 38.5905 20.7337 38.9632C20.9291 39.3359 21.0185 39.7551 20.9921 40.1752C20.9657 40.5952 20.8245 40.9999 20.584 41.3452L11.6347 54.2256C11.4094 54.5497 11.2502 54.915 11.1662 55.3007C11.0823 55.6864 11.0752 56.0848 11.1453 56.4733C11.2155 56.8617 11.3615 57.2325 11.5751 57.5644C11.7887 57.8963 12.0657 58.1829 12.3901 58.4077L17.6877 62.0878C18.0114 62.3131 18.3765 62.4724 18.7619 62.5566C19.1473 62.6407 19.5455 62.648 19.9338 62.578C20.322 62.5081 20.6926 62.3623 21.0244 62.1489C21.3562 61.9356 21.6427 61.6589 21.8675 61.3347L35.0036 42.4227L48.1444 61.3347C48.3694 61.659 48.6561 61.9357 48.9881 62.1491C49.3201 62.3625 49.691 62.5083 50.0794 62.5782C50.4678 62.6482 50.8662 62.6409 51.2518 62.5567C51.6374 62.4725 52.0026 62.3132 52.3266 62.0878" fill="#FF5100"/>
    </svg>
    