<svg width="23" height="14" viewBox="0 0 23 14" fill="none" xmlns="http://www.w3.org/2000/svg">
    <g clip-path="url(#clip0_2197_34209)">
    <path d="M15.3491 5.01269C15.3491 5.38435 15.355 5.75547 15.348 6.12659C15.3346 6.85976 15.206 7.57531 14.9654 8.26736C14.2408 10.3521 12.8677 11.8622 10.8692 12.8073C10.2485 13.101 9.59201 13.2885 8.91458 13.4011C8.31754 13.501 7.71407 13.5224 7.11328 13.4764C5.61211 13.3622 4.25296 12.8559 3.05353 11.9466C1.75655 10.9635 0.858847 9.69525 0.360957 8.14882C0.22322 7.72162 0.128359 7.28482 0.0726208 6.83894C0.0281377 6.4833 0.00455627 6.12659 0.00348439 5.76829C0.00134062 5.17662 -0.00133909 4.58496 0.00455627 3.9933C0.00777192 3.63927 0.04368 3.28683 0.156764 2.94828C0.569974 1.70942 1.41462 0.924459 2.68266 0.592851C3.0471 0.497266 3.42172 0.481247 3.79259 0.518626C4.66189 0.6062 5.40256 0.967178 6.00174 1.6053C6.47015 2.10404 6.7617 2.69357 6.87693 3.36426C6.91552 3.58854 6.92785 3.81922 6.93106 4.0467C6.93857 4.65118 6.94017 5.25565 6.93106 5.86013C6.92624 6.17679 7.17438 6.50626 7.50613 6.58583C7.96597 6.69636 8.42902 6.35087 8.43277 5.87882C8.43759 5.24818 8.42366 4.61754 8.43652 3.98743C8.46493 2.58517 9.10055 1.54175 10.3413 0.87373C10.6902 0.685765 11.0685 0.578967 11.4646 0.533044C12.4036 0.42411 13.2557 0.645182 14.005 1.21815C14.6985 1.74894 15.1288 2.449 15.2971 3.30712C15.3389 3.52019 15.3528 3.73432 15.3528 3.95005C15.3528 4.30408 15.3528 4.65812 15.3528 5.01216H15.3491V5.01269ZM9.93073 4.91978C9.93073 5.21347 9.93287 5.50716 9.92966 5.80086C9.92805 5.92581 9.92108 6.05077 9.90554 6.17465C9.84498 6.6483 9.64561 7.06054 9.31171 7.39909C8.727 7.99182 8.01688 8.20916 7.19903 8.04148C6.19254 7.83536 5.4524 6.93505 5.439 5.92741C5.43096 5.27968 5.44061 4.63195 5.43364 3.98422C5.43203 3.81762 5.41596 3.64621 5.37523 3.48494C5.13834 2.54619 4.26475 1.88084 3.21217 2.00899C2.66283 2.07574 2.21746 2.34701 1.88571 2.79182C1.62685 3.13892 1.50198 3.533 1.4993 3.9634C1.49608 4.53797 1.4993 5.11201 1.49769 5.68658C1.49662 5.98028 1.51109 6.27237 1.54432 6.56447C1.5829 6.90782 1.6499 7.24477 1.74851 7.57531C2.11777 8.8163 2.80914 9.84477 3.82099 10.6548C4.90413 11.521 6.14859 11.9642 7.534 12.009C7.81001 12.0176 8.08762 11.9887 8.36363 11.9674C8.77524 11.9353 9.17451 11.8414 9.56682 11.7148C10.6124 11.3784 11.5053 10.8043 12.2465 9.99749C12.8521 9.33801 13.2916 8.58295 13.5682 7.73337C13.7686 7.11715 13.8613 6.48437 13.8667 5.83877C13.8715 5.2343 13.8704 4.62982 13.8656 4.02481C13.8645 3.87476 13.8495 3.7231 13.8222 3.57572C13.626 2.50507 12.5172 1.73826 11.3537 2.06987C10.5095 2.3107 9.93662 3.07377 9.93126 3.94791C9.92965 4.27204 9.93126 4.59564 9.93126 4.91978" fill="#FF5100"/>
    <path d="M2.72613 5.75493C2.72613 5.53759 2.72238 5.36885 2.72667 5.20065C2.73792 4.79908 3.06485 4.48403 3.4668 4.48243C3.86018 4.48083 4.19408 4.79481 4.20694 5.18676C4.21444 5.39822 4.20801 5.60968 4.21069 5.82168C4.21766 6.39999 4.33717 6.9516 4.6164 7.46209C5.12018 8.38536 5.88658 8.97222 6.91237 9.22159C7.28271 9.31184 7.66001 9.33587 8.03463 9.29101C9.18262 9.15324 10.0648 8.58988 10.6682 7.6052C10.9148 7.20311 11.0675 6.7647 11.1163 6.29426C11.1367 6.10202 11.1474 5.90765 11.1543 5.71434C11.1608 5.54186 11.1565 5.36885 11.157 5.19637C11.1581 4.82205 11.4797 4.53423 11.7991 4.49418C12.282 4.4333 12.6491 4.83059 12.6416 5.20385C12.6346 5.54507 12.6534 5.88736 12.6314 6.22697C12.5976 6.74121 12.4813 7.24049 12.2804 7.71734C11.7814 8.9028 10.9491 9.77427 9.78663 10.3307C9.35091 10.5389 8.89107 10.6698 8.41247 10.7429C8.03678 10.8001 7.65947 10.8123 7.28432 10.7819C6.24995 10.6965 5.32491 10.327 4.52475 9.66534C3.66617 8.95566 3.10772 8.05696 2.84726 6.9767C2.7465 6.55912 2.71059 6.13459 2.72613 5.75439" fill="#FF5100"/>
    <path d="M21.4205 6.0754L21.8927 5.7486C22.0138 5.66423 22.0438 5.49816 21.9597 5.37747L21.1622 4.23367C21.0679 4.09857 21.1649 3.91274 21.3305 3.91274H22.7287C22.8761 3.91274 22.9962 3.79366 22.9962 3.64628V3.07277C22.9962 2.92539 22.8767 2.80631 22.7287 2.80631H21.3305C21.1649 2.80631 21.0679 2.62101 21.1622 2.48538L21.9597 1.34157C22.0443 1.22036 22.0138 1.05429 21.8927 0.970449L21.4205 0.643647C21.2988 0.559276 21.1322 0.589714 21.048 0.710396L19.877 2.3898L18.706 0.710396C18.6218 0.58918 18.4546 0.559276 18.3335 0.643647L17.8613 0.970449C17.7397 1.05482 17.7096 1.22089 17.7943 1.34157L18.5918 2.48538C18.6861 2.62048 18.5891 2.80631 18.4235 2.80631H17.0252C16.8779 2.80631 16.7578 2.92539 16.7578 3.07277V3.64628C16.7578 3.79312 16.8773 3.91274 17.0252 3.91274H18.4235C18.5891 3.91274 18.6861 4.09803 18.5918 4.23367L17.7943 5.37747C17.7096 5.49869 17.7402 5.66476 17.8613 5.7486L18.3335 6.0754C18.4551 6.15977 18.6218 6.12933 18.706 6.00865L19.877 4.32925L21.048 6.00865C21.1327 6.12933 21.2994 6.15977 21.4205 6.0754Z" fill="#FF5100"/>
    </g>
    <defs>
    <clipPath id="clip0_2197_34209">
    <rect width="22.9962" height="13" fill="white" transform="translate(0 0.5)"/>
    </clipPath>
    </defs>
    </svg>
    