<svg width="13" height="12" viewBox="0 0 13 12" fill="none" xmlns="http://www.w3.org/2000/svg">
    <path d="M9.7165 11.8962L10.7004 11.1868C10.9528 11.0036 11.0154 10.6431 10.84 10.3811L9.17818 7.89789C8.98162 7.60459 9.18376 7.20117 9.52887 7.20117H12.4427C12.7498 7.20117 13 6.94265 13 6.62269V5.37763C13 5.05767 12.7509 4.79915 12.4427 4.79915H9.52887C9.18376 4.79915 8.98162 4.39688 9.17818 4.10242L10.84 1.61926C11.0165 1.3561 10.9528 0.995567 10.7004 0.813561L9.7165 0.104084C9.46297 -0.0790811 9.11564 -0.0130024 8.94029 0.248994L6.5 3.89491L4.05971 0.248994C3.88437 -0.0141616 3.53591 -0.0790811 3.2835 0.104084L2.29957 0.813561C2.04605 0.996726 1.9835 1.35726 2.15997 1.61926L3.82182 4.10242C4.01838 4.39572 3.81624 4.79915 3.47114 4.79915H0.557305C0.250174 4.79915 0 5.05767 0 5.37763V6.62269C0 6.94149 0.249057 7.20117 0.557305 7.20117H3.47114C3.81624 7.20117 4.01838 7.60344 3.82182 7.89789L2.15997 10.3811C1.9835 10.6442 2.04716 11.0047 2.29957 11.1868L3.2835 11.8962C3.53703 12.0794 3.88437 12.0133 4.05971 11.7513L6.5 8.1054L8.94029 11.7513C9.11675 12.0133 9.46409 12.0794 9.7165 11.8962Z" fill="#FF5100"/>
    </svg>
    