<svg width="28" height="28" viewBox="0 0 28 28" fill="none" xmlns="http://www.w3.org/2000/svg">
<g id="vuesax/bulk/money-add">
<g id="money-add">
<path id="Vector" opacity="0.4" d="M25.6666 10.5V17.5C25.6666 21.5833 23.3333 23.3333 19.8333 23.3333H9.85833C10.2667 22.645 10.5 21.8516 10.5 21C10.5 18.4216 8.41165 16.3333 5.83331 16.3333C4.43331 16.3333 3.18498 16.9516 2.33331 17.9199V10.5C2.33331 6.41663 4.66665 4.66663 8.16665 4.66663H19.8333C23.3333 4.66663 25.6666 6.41663 25.6666 10.5Z" fill="#00C4B3"/>
<path id="Vector_2" d="M14 16.9167C15.6108 16.9167 16.9166 15.6109 16.9166 14C16.9166 12.3892 15.6108 11.0834 14 11.0834C12.3891 11.0834 11.0833 12.3892 11.0833 14C11.0833 15.6109 12.3891 16.9167 14 16.9167Z" fill="#00C4B3"/>
<g id="Group">
<path id="Vector_3" d="M21.5833 17.2083C21.105 17.2083 20.7083 16.8116 20.7083 16.3333V11.6666C20.7083 11.1883 21.105 10.7916 21.5833 10.7916C22.0616 10.7916 22.4583 11.1883 22.4583 11.6666V16.3333C22.4583 16.8116 22.0616 17.2083 21.5833 17.2083Z" fill="#00C4B3"/>
</g>
<path id="Vector_4" d="M5.83335 16.3334C3.25502 16.3334 1.16669 18.4217 1.16669 21C1.16669 21.875 1.41167 22.7034 1.84334 23.4034C2.64834 24.7567 4.13002 25.6667 5.83335 25.6667C7.53669 25.6667 9.01837 24.7567 9.82337 23.4034C10.255 22.7034 10.5 21.875 10.5 21C10.5 18.4217 8.41169 16.3334 5.83335 16.3334ZM7.57168 21.8517H6.70835V22.7617C6.70835 23.2401 6.31169 23.6367 5.83335 23.6367C5.35502 23.6367 4.95835 23.2401 4.95835 22.7617V21.8517H4.09503C3.6167 21.8517 3.22003 21.455 3.22003 20.9767C3.22003 20.4984 3.6167 20.1017 4.09503 20.1017H4.95835V19.2734C4.95835 18.7951 5.35502 18.3984 5.83335 18.3984C6.31169 18.3984 6.70835 18.7951 6.70835 19.2734V20.1017H7.57168C8.05001 20.1017 8.44668 20.4984 8.44668 20.9767C8.44668 21.455 8.06168 21.8517 7.57168 21.8517Z" fill="#00C4B3"/>
</g>
</g>
</svg>
