<svg width="28" height="28" viewBox="0 0 28 28" fill="none" xmlns="http://www.w3.org/2000/svg">
<g id="arrange-circle-2">
<g id="vuesax/bulk/arrange-circle-2">
<g id="arrange-circle-2_2">
<path id="Vector" opacity="0.4" d="M14 25.6667C20.4433 25.6667 25.6666 20.4434 25.6666 14C25.6666 7.55672 20.4433 2.33337 14 2.33337C7.55666 2.33337 2.33331 7.55672 2.33331 14C2.33331 20.4434 7.55666 25.6667 14 25.6667Z" fill="#6DAF3E"/>
<path id="Vector_2" d="M20.825 15.785C20.7317 15.575 20.5683 15.4 20.3467 15.3067C20.2417 15.26 20.125 15.2367 20.0083 15.2367H7.97998C7.50165 15.2367 7.10498 15.6334 7.10498 16.1117C7.10498 16.59 7.50165 16.9867 7.97998 16.9867H17.8966L15.8433 19.04C15.505 19.3784 15.505 19.9384 15.8433 20.2767C16.0183 20.4517 16.24 20.5334 16.4616 20.5334C16.6833 20.5334 16.905 20.4517 17.08 20.2767L20.6266 16.73C20.7083 16.6484 20.7666 16.555 20.8133 16.45C20.9066 16.24 20.9067 15.995 20.825 15.785Z" fill="#6DAF3E"/>
<path id="Vector_3" d="M20.0083 11.0016H10.0916L12.145 8.94834C12.4833 8.61 12.4833 8.04997 12.145 7.71164C11.8067 7.3733 11.2467 7.3733 10.9083 7.71164L7.36165 11.2583C7.27998 11.34 7.22165 11.4333 7.17498 11.5383C7.08165 11.7483 7.08165 11.9933 7.17498 12.2033C7.26831 12.4133 7.43165 12.5883 7.65332 12.6816C7.75832 12.7283 7.87499 12.7516 7.99166 12.7516H20.02C20.4983 12.7516 20.895 12.355 20.895 11.8766C20.895 11.3983 20.4983 11.0016 20.0083 11.0016Z" fill="#6DAF3E"/>
</g>
</g>
</g>
</svg>
