<svg width="13" height="13" viewBox="0 0 13 13" fill="none" xmlns="http://www.w3.org/2000/svg">
<path d="M6.05625 8.55625C6.02937 8.58595 6.00433 8.61726 5.98125 8.65C5.9576 8.68484 5.93868 8.72267 5.925 8.7625C5.90698 8.79793 5.89434 8.83585 5.8875 8.875C5.88443 8.91661 5.88443 8.95839 5.8875 9C5.88539 9.08199 5.90251 9.16333 5.9375 9.2375C5.96557 9.31506 6.01036 9.3855 6.06868 9.44382C6.12701 9.50215 6.19744 9.54693 6.275 9.575C6.34982 9.60807 6.43071 9.62515 6.5125 9.62515C6.5943 9.62515 6.67519 9.60807 6.75 9.575C6.82756 9.54693 6.898 9.50215 6.95632 9.44382C7.01465 9.3855 7.05943 9.31506 7.0875 9.2375C7.11526 9.16151 7.12799 9.08085 7.125 9C7.12548 8.91775 7.10971 8.83621 7.07861 8.76006C7.04751 8.68391 7.00168 8.61465 6.94375 8.55625C6.88565 8.49767 6.81652 8.45117 6.74036 8.41944C6.6642 8.38771 6.58251 8.37138 6.5 8.37138C6.41749 8.37138 6.3358 8.38771 6.25964 8.41944C6.18348 8.45117 6.11435 8.49767 6.05625 8.55625ZM6.5 0.25C5.26387 0.25 4.0555 0.616556 3.02769 1.30332C1.99988 1.99007 1.1988 2.96619 0.725756 4.10823C0.252708 5.25027 0.128937 6.50693 0.370095 7.71932C0.611252 8.9317 1.20651 10.0453 2.08059 10.9194C2.95466 11.7935 4.06831 12.3888 5.28069 12.6299C6.49307 12.8711 7.74974 12.7473 8.89177 12.2742C10.0338 11.8012 11.0099 11.0001 11.6967 9.97231C12.3834 8.94451 12.75 7.73613 12.75 6.5C12.75 5.67924 12.5883 4.86651 12.2742 4.10823C11.9602 3.34994 11.4998 2.66095 10.9194 2.08058C10.3391 1.50022 9.65006 1.03984 8.89177 0.725753C8.13349 0.411661 7.32076 0.25 6.5 0.25ZM6.5 11.5C5.5111 11.5 4.5444 11.2068 3.72215 10.6573C2.89991 10.1079 2.25904 9.32705 1.88061 8.41342C1.50217 7.49979 1.40315 6.49445 1.59608 5.52455C1.789 4.55464 2.26521 3.66373 2.96447 2.96447C3.66373 2.2652 4.55465 1.789 5.52455 1.59607C6.49446 1.40315 7.49979 1.50216 8.41342 1.8806C9.32705 2.25904 10.1079 2.8999 10.6573 3.72215C11.2068 4.54439 11.5 5.51109 11.5 6.5C11.5 7.82608 10.9732 9.09785 10.0355 10.0355C9.09785 10.9732 7.82608 11.5 6.5 11.5ZM6.5 3.375C6.17067 3.37479 5.84709 3.46133 5.56182 3.6259C5.27656 3.79048 5.03967 4.02729 4.875 4.3125C4.82978 4.38364 4.79942 4.46318 4.78574 4.54636C4.77206 4.62954 4.77534 4.71462 4.7954 4.79649C4.81545 4.87836 4.85186 4.95534 4.90243 5.02277C4.953 5.09021 5.01669 5.14672 5.08967 5.1889C5.16265 5.23109 5.24341 5.25807 5.32709 5.26824C5.41076 5.2784 5.49563 5.27153 5.57659 5.24805C5.65754 5.22456 5.73291 5.18494 5.79816 5.13158C5.8634 5.07821 5.91718 5.01219 5.95625 4.9375C6.01132 4.84212 6.09061 4.76299 6.18609 4.70811C6.28158 4.65323 6.38987 4.62456 6.5 4.625C6.66576 4.625 6.82473 4.69085 6.94194 4.80806C7.05915 4.92527 7.125 5.08424 7.125 5.25C7.125 5.41576 7.05915 5.57473 6.94194 5.69194C6.82473 5.80915 6.66576 5.875 6.5 5.875C6.33424 5.875 6.17527 5.94085 6.05806 6.05806C5.94085 6.17527 5.875 6.33424 5.875 6.5V7.125C5.875 7.29076 5.94085 7.44973 6.05806 7.56694C6.17527 7.68415 6.33424 7.75 6.5 7.75C6.66576 7.75 6.82473 7.68415 6.94194 7.56694C7.05915 7.44973 7.125 7.29076 7.125 7.125V7.0125C7.53836 6.86251 7.88585 6.57202 8.10673 6.19179C8.32762 5.81157 8.40784 5.36581 8.33338 4.93243C8.25891 4.49906 8.0345 4.10564 7.69937 3.82095C7.36424 3.53626 6.93972 3.37841 6.5 3.375Z" fill="#1D1F1F"/>
</svg>
