<svg width="12" height="12" viewBox="0 0 12 12" fill="none" xmlns="http://www.w3.org/2000/svg">
<path d="M1.73492 11.2858H6.46748C6.8692 11.2858 7.20235 10.9527 7.20235 10.5511C7.20235 10.1494 6.8692 9.81638 6.46748 9.81638H3.50841L11.0727 2.25393C11.3568 1.96985 11.3568 1.49964 11.0727 1.21556C10.9257 1.06862 10.7395 1.00005 10.5533 1.00005C10.3672 1.00005 10.181 1.06862 10.034 1.21556L2.46979 8.77801V5.81964C2.46979 5.41801 2.13665 5.08495 1.73492 5.08495C1.33319 5.08495 1.00005 5.41801 1.00005 5.81964V10.5511C1.00005 10.9527 1.33319 11.2858 1.73492 11.2858Z" fill="#00C4B3" stroke="#00C4B3" stroke-width="0.5"/>
</svg>
