<svg width="27" height="27" viewBox="0 0 27 27" fill="none" xmlns="http://www.w3.org/2000/svg">
<circle cx="15.25" cy="15.25" r="13.25" fill="#E6F9F7" stroke="white" stroke-width="3"/>
<path d="M10.7348 20.2857H15.4674C15.8691 20.2857 16.2022 19.9526 16.2022 19.551C16.2022 19.1494 15.8691 18.8163 15.4674 18.8163H12.5083L20.0725 11.2539C20.3567 10.9698 20.3567 10.4996 20.0725 10.2155C19.9256 10.0686 19.7394 9.99999 19.5532 9.99999C19.3671 9.99999 19.1809 10.0686 19.0339 10.2155L11.4697 17.778V14.8196C11.4697 14.418 11.1365 14.0849 10.7348 14.0849C10.3331 14.0849 9.99993 14.418 9.99993 14.8196V19.551C9.99993 19.9526 10.3331 20.2857 10.7348 20.2857Z" fill="#00C4B3" stroke="#00C4B3" stroke-width="0.5"/>
</svg>
