<svg id="newcard_cont" xmlns="http://www.w3.org/2000/svg" width="40" height="40" viewBox="0 0 40 40">
  <circle id="Ellipse_1102" data-name="Ellipse 1102" cx="20" cy="20" r="20" fill="#fff"/>
  <g id="newcard_inner" transform="translate(8 8)">
    <g id="vuesax_bulk_card-add" data-name="vuesax/bulk/card-add">
      <g id="card-add">
        <path id="Vector" d="M20,4.37V5.6H0V4.14A4.144,4.144,0,0,1,4.15,0H14V2.57A1.866,1.866,0,0,0,16.03,4.6h2.94A2.09,2.09,0,0,0,20,4.37Z" transform="translate(2 3.4)" fill="#fd9f13" opacity="0.4"/>
        <path id="Vector-2" data-name="Vector" d="M0,0V7.46A4.144,4.144,0,0,0,4.15,11.6h11.7A4.144,4.144,0,0,0,20,7.46V0ZM6,8.25H4a.75.75,0,0,1,0-1.5H6a.75.75,0,0,1,0,1.5Zm6.5,0h-4a.75.75,0,0,1,0-1.5h4a.75.75,0,0,1,0,1.5Z" transform="translate(2 9)" fill="#fd9f13"/>
        <path id="Vector-3" data-name="Vector" d="M4.97,0H2.03A1.866,1.866,0,0,0,0,2.03V4.97A1.866,1.866,0,0,0,2.03,7H4.97A1.866,1.866,0,0,0,7,4.97V2.03A1.866,1.866,0,0,0,4.97,0Zm.94,3.93a.647.647,0,0,1-.41.18H4.09L4.1,5.5a.632.632,0,0,1-.19.43.59.59,0,0,1-.41.17.6.6,0,0,1-.6-.6V4.1l-1.4.01A.61.61,0,0,1,.9,3.5a.6.6,0,0,1,.6-.6l1.4.01V1.51a.6.6,0,1,1,1.2,0L4.09,2.9H5.5a.6.6,0,0,1,.6.6A.681.681,0,0,1,5.91,3.93Z" transform="translate(16 1)" fill="#fd9f13"/>
        <path id="Vector-4" data-name="Vector" d="M0,0H24V24H0Z" fill="none" opacity="0"/>
      </g>
    </g>
  </g>
</svg>
