<svg width="30" height="30" viewBox="0 0 30 30" fill="none" xmlns="http://www.w3.org/2000/svg">
<path d="M11.2375 26.8749C9.16248 26.8749 7.07498 26.0874 5.48748 24.4999C2.32498 21.3249 2.32498 16.1749 5.48748 13.0124C5.84998 12.6499 6.44998 12.6499 6.81248 13.0124C7.17498 13.3749 7.17498 13.9749 6.81248 14.3374C4.37498 16.7749 4.37498 20.7374 6.81248 23.1749C9.24998 25.6124 13.2125 25.6124 15.65 23.1749C16.825 21.9999 17.475 20.4249 17.475 18.7499C17.475 17.0874 16.825 15.5124 15.65 14.3249C15.2875 13.9624 15.2875 13.3624 15.65 12.9999C16.0125 12.6374 16.6125 12.6374 16.975 12.9999C18.5125 14.5374 19.35 16.5749 19.35 18.7499C19.35 20.9249 18.5 22.9624 16.975 24.4999C15.4 26.0874 13.325 26.8749 11.2375 26.8749Z" fill="#B6B8B8"/>
<path d="M23.8375 17.6998C23.6 17.6998 23.3625 17.6123 23.175 17.4248C22.8125 17.0623 22.8125 16.4623 23.175 16.0998C25.7375 13.5373 25.7375 9.3748 23.175 6.8248C20.6125 4.2623 16.45 4.2623 13.9 6.8248C12.6625 8.0623 11.975 9.71231 11.975 11.4623C11.975 13.2123 12.6625 14.8623 13.9 16.0998C14.2625 16.4623 14.2625 17.0623 13.9 17.4248C13.5375 17.7873 12.9375 17.7873 12.575 17.4248C10.9875 15.8373 10.1 13.7123 10.1 11.4623C10.1 9.21231 10.975 7.0873 12.575 5.4998C15.8625 2.2123 21.2125 2.2123 24.5125 5.4998C27.8 8.7873 27.8 14.1498 24.5125 17.4373C24.325 17.6123 24.075 17.6998 23.8375 17.6998Z" fill="#B6B8B8"/>
</svg>
