<svg width="52" height="12" viewBox="0 0 52 12" fill="none" xmlns="http://www.w3.org/2000/svg">
<g clip-path="url(#clip0_3507_1317)">
<path d="M0.404785 11.2941V0.352251H2.71568V9.40602H7.58231V11.2941H0.404785ZM13.8187 11.5292C12.727 11.5292 11.7833 11.2992 10.9875 10.8392C10.1916 10.3741 9.57697 9.71435 9.14331 8.86009C8.71484 8.00576 8.50057 6.99472 8.50057 5.82697V5.81181C8.50057 4.64407 8.71741 3.63557 9.151 2.78631C9.58459 1.93199 10.1993 1.27482 10.9951 0.8148C11.796 0.349724 12.7372 0.117188 13.8187 0.117188C14.9104 0.117188 15.8541 0.349724 16.6499 0.8148C17.4457 1.27482 18.0579 1.93199 18.4864 2.78631C18.92 3.63557 19.1368 4.64407 19.1368 5.81181V5.82697C19.1368 6.99472 18.92 8.00576 18.4864 8.86009C18.0579 9.70934 17.4457 10.3665 16.6499 10.8316C15.8541 11.2967 14.9104 11.5292 13.8187 11.5292ZM13.8187 9.588C14.4257 9.588 14.9512 9.43384 15.395 9.12544C15.8388 8.81711 16.1806 8.38235 16.4204 7.82125C16.6601 7.25506 16.78 6.5903 16.78 5.82697V5.81181C16.78 5.04343 16.6576 4.37867 16.4127 3.81755C16.1729 3.25643 15.8311 2.82422 15.3874 2.52091C14.9435 2.21255 14.4207 2.05837 13.8187 2.05837C13.2218 2.05837 12.699 2.21255 12.2501 2.52091C11.8062 2.82422 11.4619 3.25643 11.217 3.81755C10.9773 4.37867 10.8574 5.04343 10.8574 5.81181V5.82697C10.8574 6.5903 10.9773 7.25506 11.217 7.82125C11.4619 8.38235 11.8062 8.81711 12.2501 9.12544C12.6938 9.43384 13.2168 9.588 13.8187 9.588ZM19.7336 11.2941L23.5826 0.352251H25.5874V2.50574H24.8987L22.167 11.2941H19.7336ZM21.7997 8.64014L22.3659 6.92647H27.4928L28.059 8.64014H21.7997ZM27.7146 11.2941L24.9829 2.50574V0.352251H26.299L30.148 11.2941H27.7146ZM31.6401 11.2941V0.352251H33.6144L39.4681 8.54915L37.6852 7.40421H38.7411V0.352251H40.9985V11.2941H39.0319L33.1705 3.05928L34.9534 4.21186H33.8974V11.2941H31.6401ZM47.2348 11.5292C46.3574 11.5292 45.5922 11.4003 44.9393 11.1425C44.2914 10.8846 43.7812 10.5156 43.4089 10.0354C43.0415 9.55518 42.835 8.98645 42.789 8.32927L42.7814 8.20793H44.9851L45.0004 8.28381C45.0413 8.56179 45.1611 8.80447 45.3601 9.01172C45.5642 9.21896 45.8294 9.38075 46.1559 9.49701C46.4875 9.60826 46.865 9.66381 47.2884 9.66381C47.7118 9.66381 48.0791 9.60572 48.3903 9.48946C48.7015 9.36812 48.9413 9.20132 49.1096 8.98899C49.283 8.77666 49.3697 8.53151 49.3697 8.25346V8.24584C49.3697 7.88188 49.2218 7.59374 48.9259 7.38141C48.6352 7.16908 48.1479 6.99219 47.4644 6.85065L46.2937 6.62316C45.1816 6.39568 44.3551 6.0216 43.8144 5.50092C43.2787 4.97519 43.011 4.30032 43.011 3.47633V3.46875C43.016 2.79642 43.1972 2.21002 43.5543 1.70956C43.9164 1.2091 44.4138 0.819854 45.0464 0.54182C45.6841 0.258731 46.4084 0.117188 47.2196 0.117188C48.0766 0.117188 48.8137 0.253676 49.431 0.526654C50.0482 0.794576 50.5303 1.16866 50.8772 1.6489C51.2241 2.12408 51.4179 2.67509 51.4587 3.30193L51.4664 3.42325H49.2932L49.2779 3.33226C49.2371 3.05423 49.1274 2.81663 48.9489 2.61949C48.7703 2.41728 48.5331 2.26057 48.2373 2.14935C47.9465 2.03814 47.6072 1.98253 47.2196 1.98253C46.837 1.98253 46.5028 2.03814 46.2171 2.14935C45.9315 2.26057 45.7096 2.41728 45.5514 2.61949C45.3983 2.81663 45.3218 3.04917 45.3218 3.3171V3.32468C45.3218 3.67348 45.4672 3.95657 45.758 4.17395C46.0539 4.39132 46.5232 4.56319 47.166 4.68956L48.3291 4.92463C49.1096 5.08134 49.7447 5.29366 50.2344 5.56158C50.7292 5.8295 51.094 6.16567 51.3286 6.57009C51.5633 6.97449 51.6807 7.46231 51.6807 8.03358V8.04113C51.6807 8.75393 51.5021 9.37066 51.145 9.89132C50.793 10.412 50.2829 10.8164 49.6146 11.1045C48.9514 11.3876 48.1582 11.5292 47.2348 11.5292Z" fill="#FF5100"/>
</g>
<defs>
<clipPath id="clip0_3507_1317">
<rect width="52" height="12" fill="white"/>
</clipPath>
</defs>
</svg>
