<svg width="54" height="54" viewBox="0 0 54 54" fill="none" xmlns="http://www.w3.org/2000/svg">
<rect width="54" height="54" rx="12" fill="#FF5100" fill-opacity="0.1"/>
<path opacity="0.4" d="M37.775 22.5625C36.4625 16.7875 31.425 14.1875 27 14.1875C27 14.1875 27 14.1875 26.9875 14.1875C22.575 14.1875 17.525 16.775 16.2125 22.55C14.75 29 18.7 34.4625 22.275 37.9C23.6 39.175 25.3 39.8125 27 39.8125C28.7 39.8125 30.4 39.175 31.7125 37.9C35.2875 34.4625 39.2375 29.0125 37.775 22.5625Z" fill="#FF5100"/>
<path d="M27 28.825C29.1746 28.825 30.9375 27.0621 30.9375 24.8875C30.9375 22.7129 29.1746 20.95 27 20.95C24.8254 20.95 23.0625 22.7129 23.0625 24.8875C23.0625 27.0621 24.8254 28.825 27 28.825Z" fill="#FF5100"/>
</svg>
