<svg width="25" height="24" viewBox="0 0 25 24" fill="none" xmlns="http://www.w3.org/2000/svg">
<path d="M12.5001 17.35C13.4003 17.35 14.1301 16.6202 14.1301 15.72C14.1301 14.8197 13.4003 14.09 12.5001 14.09C11.5999 14.09 10.8701 14.8197 10.8701 15.72C10.8701 16.6202 11.5999 17.35 12.5001 17.35Z" fill="white"/>
<path d="M17.15 9.43994H7.85C3.75 9.43994 2.5 10.6899 2.5 14.7899V16.6499C2.5 20.7499 3.75 21.9999 7.85 21.9999H17.15C21.25 21.9999 22.5 20.7499 22.5 16.6499V14.7899C22.5 10.6899 21.25 9.43994 17.15 9.43994ZM12.5 18.7399C10.83 18.7399 9.48 17.3799 9.48 15.7199C9.48 14.0599 10.83 12.6999 12.5 12.6999C14.17 12.6999 15.52 14.0599 15.52 15.7199C15.52 17.3799 14.17 18.7399 12.5 18.7399Z" fill="white"/>
<path d="M7.62021 9.45V8.28C7.62021 5.35 8.45021 3.4 12.5002 3.4C16.5502 3.4 17.3802 5.35 17.3802 8.28V9.45C17.8902 9.46 18.3502 9.48 18.7802 9.54V8.28C18.7802 5.58 18.1302 2 12.5002 2C6.87021 2 6.22021 5.58 6.22021 8.28V9.53C6.64021 9.48 7.11021 9.45 7.62021 9.45Z" fill="white"/>
</svg>
