<svg width="24" height="25" viewBox="0 0 24 25" fill="none" xmlns="http://www.w3.org/2000/svg">
<path d="M12 22.5C17.5228 22.5 22 18.0228 22 12.5C22 6.97715 17.5228 2.5 12 2.5C6.47715 2.5 2 6.97715 2 12.5C2 18.0228 6.47715 22.5 12 22.5Z" fill="#B6B8B8"/>
<path d="M12.3296 17.4999C12.1496 17.5599 11.8396 17.5599 11.6596 17.4999C10.0996 16.9699 6.59961 14.7399 6.59961 10.9599C6.59961 9.28993 7.93961 7.93994 9.59961 7.93994C10.5796 7.93994 11.4496 8.40993 11.9996 9.14993C12.5396 8.41993 13.4196 7.93994 14.3996 7.93994C16.0596 7.93994 17.3996 9.28993 17.3996 10.9599C17.3996 14.7399 13.8996 16.9699 12.3296 17.4999Z" fill="#1D1F1F"/>
</svg>
