<svg width="54" height="54" viewBox="0 0 54 54" fill="none" xmlns="http://www.w3.org/2000/svg">
<rect width="54" height="54" rx="12" fill="#FF5100" fill-opacity="0.1"/>
<path d="M39.5 21.4375C39.5 22.2625 38.825 22.9375 38 22.9375H16C15.175 22.9375 14.5 22.2625 14.5 21.4375V21.425C14.5 18.5625 16.8125 16.25 19.675 16.25H34.3125C37.175 16.25 39.5 18.575 39.5 21.4375Z" fill="#FF5100"/>
<path d="M14.5 26.3125V32.575C14.5 35.4375 16.8125 37.75 19.675 37.75H34.3125C37.175 37.75 39.5 35.425 39.5 32.5625V26.3125C39.5 25.4875 38.825 24.8125 38 24.8125H16C15.175 24.8125 14.5 25.4875 14.5 26.3125ZM22 33.5625H19.5C18.9875 33.5625 18.5625 33.1375 18.5625 32.625C18.5625 32.1125 18.9875 31.6875 19.5 31.6875H22C22.5125 31.6875 22.9375 32.1125 22.9375 32.625C22.9375 33.1375 22.5125 33.5625 22 33.5625ZM30.125 33.5625H25.125C24.6125 33.5625 24.1875 33.1375 24.1875 32.625C24.1875 32.1125 24.6125 31.6875 25.125 31.6875H30.125C30.6375 31.6875 31.0625 32.1125 31.0625 32.625C31.0625 33.1375 30.6375 33.5625 30.125 33.5625Z" fill="#FF5100"/>
</svg>
