<svg width="32" height="32" viewBox="0 0 32 32" fill="none" xmlns="http://www.w3.org/2000/svg">
<path opacity="0.4" d="M29.3337 11.9999V19.9999C29.3337 24.6666 26.667 26.6666 22.667 26.6666H12.987C13.2136 26.0399 13.3337 25.3733 13.3337 24.6666C13.3337 21.3599 10.6537 18.6666 7.33366 18.6666C5.45366 18.6666 3.76033 19.5466 2.66699 20.9066V11.9999C2.66699 7.33325 5.33366 5.33325 9.33366 5.33325H22.667C26.667 5.33325 29.3337 7.33325 29.3337 11.9999Z" fill="#8347AD"/>
<path d="M16.0003 19.3334C17.8413 19.3334 19.3337 17.841 19.3337 16.0001C19.3337 14.1591 17.8413 12.6667 16.0003 12.6667C14.1594 12.6667 12.667 14.1591 12.667 16.0001C12.667 17.841 14.1594 19.3334 16.0003 19.3334Z" fill="#8347AD"/>
<path d="M24.667 19.6666C24.1203 19.6666 23.667 19.2133 23.667 18.6666V13.3333C23.667 12.7866 24.1203 12.3333 24.667 12.3333C25.2137 12.3333 25.667 12.7866 25.667 13.3333V18.6666C25.667 19.2133 25.2137 19.6666 24.667 19.6666Z" fill="#8347AD"/>
<path d="M7.33301 18.6667C5.45301 18.6667 3.75967 19.5467 2.66634 20.9067C1.82634 21.9334 1.33301 23.2401 1.33301 24.6667C1.33301 27.9867 4.02634 30.6667 7.33301 30.6667C9.94634 30.6667 12.173 29.0001 12.9863 26.6667C13.213 26.0401 13.333 25.3734 13.333 24.6667C13.333 21.3601 10.653 18.6667 7.33301 18.6667ZM10.8796 27.2801C10.8396 27.3601 10.7863 27.4534 10.7196 27.5201L9.63965 28.5868C9.50632 28.7334 9.31964 28.8 9.13298 28.8C8.93298 28.8 8.74637 28.7334 8.61304 28.5868C8.37304 28.3601 8.34633 28.0001 8.493 27.7334H5.47966C4.51965 27.7334 3.73299 26.9467 3.73299 25.9734V25.8267C3.73299 25.4134 4.06631 25.0934 4.46631 25.0934C4.86631 25.0934 5.19971 25.4134 5.19971 25.8267V25.9734C5.19971 26.1334 5.31966 26.2668 5.47966 26.2668H8.493C8.34633 25.9868 8.37304 25.6401 8.61304 25.4001C8.89304 25.1201 9.35965 25.1201 9.63965 25.4001L10.7196 26.4801C10.7863 26.5467 10.8396 26.6267 10.8796 26.7201C10.9463 26.8934 10.9463 27.0934 10.8796 27.2801ZM10.933 23.5068C10.933 23.9201 10.5997 24.2401 10.1997 24.2401C9.79971 24.2401 9.46631 23.9201 9.46631 23.5068V23.3601C9.46631 23.2001 9.34636 23.0667 9.18636 23.0667H6.17301C6.31968 23.3467 6.29298 23.6934 6.05298 23.9334C5.91965 24.0668 5.73304 24.1467 5.53304 24.1467C5.34637 24.1467 5.1597 24.0668 5.02637 23.9334L3.94637 22.8534C3.8797 22.7868 3.82638 22.7068 3.78638 22.6134C3.71971 22.4401 3.71971 22.2401 3.78638 22.0534C3.82638 21.9734 3.8797 21.8801 3.94637 21.8134L5.02637 20.7467C5.30637 20.4534 5.77298 20.4534 6.05298 20.7467C6.29298 20.9734 6.31968 21.3334 6.17301 21.6001H9.18636C10.1464 21.6001 10.933 22.3868 10.933 23.3601V23.5068Z" fill="#8347AD"/>
</svg>
