<svg width="32" height="32" viewBox="0 0 32 32" fill="none" xmlns="http://www.w3.org/2000/svg">
<path opacity="0.4" d="M29.3337 11.9999V19.9999C29.3337 24.6666 26.667 26.6666 22.667 26.6666H11.267C11.7337 25.8799 12.0003 24.9733 12.0003 23.9999C12.0003 21.0533 9.61366 18.6666 6.66699 18.6666C5.06699 18.6666 3.64033 19.3732 2.66699 20.4799V11.9999C2.66699 7.33325 5.33366 5.33325 9.33366 5.33325H22.667C26.667 5.33325 29.3337 7.33325 29.3337 11.9999Z" fill="#FF5100"/>
<path d="M16.0003 19.3334C17.8413 19.3334 19.3337 17.841 19.3337 16.0001C19.3337 14.1591 17.8413 12.6667 16.0003 12.6667C14.1594 12.6667 12.667 14.1591 12.667 16.0001C12.667 17.841 14.1594 19.3334 16.0003 19.3334Z" fill="#FF5100"/>
<path d="M24.667 19.6666C24.1203 19.6666 23.667 19.2133 23.667 18.6666V13.3333C23.667 12.7866 24.1203 12.3333 24.667 12.3333C25.2137 12.3333 25.667 12.7866 25.667 13.3333V18.6666C25.667 19.2133 25.2137 19.6666 24.667 19.6666Z" fill="#FF5100"/>
<path d="M6.66634 18.6667C3.71967 18.6667 1.33301 21.0534 1.33301 24.0001C1.33301 25.0001 1.61299 25.9467 2.10632 26.7467C3.02632 28.2934 4.71967 29.3334 6.66634 29.3334C8.61301 29.3334 10.3064 28.2934 11.2264 26.7467C11.7197 25.9467 11.9997 25.0001 11.9997 24.0001C11.9997 21.0534 9.61301 18.6667 6.66634 18.6667ZM8.653 24.9734H7.66634V26.0134C7.66634 26.5601 7.21301 27.0134 6.66634 27.0134C6.11967 27.0134 5.66634 26.5601 5.66634 26.0134V24.9734H4.67969C4.13302 24.9734 3.67969 24.5201 3.67969 23.9734C3.67969 23.4267 4.13302 22.9734 4.67969 22.9734H5.66634V22.0268C5.66634 21.4801 6.11967 21.0268 6.66634 21.0268C7.21301 21.0268 7.66634 21.4801 7.66634 22.0268V22.9734H8.653C9.19966 22.9734 9.653 23.4267 9.653 23.9734C9.653 24.5201 9.213 24.9734 8.653 24.9734Z" fill="#FF5100"/>
</svg>
