<svg width="54" height="54" viewBox="0 0 54 54" fill="none" xmlns="http://www.w3.org/2000/svg">
<rect width="54" height="54" rx="12" fill="#00AEFF" fill-opacity="0.1"/>
<g opacity="0.5">
<path opacity="0.4" d="M38.25 20.75V33.25C38.25 37 36.375 39.5 32 39.5H22C17.625 39.5 15.75 37 15.75 33.25V20.75C15.75 17 17.625 14.5 22 14.5H32C36.375 14.5 38.25 17 38.25 20.75Z" fill="#007AB3"/>
<path d="M31.375 14.5V24.325C31.375 24.875 30.725 25.15 30.325 24.7875L27.425 22.1125C27.1875 21.8875 26.8125 21.8875 26.575 22.1125L23.675 24.7875C23.275 25.1625 22.625 24.875 22.625 24.325V14.5H31.375Z" fill="#007AB3"/>
<path d="M33.875 30.4375H28.5625C28.05 30.4375 27.625 30.0125 27.625 29.5C27.625 28.9875 28.05 28.5625 28.5625 28.5625H33.875C34.3875 28.5625 34.8125 28.9875 34.8125 29.5C34.8125 30.0125 34.3875 30.4375 33.875 30.4375Z" fill="#007AB3"/>
<path d="M33.875 35.4375H23.25C22.7375 35.4375 22.3125 35.0125 22.3125 34.5C22.3125 33.9875 22.7375 33.5625 23.25 33.5625H33.875C34.3875 33.5625 34.8125 33.9875 34.8125 34.5C34.8125 35.0125 34.3875 35.4375 33.875 35.4375Z" fill="#007AB3"/>
</g>
</svg>
