<svg width="162" height="128" viewBox="0 0 162 128" fill="none" xmlns="http://www.w3.org/2000/svg">
<path d="M79.6355 127.522C92.2515 127.547 104.591 123.828 115.093 116.837C125.595 109.846 133.787 99.8965 138.632 88.2479C143.477 76.5993 144.758 63.7752 142.312 51.3986C139.865 39.0219 133.803 27.6491 124.891 18.7195C115.978 9.78981 104.617 3.70474 92.2457 1.23435C79.8738 -1.23603 67.0472 0.0193343 55.3891 4.84156C43.7311 9.66378 33.7656 17.8361 26.7539 28.3242C19.7422 38.8124 15.9995 51.1449 15.9995 63.7609C15.9867 72.1272 17.6231 80.4139 20.8151 88.1474C24.007 95.8808 28.6919 102.909 34.602 108.831C40.512 114.753 47.5313 119.451 55.2585 122.658C62.9857 125.866 71.2692 127.518 79.6355 127.522Z" fill="#DFE5E5"/>
<path d="M6.42729 37.6986C7.14961 37.6976 7.85543 37.4825 8.45552 37.0804C9.05562 36.6784 9.52306 36.1075 9.79875 35.4398C10.0744 34.7722 10.146 34.0378 10.0044 33.3295C9.86281 32.6212 9.51441 31.9707 9.00323 31.4604C8.49205 30.9501 7.84104 30.6027 7.1325 30.4623C6.42396 30.3219 5.68969 30.3946 5.0225 30.6714C4.35531 30.9482 3.78515 31.4166 3.3841 32.0173C2.98304 32.6181 2.76909 33.3243 2.76929 34.0466C2.77455 35.0146 3.16183 35.9413 3.84687 36.6252C4.53191 37.3091 5.4593 37.6949 6.42729 37.6986Z" fill="#DFE5E5"/>
<path d="M2.76929 25.8474C3.26254 25.8464 3.74443 25.6993 4.15407 25.4245C4.56371 25.1497 4.88273 24.7597 5.0708 24.3038C5.25887 23.8478 5.30757 23.3463 5.21074 22.8626C5.1139 22.379 4.87588 21.9349 4.52675 21.5864C4.17762 21.238 3.73305 21.0009 3.2492 20.905C2.76536 20.8091 2.26395 20.8588 1.80834 21.0478C1.35273 21.2368 0.963362 21.5566 0.689428 21.9668C0.415495 22.377 0.26929 22.8592 0.269289 23.3524C0.268892 23.6806 0.333323 24.0056 0.458881 24.3088C0.584439 24.6121 0.768651 24.8875 1.00094 25.1193C1.23323 25.3511 1.50903 25.5348 1.81249 25.6597C2.11595 25.7847 2.44111 25.8485 2.76929 25.8474Z" fill="#DFE5E5"/>
<path d="M157.102 54.9145C158.018 54.9135 158.914 54.6407 159.675 54.1307C160.437 53.6207 161.03 52.8964 161.38 52.0492C161.73 51.2021 161.82 50.2702 161.641 49.3715C161.461 48.4728 161.019 47.6476 160.37 47.0002C159.721 46.3528 158.895 45.9124 157.996 45.7346C157.097 45.5567 156.165 45.6495 155.319 46.0011C154.472 46.3528 153.749 46.9475 153.241 47.7101C152.733 48.4727 152.462 49.369 152.463 50.2855C152.459 50.8953 152.576 51.4998 152.808 52.0638C153.04 52.6278 153.382 53.1401 153.813 53.5709C154.245 54.0016 154.758 54.3422 155.323 54.5729C155.887 54.8035 156.492 54.9197 157.102 54.9145Z" fill="#DFE5E5"/>
<g filter="url(#filter0_d_969_24776)">
<path d="M51.5286 50.0098H143.016C143.915 50.0098 144.777 50.3668 145.412 51.0022C146.048 51.6377 146.405 52.4995 146.405 53.3982V70.3403C146.405 71.239 146.048 72.1009 145.412 72.7363C144.777 73.3718 143.915 73.7288 143.016 73.7288H51.5286C50.6299 73.7288 49.768 73.3718 49.1326 72.7363C48.4971 72.1009 48.1401 71.239 48.1401 70.3403V53.3982C48.1401 52.4995 48.4971 51.6377 49.1326 51.0022C49.768 50.3668 50.6299 50.0098 51.5286 50.0098V50.0098Z" fill="white"/>
</g>
<g filter="url(#filter1_d_969_24776)">
<path d="M143.016 50.0098H51.5286C49.6572 50.0098 48.1401 51.5268 48.1401 53.3982V70.3403C48.1401 72.2117 49.6572 73.7288 51.5286 73.7288H143.016C144.888 73.7288 146.405 72.2117 146.405 70.3403V53.3982C146.405 51.5268 144.888 50.0098 143.016 50.0098Z" fill="white"/>
</g>
<path d="M100.322 55.4307H82.7025C81.5797 55.4307 80.6694 56.3409 80.6694 57.4637C80.6694 58.5865 81.5797 59.4968 82.7025 59.4968H100.322C101.445 59.4968 102.355 58.5865 102.355 57.4637C102.355 56.3409 101.445 55.4307 100.322 55.4307Z" fill="#DFE5E5"/>
<path d="M112.521 64.2402H82.7025C81.5797 64.2402 80.6694 65.1505 80.6694 66.2733C80.6694 67.3961 81.5797 68.3064 82.7025 68.3064H112.521C113.643 68.3064 114.554 67.3961 114.554 66.2733C114.554 65.1505 113.643 64.2402 112.521 64.2402Z" fill="#DFE5E5"/>
<path d="M68.8097 68.3057C72.3653 68.3057 75.2477 65.4233 75.2477 61.8677C75.2477 58.3121 72.3653 55.4297 68.8097 55.4297C65.2541 55.4297 62.3717 58.3121 62.3717 61.8677C62.3717 65.4233 65.2541 68.3057 68.8097 68.3057Z" fill="#DFE5E5"/>
<g filter="url(#filter2_d_969_24776)">
<path d="M22.3882 79.1494H113.876C114.774 79.1494 115.636 79.5064 116.272 80.1419C116.907 80.7773 117.264 81.6392 117.264 82.5378V99.48C117.264 100.379 116.907 101.241 116.272 101.876C115.636 102.511 114.774 102.868 113.876 102.868H22.3882C21.4895 102.868 20.6277 102.511 19.9922 101.876C19.3568 101.241 18.9998 100.379 18.9998 99.48V82.5378C18.9998 81.6392 19.3568 80.7773 19.9922 80.1419C20.6277 79.5064 21.4895 79.1494 22.3882 79.1494V79.1494Z" fill="white"/>
</g>
<path d="M72.5364 84.5703H54.9166C53.7938 84.5703 52.8835 85.4805 52.8835 86.6034C52.8835 87.7262 53.7938 88.6364 54.9166 88.6364H72.5364C73.6593 88.6364 74.5695 87.7262 74.5695 86.6034C74.5695 85.4805 73.6593 84.5703 72.5364 84.5703Z" fill="#B4DAFF"/>
<path d="M84.7348 93.3799H54.9166C53.7938 93.3799 52.8835 94.2901 52.8835 95.4129C52.8835 96.5358 53.7938 97.446 54.9166 97.446H84.7348C85.8576 97.446 86.7678 96.5358 86.7678 95.4129C86.7678 94.2901 85.8576 93.3799 84.7348 93.3799Z" fill="#DEE9FC"/>
<g filter="url(#filter3_d_969_24776)">
<path d="M113.876 79.1494H22.3882C20.5168 79.1494 18.9998 80.6665 18.9998 82.5378V99.48C18.9998 101.351 20.5168 102.868 22.3882 102.868H113.876C115.747 102.868 117.264 101.351 117.264 99.48V82.5378C117.264 80.6665 115.747 79.1494 113.876 79.1494Z" fill="white"/>
</g>
<path d="M71.1812 84.5703H53.5614C52.4386 84.5703 51.5283 85.4805 51.5283 86.6034C51.5283 87.7262 52.4386 88.6364 53.5614 88.6364H71.1812C72.304 88.6364 73.2143 87.7262 73.2143 86.6034C73.2143 85.4805 72.304 84.5703 71.1812 84.5703Z" fill="#DFE5E5"/>
<path d="M83.3796 93.3799H53.5614C52.4386 93.3799 51.5283 94.2901 51.5283 95.4129C51.5283 96.5358 52.4386 97.446 53.5614 97.446H83.3796C84.5024 97.446 85.4126 96.5358 85.4126 95.4129C85.4126 94.2901 84.5024 93.3799 83.3796 93.3799Z" fill="#DFE5E5"/>
<path d="M39.6687 97.4463C43.2243 97.4463 46.1067 94.5639 46.1067 91.0083C46.1067 87.4527 43.2243 84.5703 39.6687 84.5703C36.1131 84.5703 33.2307 87.4527 33.2307 91.0083C33.2307 94.5639 36.1131 97.4463 39.6687 97.4463Z" fill="#DFE5E5"/>
<g filter="url(#filter4_d_969_24776)">
<path d="M113.876 20.8691H22.3882C20.5168 20.8691 18.9998 22.3862 18.9998 24.2576V41.1997C18.9998 43.0711 20.5168 44.5881 22.3882 44.5881H113.876C115.747 44.5881 117.264 43.0711 117.264 41.1997V24.2576C117.264 22.3862 115.747 20.8691 113.876 20.8691Z" fill="white"/>
</g>
<path d="M71.1812 26.29H53.5614C52.4386 26.29 51.5283 27.2003 51.5283 28.3231C51.5283 29.4459 52.4386 30.3562 53.5614 30.3562H71.1812C72.304 30.3562 73.2143 29.4459 73.2143 28.3231C73.2143 27.2003 72.304 26.29 71.1812 26.29Z" fill="#DFE5E5"/>
<path d="M83.3796 35.0996H53.5614C52.4386 35.0996 51.5283 36.0098 51.5283 37.1327C51.5283 38.2555 52.4386 39.1657 53.5614 39.1657H83.3796C84.5024 39.1657 85.4126 38.2555 85.4126 37.1327C85.4126 36.0098 84.5024 35.0996 83.3796 35.0996Z" fill="#DFE5E5"/>
<path d="M39.6687 39.1661C43.2243 39.1661 46.1067 36.2837 46.1067 32.7281C46.1067 29.1724 43.2243 26.29 39.6687 26.29C36.1131 26.29 33.2307 29.1724 33.2307 32.7281C33.2307 36.2837 36.1131 39.1661 39.6687 39.1661Z" fill="#DFE5E5"/>
<defs>
<filter id="filter0_d_969_24776" x="42.1401" y="47.0098" width="110.264" height="35.7188" filterUnits="userSpaceOnUse" color-interpolation-filters="sRGB">
<feFlood flood-opacity="0" result="BackgroundImageFix"/>
<feColorMatrix in="SourceAlpha" type="matrix" values="0 0 0 0 0 0 0 0 0 0 0 0 0 0 0 0 0 0 127 0" result="hardAlpha"/>
<feOffset dy="3"/>
<feGaussianBlur stdDeviation="3"/>
<feColorMatrix type="matrix" values="0 0 0 0 0 0 0 0 0 0 0 0 0 0 0 0 0 0 0.05 0"/>
<feBlend mode="normal" in2="BackgroundImageFix" result="effect1_dropShadow_969_24776"/>
<feBlend mode="normal" in="SourceGraphic" in2="effect1_dropShadow_969_24776" result="shape"/>
</filter>
<filter id="filter1_d_969_24776" x="42.1401" y="47.0098" width="110.264" height="35.7188" filterUnits="userSpaceOnUse" color-interpolation-filters="sRGB">
<feFlood flood-opacity="0" result="BackgroundImageFix"/>
<feColorMatrix in="SourceAlpha" type="matrix" values="0 0 0 0 0 0 0 0 0 0 0 0 0 0 0 0 0 0 127 0" result="hardAlpha"/>
<feOffset dy="3"/>
<feGaussianBlur stdDeviation="3"/>
<feColorMatrix type="matrix" values="0 0 0 0 0 0 0 0 0 0 0 0 0 0 0 0 0 0 0.161 0"/>
<feBlend mode="normal" in2="BackgroundImageFix" result="effect1_dropShadow_969_24776"/>
<feBlend mode="normal" in="SourceGraphic" in2="effect1_dropShadow_969_24776" result="shape"/>
</filter>
<filter id="filter2_d_969_24776" x="12.9998" y="76.1494" width="110.264" height="35.7188" filterUnits="userSpaceOnUse" color-interpolation-filters="sRGB">
<feFlood flood-opacity="0" result="BackgroundImageFix"/>
<feColorMatrix in="SourceAlpha" type="matrix" values="0 0 0 0 0 0 0 0 0 0 0 0 0 0 0 0 0 0 127 0" result="hardAlpha"/>
<feOffset dy="3"/>
<feGaussianBlur stdDeviation="3"/>
<feColorMatrix type="matrix" values="0 0 0 0 0 0 0 0 0 0 0 0 0 0 0 0 0 0 0.161 0"/>
<feBlend mode="normal" in2="BackgroundImageFix" result="effect1_dropShadow_969_24776"/>
<feBlend mode="normal" in="SourceGraphic" in2="effect1_dropShadow_969_24776" result="shape"/>
</filter>
<filter id="filter3_d_969_24776" x="12.9998" y="76.1494" width="110.264" height="35.7188" filterUnits="userSpaceOnUse" color-interpolation-filters="sRGB">
<feFlood flood-opacity="0" result="BackgroundImageFix"/>
<feColorMatrix in="SourceAlpha" type="matrix" values="0 0 0 0 0 0 0 0 0 0 0 0 0 0 0 0 0 0 127 0" result="hardAlpha"/>
<feOffset dy="3"/>
<feGaussianBlur stdDeviation="3"/>
<feColorMatrix type="matrix" values="0 0 0 0 0 0 0 0 0 0 0 0 0 0 0 0 0 0 0.05 0"/>
<feBlend mode="normal" in2="BackgroundImageFix" result="effect1_dropShadow_969_24776"/>
<feBlend mode="normal" in="SourceGraphic" in2="effect1_dropShadow_969_24776" result="shape"/>
</filter>
<filter id="filter4_d_969_24776" x="12.9998" y="17.8691" width="110.264" height="35.7188" filterUnits="userSpaceOnUse" color-interpolation-filters="sRGB">
<feFlood flood-opacity="0" result="BackgroundImageFix"/>
<feColorMatrix in="SourceAlpha" type="matrix" values="0 0 0 0 0 0 0 0 0 0 0 0 0 0 0 0 0 0 127 0" result="hardAlpha"/>
<feOffset dy="3"/>
<feGaussianBlur stdDeviation="3"/>
<feColorMatrix type="matrix" values="0 0 0 0 0 0 0 0 0 0 0 0 0 0 0 0 0 0 0.05 0"/>
<feBlend mode="normal" in2="BackgroundImageFix" result="effect1_dropShadow_969_24776"/>
<feBlend mode="normal" in="SourceGraphic" in2="effect1_dropShadow_969_24776" result="shape"/>
</filter>
</defs>
</svg>
