<svg width="54" height="54" viewBox="0 0 54 54" fill="none" xmlns="http://www.w3.org/2000/svg">
<rect width="54" height="54" rx="12" fill="#00C4B3" fill-opacity="0.1"/>
<path opacity="0.4" d="M16.9875 30.3249L15.0875 28.425C14.3125 27.65 14.3125 26.375 15.0875 25.6L16.9875 23.6999C17.3125 23.3749 17.575 22.7374 17.575 22.2874V19.6C17.575 18.5 18.475 17.5999 19.575 17.5999H22.2625C22.7125 17.5999 23.35 17.3375 23.675 17.0125L25.575 15.1124C26.35 14.3374 27.625 14.3374 28.4 15.1124L30.3 17.0125C30.625 17.3375 31.2625 17.5999 31.7125 17.5999H34.4C35.5 17.5999 36.4 18.5 36.4 19.6V22.2874C36.4 22.7374 36.6625 23.3749 36.9875 23.6999L38.8875 25.6C39.6625 26.375 39.6625 27.65 38.8875 28.425L36.9875 30.3249C36.6625 30.6499 36.4 31.2874 36.4 31.7374V34.425C36.4 35.525 35.5 36.4249 34.4 36.4249H31.7125C31.2625 36.4249 30.625 36.6875 30.3 37.0125L28.4 38.9125C27.625 39.6875 26.35 39.6875 25.575 38.9125L23.675 37.0125C23.35 36.6875 22.7125 36.4249 22.2625 36.4249H19.575C18.475 36.4249 17.575 35.525 17.575 34.425V31.7374C17.575 31.2749 17.3125 30.6374 16.9875 30.3249Z" fill="#00C4B3"/>
<path d="M30.7501 32C30.0501 32 29.4875 31.4375 29.4875 30.75C29.4875 30.0625 30.05 29.5 30.7375 29.5C31.425 29.5 31.9875 30.0625 31.9875 30.75C31.9875 31.4375 31.4376 32 30.7501 32Z" fill="#00C4B3"/>
<path d="M23.2625 24.5C22.5625 24.5 22 23.9375 22 23.25C22 22.5625 22.5625 22 23.25 22C23.9375 22 24.5 22.5625 24.5 23.25C24.5 23.9375 23.95 24.5 23.2625 24.5Z" fill="#00C4B3"/>
<path d="M23.25 31.6875C23.0125 31.6875 22.775 31.6 22.5875 31.4125C22.225 31.05 22.225 30.4499 22.5875 30.0874L30.0875 22.5874C30.45 22.2249 31.05 22.2249 31.4125 22.5874C31.775 22.9499 31.775 23.55 31.4125 23.9125L23.9125 31.4125C23.725 31.6 23.4875 31.6875 23.25 31.6875Z" fill="#00C4B3"/>
</svg>
