<svg width="27" height="27" viewBox="0 0 27 27" fill="none" xmlns="http://www.w3.org/2000/svg">
<circle cx="15.25" cy="15.25" r="13.25" fill="#FFE3D6" stroke="white" stroke-width="3"/>
<path d="M19.5508 10H14.8183C14.4166 10 14.0834 10.3331 14.0834 10.7347C14.0834 11.1363 14.4166 11.4694 14.8183 11.4694H17.7774L10.2131 19.0318C9.92896 19.3159 9.92896 19.7861 10.2131 20.0702C10.3601 20.2171 10.5463 20.2857 10.7324 20.2857C10.9186 20.2857 11.1048 20.2171 11.2517 20.0702L18.816 12.5078V15.4661C18.816 15.8678 19.1491 16.2008 19.5508 16.2008C19.9526 16.2008 20.2857 15.8678 20.2857 15.4661V10.7347C20.2857 10.3331 19.9526 10 19.5508 10Z" fill="#FF5100" stroke="#FF5100" stroke-width="0.5"/>
</svg>
