<svg width="12" height="12" viewBox="0 0 12 12" fill="none" xmlns="http://www.w3.org/2000/svg">
<path d="M10.5508 1H5.81829C5.41656 1 5.08342 1.33306 5.08342 1.73469C5.08342 2.13633 5.41656 2.46939 5.81829 2.46939H8.77736L1.21311 10.0318C0.928963 10.3159 0.928963 10.7861 1.21311 11.0702C1.36009 11.2171 1.54625 11.2857 1.73242 11.2857C1.91859 11.2857 2.10475 11.2171 2.25173 11.0702L9.81598 3.50776V6.46612C9.81598 6.86775 10.1491 7.20082 10.5508 7.20082C10.9526 7.20082 11.2857 6.86775 11.2857 6.46612V1.73469C11.2857 1.33306 10.9526 1 10.5508 1Z" fill="#FF5100" stroke="#FF5100" stroke-width="0.5"/>
</svg>
