<svg width="54" height="54" viewBox="0 0 54 54" fill="none" xmlns="http://www.w3.org/2000/svg">
<rect width="54" height="54" rx="12" fill="#6ED259" fill-opacity="0.15"/>
<path opacity="0.4" d="M37 20.8V33.2C37 35.1 36.825 36.45 36.375 37.4125C36.375 37.425 36.3625 37.45 36.35 37.4625C36.075 37.8125 35.7125 37.9875 35.2875 37.9875C34.625 37.9875 33.825 37.55 32.9625 36.625C31.9375 35.525 30.3625 35.6125 29.4625 36.8125L28.2 38.4875C27.7 39.1625 27.0375 39.5 26.375 39.5C25.7125 39.5 25.05 39.1625 24.55 38.4875L23.275 36.8C22.3875 35.6125 20.825 35.525 19.8 36.6125L19.7875 36.625C18.375 38.1375 17.125 38.3625 16.4 37.4625C16.3875 37.45 16.375 37.425 16.375 37.4125C15.925 36.45 15.75 35.1 15.75 33.2V20.8C15.75 18.9 15.925 17.55 16.375 16.5875C16.375 16.575 16.375 16.5625 16.4 16.55C17.1125 15.6375 18.375 15.8625 19.7875 17.375L19.8 17.3875C20.825 18.475 22.3875 18.3875 23.275 17.2L24.55 15.5125C25.05 14.8375 25.7125 14.5 26.375 14.5C27.0375 14.5 27.7 14.8375 28.2 15.5125L29.4625 17.1875C30.3625 18.3875 31.9375 18.475 32.9625 17.375C33.825 16.45 34.625 16.0125 35.2875 16.0125C35.7125 16.0125 36.075 16.2 36.35 16.55C36.375 16.5625 36.375 16.575 36.375 16.5875C36.825 17.55 37 18.9 37 20.8Z" fill="#23BD00"/>
<path d="M32 25.75H22C21.4875 25.75 21.0625 25.325 21.0625 24.8125C21.0625 24.3 21.4875 23.875 22 23.875H32C32.5125 23.875 32.9375 24.3 32.9375 24.8125C32.9375 25.325 32.5125 25.75 32 25.75Z" fill="#23BD00"/>
<path d="M29.5 30.125H22C21.4875 30.125 21.0625 29.7 21.0625 29.1875C21.0625 28.675 21.4875 28.25 22 28.25H29.5C30.0125 28.25 30.4375 28.675 30.4375 29.1875C30.4375 29.7 30.0125 30.125 29.5 30.125Z" fill="#23BD00"/>
</svg>
