<svg width="54" height="54" viewBox="0 0 54 54" fill="none" xmlns="http://www.w3.org/2000/svg">
<rect width="54" height="54" rx="12" fill="#EEAC00" fill-opacity="0.1"/>
<path d="M35.3625 26.4125C34.65 26.225 33.8125 26.125 32.8125 26.125C31.425 26.125 30.9125 26.4625 30.2 27C30.1625 27.025 30.125 27.0625 30.0875 27.1L28.9 28.3625C27.9125 29.425 26.1 29.425 25.1 28.3625L23.9125 27.1125C23.875 27.0625 23.8375 27.025 23.8 27C23.075 26.4625 22.5625 26.125 21.1875 26.125C20.1875 26.125 19.35 26.2125 18.6375 26.4125C15.6625 27.2125 15.6625 29.575 15.6625 31.65V32.8125C15.6625 35.95 15.6625 39.5 22.35 39.5H31.65C36.0875 39.5 38.3375 37.25 38.3375 32.8125V31.65C38.3375 29.575 38.3375 27.2125 35.3625 26.4125Z" fill="#EEAC00"/>
<path opacity="0.4" d="M30.4875 14.5H23.5125C17.9875 14.5 17.9875 17.4375 17.9875 20.025V27.2625C17.9875 27.5375 18.1125 27.7875 18.325 27.95C18.5375 28.1125 18.825 28.175 19.0875 28.1C19.65 27.95 20.35 27.875 21.1875 27.875C22.025 27.875 22.2 27.975 22.7 28.35L23.8375 29.55C24.65 30.425 25.8125 30.925 27.0125 30.925C28.2125 30.925 29.3625 30.425 30.1875 29.55L31.325 28.35C31.825 27.975 32 27.875 32.8375 27.875C33.675 27.875 34.375 27.95 34.9375 28.1C35.2 28.175 35.475 28.1125 35.7 27.95C35.9125 27.7875 36.0375 27.525 36.0375 27.2625V20.025C36.0125 17.4375 36.0125 14.5 30.4875 14.5Z" fill="#EEAC00"/>
<path d="M28.9375 24.3875H25.0625C24.575 24.3875 24.1875 24 24.1875 23.5125C24.1875 23.025 24.575 22.6375 25.0625 22.6375H28.9375C29.425 22.6375 29.8125 23.025 29.8125 23.5125C29.8125 23.9875 29.4125 24.3875 28.9375 24.3875Z" fill="#EEAC00"/>
<path d="M29.9125 20.9H24.0875C23.6 20.9 23.2125 20.5125 23.2125 20.025C23.2125 19.5375 23.6 19.15 24.0875 19.15H29.9C30.3875 19.15 30.775 19.5375 30.775 20.025C30.775 20.5 30.3875 20.9 29.9125 20.9Z" fill="#EEAC00"/>
</svg>
