<svg width="20" height="20" viewBox="0 0 20 20" fill="none" xmlns="http://www.w3.org/2000/svg">
<path opacity="0.4" d="M15.0001 2.5H5.00008C3.15841 2.5 1.66675 3.98333 1.66675 5.80833V14.1917C1.66675 16.0167 3.15841 17.5 5.00008 17.5H15.0001C16.8417 17.5 18.3334 16.0167 18.3334 14.1917V5.80833C18.3334 3.98333 16.8417 2.5 15.0001 2.5Z" fill="#1D1F1F"/>
<path d="M15.8334 7.29163H11.6667C11.3251 7.29163 11.0417 7.00829 11.0417 6.66663C11.0417 6.32496 11.3251 6.04163 11.6667 6.04163H15.8334C16.1751 6.04163 16.4584 6.32496 16.4584 6.66663C16.4584 7.00829 16.1751 7.29163 15.8334 7.29163Z" fill="#1D1F1F"/>
<path d="M15.8333 10.625H12.5C12.1583 10.625 11.875 10.3417 11.875 10C11.875 9.65833 12.1583 9.375 12.5 9.375H15.8333C16.175 9.375 16.4583 9.65833 16.4583 10C16.4583 10.3417 16.175 10.625 15.8333 10.625Z" fill="#B6B8B8"/>
<path d="M15.8334 13.9584H14.1667C13.8251 13.9584 13.5417 13.675 13.5417 13.3334C13.5417 12.9917 13.8251 12.7084 14.1667 12.7084H15.8334C16.1751 12.7084 16.4584 12.9917 16.4584 13.3334C16.4584 13.675 16.1751 13.9584 15.8334 13.9584Z" fill="#1D1F1F"/>
<path d="M7.08345 9.82498C8.1466 9.82498 9.00845 8.96312 9.00845 7.89998C9.00845 6.83683 8.1466 5.97498 7.08345 5.97498C6.0203 5.97498 5.15845 6.83683 5.15845 7.89998C5.15845 8.96312 6.0203 9.82498 7.08345 9.82498Z" fill="#1D1F1F"/>
<path d="M7.75002 10.925C7.30835 10.8834 6.85002 10.8834 6.40835 10.925C5.00835 11.0584 3.88335 12.1667 3.75002 13.5667C3.74169 13.6834 3.77502 13.8 3.85835 13.8834C3.94169 13.9667 4.05002 14.025 4.16669 14.025H10C10.1167 14.025 10.2334 13.975 10.3084 13.8917C10.3834 13.8084 10.425 13.6917 10.4167 13.575C10.275 12.1667 9.15835 11.0584 7.75002 10.925Z" fill="#292D32"/>
</svg>
