<svg width="54" height="54" viewBox="0 0 54 54" fill="none" xmlns="http://www.w3.org/2000/svg">
<rect width="54" height="54" rx="12" fill="#6C28FF" fill-opacity="0.15"/>
<path opacity="0.4" d="M36.05 18.975H35.55L31.325 14.75C30.9875 14.4125 30.4375 14.4125 30.0875 14.75C29.75 15.0875 29.75 15.6375 30.0875 15.9875L33.075 18.975H20.925L23.9125 15.9875C24.25 15.65 24.25 15.1 23.9125 14.75C23.575 14.4125 23.025 14.4125 22.675 14.75L18.4625 18.975H17.9625C16.8375 18.975 14.5 18.975 14.5 22.175C14.5 23.3875 14.75 24.1875 15.275 24.7125C15.575 25.025 15.9375 25.1875 16.325 25.275C16.6875 25.3625 17.075 25.375 17.45 25.375H36.55C36.9375 25.375 37.3 25.35 37.65 25.275C38.7 25.025 39.5 24.275 39.5 22.175C39.5 18.975 37.1625 18.975 36.05 18.975Z" fill="#6C28FF"/>
<path d="M36.5625 25.375H17.45C17.075 25.375 16.6875 25.3625 16.325 25.275L17.9 34.875C18.25 37.025 19.1875 39.5 23.35 39.5H30.3625C34.575 39.5 35.325 37.3875 35.775 35.025L37.6625 25.275C37.3125 25.35 36.9375 25.375 36.5625 25.375ZM25.2625 33.45C25.2625 33.9375 24.875 34.325 24.3875 34.325C23.9 34.325 23.5125 33.9375 23.5125 33.45V29.325C23.5125 28.8375 23.9 28.45 24.3875 28.45C24.875 28.45 25.2625 28.8375 25.2625 29.325V33.45ZM30.6125 33.45C30.6125 33.9375 30.225 34.325 29.7375 34.325C29.25 34.325 28.8625 33.9375 28.8625 33.45V29.325C28.8625 28.8375 29.25 28.45 29.7375 28.45C30.225 28.45 30.6125 28.8375 30.6125 29.325V33.45Z" fill="#6C28FF"/>
</svg>
