<svg width="24" height="25" viewBox="0 0 24 25" fill="none" xmlns="http://www.w3.org/2000/svg">
<path d="M22 6.5V8.92C22 10.5 21 11.5 19.42 11.5H16V4.51C16 3.4 16.91 2.5 18.02 2.5C19.11 2.51 20.11 2.95 20.83 3.67C21.55 4.4 22 5.4 22 6.5Z" fill="#1D1F1F"/>
<path opacity="0.4" d="M2 7.5V21.5C2 22.33 2.94001 22.8 3.60001 22.3L5.31 21.02C5.71 20.72 6.27 20.76 6.63 21.12L8.28999 22.79C8.67999 23.18 9.32001 23.18 9.71001 22.79L11.39 21.11C11.74 20.76 12.3 20.72 12.69 21.02L14.4 22.3C15.06 22.79 16 22.32 16 21.5V4.5C16 3.4 16.9 2.5 18 2.5H7H6C3 2.5 2 4.29 2 6.5V7.5Z" fill="#B6B8B8"/>
<path d="M12 10.25H6C5.59 10.25 5.25 9.91 5.25 9.5C5.25 9.09 5.59 8.75 6 8.75H12C12.41 8.75 12.75 9.09 12.75 9.5C12.75 9.91 12.41 10.25 12 10.25Z" fill="#1D1F1F"/>
<path d="M11.25 14.25H6.75C6.34 14.25 6 13.91 6 13.5C6 13.09 6.34 12.75 6.75 12.75H11.25C11.66 12.75 12 13.09 12 13.5C12 13.91 11.66 14.25 11.25 14.25Z" fill="#1D1F1F"/>
</svg>
