<svg width="32" height="32" viewBox="0 0 32 32" fill="none" xmlns="http://www.w3.org/2000/svg">
<path d="M29.333 7.99995V11.2266C29.333 13.3333 27.9997 14.6666 25.893 14.6666H21.333V5.34661C21.333 3.86661 22.5463 2.65328 24.0263 2.66661C25.4797 2.67995 26.813 3.26661 27.773 4.22661C28.733 5.19995 29.333 6.53328 29.333 7.99995Z" fill="#8347AD"/>
<path opacity="0.4" d="M2.66699 9.33342V28.0001C2.66699 29.1067 3.92033 29.7334 4.80033 29.0667L7.08033 27.3601C7.61366 26.9601 8.36033 27.0134 8.84033 27.4934L11.0537 29.7201C11.5737 30.2401 12.427 30.2401 12.947 29.7201L15.187 27.4801C15.6537 27.0134 16.4003 26.9601 16.9203 27.3601L19.2003 29.0667C20.0803 29.7201 21.3337 29.0934 21.3337 28.0001V5.33341C21.3337 3.86675 22.5337 2.66675 24.0003 2.66675H9.33366H8.00033C4.00033 2.66675 2.66699 5.05341 2.66699 8.00008V9.33342Z" fill="#8347AD"/>
<path d="M16 16.3467H12C11.4533 16.3467 11 16.8 11 17.3467C11 17.8933 11.4533 18.3467 12 18.3467H16C16.5467 18.3467 17 17.8933 17 17.3467C17 16.8 16.5467 16.3467 16 16.3467Z" fill="#8347AD"/>
<path d="M12 13.0132H16C16.5467 13.0132 17 12.5599 17 12.0132C17 11.4665 16.5467 11.0132 16 11.0132H12C11.4533 11.0132 11 11.4665 11 12.0132C11 12.5599 11.4533 13.0132 12 13.0132Z" fill="#8347AD"/>
<path d="M7.96029 10.6799C7.21362 10.6799 6.62695 11.2799 6.62695 12.0133C6.62695 12.7466 7.22695 13.3466 7.96029 13.3466C8.69362 13.3466 9.29362 12.7466 9.29362 12.0133C9.29362 11.2799 8.69362 10.6799 7.96029 10.6799Z" fill="#8347AD"/>
<path d="M7.96029 16.0132C7.21362 16.0132 6.62695 16.6132 6.62695 17.3465C6.62695 18.0798 7.22695 18.6798 7.96029 18.6798C8.69362 18.6798 9.29362 18.0798 9.29362 17.3465C9.29362 16.6132 8.69362 16.0132 7.96029 16.0132Z" fill="#8347AD"/>
</svg>
