<svg id="repeate-music_outline" data-name="repeate-music/outline" xmlns="http://www.w3.org/2000/svg" width="24" height="24" viewBox="0 0 24 24">
  <g id="vuesax_outline_repeate-music" data-name="vuesax/outline/repeate-music">
    <g id="repeate-music">
      <path id="Vector" d="M2.66,14.931a.742.742,0,0,1-.53-.22,7.262,7.262,0,0,1,5.12-12.4l6.07.02-1.09-1.04A.75.75,0,1,1,13.27.211l2.44,2.34a.747.747,0,0,1-.52,1.29l-7.95-.02a5.763,5.763,0,0,0-4.06,9.84.754.754,0,0,1,0,1.06A.734.734,0,0,1,2.66,14.931Z" transform="translate(1.25 2.249)" fill="#00a19a"/>
      <path id="Vector-2" data-name="Vector" d="M3.191,14.937a.751.751,0,0,1-.52-.21l-2.44-2.34a.76.76,0,0,1-.18-.82.753.753,0,0,1,.7-.47l7.95.02a5.763,5.763,0,0,0,4.06-9.84.75.75,0,0,1,1.06-1.06,7.262,7.262,0,0,1-5.12,12.4l-6.07-.02,1.09,1.04a.746.746,0,0,1,.02,1.06A.768.768,0,0,1,3.191,14.937Z" transform="translate(6.809 6.813)" fill="#00a19a"/>
      <path id="Vector-3" data-name="Vector" d="M0,0H24V24H0Z" fill="none" opacity="0"/>
    </g>
  </g>
</svg>
