<svg width="25" height="25" viewBox="0 0 25 25" fill="none" xmlns="http://www.w3.org/2000/svg">
<path d="M12.6391 14.1312C12.5496 14.0975 12.451 14.0975 12.3616 14.1312C11.3324 14.5439 10.4444 15.2451 9.80436 16.1506C9.16436 17.056 8.79963 18.1271 8.75407 19.235C8.7526 19.2854 8.76119 19.3355 8.77932 19.3825C8.79746 19.4295 8.82479 19.4724 8.8597 19.5087C8.89462 19.545 8.93643 19.574 8.98268 19.594C9.02893 19.6139 9.07869 19.6245 9.12907 19.625H15.8716C15.922 19.6246 15.9718 19.6142 16.0181 19.5943C16.0645 19.5744 16.1063 19.5454 16.1413 19.5091C16.1762 19.4727 16.2036 19.4297 16.2216 19.3827C16.2397 19.3356 16.2482 19.2854 16.2466 19.235C16.201 18.1271 15.8363 17.056 15.1963 16.1506C14.5563 15.2451 13.6682 14.5439 12.6391 14.1312Z" fill="#D00B00"/>
<path d="M19.25 20.75H18.125V19.46C18.1252 18.1349 17.7794 16.8326 17.1216 15.6822C16.4639 14.5319 15.5171 13.5732 14.375 12.9013V12.0988C15.516 11.4256 16.4619 10.4667 17.1195 9.31655C17.7771 8.16644 18.1236 6.86483 18.125 5.54001V4.25001H19.25C19.4704 4.2465 19.685 4.17873 19.8674 4.05501C20.0499 3.93129 20.1922 3.757 20.277 3.55352C20.3618 3.35005 20.3854 3.12624 20.3448 2.90956C20.3043 2.69289 20.2013 2.49277 20.0487 2.33376C19.9445 2.22764 19.8202 2.14345 19.6831 2.08613C19.5459 2.02881 19.3986 1.99953 19.25 2.00001H5.74996C5.45372 2.00326 5.17073 2.12321 4.9624 2.33384C4.75407 2.54447 4.63723 2.82877 4.63723 3.12502C4.63723 3.42127 4.75409 3.70557 4.96242 3.91619C5.17076 4.12681 5.45376 4.24677 5.74999 4.25001H6.87496V5.54001C6.87544 6.865 7.22162 8.16694 7.87929 9.31719C8.53695 10.4674 9.48334 11.4262 10.625 12.0988V12.9013C9.48334 13.5738 8.53695 14.5326 7.87928 15.6828C7.22162 16.8331 6.87544 18.135 6.87496 19.46V20.75H5.74996C5.52954 20.7535 5.31495 20.8213 5.1325 20.945C4.95006 21.0687 4.8077 21.243 4.72289 21.4465C4.63808 21.65 4.61451 21.8738 4.65508 22.0904C4.69564 22.3071 4.79858 22.5072 4.95125 22.6663C5.05538 22.7724 5.17969 22.8566 5.31686 22.9139C5.45403 22.9712 5.60129 23.0005 5.74996 23H19.25C19.5462 22.9968 19.8292 22.8768 20.0375 22.6662C20.2459 22.4556 20.3627 22.1713 20.3627 21.875C20.3627 21.5788 20.2459 21.2945 20.0375 21.0838C19.8292 20.8732 19.5462 20.7533 19.25 20.75ZM7.62496 20.75V19.46C7.62463 18.2314 7.9544 17.0253 8.57978 15.9679C9.20517 14.9104 10.1032 14.0403 11.18 13.4488C11.2387 13.4158 11.2877 13.368 11.3219 13.31C11.3561 13.2521 11.3745 13.1861 11.375 13.1188V11.8813C11.3745 11.8139 11.3561 11.748 11.3219 11.69C11.2877 11.632 11.2387 11.5842 11.18 11.5513C10.1032 10.9597 9.20516 10.0896 8.57977 9.03216C7.95439 7.97467 7.62462 6.76858 7.62496 5.54001V4.25001H17.375V5.54001C17.3737 6.76824 17.0432 7.97368 16.418 9.03088C15.7928 10.0881 14.8956 10.9584 13.82 11.5513C13.7609 11.5838 13.7117 11.6316 13.6774 11.6896C13.6431 11.7477 13.625 11.8138 13.625 11.8813V13.1188C13.625 13.1862 13.6431 13.2523 13.6774 13.3104C13.7117 13.3684 13.7609 13.4162 13.82 13.4488C14.8956 14.0416 15.7928 14.9119 16.418 15.9691C17.0432 17.0263 17.3736 18.2318 17.375 19.46V20.75H7.62496Z" fill="#D00B00"/>
<path d="M12.4999 10.895C13.8492 10.4236 14.9634 9.44784 15.6087 8.17253C15.6377 8.11524 15.6516 8.05149 15.6491 7.98732C15.6465 7.92316 15.6277 7.8607 15.5942 7.80587C15.5608 7.75104 15.5139 7.70565 15.4581 7.67399C15.4022 7.64234 15.3392 7.62548 15.2749 7.625H9.72495C9.66091 7.62591 9.59814 7.64305 9.54252 7.67481C9.48691 7.70657 9.44025 7.75191 9.40691 7.8066C9.37358 7.86129 9.35465 7.92354 9.35191 7.98753C9.34917 8.05152 9.36269 8.11516 9.39122 8.1725C10.0364 9.44784 11.1507 10.4236 12.4999 10.895Z" fill="#D00B00"/>
</svg>
