<svg width="40" height="41" viewBox="0 0 40 41" fill="none" xmlns="http://www.w3.org/2000/svg">
<path d="M30 0.25H10C4.47715 0.25 0 4.72715 0 10.25V30.25C0 35.7728 4.47715 40.25 10 40.25H30C35.5228 40.25 40 35.7728 40 30.25V10.25C40 4.72715 35.5228 0.25 30 0.25Z" fill="#F4F7F7"/>
<path opacity="0.4" d="M15.0361 13.7666L25.0121 10.4386C29.4911 8.94558 31.9241 11.3896 30.4421 15.8686L27.1131 25.8446C24.8791 32.5576 21.2071 32.5576 18.9731 25.8446L17.9891 22.8796L15.0251 21.8996C8.32313 19.6726 8.32313 16.0126 15.0361 13.7666Z" fill="#B6B8B8"/>
<path d="M20.7651 19.8503L24.5751 16.0303L20.7651 19.8503Z" fill="#4B5353"/>
<path d="M20.7791 20.5835C20.6805 20.5839 20.5829 20.5646 20.4919 20.5268C20.4009 20.4891 20.3184 20.4335 20.2491 20.3635C20.1096 20.2224 20.0314 20.0319 20.0314 19.8335C20.0314 19.6351 20.1096 19.4447 20.2491 19.3035L24.0491 15.4835C24.1912 15.351 24.3793 15.2789 24.5736 15.2823C24.7679 15.2858 24.9533 15.3645 25.0907 15.5019C25.2281 15.6393 25.3068 15.8247 25.3102 16.019C25.3137 16.2133 25.2416 16.4013 25.1091 16.5435L21.3091 20.3655C21.1661 20.5023 20.9769 20.5801 20.7791 20.5835Z" fill="#1D1F1F"/>
</svg>
