<svg width="48" height="24" viewBox="0 0 48 24" fill="none" xmlns="http://www.w3.org/2000/svg">
<g clip-path="url(#clip0_3454_11179)">
<path d="M19.0232 5.31104C18.9887 5.44 18.9537 5.56942 18.9192 5.70019C18.8838 5.83186 18.8489 5.96397 18.8135 6.09654C18.779 6.2282 18.744 6.36122 18.7086 6.49558C18.7068 6.50007 18.7059 6.50546 18.7041 6.51086C18.6696 6.63982 18.6355 6.77014 18.601 6.90181C18.4562 7.44914 18.3083 8.0149 18.1535 8.60807C18.1144 8.75681 18.0759 8.906 18.0368 9.05789C17.9574 9.36391 17.877 9.67712 17.7935 9.99932C17.7554 10.1445 17.7177 10.2919 17.6796 10.4406C17.5684 10.8756 17.4526 11.3245 17.3333 11.7923C17.306 11.8988 17.2783 12.0062 17.2511 12.1154C17.2139 12.2588 17.1771 12.4035 17.1399 12.5504C16.9801 13.1822 16.8117 13.845 16.6347 14.5447C16.4567 15.2624 16.2883 15.9414 16.1277 16.588C16.0609 16.8581 15.9947 17.1232 15.9307 17.3825C15.834 17.7725 15.74 18.15 15.6497 18.518C15.627 18.6111 15.6034 18.7023 15.5821 18.7935C15.3959 19.544 15.2226 20.2499 15.0569 20.9249C15.026 21.0511 14.9956 21.1761 14.9656 21.3005C14.9611 21.3185 14.9566 21.3356 14.9529 21.3522C14.9184 21.4938 14.8844 21.634 14.8508 21.7728C14.7441 22.2123 14.642 22.6388 14.5426 23.0567C14.5226 23.138 14.5036 23.2185 14.4849 23.2993C14.4468 23.4602 14.4091 23.6197 14.3719 23.7779H10.9648C10.9857 23.6993 11.0066 23.6207 11.027 23.5416C11.0416 23.4912 11.0543 23.4413 11.0679 23.3906C11.0942 23.2931 11.1192 23.1955 11.1455 23.0971C11.224 22.8019 11.3016 22.5022 11.3815 22.1961C11.3997 22.1283 11.4178 22.06 11.4346 21.9912C11.471 21.8542 11.5059 21.7158 11.5422 21.576C11.5422 21.5751 11.5431 21.5751 11.5422 21.5742C11.6053 21.3298 11.6698 21.0813 11.7338 20.8283C11.7987 20.5753 11.864 20.3173 11.9308 20.0535C11.9884 19.828 12.0465 19.5983 12.1051 19.3638C12.1405 19.2231 12.1754 19.082 12.2117 18.9387C12.2966 18.6021 12.3824 18.257 12.4709 17.9006C12.5136 17.7316 12.5558 17.5604 12.5994 17.387C12.6588 17.1443 12.7206 16.8967 12.7828 16.6442C12.7882 16.6253 12.7928 16.6064 12.7973 16.588C12.9571 15.9423 13.1246 15.2619 13.3016 14.5447C13.4795 13.8459 13.6479 13.1831 13.8095 12.5504C13.879 12.2776 13.9471 12.0098 14.0129 11.7478C14.0574 11.5735 14.1014 11.4005 14.145 11.2306C14.3174 10.5507 14.4804 9.9063 14.6356 9.29201C14.6738 9.14102 14.7105 8.99228 14.7478 8.84489C14.7487 8.84219 14.7496 8.83949 14.7505 8.8359C14.7877 8.68671 14.8245 8.53797 14.8617 8.39102C14.869 8.36136 14.8762 8.33216 14.8835 8.3034C14.9044 8.21936 14.9252 8.13623 14.9457 8.0531C14.9838 7.9039 15.0197 7.75516 15.0569 7.60912C15.0805 7.5116 15.105 7.41409 15.1281 7.31837C15.1626 7.17862 15.1967 7.04021 15.2303 6.90316C15.2557 6.80025 15.2807 6.69824 15.3052 6.59713C15.3551 6.39402 15.4037 6.1945 15.4509 5.99588C15.4754 5.89746 15.499 5.79815 15.5221 5.70064C15.5539 5.56987 15.5843 5.44045 15.6152 5.31148H19.0223L19.0232 5.31104Z" fill="#FF5100"/>
<path d="M6.64167 11.9354C6.84048 11.2461 7.01478 10.6057 7.16412 10.0148C7.41287 8.95607 7.31346 8.56197 6.81597 8.56197C6.36841 8.56197 6.11967 8.93135 5.89589 9.79324C5.52277 11.2461 5.49781 12.1817 6.41834 13.1667C7.81095 14.5453 8.3334 16.0229 7.48776 19.3963C6.66709 22.6219 5.62218 24.0006 3.06074 24.0006C0.126191 24.0006 -0.421229 22.2525 0.275074 19.5931C0.498854 18.7065 0.722633 17.9435 0.971378 17.0569C1.36946 17.1063 1.89146 17.1063 2.48836 17.1063C2.91141 17.1063 3.334 17.1063 3.60771 17.0816C3.40889 17.7219 3.25956 18.3129 3.16015 18.7559C2.83696 20.0115 2.88644 20.455 3.38393 20.455C3.88142 20.455 4.1052 20.0856 4.35394 19.1253C4.75203 17.5247 4.70209 16.6875 3.80698 15.8013C2.16563 14.4469 1.96636 12.8467 2.78703 9.59642C3.60771 6.32185 4.85143 5.09058 7.2885 5.09058C9.99927 5.09058 10.6711 6.51868 9.89986 9.54744C9.70105 10.2862 9.50178 11.074 9.22852 11.9606C8.85541 11.9358 8.25851 11.9358 7.76102 11.9358H6.64167V11.9354Z" fill="#00C4B3"/>
<path d="M19.2188 23.7784C19.8905 21.2668 20.5868 18.4843 21.5569 14.5447C22.5518 10.6298 23.2731 7.82257 23.87 5.31104H27.2775C26.6057 7.82257 25.8845 10.6051 24.8899 14.5447C23.9199 18.4596 23.2236 21.2421 22.6267 23.7784H19.2192H19.2188Z" fill="#00C4B3"/>
<path d="M34.3403 5.31104C34.1165 6.09878 33.7933 7.30534 33.5441 8.33979C33.2954 9.3001 33.0216 10.4082 32.8478 11.1223C31.8778 11.0976 30.8578 11.0976 29.9877 11.0976L29.4158 13.3381L29.2169 14.1506C30.187 14.1506 31.2069 14.1259 32.0026 14.0769C31.7044 15.2835 31.0576 17.844 30.7094 19.1984C29.9382 19.149 28.9932 19.1247 28.0731 19.1247C27.7249 20.6759 27.3768 22.2024 27.0037 23.7784H23.6211C24.2929 21.2174 25.0142 18.4843 25.9842 14.5447C26.9791 10.6298 27.6505 7.92143 28.2723 5.31104H34.3412H34.3403Z" fill="#00C4B3"/>
<path d="M41.1282 5.31104C40.9789 5.87724 40.7551 6.78857 40.5313 7.60103C40.3575 8.38878 40.1083 9.32482 39.9594 9.96472H38.6163C37.2486 15.505 35.5074 22.473 35.2088 23.7779C34.7362 23.7532 33.965 23.7532 33.443 23.7532C32.8711 23.7532 32.1249 23.7532 31.6523 23.7779C32.0255 22.4977 33.8161 15.5046 35.1842 9.96472H33.8411C34.0404 9.32437 34.2642 8.38878 34.463 7.60103C34.6868 6.78857 34.9105 5.90196 35.0099 5.31104H41.1282Z" fill="#00C4B3"/>
<path d="M46.267 5.99522L46.7868 5.63752C46.9202 5.54585 46.9538 5.36385 46.8607 5.23129L45.9829 3.97979C45.8789 3.8315 45.9861 3.62883 46.1681 3.62883H47.7078C47.8703 3.62883 48.0019 3.49851 48.0019 3.33764V2.71031C48.0019 2.54944 47.8703 2.41867 47.7078 2.41867H46.1681C45.9861 2.41867 45.8789 2.21601 45.9829 2.06771L46.8607 0.816216C46.9538 0.684101 46.9207 0.502106 46.7868 0.409985L46.267 0.0522856C46.1336 -0.0398355 45.9497 -0.00703142 45.8567 0.125533L44.5671 1.96301L43.278 0.125533C43.185 -0.00658205 43.0011 -0.0393861 42.8677 0.0522856L42.3479 0.409985C42.214 0.501657 42.1809 0.683652 42.274 0.816216L43.1523 2.06771C43.2562 2.21601 43.1491 2.41867 42.9666 2.41867H41.4269C41.2644 2.41867 41.1328 2.54899 41.1328 2.71031V3.33764C41.1328 3.49851 41.2644 3.62883 41.4269 3.62883H42.9666C43.1491 3.62883 43.2562 3.8315 43.1523 3.97979L42.274 5.23129C42.1809 5.36385 42.214 5.5454 42.3479 5.63752L42.8677 5.99522C43.0011 6.08734 43.185 6.05453 43.278 5.92197L44.5671 4.08449L45.8567 5.92197C45.9493 6.05453 46.1331 6.08734 46.267 5.99522Z" fill="#FF5100"/>
<path d="M17.2437 5.86111L16.9805 5.79685C17.1098 5.27693 17.1185 5.26345 17.1343 5.23828L17.364 5.38118C17.3704 5.3713 17.3736 5.36321 17.3736 5.36231C17.3681 5.37669 17.345 5.45443 17.2437 5.86066V5.86111Z" fill="#F4F7F7"/>
<path d="M16.502 8.93185L16.2383 8.87029C16.3245 8.50855 16.4062 8.16568 16.4829 7.84573L16.7467 7.90774C16.67 8.22769 16.5882 8.57056 16.502 8.9323V8.93185ZM16.8692 7.39546L16.6055 7.33344C16.699 6.94429 16.7821 6.59962 16.8533 6.30933L17.1171 6.37224C17.0462 6.66253 16.9632 7.0072 16.8697 7.39591L16.8692 7.39546Z" fill="#F4F7F7"/>
<path d="M13.2368 22.7832L12.9727 22.7226L13.2137 21.6953L13.4779 21.756L13.2368 22.7828V22.7832ZM13.5981 21.2428L13.334 21.1821L13.575 20.1557L13.8392 20.2164L13.5981 21.2428ZM13.9599 19.7028L13.6957 19.6421L13.9368 18.6158L14.2009 18.6764L13.9599 19.7028ZM14.3217 18.1637L14.0575 18.1026L14.299 17.0767L14.5632 17.1378L14.3217 18.1637ZM14.6839 16.6241L14.4197 16.563L14.6617 15.5371L14.9258 15.5982L14.6844 16.6241H14.6839ZM15.0466 15.085L14.7824 15.0239L15.0243 13.998L15.2885 14.0591L15.0466 15.085ZM15.4093 13.5469L15.1451 13.4857L15.3875 12.4598L15.6517 12.5209L15.4093 13.5469ZM15.7733 12.0082L15.5091 11.9471L15.752 10.9212L16.0161 10.9823L15.7733 12.0082ZM16.1378 10.4696L15.8741 10.408C15.9576 10.0552 16.0393 9.71237 16.1178 9.38208L16.3815 9.44364C16.303 9.77348 16.2218 10.1164 16.1378 10.4691V10.4696Z" fill="#F4F7F7"/>
<path d="M12.8568 23.2242L12.7344 23.7468L12.9984 23.8074L13.1208 23.2848L12.8568 23.2242Z" fill="#F4F7F7"/>
<path d="M22.8768 5.31104C22.2055 7.89582 21.4842 10.6289 20.4892 14.5443C19.5196 18.4834 18.8733 21.1186 18.2264 23.7775H14.9433C15.4657 21.8083 16.2365 18.8533 16.8084 16.5875H12.1622C11.5902 18.8528 10.8445 21.8079 10.3719 23.7775H7.11328C7.83546 21.1186 8.5068 18.4834 9.47636 14.5443C10.4713 10.6289 11.1672 7.89582 11.7645 5.31104H15.0223C14.4998 7.2312 13.7545 10.2352 13.1571 12.55H17.8034C18.3753 10.2595 19.1465 7.2312 19.5945 5.31104H22.8768Z" fill="#00C4B3"/>
</g>
<defs>
<clipPath id="clip0_3454_11179">
<rect width="48" height="24" fill="white"/>
</clipPath>
</defs>
</svg>
