<svg width="14" height="15" viewBox="0 0 14 15" fill="none" xmlns="http://www.w3.org/2000/svg">
<path d="M12.25 5.021H1.75C1.51083 5.021 1.3125 4.82266 1.3125 4.5835C1.3125 4.34433 1.51083 4.146 1.75 4.146H12.25C12.4892 4.146 12.6875 4.34433 12.6875 4.5835C12.6875 4.82266 12.4892 5.021 12.25 5.021Z" fill="#1D1F1F" stroke="black" stroke-width="0.3"/>
<path d="M10.5 7.9375H3.5C3.26083 7.9375 3.0625 7.73917 3.0625 7.5C3.0625 7.26083 3.26083 7.0625 3.5 7.0625H10.5C10.7392 7.0625 10.9375 7.26083 10.9375 7.5C10.9375 7.73917 10.7392 7.9375 10.5 7.9375Z" fill="#1D1F1F" stroke="black" stroke-width="0.3"/>
<path d="M8.16665 10.854H5.83331C5.59415 10.854 5.39581 10.6557 5.39581 10.4165C5.39581 10.1773 5.59415 9.979 5.83331 9.979H8.16665C8.40581 9.979 8.60415 10.1773 8.60415 10.4165C8.60415 10.6557 8.40581 10.854 8.16665 10.854Z" fill="#1D1F1F" stroke="black" stroke-width="0.3"/>
</svg>
