<svg width="24" height="24" viewBox="0 0 24 24" fill="none" xmlns="http://www.w3.org/2000/svg">
<path d="M15.389 5.21L16.799 8.03C16.989 8.42 17.499 8.79 17.929 8.87L20.479 9.29C22.109 9.56 22.489 10.74 21.319 11.92L19.329 13.91C18.999 14.24 18.809 14.89 18.919 15.36L19.489 17.82C19.939 19.76 18.899 20.52 17.189 19.5L14.799 18.08C14.369 17.82 13.649 17.82 13.219 18.08L10.829 19.5C9.11896 20.51 8.07897 19.76 8.52897 17.82L9.09898 15.36C9.20898 14.9 9.01898 14.25 8.68898 13.91L6.69899 11.92C5.52899 10.75 5.90898 9.57 7.53898 9.29L10.089 8.87C10.519 8.8 11.029 8.42 11.219 8.03L12.629 5.21C13.379 3.68 14.619 3.68 15.389 5.21Z" fill="#FF5100"/>
<path opacity="0.4" d="M8 5.75H2C1.59 5.75 1.25 5.41 1.25 5C1.25 4.59 1.59 4.25 2 4.25H8C8.41 4.25 8.75 4.59 8.75 5C8.75 5.41 8.41 5.75 8 5.75Z" fill="#FF5100"/>
<path opacity="0.4" d="M5 19.75H2C1.59 19.75 1.25 19.41 1.25 19C1.25 18.59 1.59 18.25 2 18.25H5C5.41 18.25 5.75 18.59 5.75 19C5.75 19.41 5.41 19.75 5 19.75Z" fill="#FF5100"/>
<path opacity="0.4" d="M3 12.75H2C1.59 12.75 1.25 12.41 1.25 12C1.25 11.59 1.59 11.25 2 11.25H3C3.41 11.25 3.75 11.59 3.75 12C3.75 12.41 3.41 12.75 3 12.75Z" fill="#FF5100"/>
</svg>
