<svg width="22" height="22" viewBox="0 0 22 22" fill="none" xmlns="http://www.w3.org/2000/svg">
<path d="M7.68164 11L9.89081 13.2183L14.3183 8.78168" stroke="#007D06" stroke-width="1.5" stroke-linecap="round" stroke-linejoin="round"/>
<path d="M9.85414 2.24583C10.4866 1.705 11.5225 1.705 12.1641 2.24583L13.6125 3.4925C13.8875 3.73083 14.4008 3.92333 14.7675 3.92333H16.3258C17.2975 3.92333 18.095 4.72083 18.095 5.6925V7.25083C18.095 7.60833 18.2875 8.13083 18.5258 8.40583L19.7725 9.85417C20.3133 10.4867 20.3133 11.5225 19.7725 12.1642L18.5258 13.6125C18.2875 13.8875 18.095 14.4008 18.095 14.7675V16.3258C18.095 17.2975 17.2975 18.095 16.3258 18.095H14.7675C14.41 18.095 13.8875 18.2875 13.6125 18.5258L12.1641 19.7725C11.5316 20.3133 10.4958 20.3133 9.85414 19.7725L8.40581 18.5258C8.13081 18.2875 7.61747 18.095 7.25081 18.095H5.66497C4.69331 18.095 3.89581 17.2975 3.89581 16.3258V14.7583C3.89581 14.4008 3.70331 13.8875 3.47414 13.6125L2.23664 12.155C1.70497 11.5225 1.70497 10.4958 2.23664 9.86334L3.47414 8.40583C3.70331 8.13083 3.89581 7.6175 3.89581 7.26V5.68333C3.89581 4.71167 4.69331 3.91417 5.66497 3.91417H7.25081C7.60831 3.91417 8.13081 3.72167 8.40581 3.48333L9.85414 2.24583Z" stroke="#007D06" stroke-width="1.5" stroke-linecap="round" stroke-linejoin="round"/>
</svg>
