<svg width="24" height="25" viewBox="0 0 24 25" fill="none" xmlns="http://www.w3.org/2000/svg">
<path d="M22 9.5V16.96C22 19.25 20.14 21.1 17.85 21.1H6.15C3.86 21.1 2 19.25 2 16.96V9.5H22Z" fill="#B6B8B8"/>
<path d="M22 8.0399V9.4999H2V8.0399C2 5.7499 3.86 3.8999 6.15 3.8999H17.85C20.14 3.8999 22 5.7499 22 8.0399Z" fill="#1D1F1F"/>
<path d="M8 17.75H6C5.59 17.75 5.25 17.41 5.25 17C5.25 16.59 5.59 16.25 6 16.25H8C8.41 16.25 8.75 16.59 8.75 17C8.75 17.41 8.41 17.75 8 17.75Z" fill="#1D1F1F"/>
<path d="M14.5 17.75H10.5C10.09 17.75 9.75 17.41 9.75 17C9.75 16.59 10.09 16.25 10.5 16.25H14.5C14.91 16.25 15.25 16.59 15.25 17C15.25 17.41 14.91 17.75 14.5 17.75Z" fill="#1D1F1F"/>
</svg>
