<svg xmlns="http://www.w3.org/2000/svg" width="20" height="20" viewBox="0 0 20 20">
  <g id="Group_31715" data-name="Group 31715" transform="translate(-342 -105)">
    <path id="Chevron" d="M7.051-12.289A.667.667,0,0,1,7-12.021a.752.752,0,0,1-.168.236L2.447-7.5a.625.625,0,0,1-.459.19A.645.645,0,0,1,1.656-7.4a.676.676,0,0,1-.238-.234.622.622,0,0,1-.09-.331.655.655,0,0,1,.2-.474L5.482-12.29,1.531-16.143a.649.649,0,0,1-.2-.473.622.622,0,0,1,.09-.331.676.676,0,0,1,.238-.234.645.645,0,0,1,.333-.087.633.633,0,0,1,.459.185L6.83-12.793A.762.762,0,0,1,7-12.557.679.679,0,0,1,7.051-12.289Z" transform="translate(347.672 127.267)" fill="#4b5353"/>
    <rect id="Rectangle_6909" data-name="Rectangle 6909" width="20" height="20" transform="translate(342 105)" fill="none"/>
  </g>
</svg>
