<svg width="63" height="18" viewBox="0 0 63 18" fill="none" xmlns="http://www.w3.org/2000/svg">
<g clip-path="url(#clip0_3454_6775)">
<path d="M59.8965 10.051L60.6016 9.5487C60.7824 9.41896 60.8276 9.16319 60.7011 8.97786L59.5095 7.219C59.3685 7.01142 59.5132 6.726 59.7609 6.726H61.8492C62.0698 6.726 62.2488 6.54252 62.2488 6.31641V5.4342C62.2488 5.20809 62.0698 5.0246 61.8492 5.0246H59.7609C59.5132 5.0246 59.3685 4.73918 59.5095 4.5316L60.7011 2.77275C60.8276 2.58741 60.7824 2.33165 60.6016 2.20191L59.8965 1.69964C59.7157 1.56991 59.4661 1.61624 59.3396 1.80158L57.5912 4.38333L55.8428 1.80158C55.7162 1.61624 55.4667 1.56991 55.2859 1.69964L54.5807 2.20191C54.3999 2.33165 54.3547 2.58741 54.4813 2.77275L55.6728 4.5316C55.8138 4.73918 55.6692 5.0246 55.4215 5.0246H53.3332C53.1126 5.0246 52.9336 5.20809 52.9336 5.4342V6.31641C52.9336 6.54252 53.1126 6.726 53.3332 6.726H55.4215C55.6692 6.726 55.8138 7.01142 55.6728 7.219L54.4813 8.97786C54.3547 9.16319 54.3999 9.41896 54.5807 9.5487L55.2859 10.051C55.4667 10.1807 55.7162 10.1344 55.8428 9.94903L57.5912 7.36727L59.3396 9.94903C59.4661 10.1344 59.7157 10.1807 59.8965 10.051Z" fill="#F15523"/>
<path d="M12.1911 0H12.8727L12.6847 11.9784C12.6811 12.236 12.663 12.5603 12.6395 12.9551C12.616 13.3499 12.5454 13.7613 12.4297 14.1932C12.314 14.6287 12.1386 15.0605 11.9108 15.4905C11.683 15.9205 11.3557 16.306 10.9218 16.6415C8.8823 18.2428 6.01471 18.1816 3.67868 17.3606C2.07673 16.7972 0.556146 15.6129 0.198149 13.8336C0.0498872 13.1256 -0.0115871 12.4102 -0.000738713 11.68L0.0733921 0H3.45629L3.42917 11.313C3.41651 12.0692 3.43821 12.8087 3.49245 13.5278C3.60817 14.9401 3.96074 16.1837 5.33487 16.7341C6.73432 17.2976 8.77563 17.1196 10.0286 16.2671C11.8367 15.029 12.0103 12.8606 12.0247 10.8237C12.0464 7.76009 12.1368 3.06363 12.1947 0L12.1911 0Z" fill="#004F51"/>
<path d="M20.5898 3.79757V17.987H17.7132V2.9617C17.7132 2.13694 17.3118 1.30478 16.67 0.796952C15.9865 0.255766 15.2217 0.324341 14.4062 0.324341V0H16.8851C18.93 0 20.5898 1.7014 20.5898 3.79757Z" fill="#004F51"/>
<path d="M27.3112 5.26143C27.3039 4.22539 27.3039 2.75196 27.2931 1.71777H24.4363C24.4255 2.7501 24.4255 4.22354 24.4255 5.26143H23.196C22.8832 5.37634 22.876 5.57095 22.876 5.59319C23.3931 5.6006 23.9102 5.60801 24.4183 5.61913H27.3112V5.60801H29.8443C29.8443 5.60801 29.9943 5.52646 30.045 5.26884C29.1319 5.26884 28.2261 5.26143 27.313 5.26143H27.3112ZM46.6286 10.1099C46.6286 10.0913 46.6051 10.0858 46.596 10.1025C45.9759 11.3016 45.0194 12.9344 43.7574 14.4004V14.4041L43.761 17.9886H46.6358C46.6177 16.4262 46.625 12.1041 46.6286 10.1099ZM50.8866 6.3438C49.5432 5.60245 47.5326 6.42164 46.596 7.54108C46.5852 7.55221 46.578 7.56333 46.5707 7.57445V6.41052H43.7321L43.7574 11.6704V12.1097C43.6272 12.3265 43.506 12.5304 43.4084 12.6953C43.0631 13.2662 42.7105 13.8111 42.3091 14.28C41.3743 15.366 39.8574 16.0926 38.4344 16.1111C37.1688 16.1259 35.9827 15.5217 35.0569 14.6562L33.1657 16.3947C33.8491 16.8877 35.3643 17.7828 37.3098 17.7828C37.798 17.7828 38.306 17.7532 38.7816 17.6346C38.9371 17.5957 39.0889 17.5493 39.239 17.4956C39.4343 17.4251 39.6241 17.3436 39.8103 17.2528C40.0418 17.1397 40.266 17.0137 40.483 16.8765C40.7469 16.7116 41.0001 16.5318 41.246 16.3391C41.5371 16.1111 41.8173 15.8683 42.0849 15.6125C42.4013 15.3123 42.7015 14.9954 42.9889 14.6673C43.3252 14.2837 43.6435 13.8852 43.9454 13.4737C44.2962 12.9974 44.627 12.5063 44.9417 12.004C45.3033 11.4258 45.6432 10.8327 45.965 10.2303C46.012 10.1432 46.059 10.0543 46.1042 9.9653C46.3519 9.49454 46.5002 8.97004 46.7479 8.49928C47.0679 7.89508 47.5218 7.29829 48.1564 7.02399C48.3571 6.93874 48.5958 6.86275 48.8145 6.8887C49.1147 6.92391 49.1798 7.20562 49.1526 7.47992C49.1273 7.72642 49.0297 7.95809 48.9917 8.20645C48.9013 8.98672 49.6029 9.73548 50.3677 9.73548C51.1289 9.73919 51.8159 9.05715 51.9063 8.28429C52.0003 7.50772 51.5538 6.71448 50.8793 6.34195L50.8866 6.3438ZM37.2085 6.22148C37.129 6.19183 37.044 6.16588 36.9572 6.14364C36.4184 5.99352 35.8543 5.95645 35.2793 6.02873C34.7044 6.09545 34.1692 6.25299 33.6792 6.48466C32.2092 7.17412 30.958 8.55118 30.5422 10.1803C30.054 12.0744 31.0159 13.9334 32.202 15.3494C32.1658 15.3864 32.1369 15.4124 32.1369 15.4124C30.5277 17.2472 28.9746 16.9155 28.9746 16.9155C27.1484 16.7542 27.2859 13.8945 27.2859 13.8945C27.2967 13.5553 27.3039 8.27317 27.3076 6.21777H24.4183C24.4255 8.76431 24.4363 12.3487 24.4363 14.7174C24.4363 16.8617 28.4611 20.081 32.6956 16.1463L32.7643 16.0833L34.7152 14.3115C36.0803 13.129 38.2156 11.802 38.7255 9.95789C39.1179 8.54006 38.664 6.76823 37.2085 6.22148ZM35.7205 11.3294C35.2866 11.9595 34.7261 12.6434 34.1764 13.2625C34.001 12.9085 33.8311 12.5508 33.6593 12.1912C33.0916 10.9309 32.1242 9.09236 32.7715 7.69677C32.9252 7.34277 33.2489 7.04809 33.7425 6.82012C34.4548 6.48837 35.1256 6.76823 35.5831 7.38725C35.7693 7.6319 35.9266 7.9062 36.0532 8.20089C36.4962 9.22395 36.3461 10.4138 35.7187 11.3294H35.7205Z" fill="#004F51"/>
<path d="M14.4071 0C14.4071 0 14.2118 0.14271 14.4071 0.326194L14.6295 0.207578L14.4071 0Z" fill="#007078"/>
</g>
<defs>
<clipPath id="clip0_3454_6775">
<rect width="62.25" height="18" fill="white"/>
</clipPath>
</defs>
</svg>
