<svg id="used_amount_cont" xmlns="http://www.w3.org/2000/svg" width="40" height="40" viewBox="0 0 40 40">
  <circle id="Ellipse_1102" data-name="Ellipse 1102" cx="20" cy="20" r="20" fill="#fff"/>
  <g id="used_amount_inner" transform="translate(8 8)">
    <g id="vuesax_bulk_money-change" data-name="vuesax/bulk/money-change">
      <g id="money-change">
        <path id="Vector" d="M0,0H24V24H0Z" fill="none" opacity="0"/>
        <path id="Vector-2" data-name="Vector" d="M20,5v6c0,3.5-2,5-5,5H7.74A4.379,4.379,0,0,0,8,14.5a4.5,4.5,0,0,0-8-2.82V5C0,1.5,2,0,5,0H15C18,0,20,1.5,20,5Z" transform="translate(2 4)" fill="#4b5353" opacity="0.4"/>
        <path id="Vector-3" data-name="Vector" d="M5,2.5A2.5,2.5,0,1,1,2.5,0,2.5,2.5,0,0,1,5,2.5Z" transform="translate(10 9.5)" fill="#4b5353"/>
        <path id="Vector-4" data-name="Vector" d="M4.5,0A4.5,4.5,0,0,0,1,1.68,4.428,4.428,0,0,0,0,4.5,4.5,4.5,0,0,0,8.74,6,4.379,4.379,0,0,0,9,4.5,4.5,4.5,0,0,0,4.5,0ZM7.16,6.46a.707.707,0,0,1-.12.18l-.81.8a.507.507,0,0,1-.38.16.513.513,0,0,1-.39-.16.532.532,0,0,1-.09-.64H3.11A1.317,1.317,0,0,1,1.8,5.48V5.37a.55.55,0,0,1,1.1,0v.11a.214.214,0,0,0,.21.22H5.37a.544.544,0,0,1,.86-.65l.81.81a.567.567,0,0,1,.12.18A.607.607,0,0,1,7.16,6.46ZM7.2,3.63a.55.55,0,0,1-1.1,0V3.52a.214.214,0,0,0-.21-.22H3.63a.544.544,0,0,1-.86.65l-.81-.81a.567.567,0,0,1-.12-.18.607.607,0,0,1,0-.42.707.707,0,0,1,.12-.18l.81-.8a.541.541,0,0,1,.86.64H5.89A1.317,1.317,0,0,1,7.2,3.52Z" transform="translate(1 14)" fill="#4b5353"/>
      </g>
    </g>
  </g>
</svg>
