<svg xmlns="http://www.w3.org/2000/svg" xmlns:xlink="http://www.w3.org/1999/xlink" width="162" height="95.502" viewBox="0 0 162 95.502">
  <defs>
    <clipPath id="clip-path">
      <rect id="Rectangle_1546" data-name="Rectangle 1546" width="162" height="95.502" fill="#f04864"/>
    </clipPath>
  </defs>
  <g id="redbglogo" transform="translate(0 -10.499)" opacity="0.081">
    <g id="Group_5815" data-name="Group 5815" transform="translate(0 10.499)" clip-path="url(#clip-path)">
      <g id="Group_31690" data-name="Group 31690" transform="translate(159.429 60.652)">
        <path id="Path_32145" data-name="Path 32145" d="M182.04,97.18a56.805,56.805,0,0,1-56.645-56.839V26.154a25.586,25.586,0,1,1,51.172,0V40.34a5.474,5.474,0,1,0,10.947,0V26.154a25.585,25.585,0,1,1,51.17-.034V40.34A56.806,56.806,0,0,1,182.04,97.179M150.987,11.707a14.439,14.439,0,0,0-14.4,14.444V40.337a45.457,45.457,0,1,0,90.914,0V26.154a14.4,14.4,0,1,0-28.79,0V40.34a16.661,16.661,0,1,1-33.322,0V26.154a14.44,14.44,0,0,0-14.407-14.447" transform="translate(-273.268 -58.33)" fill="#f04864"/>
        <path id="Path_32146" data-name="Path 32146" d="M176.768,69.243a36.757,36.757,0,0,1-36.652-36.779V27.8a5.594,5.594,0,1,1,11.188,0v4.667a25.466,25.466,0,1,0,50.926.745c0-.248,0-.5,0-.745V27.8a5.594,5.594,0,1,1,11.188,0v4.667a36.758,36.758,0,0,1-36.653,36.779" transform="translate(-267.998 -50.453)" fill="#f04864"/>
        <path id="Path_32147" data-name="Path 32147" d="M240.128,18.073a2.725,2.725,0,0,0-1.338-1.682L233.8,13.974l5.074-2.465a2.7,2.7,0,0,0,.981-3.677l-.974-1.69a2.662,2.662,0,0,0-1.627-1.254,2.708,2.708,0,0,0-2.119.322l-4.582,3.125.409-5.644A2.689,2.689,0,0,0,228.286,0h-1.957a2.67,2.67,0,0,0-1.893.8,2.729,2.729,0,0,0-.774,2l.406,5.538L219.4,5.156a2.675,2.675,0,0,0-3.663.987l-.974,1.691a2.718,2.718,0,0,0,1.07,3.723l4.985,2.417-5.072,2.464a2.7,2.7,0,0,0-.983,3.678l.974,1.69a2.664,2.664,0,0,0,1.628,1.255,2.623,2.623,0,0,0,.68.091,2.829,2.829,0,0,0,1.44-.414l4.581-3.123-.409,5.637a2.69,2.69,0,0,0,2.681,2.69h1.946a2.708,2.708,0,0,0,2.678-2.791l-.406-5.539,4.666,3.178a2.651,2.651,0,0,0,1.336.362,2.723,2.723,0,0,0,.7-.093,2.668,2.668,0,0,0,1.627-1.254l.975-1.691a2.688,2.688,0,0,0,.267-2.041" transform="translate(-241.4 -58.499)" fill="#f04864"/>
      </g>
    </g>
  </g>
</svg>
