<svg width="40" height="41" viewBox="0 0 40 41" fill="none" xmlns="http://www.w3.org/2000/svg">
<rect y="0.25" width="40" height="40" rx="8" fill="#F4F7F7"/>
<path d="M20.0031 23.4248C15.6871 23.4248 12.0031 24.1048 12.0031 26.8248C12.0031 29.5448 15.6641 30.2498 20.0031 30.2498C24.3161 30.2498 28.0031 29.5708 28.0031 26.8498C28.0031 24.1288 24.3371 23.4248 20.0031 23.4248Z" fill="#1D1F1F"/>
<path opacity="0.4" d="M20 20.834C21.0467 20.834 22.0699 20.5236 22.9401 19.9421C23.8104 19.3606 24.4887 18.5341 24.8892 17.5672C25.2898 16.6002 25.3946 15.5361 25.1904 14.5096C24.9862 13.483 24.4822 12.5401 23.7421 11.8C23.002 11.0599 22.059 10.5559 21.0325 10.3517C20.0059 10.1475 18.9419 10.2523 17.9749 10.6528C17.0079 11.0534 16.1814 11.7317 15.5999 12.6019C15.0184 13.4722 14.708 14.4953 14.708 15.542C14.7055 16.2377 14.8407 16.9269 15.1058 17.5701C15.3708 18.2133 15.7605 18.7977 16.2524 19.2896C16.7443 19.7815 17.3287 20.1712 17.9719 20.4363C18.6151 20.7013 19.3044 20.8365 20 20.834Z" fill="#B6B8B8"/>
</svg>
