<svg xmlns="http://www.w3.org/2000/svg" width="200.645" height="151.472" viewBox="0 0 200.645 151.472">
  <g id="Validation" transform="translate(-6 -4.723)" opacity="0.998">
    <path id="Path_31236" data-name="Path 31236" d="M103.708,156.2A74.6,74.6,0,1,0,29.258,81.6,74.484,74.484,0,0,0,103.708,156.2Z" transform="translate(6.564)" fill="#eceded" opacity="0"/>
    <path id="Path_31237" data-name="Path 31237" d="M155.914,49.864a6.021,6.021,0,1,0-6.021-6.021A6.021,6.021,0,0,0,155.914,49.864Z" transform="translate(37.808 8.099)" fill="#eceded"/>
    <path id="Path_31238" data-name="Path 31238" d="M162.494,30.463a4.112,4.112,0,1,0-4.112-4.112A4.112,4.112,0,0,0,162.494,30.463Z" transform="translate(40.038 4.004)" fill="#eceded"/>
    <path id="Path_31239" data-name="Path 31239" d="M32.788,29.062a4.112,4.112,0,1,0-4.112-4.112A4.112,4.112,0,0,0,32.788,29.062Z" transform="translate(5.958 3.636)" fill="#eceded"/>
    <path id="Path_31240" data-name="Path 31240" d="M13.636,93.325A7.636,7.636,0,1,0,6,85.689,7.636,7.636,0,0,0,13.636,93.325Z" transform="translate(0 18.669)" fill="#eceded"/>
    <g id="Empty_Cart" data-name="Empty Cart" transform="translate(53.822 34.467)">
      <path id="Path_32178" data-name="Path 32178" d="M25.468,23.421a1.75,1.75,0,0,0,1.67-1.793,1.774,1.774,0,1,0-3.549,0A2.016,2.016,0,0,0,25.468,23.421Z" transform="translate(-11.147 -19.834)" fill="#eaeef9"/>
      <path id="Path_32179" data-name="Path 32179" d="M23.67,108.748h97.973" transform="translate(-11.141 -13.293)" fill="none" stroke="#d6dce8" stroke-linejoin="round" stroke-width="2"/>
      <path id="Path_32180" data-name="Path 32180" d="M13.29,108.748h8.371" transform="translate(-11.905 -13.293)" fill="none" stroke="#d6dce8" stroke-linejoin="round" stroke-width="2"/>
      <path id="Path_32181" data-name="Path 32181" d="M25.269,21.757l-4.346.872,3.24,16.261,4.347-.872Z" transform="translate(-11.344 -19.693)" fill="#eceded"/>
      <path id="Path_32182" data-name="Path 32182" d="M41.9,39.137,39.081,24.779H16.314A3.331,3.331,0,0,1,13.9,23.768l-1.612-1.82a1.09,1.09,0,0,1,.806-1.82h27.8a2.363,2.363,0,0,1,2.216,1.82l3.224,16.178Z" transform="translate(-12 -19.812)" fill="#eceded"/>
      <path id="Path_32183" data-name="Path 32183" d="M102.134,109.553a7.887,7.887,0,1,0-7.857-7.886A7.872,7.872,0,0,0,102.134,109.553Z" transform="translate(-5.947 -14.394)" fill="#fff"/>
      <path id="Path_32184" data-name="Path 32184" d="M50.525,109.553a7.887,7.887,0,1,0-7.858-7.886A7.872,7.872,0,0,0,50.525,109.553Z" transform="translate(-9.744 -14.394)" fill="#fff"/>
      <path id="Path_32185" data-name="Path 32185" d="M49.647,83.738l-4.344.886,3.69,18.232,4.344-.886Z" transform="translate(-9.55 -15.133)" fill="#eceded"/>
      <path id="Path_32186" data-name="Path 32186" d="M106.561,105.113h-68.1a2.362,2.362,0,0,1-2.216-1.82L31.409,79.834a2.253,2.253,0,1,1,4.432-.809l4.433,21.638h66.487a2.241,2.241,0,0,1,2.217,2.225A2.291,2.291,0,0,1,106.561,105.113Z" transform="translate(-10.574 -15.616)" fill="#eceded"/>
      <path id="Path_32187" data-name="Path 32187" d="M38.139,109.553a7.887,7.887,0,1,0-7.858-7.886A7.872,7.872,0,0,0,38.139,109.553Z" transform="translate(-10.655 -14.394)" fill="#fff"/>
      <path id="Path_32188" data-name="Path 32188" d="M37.863,105.232a3.842,3.842,0,1,0-3.828-3.842A3.835,3.835,0,0,0,37.863,105.232Z" transform="translate(-10.379 -14.117)" fill="#cbcece"/>
      <path id="Path_32189" data-name="Path 32189" d="M89.748,109.553a7.887,7.887,0,1,0-7.858-7.886A7.872,7.872,0,0,0,89.748,109.553Z" transform="translate(-6.858 -14.394)" fill="#fff"/>
      <path id="Path_32190" data-name="Path 32190" d="M89.472,105.232a3.842,3.842,0,1,0-3.828-3.842A3.835,3.835,0,0,0,89.472,105.232Z" transform="translate(-6.582 -14.117)" fill="#cbcece"/>
      <g id="Group_31693" data-name="Group 31693" transform="translate(11.768 17.707)">
        <path id="Path_32191" data-name="Path 32191" d="M123.5,36.328l-8.261,47.523a6.064,6.064,0,0,1-6.044,5.056H38.274a6.064,6.064,0,0,1-6.044-5.056L22.962,36.328Z" transform="translate(-22.962 -36.328)" fill="#fff"/>
      </g>
      <path id="Path_32192" data-name="Path 32192" d="M62.323,81.978a2.023,2.023,0,0,0,2.015-2.022V44.566a2.015,2.015,0,1,0-4.03,0V79.956A1.907,1.907,0,0,0,62.323,81.978Z" transform="translate(-8.446 -18.163)" fill="#ebedec"/>
      <path id="Path_32193" data-name="Path 32193" d="M71.881,81.966a2,2,0,0,0,2.216-1.82l3.425-35.187a2.025,2.025,0,1,0-4.03-.4L70.067,79.741A2.038,2.038,0,0,0,71.881,81.966Z" transform="translate(-7.728 -18.152)" fill="#ebedec"/>
      <path id="Path_32194" data-name="Path 32194" d="M81.619,81.736a2,2,0,0,0,2.216-1.618l6.447-34.783a1.938,1.938,0,1,0-3.828-.607L80.209,79.511A1.728,1.728,0,0,0,81.619,81.736Z" transform="translate(-6.99 -18.124)" fill="#ebedec"/>
      <path id="Path_32195" data-name="Path 32195" d="M52.815,81.966a2,2,0,0,1-2.216-1.82L47.173,44.959a2.025,2.025,0,1,1,4.03-.4l3.425,35.187A2.038,2.038,0,0,1,52.815,81.966Z" transform="translate(-9.415 -18.152)" fill="#ebedec"/>
      <path id="Path_32196" data-name="Path 32196" d="M43.263,81.736a2,2,0,0,1-2.216-1.618L34.6,45.335a1.938,1.938,0,1,1,3.828-.607l6.246,34.783A1.728,1.728,0,0,1,43.263,81.736Z" transform="translate(-10.34 -18.124)" fill="#ebedec"/>
      <path id="Path_32197" data-name="Path 32197" d="M118.874,36.327l-8.26,47.523a6.064,6.064,0,0,1-6.044,5.056H85.832a6.94,6.94,0,0,0,6.85-5.662l8.664-46.916Z" transform="translate(-6.568 -18.621)" fill="#cbcece" opacity="0.575"/>
    </g>
    <g id="Group_31695" data-name="Group 31695" transform="translate(42.822 9.754)">
      <path id="Path_31301" data-name="Path 31301" d="M63.5,23.5a11.966,11.966,0,1,1,0,16.922,11.966,11.966,0,0,1,0-16.922" transform="translate(30.667 10.222)" fill="#d6d6d6"/>
      <line id="Line_79" data-name="Line 79" x1="11.282" transform="translate(96.992 42.188)" fill="none" stroke="#fff" stroke-linecap="round" stroke-linejoin="round" stroke-width="2"/>
      <line id="Line_80" data-name="Line 80" y1="11.282" transform="translate(102.633 36.547)" fill="none" stroke="#fff" stroke-linecap="round" stroke-linejoin="round" stroke-width="2"/>
    </g>
    <g id="Group_31697" data-name="Group 31697" transform="translate(45.998 4.723)">
      <path id="Path_31302" data-name="Path 31302" d="M51.856,17.784H40V1.186A1.186,1.186,0,0,1,41.186,0h9.485a1.186,1.186,0,0,1,1.186,1.186Z" transform="translate(18.372)" fill="#d6d6d6"/>
      <path id="Path_31303" data-name="Path 31303" d="M34.821,10H59.4a1.185,1.185,0,0,1,.911,1.944L48.021,26.691a1.185,1.185,0,0,1-1.821,0L33.91,11.944A1.185,1.185,0,0,1,34.821,10" transform="translate(17.19 1.856)" fill="#d6d6d6"/>
    </g>
  </g>
</svg>
