<svg width="40" height="41" viewBox="0 0 40 41" fill="none" xmlns="http://www.w3.org/2000/svg">
<rect y="0.25" width="40" height="40" rx="8" fill="#F4F7F7"/>
<g clip-path="url(#clip0_920_26874)">
<path d="M24.019 18.176C24.019 18.5639 24.0252 18.9512 24.0179 19.3385C24.0039 20.1037 23.8697 20.8505 23.6185 21.5727C22.8623 23.7484 21.4293 25.3245 19.3435 26.3109C18.6958 26.6174 18.0106 26.813 17.3036 26.9306C16.6805 27.0348 16.0507 27.0571 15.4237 27.0092C13.857 26.8899 12.4385 26.3616 11.1867 25.4125C9.83312 24.3865 8.89623 23.0629 8.37661 21.449C8.23286 21.0032 8.13386 20.5473 8.07569 20.082C8.02926 19.7108 8.00465 19.3385 8.00353 18.9646C8.0013 18.3471 7.9985 17.7296 8.00465 17.1121C8.00801 16.7426 8.04548 16.3748 8.1635 16.0215C8.59475 14.7285 9.47627 13.9093 10.7997 13.5632C11.18 13.4635 11.571 13.4467 11.958 13.4857C12.8653 13.5771 13.6383 13.9539 14.2636 14.6199C14.7525 15.1404 15.0568 15.7556 15.177 16.4556C15.2173 16.6897 15.2302 16.9304 15.2335 17.1678C15.2413 17.7987 15.243 18.4296 15.2335 19.0604C15.2285 19.3909 15.4875 19.7348 15.8337 19.8178C16.3136 19.9332 16.7969 19.5726 16.8008 19.0799C16.8058 18.4218 16.7913 17.7636 16.8047 17.106C16.8343 15.6425 17.4977 14.5535 18.7926 13.8564C19.1567 13.6602 19.5516 13.5487 19.9649 13.5008C20.9449 13.3871 21.8342 13.6178 22.6162 14.2158C23.34 14.7698 23.7891 15.5004 23.9648 16.396C24.0084 16.6183 24.0229 16.8418 24.0229 17.067C24.0229 17.4364 24.0229 17.8059 24.0229 18.1754H24.019V18.176ZM18.3641 18.079C18.3641 18.3855 18.3664 18.692 18.363 18.9986C18.3613 19.129 18.354 19.2594 18.3378 19.3887C18.2746 19.883 18.0666 20.3132 17.7181 20.6666C17.1078 21.2852 16.3667 21.512 15.5132 21.337C14.4627 21.1219 13.6903 20.1823 13.6763 19.1306C13.6679 18.4546 13.678 17.7786 13.6707 17.1026C13.669 16.9287 13.6523 16.7499 13.6098 16.5815C13.3625 15.6018 12.4508 14.9074 11.3523 15.0412C10.779 15.1108 10.3142 15.3939 9.96792 15.8582C9.69776 16.2204 9.56744 16.6317 9.56464 17.0809C9.56128 17.6805 9.56464 18.2796 9.56296 18.8793C9.56184 19.1858 9.57695 19.4907 9.61162 19.7955C9.6519 20.1538 9.72181 20.5055 9.82473 20.8505C10.2101 22.1456 10.9317 23.219 11.9877 24.0644C13.1181 24.9684 14.4169 25.4309 15.8628 25.4777C16.1508 25.4866 16.4406 25.4566 16.7286 25.4343C17.1582 25.4008 17.5749 25.3027 17.9843 25.1707C19.0756 24.8196 20.0074 24.2205 20.781 23.3784C21.4131 22.6901 21.8717 21.9021 22.1603 21.0154C22.3695 20.3723 22.4663 19.7119 22.4719 19.0381C22.4769 18.4073 22.4758 17.7764 22.4708 17.145C22.4696 16.9884 22.454 16.8301 22.4255 16.6763C22.2207 15.5589 21.0635 14.7586 19.8492 15.1047C18.9682 15.356 18.3703 16.1524 18.3647 17.0647C18.363 17.403 18.3647 17.7407 18.3647 18.079" fill="#FF5100"/>
<path d="M10.8447 18.9496C10.8447 18.7228 10.8408 18.5467 10.8453 18.3712C10.857 17.9521 11.1982 17.6233 11.6177 17.6216C12.0282 17.6199 12.3767 17.9476 12.3901 18.3567C12.398 18.5774 12.3913 18.798 12.3941 19.0193C12.4013 19.6229 12.5261 20.1985 12.8175 20.7313C13.3432 21.6949 14.1431 22.3074 15.2137 22.5676C15.6002 22.6618 15.9939 22.6869 16.3849 22.6401C17.583 22.4963 18.5037 21.9083 19.1335 20.8807C19.3908 20.461 19.5502 20.0035 19.6011 19.5125C19.6224 19.3119 19.6335 19.109 19.6408 18.9073C19.6475 18.7273 19.6431 18.5467 19.6436 18.3667C19.6447 17.976 19.9803 17.6756 20.3137 17.6338C20.8177 17.5703 21.2008 17.9849 21.193 18.3745C21.1857 18.7306 21.2053 19.0878 21.1823 19.4423C21.1471 19.979 21.0257 20.5 20.816 20.9977C20.2952 22.2349 19.4266 23.1444 18.2134 23.7251C17.7586 23.9425 17.2787 24.079 16.7793 24.1554C16.3872 24.215 15.9934 24.2278 15.6018 24.1961C14.5223 24.1069 13.5569 23.7212 12.7218 23.0307C11.8258 22.2901 11.2429 21.3522 10.9711 20.2247C10.8659 19.7889 10.8285 19.3459 10.8447 18.9491" fill="#FF5100"/>
<path d="M30.3557 19.2848L30.8485 18.9437C30.9749 18.8557 31.0062 18.6824 30.9184 18.5564L30.0861 17.3627C29.9877 17.2217 30.0889 17.0277 30.2618 17.0277H31.7211C31.8749 17.0277 32.0002 16.9035 32.0002 16.7497V16.1511C32.0002 15.9973 31.8754 15.873 31.7211 15.873H30.2618C30.0889 15.873 29.9877 15.6796 30.0861 15.5381L30.9184 14.3443C31.0068 14.2178 30.9749 14.0445 30.8485 13.957L30.3557 13.616C30.2288 13.5279 30.0548 13.5597 29.967 13.6856L28.7448 15.4383L27.5227 13.6856C27.4349 13.5591 27.2604 13.5279 27.134 13.616L26.6412 13.957C26.5142 14.0451 26.4829 14.2184 26.5713 14.3443L27.4036 15.5381C27.502 15.6791 27.4008 15.873 27.2279 15.873H25.7686C25.6148 15.873 25.4895 15.9973 25.4895 16.1511V16.7497C25.4895 16.9029 25.6142 17.0277 25.7686 17.0277H27.2279C27.4008 17.0277 27.502 17.2211 27.4036 17.3627L26.5713 18.5564C26.4829 18.6829 26.5148 18.8562 26.6412 18.9437L27.134 19.2848C27.2609 19.3729 27.4349 19.3411 27.5227 19.2151L28.7448 17.4624L29.967 19.2151C30.0554 19.3411 30.2293 19.3729 30.3557 19.2848Z" fill="#FF5100"/>
</g>
<defs>
<clipPath id="clip0_920_26874">
<rect width="24" height="13.5675" fill="white" transform="translate(8 13.4663)"/>
</clipPath>
</defs>
</svg>
