<svg width="28" height="24" viewBox="0 0 28 24" fill="none" xmlns="http://www.w3.org/2000/svg">
<path d="M20.1361 22.7642L20.1334 22.7661C19.9191 22.9137 19.618 22.8617 19.4634 22.6453C19.4632 22.645 19.463 22.6448 19.4629 22.6445L14.5312 15.6511L14 14.8978L13.4688 15.6511L8.53569 22.6466L8.53358 22.6497C8.38886 22.8574 8.08462 22.9162 7.86671 22.7661L7.86394 22.7642L5.87172 21.4067L5.86932 21.4051C5.65702 21.2618 5.60783 20.9774 5.7508 20.7764L5.75198 20.7748L9.11592 16.0132C9.11597 16.0131 9.11601 16.0131 9.11606 16.013C9.11609 16.013 9.11612 16.0129 9.11615 16.0129C9.83277 14.9993 9.08583 13.6519 7.87741 13.6519H1.981C1.7099 13.6519 1.50718 13.4376 1.50718 13.1959V10.8041C1.50718 10.5624 1.7099 10.3481 1.981 10.3481H7.87741C9.07354 10.3481 9.83585 9.00454 9.11592 7.9868L5.75199 3.22525L5.75079 3.22357C5.61046 3.02625 5.65259 2.74508 5.87337 2.59214L7.86394 1.23582L7.86395 1.23582L7.86671 1.23392C8.08095 1.08632 8.38204 1.13827 8.53663 1.35468C8.53682 1.35495 8.53701 1.35523 8.53721 1.3555L13.4688 8.34892L14 9.10221L14.5312 8.34892L19.4644 1.35337L19.4665 1.35034C19.6112 1.14264 19.9154 1.08379 20.1334 1.23393L20.1361 1.23582L22.1284 2.59328L22.1308 2.59489C22.343 2.73817 22.3922 3.02256 22.2493 3.22357L22.2481 3.22525L18.8841 7.9868C18.8841 7.9869 18.884 7.98701 18.8839 7.98711C18.1673 9.00069 18.9142 10.3481 20.1227 10.3481H26.0191C26.2902 10.3481 26.4929 10.5624 26.4929 10.8041V13.1959C26.4929 13.4376 26.2902 13.6519 26.0191 13.6519H20.1227C18.9267 13.6519 18.1644 14.9952 18.8839 16.0129C18.884 16.013 18.8841 16.0131 18.8841 16.0132L22.2481 20.7748L22.2493 20.7764C22.3896 20.9737 22.3475 21.2549 22.1267 21.4078C22.1264 21.4081 22.126 21.4084 22.1256 21.4086L20.1361 22.7642Z" stroke="#B6B8B8" stroke-width="1.3"/>
</svg>
