<svg width="25" height="25" viewBox="0 0 25 25" fill="none" xmlns="http://www.w3.org/2000/svg">
<path d="M22.4584 11.1875L21.0418 9.54163C20.7709 9.22913 20.5522 8.64579 20.5522 8.22913V6.45829C20.5522 5.35413 19.6459 4.44788 18.5417 4.44788H16.7709C16.3647 4.44788 15.7709 4.22913 15.4584 3.95829L13.8126 2.54163C13.0938 1.92704 11.9167 1.92704 11.1876 2.54163L9.55217 3.96871C9.23967 4.22913 8.64592 4.44788 8.23967 4.44788H6.43758C5.33341 4.44788 4.42716 5.35413 4.42716 6.45829V8.23954C4.42716 8.64579 4.20841 9.22913 3.948 9.54163L2.54175 11.1979C1.93758 11.9166 1.93758 13.0833 2.54175 13.802L3.948 15.4583C4.20841 15.7708 4.42716 16.3541 4.42716 16.7604V18.5416C4.42716 19.6458 5.33341 20.552 6.43758 20.552H8.23967C8.64592 20.552 9.23967 20.7708 9.55217 21.0416L11.198 22.4583C11.9167 23.0729 13.0938 23.0729 13.823 22.4583L15.4688 21.0416C15.7813 20.7708 16.3647 20.552 16.7813 20.552H18.5522C19.6563 20.552 20.5626 19.6458 20.5626 18.5416V16.7708C20.5626 16.3645 20.7813 15.7708 21.0522 15.4583L22.4688 13.8125C23.073 13.0937 23.073 11.9062 22.4584 11.1875ZM16.8334 10.5312L11.8022 15.5625C11.6563 15.7083 11.4584 15.7916 11.2501 15.7916C11.0417 15.7916 10.8438 15.7083 10.698 15.5625L8.17717 13.0416C7.87508 12.7395 7.87508 12.2395 8.17717 11.9375C8.47925 11.6354 8.97925 11.6354 9.28133 11.9375L11.2501 13.9062L15.7292 9.42704C16.0313 9.12496 16.5313 9.12496 16.8334 9.42704C17.1355 9.72913 17.1355 10.2291 16.8334 10.5312Z" fill="#6DAF3E"/>
</svg>
