<svg width="54" height="54" viewBox="0 0 54 54" fill="none" xmlns="http://www.w3.org/2000/svg">
<rect width="54" height="54" rx="12" fill="#80C4FF" fill-opacity="0.1"/>
<path opacity="0.4" d="M38.625 25.55C39.1125 25.55 39.5 25.1625 39.5 24.675V23.5125C39.5 18.3875 37.9375 16.825 32.8125 16.825H21.1875C16.0625 16.825 14.5 18.3875 14.5 23.5125V24.1C14.5 24.5875 14.8875 24.975 15.375 24.975C16.5 24.975 17.4125 25.8875 17.4125 27.0125C17.4125 28.1375 16.5 29.0375 15.375 29.0375C14.8875 29.0375 14.5 29.425 14.5 29.9125V30.5C14.5 35.625 16.0625 37.1875 21.1875 37.1875H32.8125C37.9375 37.1875 39.5 35.625 39.5 30.5C39.5 30.0125 39.1125 29.625 38.625 29.625C37.5 29.625 36.5875 28.7125 36.5875 27.5875C36.5875 26.4625 37.5 25.55 38.625 25.55Z" fill="#005DAE"/>
<path d="M30.75 31.85C30.05 31.85 29.4875 31.2875 29.4875 30.6C29.4875 29.9125 30.05 29.35 30.7375 29.35C31.425 29.35 31.9875 29.9125 31.9875 30.6C31.9875 31.2875 31.45 31.85 30.75 31.85Z" fill="#005DAE"/>
<path d="M23.25 25.6C22.55 25.6 21.9875 25.0375 21.9875 24.35C21.9875 23.6625 22.55 23.1 23.2375 23.1C23.925 23.1 24.4875 23.6625 24.4875 24.35C24.4875 25.0375 23.95 25.6 23.25 25.6Z" fill="#005DAE"/>
<path d="M22.7875 32.5375C22.55 32.5375 22.3125 32.45 22.125 32.2625C21.7625 31.9 21.7625 31.3 22.125 30.9375L30.5375 22.525C30.9 22.1625 31.5 22.1625 31.8625 22.525C32.225 22.8875 32.225 23.4875 31.8625 23.85L23.45 32.2625C23.275 32.45 23.025 32.5375 22.7875 32.5375Z" fill="#005DAE"/>
</svg>
